<svg xmlns="http://www.w3.org/2000/svg" width="294" height="206.001" viewBox="0 0 294 206.001">
  <g id="Grupo_165931" data-name="Grupo 165931" transform="translate(-1090 -1642.999)">
    <rect id="Rectángulo_41003" data-name="Rectángulo 41003" width="294" height="140" rx="9" transform="translate(1090 1709)" fill="#ffbfc1"/>
    <g id="Grupo_165930" data-name="Grupo 165930" transform="translate(1145 1643)">
      <g id="Grupo_165932" data-name="Grupo 165932">
        <path id="Trazado_151448" data-name="Trazado 151448" d="M126.674,5.21C128.343,1.143,129.939.066,134.3.064c1.583,0,3.166-.014,4.748,0a6.336,6.336,0,0,1,6.625,6.573c.036,3.428.034,6.857.054,10.286,0,.027.082.053.2.125,1.393-3.24,3.921-4.548,7.374-4.337,1.511.092,3.032.008,4.549.017,4.175.026,6.808,2.623,6.822,6.773.018,5.509,0,11.019.12,16.6,1.547-3.475,4.283-4.629,7.842-4.393,1.576.1,3.165-.016,4.747.025a6.292,6.292,0,0,1,6.28,6.311c.056,3.758.014,7.517.014,11.276q0,37.785.016,75.571a7.2,7.2,0,0,1-.782,3.4c-2.688,5.284-5.3,10.607-7.983,15.893a6.761,6.761,0,0,0-.767,3.2c.034,7.254-.036,14.508.058,21.761.021,1.61-.475,2.045-1.991,1.925-1.439-.115-2.9.006-4.347.023a3.948,3.948,0,0,1-2.644.589q-25.888.017-51.777,0a3.946,3.946,0,0,1-2.644-.589c-1.572-.017-3.151-.129-4.715-.023-1.35.091-1.625-.448-1.609-1.681.05-3.8-.018-7.6-.041-11.4a3.967,3.967,0,0,1-.529-2.622c-.02-2.538-.01-5.075-.006-7.612a7.8,7.8,0,0,0-.635-3.228q-6.9-13.912-13.9-27.777a11.79,11.79,0,0,1-1.285-5.5q.051-19.981.012-39.965c-.012-1.048-.009-2.094,0-3.142.02-6.441-.02-12.881,0-19.322.012-3.189.516-3.81,3.65-4.608a13.241,13.241,0,0,1,14.8,6.4,5.588,5.588,0,0,1,.806,3.376c-1.9,1.285-2.3,3.119-2.279,5.317.089,8.039.034,16.08.037,24.12a9.918,9.918,0,0,0,.165,2.558,2.438,2.438,0,0,0,4.785.055,9.233,9.233,0,0,0,.183-2.555c0-7.777-.074-15.554.045-23.329.04-2.653-.189-4.975-2.768-6.4a20.91,20.91,0,0,1-.49-5.09c.022-9.344.009-18.688.011-28.033a10.81,10.81,0,0,1,.514-4.084,7.2,7.2,0,0,1,7.092-4.4c1.975.021,3.953-.071,5.926.039a6.446,6.446,0,0,1,5.645,3.422c-.245-2.714-.1-5.835-.08-8.954a2.182,2.182,0,0,1,.529-1.455" fill="#feb532"/>
        <path id="Trazado_151449" data-name="Trazado 151449" d="M22.157,171.1c-1.45-.017-2.907-.138-4.347-.024-1.513.12-2.012-.311-1.991-1.923.094-7.251.024-14.5.058-21.756a6.8,6.8,0,0,0-.765-3.2C10.318,134.661,5.57,125.107.775,115.577a6.841,6.841,0,0,1-.764-3.2Q.054,96.748,0,81.123a4.157,4.157,0,0,1,1.338-3.288C6.789,72.472,12.152,67.018,17.6,61.654a4.361,4.361,0,0,0,1.459-3.436c-.06-12.79-.038-25.58-.033-38.37,0-4.6,2.489-7.1,7.061-7.118,1.319,0,2.643.078,3.955-.015,3.564-.254,6.3.922,7.981,4.326,0-3.392-.013-6.785,0-10.177.019-4.192,2.6-6.771,6.784-6.8C46.79.054,48.769.026,50.745.074A6.314,6.314,0,0,1,57.015,6.4c.041,1.713.021,3.428.029,5.142-.668,1.516-2.217,1.995-3.426,2.849A79.056,79.056,0,0,0,23.7,53.916a2.634,2.634,0,0,0-.225,1.216,65.629,65.629,0,0,0,6.16-6.2c1.727-2.036,2.234-2.127,4.062-.253,2.633,2.7,5.165,5.46,5.737,9.451a12.107,12.107,0,0,1-3.248,10.734C31.349,73.824,26.437,78.7,21.5,83.549a4.733,4.733,0,0,0-1.531,4.243,78.928,78.928,0,0,0,53.254,66.035,4.13,4.13,0,0,1,1.93.942c.324.361.038.578-.256.767a7.91,7.91,0,0,1-2.928.248c-1.126,0-1.753.43-1.695,1.623.006.131,0,.263-.007.394-.1,2.953,1.483,4.08,4.281,3.083.909-.323.839-1.059.9-1.772.109-1.292-.26-2.638.428-3.87a1.006,1.006,0,0,1,.907-.286c2.7.563,5.4,1.15,8.081,1.825.382.1.735.31.7.811-.013,3.933-.07,7.868-.014,11.8.017,1.231-.252,1.775-1.607,1.683-1.564-.106-3.143.007-4.716.024a3.959,3.959,0,0,1-2.644.589q-25.889.017-51.777,0a3.953,3.953,0,0,1-2.644-.589" fill="#feb532"/>
        <path id="Trazado_151450" data-name="Trazado 151450" d="M85.559,157.591l-9.541-2.31a.437.437,0,0,1-.664-.128,85.488,85.488,0,0,1-20.782-9.89C35.851,132.5,24.3,115.029,20.2,92.7c-.1-.518-.236-1.028-.313-1.548-.839-5.661-.836-5.661,3.249-9.746,3.961-3.962,7.941-7.907,11.88-11.892,5.383-5.449,5.535-12.5.407-18.187-1.141-1.266-2.209-3.236-3.68-3.368-1.421-.128-2.334,2.051-3.528,3.155-1.822,1.684-3.551,3.469-5.479,5.1a35.885,35.885,0,0,1,2.87-8.569A79.091,79.091,0,0,1,55.728,12.416c.443-.286.877-.584,1.316-.876a82.146,82.146,0,0,1,22.5-9.276A79.413,79.413,0,0,1,102.554.124a86.391,86.391,0,0,1,24.12,5.086V17.643c-1.737-4.226-4.733-5.251-8.452-4.927a17.613,17.613,0,0,1-2.959,0,7.068,7.068,0,0,0-7.105,3.644c-.788.293-1.4-.18-2.045-.482-14.591-6.87-30.562.345-35.1,15.866a6.116,6.116,0,0,1-.645,1.652c-2.207,2.189-4.953,3.678-7.295,5.724A53.3,53.3,0,0,0,48.354,60.363a50.632,50.632,0,0,0-3.448,21.124,52.9,52.9,0,0,0,12.743,32.334,56.544,56.544,0,0,0,11.233,9.9,5.4,5.4,0,0,1,1.47,1.308c.935,1.957,1.3,4.114,2.272,6.076a24.858,24.858,0,0,0,28.33,13.38,4.7,4.7,0,0,1,2.69-.345,4.021,4.021,0,0,1,.88,2.325c-.04,3.841-.052,7.683-.074,11.524a57.669,57.669,0,0,1-16.148-.318,26.916,26.916,0,0,0-2.743-.084" fill="#e8edf1"/>
        <path id="Trazado_151451" data-name="Trazado 151451" d="M22.157,171.1H79.222c-.012,3.627-.063,7.254-.014,10.88.017,1.209-.226,1.763-1.611,1.76q-26.907-.062-53.815,0c-1.385,0-1.628-.551-1.611-1.76.049-3.626,0-7.253-.014-10.88" fill="#906c4e"/>
        <path id="Trazado_151452" data-name="Trazado 151452" d="M110.815,171.1H167.88c-.012,3.627-.063,7.254-.014,10.88.017,1.209-.226,1.763-1.611,1.76q-26.907-.062-53.815,0c-1.385,0-1.628-.551-1.611-1.76.049-3.626,0-7.253-.014-10.88" fill="#906c4e"/>
        <path id="Trazado_151453" data-name="Trazado 151453" d="M70.048,33.316c1.422-5.992,4.176-11.168,9.17-14.974,8.695-6.628,17.946-7.386,27.719-2.626.414.2.814.428,1.222.643a14.945,14.945,0,0,0-.487,4.293q.012,16.611-.029,33.222a.23.23,0,0,1-.336.008C104.581,46.134,97.627,42.6,90.34,45.2a2.15,2.15,0,0,0-1.692,2.408c.059,6.832-.008,13.664-.03,20.5-.872-.026-.9-.851-1.237-1.351a5.909,5.909,0,0,0-6.658-2.616,5.815,5.815,0,0,0,0,11.165,5.909,5.909,0,0,0,6.656-2.618c.341-.5.368-1.325,1.237-1.354.022,13.518.063,27.036.042,40.554a8.908,8.908,0,0,0,.991,4.142q7.035,14.037,13.994,28.113c-13.494,5.349-29.572-3.045-33.151-17.305-.144-.571-.3-1.14-.445-1.71-1.4-2.614-.947-5.391-.644-8.127.241-2.179.321-2.17-1.743-2.552A13.292,13.292,0,0,1,59.85,92.562c1.672-1.971,4.028-2.883,6.448-4.058a43.619,43.619,0,0,1-4.622-4.359c-9.256-11.636-5.715-28.172,7.569-34.708,1.634-.805,1.867-1.587,1.269-3.193a24.984,24.984,0,0,1-1.345-9.924,6.916,6.916,0,0,1,.879-3" fill="#6ed1ef"/>
        <path id="Trazado_151454" data-name="Trazado 151454" d="M123.516,49.124q0-13.049,0-26.1c0-2.592,1.041-3.915,3.084-3.961,2.131-.049,3.245,1.311,3.245,4q0,26.1,0,52.2c0,2.59-1.043,3.915-3.084,3.961-2.131.048-3.244-1.313-3.246-4q0-13.048,0-26.1" fill="#eaa62e"/>
        <path id="Trazado_151455" data-name="Trazado 151455" d="M148.846,49.125q0,13.247.01,26.494a3.234,3.234,0,0,1-1.738,3.268,3.073,3.073,0,0,1-3.193-.172,3.123,3.123,0,0,1-1.418-2.864q.015-26.691.016-53.383c0-2.161,1.287-3.448,3.238-3.4,1.926.044,3.075,1.333,3.079,3.566q.022,13.248.006,26.494" fill="#eaa62e"/>
        <path id="Trazado_151456" data-name="Trazado 151456" d="M167.844,58.815q0,8.3,0,16.6c0,2.512-1.157,3.848-3.238,3.8-1.987-.043-3.087-1.354-3.088-3.756q-.012-16.8,0-33.6c0-2.516,1.154-3.847,3.239-3.8,1.986.042,3.083,1.354,3.088,3.755q.015,8.5,0,17" fill="#eaa62e"/>
        <path id="Trazado_151457" data-name="Trazado 151457" d="M107.308,53.882a2.326,2.326,0,0,0,.334-.008c2.406.426,3.2,1.3,3.2,3.66q.018,13.744,0,27.491c0,2.367-1.155,3.688-3.152,3.693s-3.169-1.311-3.171-3.675c-.011-9.163.012-18.327-.016-27.491-.007-2,.78-3.276,2.8-3.67" fill="#eaa62e"/>
        <path id="Trazado_151458" data-name="Trazado 151458" d="M88.618,71.335c-1.782,3.9-4.633,5.474-8.036,4.436a6.225,6.225,0,0,1-4.559-6.539,6.351,6.351,0,0,1,12.191-1.993c.127.293.269.58.4.869v3.227" fill="#60b7d0"/>
        <path id="Trazado_151459" data-name="Trazado 151459" d="M120.349,158.57c-.048,3.488.419,2.957-3.5,2.967-3.356.008-2.806.391-2.818-3.639-.01-3.208-.382-2.648,3.786-2.674,3-.019,2.486-.23,2.535,3.346" fill="#eaa62e"/>
        <path id="Trazado_151460" data-name="Trazado 151460" d="M129.821,155.215c3.72.054,3.171-.476,3.182,3.484.01,3.37.4,2.826-3.62,2.837-3.222.009-2.664.393-2.694-3.767-.021-2.981-.205-2.514,3.132-2.554" fill="#eaa62e"/>
        <path id="Trazado_151461" data-name="Trazado 151461" d="M152.013,158.389c-.056,3.686.485,3.135-3.519,3.147-3.342.01-2.79.393-2.8-3.655-.01-3.194-.375-2.627,3.8-2.659,2.961-.023,2.476-.181,2.519,3.167" fill="#eaa62e"/>
        <path id="Trazado_151462" data-name="Trazado 151462" d="M164.678,158.389c-.056,3.686.485,3.135-3.519,3.147-3.342.01-2.79.392-2.8-3.655-.01-3.195-.375-2.627,3.8-2.659,2.961-.023,2.476-.18,2.519,3.167" fill="#eaa62e"/>
        <path id="Trazado_151463" data-name="Trazado 151463" d="M25.359,158.287c.053-3.6-.472-3.047,3.6-3.062,3.227-.012,2.711-.358,2.717,3.544.006,3.3.407,2.744-3.691,2.77-3.093.02-2.584.228-2.63-3.252" fill="#eaa62e"/>
        <path id="Trazado_151464" data-name="Trazado 151464" d="M44.357,158.37c-.055,3.706.48,3.154-3.5,3.166-3.358.01-2.808.392-2.82-3.638-.01-3.209-.382-2.646,3.787-2.676,2.97-.021,2.491-.21,2.534,3.148" fill="#eaa62e"/>
        <path id="Trazado_151465" data-name="Trazado 151465" d="M63.355,158.475c-.053,3.6.472,3.047-3.6,3.062-3.227.012-2.711.358-2.717-3.544-.006-3.3-.407-2.744,3.691-2.77,3.093-.02,2.584-.228,2.63,3.252" fill="#eaa62e"/>
        <path id="Trazado_151466" data-name="Trazado 151466" d="M75.354,155.154l.664.128c0,1.511-.081,3.028.026,4.531.1,1.432-.5,1.757-1.826,1.763-4.621.02-4.552.064-4.568-4.552-.006-1.55.559-1.933,1.963-1.832,1.24.089,2.493-.018,3.741-.038" fill="#eaa62e"/>
        <path id="Trazado_151467" data-name="Trazado 151467" d="M70.048,33.316a25.982,25.982,0,0,0,1.594,14.491c.457,1.075-.224,1.15-.93,1.453a21.562,21.562,0,0,0-13.171,15.7,21.955,21.955,0,0,0,9.567,23.314,5.331,5.331,0,0,1,.538.508c-3.429.977-6.417,2.429-8.4,5.454a12.683,12.683,0,0,0,9.791,19.794c.935.06,1.418.056,1.14,1.3a26.354,26.354,0,0,0-.129,9.795,55.072,55.072,0,0,1-10.311-8.2A53.663,53.663,0,0,1,45.1,87.832c-2.492-15.7,1.5-29.668,10.966-42.2a51.981,51.981,0,0,1,13.98-12.316" fill="#d9dbdd"/>
        <path id="Trazado_151468" data-name="Trazado 151468" d="M66.519,28.656a6.331,6.331,0,1,1-6.138-6.425,6.353,6.353,0,0,1,6.138,6.425" fill="#60b7d0"/>
        <path id="Trazado_151469" data-name="Trazado 151469" d="M41.056,110.883a6.331,6.331,0,1,1,6.464-6.1,6.358,6.358,0,0,1-6.464,6.1" fill="#60b7d0"/>
        <path id="Trazado_151470" data-name="Trazado 151470" d="M98.185,31.807c-.056,3.614.485,3.065-3.591,3.074-3.262.008-2.716.425-2.73-3.726-.011-3.109-.345-2.562,3.678-2.586,3.1-.019,2.6-.25,2.643,3.238" fill="#60b7d0"/>
        <path id="Trazado_151471" data-name="Trazado 151471" d="M72.854,101.477c-.055,3.606.48,3.05-3.6,3.065-3.23.012-2.714.376-2.72-3.541,0-3.306-.421-2.746,3.688-2.772,3.093-.02,2.587-.247,2.633,3.248" fill="#60b7d0"/>
      </g>
    </g>
  </g>
</svg>
