<svg xmlns="http://www.w3.org/2000/svg" xmlns:xlink="http://www.w3.org/1999/xlink" width="145" height="145" viewBox="0 0 145 145">
  <defs>
    <clipPath id="clip-path">
      <rect id="Rectángulo_41317" data-name="Rectángulo 41317" width="80.965" height="81.523" fill="none"/>
    </clipPath>
  </defs>
  <g id="Grupo_166238" data-name="Grupo 166238" transform="translate(-570 -2275)">
    <circle id="Elipse_4884" data-name="Elipse 4884" cx="72.5" cy="72.5" r="72.5" transform="translate(570 2275)" fill="#fff"/>
    <g id="Grupo_166237" data-name="Grupo 166237" transform="translate(601.886 2306.954)">
      <g id="Grupo_166236" data-name="Grupo 166236" clip-path="url(#clip-path)">
        <path id="Trazado_154295" data-name="Trazado 154295" d="M70.273,71.491c.469.987.391,1.368-.44,2.061a31.336,31.336,0,0,1-4.4,3.118,1.316,1.316,0,0,0-.719.962c-.076.415-.2.822-.307,1.23a1.189,1.189,0,0,1-1.122.959,1.142,1.142,0,0,1-1.263-.753c-.143-.381-.256-.483-.67-.306A32.828,32.828,0,0,1,50.7,81.392c-.058,0-.111.086-.166.131H45.125a24.591,24.591,0,0,0-3.389-.588A33.207,33.207,0,0,1,21.689,68.989,33.9,33.9,0,0,1,35.4,16.044a27.564,27.564,0,0,1,5.148-1.576c.559-.107.761-.334.744-.933-.048-1.723-.022-3.449-.015-5.174.005-1.112.426-1.534,1.534-1.543s2.229-.024,3.342.008c.465.013.575-.148.568-.587-.024-1.565-.014-3.131-.008-4.7,0-.95.464-1.517,1.229-1.542.795-.026,1.314.57,1.319,1.542.008,1.539.022,3.079-.009,4.616-.01.5.1.693.646.67,1.112-.045,2.228-.024,3.342-.01,1,.013,1.444.461,1.45,1.469.01,1.751.036,3.5-.015,5.253-.017.607.2.8.747.922a32.913,32.913,0,0,1,17.36,9.969,33.291,33.291,0,0,1,9.071,25.382A32.916,32.916,0,0,1,77.092,65.05c-.546.911-.873,1.052-1.889.828a1.2,1.2,0,0,1-.745-1.641,4.553,4.553,0,0,1,.536-1.06,31.275,31.275,0,0,0,1.868-3.8,29.413,29.413,0,0,1-5.05,3.887,1.539,1.539,0,0,1-2.312-.533,1.486,1.486,0,0,1,.8-1.984,23.858,23.858,0,0,0,4.815-3.875,15.193,15.193,0,0,0,3.249-5.045,4.43,4.43,0,0,0-1.325.458,39.03,39.03,0,0,1-5.125,1.428c-1.073.225-1.069.221-1.244,1.395a39.161,39.161,0,0,1-1.706,7.179,1.473,1.473,0,0,1-2.088,1.081,1.642,1.642,0,0,1-.669-2.147c.451-1.58.882-3.163,1.192-4.779.369-1.924.382-1.918-1.578-1.652-2.939.4-5.895.633-8.852.845-.852.061-.9.121-.952,1-.133,2.352-.287,4.7-.635,7.036-.119.8-.469,1.411-1.374,1.5-1.2-.134-1.734-.732-1.591-1.9.241-1.947.349-3.9.55-5.853.019-.185.028-.37.03-.556.01-.966-.07-1.071-1.015-1.061-2.673.029-5.345.038-8.017,0-.925-.013-1.03.072-.984,1,.145,2.938.466,5.86.847,8.776.067.51.344.688.845.749,1.056.129,2.114.118,3.173.157.953.035,1.34.384,1.611,1.334-.1,1.116-.559,1.605-1.627,1.635a14.106,14.106,0,0,1-2.694-.061c-.5-.082-.708.046-.591.578a27.872,27.872,0,0,0,2.444,7.606c.233.425.414,1.021,1.014,1,.53-.023.735-.567.966-.969a22.172,22.172,0,0,0,2.07-5.98c.3-1.249.726-1.609,1.886-1.578A1.5,1.5,0,0,1,54,72.041a32.734,32.734,0,0,1-2.057,6.424,23.2,23.2,0,0,0,4.577-.927,30.34,30.34,0,0,0,3.792-1.311.707.707,0,0,0,.5-1.031c-.109-.323-.174-.66-.263-.99-.282-.932-.2-2.062-.866-2.763-.64-.675-1.738-.7-2.628-1.027-1.266-.466-2.577-.805-3.825-1.326a1.594,1.594,0,0,1-.97-1.13c-.009-1.134.18-1.376,1.453-1.873,1.79-.582,3.541-1.284,5.346-1.821a1.332,1.332,0,0,0,.989-1.106c.477-2.013.993-4.017,1.5-6.023.327-1.3.755-1.757,1.612-1.766.831-.008,1.326.511,1.643,1.746.508,1.978.978,3.966,1.488,5.943a1.673,1.673,0,0,0,.424.923c1.822.765,3.7,1.355,5.572,1.987a6.594,6.594,0,0,1,1.034.39.987.987,0,0,1,.644.988c.147,1.111-.585,1.5-1.456,1.777a19.392,19.392,0,0,1-3.92,1.518,4.212,4.212,0,0,1-.754.25,1.8,1.8,0,0,0-1.658,2c.764-.477,1.4-1.112,2.128-1.623.833-.587,1.427-.509,1.97.223" transform="translate(-6.395 0)"/>
        <path id="Trazado_154296" data-name="Trazado 154296" d="M130.711,12.157a1.323,1.323,0,0,1-1.071,1.3c-1.928.652-3.839,1.355-5.782,1.957a1.317,1.317,0,0,0-1,1.123c-.516,2.189-1.068,4.37-1.617,6.551-.276,1.1-1.19,1.563-2,1.046a1.686,1.686,0,0,1-.654-1.14c-.543-2.183-1.1-4.362-1.613-6.551a1.215,1.215,0,0,0-.919-1.014c-1.914-.606-3.808-1.279-5.712-1.92-.671-.226-1.216-.548-1.2-1.369.014-.778.537-1.086,1.18-1.3,1.9-.638,3.8-1.3,5.711-1.919a1.233,1.233,0,0,0,.938-1c.514-2.189,1.078-4.367,1.608-6.553.175-.723.469-1.313,1.315-1.36.7-.039,1.142.418,1.378,1.374.547,2.209,1.1,4.416,1.637,6.627a1.034,1.034,0,0,0,.778.854c1.988.637,3.958,1.334,5.934,2.006a1.332,1.332,0,0,1,1.092,1.29" transform="translate(-49.746 -0.002)"/>
        <path id="Trazado_154297" data-name="Trazado 154297" d="M10.628,34.328c-.667-.048-1-.569-1.172-1.27-.536-2.184-1.1-4.362-1.608-6.552A1.334,1.334,0,0,0,6.822,25.4c-1.889-.6-3.755-1.267-5.634-1.9C.542,23.286.018,22.978,0,22.2c-.018-.816.522-1.148,1.2-1.374,1.929-.648,3.85-1.322,5.788-1.943a1.1,1.1,0,0,0,.829-.908c.522-2.187,1.091-4.363,1.611-6.551.18-.759.469-1.374,1.343-1.428.683-.042,1.13.439,1.367,1.4.541,2.183,1.094,4.363,1.613,6.551a1.162,1.162,0,0,0,.885.948c1.937.621,3.857,1.3,5.784,1.951.646.219,1.154.55,1.153,1.325s-.508,1.1-1.155,1.322c-1.929.649-3.848,1.331-5.788,1.946a1.16,1.16,0,0,0-.878.959c-.528,2.213-1.082,4.42-1.631,6.628-.224.9-.666,1.316-1.489,1.3" transform="translate(0 -4.557)"/>
        <path id="Trazado_154298" data-name="Trazado 154298" d="M113.687,111.971a1.371,1.371,0,0,0,2.129.315,27.6,27.6,0,0,0,4.968-3.917c.14-.14.239-.344.539-.391a30.11,30.11,0,0,1-2.445,5.063,1.342,1.342,0,0,0,.353,2.055c-.585.345-.765,1.031-1.24,1.47a1.7,1.7,0,0,0-1.16-.988c-2.076-.7-4.14-1.43-6.209-2.149a.342.342,0,0,1,.152-.168c1.031-.294,1.878-1,2.913-1.29" transform="translate(-50.422 -49.217)" fill="#b069be"/>
        <path id="Trazado_154299" data-name="Trazado 154299" d="M113.678,129.389a1.374,1.374,0,0,0-2.053.077,19.449,19.449,0,0,1-2.332,1.743c-.02-.057-.039-.082-.037-.106a2.534,2.534,0,0,1,2.226-2.638,42.552,42.552,0,0,0,4.43-1.443l-2.234,2.366" transform="translate(-49.799 -57.898)" fill="#af68bd"/>
        <path id="Trazado_154300" data-name="Trazado 154300" d="M77.218,82.828c0,1.589-.013,3.179.008,4.768.006.451-.08.637-.6.645-3.233.051-6.464.057-9.7,0-.433-.008-.58-.114-.6-.569q-.186-4.888,0-9.775c.015-.387.1-.555.526-.57q4.927-.172,9.853,0c.441.015.514.2.511.578-.014,1.642-.006,3.285-.006,4.927" transform="translate(-30.191 -35.205)" fill="#fc5e94"/>
        <path id="Trazado_154301" data-name="Trazado 154301" d="M91.1,83q0-2.384,0-4.768c0-.317-.082-.614.457-.58,3.779.244,7.547.588,11.292,1.166.524.081.624.287.652.756a58.13,58.13,0,0,1,0,6.83c-.027.483-.209.635-.635.7-3.693.562-7.408.91-11.134,1.158-.547.036-.655-.143-.643-.653.034-1.535.013-3.072.011-4.608" transform="translate(-41.52 -35.394)" fill="#daa1d5"/>
        <path id="Trazado_154302" data-name="Trazado 154302" d="M49.191,77.833c2.136-.062,2.077-.064,2.017,1.6-.091,2.516-.109,5.037.022,7.554.011.212,0,.427.034.635.082.539-.089.772-.678.718-2.109-.193-4.225-.325-6.332-.536-1.474-.147-2.934-.426-4.407-.566-.761-.072-.966-.351-1.009-1.122a52.654,52.654,0,0,1,.03-6.513c.03-.451.137-.611.618-.69,3.376-.549,6.775-.857,9.707-1.075" transform="translate(-17.662 -35.468)" fill="#834a8e"/>
        <path id="Trazado_154303" data-name="Trazado 154303" d="M77.74,112.8c-.789.282-1.45.667-1.341,1.67a4.878,4.878,0,0,1-3.1.054c-.273-1.005-.593-1.248-1.606-1.28-1.137-.036-2.274-.118-3.412-.136-.444-.007-.554-.173-.614-.591-.465-3.253-.771-6.518-.953-9.8-.027-.492.091-.641.593-.624q4.686.162,9.374,0c.5-.017.629.121.6.619-.137,2.353-.319,4.7-.608,7.041-.139,1.127.238,1.632,1.357,1.783a5.042,5.042,0,0,0-.287,1.261" transform="translate(-30.405 -46.536)" fill="#b069be"/>
        <path id="Trazado_154304" data-name="Trazado 154304" d="M52.757,111.341c.083.355-.146.327-.368.293a44.634,44.634,0,0,1-10.092-2.7.854.854,0,0,1-.495-.569,42.935,42.935,0,0,1-2.09-8.213c-.113-.73.392-.4.627-.378,1.71.19,3.413.45,5.124.62q2.846.282,5.7.435c.535.029.669.226.687.7.124,3.232.473,6.444.874,9.652.007.053.019.1.029.157" transform="translate(-18.094 -45.433)" fill="#fc5e94"/>
        <path id="Trazado_154305" data-name="Trazado 154305" d="M52.708,53.787c-.421,3.236-.737,6.374-.867,9.528-.017.4-.107.619-.577.645-3.759.212-7.506.551-11.227,1.134-.378.059-.387-.084-.341-.386a42.385,42.385,0,0,1,2.116-8.3.833.833,0,0,1,.522-.531,43.507,43.507,0,0,1,9.782-2.664c.637-.1.75.136.592.568" transform="translate(-18.084 -24.246)" fill="#fc5e94"/>
        <path id="Trazado_154306" data-name="Trazado 154306" d="M89.737,53.234a43.024,43.024,0,0,1,9.9,2.679.763.763,0,0,1,.449.508,41.726,41.726,0,0,1,2.095,8.221c.055.372.072.524-.4.45A101.3,101.3,0,0,0,90.95,64.011c-.651-.03-.893-.214-.915-.918-.1-3.129-.452-6.239-.838-9.345-.067-.541-.064-.542.54-.514" transform="translate(-40.643 -24.26)" fill="#fc5e94"/>
        <path id="Trazado_154307" data-name="Trazado 154307" d="M71.94,63.371c-1.538,0-3.076-.016-4.613.011-.449.008-.66-.024-.628-.578.191-3.309.5-6.605.964-9.888.059-.416.228-.522.6-.543a66.087,66.087,0,0,1,7.473,0c.378.021.526.151.583.559.459,3.257.762,6.527.958,9.809.032.54-.114.656-.641.643-1.563-.041-3.128-.015-4.693-.014" transform="translate(-30.4 -23.824)" fill="#fc8db3"/>
        <path id="Trazado_154308" data-name="Trazado 154308" d="M86.837,111.745c-.353-.523-.111-.91.287-1.261A1.368,1.368,0,0,0,88.3,109.1c.281-2.476.519-4.954.608-7.444.02-.561.164-.76.766-.789a94.384,94.384,0,0,0,10.668-1.062c.641-.105.8.013.675.693a51.059,51.059,0,0,1-1.534,6.4c-.291.932-.119,1.318.721,1.854.2.407-.016.664-.317.893l-.186.041c-.439-.08-.36-.484-.43-.756-.564-2.2-1.1-4.413-1.648-6.622-.178-.722-.49-1.3-1.356-1.3-.82.008-1.135.551-1.307,1.251-.542,2.209-1.1,4.413-1.628,6.626A1.211,1.211,0,0,1,92.4,109.9c-1.867.578-3.713,1.226-5.566,1.846" transform="translate(-39.503 -45.478)" fill="#fc8db3"/>
        <path id="Trazado_154309" data-name="Trazado 154309" d="M99.292,34.661c7.9,3.089,14.61,10.712,16.818,17.632a29.921,29.921,0,0,0-9.252-6.479.9.9,0,0,1-.468-.5,32.665,32.665,0,0,0-7.1-10.65" transform="translate(-45.258 -15.799)" fill="#fc5e94"/>
        <path id="Trazado_154310" data-name="Trazado 154310" d="M46.452,122.445a48.23,48.23,0,0,0,7.527,1.9,7,7,0,0,0,1.33.208c.795-.028,1.076.307,1.2,1.08a33.658,33.658,0,0,0,2.533,8.646c-6.108-2.027-9.683-6.417-12.594-11.838" transform="translate(-21.173 -55.811)" fill="#834a8e"/>
        <path id="Trazado_154311" data-name="Trazado 154311" d="M46.452,42.45c2.915-5.458,6.524-9.828,12.6-11.862a30.566,30.566,0,0,0-2.072,6.3q-.305,1.4-.58,2.8c-.053.269-.065.5-.432.548a48.88,48.88,0,0,0-9.519,2.212" transform="translate(-21.173 -13.942)" fill="#fc8db3"/>
        <path id="Trazado_154312" data-name="Trazado 154312" d="M95.679,42.487c-.982-.293-1.9-.592-2.835-.84a48.043,48.043,0,0,0-6.3-1.242c-.415-.053-.552-.21-.629-.623a35.886,35.886,0,0,0-2.58-8.892c4.809.913,10.224,6.533,12.341,11.6" transform="translate(-37.986 -14.08)" fill="#daa1d5"/>
        <path id="Trazado_154313" data-name="Trazado 154313" d="M74.569,124.844c1.037.129,2.065-.253,3.1-.054a1.611,1.611,0,0,0,.831.983,1.686,1.686,0,0,1-.306,1.29c-1.047.05-1.347.29-1.6,1.288a29.667,29.667,0,0,1-1.742,5.427,7.05,7.05,0,0,1-1.042,1.681c-.387.445-.74.424-1.117-.01a6.509,6.509,0,0,1-.969-1.541,33.934,33.934,0,0,1-2.209-7.514c-.093-.448.138-.41.426-.4,1.005.044,2.01.1,3.016.113s1.331-.257,1.6-1.267" transform="translate(-31.679 -56.853)" fill="#fc5e94"/>
        <path id="Trazado_154314" data-name="Trazado 154314" d="M84.333,127.935a2.337,2.337,0,0,1,.306-1.29q3.229,1.083,6.459,2.168a.527.527,0,0,1,.423.411c.19.9.41,1.8.619,2.7a11.11,11.11,0,0,1-4.132,3.51,24.36,24.36,0,0,1-5.045,1.06,26.307,26.307,0,0,0,1.707-4.567q.272-1.032.52-2.069c.255-1.064.109-1.382-.857-1.921" transform="translate(-37.815 -57.725)" fill="#daa1d5"/>
        <path id="Trazado_154315" data-name="Trazado 154315" d="M77.037,39.613a73.725,73.725,0,0,0-7.622,0,31.636,31.636,0,0,1,2.4-8.12c.332-.666.615-1.628,1.455-1.6.772.021,1.062.953,1.382,1.6a32.024,32.024,0,0,1,2.39,8.12" transform="translate(-31.64 -13.624)" fill="#fc5e94"/>
        <path id="Trazado_154316" data-name="Trazado 154316" d="M37.937,36.3a13.6,13.6,0,0,1,3.346-1.622c-.494.523-1,1.035-1.479,1.571A32.537,32.537,0,0,0,34.3,45.026a1.354,1.354,0,0,1-.66.838,33.668,33.668,0,0,0-6.818,4.18c-.278-.319-.285-.322-.054-.808a33.95,33.95,0,0,1,3.845-6.208A29.726,29.726,0,0,1,37.937,36.3" transform="translate(-12.124 -15.809)" fill="#fc5e94"/>
        <path id="Trazado_154317" data-name="Trazado 154317" d="M26.63,111.689a34.938,34.938,0,0,0,7.015,4.33,1.05,1.05,0,0,1,.513.568c2.754,5.646,2.886,5.839,7.285,10.783a20.734,20.734,0,0,1-3.686-1.918,32.165,32.165,0,0,1-10.782-12.3c-.23-.444-.63-.885-.344-1.466" transform="translate(-12.093 -50.908)" fill="#fc5e94"/>
        <path id="Trazado_154318" data-name="Trazado 154318" d="M110.963,107.176l.316-.893a1.34,1.34,0,0,0,1.721-1.1,46.568,46.568,0,0,0,1.768-7.815c.04-.288,0-.594.4-.672a34.653,34.653,0,0,0,7.759-2.347,15,15,0,0,1-3.322,5.494,22.731,22.731,0,0,1-4.981,4.054,1.465,1.465,0,0,0-.782,1.86,8.611,8.611,0,0,1-2.879,1.416" transform="translate(-50.577 -43.007)" fill="#fc5e94"/>
        <path id="Trazado_154319" data-name="Trazado 154319" d="M124.773,71.734a32.787,32.787,0,0,0-7.5-2.307.785.785,0,0,1-.74-.807,43.094,43.094,0,0,0-1.628-7.372c4.4,2.54,8,5.556,9.865,10.487" transform="translate(-52.376 -27.917)" fill="#fc8db3"/>
        <path id="Trazado_154320" data-name="Trazado 154320" d="M21.853,95.356a45.2,45.2,0,0,0,6.5,1.783c.25.046.455.136.49.432a46.352,46.352,0,0,0,1.642,7.655,25.145,25.145,0,0,1-5.2-3.664,15,15,0,0,1-3.136-3.771,5.473,5.473,0,0,1-.476-1.635.862.862,0,0,1,.18-.8" transform="translate(-9.869 -43.464)" fill="#d04d7a"/>
        <path id="Trazado_154321" data-name="Trazado 154321" d="M22.187,68.751A18.671,18.671,0,0,1,27.545,63.2a20.2,20.2,0,0,1,2.915-1.809c-.239.931-.455,1.783-.676,2.634a37.1,37.1,0,0,0-.9,4.75c-.05.4-.152.6-.582.681a45.022,45.022,0,0,0-6.259,1.707c-.466-.087-.348-.451-.336-.744a5.4,5.4,0,0,1,.478-1.664" transform="translate(-9.885 -27.98)" fill="#fc8db3"/>
        <path id="Trazado_154322" data-name="Trazado 154322" d="M118.7,88.014c0-1.27.015-2.511,0-3.752-.015-.927-.057-1.854-.12-2.779-.027-.4.094-.533.484-.438a24.668,24.668,0,0,1,6.8,2.327c1.513.888,1.51,1.4-.027,2.266a25.6,25.6,0,0,1-7.136,2.375" transform="translate(-54.047 -36.928)" fill="#b069be"/>
        <path id="Trazado_154323" data-name="Trazado 154323" d="M21.187,83.244a24.179,24.179,0,0,1,6.58-2.2c.313-.077.438.039.409.364a41.031,41.031,0,0,0,.021,6.642,26.859,26.859,0,0,1-6.993-2.269,3,3,0,0,1-.018-2.535" transform="translate(-9.533 -36.929)" fill="#fc5e94"/>
        <path id="Trazado_154324" data-name="Trazado 154324" d="M71.248,17.248c2.115-.01,4.229-.01,6.343-.041.438-.007.528.156.52.552-.022,1.137-.012,2.274,0,3.411,0,.316.014.577-.447.511a41.15,41.15,0,0,0-6.412-.157.921.921,0,0,1-.24-.647q-.044-1.491,0-2.982a.918.918,0,0,1,.24-.647" transform="translate(-32.356 -7.843)" fill="#fc5e94"/>
        <path id="Trazado_154325" data-name="Trazado 154325" d="M99.709,114.1c.285,1.152.527,2.091.747,3.034a1.651,1.651,0,0,0,1.209,1.323c1.13.349,2.241.763,3.583,1.226-1.19.413-2.171.81-3.185,1.09a2.046,2.046,0,0,0-1.693,1.829c-.122.831-.4,1.638-.672,2.673-.274-1.093-.524-1.979-.711-2.877a1.831,1.831,0,0,0-1.4-1.539c-1.086-.315-2.145-.72-3.436-1.161,1.19-.417,2.178-.828,3.2-1.1a2.059,2.059,0,0,0,1.677-1.844c.133-.827.408-1.63.674-2.65" transform="translate(-42.916 -52.006)" fill="#fee789"/>
        <path id="Trazado_154326" data-name="Trazado 154326" d="M24.795,109.884a14.8,14.8,0,0,0,2.1,4.138,32.752,32.752,0,0,0,8.783,9.323,1.4,1.4,0,0,1,.238.3,24.085,24.085,0,0,1-5.188-3.766,31.185,31.185,0,0,1-7.989-11.436c-.068-.166-.115-.341-.24-.716l2.291,2.155" transform="translate(-10.257 -49.103)" fill="#d04d7a"/>
        <path id="Trazado_154327" data-name="Trazado 154327" d="M36.079,37.663A12.609,12.609,0,0,1,33.95,39.39a31.848,31.848,0,0,0-7.576,8.868c-.479.823-.91,1.674-1.341,2.523-.091.18-.362.38-.074.621l-2.437,2.273a21.987,21.987,0,0,1,1.863-4.127A31.606,31.606,0,0,1,35.512,37.936a5.594,5.594,0,0,1,.567-.273" transform="translate(-10.265 -17.167)" fill="#d04d7a"/>
        <path id="Trazado_154328" data-name="Trazado 154328" d="M70.222,17.234V21.51c-1.459.221-1.459.221-1.459-1.228a21.86,21.86,0,0,0-.016-2.211c-.079-.772.245-.969.925-.87.181.027.367.023.55.034" transform="translate(-31.33 -7.829)" fill="#d04d7b"/>
        <path id="Trazado_154329" data-name="Trazado 154329" d="M92.233,139.853a33.183,33.183,0,0,0,4.132-3.51c.67,1.836.673,1.843-1.135,2.539a15.438,15.438,0,0,1-3,.971" transform="translate(-42.04 -62.146)" fill="#af68bd"/>
        <path id="Trazado_154330" data-name="Trazado 154330" d="M20.253,85.107l.018,2.535a.589.589,0,0,1-.145-.052c-.5-.35-1.306-.568-1.258-1.253s.786-.963,1.385-1.231" transform="translate(-8.599 -38.792)" fill="#ce4c79"/>
        <path id="Trazado_154331" data-name="Trazado 154331" d="M21.365,74.918c-.085.537-.161,1.076-.258,1.611-.052.285-.149.564.116.8l-1.339.65a9.891,9.891,0,0,1,1.481-3.059" transform="translate(-9.063 -34.148)" fill="#f65c92"/>
        <path id="Trazado_154332" data-name="Trazado 154332" d="M21.006,94.845a22.465,22.465,0,0,0,.3,2.435,11.518,11.518,0,0,1-1.509-3.046l1.212.611" transform="translate(-9.022 -42.952)" fill="#ae315c"/>
        <path id="Trazado_154333" data-name="Trazado 154333" d="M118.721,17.65c1.317-.447,2.434-.848,3.565-1.2a1.719,1.719,0,0,0,1.261-1.378c.211-.95.461-1.889.745-3.036.285,1.148.538,2.09.747,3.042a1.715,1.715,0,0,0,1.267,1.374c1.13.358,2.248.755,3.552,1.2-1.261.438-2.343.858-3.453,1.182a1.813,1.813,0,0,0-1.4,1.532c-.183.9-.438,1.793-.716,2.9-.281-1.136-.531-2.06-.736-2.994a1.75,1.75,0,0,0-1.313-1.422c-1.135-.346-2.248-.76-3.523-1.2" transform="translate(-54.114 -5.484)" fill="#fee789"/>
        <path id="Trazado_154334" data-name="Trazado 154334" d="M20.737,27.679c-1.27.433-2.386.836-3.518,1.19A1.759,1.759,0,0,0,15.907,30.3c-.2.929-.45,1.848-.73,2.981-.274-1.085-.535-1.961-.71-2.853a1.875,1.875,0,0,0-1.443-1.593c-1.108-.324-2.188-.742-3.4-1.16,1.234-.428,2.32-.851,3.436-1.174a1.821,1.821,0,0,0,1.4-1.538c.186-.9.439-1.8.71-2.884.272,1.07.532,1.945.71,2.838a1.859,1.859,0,0,0,1.436,1.594c1.105.315,2.18.738,3.423,1.168" transform="translate(-4.388 -10.064)" fill="#fee789"/>
      </g>
    </g>
  </g>
</svg>
