<svg xmlns="http://www.w3.org/2000/svg" width="57" height="87" viewBox="0 0 57 87">
  <g id="Grupo_166764" data-name="Grupo 166764" transform="translate(-1292 -2969)">
    <path id="Trazado_151370" data-name="Trazado 151370" d="M13,0H44A13,13,0,0,1,57,13V74A13,13,0,0,1,44,87H13A13,13,0,0,1,0,74V13A13,13,0,0,1,13,0Z" transform="translate(1292 2969)" fill="#fc5f65"/>
    <path id="Trazado_156296" data-name="Trazado 156296" d="M-1.391,11.516A4.545,4.545,0,0,1-.973,9.8,3.918,3.918,0,0,1,.105,8.512a10.06,10.06,0,0,0,.98-.864,2,2,0,0,0,.586-1.583.8.8,0,0,0-.883-.784,1.25,1.25,0,0,0-.937.352,1.835,1.835,0,0,0-.508,1l-2.211.016A3.2,3.2,0,0,1-1.723,4.3,3.836,3.836,0,0,1,.9,3.461,3.254,3.254,0,0,1,3.2,4.3,2.6,2.6,0,0,1,3.93,6.469,3.71,3.71,0,0,1,2.414,8.992l-1,.828a2.8,2.8,0,0,0-.875,1.688Zm-.727,2.438a1.161,1.161,0,0,1,.336-.883A1.238,1.238,0,0,1-.9,12.7a1.191,1.191,0,0,1,.867.316,1.15,1.15,0,0,1,.383.855,1.16,1.16,0,0,1-.328.859,1.215,1.215,0,0,1-.891.383,1.265,1.265,0,0,1-.879-.32A1.121,1.121,0,0,1-2.117,13.953Z" transform="translate(1321 3003)" fill="#fff"/>
  </g>
</svg>
