<svg xmlns="http://www.w3.org/2000/svg" width="97" height="87" viewBox="0 0 97 87">
  <g id="Grupo_166711" data-name="Grupo 166711" transform="translate(-933 -5872)">
    <g id="Grupo_166710" data-name="Grupo 166710">
      <rect id="Rectángulo_41134" data-name="Rectángulo 41134" width="97" height="87" rx="13" transform="translate(933 5872)" fill="#3c3fa7"/>
    </g>
    <path id="Trazado_156230" data-name="Trazado 156230" d="M12.035,6.539l-.187,1a3.042,3.042,0,0,1,2.461-1.148,2.028,2.028,0,0,1,1.766.875,3.526,3.526,0,0,1,.414,2.359L15.6,15h-2.2L14.3,9.6a2.528,2.528,0,0,0,.016-.555.9.9,0,0,0-1-.82,1.9,1.9,0,0,0-1.555.8L10.707,15H8.5L9.973,6.547ZM22.16,6.391a3.39,3.39,0,0,1,1.926.574A3.234,3.234,0,0,1,25.273,8.5a4.762,4.762,0,0,1,.27,2.176,5.143,5.143,0,0,1-1.4,3.262,3.96,3.96,0,0,1-3.02,1.215,3.38,3.38,0,0,1-1.906-.566,3.222,3.222,0,0,1-1.187-1.527,4.657,4.657,0,0,1-.273-2.156,5.3,5.3,0,0,1,1.422-3.328A3.878,3.878,0,0,1,22.16,6.391Zm-2.227,5.315a1.95,1.95,0,0,0,.352,1.182,1.168,1.168,0,0,0,.945.449,1.712,1.712,0,0,0,1.594-.932,4.647,4.647,0,0,0,.539-2.531A2.122,2.122,0,0,0,23,8.675a1.149,1.149,0,0,0-.949-.464,1.715,1.715,0,0,0-1.574.924A4.6,4.6,0,0,0,19.934,11.706ZM30.645,4.469l-.367,2.078h1.406L31.395,8.2H29.988l-.719,4.234a1.077,1.077,0,0,0,.063.609q.109.211.531.227.125.008.672-.039l-.156,1.727a3.706,3.706,0,0,1-1.266.18,1.985,1.985,0,0,1-1.617-.68,2.456,2.456,0,0,1-.437-1.8L27.785,8.2h-1.2l.289-1.656h1.2l.359-2.078ZM10.871,30.547l.047,1.063a3.08,3.08,0,0,1,2.531-1.219q2.68,0,2.7,3.023V39H14.707V33.406a1.946,1.946,0,0,0-.418-1.352,1.675,1.675,0,0,0-1.277-.437,2.086,2.086,0,0,0-1.234.375,2.546,2.546,0,0,0-.828.984V39H9.5V30.547ZM17.949,34.7a4.993,4.993,0,0,1,.488-2.234A3.643,3.643,0,0,1,19.8,30.93a3.7,3.7,0,0,1,1.988-.539,3.565,3.565,0,0,1,2.793,1.2,4.6,4.6,0,0,1,1.066,3.18v.1a5.036,5.036,0,0,1-.473,2.215,3.589,3.589,0,0,1-1.352,1.527,3.743,3.743,0,0,1-2.02.547,3.556,3.556,0,0,1-2.785-1.2A4.575,4.575,0,0,1,17.949,34.8Zm1.453.172a3.616,3.616,0,0,0,.652,2.258,2.211,2.211,0,0,0,3.5-.012A3.955,3.955,0,0,0,24.2,34.7a3.61,3.61,0,0,0-.66-2.254,2.1,2.1,0,0,0-1.754-.863,2.075,2.075,0,0,0-1.727.852A3.925,3.925,0,0,0,19.4,34.867ZM29.418,28.5v2.047H31v1.117H29.418v5.249a1.173,1.173,0,0,0,.211.763.888.888,0,0,0,.719.254,3.5,3.5,0,0,0,.688-.094V39a4.215,4.215,0,0,1-1.109.155,1.8,1.8,0,0,1-1.461-.586,2.517,2.517,0,0,1-.492-1.664V31.664H26.434V30.547h1.539V28.5Z" transform="translate(962 5894)" fill="#fff"/>
  </g>
</svg>
