<svg xmlns="http://www.w3.org/2000/svg" width="97" height="87" viewBox="0 0 97 87">
  <g id="Grupo_166757" data-name="Grupo 166757" transform="translate(-925 -2969)">
    <rect id="Rectángulo_41134" data-name="Rectángulo 41134" width="97" height="87" rx="13" transform="translate(925 2969)" fill="#3c3fa7"/>
    <path id="Trazado_156283" data-name="Trazado 156283" d="M16.551,15H14.332L11.168,7.414,9.848,15H7.559L9.535,3.625h2.211l3.172,7.6,1.32-7.6H18.52Zm6.742-8.609a3.39,3.39,0,0,1,1.926.574A3.234,3.234,0,0,1,26.406,8.5a4.762,4.762,0,0,1,.27,2.176,5.143,5.143,0,0,1-1.4,3.262,3.96,3.96,0,0,1-3.02,1.215,3.38,3.38,0,0,1-1.906-.566,3.222,3.222,0,0,1-1.187-1.527,4.657,4.657,0,0,1-.273-2.156,5.3,5.3,0,0,1,1.422-3.328A3.878,3.878,0,0,1,23.293,6.391Zm-2.227,5.315a1.95,1.95,0,0,0,.352,1.182,1.168,1.168,0,0,0,.945.449,1.712,1.712,0,0,0,1.594-.932A4.647,4.647,0,0,0,24.5,9.872a2.122,2.122,0,0,0-.363-1.2,1.149,1.149,0,0,0-.949-.464,1.715,1.715,0,0,0-1.574.924A4.6,4.6,0,0,0,21.066,11.706ZM31.777,4.469,31.41,6.547h1.406L32.527,8.2H31.121L30.4,12.438a1.077,1.077,0,0,0,.063.609q.109.211.531.227.125.008.672-.039l-.156,1.727a3.706,3.706,0,0,1-1.266.18,1.985,1.985,0,0,1-1.617-.68,2.456,2.456,0,0,1-.437-1.8L28.918,8.2h-1.2l.289-1.656h1.2l.359-2.078ZM17.184,39H15.676L9.949,30.234V39H8.441V27.625H9.949l5.742,8.8v-8.8h1.492Zm2.055-4.3a4.993,4.993,0,0,1,.488-2.234,3.643,3.643,0,0,1,1.359-1.531,3.7,3.7,0,0,1,1.988-.539,3.565,3.565,0,0,1,2.793,1.2,4.6,4.6,0,0,1,1.066,3.18v.1a5.036,5.036,0,0,1-.473,2.215,3.589,3.589,0,0,1-1.352,1.527,3.743,3.743,0,0,1-2.02.547,3.556,3.556,0,0,1-2.785-1.2A4.575,4.575,0,0,1,19.238,34.8Zm1.453.172a3.616,3.616,0,0,0,.652,2.258,2.211,2.211,0,0,0,3.5-.012,3.955,3.955,0,0,0,.648-2.418,3.61,3.61,0,0,0-.66-2.254,2.1,2.1,0,0,0-1.754-.863,2.075,2.075,0,0,0-1.727.852A3.925,3.925,0,0,0,20.691,34.867ZM30.707,28.5v2.047h1.578v1.117H30.707v5.249a1.173,1.173,0,0,0,.211.763.888.888,0,0,0,.719.254,3.5,3.5,0,0,0,.688-.094V39a4.215,4.215,0,0,1-1.109.155,1.8,1.8,0,0,1-1.461-.586,2.517,2.517,0,0,1-.492-1.664V31.664H27.723V30.547h1.539V28.5Z" transform="translate(954 2991)" fill="#fff"/>
  </g>
</svg>
