<svg xmlns="http://www.w3.org/2000/svg" width="400" height="198" viewBox="0 0 400 198">
  <g id="Grupo_166290" data-name="Grupo 166290" transform="translate(-810 -3327)">
    <rect id="Rectángulo_41124" data-name="Rectángulo 41124" width="400" height="198" rx="9" transform="translate(810 3327)" fill="#ffdfe0"/>
    <g id="Grupo_166288" data-name="Grupo 166288" transform="translate(890.445 3332.827)">
      <g id="Grupo_166289" data-name="Grupo 166289" transform="translate(-48.445 0.002)">
        <path id="Trazado_154494" data-name="Trazado 154494" d="M708.543,74.086C726.1,92.5,785.426,102.67,790.026,75.617c4.67-27.463-38.274-15.3-63.362-43.739C707.362,10,680.1,44.262,708.543,74.086" transform="translate(-537.126 -20.892)" fill="#e3f3f9"/>
        <path id="Trazado_154495" data-name="Trazado 154495" d="M321.55,282.358s70.277-138.092-16.982-169.194S168.931,196.541,86.759,171.4,5.345,243.709,20.344,282.358Z" transform="translate(-12.543 -90.252)" fill="#ffbfc1"/>
        <path id="Trazado_154496" data-name="Trazado 154496" d="M40.385,653.16H33.262a42.975,42.975,0,0,1-10.138-11.944s0,0,0-.007a26.772,26.772,0,0,1-3.432-18.183c3.227-17.346-17.148-22.25-13.011-43.339C10.709,559.148.537,551.152,0,550.746A131.818,131.818,0,0,1,10.734,558.9c9.013,7.565,20.481,19.217,20.9,29.787.8,20,3.578,22.2,9.784,34.34,7.946,15.544-1.034,30.134-1.034,30.134" transform="translate(45.984 -461.249)" fill="#ffdfe0"/>
        <path id="Trazado_154497" data-name="Trazado 154497" d="M72.669,686.608s-.986-57.329-30.355-95.924" transform="translate(10.546 -494.697)" fill="none" stroke="#fc5f65" stroke-miterlimit="10" stroke-width="2.249"/>
        <path id="Trazado_154498" data-name="Trazado 154498" d="M19.688,623.028c3.227-17.346-17.148-22.25-13.011-43.338C10.709,559.149.537,551.153,0,550.747A131.732,131.732,0,0,1,10.734,558.9a42.867,42.867,0,0,1,2.007,13.172c.084,14.2-1.849,17.828,2,26.424s7.295,15.518,5.939,22.945A33.438,33.438,0,0,0,23.12,641.21a26.772,26.772,0,0,1-3.432-18.183" transform="translate(45.984 -461.25)" fill="#ff9fa3"/>
        <path id="Trazado_154499" data-name="Trazado 154499" d="M75.08,482.37s-3.235-20.4-10.922-17.243S75.08,482.37,75.08,482.37" transform="translate(-6.189 -389.266)" fill="#ff9fa3"/>
        <path id="Trazado_154500" data-name="Trazado 154500" d="M128.154,624.551s2.28-75.241-22.6-107.965" transform="translate(-42.418 -432.64)" fill="none" stroke="#fc5f65" stroke-miterlimit="10" stroke-width="2.249"/>
        <path id="Trazado_154501" data-name="Trazado 154501" d="M71.143,914s-3.631-32.472-28.829-51.78" transform="translate(10.546 -722.106)" fill="none" stroke="#fc5f65" stroke-miterlimit="10" stroke-width="2.249"/>
        <path id="Trazado_154502" data-name="Trazado 154502" d="M30.1,847.063a2.94,2.94,0,1,1-2.94-2.941,2.94,2.94,0,0,1,2.94,2.941" transform="translate(25.701 -706.951)" fill="#ffb4a2"/>
        <path id="Trazado_154503" data-name="Trazado 154503" d="M81.218,951.652s-5.746-6.681-13.532-7.051" transform="translate(-10.703 -791.102)" fill="none" stroke="#fc5f65" stroke-miterlimit="10" stroke-width="2.249"/>
        <path id="Trazado_154504" data-name="Trazado 154504" d="M51.863,934a2.057,2.057,0,1,1-2.057-2.057A2.057,2.057,0,0,1,51.863,934" transform="translate(5.995 -780.499)" fill="#ffb4a2"/>
        <path id="Trazado_154505" data-name="Trazado 154505" d="M105.737,874.016s-3.365-6.83-.94-11.8" transform="translate(-41.047 -722.106)" fill="none" stroke="#fc5f65" stroke-miterlimit="10" stroke-width="2.249"/>
        <path id="Trazado_154506" data-name="Trazado 154506" d="M103.535,844.274a2.02,2.02,0,1,1-2.02-2.02,2.02,2.02,0,0,1,2.02,2.02" transform="translate(-37.343 -705.387)" fill="#ffb4a2"/>
        <path id="Trazado_154507" data-name="Trazado 154507" d="M111.362,1059.077s-3.252-17.839-19.416-23.654a46.424,46.424,0,0,0,17.74,23.654Z" transform="translate(-31.02 -867.166)" fill="#fc5f65"/>
        <path id="Trazado_154508" data-name="Trazado 154508" d="M95.553,1120.031S93.36,1108.7,73.07,1108.2c0,0,8.389,9.314,20.808,11.827Z" transform="translate(-15.212 -928.12)" fill="#ff9fa3"/>
        <path id="Trazado_154509" data-name="Trazado 154509" d="M1332.511,581.547h8.089a48.814,48.814,0,0,0,11.514-13.564s0,0,0-.008c3.167-5.641,5.371-12.726,3.9-20.65-3.665-19.7,19.475-25.269,14.776-49.219-4.578-23.327,6.973-32.408,7.583-32.869a149.673,149.673,0,0,0-12.19,9.26c-10.236,8.592-23.261,21.824-23.738,33.828-.909,22.712-4.063,25.211-11.111,39-9.023,17.653,1.175,34.222,1.175,34.222" transform="translate(-1065.886 -389.636)" fill="#ffdfe0"/>
        <path id="Trazado_154510" data-name="Trazado 154510" d="M1379.816,619.533s1.119-65.107,34.474-108.939" transform="translate(-1109.609 -427.622)" fill="none" stroke="#fc5f65" stroke-miterlimit="10" stroke-width="2.554"/>
        <path id="Trazado_154511" data-name="Trazado 154511" d="M1482.332,547.325c-3.665-19.7,19.475-25.269,14.776-49.219-4.578-23.327,6.973-32.408,7.583-32.869a149.649,149.649,0,0,0-12.19,9.26,48.686,48.686,0,0,0-2.279,14.959c-.1,16.125,2.1,20.247-2.266,30.009s-8.285,17.624-6.745,26.058a37.975,37.975,0,0,1-2.777,22.451c3.167-5.641,5.371-12.726,3.9-20.65" transform="translate(-1192.203 -389.636)" fill="#ff9fa3"/>
        <path id="Trazado_154512" data-name="Trazado 154512" d="M1479.924,387.584s3.674-23.164,12.4-19.582-12.4,19.582-12.4,19.582" transform="translate(-1193.45 -307.887)" fill="#ff9fa3"/>
        <path id="Trazado_154513" data-name="Trazado 154513" d="M1361.879,549.057s-2.589-85.45,25.666-122.614" transform="translate(-1094.535 -357.146)" fill="none" stroke="#fc5f65" stroke-miterlimit="10" stroke-width="2.554"/>
        <path id="Trazado_154514" data-name="Trazado 154514" d="M1390.483,877.774s4.124-36.877,32.74-58.806" transform="translate(-1118.543 -685.885)" fill="none" stroke="#fc5f65" stroke-miterlimit="10" stroke-width="2.554"/>
        <path id="Trazado_154515" data-name="Trazado 154515" d="M1571.41,801.757a3.339,3.339,0,1,0,3.339-3.339,3.339,3.339,0,0,0-3.339,3.339" transform="translate(-1270.07 -668.674)" fill="#ffb4a2"/>
        <path id="Trazado_154516" data-name="Trazado 154516" d="M1468.576,920.536s6.525-7.588,15.368-8.008" transform="translate(-1183.946 -764.241)" fill="none" stroke="#fc5f65" stroke-miterlimit="10" stroke-width="2.554"/>
        <path id="Trazado_154517" data-name="Trazado 154517" d="M1557.032,900.487a2.336,2.336,0,1,0,2.336-2.336,2.336,2.336,0,0,0-2.336,2.336" transform="translate(-1258.028 -752.201)" fill="#ffb4a2"/>
        <path id="Trazado_154518" data-name="Trazado 154518" d="M1509.289,832.367s3.821-7.757,1.068-13.4" transform="translate(-1218.043 -685.885)" fill="none" stroke="#fc5f65" stroke-miterlimit="10" stroke-width="2.554"/>
        <path id="Trazado_154519" data-name="Trazado 154519" d="M1498.789,798.591a2.294,2.294,0,1,0,2.294-2.294,2.294,2.294,0,0,0-2.294,2.294" transform="translate(-1209.249 -666.898)" fill="#ffb4a2"/>
        <path id="Trazado_154520" data-name="Trazado 154520" d="M1399.905,1042.539s3.694-20.259,22.05-26.863a52.725,52.725,0,0,1-20.147,26.863Z" transform="translate(-1126.434 -850.628)" fill="#fc5f65"/>
        <path id="Trazado_154521" data-name="Trazado 154521" d="M1399.905,1111.76s2.49-12.872,25.533-13.431c0,0-9.528,10.577-23.631,13.431Z" transform="translate(-1126.434 -919.849)" fill="#ff9fa3"/>
        <path id="Trazado_154522" data-name="Trazado 154522" d="M964.993,283.457s-.463,1.088-5.267.481a45.419,45.419,0,0,0-11.436.445c-.835.12-1.575.247-2.158.349-2.76.481-6.59-49.862-6.59-49.862V182.662l9.416-29.065v-.006l3.451-10.648,6.908-2.76c1.87,3.078,3.409,20.918,3.812,26.672s1.215,47.752,1.864,67.534,0,49.069,0,49.069" transform="translate(-740.881 -117.403)" fill="#ea5459"/>
        <path id="Trazado_154523" data-name="Trazado 154523" d="M947.159,314.578c2.177,6.391,1.509,29.546,1.13,38.938-.836.12-1.575.247-2.159.349-2.76.481-6.59-49.862-6.59-49.862V251.795l9.416-29.065c-.066.613-3.92,35.871-5.039,53.71-1.136,18,.487,30.069,3.241,38.138" transform="translate(-740.88 -186.536)" fill="#a3312a"/>
        <path id="Trazado_154524" data-name="Trazado 154524" d="M347.687,179.239v88.2s-3.836,6.445-6.812,7.907a19.029,19.029,0,0,1-2.609,1.046,30.353,30.353,0,0,1-9.59,1.2,29.713,29.713,0,0,1-5.057-.373,1.409,1.409,0,0,1-1.142-1.329c-.283-7.353-2.044-54.324-1.75-69.253.325-16.216,1.786-34.536,1.786-41.667a88.4,88.4,0,0,1,2.916-21.892,64,64,0,0,1,3.7-9.891l9.626,23.888v.012Z" transform="translate(-222.596 -111.546)" fill="#ea5459"/>
        <path id="Trazado_154525" data-name="Trazado 154525" d="M578.2,29.5l-5.351,7.974,23.587,85.717,21.406-88.027L607.382,29.5Z" transform="translate(-433.774 -24.709)" fill="#a3312a"/>
        <path id="Trazado_154526" data-name="Trazado 154526" d="M736.88,145.243c-3.039,9.585-2.6,21.481-.326,27.725a98.443,98.443,0,0,1,5.515,24.645c.729,9.243,2.226,24.967,2.592,31.11s.487,15.08.487,15.08c-2.19,5.165-15.99,5.531-21.4,5.652s-13.132.974-17.814-.729a12.216,12.216,0,0,1-4.9-3.865,26.34,26.34,0,0,1-3.059-4.77s-.7-23.9-1.067-47.708c-.338-22.057-.382-44.033.7-46.839,2.25-5.837,10.173-28.759,12.689-38.244s11.67-36.968,11.67-36.968c3.973,2.6,16.457,4.7,23.268,6.731a42.947,42.947,0,0,1,10.7,4.622c-11.188,8.591-14.863,50.353-19.05,63.557" transform="translate(-537.491 -58.904)" fill="#ea5459"/>
        <path id="Trazado_154527" data-name="Trazado 154527" d="M598.981,0A107.182,107.182,0,0,0,616.536,1.34,122.216,122.216,0,0,0,631.165,0l2.047,4.135-.608,5.29s-26.874.507-35.812-.264l.547-6Z" transform="translate(-453.828 -0.002)" fill="#ea5459"/>
        <path id="Trazado_154528" data-name="Trazado 154528" d="M438.249,302.416v88.2s-3.836,6.446-6.812,7.907a19.02,19.02,0,0,1-2.609,1.046c.012-4.594.054-11.213.186-18.922.253-14.959,5.339-26.63,6.434-32.27s-.487-24.273-2.429-36.8c-1.491-9.59-3.048-24.736-3.7-31.308Z" transform="translate(-313.158 -234.723)" fill="#a3312a"/>
        <path id="Trazado_154529" data-name="Trazado 154529" d="M705.44,690.715c-.572,12.661-2.089,17.822-3.317,19.907a26.343,26.343,0,0,1-3.059-4.771s-.7-23.9-1.067-47.708l6.01-31.678c1.65,7.049,2.451,41.585,1.433,64.25" transform="translate(-538.586 -524.664)" fill="#a3312a"/>
        <path id="Trazado_154530" data-name="Trazado 154530" d="M381.261,231.971c-1.544-8.582,0-15.4,1.135-34.859s3.567-25.78,6.648-32.59,4.378-15.241,2.919-20.429-6.648-31.779-8.593-40.048c-1.736-7.378-10.054-29.6-11.827-34.3a.919.919,0,0,1,.566-1.2c1.326-.446,4.164-1.328,8.829-2.439,6.81-1.621,24.483-7.458,27.888-9.728,0,0,13.62,62.747,17.024,74.421s5.188,18.646,6,27.239-2.27,25.131-2.919,42.48-.162,26.915-4.378,31.455-15.079,5.594-17.835,6.08-3.729-.486-9.647-.811-14.614,1.37-15.808-5.269" transform="translate(-265.13 -47.215)" fill="#ea5459"/>
        <path id="Trazado_154531" data-name="Trazado 154531" d="M515,0S503.57,9.568,500.8,14.3a33.243,33.243,0,0,0-4.278,12.133l10.215,1.378L496.517,36.4s31.9,52.532,38.749,65.4c0,0-11.145-47.2-13.334-59.606S513.177,2.88,515,0" transform="translate(-369.848 -0.002)" fill="#ff757a"/>
        <path id="Trazado_154532" data-name="Trazado 154532" d="M720.637,0a47.137,47.137,0,0,1,0,11.431c-.73,7.053-17.013,74.649-17.013,74.649S718.853,64.776,726.8,53.345,737.823,36.99,737.823,36.99l-9.242-9.343,9.971-.811s-.451-8.58-2.455-12.4-6.341-5.155-10.07-8.965S721.61.651,720.637,0" transform="translate(-543.3 -0.002)" fill="#ff757a"/>
        <path id="Trazado_154533" data-name="Trazado 154533" d="M697.386,658.189a3.647,3.647,0,1,1-3.647-3.647,3.647,3.647,0,0,1,3.647,3.647" transform="translate(-531.968 -548.178)" fill="#fec89a"/>
        <path id="Trazado_154534" data-name="Trazado 154534" d="M458.677,790.6l-3.2,14.885a2.3,2.3,0,0,1-2.86,1.732l-10.432-2.889Z" transform="translate(-324.347 -662.128)" fill="#a3312a"/>
        <path id="Trazado_154535" data-name="Trazado 154535" d="M430.015,789.122a.882.882,0,0,0,.658,1.131c2.775.589,10.737,2.235,11.938,1.985,1.459-.3,5.837-15.443,5.837-15.443l-13.668-2.679Z" transform="translate(-314.117 -648.321)" fill="#ea5459"/>
        <path id="Trazado_154536" data-name="Trazado 154536" d="M878.612,787.962l3.2,14.885a2.3,2.3,0,0,0,2.86,1.732l10.432-2.889Z" transform="translate(-689.852 -659.917)" fill="#a3312a"/>
        <path id="Trazado_154537" data-name="Trazado 154537" d="M897.046,786.482a.882.882,0,0,1-.658,1.131c-2.775.589-10.737,2.235-11.938,1.985-1.459-.3-5.837-15.443-5.837-15.443l13.668-2.679Z" transform="translate(-689.853 -646.109)" fill="#ea5459"/>
        <path id="Trazado_154538" data-name="Trazado 154538" d="M1071.6,858.8h-55.917l5.588-54.685c0-3.776,7.641-6.928,17.81-7.665,1.473-.109,3-.165,4.561-.165,12.359,0,22.375,3.506,22.375,7.83Z" transform="translate(-804.652 -666.888)" fill="#ffb4a2"/>
        <path id="Trazado_154539" data-name="Trazado 154539" d="M1062.481,859.651h-46.794l5.588-54.685c0-3.776,7.641-6.928,17.81-7.665,10.169.737,17.809,3.889,17.809,7.665Z" transform="translate(-804.652 -667.739)" fill="#e58e91"/>
        <path id="Trazado_154540" data-name="Trazado 154540" d="M993.122,1154.562h59.657a2.147,2.147,0,1,1,0,4.294H993.122a2.147,2.147,0,0,1,0-4.294" transform="translate(-783.956 -966.944)" fill="#ffb4a2"/>
        <path id="Trazado_154541" data-name="Trazado 154541" d="M1178.49,915.84a2.228,2.228,0,1,1-2.228-2.228,2.228,2.228,0,0,1,2.228,2.228" transform="translate(-937.267 -765.149)" fill="#b5707e"/>
        <path id="Trazado_154542" data-name="Trazado 154542" d="M1178.49,965.331a2.228,2.228,0,1,1-2.228-2.228,2.228,2.228,0,0,1,2.228,2.228" transform="translate(-937.267 -806.598)" fill="#b5707e"/>
        <path id="Trazado_154543" data-name="Trazado 154543" d="M1178.49,1014.822a2.228,2.228,0,1,1-2.228-2.228,2.228,2.228,0,0,1,2.228,2.228" transform="translate(-937.267 -848.046)" fill="#b5707e"/>
        <path id="Trazado_154544" data-name="Trazado 154544" d="M1178.49,1064.312a2.228,2.228,0,1,1-2.228-2.228,2.228,2.228,0,0,1,2.228,2.228" transform="translate(-937.267 -889.494)" fill="#b5707e"/>
        <path id="Trazado_154545" data-name="Trazado 154545" d="M1178.49,1113.8a2.228,2.228,0,1,1-2.228-2.228,2.228,2.228,0,0,1,2.228,2.228" transform="translate(-937.267 -930.943)" fill="#b5707e"/>
        <path id="Trazado_154546" data-name="Trazado 154546" d="M1061.317,895.572a2.228,2.228,0,1,0,2.445-1.987,2.228,2.228,0,0,0-2.445,1.987" transform="translate(-842.857 -748.366)" fill="#b5707e"/>
        <path id="Trazado_154547" data-name="Trazado 154547" d="M1056.221,947.32a2.228,2.228,0,1,0,2.446-1.987,2.228,2.228,0,0,0-2.446,1.987" transform="translate(-838.589 -791.705)" fill="#b5707e"/>
        <path id="Trazado_154548" data-name="Trazado 154548" d="M1051.124,999.068a2.228,2.228,0,1,0,2.446-1.987,2.228,2.228,0,0,0-2.446,1.987" transform="translate(-834.32 -835.044)" fill="#b5707e"/>
        <path id="Trazado_154549" data-name="Trazado 154549" d="M1046.027,1050.816a2.228,2.228,0,1,0,2.446-1.987,2.228,2.228,0,0,0-2.446,1.987" transform="translate(-830.052 -878.383)" fill="#b5707e"/>
        <path id="Trazado_154550" data-name="Trazado 154550" d="M1040.931,1102.565a2.228,2.228,0,1,0,2.446-1.987,2.228,2.228,0,0,0-2.446,1.987" transform="translate(-825.784 -921.723)" fill="#b5707e"/>
        <path id="Trazado_154551" data-name="Trazado 154551" d="M1115.433,909.212a2.228,2.228,0,1,0,2.354-2.094,2.228,2.228,0,0,0-2.354,2.094" transform="translate(-888.186 -759.707)" fill="#b5707e"/>
        <path id="Trazado_154552" data-name="Trazado 154552" d="M1112.539,960.345a2.228,2.228,0,1,0,2.354-2.094,2.228,2.228,0,0,0-2.354,2.094" transform="translate(-885.762 -802.531)" fill="#b5707e"/>
        <path id="Trazado_154553" data-name="Trazado 154553" d="M1109.644,1011.477a2.228,2.228,0,1,0,2.354-2.094,2.228,2.228,0,0,0-2.354,2.094" transform="translate(-883.337 -845.354)" fill="#b5707e"/>
        <path id="Trazado_154554" data-name="Trazado 154554" d="M1106.75,1062.61a2.228,2.228,0,1,0,2.355-2.094,2.228,2.228,0,0,0-2.355,2.094" transform="translate(-880.914 -888.178)" fill="#b5707e"/>
        <path id="Trazado_154555" data-name="Trazado 154555" d="M1102.846,1113.743a2.228,2.228,0,1,0,2.354-2.094,2.228,2.228,0,0,0-2.354,2.094" transform="translate(-877.644 -931.001)" fill="#b5707e"/>
        <path id="Trazado_154556" data-name="Trazado 154556" d="M1291.2,895.572a2.228,2.228,0,1,1-2.446-1.987,2.228,2.228,0,0,1,2.446,1.987" transform="translate(-1031.675 -748.366)" fill="#b5707e"/>
        <path id="Trazado_154557" data-name="Trazado 154557" d="M1296.3,947.32a2.228,2.228,0,1,1-2.446-1.987,2.228,2.228,0,0,1,2.446,1.987" transform="translate(-1035.944 -791.705)" fill="#b5707e"/>
        <path id="Trazado_154558" data-name="Trazado 154558" d="M1301.4,999.068a2.228,2.228,0,1,1-2.446-1.987,2.228,2.228,0,0,1,2.446,1.987" transform="translate(-1040.213 -835.044)" fill="#b5707e"/>
        <path id="Trazado_154559" data-name="Trazado 154559" d="M1306.495,1050.816a2.228,2.228,0,1,1-2.446-1.987,2.228,2.228,0,0,1,2.446,1.987" transform="translate(-1044.481 -878.383)" fill="#b5707e"/>
        <path id="Trazado_154560" data-name="Trazado 154560" d="M1311.591,1102.565a2.228,2.228,0,1,1-2.445-1.987,2.228,2.228,0,0,1,2.445,1.987" transform="translate(-1048.749 -921.723)" fill="#b5707e"/>
        <path id="Trazado_154561" data-name="Trazado 154561" d="M1237.09,909.212a2.228,2.228,0,1,1-2.355-2.094,2.228,2.228,0,0,1,2.355,2.094" transform="translate(-986.347 -759.707)" fill="#b5707e"/>
        <path id="Trazado_154562" data-name="Trazado 154562" d="M1239.984,960.345a2.228,2.228,0,1,1-2.354-2.094,2.228,2.228,0,0,1,2.354,2.094" transform="translate(-988.772 -802.531)" fill="#b5707e"/>
        <path id="Trazado_154563" data-name="Trazado 154563" d="M1242.878,1011.477a2.228,2.228,0,1,1-2.354-2.094,2.228,2.228,0,0,1,2.354,2.094" transform="translate(-991.196 -845.354)" fill="#b5707e"/>
        <path id="Trazado_154564" data-name="Trazado 154564" d="M1245.773,1062.61a2.228,2.228,0,1,1-2.355-2.094,2.228,2.228,0,0,1,2.355,2.094" transform="translate(-993.62 -888.178)" fill="#b5707e"/>
        <path id="Trazado_154565" data-name="Trazado 154565" d="M1249.677,1113.743a2.228,2.228,0,1,1-2.354-2.094,2.228,2.228,0,0,1,2.354,2.094" transform="translate(-996.89 -931.001)" fill="#b5707e"/>
        <path id="Trazado_154566" data-name="Trazado 154566" d="M957.078,164.47l3.864,1.184.6.183.6.183,12.2,3.739a4.756,4.756,0,0,0,2.786-9.1l-11.47-3.515-1.327-.406L963,156.336l-3.136-.961a4.756,4.756,0,0,0-2.786,9.1" transform="translate(-752.752 -129.952)" fill="#f7b897"/>
        <path id="Trazado_154567" data-name="Trazado 154567" d="M1077.922,188.584l4.971.542,1.506,9.162s-3.464,11.043-3.183,14.217h-15.184a12.628,12.628,0,0,0-.241-5.744c-.884-2.772-2.351-6.216-2.33-8.677.021-2.546,3.615-4.459,5.383-9.5h9.078Z" transform="translate(-844.662 -157.939)" fill="#ffdecc"/>
        <path id="Trazado_154568" data-name="Trazado 154568" d="M1097.088,126.39c-.791-.354-.92-.1-1.779-.08a3.22,3.22,0,0,1-1.7-.6l-1.1-4.17,2.093-3.748,2.243-2.66,2.291,2.01-.873,8.116Z" transform="translate(-868.995 -96.42)" fill="#3e3b42"/>
        <path id="Trazado_154569" data-name="Trazado 154569" d="M1122.631,158.55l-.048-5.827-5.047.746-.691,5.082s2.412,2.149,5.787,0" transform="translate(-889.371 -127.906)" fill="#f7b897"/>
        <path id="Trazado_154570" data-name="Trazado 154570" d="M1118.448,165.173a4.535,4.535,0,0,0,3.617-1.317c1.266-1.547-3.341-.712-3.341-.712Z" transform="translate(-890.714 -136.445)" fill="#de8759"/>
        <path id="Trazado_154571" data-name="Trazado 154571" d="M1107.99,110.122a3.7,3.7,0,0,0,7.408-.156l-.089-4.245a3.139,3.139,0,1,0-6.276.132,7.283,7.283,0,0,1-.669,2.569c-.019.04-.035.071-.041.084a.024.024,0,0,0,0,.01,3.666,3.666,0,0,0-.329,1.606" transform="translate(-881.955 -85.967)" fill="#f7b897"/>
        <path id="Trazado_154572" data-name="Trazado 154572" d="M1124.483,134.537s-.124,1.575-.813,1.9a.76.76,0,0,0,.7.344" transform="translate(-895.088 -112.675)" fill="none" stroke="#de8759" stroke-linecap="round" stroke-linejoin="round" stroke-width="1.228"/>
        <path id="Trazado_154573" data-name="Trazado 154573" d="M1135.318,134.323c0,.231.118.417.253.414s.24-.193.235-.424-.118-.417-.253-.414-.24.193-.235.424" transform="translate(-904.843 -112.14)" fill="#16142a"/>
        <path id="Trazado_154574" data-name="Trazado 154574" d="M1118.934,133.954c.005.231.118.417.253.414s.24-.193.235-.424-.118-.417-.253-.414-.24.193-.235.424" transform="translate(-891.121 -111.831)" fill="#16142a"/>
        <path id="Trazado_154575" data-name="Trazado 154575" d="M1135.336,130.657a1.043,1.043,0,0,0-1.13-.358" transform="translate(-903.911 -109.104)" fill="none" stroke="#16142a" stroke-miterlimit="10" stroke-width="1.228"/>
        <path id="Trazado_154576" data-name="Trazado 154576" d="M1117.236,129.21a1.044,1.044,0,0,0-1.049.282" transform="translate(-888.821 -108.18)" fill="none" stroke="#16142a" stroke-miterlimit="10" stroke-width="1.228"/>
        <path id="Trazado_154577" data-name="Trazado 154577" d="M1140.806,101.156s-.307,1.149.164,1.518,1.106.145,1.294.663-.349.622-.22,1.142.611.708.665,1.155-.571.873-.511,1.326a17.686,17.686,0,0,1,.439,2.458c-.058.464-.569,1.36-.43,1.947a2.884,2.884,0,0,1,0,1.4c-.09.541-.245.9-.052,1.347a5.2,5.2,0,0,0,2-.183,2.425,2.425,0,0,1,1.477-.242,2.934,2.934,0,0,0,1.827-.4c.463-.4.634-.679,1.192-.6a2.852,2.852,0,0,0,1.792-.105c.381-.294.991-.105,1.342-.264s.614-.43.547-.626a1.964,1.964,0,0,0-1.067-.866.784.784,0,0,1-.644-.778,2.054,2.054,0,0,0-.072-1.62c-.418-.656-1.186-.329-1.559-.826s.107-1.332-.406-1.671-.985-.009-1.266-.517.269-1.1-.316-1.658-.967-.058-1.56-.495-.274-1.274-.821-1.678-.994-.26-1.234-.985-1.762-.513-2.582.56" transform="translate(-909.356 -83.893)" fill="#3e3b42"/>
        <path id="Trazado_154578" data-name="Trazado 154578" d="M1083.686,94.228a1.355,1.355,0,0,1-1.109.63c-.664-.065-1.4,0-1.653.405s-.287,1.308-.922,1.547-.924.4-1,.945.557.849.3,1.584-1.033.527-1.548,1.111a1.47,1.47,0,0,0-.2,1.74,1.661,1.661,0,0,1-.222,1.716c-.383.491-.328.95-.01,1.651s.093,1.491-.205,1.576-1.1-.549-1.514-.6-1.526.032-1.834-.2-.428-.586-.958-.687-.622-.2-.561-.505a2.668,2.668,0,0,1,.839-1.35c.5-.406.318-1.3.613-1.689s1.058-.157,1.36-.61-.323-1.091-.1-1.516.7-.195,1.049-.831-.118-.776.14-1.336.97-.327,1.228-.86-.194-1.22.164-1.822.837-.253,1.121-.63.015-.9.609-1.2,1.044-.005,1.434-.143.387-1.069,1.44-1.215,2.1-.062,2.228,1.657Z" transform="translate(-852.01 -76.966)" fill="#3e3b42"/>
        <path id="Trazado_154579" data-name="Trazado 154579" d="M1147.674,145.086a1.375,1.375,0,1,0,.232-1.692,1.224,1.224,0,0,0-.232,1.692" transform="translate(-914.983 -119.727)" fill="#f7b897"/>
        <path id="Trazado_154580" data-name="Trazado 154580" d="M1149.93,155.2a1.067,1.067,0,1,0,1.045-1.09A1.067,1.067,0,0,0,1149.93,155.2Z" transform="translate(-917.08 -129.069)" fill="none" stroke="#f6f1ef" stroke-miterlimit="10" stroke-width="1.228"/>
        <line id="Línea_502" data-name="Línea 502" y1="0.816" x2="1.145" transform="translate(232.961 23.966)" fill="none" stroke="#de8759" stroke-miterlimit="10" stroke-width="1.228"/>
        <path id="Trazado_154581" data-name="Trazado 154581" d="M1123.485,152.863a.393.393,0,0,1-.589-.064c-.183-.219-.359-.267-.487-.131-.079.084-.162.069-.247-.032s-.27-.12-.371.1c-.179.392-.449.273-.646.155,0,0,.641.785,1.232.765.561-.02,1.108-.793,1.108-.793" transform="translate(-892.973 -127.776)" fill="#dd5850"/>
        <path id="Trazado_154582" data-name="Trazado 154582" d="M1069.443,121.76a2.987,2.987,0,0,0,.855-2.157c-.021-.729.755-.553,1.468-1.373s.079-1.614.851-2.379c.809-.8.879-.079,2.028-1.144a2.548,2.548,0,0,0,.591-1.5" transform="translate(-849.672 -94.81)" fill="none" stroke="#3e3b42" stroke-miterlimit="10" stroke-width="1.228"/>
        <path id="Trazado_154583" data-name="Trazado 154583" d="M1108.137,579.125c-.6-2.765-.582-5-3.338-5.639a5.123,5.123,0,0,0-6.272,4.85l.389,36.627,4.751.85,2.253-2.609a177.157,177.157,0,0,0,3.058-20.163c.809-8.006-.244-11.147-.841-13.915" transform="translate(-874.03 -480.183)" fill="#f7b897"/>
        <path id="Trazado_154584" data-name="Trazado 154584" d="M1048.983,819.014v1.371a.263.263,0,0,0,.263.263h15.572a.263.263,0,0,0,.261-.293l-.657-5.72h-.949c-.828,0-1.865.014-2.275.756s-1.235,1.3-1.777.361c-.342-.588-.618-1.555-1.717-1.883a10.062,10.062,0,0,1-4.1,2.365c-1.548.629-4.8,1.345-4.623,2.78" transform="translate(-832.532 -681.614)" fill="#fff"/>
        <path id="Trazado_154585" data-name="Trazado 154585" d="M879.308,66.494c-.352-.427,1.57-.143,1.792-.383.421-.457-.9-2.874-.612-3.066.474-.321,1.091.7,1.382,1.24a23.58,23.58,0,0,1,1.626,3.17,5.255,5.255,0,0,0,1.536,2.354,80.038,80.038,0,0,0,6.382,4.867c3.942,2.78,6,4.175,6.086,4.244l0,0a4.587,4.587,0,1,1-6.381,6.418l-.006-.005c-1.337-1.613-8-10.381-8.958-11.362a27.432,27.432,0,0,0-3.387-3c-.638-.459-.352-1.985-.352-1.985s-.628-1.754.412-1.208Z" transform="translate(-689.528 -52.749)" fill="#f7b897"/>
        <line id="Línea_503" data-name="Línea 503" x2="13.614" transform="translate(216.445 137.401)" fill="none" stroke="#ffdecc" stroke-miterlimit="10" stroke-width="2.746"/>
        <path id="Trazado_154586" data-name="Trazado 154586" d="M1215.843,581.4a5.122,5.122,0,1,0-9.6,3.438l10.9,30.423,1.466,4.385,4.619-1.4.619-3.867s-.771-7.583-2.432-18.347c-1.251-8.113-2.809-10.933-5.573-14.632" transform="translate(-963.83 -483.671)" fill="#f7b897"/>
        <path id="Trazado_154587" data-name="Trazado 154587" d="M1235.788,809.87v1.371a.263.263,0,0,0,.263.263h8.356a.262.262,0,0,0,.1-.02l6.626-2.712a.262.262,0,0,0,.142-.345l-2.306-5.477-.925.23a2.407,2.407,0,0,0-1.777,1.554c-.623,1.406-1.948-.281-3.843-.01a4.465,4.465,0,0,1-3.749,2.983c-1.657.21-3.062.727-2.886,2.162" transform="translate(-988.974 -672.47)" fill="#fff"/>
        <path id="Trazado_154588" data-name="Trazado 154588" d="M1044.676,174.964s-1.516,6.52-1.414,10.489l4.7.305,3.957-8.581Z" transform="translate(-827.742 -146.532)" fill="#ffdecc"/>
        <path id="Trazado_154589" data-name="Trazado 154589" d="M1235.827,837.078h8.315l4.62-1.641" transform="translate(-989.019 -699.678)" fill="none" stroke="#ffdecc" stroke-miterlimit="10" stroke-width="2.746"/>
        <path id="Trazado_154590" data-name="Trazado 154590" d="M427.349,117.762v30.776c0,9.987.8,79.945.611,99.524s.293,30.365-1.643,32.536-1.635,2.2-1.881,4.071-6.409,1.606-20.657,1.454-60.439,0-60.439,0l1.954,4.57H426.71c3.664,0,4.506-1.791,5.049-5.482.214-1.452,3.057-6.307,3.347-13.515.952-23.634.995-71.151,1.825-109.48.693-32.009,1.328-41.869,1.328-43.864Z" transform="translate(-241.562 -98.626)" fill="#ffdecc"/>
        <path id="Trazado_154591" data-name="Trazado 154591" d="M904.219,241.216c-.019-.6,5.7-.913,5.7-.913-.547-.085-5.142-.179-5.156-.694-.009-.357.941-.418,2.521-.551,1.969-.165,3.714.095,3.72-.232.011-.622-2.579-1.553-2.494-1.885.141-.554,1.277-.205,1.857.009a23.58,23.58,0,0,1,3.321,1.29,5.255,5.255,0,0,0,2.712.739,80.021,80.021,0,0,0,8-.6c4.794-.54,7.259-.865,7.368-.87v.005a4.587,4.587,0,1,1-.506,9.037h-.008c-2.07-.318-12.878-2.444-14.243-2.542a27.424,27.424,0,0,0-4.523.01c-.781.081-5.346.193-5.567-.127-.28-.406,3.985-1.123,3.985-1.123s-5.789.152-5.811,0c-.091-.648,4.176-.892,5.316-1.175,0,0-6.184.133-6.2-.374" transform="translate(-711.297 -198.188)" fill="#f7b897"/>
        <path id="Trazado_154592" data-name="Trazado 154592" d="M1065.565,231.141s-.963-3.062-1.458-4.307a9.115,9.115,0,0,1-.873-4.37c.2-1.366,1.732-3.635,2.774-4.77" transform="translate(-844.435 -182.318)" fill="none" stroke="#3e3b42" stroke-miterlimit="10" stroke-width="1.228"/>
        <path id="Trazado_154593" data-name="Trazado 154593" d="M870.971,88.507H860.577a.258.258,0,0,1-.258-.258V81.277a.258.258,0,0,1,.258-.258h10.394a.258.258,0,0,1,.258.258v6.972a.258.258,0,0,1-.258.258" transform="translate(-674.532 -67.854)" fill="#7e718f"/>
        <path id="Trazado_154594" data-name="Trazado 154594" d="M1090.739,334.413l-1.006,34.911-.258,8.945-.761,26.457a13.677,13.677,0,0,1-10.479,0s-3.446-52.487-3.39-59.491a60.944,60.944,0,0,1,.849-10.821Z" transform="translate(-854.197 -280.071)" fill="#7e718f"/>
        <path id="Trazado_154595" data-name="Trazado 154595" d="M1095.121,334.633s4.313.964,6.674,8.373,8.479,29.256,10.048,32.73,5.561,9.129,6.743,25.077a13.709,13.709,0,0,1-10.169,3.365l-28.354-69.769Z" transform="translate(-858.567 -280.067)" fill="#7e718f"/>
        <path id="Trazado_154596" data-name="Trazado 154596" d="M1072.994,250.736s-1.809-.538-1.272-2.964a30.81,30.81,0,0,0-.061-9.5c-.2-1.363,1.057-3.772,1.057-3.772h11.74s-.835,3.376-.969,4.8c-.407,4.342.523,7.439.969,8.182,1.085,1.813,2.342,3.455,2.342,3.455Z" transform="translate(-851.498 -196.395)" fill="#7e718f"/>
        <path id="Trazado_154597" data-name="Trazado 154597" d="M1082.384,188.584s-2.738,5.182-2.936,7.991-2.763,2.646-2.519.407,3.181-8.4,3.181-8.4Z" transform="translate(-855.928 -157.939)" fill="#7e718f"/>
        <path id="Trazado_154598" data-name="Trazado 154598" d="M1138.606,189.455a31.574,31.574,0,0,0-3.094,4.735c-1.2,2.463-1.547,4.051-.59,4.315s1.821-.733,2.088-1.73a23.157,23.157,0,0,1,3.767-7.083Z" transform="translate(-904.049 -158.669)" fill="#7e718f"/>
        <path id="Trazado_154599" data-name="Trazado 154599" d="M1124.373,440.417l-.267,9.285-7.91-30Z" transform="translate(-888.827 -351.505)" fill="#706185"/>
        <path id="Trazado_154600" data-name="Trazado 154600" d="M1054.613,209.256l3.653-1.728.567-.268.563-.266,11.536-5.457a4.756,4.756,0,0,0-4.068-8.6l-10.844,5.129-1.255.594-1.255.594-2.965,1.4a4.756,4.756,0,0,0,4.068,8.6" transform="translate(-831.568 -161.204)" fill="#f7b897"/>
        <path id="Trazado_154601" data-name="Trazado 154601" d="M885.6,79.056h0a.456.456,0,0,1-.574-.289l-.576-1.739a.455.455,0,1,1,.863-.286l.576,1.739a.456.456,0,0,1-.289.574" transform="translate(-694.719 -64.011)" fill="#f7b897"/>
        <path id="Trazado_154602" data-name="Trazado 154602" d="M879.772,79.056h0a.456.456,0,0,1-.574-.289l-.576-1.739a.455.455,0,0,1,.863-.286l.576,1.739a.456.456,0,0,1-.289.574" transform="translate(-689.841 -64.011)" fill="#f7b897"/>
        <path id="Trazado_154603" data-name="Trazado 154603" d="M873.947,79.056h0a.456.456,0,0,1-.574-.289l-.576-1.739a.455.455,0,1,1,.863-.286l.576,1.739a.456.456,0,0,1-.289.574" transform="translate(-684.963 -64.011)" fill="#f7b897"/>
        <path id="Trazado_154604" data-name="Trazado 154604" d="M868.123,79.056h0a.456.456,0,0,1-.574-.289l-.576-1.739a.455.455,0,1,1,.863-.286l.576,1.739a.456.456,0,0,1-.289.574" transform="translate(-680.085 -64.011)" fill="#f7b897"/>
        <path id="Trazado_154605" data-name="Trazado 154605" d="M1120.025,195.828s2.49,8.4,4.146,9.459c0,0,7.545-3.827,8.766-5.238a5.232,5.232,0,0,0,.99-5.251,5.619,5.619,0,0,0-3.662-2.971,10.733,10.733,0,0,0-4.615,1.139c-1.574.692-5.625,2.863-5.625,2.863" transform="translate(-892.035 -160.64)" fill="#ffdecc"/>
        <line id="Línea_504" data-name="Línea 504" y1="3.532" x2="6.127" transform="translate(233.61 40.35)" fill="none" stroke="#3e3b42" stroke-miterlimit="10" stroke-width="1.228"/>
        <path id="Trazado_154606" data-name="Trazado 154606" d="M339.839,1098.634c0,.639-3.017,1.157-6.737,1.157s-6.727-.515-6.736-1.154v0c0-.642,3.014-1.161,6.736-1.161s6.737.519,6.737,1.161" transform="translate(-227.347 -919.132)" fill="#3e3b42"/>
        <path id="Trazado_154607" data-name="Trazado 154607" d="M334,905.61a5.182,5.182,0,1,0-10.261,1.027l3.25,32.531.366,4.663,4.877-.244,1.555-3.645s1.1-7.633,2.1-18.605c.757-8.271-.081-11.419-1.89-15.727" transform="translate(-225.062 -754.108)" fill="#f7b897"/>
        <path id="Trazado_154608" data-name="Trazado 154608" d="M289.947,1144.029v1.37a.283.283,0,0,0,.283.283h15.716a.283.283,0,0,0,.281-.315l-.662-5.768h-.96c-.837,0-1.887.014-2.3.764s-1.25,1.31-1.8.366c-.345-.595-.625-1.574-1.737-1.905a10.179,10.179,0,0,1-4.145,2.393c-1.565.637-4.855,1.36-4.677,2.813" transform="translate(-196.84 -953.764)" fill="#fff"/>
        <line id="Línea_505" data-name="Línea 505" x2="13.773" transform="translate(93.101 190.266)" fill="none" stroke="#efecdb" stroke-miterlimit="10" stroke-width="2.778"/>
        <path id="Trazado_154609" data-name="Trazado 154609" d="M475.247,1082.915c-3.572,1.04-6.613,1.383-6.791.769s2.571-1.953,6.146-2.993c3.554-1.031,6.58-1.378,6.788-.778,0,0,0,.006,0,.009.178.615-2.574,1.956-6.146,2.993" transform="translate(-346.34 -904.18)" fill="#3e3b42"/>
        <path id="Trazado_154610" data-name="Trazado 154610" d="M438.046,906.833a5.182,5.182,0,1,1,10.036-2.37l8.095,34.315-1.723,5.206-5.073-4.431s-3.478-7.186-8-17.234c-3.408-7.573-3.641-10.824-3.334-15.486" transform="translate(-320.641 -753.718)" fill="#f7b897"/>
        <path id="Trazado_154611" data-name="Trazado 154611" d="M247.392,425.793a3.689,3.689,0,0,0-3.328,0c-1.756.9-2.284,2.448-3.016,4.153s-2.4,3.552-4.877,3.218-5.608.494-6.787,3.25-6.34,2.065-6.34,2.065-.813,5.527,1.5,7.518a5.968,5.968,0,0,0,3.912-1.6c1.371-1.554,2.314-3.212,3.932-3.275a5.877,5.877,0,0,0-2.956,3.214,5.111,5.111,0,0,1-2.713,3.017,16.49,16.49,0,0,0,13.411,5.273c8.473-.7,14.1-10.07,14.1-10.07a3.739,3.739,0,0,0-.509-3.9c-1.544-1.687-.65-4.151-2.113-5.621s-4.222-7.247-4.222-7.247" transform="translate(-140.699 -356.266)" fill="#3e3b42"/>
        <path id="Trazado_154612" data-name="Trazado 154612" d="M401.6,539.253h0a4.826,4.826,0,0,1-6.661,1.388L379.66,530.633a4.812,4.812,0,1,1,5.274-8.049l15.275,10.009a4.826,4.826,0,0,1,1.388,6.661" transform="translate(-270.163 -437.008)" fill="#f7b897"/>
        <path id="Trazado_154613" data-name="Trazado 154613" d="M355.572,484.412l.049-5.9,5.106.755.7,5.141s-2.441,2.174-5.854,0" transform="translate(-251.807 -400.757)" fill="#f7b897"/>
        <path id="Trazado_154614" data-name="Trazado 154614" d="M368.328,492.622s-2.934-.023-4.181-1.535l3.93-.315Z" transform="translate(-258.988 -411.022)" fill="#de8759"/>
        <path id="Trazado_154615" data-name="Trazado 154615" d="M361.919,435.418a3.748,3.748,0,0,1-7.495-.158l.091-4.295a3.175,3.175,0,1,1,6.35.134,7.365,7.365,0,0,0,.676,2.6c.019.041.035.072.042.085a.028.028,0,0,1,0,.01,3.711,3.711,0,0,1,.333,1.625" transform="translate(-250.845 -358.328)" fill="#f7b897"/>
        <path id="Trazado_154616" data-name="Trazado 154616" d="M379.629,458.455s.125,1.593.823,1.926a.77.77,0,0,1-.712.348" transform="translate(-271.954 -383.956)" fill="none" stroke="#de8759" stroke-linecap="round" stroke-linejoin="round" stroke-width="1.242"/>
        <path id="Trazado_154617" data-name="Trazado 154617" d="M369.695,457.509c0,.234-.119.422-.256.419s-.243-.2-.238-.429.12-.422.256-.419.243.2.238.429" transform="translate(-263.221 -382.804)" fill="#16142a"/>
        <path id="Trazado_154618" data-name="Trazado 154618" d="M359.76,429.172s-.514-1.249-1.368-1.265-1.463-.29-1.585-.853a1.482,1.482,0,0,1-1.143,1.326c-1.067.213-1.874,1.719-1.951,2.6a11.194,11.194,0,0,0,.2,2.341l-.816-.64a33.531,33.531,0,0,1,.307-4.8,3.229,3.229,0,0,1,3.3-2.172s1.044-.526,1.676.023.9,1.281,1.592,1.859-.217,1.585-.217,1.585" transform="translate(-249.738 -356.338)" fill="#3e3b42"/>
        <path id="Trazado_154619" data-name="Trazado 154619" d="M326.04,508.3l-5.029-1.26-.7,13.9s2.682,8.352,2.4,11.562h15.362a12.778,12.778,0,0,1,.244-5.812c.894-2.8,2.378-5.232,2.357-7.721-.022-2.576-3.658-4.362-5.446-9.462l-3.861-1.206Z" transform="translate(-222.275 -424.648)" fill="#e58e91"/>
        <path id="Trazado_154620" data-name="Trazado 154620" d="M521.445,1144.029v1.374a.278.278,0,0,1-.278.278H505.44a.278.278,0,0,1-.276-.31l.663-5.773h.96c.837,0,1.887.014,2.3.764s1.25,1.31,1.8.366c.345-.595.625-1.574,1.737-1.905a10.177,10.177,0,0,0,4.145,2.393c1.565.637,4.855,1.36,4.677,2.813" transform="translate(-377.088 -953.764)" fill="#fff"/>
        <line id="Línea_506" data-name="Línea 506" x1="13.773" transform="translate(130.591 190.266)" fill="none" stroke="#efecdb" stroke-miterlimit="10" stroke-width="2.778"/>
        <path id="Trazado_154621" data-name="Trazado 154621" d="M386.27,457.136c0,.234-.12.422-.256.419s-.243-.2-.238-.429.119-.422.256-.419.243.2.238.429" transform="translate(-277.102 -382.492)" fill="#16142a"/>
        <path id="Trazado_154622" data-name="Trazado 154622" d="M366.33,453.8a1.055,1.055,0,0,1,1.143-.362" transform="translate(-260.816 -379.733)" fill="none" stroke="#16142a" stroke-miterlimit="10" stroke-width="1.242"/>
        <path id="Trazado_154623" data-name="Trazado 154623" d="M317,728.878c0-.642-3.017-1.16-6.737-1.16s-6.736.518-6.736,1.16c-.072-.552-5.529-55.857-4.233-61.11,1.3-5.284,5.638-11.794,5.638-11.794h9.718Z" transform="translate(-204.505 -549.377)" fill="#6d6875"/>
        <path id="Trazado_154624" data-name="Trazado 154624" d="M369.814,725.111c-.208-.6-3.234-.253-6.788.778-3.575,1.04-6.327,2.378-6.146,2.993l-21.658-72.908h15.252c-.039,1.748,1.44,4.678,2.685,7.8a126.64,126.64,0,0,1,5.143,16.935c1.531,6.122,11.363,43.713,11.511,44.4" transform="translate(-234.764 -549.378)" fill="#6d6875"/>
        <path id="Trazado_154625" data-name="Trazado 154625" d="M385.066,452.337a1.057,1.057,0,0,1,1.061.285" transform="translate(-276.508 -378.798)" fill="none" stroke="#16142a" stroke-miterlimit="10" stroke-width="1.242"/>
        <path id="Trazado_154626" data-name="Trazado 154626" d="M347.752,470.79a1.391,1.391,0,1,1-.234-1.712,1.239,1.239,0,0,1,.234,1.712" transform="translate(-243.411 -392.483)" fill="#f7b897"/>
        <path id="Trazado_154627" data-name="Trazado 154627" d="M346.994,481.024a1.08,1.08,0,1,1-1.057-1.1A1.08,1.08,0,0,1,346.994,481.024Z" transform="translate(-242.814 -401.934)" fill="none" stroke="#f6f1ef" stroke-miterlimit="10" stroke-width="1.242"/>
        <line id="Línea_507" data-name="Línea 507" x1="1.158" y1="0.825" transform="translate(102.909 76.898)" fill="none" stroke="#de8759" stroke-miterlimit="10" stroke-width="1.242"/>
        <path id="Trazado_154628" data-name="Trazado 154628" d="M387.153,521.179a8.506,8.506,0,0,1,3.911,1.6,68.539,68.539,0,0,0,6.03,3.983s-1.633,6.49-5.46,9.406l-8.676-5.489Z" transform="translate(-274.742 -436.487)" fill="#e58e91"/>
        <path id="Trazado_154629" data-name="Trazado 154629" d="M430.1,561.671s1.335-3.793,1.666-5.468-1.636-3.522-2.682-5.139" transform="translate(-313.371 -461.516)" fill="none" stroke="#efecdb" stroke-miterlimit="10" stroke-width="1.113"/>
        <path id="Trazado_154630" data-name="Trazado 154630" d="M219.745,529.056h0a4.826,4.826,0,0,1-.734-6.765l11.444-14.231a4.826,4.826,0,0,1,6.765-.734h0a4.825,4.825,0,0,1,.734,6.765L226.51,528.321a4.826,4.826,0,0,1-6.765.734" transform="translate(-136.552 -423.999)" fill="#f7b897"/>
        <line id="Línea_508" data-name="Línea 508" y1="16.88" x2="1.13" transform="translate(111.363 127.586)" fill="none" stroke="#efecdb" stroke-miterlimit="10" stroke-width="1.113"/>
        <path id="Trazado_154631" data-name="Trazado 154631" d="M494.657,522.244c-.512.778-2.23,1.721-4.525,3.429-1.934,1.437-8.4,7.783-11.406,10.549-.544.5-.976.885-1.246,1.1a4.861,4.861,0,0,1-1.474.61l-.021,0c-.054.014-.112.025-.166.036a4.937,4.937,0,0,1-4.752-1.716.018.018,0,0,0-.009-.012,4.947,4.947,0,0,1,1.244-7.332l.973-.46c3.739-1.764,9.269-4.379,10.325-4.939a11.635,11.635,0,0,0,3.248-2.879,8.636,8.636,0,0,1,2.787-1.931c.86-.311,1.553-.42,1.7-.232s-.388.538-1.139,1.029-1.334,1.247-1.183,1.48,2.152-.379,3.634-.725c3.135-.728,4.229-2.834,4.712-2.57s-2.189,3.786-2.7,4.563" transform="translate(-347.596 -433.538)" fill="#f7b897"/>
        <path id="Trazado_154632" data-name="Trazado 154632" d="M601.313,532.117a5.052,5.052,0,0,0,.936-2.013c.119-.962.278-1.529.545-1.536s.627,2.7.084,3.874" transform="translate(-457.614 -442.675)" fill="#f7b897"/>
        <path id="Trazado_154633" data-name="Trazado 154633" d="M612.628,524.373a2.809,2.809,0,0,0,.526-1.654c-.073-.844,0-1.15.207-1.213s.59.309.709,1.341a5.416,5.416,0,0,1-.769,3.063" transform="translate(-467.091 -436.755)" fill="#f7b897"/>
        <path id="Trazado_154634" data-name="Trazado 154634" d="M621.308,516.849a3.827,3.827,0,0,0,.414-1.5c.076-.973.584-.947.736-.185a6.194,6.194,0,0,1-.757,3.723" transform="translate(-474.36 -430.978)" fill="#f7b897"/>
        <path id="Trazado_154635" data-name="Trazado 154635" d="M601.313,532.117a5.052,5.052,0,0,0,.936-2.013c.119-.962.278-1.529.545-1.536s.627,2.7.084,3.874" transform="translate(-457.614 -442.675)" fill="none" stroke="#de8759" stroke-linecap="round" stroke-linejoin="round" stroke-width="1.242"/>
        <path id="Trazado_154636" data-name="Trazado 154636" d="M612.628,524.373a2.809,2.809,0,0,0,.526-1.654c-.073-.844,0-1.15.207-1.213s.59.309.709,1.341a5.416,5.416,0,0,1-.769,3.063" transform="translate(-467.091 -436.755)" fill="none" stroke="#de8759" stroke-linecap="round" stroke-linejoin="round" stroke-width="1.242"/>
        <path id="Trazado_154637" data-name="Trazado 154637" d="M621.308,516.849a3.827,3.827,0,0,0,.414-1.5c.076-.973.584-.947.736-.185a6.194,6.194,0,0,1-.757,3.723" transform="translate(-474.36 -430.978)" fill="none" stroke="#de8759" stroke-linecap="round" stroke-linejoin="round" stroke-width="1.242"/>
        <path id="Trazado_154638" data-name="Trazado 154638" d="M375.906,477.091a7.232,7.232,0,0,0-.723-.074,2.76,2.76,0,0,0-.435.063,1.98,1.98,0,0,0-.342-.063c-.19,0-.822.074-.822.074s.22,1.219,1.161,1.219,1.161-1.219,1.161-1.219" transform="translate(-266.892 -399.502)" fill="#dd5850"/>
        <path id="Trazado_154639" data-name="Trazado 154639" d="M374.834,477.816a4.557,4.557,0,0,1-1.137-.209,1.434,1.434,0,0,0,1.137.729,1.453,1.453,0,0,0,1.149-.729,4.723,4.723,0,0,1-1.149.209" transform="translate(-266.986 -399.996)" fill="#fff"/>
        <path id="Trazado_154640" data-name="Trazado 154640" d="M348.095,505.165s-.089-1.558.722-1.5c.906.06,6.345.624,7.334.828.951.2.466,1.6.466,1.6l-4.364.68Z" transform="translate(-245.542 -421.814)" fill="#e58e91"/>
        <path id="Trazado_154641" data-name="Trazado 154641" d="M319.65,397.39a3.273,3.273,0,1,1-4.8-1.046,3.488,3.488,0,0,1,4.8,1.046" transform="translate(-216.679 -331.461)" fill="#3e3b42"/>
        <path id="Trazado_154642" data-name="Trazado 154642" d="M233.447,468.643s4.1,1.128,5.371-1.707,3.593-3.829,6.729-3.257c3.271.6,4.633-1.638,5.121-3.991" transform="translate(-149.527 -384.988)" fill="none" stroke="#7e718f" stroke-linecap="round" stroke-linejoin="round" stroke-width="0.927"/>
        <path id="Trazado_154643" data-name="Trazado 154643" d="M322.041,400.757s.6,3.534,5.172,3.779" transform="translate(-223.725 -335.634)" fill="none" stroke="#7e718f" stroke-linecap="round" stroke-linejoin="round" stroke-width="0.927"/>
        <path id="Trazado_154644" data-name="Trazado 154644" d="M314.538,412.386s.809,2.6,6.267,2.215" transform="translate(-217.441 -345.373)" fill="none" stroke="#7e718f" stroke-linecap="round" stroke-linejoin="round" stroke-width="0.927"/>
        <path id="Trazado_154645" data-name="Trazado 154645" d="M239.387,501.845a4.22,4.22,0,0,0,3.312-2.459c1.1-2.316,2.893-2.6,5.888-2.86,3.155-.269,3.663-2.362,3.663-2.362" transform="translate(-154.502 -413.862)" fill="none" stroke="#7e718f" stroke-linecap="round" stroke-linejoin="round" stroke-width="0.927"/>
        <path id="Trazado_154646" data-name="Trazado 154646" d="M318.148,408.986s-2.482,1.138-4.279-.223a3.586,3.586,0,0,1-.615-5.41" transform="translate(-215.553 -337.807)" fill="none" stroke="#3e3b42" stroke-miterlimit="10" stroke-width="0.464"/>
        <path id="Trazado_154647" data-name="Trazado 154647" d="M318.263,407.524a4,4,0,0,1-4.052-.5c-1.788-1.544-1.625-4.312-.083-5.263" transform="translate(-216.086 -336.472)" fill="none" stroke="#3e3b42" stroke-miterlimit="10" stroke-width="0.464"/>
        <path id="Trazado_154648" data-name="Trazado 154648" d="M250.4,610.2c.226-.556-5.031-2.839-5.031-2.839.543.11,4.884,1.62,5.075,1.142.133-.331-.736-.719-2.172-1.393-1.789-.84-3.516-1.2-3.408-1.511.205-.587,2.958-.56,2.994-.9.06-.569-1.126-.636-1.744-.637a23.6,23.6,0,0,0-3.562.055,5.254,5.254,0,0,1-2.8-.25,80.123,80.123,0,0,1-7.295-3.346c-4.307-2.173-6.506-3.335-6.606-3.377l0,0a4.587,4.587,0,1,0-2.666,8.649l.007,0c2.052.422,12.924,2.185,14.239,2.567a27.474,27.474,0,0,1,4.237,1.582c.7.348,4.945,2.04,5.264,1.816.4-.283-3.346-2.439-3.346-2.439s5.375,2.155,5.449,2.018c.311-.576-3.606-2.288-4.576-2.949,0,0,5.752,2.275,5.943,1.805" transform="translate(-137.602 -499.705)" fill="#f7b897"/>
        <path id="Trazado_154649" data-name="Trazado 154649" d="M257.73,515.043s5.211,5.659,8.264,6.147c0,0,5.309-6.514,6.42-8.3s-.366-6-3.814-6.563-4.357.66-5.605,1.936-5.265,6.785-5.265,6.785" transform="translate(-169.864 -423.927)" fill="#e58e91"/>
      </g>
    </g>
  </g>
</svg>
