<svg xmlns="http://www.w3.org/2000/svg" width="295" height="206" viewBox="0 0 295 206">
  <g id="Grupo_165938" data-name="Grupo 165938" transform="translate(-773 -2468)">
    <rect id="Rectángulo_41007" data-name="Rectángulo 41007" width="295" height="140" rx="9" transform="translate(773 2534)" fill="#ffbfc1"/>
    <g id="Grupo_165934" data-name="Grupo 165934" transform="translate(832 2468)">
      <g id="Grupo_165935" data-name="Grupo 165935">
        <path id="Trazado_151472" data-name="Trazado 151472" d="M95.279,179.006H81.925c-2.768-.361-5.572-.272-8.339-.633a75.966,75.966,0,0,1-19.335-5.5,86.742,86.742,0,0,1-22.127-13.411A88.345,88.345,0,0,1,10.56,133.171,86.771,86.771,0,0,1,.846,103.663a89.786,89.786,0,0,1-.218-22.9A87.2,87.2,0,0,1,9.664,50.873,89.588,89.588,0,0,1,56.881,8.433c1.848-.736,3.754-1.311,5.648-1.916a2.12,2.12,0,0,1,2.173.117c.372,1.113-.557,1.586-1.149,2.143a36.316,36.316,0,0,0-8.334,10.976c-6.221,13.332-4.91,25.99,3.646,37.9a39.507,39.507,0,0,0,7.6,7.493c.65.522,1.821,1.015.733,2.188-1.53.568-3.12.268-4.681.307-2.392.061-4.787-.02-7.177.045-6.3-.256-12.656-.77-18.8.943C21.951,72.691,12.955,82.286,9.977,97.1c-3.1,15.438,5.035,31.285,19.147,38.261,4.84,2.393,8.055,5.981,9.081,11.3.512,2.644.115,5.372.183,8.061a12.545,12.545,0,0,0,.114,2.451,2.573,2.573,0,0,0,1.836,2.152,2.208,2.208,0,0,0,2.414-1.04c2.421-3.156,4.476-6.567,6.807-9.787a14.938,14.938,0,0,1,1.633-2.273,14.181,14.181,0,0,1,10.124-6.818,16.212,16.212,0,0,1,2.975-.163q12.036-.016,24.07,0c9.179.016,17.454-2.668,24.429-8.67a34.753,34.753,0,0,0,11.93-20.939,35.359,35.359,0,0,0-7.327-28.67,38.122,38.122,0,0,0-6.946-6.675c-.607-.468-1.271-.872-1.22-1.782,1.763-1.433,3.82-.823,5.692-.58a14.987,14.987,0,0,1,10.989,7.012c2.361,3.614,4.865,7.132,7.274,10.714a9.289,9.289,0,0,0,1.145,1.544,2.205,2.205,0,0,0,3.713-.766,5.994,5.994,0,0,0,.418-2.4c0-2.1.056-4.206-.013-6.307a14.652,14.652,0,0,1,1.579-7.1,14.827,14.827,0,0,1,6.95-6.651A35.984,35.984,0,0,0,163.987,50.8c.361-.756.626-1.7,1.748-1.727.972.266,1.3,1.121,1.7,1.894a87.486,87.486,0,0,1,8.691,27.107,81.3,81.3,0,0,1,1.017,14.143,88.589,88.589,0,0,1-11.868,43.156,88.274,88.274,0,0,1-60.088,42.814,73.73,73.73,0,0,1-8.55.646c-.453.032-.937-.148-1.355.173" transform="translate(0 0.994)" fill="#fc5f65"/>
        <path id="Trazado_151473" data-name="Trazado 151473" d="M51.875,58.583l12.553-.059c.929-.533,1.7.009,2.453.415A37.2,37.2,0,0,0,85.516,63.5c6.125-.1,12.254-.044,18.381,0,.89.007,1.924-.231,2.479.841a37.033,37.033,0,0,1,15.957,23.487c4.435,20.8-10.637,41.6-31.787,43.571-9.391.876-18.837.156-28.258.323a26.954,26.954,0,0,0-3.676.165,14.316,14.316,0,0,0-9.983,6.506c-.937-.031-1.054-.841-1.277-1.455a14.753,14.753,0,0,0-7.567-8.319C28.2,122.64,21.118,113.2,19.3,100.238,17.63,88.293,21.13,77.866,29.553,69.121a36.958,36.958,0,0,1,13.626-9C45.7,59.158,48.3,59.068,50.9,58.8c.332-.035.707.112.975-.215" transform="translate(2.995 9.24)" fill="#f7f9fc"/>
        <path id="Trazado_151474" data-name="Trazado 151474" d="M72.229.672A20.346,20.346,0,0,1,77.768.026c15.154-.006,30.31-.061,45.465.012a36.515,36.515,0,0,1,35.612,31.445,39.854,39.854,0,0,1-2.161,18.8,40.655,40.655,0,0,1-8.521,12.52,34.523,34.523,0,0,1-8.952,6.383,17,17,0,0,0-7.411,6.464c-1.038.285-1.481-.54-1.966-1.143A13.321,13.321,0,0,0,119,69.327c-8.133-.036-16.266-.054-24.4,0-9.028.061-17.219-2.415-24.271-8.107A36.575,36.575,0,0,1,56.43,36.51a36.646,36.646,0,0,1,3.087-20.172A36.08,36.08,0,0,1,71.073,2.032c.473-.348,1.278-.481,1.156-1.36" transform="translate(8.895 0)" fill="#6b8dfc"/>
        <path id="Trazado_151475" data-name="Trazado 151475" d="M74.2.58c.468.18,1.048-.158,1.535.367-1.249,1.163-2.739,1.964-4.008,3.068A36.138,36.138,0,0,0,59.149,27.547C56.7,46.892,70.282,64.844,89.782,68.023a35,35,0,0,0,5.4.432c8.2.044,16.393.129,24.584-.019,5.646-.1,10.14,1.825,13.413,6.472a6.835,6.835,0,0,0,.585.646c-2.071,4.476-1.521,9.248-1.565,13.953a4.228,4.228,0,0,1-1.139,3.375c-1.46,1.317-3.422,1.035-4.674-.765-2.4-3.453-4.906-6.854-7.07-10.455-3.887-6.468-9.56-8.945-16.877-8.175-6.36-.021-12.726-.217-19.08-.022A40.231,40.231,0,0,1,60.5,67.673C53.685,62.924,48.418,56.885,45.86,48.906c-4.837-15.08-1.454-28.228,9.827-39.336.665-.656,1.376-1.264,2.066-1.894A38.816,38.816,0,0,1,72.478.823C73.043.705,73.622.659,74.2.58" transform="translate(6.929 0.092)" fill="#5174e6"/>
        <path id="Trazado_151476" data-name="Trazado 151476" d="M53.7,58.567c-.785.631-1.785.494-2.675.67A36.115,36.115,0,0,0,22.086,88.758c-2.23,13.223,1.848,24.431,11.561,33.583a25.711,25.711,0,0,0,7.314,5.075,15.727,15.727,0,0,1,9.49,10.957c-2.747,4.072-5.474,8.157-8.253,12.206a2.811,2.811,0,0,1-3.342,1.263,3.059,3.059,0,0,1-2.341-3.119c-.064-2.516-.013-5.037-.03-7.556a13.557,13.557,0,0,0-7.945-12.83,37.45,37.45,0,0,1-17.4-17.187c-10.666-21.581,2.576-47.92,26.266-52.1,5.38-.95,10.848-.591,16.286-.481" transform="translate(1.174 9.257)" fill="#dcdcdc"/>
        <path id="Trazado_151477" data-name="Trazado 151477" d="M59,84.906a6.727,6.727,0,0,1,6.834,6.718,6.762,6.762,0,0,1-13.523-.036A6.7,6.7,0,0,1,59,84.906" transform="translate(8.291 13.457)" fill="#3c3fa7"/>
        <path id="Trazado_151478" data-name="Trazado 151478" d="M44.4,91.535A6.71,6.71,0,1,1,37.719,84.9,6.574,6.574,0,0,1,44.4,91.535" transform="translate(4.91 13.456)" fill="#3c3fa7"/>
        <path id="Trazado_151479" data-name="Trazado 151479" d="M80.391,84.9a6.6,6.6,0,0,1,6.748,6.748,6.707,6.707,0,0,1-13.414.085A6.608,6.608,0,0,1,80.391,84.9" transform="translate(11.684 13.456)" fill="#3c3fa7"/>
        <path id="Trazado_151480" data-name="Trazado 151480" d="M74.062,39.82A6.71,6.71,0,0,1,73.951,26.4a6.71,6.71,0,1,1,.111,13.419" transform="translate(10.667 4.184)" fill="#f7f9fc"/>
        <path id="Trazado_151481" data-name="Trazado 151481" d="M95.385,39.82A6.71,6.71,0,1,1,95.365,26.4a6.709,6.709,0,0,1,.021,13.419" transform="translate(14.045 4.184)" fill="#f7f9fc"/>
        <path id="Trazado_151482" data-name="Trazado 151482" d="M116.818,39.819a6.709,6.709,0,0,1-.153-13.418,6.709,6.709,0,1,1,.153,13.418" transform="translate(17.439 4.184)" fill="#f7f9fc"/>
      </g>
    </g>
  </g>
</svg>
