<svg xmlns="http://www.w3.org/2000/svg" xmlns:xlink="http://www.w3.org/1999/xlink" width="400" height="198" viewBox="0 0 400 198">
  <defs>
    <clipPath id="clip-path">
      <rect id="Rectángulo_41335" data-name="Rectángulo 41335" width="62.493" height="121.94" fill="none"/>
    </clipPath>
    <clipPath id="clip-path-2">
      <rect id="Rectángulo_41336" data-name="Rectángulo 41336" width="24.839" height="121.931" fill="none"/>
    </clipPath>
    <clipPath id="clip-path-3">
      <rect id="Rectángulo_41342" data-name="Rectángulo 41342" width="35.43" height="2.334" fill="none"/>
    </clipPath>
    <clipPath id="clip-path-4">
      <rect id="Rectángulo_41343" data-name="Rectángulo 41343" width="33.927" height="18.278" fill="none"/>
    </clipPath>
    <clipPath id="clip-path-5">
      <rect id="Rectángulo_41338" data-name="Rectángulo 41338" width="45.795" height="64.977" fill="none"/>
    </clipPath>
    <clipPath id="clip-path-6">
      <rect id="Rectángulo_41341" data-name="Rectángulo 41341" width="32.096" height="88.937" fill="none"/>
    </clipPath>
    <clipPath id="clip-path-7">
      <rect id="Rectángulo_41337" data-name="Rectángulo 41337" width="42.393" height="2.793" fill="none"/>
    </clipPath>
  </defs>
  <g id="Grupo_166286" data-name="Grupo 166286" transform="translate(-390 -3327)">
    <path id="Trazado_154493" data-name="Trazado 154493" d="M9,0H391a9,9,0,0,1,9,9V189a9,9,0,0,1-9,9H9a9,9,0,0,1-9-9V9A9,9,0,0,1,9,0Z" transform="translate(390 3327)" fill="#ffdfe0"/>
    <g id="Grupo_166275" data-name="Grupo 166275" transform="translate(474.646 3340.066)">
      <g id="Grupo_166276" data-name="Grupo 166276" transform="translate(-59.646 -1)">
        <g id="Grupo_166273" data-name="Grupo 166273" transform="translate(0 0)">
          <g id="Grupo_166277" data-name="Grupo 166277" transform="translate(0 0)">
            <path id="Trazado_154423" data-name="Trazado 154423" d="M12.06,442.823S-39.889,332.376,71.846,311.843c69.719-12.812,67.9-57.355,166.549-54.314,101.024,3.114,61.24,88.952,74.348,108.586s46.746,27.512,34.548,76.708Z" transform="translate(0 -257.38)" fill="#ffbfc1"/>
            <path id="Trazado_154424" data-name="Trazado 154424" d="M1040.643,4.72c-3.61-8.139-17.534-3.275-17.534-3.275s-7.441,16.365-10.218,17.155,3.63-15.234,3.63-15.234c-5.568.315-18.51,9.195-18.51,9.195s3.558,17.205.673,17.288-2.374-15.4-2.374-15.4c-5.063,2.411-9.063,9.369-9.063,9.369-4.638,11.042,9.779,16.428,9.779,16.428a28.565,28.565,0,0,1-1.547,13.464h0a20.71,20.71,0,0,0-1.161,3.7l1.447-.223q.088-.609.219-1.184a.008.008,0,0,1,0-.007l0-.017c.065-.239.158-.579.276-.994v0s0,0,0,0c.309-.934.509-1.619.627-2.11a.013.013,0,0,0,0,0c.906-2.921,2.269-6.756,3.427-7.695a2.839,2.839,0,0,1-.412-.616l.412.616c3.3,4.927,15.819,3.9,22.5,1.422s3.375-3.962-.829-6.549-11.861-.553-14.352-1.437.68-2.641,5.335-3,7.665,3.891,15.207,3.453,11.049-15.291,11.049-15.291c-4.886,2.384-14.525.971-15.151-.744s13.026-3.639,15.068-4.5,5.1-5.678,1.493-13.818" transform="translate(-796.565 -0.003)" fill="#ff9fa3"/>
            <path id="Trazado_154425" data-name="Trazado 154425" d="M1058.335,540.033c12.952-7.736,1.924-30.161,1.924-30.161s-29.046-9.17-30.943-13.679,26.365,2.991,26.365,2.991c-1.668-9.3-19.249-29.254-19.249-29.254s-28.211,9.5-28.94,4.666,25.409-7.14,25.409-7.14c-5.09-8.023-17.61-13.328-17.61-13.328-19.519-5.544-25.631,19.807-25.631,19.807s-9.848,3.082-22.961.15h0a35.1,35.1,0,0,0-6.462-1.2l.671,2.389c.7.015,1.375.056,2.036.127a.014.014,0,0,1,.012,0l.029,0c.415.06,1.006.147,1.728.261h.006c1.634.328,2.828.525,3.677.623h.008c5.1.927,11.827,2.435,13.643,4.191a4.807,4.807,0,0,1,.952-.819l-.952.819c-7.613,6.551-3.328,27.4,2.209,38.138s7.354,4.866,10.845-2.732-1.495-20.062-.517-24.434,4.581.6,6.131,8.361-4.977,13.688-2.7,26.283,27.977,15.457,27.977,15.457c-5.009-7.731-4.6-24.231-1.847-25.635s8.783,21.165,10.644,24.424,10.594,7.422,23.546-.314" transform="translate(-773.863 -394.447)" fill="#ff9fa3"/>
            <path id="Trazado_154426" data-name="Trazado 154426" d="M206.786,390.669c7.254-10.465,25.508.1,25.508.1s6.062,24.983,9.751,26.838-1.012-22.372-1.012-22.372c7.736,1.936,23.535,17.88,23.535,17.88s-9.614,23.213-5.582,24.1,7.464-20.988,7.464-20.988c6.465,4.745,10.218,15.591,10.218,15.591,3.554,16.754-18.143,20.452-18.143,20.452a40.847,40.847,0,0,0-1.438,19.327h0a29.624,29.624,0,0,1,.638,5.51l-1.973-.7c.027-.586.031-1.161.009-1.722a.012.012,0,0,0,0-.01c0-.008,0-.016,0-.024-.027-.353-.067-.856-.121-1.47v0s0,0,0,0c-.183-1.394-.28-2.411-.314-3.132a.024.024,0,0,1,0-.007c-.489-4.347-1.375-10.1-2.75-11.728a4.055,4.055,0,0,0,.744-.755l-.744.755c-5.951,6.037-23.267,1.237-31.99-4.038s-3.677-6.471,2.92-8.977,16.809,2.4,20.546,1.831-.246-3.892-6.69-5.64-11.811,3.409-22.286.771-11.418-24.442-11.418-24.442c6.224,4.659,20.141,5.26,21.482,3.019s-17.321-8.605-19.959-10.359-5.645-9.345,1.609-19.809" transform="translate(-114.344 -335.897)" fill="#ff9fa3"/>
            <g id="Grupo_166285" data-name="Grupo 166285" transform="translate(93.383 9.355)">
              <rect id="Rectángulo_41321" data-name="Rectángulo 41321" width="122.095" height="175.697" fill="#fff"/>
              <rect id="Rectángulo_41322" data-name="Rectángulo 41322" width="55.652" height="2.889" transform="translate(31.311 15.821)" fill="#f99746"/>
              <rect id="Rectángulo_41323" data-name="Rectángulo 41323" width="27.826" height="2.889" transform="translate(24.118 22.527)" fill="#f99746"/>
              <rect id="Rectángulo_41324" data-name="Rectángulo 41324" width="40.84" height="2.889" transform="translate(55.3 22.527)" fill="#f99746"/>
              <rect id="Rectángulo_41325" data-name="Rectángulo 41325" width="60.042" height="2.2" transform="translate(27.111 87.614)" fill="#aec3ff"/>
              <rect id="Rectángulo_41326" data-name="Rectángulo 41326" width="42.516" height="2.2" transform="translate(58.773 81.744)" fill="#aec3ff"/>
              <rect id="Rectángulo_41327" data-name="Rectángulo 41327" width="41.417" height="2.2" transform="translate(12.976 81.744)" fill="#aec3ff"/>
              <rect id="Rectángulo_41328" data-name="Rectángulo 41328" width="36.576" height="2.2" transform="translate(60.55 75.875)" fill="#aec3ff"/>
              <rect id="Rectángulo_41329" data-name="Rectángulo 41329" width="36.576" height="2.2" transform="translate(17.139 75.875)" fill="#aec3ff"/>
              <path id="Trazado_154427" data-name="Trazado 154427" d="M870.659,730.9H853a1.457,1.457,0,0,1,0-2.913h17.655a1.457,1.457,0,0,1,0,2.913" transform="translate(-803.727 -621.587)" fill="#a8c3f7"/>
              <path id="Trazado_154428" data-name="Trazado 154428" d="M998.621,730.9H980.966a1.457,1.457,0,0,1,0-2.913h17.655a1.457,1.457,0,0,1,0,2.913" transform="translate(-907.06 -621.587)" fill="#a8c3f7"/>
              <path id="Trazado_154429" data-name="Trazado 154429" d="M900.033,810.627a15.905,15.905,0,1,1,15.905-15.905,15.923,15.923,0,0,1-15.905,15.905m0-31.009a15.1,15.1,0,1,0,15.1,15.1,15.121,15.121,0,0,0-15.1-15.1" transform="translate(-830.037 -662.632)" fill="#a8c3f7"/>
              <path id="Trazado_154430" data-name="Trazado 154430" d="M913,820.5a12.816,12.816,0,1,1,12.816-12.816A12.831,12.831,0,0,1,913,820.5m0-24.83a12.014,12.014,0,1,0,12.014,12.014A12.028,12.028,0,0,0,913,795.67" transform="translate(-842.999 -675.596)" fill="#a8c3f7"/>
              <path id="Trazado_154431" data-name="Trazado 154431" d="M935.533,842.289a12.353,12.353,0,0,1-4.566.715c-1.947-.162-3.043-1.182-3.086-2.872a4.334,4.334,0,0,1,1.613-3.468c-.011-.092-.019-.183-.026-.275-.072-.945.13-1.573.6-1.867.76-.474,1.889.174,1.937.2l-.253.432c-.253-.147-1-.471-1.421-.21-.358.225-.4.843-.37,1.346a10.625,10.625,0,0,1,3.461-1.549,18.557,18.557,0,0,1,3.261-.557c.005-.118.015-.223.028-.309.034-.232.115-.5.343-.558a.377.377,0,0,1,.4.211,1.2,1.2,0,0,1,.153.607c.362-.008.7,0,1,.02l.008-.019a5.729,5.729,0,0,1,.077-1.741c.127-.579.334-.872.625-.9a.382.382,0,0,1,.4.245,4.682,4.682,0,0,1-.585,2.47v.006c.414.07.7.185.785.345a.373.373,0,0,1-.1.469.59.59,0,0,1-.731.157.716.716,0,0,1-.268-.307,5.231,5.231,0,0,1-.985,1.467.492.492,0,0,1-.582.085.543.543,0,0,1-.127-.1,6.8,6.8,0,0,1-.381.788c-.523.918-1.112,1.391-1.7,1.362a.961.961,0,0,1-.638-.283,9.243,9.243,0,0,1-1.147,1.886,1.342,1.342,0,0,1-1.494.53c-.97-.3-1.847-1.706-2.176-3.368a3.749,3.749,0,0,0-1.2,2.871c.037,1.442.921,2.244,2.628,2.387,4.307.359,11.859-3.646,12.432-6.593-.466,2.4-4.049,5.126-7.907,6.376m-5.509-5.425c.262,1.754,1.14,3.042,1.885,3.275a.852.852,0,0,0,.956-.367,8.609,8.609,0,0,0,1.2-2.058,3.052,3.052,0,0,1-.208-.652,4.7,4.7,0,0,1,0-1.916,12.657,12.657,0,0,0-2.358.821,7.74,7.74,0,0,0-1.482.9m4.6.82a.574.574,0,0,0,.44.3c.379.016.834-.388,1.247-1.11a6.6,6.6,0,0,0,.516-1.165,4.921,4.921,0,0,1-.141-1.016c-.554.044-1.158.119-1.781.232a3.762,3.762,0,0,1-.281,2.76m2.724-1.967c.078.235.148.281.148.281a4.685,4.685,0,0,0,.889-1.352c-.237-.009-.5-.01-.8,0a6.087,6.087,0,0,1-.241,1.074m-2.935-.642a3.822,3.822,0,0,0-.064,1.87,2.461,2.461,0,0,0,.064-1.87m4.922-.319h0m-.074-2.566a3.073,3.073,0,0,0-.119.523,3.912,3.912,0,0,0,.119-.523" transform="translate(-865.368 -705.172)" fill="#a8c3f7"/>
              <rect id="Rectángulo_41330" data-name="Rectángulo 41330" width="67.043" height="2.2" transform="translate(23.611 60.889)" fill="#aec3ff"/>
              <rect id="Rectángulo_41331" data-name="Rectángulo 41331" width="47.473" height="2.2" transform="translate(58.965 55.02)" fill="#aec3ff"/>
              <rect id="Rectángulo_41332" data-name="Rectángulo 41332" width="46.246" height="2.2" transform="translate(7.827 55.02)" fill="#aec3ff"/>
              <rect id="Rectángulo_41333" data-name="Rectángulo 41333" width="40.84" height="2.2" transform="translate(60.948 49.15)" fill="#aec3ff"/>
              <rect id="Rectángulo_41334" data-name="Rectángulo 41334" width="40.84" height="2.2" transform="translate(12.476 49.15)" fill="#aec3ff"/>
            </g>
            <g id="Grupo_166284" data-name="Grupo 166284" transform="translate(174.955 54.05)">
              <g id="Grupo_166253" data-name="Grupo 166253" transform="translate(1.324 8.761)" opacity="0.5">
                <g id="Grupo_166252" data-name="Grupo 166252">
                  <g id="Grupo_166251" data-name="Grupo 166251" clip-path="url(#clip-path)">
                    <path id="Trazado_154432" data-name="Trazado 154432" d="M1077.025,1073.863l27.45-.008,14.519,0a10.279,10.279,0,0,0,10.243-10.253l-.032-101.432a10.272,10.272,0,0,0-10.248-10.243l-12.877,0-29.093.008a10.275,10.275,0,0,0-10.243,10.25l.029,101.433a10.28,10.28,0,0,0,10.251,10.245" transform="translate(-1066.746 -951.923)" fill="#c0d8fb"/>
                  </g>
                </g>
              </g>
              <path id="Trazado_154433" data-name="Trazado 154433" d="M1078.911,1193.934l.728-5.338.729-5.341a5.018,5.018,0,0,1,5.632-4.28c.151.021.3.05.444.084a4.955,4.955,0,0,1-.86-2.364,5,5,0,0,1-9.477-3.085l1.254-5.24,1.254-5.242a5,5,0,1,1,9.729,2.328l-1.89,7.9a4.951,4.951,0,0,1,3.946-2.124,13.7,13.7,0,0,1,1.039-10.55l8.307-6.866a5,5,0,0,1,6.817,7.291,4.929,4.929,0,0,1,1.332.172l5.2,1.422h0l5.2,1.422a5.011,5.011,0,0,1,3.535,3.645l.546-1.307,2.077-4.972a5,5,0,1,1,9.231,3.856l-2.077,4.972-1.331,3.186a5.013,5.013,0,0,1,3.16,4.393l.272,5.381.272,5.383a4.984,4.984,0,0,1-6.431,5.037,5.044,5.044,0,0,1,.4,3.38,4.971,4.971,0,0,1,2.121,2.409l2.058,4.979,2.059,4.982a18.11,18.11,0,0,0-9.854,7.3,5.015,5.015,0,0,1-7.012-.931l-3.275-4.279-3.276-4.279a3.264,3.264,0,0,0-4.224-2.757l-.858-.592,1.188,1.553,3.275,4.278a5,5,0,0,1-7.944,6.081l-3.275-4.279-3.276-4.28c-.042-.055-.077-.113-.117-.17a4.966,4.966,0,0,1-.959,1.128l1.166,1.524a5,5,0,1,1-7.944,6.081l-6.551-8.559a4.984,4.984,0,0,1,2.127-7.684c-.061-.006-.121-.007-.182-.015a5.015,5.015,0,0,1-4.28-5.632m45.076-4.773-.093-1.836a4.791,4.791,0,0,1-1.863,1.808l2.292,1.58a4.951,4.951,0,0,1-.336-1.553m-33.707-4.553-.979,7.179a5.016,5.016,0,0,1,5.193-2.752,4.937,4.937,0,0,1-1.362-1.219l-2.812-3.673c-.006.155-.018.309-.039.465m11.377-19.4-1.26,1.042,1.3.9a4.946,4.946,0,0,1-.037-1.937m-1.087,15.863a1.348,1.348,0,0,0-.19-2.68l-3.942-2.719Zm-3.272,9.36a5.038,5.038,0,0,1,3.771-1.137l-.107-1.347a2.568,2.568,0,1,0-3.664,2.484m10.077-18.931a5.013,5.013,0,0,1-.038,5.614c-.021.032-.047.059-.069.09a1.1,1.1,0,1,0,.831-1.655,4.985,4.985,0,0,1,1.911-3.314l.015-.01Zm4.979,12.027-1.929-2.52c.028.155.05.313.063.474l.365,4.627a5.009,5.009,0,0,1,2.541-1.223Zm9.032,21.142-.566-1.37a4.963,4.963,0,0,1-.24-3.043c-.115-.066-.229-.133-.34-.209l-8.872-6.119c-.057-.04-.108-.085-.163-.126a5,5,0,0,1-.564,1.369l1.58,1.089a7.558,7.558,0,0,0,6.489,4.912Zm-23.536-6.167-.277,1.158a4.948,4.948,0,0,1,1.386-.393Zm-10.566,1.168.386-1.611.073-.306a1.268,1.268,0,1,0-.459,1.918m30.3-25.77,2.715,3.546,3.274,4.278c.015.02.028.041.042.06l-.171-3.392c0-.087,0-.172,0-.259-.154-.047-.307-.1-.459-.165a3.429,3.429,0,0,0-5.4-4.069" transform="translate(-1073.129 -1091.988)" fill="#afcdfb"/>
              <g id="Grupo_166256" data-name="Grupo 166256" transform="translate(38.978 8.761)" opacity="0.5">
                <g id="Grupo_166255" data-name="Grupo 166255" transform="translate(0)">
                  <g id="Grupo_166254" data-name="Grupo 166254" clip-path="url(#clip-path-2)">
                    <path id="Trazado_154434" data-name="Trazado 154434" d="M1066.82,1073.854l14.52,0a10.279,10.279,0,0,0,10.242-10.253l-.032-101.432a10.272,10.272,0,0,0-10.248-10.243l-12.877,0a12.561,12.561,0,0,0-1.681,6.336l.034,114.567q0,.518.041,1.023" transform="translate(-1066.745 -951.923)" fill="#afcdfb"/>
                  </g>
                </g>
              </g>
              <path id="Trazado_154435" data-name="Trazado 154435" d="M1063.776,931.6l38.986-.012,22.127-.008a1.994,1.994,0,0,0,1.991-1.993l0-9.552a2,2,0,0,0-1.993-1.991l-22.1.006h0l-39.012.011a2,2,0,0,0-1.992,1.993l0,9.552a2,2,0,0,0,1.994,1.993" transform="translate(-1061.78 -918.044)" fill="#f99746"/>
              <path id="Trazado_154436" data-name="Trazado 154436" d="M1063.745,931.589l22.127-.008a1.994,1.994,0,0,0,1.991-1.993l0-9.552a2,2,0,0,0-1.993-1.991l-22.1.006h0a2,2,0,0,0-1.987,1.993l0,9.552a2,2,0,0,0,1.962,1.993" transform="translate(-1023.118 -918.044)" fill="#ef7e29"/>
              <path id="Trazado_154485" data-name="Trazado 154485" d="M965.474,1374.75a7.425,7.425,0,0,0,7.4,7.4h34.945a7.4,7.4,0,0,0,0-14.8H972.874a7.422,7.422,0,0,0-7.4,7.4" transform="translate(-925.209 -1251.148)" fill="#2b478b"/>
              <path id="Trazado_154486" data-name="Trazado 154486" d="M965.474,1374.75a7.421,7.421,0,0,0,7.4,7.4h16.92a7.4,7.4,0,0,0,0-14.8h-16.92a7.42,7.42,0,0,0-7.4,7.4" transform="translate(-907.183 -1251.148)" fill="#699ff0"/>
              <g id="Grupo_166268" data-name="Grupo 166268" transform="translate(46.023 117.844)" opacity="0.4">
                <g id="Grupo_166267" data-name="Grupo 166267">
                  <g id="Grupo_166266" data-name="Grupo 166266" clip-path="url(#clip-path-3)">
                    <path id="Trazado_154487" data-name="Trazado 154487" d="M999.6,1376.029h33.332a1.052,1.052,0,0,0,1.049-1.049v-.236a1.052,1.052,0,0,0-1.049-1.048H999.6a1.052,1.052,0,0,0-1.049,1.048v.236a1.052,1.052,0,0,0,1.049,1.049" transform="translate(-998.547 -1373.696)" fill="#e9f3fe"/>
                  </g>
                </g>
              </g>
              <path id="Trazado_154488" data-name="Trazado 154488" d="M857.844,1302.522a7.873,7.873,0,0,0,3.5,10.529l33.122,16.6a7.844,7.844,0,0,0,7.029-14.026l-33.121-16.6a7.869,7.869,0,0,0-10.528,3.5" transform="translate(-787.76 -1199.881)" fill="#ef7e29"/>
              <path id="Trazado_154489" data-name="Trazado 154489" d="M857.844,1335.626a7.867,7.867,0,0,0,3.5,10.528l16.037,8.037a7.844,7.844,0,0,0,7.029-14.026l-16.038-8.037a7.865,7.865,0,0,0-10.525,3.5" transform="translate(-770.674 -1224.422)" fill="#f99746"/>
              <g id="Grupo_166271" data-name="Grupo 166271" transform="translate(77.55 100.302)" opacity="0.5">
                <g id="Grupo_166270" data-name="Grupo 166270" transform="translate(0)">
                  <g id="Grupo_166269" data-name="Grupo 166269" clip-path="url(#clip-path-4)">
                    <path id="Trazado_154490" data-name="Trazado 154490" d="M883.073,1308.2l31.593,15.832a1.115,1.115,0,0,0,1.492-.5l.112-.224a1.115,1.115,0,0,0-.5-1.492l-31.593-15.832a1.115,1.115,0,0,0-1.492.5l-.113.225a1.115,1.115,0,0,0,.5,1.492" transform="translate(-882.46 -1305.868)" fill="#ffe2cc"/>
                  </g>
                </g>
              </g>
            </g>
            <g id="Grupo_166279" data-name="Grupo 166279" transform="translate(18.86 48.798)">
              <g id="Grupo_166281" data-name="Grupo 166281" transform="translate(49.691)">
                <path id="Trazado_154440" data-name="Trazado 154440" d="M496.923,685.291v66.662a7.46,7.46,0,0,1-7.439,7.438H449.862a7.352,7.352,0,0,1-2.986-.63,7.464,7.464,0,0,1-4.453-6.808V685.291a7.46,7.46,0,0,1,7.438-7.438h39.622a7.459,7.459,0,0,1,7.439,7.438" transform="translate(-442.424 -677.853)" fill="#fcecdb"/>
                <path id="Trazado_154441" data-name="Trazado 154441" d="M621.6,745.052a8.1,8.1,0,1,1,10.426-4.734,8.1,8.1,0,0,1-10.426,4.734" transform="translate(-584.652 -719.984)" fill="#f7e0cb"/>
                <path id="Trazado_154442" data-name="Trazado 154442" d="M634.354,740.317l-15.16-5.692a8.1,8.1,0,1,1,15.16,5.692" transform="translate(-586.981 -719.983)" fill="#efcbab"/>
                <path id="Trazado_154443" data-name="Trazado 154443" d="M481.663,743.752a8.1,8.1,0,1,1,11.393-1.152,8.1,8.1,0,0,1-11.393,1.152" transform="translate(-472.078 -719.992)" fill="#f7e0cb"/>
                <path id="Trazado_154444" data-name="Trazado 154444" d="M501.246,742.6,488.7,732.359A8.1,8.1,0,1,1,501.246,742.6" transform="translate(-480.269 -719.992)" fill="#efcbab"/>
                <path id="Trazado_154451" data-name="Trazado 154451" d="M479.26,875.028a8.1,8.1,0,1,1,4.508,10.526,8.1,8.1,0,0,1-4.508-10.526" transform="translate(-472.072 -834.934)" fill="#f7e0cb"/>
                <g id="Grupo_166262" data-name="Grupo 166262" transform="translate(8.704 16.561)" opacity="0.5">
                  <g id="Grupo_166261" data-name="Grupo 166261">
                    <g id="Grupo_166260" data-name="Grupo 166260" clip-path="url(#clip-path-5)">
                      <path id="Trazado_154453" data-name="Trazado 154453" d="M535.985,768.732V826.74a6.909,6.909,0,0,1-6.807,6.969H492.922a6.591,6.591,0,0,1-2.732-.591V776.762a8.1,8.1,0,0,1,2.494-5.858,7.88,7.88,0,0,1,1.916-1.356,7.622,7.622,0,0,1,3.433-.816Z" transform="translate(-490.19 -768.732)" fill="#efcbab"/>
                    </g>
                  </g>
                </g>
                <path id="Trazado_154454" data-name="Trazado 154454" d="M497.291,844.888V778.227a7.46,7.46,0,0,1,7.438-7.438h39.623a7.46,7.46,0,0,1,7.439,7.438v66.662a7.46,7.46,0,0,1-7.439,7.438H504.729a7.46,7.46,0,0,1-7.438-7.438" transform="translate(-487.293 -753.852)" fill="#fcecdb"/>
                <path id="Trazado_154455" data-name="Trazado 154455" d="M676.468,837.99a8.1,8.1,0,1,1,10.426-4.734,8.1,8.1,0,0,1-10.426,4.734" transform="translate(-629.522 -795.985)" fill="#f7e0cb"/>
                <path id="Trazado_154456" data-name="Trazado 154456" d="M689.223,833.256l-15.16-5.692a8.1,8.1,0,1,1,15.16,5.692" transform="translate(-631.851 -795.985)" fill="#efcbab"/>
                <path id="Trazado_154457" data-name="Trazado 154457" d="M536.531,836.69a8.1,8.1,0,1,1,11.393-1.152,8.1,8.1,0,0,1-11.393,1.152" transform="translate(-516.947 -795.994)" fill="#f7e0cb"/>
                <path id="Trazado_154458" data-name="Trazado 154458" d="M556.114,835.538,543.57,825.3a8.1,8.1,0,1,1,12.544,10.241" transform="translate(-525.138 -795.994)" fill="#efcbab"/>
              </g>
              <g id="Grupo_166283" data-name="Grupo 166283" transform="translate(40.509 43.526)">
                <g id="Grupo_166280" data-name="Grupo 166280">
                  <rect id="Rectángulo_41339" data-name="Rectángulo 41339" width="62.231" height="92.873" transform="translate(5.316 0.001)" fill="#ef7e29"/>
                  <rect id="Rectángulo_41340" data-name="Rectángulo 41340" width="62.231" height="92.873" transform="translate(13.984)" fill="#f99746"/>
                  <path id="Trazado_154467" data-name="Trazado 154467" d="M429.878,922.091l-2.982,4.638h-5.686V916.7h8.668Z" transform="translate(-415.893 -916.701)" fill="#d8661a"/>
                  <path id="Trazado_154468" data-name="Trazado 154468" d="M400.707,924.019H392.04l5.316-7.316h8.668Z" transform="translate(-392.04 -916.702)" fill="#f99746"/>
                  <g id="Grupo_166265" data-name="Grupo 166265" transform="translate(13.984 4.233)" opacity="0.5">
                    <g id="Grupo_166264" data-name="Grupo 166264">
                      <g id="Grupo_166263" data-name="Grupo 166263" clip-path="url(#clip-path-6)">
                        <path id="Trazado_154469" data-name="Trazado 154469" d="M500.873,1028.861h-32.1V939.925l32.1,3.085Z" transform="translate(-468.777 -939.924)" fill="#efcbab"/>
                      </g>
                    </g>
                  </g>
                  <path id="Trazado_154470" data-name="Trazado 154470" d="M531.008,924.016l-5.049,2.711H471.777l-3-4.638V916.7Z" transform="translate(-454.793 -916.699)" fill="#ef7e29"/>
                </g>
                <g id="Grupo_166282" data-name="Grupo 166282" transform="translate(13.983 0)">
                  <path id="Trazado_154471" data-name="Trazado 154471" d="M535.4,924.019H473.17l-4.4-7.316H531Z" transform="translate(-468.773 -916.702)" fill="#f99746"/>
                </g>
              </g>
              <g id="Grupo_166279-2" data-name="Grupo 166279" transform="translate(0 68.586)">
                <path id="Trazado_154472" data-name="Trazado 154472" d="M260.293,1121.808H178.908a9.188,9.188,0,0,1-9.161-9.161v-49.274a9.187,9.187,0,0,1,9.161-9.161h81.384a9.187,9.187,0,0,1,9.16,9.161v49.274a9.188,9.188,0,0,1-9.16,9.161" transform="translate(-169.748 -1054.212)" fill="#fcecdb"/>
                <path id="Trazado_154473" data-name="Trazado 154473" d="M251.923,1112.754a9.859,9.859,0,0,1-12.749,5.871,10.084,10.084,0,0,1-5.789-12.932,9.862,9.862,0,0,1,12.749-5.872,10.087,10.087,0,0,1,5.789,12.932" transform="translate(-221.269 -1090.985)" fill="#f7e0cb"/>
                <path id="Trazado_154474" data-name="Trazado 154474" d="M246.134,1099.823l-6.961,18.8a10.085,10.085,0,0,1-5.789-12.932,9.861,9.861,0,0,1,12.749-5.872" transform="translate(-221.269 -1090.985)" fill="#efcbab"/>
                <path id="Trazado_154475" data-name="Trazado 154475" d="M250.333,1286.338a9.8,9.8,0,0,1-13.931,1.428,10.14,10.14,0,0,1-1.408-14.13,9.807,9.807,0,0,1,13.931-1.429,10.142,10.142,0,0,1,1.409,14.13" transform="translate(-221.279 -1230.631)" fill="#f7e0cb"/>
                <path id="Trazado_154476" data-name="Trazado 154476" d="M248.924,1272.208,236.4,1287.767a10.14,10.14,0,0,1-1.409-14.13,9.807,9.807,0,0,1,13.931-1.429" transform="translate(-221.279 -1230.631)" fill="#efcbab"/>
                <path id="Trazado_154477" data-name="Trazado 154477" d="M583.347,1112.754a9.859,9.859,0,0,1-12.749,5.871,10.085,10.085,0,0,1-5.789-12.932,9.862,9.862,0,0,1,12.749-5.872,10.087,10.087,0,0,1,5.789,12.932" transform="translate(-492.297 -1090.985)" fill="#f7e0cb"/>
                <path id="Trazado_154478" data-name="Trazado 154478" d="M577.571,1099.823l-6.961,18.8a10.085,10.085,0,0,1-5.789-12.932,9.861,9.861,0,0,1,12.749-5.872" transform="translate(-492.307 -1090.985)" fill="#efcbab"/>
                <path id="Trazado_154479" data-name="Trazado 154479" d="M581.757,1286.335a9.8,9.8,0,0,1-13.487,1.772c-.151-.107-.3-.223-.444-.343a10.139,10.139,0,0,1-1.408-14.13,9.8,9.8,0,0,1,13.93-1.428c.144.121.283.241.421.369a10.144,10.144,0,0,1,.987,13.761" transform="translate(-492.307 -1230.629)" fill="#f7e0cb"/>
                <path id="Trazado_154480" data-name="Trazado 154480" d="M580.77,1272.573l-12.5,15.533c-.151-.106-.3-.222-.444-.343a10.14,10.14,0,0,1-1.408-14.13,9.8,9.8,0,0,1,13.93-1.428c.144.12.284.241.421.368" transform="translate(-492.307 -1230.628)" fill="#efcbab"/>
                <path id="Trazado_154481" data-name="Trazado 154481" d="M423.486,1104.926a10.1,10.1,0,0,1-4.707,13.376,9.84,9.84,0,0,1-13.187-4.774,10.106,10.106,0,0,1,4.706-13.376,9.842,9.842,0,0,1,13.187,4.774" transform="translate(-361.832 -1090.988)" fill="#f7e0cb"/>
                <path id="Trazado_154482" data-name="Trazado 154482" d="M410.3,1104.5l8.48,18.15a9.84,9.84,0,0,1-13.187-4.774A10.107,10.107,0,0,1,410.3,1104.5" transform="translate(-361.831 -1095.339)" fill="#efcbab"/>
                <path id="Trazado_154483" data-name="Trazado 154483" d="M410.857,1289.3a10.09,10.09,0,0,1-5.513-13.055,9.854,9.854,0,0,1,12.871-5.592,10.092,10.092,0,0,1,5.513,13.055,9.856,9.856,0,0,1-12.871,5.592" transform="translate(-361.829 -1230.618)" fill="#f7e0cb"/>
                <path id="Trazado_154484" data-name="Trazado 154484" d="M426.921,1283.705l-18.384-7.463a9.854,9.854,0,0,1,12.871-5.592,10.092,10.092,0,0,1,5.513,13.055" transform="translate(-365.022 -1230.619)" fill="#efcbab"/>
              </g>
            </g>
            <g id="Grupo_166278" data-name="Grupo 166278" transform="translate(139.98 167.518)">
              <path id="Trazado_154437" data-name="Trazado 154437" d="M1334.287,1382.8a8.886,8.886,0,0,1-8.855,8.855h-41.815a8.854,8.854,0,0,1,0-17.708h41.815a8.881,8.881,0,0,1,8.855,8.853" transform="translate(-1274.765 -1373.949)" fill="#ef7e29"/>
              <path id="Trazado_154438" data-name="Trazado 154438" d="M1312.717,1382.8a8.88,8.88,0,0,1-8.853,8.855h-20.247a8.854,8.854,0,0,1,0-17.708h20.247a8.879,8.879,0,0,1,8.853,8.853" transform="translate(-1274.765 -1373.949)" fill="#f99746"/>
              <g id="Grupo_166259" data-name="Grupo 166259" transform="translate(10.237 1.964)" opacity="0.5">
                <g id="Grupo_166258" data-name="Grupo 166258">
                  <g id="Grupo_166257" data-name="Grupo 166257" clip-path="url(#clip-path-7)">
                    <path id="Trazado_154439" data-name="Trazado 154439" d="M1345.935,1382.5H1306.05a1.259,1.259,0,0,1-1.255-1.255v-.283a1.258,1.258,0,0,1,1.255-1.255h39.885a1.258,1.258,0,0,1,1.255,1.255v.283a1.259,1.259,0,0,1-1.255,1.255" transform="translate(-1304.797 -1379.711)" fill="#ffe2cc"/>
                  </g>
                </g>
              </g>
            </g>
          </g>
        </g>
      </g>
    </g>
  </g>
</svg>
