<svg id="Grupo_166593" data-name="Grupo 166593" xmlns="http://www.w3.org/2000/svg" xmlns:xlink="http://www.w3.org/1999/xlink" width="239.323" height="704" viewBox="0 0 239.323 704">
  <defs>
    <clipPath id="clip-path">
      <rect id="Rectángulo_41475" data-name="Rectángulo 41475" width="239.323" height="704" fill="none"/>
    </clipPath>
  </defs>
  <g id="Grupo_166592" data-name="Grupo 166592" clip-path="url(#clip-path)">
    <path id="Trazado_156147" data-name="Trazado 156147" d="M14.926,550.813H87.793a11.525,11.525,0,0,0,10.854-7.647,10.123,10.123,0,0,0,.458-1.52l.507-33.453.048-2.413,1.543-102.1-52.413-.843L52.94,505.781s.1,2.123.1,2.413h-.025c-.578,0-6.272,4.221-13.362,9.72-.676.507-1.351,1.061-2.051,1.591-.65.507-1.3,1.013-1.953,1.544-.723.555-1.471,1.133-2.219,1.736-1.013.82-2.05,1.64-3.088,2.46l-2.243,1.81c-9.358,7.5-17.921,14.714-18.645,16.112-.023.048-.048.073-.048.1-.023.048-.023.1-.048.145a5.762,5.762,0,0,0,5.572,7.405" transform="translate(125.577 153.183)" fill="#f9b3a2"/>
    <path id="Trazado_156148" data-name="Trazado 156148" d="M100.507,504.51a11.525,11.525,0,0,1-10.854,7.645H16.786a5.761,5.761,0,0,1-5.572-7.4c.025-.048.025-.1.048-.145,0-.025.025-.048.048-.1Z" transform="translate(123.706 191.845)" fill="#2f3f4f"/>
    <path id="Trazado_156149" data-name="Trazado 156149" d="M10.205,477.42s.1,2.123.1,2.411H56.877l.048-2.411Z" transform="translate(168.312 181.543)" fill="#2f3f4f"/>
    <rect id="Rectángulo_41473" data-name="Rectángulo 41473" width="2.411" height="37.231" transform="translate(218.218 660.747)" fill="#2f3f4f"/>
    <path id="Trazado_156150" data-name="Trazado 156150" d="M94.576,550.813h87.339a11.525,11.525,0,0,0,10.854-7.647,10.127,10.127,0,0,0,.458-1.52l1.953-33.453.145-2.413,10.251-102.1-52.389-.843-6.126,102.944s.1,2.123.1,2.413v.1c-.048.1-5.5,3.135-13.074,7.4-1.255.725-2.581,1.471-3.956,2.219-2.17,1.255-4.438,2.533-6.754,3.859-.7.41-1.423.82-2.123,1.23q-1.518.87-3.038,1.736c-.8.46-1.616.941-2.413,1.4-13.217,7.622-25.76,15.22-26.7,17.028-.023.048-.048.073-.048.1-.023.048-.023.1-.047.145a5.761,5.761,0,0,0,5.571,7.405" transform="translate(-88.735 153.183)" fill="#f9b3a2"/>
    <path id="Trazado_156151" data-name="Trazado 156151" d="M202.051,504.51a11.525,11.525,0,0,1-10.854,7.645H103.857a5.759,5.759,0,0,1-5.571-7.4c.023-.048.023-.1.048-.145,0-.025.023-.048.048-.1Z" transform="translate(-98.019 191.845)" fill="#2f3f4f"/>
    <path id="Trazado_156152" data-name="Trazado 156152" d="M144.43,477.423l-.145,2.411H96.261c0-.288-.047-1.085-.1-2.411Z" transform="translate(-37.84 181.545)" fill="#2f3f4f"/>
    <rect id="Rectángulo_41474" data-name="Rectángulo 41474" width="2.411" height="37.805" transform="translate(81.391 660.173)" fill="#2f3f4f"/>
    <path id="Trazado_156153" data-name="Trazado 156153" d="M122.927,78.634A58,58,0,0,0,99.32,111.393C93.29,133.7,83.039,208.476,87.345,225.685c4.443,17.763,38.42,27.2,49.052-3.852s19.382-60.392,18.74-63.406-32.21-79.793-32.21-79.793" transform="translate(-34.988 29.901)" fill="#f9b3a2"/>
    <path id="Trazado_156154" data-name="Trazado 156154" d="M48.718,225.984H149.41s8.451-50.941,8.451-78.39c0-27.424,2.685-48.323-12.994-61.952-7.767-6.754-24.609-12.41-35.077-16.487-.772-.288-1.545-.578-2.291-.868-9.649-3.618-17.175-5.716-17.175-5.716s-11.215,0-31.669,7.645c-4.921,1.858-11.241,5.717-17.246,10.758-.8.675-1.616,1.375-2.411,2.1-8.683,7.863-16.137,18.017-16.813,27.738-1.2,17.2,26.533,115.173,26.533,115.173" transform="translate(50.718 23.793)" fill="#f9b3a2"/>
    <path id="Trazado_156155" data-name="Trazado 156155" d="M111.823,59.455a10.093,10.093,0,0,1-.9.825,3.644,3.644,0,0,1-.449.4,4.732,4.732,0,0,1-.518.449,27.324,27.324,0,0,1-9.222,4.929,26.365,26.365,0,0,1-4.574.966A26.965,26.965,0,0,1,67.113,48.136a27.85,27.85,0,0,1-1.155-6.672v-.189a26.9,26.9,0,0,1,1.579-10.092l-.022-.023A28.478,28.478,0,0,1,68.952,27.9s.072-.142.213-.378a26.915,26.915,0,0,1,49.473,4.929c3.019,9.9-1.6,21.625-6.814,27" transform="translate(28.711 5.073)" fill="#f9b3a2"/>
    <path id="Trazado_156156" data-name="Trazado 156156" d="M71.012,31.284s-1.4,19.763,1.175,31.032c3.188,13.953,17.743,14.072,29.732,6.348S118,47.088,118,47.088,94.515,36.216,91.513,36.245s-20.5-4.961-20.5-4.961" transform="translate(23.835 11.896)" fill="#f9b3a2"/>
    <path id="Trazado_156157" data-name="Trazado 156157" d="M63.617,61.624l.189,8.135.023.849v.023l.141,7.382.023.825.33,14.6,17.521,3.159,19.549-5.683L88.967,40.967,73.945,57.544Z" transform="translate(50.123 15.578)" fill="#f9b3a2"/>
    <path id="Trazado_156158" data-name="Trazado 156158" d="M81.043,63.455l.023.849v.023l.142,7.382a25.661,25.661,0,0,0,3.7-1.816c4.693-2.9,9.384-11.956,9.667-12.522a46.322,46.322,0,0,1-5.093,2.759c-2.547,1.132-7.429,2.948-8.442,3.325" transform="translate(32.885 21.816)" fill="#2f3f4f"/>
    <path id="Trazado_156159" data-name="Trazado 156159" d="M88.377,49.05l14.965-.313s-.53,3.888-6.748,4.825a7.405,7.405,0,0,1-8.217-4.512" transform="translate(13.998 18.533)" fill="#fff"/>
    <path id="Trazado_156160" data-name="Trazado 156160" d="M110.342,58.868a10.091,10.091,0,0,1-.9.825,3.735,3.735,0,0,1-.447.4c-.392-1.281-1.19-8.341-4.189-10.825-2.8-2.316-8.8-12.956-9.045-14.276-1.132-6.25.206-3.023-3.335-6.455s-17.049-4.41-21.506-3.631c-3.349.589-4.716,2.051-5.21,2.736,3.253-6.037,8.066-11.329,15.14-13.474,14.219-4.316,29.994,4.16,34.333,18.4,3.019,9.9.367,20.922-4.845,26.3" transform="translate(32.163 4.958)" fill="#2f3f4f"/>
    <path id="Trazado_156161" data-name="Trazado 156161" d="M82.787,40.142c0,5.264-3.314,9.532-7.4,9.532s-7.4-4.268-7.4-9.532,3.314-9.532,7.4-9.532,7.4,4.268,7.4,9.532" transform="translate(62.699 11.64)" fill="#f9b3a2"/>
    <path id="Trazado_156162" data-name="Trazado 156162" d="M78.543,20.878a52.052,52.052,0,0,0,.442,9.285c.689,4.029,2.6,5.687,2.6,5.687h20.142L99.963,23.383s-6.5-3.536-10.373-4.028-11.048,1.522-11.048,1.522" transform="translate(29.242 7.331)" fill="#2f3f4f"/>
    <path id="Trazado_156163" data-name="Trazado 156163" d="M110.035,20.536A17.472,17.472,0,0,0,106.2,28.2a18.7,18.7,0,0,0,0,7.358h-11.4s-1.277-6.867,2.359-12.073,12.871-2.948,12.871-2.948" transform="translate(-1.268 7.624)" fill="#2f3f4f"/>
    <path id="Trazado_156164" data-name="Trazado 156164" d="M31.446,21.872S33.018,6.9,43.826,2.181,67.7.4,72.271,10.965C75.606,18.676,79,26.882,85.879,30.224s9.433,6.37,10.218,12.028l.787,5.658-30.46,1.768A24.493,24.493,0,0,1,58.638,37.42c-2.131-8.777,2.676-12.127-4.791-19s-18.668,4.93-18.668,4.93Z" transform="translate(99.035 0)" fill="#2f3f4f"/>
    <path id="Trazado_156165" data-name="Trazado 156165" d="M71.381,42.7a2.193,2.193,0,1,0,2.193-2.192A2.192,2.192,0,0,0,71.381,42.7" transform="translate(65.033 15.405)" fill="#fff"/>
    <path id="Trazado_156166" data-name="Trazado 156166" d="M153.048,137.7s-19.361,6.464-35.943-5.9c-12.166-9.068-26.088-26.834-26.088-26.834l-29,25.326L35.1,104.965s-10.973,17.463-12.723,30.44S43.9,209.876,43.9,209.876l54.506,20.213,50.716-20.213Z" transform="translate(55.525 39.914)" fill="#ffeae6"/>
    <path id="Trazado_156167" data-name="Trazado 156167" d="M0,566.34H179.815s-3.208-273.3-9.841-311.244c-4.076-23.3-12.518-45.949-18.428-59.939-3.689-8.8-6.392-14.182-6.392-14.182H39.918a153.381,153.381,0,0,0-8.032,14.182c-8.032,15.775-19.344,43.151-20.816,74.17C9.31,306.085,0,566.34,0,566.34" transform="translate(59.509 68.817)" fill="#4663ab"/>
    <path id="Trazado_156168" data-name="Trazado 156168" d="M114.2,258.254c.261-.581.744-1.663-53.881-144.2l-2.253.863c14.751,38.49,53.177,139.2,53.84,142.942l1.01-.178Z" transform="translate(44.937 43.37)" fill="#2f3f4f"/>
    <path id="Trazado_156169" data-name="Trazado 156169" d="M20.48,195.156H140.14c-3.691-8.8-6.392-14.182-6.392-14.182H28.512a153.144,153.144,0,0,0-8.032,14.182" transform="translate(70.915 68.817)" fill="#2f3f4f"/>
    <path id="Trazado_156170" data-name="Trazado 156170" d="M39.161,180.974l.651,14.182.29,6.079,2.411-.1-.29-5.982-.651-14.182Z" transform="translate(142.756 68.817)" fill="#4663ab"/>
    <path id="Trazado_156171" data-name="Trazado 156171" d="M98.908,201.138l2.411.1.29-6.079.651-14.182H99.85L99.2,195.156Z" transform="translate(0.543 68.817)" fill="#4663ab"/>
    <path id="Trazado_156172" data-name="Trazado 156172" d="M57.1,123.443l2.364.578,13.821-56.44c-.772-.29-1.545-.58-2.291-.868Z" transform="translate(87.223 25.368)" fill="#ffeae6"/>
    <path id="Trazado_156173" data-name="Trazado 156173" d="M106.642,78v40.738h2.413V75.905c-.8.675-1.616,1.375-2.413,2.1" transform="translate(-16.925 28.864)" fill="#ffe7cf"/>
    <path id="Trazado_156174" data-name="Trazado 156174" d="M61.434,93.762S22.391,208.108,22.323,208.277c-.729,1.827,7.794,9.44,9.048,10.712,7.768,7.883,19.945,17.763,31.865,14.831,9.981-2.454,15.27-13.579,19.684-21.834,11.89-22.235,17.13-40.065,24.725-64.051.629-1.989,1.256-3.979,1.854-5.978L92.189,113.736Z" transform="translate(99.075 35.654)" fill="#f9b3a2"/>
    <path id="Trazado_156175" data-name="Trazado 156175" d="M48.476,107.41s2.34,9.48,6.127,23.275c1.181,4.294,2.484,8.973,3.931,13.942,9.963,34.588,25.4,81.815,37.289,89.1,21.66,13.266,39.123-6.634,39.123-6.634l-21.852-72.047-9.48-24.723L98.4,116.793,89.721,94.144Z" transform="translate(37.467 35.799)" fill="#f9b3a2"/>
    <path id="Trazado_156176" data-name="Trazado 156176" d="M124.844,153.489l-11.93,70.494-28.773,1.565s1.692-42.211,2.2-45.226-3.71-37.085-3.71-37.085,6.23-32.662,6.634-40.3c.253-4.813,1.953-9.558,3.676-14.015,1.36-3.517,2.581-7.351,4.531-10.694,2.117-3.631,5.083-5.391,8.958-6.832a57.579,57.579,0,0,1,17.452-3.561c5.112-.2,14.025,18.823,14.828,21.837s-13.869,63.818-13.869,63.818" transform="translate(-13.477 25.794)" fill="#f9b3a2"/>
    <path id="Trazado_156177" data-name="Trazado 156177" d="M71.176,125.483,75.494,139.3l2.918-.916,45.081-14.3-5.21-13.532-43.8,13.894Z" transform="translate(17.589 42.039)" fill="#a66353"/>
    <path id="Trazado_156178" data-name="Trazado 156178" d="M78.152,122.074a10.1,10.1,0,1,1,10.1,10.1,10.1,10.1,0,0,1-10.1-10.1" transform="translate(33.101 42.579)" fill="#fff"/>
    <path id="Trazado_156179" data-name="Trazado 156179" d="M98.295,126.18l2.251-.864-5.064-13.2c-.45-1.176-1.808-6.79-3.248-12.734-2.07-8.551-4.414-18.242-5.747-22-2.464-6.945-10.1-9.7-10.422-9.811a1.206,1.206,0,0,0-.8,2.275c.069.023,6.878,2.5,8.948,8.342,1.293,3.643,3.725,13.689,5.68,21.761,1.757,7.262,2.857,11.775,3.34,13.032Z" transform="translate(36.005 25.669)" fill="#2f3f4f"/>
    <path id="Trazado_156180" data-name="Trazado 156180" d="M117.129,197.361a1.2,1.2,0,0,0,1.184-1L137.525,86.285a1.2,1.2,0,1,0-2.374-.414L115.939,195.948a1.205,1.205,0,0,0,1.19,1.413" transform="translate(-58.22 32.274)" fill="#2f3f4f"/>
    <path id="Trazado_156181" data-name="Trazado 156181" d="M72.484,175.321a1.233,1.233,0,0,0,.433-.08,1.209,1.209,0,0,0,.693-1.56L56.738,129.86a1.207,1.207,0,1,0-2.253.867l16.872,43.822a1.206,1.206,0,0,0,1.126.773" transform="translate(90.54 49.087)" fill="#2f3f4f"/>
    <path id="Trazado_156182" data-name="Trazado 156182" d="M116.905,183.616a1.177,1.177,0,0,0,.41-.072,1.207,1.207,0,0,0,.723-1.546c-.167-.465-16.872-46.627-18.149-52.123-.783-3.365-.293-10.211.226-17.456.311-4.363.634-8.876.708-13,.2-10.89,1.143-22.968,1.153-23.089a1.2,1.2,0,0,0-1.107-1.3,1.241,1.241,0,0,0-1.3,1.108c-.01.121-.961,12.268-1.161,23.231-.073,4.061-.393,8.541-.7,12.874-.53,7.434-1.032,14.454-.17,18.174,1.308,5.634,17.54,50.494,18.233,52.4a1.205,1.205,0,0,0,1.133.8" transform="translate(-12.774 28.531)" fill="#2f3f4f"/>
    <path id="Trazado_156183" data-name="Trazado 156183" d="M106.846,107.066l2.407-.12s-1.055-21.267-1.34-25.988c-.317-5.253-4.73-8.291-4.915-8.418a1.207,1.207,0,0,0-1.355,2c.036.025,3.619,2.52,3.863,6.566.286,4.718,1.34,25.961,1.34,25.963" transform="translate(-9.498 27.505)" fill="#2f3f4f"/>
    <path id="Trazado_156184" data-name="Trazado 156184" d="M104.169,107.248a.985.985,0,0,0,.11-.006,1.2,1.2,0,0,0,1.093-1.307c-.077-.865-1.91-21.275-3.43-26.89a16.641,16.641,0,0,0-6.631-9.151,1.206,1.206,0,0,0-1.278,2.046,14.439,14.439,0,0,1,5.582,7.734c1.463,5.413,3.336,26.266,3.354,26.476a1.207,1.207,0,0,0,1.2,1.1" transform="translate(4.934 26.508)" fill="#2f3f4f"/>
    <path id="Trazado_156185" data-name="Trazado 156185" d="M97.329,106.417c.04,0,.08,0,.12-.006a1.209,1.209,0,0,0,1.083-1.318c-.017-.155-1.529-15.513-2.878-22.908A25.956,25.956,0,0,0,88.5,69.05a1.206,1.206,0,0,0-1.641,1.768,23.9,23.9,0,0,1,6.418,11.8c1.333,7.3,2.836,22.556,2.85,22.709a1.207,1.207,0,0,0,1.2,1.089" transform="translate(21.421 26.135)" fill="#2f3f4f"/>
    <path id="Trazado_156186" data-name="Trazado 156186" d="M59.224,115.308a1.212,1.212,0,0,0,1.143-.816l5.042-14.766a1.207,1.207,0,0,0-2.284-.78l-5.043,14.766a1.208,1.208,0,0,0,.754,1.531,1.194,1.194,0,0,0,.389.065" transform="translate(93.771 37.315)" fill="#2f3f4f"/>
    <path id="Trazado_156187" data-name="Trazado 156187" d="M152.033,492.555v20.864h2.411V491.155c-.8.458-1.615.941-2.411,1.4" transform="translate(-124.966 186.766)" fill="#2f3f4f"/>
    <path id="Trazado_156188" data-name="Trazado 156188" d="M73.727,528.49a1.206,1.206,0,0,0,1.206-1.194L77.527,264.99a1.207,1.207,0,0,0-1.2-1.217,1.136,1.136,0,0,0-1.217,1.194L72.521,527.272a1.206,1.206,0,0,0,1.2,1.217Z" transform="translate(61.698 100.3)" fill="#2f3f4f"/>
  </g>
</svg>
