<svg xmlns="http://www.w3.org/2000/svg" xmlns:xlink="http://www.w3.org/1999/xlink" width="145" height="145" viewBox="0 0 145 145">
  <defs>
    <clipPath id="clip-path">
      <rect id="Rectángulo_41286" data-name="Rectángulo 41286" width="96.332" height="87.851" fill="none"/>
    </clipPath>
  </defs>
  <g id="Grupo_166167" data-name="Grupo 166167" transform="translate(-885 -1932)">
    <circle id="Elipse_4882" data-name="Elipse 4882" cx="72.5" cy="72.5" r="72.5" transform="translate(885 1932)" fill="#fff"/>
    <g id="Grupo_166166" data-name="Grupo 166166" transform="translate(909 1961)">
      <g id="Grupo_166165" data-name="Grupo 166165" clip-path="url(#clip-path)">
        <path id="Trazado_153929" data-name="Trazado 153929" d="M65.691,69.1c-.9.57-1.577.183-2.231-.473Q57.951,63.1,52.427,57.592c-3.3-3.3-6.594-6.614-9.913-9.9a3.022,3.022,0,0,1-1.024-3.44c.12-.318-.031-.463-.21-.641-1.308-1.307-2.628-2.6-3.914-3.931-.337-.348-.524-.286-.816.026q-.835.892-1.733,1.723a1.4,1.4,0,0,1-1.806.2A4.992,4.992,0,0,0,25.6,44.8,3.436,3.436,0,0,0,26.088,48c.723.982.657,1.51-.212,2.384q-3.446,3.469-6.915,6.914c-.913.908-1.6.931-2.5.037Q8.537,49.44.637,41.516a1.477,1.477,0,0,1,.015-2.441q3.473-3.506,6.981-6.98a1.488,1.488,0,0,1,2.314-.208,3.487,3.487,0,0,0,3.639.374,5.748,5.748,0,0,0,3.594-4.152,3.209,3.209,0,0,0-.54-2.753,1.562,1.562,0,0,1,.2-2.469Q23.212,16.5,29.6,10.127a4.265,4.265,0,0,1,5.933-.488c.49.358.68.138.986-.165A36.529,36.529,0,0,1,43,3.777c7.748-4.719,15.655-5.041,23.717-.828a1.543,1.543,0,0,1,1.015,1.445,1.518,1.518,0,0,1-1.009,1.35,51.842,51.842,0,0,0-12.739,8.871,1.737,1.737,0,0,1-2.421.356,1.406,1.406,0,0,1-.04-2.253,26.445,26.445,0,0,1,2.631-2.384A54.935,54.935,0,0,1,62.072,4.7a.572.572,0,0,0,.283-.262c-.177-.3-.536-.233-.8-.366A19.771,19.771,0,0,0,43.1,7.493,50.278,50.278,0,0,0,38.879,11.5c-.421.4-.35.72.038,1.1,1.3,1.274,2.577,2.564,3.862,3.849.768.821,1.587,1.592,2.369,2.4.346.358.618.355.891-.075a3.916,3.916,0,0,1,1.185-1.309,1.245,1.245,0,0,1,1.845.319,1.558,1.558,0,0,1-.042,2.135,5.329,5.329,0,0,1-.335.452,1.535,1.535,0,0,0-.107,2.466,3.949,3.949,0,0,1-.339,5.1c-.4.475-.36.709.06,1.11,1.224,1.168,2.409,2.377,3.6,3.581.274.277.511.526.962.358a2.773,2.773,0,0,1,3,.771c.185.168.356.352.533.53Q73.878,51.774,91.372,69.245c2.207,2.2,4.371,4.365,4.959,7.592v3.01c-.33.186-.244.553-.319.828-1.865,6.815-10.287,9.532-15.549,4.8-4.119-3.7-7.906-7.775-11.829-11.695a1.425,1.425,0,0,1-.136-2.034,1.453,1.453,0,0,1,2.046-.311,5.327,5.327,0,0,1,.984.869q5.121,5.117,10.235,10.241a6.914,6.914,0,0,0,4.954,2.142,6.138,6.138,0,0,0,4.5-1.789,6.6,6.6,0,0,0-.068-9.506c-.436-.45-.884-.888-1.326-1.331L54.475,36.712c-.755-.755-.756-.754-1.5-.009-2.125,2.129-4.257,4.248-6.374,6.384-.563.543-1.109,1.1-1.665,1.654a.6.6,0,0,0-.01.969c.2.2.4.4.6.6Q55.414,56.2,65.306,66.1a4.784,4.784,0,0,1,.916,1.062,1.306,1.306,0,0,1-.532,1.945" transform="translate(0 0)"/>
        <path id="Trazado_153930" data-name="Trazado 153930" d="M88.42,91.125c.819-.929.786-1.509-.188-2.486q-5.34-5.354-10.692-10.7C74.2,74.6,70.865,71.242,67.5,67.925c-.538-.53-.54-.844.018-1.31.6-.5,1.134-1.072,1.7-1.613.5.118.76.538,1.086.863q18.161,18.148,36.3,36.315a8.012,8.012,0,0,0,6.363,2.669,1.429,1.429,0,0,1,1.166.206,6.8,6.8,0,0,1-9.747-.286c-3.587-3.536-7.128-7.117-10.693-10.674-.919-.917-1.463-.981-2.46-.326a13.306,13.306,0,0,0-2.809-2.644" transform="translate(-22.729 -22.02)" fill="#8d6047"/>
        <path id="Trazado_153931" data-name="Trazado 153931" d="M70.943,19.752c-1.137-.631-1.658-.5-2.513.645-.911,1.217-.914,1.221-1.965.159-.636-.642-1.261-1.295-1.891-1.943a22.151,22.151,0,0,1,17.9-12.806c.376-.042.735.175,1.107.034l1.393.479C83.248,7.367,81.652,8.327,80.132,9.4a63.946,63.946,0,0,0-6.31,5.156c-.915.841-.967,1.252-.386,2.376a25.327,25.327,0,0,0-2.493,2.816" transform="translate(-21.875 -1.965)" fill="#5d6970"/>
        <path id="Trazado_153932" data-name="Trazado 153932" d="M115.213,101.377a8.8,8.8,0,0,1-6.246-1.436,7.593,7.593,0,0,1-.793-.652Q89.5,80.63,70.842,61.962c-.2-.2-.364-.425-.546-.637q3.44-3.472,6.874-6.951c.292-.3.5-.312.747.007a3.234,3.234,0,0,0,.262.268q18.358,18.357,36.716,36.713a7.18,7.18,0,0,1,2.289,4.3,6.509,6.509,0,0,1-1.97,5.714" transform="translate(-23.814 -18.343)" fill="#b47f58"/>
        <path id="Trazado_153933" data-name="Trazado 153933" d="M43.161,17.483a1.677,1.677,0,0,1,1.226.609q5.852,5.843,11.687,11.7a1.553,1.553,0,0,1-.015,2.535C52.305,36.1,48.53,39.86,44.775,43.636c-.333.336-.535.386-.9.022q-6.66-6.7-13.356-13.356c-.364-.362-.309-.569.026-.9q5.7-5.666,11.37-11.355a1.585,1.585,0,0,1,1.244-.563" transform="translate(-10.255 -5.921)" fill="#717e87"/>
        <path id="Trazado_153934" data-name="Trazado 153934" d="M15.783,68.639q-5.027-4.992-10.059-9.978c-.334-.329-.281-.532.025-.834Q8.09,55.521,10.4,53.18c.286-.29.459-.286.747.006q4.948,5,9.92,9.988c.247.356-.015.592-.222.8q-2.177,2.232-4.406,4.41c-.173.17-.361.358-.651.251" transform="translate(-1.862 -17.942)" fill="#717e87"/>
        <path id="Trazado_153935" data-name="Trazado 153935" d="M20.308,50.046a8.87,8.87,0,0,0,6.575-6.672L36.21,52.7A11.616,11.616,0,0,0,33.6,53.764,8.7,8.7,0,0,0,29.8,58.592c-.073.233-.075.879-.606.349-2.946-2.937-5.88-5.886-8.882-8.895" transform="translate(-6.88 -14.693)" fill="#5d6970"/>
        <path id="Trazado_153936" data-name="Trazado 153936" d="M81.247,5.357c-1.274.4-2.619.372-3.915.694a22.084,22.084,0,0,0-8.517,4.108,21.269,21.269,0,0,0-6,7.421c-.12.247-.212.539-.569.548-1.444-1.428-2.884-2.86-4.336-4.28-.243-.238-.3-.393-.03-.672,2.967-3.067,5.989-6.042,10.146-7.516a19.97,19.97,0,0,1,13.224-.3" transform="translate(-19.546 -1.482)" fill="#717e87"/>
        <path id="Trazado_153937" data-name="Trazado 153937" d="M21.054,73.869c1.8-1.586,3.414-3.358,5.115-5.043.1-.1.111-.279.164-.422,1.178,1.158,2.353,2.32,3.539,3.469.261.253.374.43.051.747q-2.372,2.33-4.7,4.7c-.272.275-.469.331-.764.024-1.123-1.169-2.267-2.319-3.4-3.476" transform="translate(-7.132 -23.173)" fill="#5d686f"/>
        <path id="Trazado_153938" data-name="Trazado 153938" d="M62.618,50.621c1.313-1.337,2.635-2.664,3.931-4.017.331-.345.528-.271.825.032q1.836,1.877,3.714,3.712c.3.294.386.491.036.827-1.352,1.3-2.679,2.618-4.014,3.932-.294.108-.477-.091-.65-.261q-1.808-1.766-3.575-3.575c-.169-.173-.369-.355-.266-.649" transform="translate(-21.203 -15.71)" fill="#707e87"/>
        <path id="Trazado_153939" data-name="Trazado 153939" d="M61.454,52.8c1.428,1.564,2.919,3.065,4.491,4.485-.671.7-1.358,1.377-2.008,2.093-.306.338-.491.214-.745-.044q-1.879-1.9-3.78-3.782c-.253-.25-.4-.436-.054-.748.717-.649,1.4-1.335,2.1-2.006" transform="translate(-20.04 -17.885)" fill="#5c686f"/>
      </g>
    </g>
  </g>
</svg>
