<svg xmlns="http://www.w3.org/2000/svg" width="295" height="206.001" viewBox="0 0 295 206.001">
  <g id="Grupo_165928" data-name="Grupo 165928" transform="translate(-775 -1642.999)">
    <rect id="Rectángulo_41002" data-name="Rectángulo 41002" width="295" height="140" rx="9" transform="translate(775 1709)" fill="#ffbfc1"/>
    <g id="Grupo_165926" data-name="Grupo 165926" transform="translate(861.304 1643)">
      <g id="Grupo_165933" data-name="Grupo 165933">
        <path id="Trazado_151427" data-name="Trazado 151427" d="M16.885,193.7C15,186.81,13.65,179.83,13.929,172.654c.325-8.378,2.351-16.237,8.154-22.618,7.093-7.8,15.957-10.865,26.4-9.361.311.045.626.071.939.106.026.234.053.468.079.7a27.062,27.062,0,0,0,.256,5.249A13.962,13.962,0,0,0,69.165,157.86c6.425-2.759,9.043-7.995,8.615-14.865l.108-1.557A28.027,28.027,0,0,1,90.3,148.976c6.89,7.331,9.146,16.355,9.048,26.154-.007.754-.231,1.072-1.056,1.188-2.406.339-3.1,1.2-3.106,3.606-.011,4.591,0,9.183,0,13.774H32.394c-.008-4.584,0-9.168-.032-13.752-.018-2.333-1.252-3.72-3.132-3.652-1.858.068-2.876,1.338-2.882,3.652-.011,4.584,0,9.168-.007,13.752Z" fill="#bbd051"/>
        <path id="Trazado_151428" data-name="Trazado 151428" d="M95.185,193.7c0-4.591-.009-9.183,0-13.774,0-2.411.7-3.267,3.1-3.606.825-.116,1.049-.434,1.056-1.188.1-9.8-2.158-18.823-9.048-26.154a28.025,28.025,0,0,0-12.414-7.538.928.928,0,0,1-.006-.324c.09-.114.182-.227.272-.341,15.276-3.127,29.939,6.418,34.015,22.194,2.447,9.467,1.38,18.843-.89,28.172-.207.85-.391,1.706-.586,2.559h-9.456c0-4.281.036-8.563-.021-12.843-.021-1.477-.063-3.051-1.712-4.011-.446,3.079-.927,5.91-1.251,8.76-.313,2.743-1.5,5.308-1.555,8.094Z" fill="#8d9f26"/>
        <path id="Trazado_151429" data-name="Trazado 151429" d="M26.342,193.7q0-6.876.007-13.752c.006-2.314,1.023-3.584,2.882-3.652,1.88-.068,3.113,1.319,3.132,3.652.036,4.584.023,9.168.031,13.752Z" fill="#8ea026"/>
        <path id="Trazado_151430" data-name="Trazado 151430" d="M96.7,193.7c.049-2.786,1.241-5.351,1.554-8.094.324-2.85.805-5.681,1.252-8.76,1.648.96,1.69,2.534,1.711,4.011.057,4.28.02,8.562.021,12.843Z" fill="#828d1f"/>
        <path id="Trazado_151431" data-name="Trazado 151431" d="M49.486,132.428c-2.67-.635-5.364-1.18-8-1.923-6.6-1.858-12.854-4.422-17.7-9.542a15.653,15.653,0,0,1-4.619-11.4c.071-3.266-.258-6.547.287-9.8.221-1.317-.506-1.435-1.534-1.414-2.826.06-5.624.112-8.271-1.294A12.016,12.016,0,0,1,3.472,83.878a11.843,11.843,0,0,1,11.481-9.371c.5-.005,1.007-.014,1.51-.021q1.616,6.306,3.229,12.612c.66-3.314.98-6.612,1.337-9.906.909-8.386,2.1-16.721,4.6-24.811,3.358-10.847,11.7-14.388,21.682-9.177,2.9,1.514,5.71,3.21,8.648,4.643a16.2,16.2,0,0,0,10.426,1.689,29.139,29.139,0,0,0,8.388-3.311c2.973-1.635,5.815-3.529,9.041-4.673a12.987,12.987,0,0,1,4.977,4.76c3.736,6.362,4.635,13.5,5.258,20.687a3.112,3.112,0,0,0-3.541-.232,10.419,10.419,0,0,1-11.572-.017,2.807,2.807,0,0,0-3.947.969,2.858,2.858,0,0,0,.771,3.865c4.895,4.1,14.482,3.611,19.009-.974,1,6.763,1.437,13.587,1.846,20.395.368,6.147.5,12.318.52,18.49.017,6.508-2.891,11.436-7.81,15.159-7.566,5.725-16.478,7.791-25.75,8.488-4.713.354-9.4-.257-14.088-.714m25.388-30.08a13.987,13.987,0,0,0-9.6,3.615c-1.632,1.471-1.856,3.07-.668,4.448s2.747,1.366,4.485-.014c3.779-3,7.46-2.975,11.277.081,1.611,1.29,3.188,1.293,4.362.008s.97-3.045-.574-4.472a13.677,13.677,0,0,0-9.286-3.666M42.622,66.259a15.953,15.953,0,0,0-8.511,2.5c-1.679,1.141-2.132,2.73-1.215,4.188s2.564,1.77,4.29.781A10.279,10.279,0,0,1,48.1,73.707c1.731.994,3.407.705,4.308-.707.956-1.5.463-3.187-1.3-4.33a16.4,16.4,0,0,0-8.488-2.411m45.332,16.25h-.005c0-.819.059-1.644-.013-2.457a2.905,2.905,0,0,0-2.956-2.845,2.8,2.8,0,0,0-2.875,2.715,28.359,28.359,0,0,0-.008,4.911,2.951,2.951,0,0,0,3.033,2.778,3.039,3.039,0,0,0,2.816-3.022c.048-.69.008-1.386.008-2.08m-42.677-.058h.01a25.814,25.814,0,0,0-.016-2.64,2.855,2.855,0,0,0-5.686-.012,38.589,38.589,0,0,0,.015,5.279,2.608,2.608,0,0,0,2.819,2.494,2.656,2.656,0,0,0,2.838-2.482,21.3,21.3,0,0,0,.02-2.639" fill="#ffd3b5"/>
        <path id="Trazado_151432" data-name="Trazado 151432" d="M83.814,41.552c-3.227,1.144-6.068,3.038-9.042,4.672a29.1,29.1,0,0,1-8.387,3.312,16.2,16.2,0,0,1-10.427-1.689c-2.938-1.433-5.747-3.129-8.647-4.643-9.982-5.211-18.326-1.67-21.683,9.177-2.5,8.09-3.691,16.425-4.6,24.811-.357,3.294-.676,6.592-1.336,9.9q-1.615-6.3-3.229-12.611Q14.272,65.42,12.09,56.352a2.768,2.768,0,0,0-.862-1.411c-6.1-5.8-9.164-13.159-10.5-21.273A49.362,49.362,0,0,1,3.67,6.438C5.405,2.2,7.687,1.576,11.388,4.2,17.01,8.195,23.366,8.768,29.969,8.14c6.9-.656,13.227-3.446,19.8-5.327A68.63,68.63,0,0,1,67.983.032a2.588,2.588,0,0,0,.668.291A52.248,52.248,0,0,1,88.125,6.3c4.956,2.8,9.7,5.9,11.945,11.534a1.028,1.028,0,0,0,.988.683,12.859,12.859,0,0,1,6.989,3.4c-2.282,6.856-2.422,13.676.346,20.447a3.5,3.5,0,0,0-.588.923c-1.337,5.373-2.646,10.753-3.961,16.132-.506-1.862-1.015-3.722-1.515-5.585-1.276-4.752-3.524-8.874-7.813-11.556a10.44,10.44,0,0,0-10.7-.726" fill="#52668d"/>
        <path id="Trazado_151433" data-name="Trazado 151433" d="M108.392,42.364c-2.767-6.771-2.627-13.591-.346-20.448l3.033-5.985c2.514-2.792,5.037-5.558,8.3-7.541a28.449,28.449,0,0,1,13.283-4.21,4.727,4.727,0,0,0,1.125.64,21.53,21.53,0,0,1,13.271,9.854,31.028,31.028,0,0,1,4.4,22.956c-1.42,7.683-4.87,14.318-11.73,18.552-2.72,1.679-5.582,3-6.888,6.182-.044.108-.179.176-.256.274a18.873,18.873,0,0,1-8.332,5.871c-1.131-.82-.85-1.651-.038-2.512a26.125,26.125,0,0,0,3.984-5.456c.544-1,.661-1.629-.767-1.931a27.319,27.319,0,0,1-9.869-4.485,29.572,29.572,0,0,1-9.175-11.761m21.212-6.37h-.016c0,.693-.011,1.387,0,2.08.038,2.137,1.159,3.477,2.9,3.476s3.017-1.349,2.836-3.469c-.195-2.277.392-3.252,2.835-3.814A10.171,10.171,0,0,0,145.7,23.774a10.569,10.569,0,0,0-20.24-3.677c-.794,1.874-.364,3.5,1.128,4.264,1.6.819,3.182.166,4.161-1.719.117-.224.214-.458.342-.674a4.661,4.661,0,0,1,5.35-2.182,4.728,4.728,0,0,1,3.37,4.706,4.5,4.5,0,0,1-3.8,4.314,21.022,21.022,0,0,1-2.249.233,4.344,4.344,0,0,0-4.154,4.119c-.068.941-.011,1.89-.011,2.836m5.757,10.589a2.89,2.89,0,1,0-5.768-.031,2.958,2.958,0,0,0,2.973,3.188,2.914,2.914,0,0,0,2.795-3.157" fill="#7bcbf0"/>
        <path id="Trazado_151434" data-name="Trazado 151434" d="M83.814,41.552a10.44,10.44,0,0,1,10.7.726c4.289,2.682,6.537,6.8,7.813,11.556.5,1.863,1.009,3.723,1.515,5.584a8.192,8.192,0,0,0,.08,1.124c1.249,5.93,2.009,11.927,2.691,17.946.291,2.571.123,5.221,1.018,7.717a4.542,4.542,0,0,0-.317,2.375q.387,4.911.767,9.823c.1,2.769.086,5.545.3,8.3.73,9.238-3.874,15.3-11.53,19.54a52.662,52.662,0,0,1-17.085,5.721c-1.486.247-2.049.745-1.958,2.27.126,2.137.047,4.286.055,6.43,0,.148.007.3.011.446a.9.9,0,0,0,.008.324c-.035.519-.072,1.038-.108,1.557-.75.023-1.507-.007-2.25.078a77.46,77.46,0,0,1-17.373-.278c-2.9-.323-5.774-.867-8.661-1.312l-.078-.7q.033-4.176.068-8.353c4.685.457,9.376,1.068,14.088.714,9.272-.7,18.184-2.763,25.749-8.489,4.919-3.722,7.828-8.65,7.811-15.158-.016-6.172-.152-12.343-.52-18.49-.408-6.808-.842-13.633-1.847-20.395A3.626,3.626,0,0,0,94.048,67c-.622-7.185-1.521-14.326-5.258-20.687a12.991,12.991,0,0,0-4.976-4.76" fill="#efb690"/>
        <path id="Trazado_151435" data-name="Trazado 151435" d="M124.257,68.509a18.871,18.871,0,0,0,8.332-5.87c.078-.1.212-.167.256-.275,1.306-3.177,4.168-4.5,6.888-6.181,6.86-4.234,10.31-10.869,11.73-18.552a31.028,31.028,0,0,0-4.4-22.957A21.526,21.526,0,0,0,133.79,4.82a4.762,4.762,0,0,1-1.125-.64,27.643,27.643,0,0,1,10.491,53.7,5.429,5.429,0,0,0-2.882,2.2,20.07,20.07,0,0,1-14.034,8.653c-.65.1-1.378.316-1.983-.229" fill="#50acdb"/>
        <path id="Trazado_151436" data-name="Trazado 151436" d="M108.083,98.4q-.382-4.913-.767-9.824a4.523,4.523,0,0,1,.317-2.375l3.864-11.71a11.947,11.947,0,1,1,1.308,23.854c-1.574.027-3.148.037-4.722.055" fill="#efb690"/>
        <path id="Trazado_151437" data-name="Trazado 151437" d="M111.5,74.494l-3.864,11.711c-.9-2.5-.727-5.146-1.018-7.718-.682-6.018-1.443-12.015-2.691-17.945a7.9,7.9,0,0,1-.08-1.124c1.315-5.378,2.624-10.758,3.961-16.132a3.508,3.508,0,0,1,.588-.922,29.56,29.56,0,0,0,9.174,11.761q-3.036,10.185-6.07,20.369" fill="#263c5e"/>
        <path id="Trazado_151438" data-name="Trazado 151438" d="M111.079,15.931l-3.033,5.985a12.856,12.856,0,0,0-6.988-3.4,1.028,1.028,0,0,1-.988-.682C97.827,12.193,93.081,9.1,88.125,6.3A52.266,52.266,0,0,0,68.651.322a2.574,2.574,0,0,1-.668-.291c13.425-.369,25.986,2.454,37.223,10.123a22.075,22.075,0,0,1,5.873,5.777" fill="#273d5f"/>
        <path id="Trazado_151439" data-name="Trazado 151439" d="M77.88,141.114c0-.149-.008-.3-.011-.446a.47.47,0,0,1,.285.106c-.092.113-.183.227-.274.34" fill="#bbd051"/>
        <path id="Trazado_151440" data-name="Trazado 151440" d="M49.5,141.483c2.886.444,5.761.989,8.661,1.312a77.392,77.392,0,0,0,17.372.277c.744-.084,1.5-.054,2.251-.077.428,6.87-2.19,12.106-8.615,14.865a13.962,13.962,0,0,1-19.413-11.128,27.062,27.062,0,0,1-.256-5.249" fill="#ffd3b5"/>
        <path id="Trazado_151441" data-name="Trazado 151441" d="M74.875,102.348a13.676,13.676,0,0,1,9.285,3.666c1.544,1.427,1.751,3.184.574,4.472s-2.75,1.282-4.362-.008c-3.816-3.056-7.5-3.083-11.277-.082-1.738,1.381-3.3,1.386-4.485.015s-.964-2.978.669-4.448a13.985,13.985,0,0,1,9.6-3.615" fill="#283d5e"/>
        <path id="Trazado_151442" data-name="Trazado 151442" d="M42.623,66.259a16.38,16.38,0,0,1,8.486,2.411c1.766,1.143,2.259,2.831,1.3,4.33-.9,1.412-2.576,1.7-4.307.707a10.281,10.281,0,0,0-10.919.025c-1.725.989-3.379.667-4.29-.78s-.463-3.048,1.215-4.188a15.956,15.956,0,0,1,8.512-2.5" fill="#283d5e"/>
        <path id="Trazado_151443" data-name="Trazado 151443" d="M94.047,67a3.624,3.624,0,0,1,.72,3.611c-4.527,4.584-14.113,5.076-19.008.973a2.858,2.858,0,0,1-.771-3.865,2.806,2.806,0,0,1,3.946-.968,10.423,10.423,0,0,0,11.572.017A3.11,3.11,0,0,1,94.047,67" fill="#283d5e"/>
        <path id="Trazado_151444" data-name="Trazado 151444" d="M87.954,82.509c0,.694.04,1.39-.008,2.08a3.038,3.038,0,0,1-2.817,3.021A2.948,2.948,0,0,1,82.1,84.832a28.448,28.448,0,0,1,.008-4.91,2.8,2.8,0,0,1,2.876-2.715,2.9,2.9,0,0,1,2.954,2.844c.073.813.013,1.638.013,2.458h.006" fill="#283d5e"/>
        <path id="Trazado_151445" data-name="Trazado 151445" d="M45.277,82.451a21.3,21.3,0,0,1-.02,2.639,2.656,2.656,0,0,1-2.838,2.482A2.608,2.608,0,0,1,39.6,85.078a38.589,38.589,0,0,1-.015-5.279,2.855,2.855,0,0,1,5.686.012,25.814,25.814,0,0,1,.016,2.64h-.01" fill="#263c5e"/>
        <path id="Trazado_151446" data-name="Trazado 151446" d="M129.6,35.994c0-.946-.057-1.9.011-2.836a4.344,4.344,0,0,1,4.154-4.119,21.022,21.022,0,0,0,2.249-.233,4.5,4.5,0,0,0,3.8-4.314,4.728,4.728,0,0,0-3.37-4.706,4.661,4.661,0,0,0-5.35,2.182c-.128.217-.226.451-.342.674-.979,1.885-2.563,2.539-4.161,1.719-1.492-.765-1.922-2.39-1.128-4.264a10.569,10.569,0,0,1,20.24,3.677,10.171,10.171,0,0,1-7.547,10.493c-2.443.562-3.03,1.537-2.835,3.814.181,2.12-1.107,3.469-2.836,3.469s-2.857-1.339-2.9-3.476c-.013-.693,0-1.387,0-2.08h.016" fill="#253d5f"/>
        <path id="Trazado_151447" data-name="Trazado 151447" d="M135.361,46.583a2.914,2.914,0,0,1-2.795,3.157,3.126,3.126,0,0,1-.064-6.24,2.911,2.911,0,0,1,2.859,3.083" fill="#273d5f"/>
      </g>
    </g>
  </g>
</svg>
