<svg xmlns="http://www.w3.org/2000/svg" xmlns:xlink="http://www.w3.org/1999/xlink" width="145" height="145" viewBox="0 0 145 145">
  <defs>
    <clipPath id="clip-path">
      <rect id="Rectángulo_41284" data-name="Rectángulo 41284" width="95.013" height="95.001" fill="none"/>
    </clipPath>
  </defs>
  <g id="Grupo_166161" data-name="Grupo 166161" transform="translate(-885 -1354)">
    <circle id="Elipse_4880" data-name="Elipse 4880" cx="72.5" cy="72.5" r="72.5" transform="translate(885 1354)" fill="#fff"/>
    <g id="Grupo_166160" data-name="Grupo 166160" transform="translate(910 1379)">
      <g id="Grupo_166159" data-name="Grupo 166159" clip-path="url(#clip-path)">
        <path id="Trazado_153909" data-name="Trazado 153909" d="M35.468,33.4c-.544-1.455-.322-2.085.983-2.953a29.773,29.773,0,0,1,8.534-4.114c.484-.133.613-.308.385-.822-3.09-6.967,1.583-13.3,7.1-14.808a3.048,3.048,0,0,0,2.5-2.487A11.022,11.022,0,0,1,64,.188c.147-.029.312-.013.385-.189h2.783a14.977,14.977,0,0,1,4.869,1.792,11,11,0,0,1,2.7,2.376.821.821,0,0,0,1.091.288A11.234,11.234,0,0,1,88.786,8.137a10.974,10.974,0,0,1,1.829,10.819A1.16,1.16,0,0,0,91,20.427a10.989,10.989,0,0,1,3.566,11.64,11.043,11.043,0,0,1-8.83,8.267c-.607.136-1.008.269-1.134,1.029-1,6.01-7.6,11.383-14.87,8.439-.714-.29-.928-.213-1.158.559a34.509,34.509,0,0,1-7.4,12.589A85.852,85.852,0,0,1,45.2,76.983,131.4,131.4,0,0,1,18.884,91.36,48.838,48.838,0,0,1,6.575,94.912a11.154,11.154,0,0,1-2.773,0,3.77,3.77,0,0,1-3.61-3.156C.168,91.634.14,91.521,0,91.481V87.955a29.517,29.517,0,0,0,.981-4.084,104.116,104.116,0,0,1,9.332-21.69,120.36,120.36,0,0,1,15.118-21.8c1.063-1.205,1.708-1.344,3.053-.617a1.679,1.679,0,0,1,.389,2.565,14.98,14.98,0,0,1-1.881,2.289c-.558.6-.518.972.061,1.514,1.173,1.1,2.3,2.251,3.416,3.4a2.252,2.252,0,0,1,.8,2.158,2.034,2.034,0,0,1-3.431,1.024c-1.151-1.03-2.2-2.175-3.3-3.26-.769-.756-.845-.762-1.473.092a130.314,130.314,0,0,0-9.336,14.595A122.841,122.841,0,0,0,6.949,78.464a55.645,55.645,0,0,0-2.5,7.859A20.159,20.159,0,0,0,3.959,89.9c-.042.951.181,1.175,1.125,1.154a22.408,22.408,0,0,0,5.992-1.139c2.247-.682,4.47-1.438,6.646-2.329.841-.345.872-.44.208-1.121-.647-.665-1.33-1.294-1.955-1.98a2.29,2.29,0,0,1-.753-1.828,2.1,2.1,0,0,1,1.319-1.77,1.79,1.79,0,0,1,2.055.4c1.15,1.079,2.261,2.2,3.348,3.34a1.337,1.337,0,0,0,1.8.3,129.746,129.746,0,0,0,15.6-8.73A91.162,91.162,0,0,0,55.36,63.343c.7-.726.708-.717-.016-1.446-1.221-1.227-2.457-2.439-3.666-3.679a2.487,2.487,0,0,1-.877-1.965,2.058,2.058,0,0,1,2.929-1.693,5.425,5.425,0,0,1,1.394,1.067c1.091,1.095,2.188,2.184,3.277,3.281.337.341.62.469.979.011,2.793-3.56,5.19-7.319,5.917-11.9a13.107,13.107,0,0,0-1.788-9.26,17.6,17.6,0,0,0-7.866-7.1c-4.216-1.853-8.392-1.346-12.472.534a31.269,31.269,0,0,0-4.691,2.62,2.239,2.239,0,0,1-2.186.386,1.14,1.14,0,0,1-.826-.8" transform="translate(0 0)"/>
        <path id="Trazado_153910" data-name="Trazado 153910" d="M37.288,47.8c1.134.951,1.725,1.006,2.972.17a26.036,26.036,0,0,1,7.625-3.7c5.886-1.6,10.825.1,15,4.372,3.142,3.212,4.967,6.963,4.623,11.572A20.322,20.322,0,0,1,64.552,68.9a44.633,44.633,0,0,1-3.317,4.8c-.409.533-.63.447-1.036.028-1.333-1.376-2.683-2.738-4.064-4.066a1.845,1.845,0,0,0-3.107.329,1.892,1.892,0,0,0,.54,2.341c1.373,1.382,2.726,2.785,4.141,4.12.518.489.461.725-.013,1.2A106.437,106.437,0,0,1,34.823,94.73c-3.1,1.786-6.282,3.426-9.5,4.991a.97.97,0,0,1-1.352-.225c-1.076-1.152-2.215-2.244-3.332-3.356a2.028,2.028,0,0,0-1.8-.757,1.847,1.847,0,0,0-1,3.185c.849.9,1.731,1.766,2.619,2.626.357.346.424.52-.128.734-3.969,1.543-7.929,3.145-12.2,3.647-2.715.319-2.8.306-2.484-2.425A46.655,46.655,0,0,1,9.534,90.359,129.946,129.946,0,0,1,24.968,63.431c.451-.605.686-.642,1.2-.09,1.14,1.218,2.344,2.376,3.532,3.549a1.856,1.856,0,0,0,2.043.492,1.757,1.757,0,0,0,1.16-1.445,2.018,2.018,0,0,0-.726-1.807c-1.241-1.25-2.47-2.515-3.747-3.728-.472-.447-.594-.732-.072-1.241a27.263,27.263,0,0,0,1.827-2.1,1.968,1.968,0,0,0,.118-2.9,38.379,38.379,0,0,1,2.875-2.758c.259-.1.475.055.707.12a1.587,1.587,0,0,0,2.128-2.011c-.048-.229-.23-.452-.042-.7L37.288,47.8" transform="translate(-1.82 -14.399)" fill="#fe8144"/>
        <path id="Trazado_153911" data-name="Trazado 153911" d="M49.346,51.073c.579,1.1.52,1.962-.176,2.608s-1.512.641-2.617-.021c-.651-1.144-.615-2.008.113-2.677s1.607-.636,2.68.09" transform="translate(-15.195 -16.65)" fill="#010101"/>
        <path id="Trazado_153912" data-name="Trazado 153912" d="M93.139,45.792a13.183,13.183,0,0,0-.5-3.474.752.752,0,0,1,.285-.948,19.027,19.027,0,0,1,7.637-3.806,3,3,0,0,0,1.289-.485,1.8,1.8,0,0,0,.539-2.166,1.871,1.871,0,0,0-2.139-1.065,20.026,20.026,0,0,0-7.707,3.244c-1.527,1-1.508,1.026-2.5-.462-.035-.051-.072-.1-.105-.153-.351-.538-1.121-1-1.037-1.563.09-.6.908-.94,1.423-1.374A52.492,52.492,0,0,0,99.3,23.829a1.9,1.9,0,0,0-.233-2.8,1.88,1.88,0,0,0-2.734.6,52.264,52.264,0,0,1-9.621,10.115c-.5.4-.782.382-1.219-.013A12.142,12.142,0,0,0,83.093,30c-.614-.326-.68-.607-.247-1.191a22.432,22.432,0,0,0,3.5-7,12.417,12.417,0,0,0,.3-1.448A1.9,1.9,0,0,0,85.264,18a1.839,1.839,0,0,0-2.2,1.6,19.573,19.573,0,0,1-3.739,7.775,1.018,1.018,0,0,1-1.3.463,12.513,12.513,0,0,0-4.126-.452.994.994,0,0,1-1.067-.651c-2.668-5.315.576-10.789,6.553-11.024,1.768-.07,2.364-.665,2.429-2.428A7.794,7.794,0,0,1,96.283,9.32c1.032,1.608,1.738,1.79,3.453.892A7.787,7.787,0,0,1,110.321,20.76c-.923,1.759-.741,2.439.936,3.512a7.834,7.834,0,0,1,3.459,8.67,7.926,7.926,0,0,1-7.359,5.769c-1.947.075-2.492.628-2.553,2.589a7.686,7.686,0,0,1-6.17,7.354A8.259,8.259,0,0,1,93.467,47.6a.564.564,0,0,1-.332-.6c.015-.4,0-.8,0-1.205" transform="translate(-23.698 -1.823)" fill="#00c46e"/>
        <path id="Trazado_153913" data-name="Trazado 153913" d="M77.692,53.525a2.167,2.167,0,0,1,1.435.663c1.7,1.7,3.421,3.392,5.1,5.117a1.822,1.822,0,0,1,.113,2.72,1.862,1.862,0,0,1-2.728-.12c-1.724-1.682-3.422-3.393-5.111-5.11a1.828,1.828,0,0,1-.51-2.112,1.874,1.874,0,0,1,1.7-1.159" transform="translate(-25.002 -17.645)"/>
        <path id="Trazado_153914" data-name="Trazado 153914" d="M61.4,96.212a2,2,0,0,1-1.344-.731c-1.553-1.546-3.111-3.088-4.647-4.65a1.869,1.869,0,1,1,2.623-2.606q2.375,2.339,4.714,4.713a1.846,1.846,0,0,1,.478,2.266A1.773,1.773,0,0,1,61.4,96.212" transform="translate(-18.02 -28.835)"/>
        <path id="Trazado_153915" data-name="Trazado 153915" d="M29.311,97.249a1.787,1.787,0,0,1,1.067-1.792,1.733,1.733,0,0,1,2.047.363c.942.887,1.843,1.816,2.759,2.729.524.522,1.069,1.026,1.561,1.576a1.861,1.861,0,0,1,.032,2.657,1.813,1.813,0,0,1-2.581-.007c-1.495-1.422-2.936-2.9-4.379-4.376a1.545,1.545,0,0,1-.5-1.15" transform="translate(-9.662 -31.406)"/>
        <path id="Trazado_153916" data-name="Trazado 153916" d="M60.858,68.274a1.864,1.864,0,0,1-1.161-.654c-1.034-1.018-2.071-2.032-3.075-3.079a1.836,1.836,0,0,1-.135-2.788A1.818,1.818,0,0,1,59.2,61.9c1.091,1.046,2.156,2.122,3.206,3.21a1.768,1.768,0,0,1,.383,2.127,1.857,1.857,0,0,1-1.934,1.033" transform="translate(-18.431 -20.18)"/>
        <path id="Trazado_153917" data-name="Trazado 153917" d="M43.267,107.41a1.958,1.958,0,0,1,1.874,1.9,1.85,1.85,0,1,1-3.7-.088,1.839,1.839,0,0,1,1.825-1.812" transform="translate(-13.662 -35.409)" fill="#010100"/>
        <path id="Trazado_153918" data-name="Trazado 153918" d="M116.411,23.447a1.82,1.82,0,0,1-1.867,1.858,1.872,1.872,0,0,1-1.811-1.845A1.931,1.931,0,0,1,114.64,21.6a1.8,1.8,0,0,1,1.771,1.848" transform="translate(-37.164 -7.12)" fill="#000100"/>
      </g>
    </g>
  </g>
</svg>
