<svg xmlns="http://www.w3.org/2000/svg" xmlns:xlink="http://www.w3.org/1999/xlink" width="145" height="145" viewBox="0 0 145 145">
  <defs>
    <clipPath id="clip-path">
      <rect id="Rectángulo_41282" data-name="Rectángulo 41282" width="104.653" height="83.135" fill="none"/>
    </clipPath>
  </defs>
  <g id="Grupo_166155" data-name="Grupo 166155" transform="translate(-255 -1354)">
    <circle id="Elipse_4878" data-name="Elipse 4878" cx="72.5" cy="72.5" r="72.5" transform="translate(255 1354)" fill="#fff"/>
    <g id="Grupo_166154" data-name="Grupo 166154" transform="translate(275 1385)">
      <g id="Grupo_166153" data-name="Grupo 166153" clip-path="url(#clip-path)">
        <path id="Trazado_153884" data-name="Trazado 153884" d="M48.647,14.856c.071-.226.126-.459.216-.678A1.981,1.981,0,0,1,51,12.973a1.879,1.879,0,0,1,1.71,1.633,5.592,5.592,0,0,1,.05,1.12q0,26.722,0,53.444c0,2.249-.647,2.883-2.936,2.883-11.82,0-23.639-.06-35.458.036A35.568,35.568,0,0,1,3.7,70.747a12.566,12.566,0,0,0-1.389-.321A2.885,2.885,0,0,1,0,68.81V61.451a43.922,43.922,0,0,0,1.6-4.128c1.92-4.333,5.288-6.662,9.971-6.629a20.409,20.409,0,0,0,8.76-1.863c3.307-1.494,6.7-2.8,10.066-4.159a1,1,0,0,0,.737-1.195q-.855-13.866-1.653-27.735c-.113-1.913.779-2.976,2.339-2.76,1.085.149,1.52.91,1.739,1.867a3.294,3.294,0,0,1,.435,1.865c.086,2.857.32,5.706.481,8.559.163,2.886.345,5.772.516,8.657s.43,5.771.464,8.661a1.933,1.933,0,0,0,1.4,2.069A25.33,25.33,0,0,0,44.8,46.419c.886.03,1.753.243,2.646.2.588-.03.875-.28.879-.871,0-.375.009-.749.009-1.124q0-14,.007-28a2.508,2.508,0,0,1,.308-1.768" transform="translate(0 -4.965)"/>
        <path id="Trazado_153885" data-name="Trazado 153885" d="M0,124.089a2.579,2.579,0,0,1,2.678-1.576c6.326.022,12.651.006,18.978.014,1.471,0,2.249.518,2.493,1.59a1.938,1.938,0,0,1-1.653,2.436,6.278,6.278,0,0,1-.914.057c-6.292,0-12.583-.016-18.875.019A2.618,2.618,0,0,1,0,125.111Z" transform="translate(0 -46.957)"/>
        <path id="Trazado_153886" data-name="Trazado 153886" d="M115.062,2.5c-.044-1.346.488-2.2,1.508-2.433,1.176-.263,2.043.266,2.55,1.623q4.9,13.114,9.775,26.237a12.556,12.556,0,0,0,.937,1.917q3.9,6.749,7.805,13.5c2,3.463,1.241,6.307-2.247,8.324q-15.883,9.182-31.771,18.355a23.771,23.771,0,0,1-4.709,1.6c-1.064.348-2.137.677-3.217.973a2.113,2.113,0,0,1-2.751-1.121A28.511,28.511,0,0,1,90.228,66.7c-2.054-5.843-2.538-12.227,4.537-16.234a17.182,17.182,0,0,0,5.607-4.918c2.381-3.275,4.9-6.448,7.393-9.642a1.185,1.185,0,0,0,.181-1.433q-5.113-11.377-10.162-22.784c-.069-.155-.14-.309-.207-.465-.58-1.365-.369-2.347.636-2.961.95-.582,1.982-.295,2.905.807a10.36,10.36,0,0,1,1.726,3.328c2.979,6.569,5.867,13.178,8.815,19.761a1.155,1.155,0,0,0,1.425.78,29.26,29.26,0,0,0,10.677-3.879c.689-.4.621-.859.393-1.452-1.6-4.162-3.106-8.357-4.684-12.526-1.385-3.66-2.71-7.343-4.109-11a5.631,5.631,0,0,1-.3-1.585" transform="translate(-34.072 0)"/>
        <path id="Trazado_153887" data-name="Trazado 153887" d="M69.5,16.035q.01,15.682.031,31.363c0,.517-.125.7-.677.7a30.113,30.113,0,0,1-12.132-2.313c-.644-.279-.629-.714-.658-1.211q-.323-5.352-.635-10.7-.5-8.513-1-17.027c-.015-.271-.008-.543-.011-.815l15.087.006" transform="translate(-20.857 -6.144)" fill="#fecfba"/>
        <path id="Trazado_153888" data-name="Trazado 153888" d="M122.658,4.051q4.723,12.681,9.462,25.356c.241.64.238.946-.431,1.336a29.822,29.822,0,0,1-11.529,4.094c-.511.061-.714-.044-.914-.5q-5.251-11.866-10.531-23.718,3.91-1.708,7.821-3.416c1.769-.777,3.531-1.57,5.3-2.352.377-.167.762-.318.826-.8" transform="translate(-41.668 -1.553)" fill="#fecfba"/>
        <path id="Trazado_153889" data-name="Trazado 153889" d="M142.4,118.966c-3.265,0-6.53.024-9.794-.01a2.016,2.016,0,0,1-2.059-2.8,2.327,2.327,0,0,1,2.445-1.28q4.948.007,9.9,0h8.774a7.434,7.434,0,0,1,.916.022,2.1,2.1,0,0,1,2.029,2.127,2.035,2.035,0,0,1-2.208,1.929c-3.333.027-6.665.009-10,.009" transform="translate(-49.967 -44.03)"/>
        <path id="Trazado_153890" data-name="Trazado 153890" d="M93.664,132.252c-3.3,0-6.6.017-9.9-.01a2.021,2.021,0,0,1-1.043-3.834,4.021,4.021,0,0,1,1.7-.247q9.283.006,18.567.007a6.229,6.229,0,0,1,1.211.116,1.832,1.832,0,0,1,1.557,1.756,1.881,1.881,0,0,1-1.2,2.03,3.99,3.99,0,0,1-1.5.175c-3.128.014-6.257.007-9.385.006" transform="translate(-31.268 -49.122)"/>
        <path id="Trazado_153891" data-name="Trazado 153891" d="M51.3,126.609a2.038,2.038,0,0,1-1.9-2.106,2.034,2.034,0,0,1,4.064.165,2.047,2.047,0,0,1-2.169,1.941" transform="translate(-18.936 -46.988)" fill="#010101"/>
        <path id="Trazado_153892" data-name="Trazado 153892" d="M22.988,75.142c2.437-1.109,2.436-1.108,4.229.681.506.505.99,1.037,1.538,1.492a2.009,2.009,0,0,0,2.826-2.853c-.611-.679-1.343-1.249-2.016-1.862.167-.184.2-.25.253-.276,1.61-.793,1.61-.792,2.879.479.577.578,1.143,1.168,1.734,1.733,1.036.991,2.216,1.075,3.077.24.909-.881.832-2.058-.218-3.154-.424-.442-.87-.863-1.3-1.3-.107-.11-.318-.2-.223-.4a.437.437,0,0,1,.53-.2,4.5,4.5,0,0,1,.761.282,32.32,32.32,0,0,0,13.682,2.733c.665,0,.943.095.931.86-.047,3.1-.037,6.2,0,9.293.006.627-.16.8-.792.8-12.664-.019-25.328,0-37.991-.031-1.676,0-3.229-.76-4.855-1.1-.36-.076-.226-.314-.17-.555.782-3.386,3.42-5.333,6.892-5.579,2.657-.189,4.755.392,6.315,2.623a2.517,2.517,0,0,0,1.446,1.076,1.933,1.933,0,0,0,2.173-.734,1.837,1.837,0,0,0,0-2.361c-.5-.639-1.086-1.2-1.7-1.877" transform="translate(-2.986 -26.714)" fill="#72d7fe"/>
        <path id="Trazado_153893" data-name="Trazado 153893" d="M6.627,97.051a3.982,3.982,0,0,1,.581.11c3.1,1.14,6.319,1.107,9.558,1.1,11.132-.039,22.265-.015,33.4-.014a1.15,1.15,0,0,1,1.024,1.741c-.189.395-.541.2-.809.2-2.383.018-4.766.01-7.149.01-10.112,0-20.223.016-30.333-.014-2.056-.006-3.967-.872-5.967-1.237-.314-.057-.305-.315-.3-.559,0-.407,0-.813,0-1.336" transform="translate(-2.54 -37.198)" fill="#fcfcfc"/>
        <path id="Trazado_153894" data-name="Trazado 153894" d="M113.914,58.279a.754.754,0,0,1,.759-.59,33,33,0,0,0,13.972-4.724c.377-.227.569-.206.794.189,1.634,2.863,3.272,5.722,4.942,8.564.38.646-.186.691-.471.858-3.288,1.917-6.588,3.813-9.883,5.716-6.856,3.959-13.745,7.864-20.55,11.908a24.827,24.827,0,0,1-7.468,2.833c-1.224-3.986-.047-6.706,3.413-8.923,1.993-1.277,3.848-1.759,6.03-.757a4.535,4.535,0,0,0,1.383.324,2,2,0,0,0,.994-3.864,11.315,11.315,0,0,0-1.167-.362c-.357-.105-.716-.2-1.074-.307a.7.7,0,0,1,.051-.215c1.427-2,1.428-2,3.786-1.381.657.173,1.3.383,1.966.537A2.08,2.08,0,0,0,114,66.726a2.017,2.017,0,0,0-1.449-2.541c-.7-.245-1.439-.4-2.161-.588-.4-.1-.451-.244-.2-.626.54-.839,1.068-1.358,2.2-.87a18.169,18.169,0,0,0,3.042.834,2.069,2.069,0,0,0,2.5-1.388,2.041,2.041,0,0,0-1.294-2.46c-.437-.177-.909-.267-1.364-.4s-.906-.271-1.358-.406" transform="translate(-36.618 -20.245)" fill="#72d7fe"/>
        <path id="Trazado_153895" data-name="Trazado 153895" d="M138.437,75.142c-.021.651-.54.967-1.082,1.28q-6.665,3.838-13.325,7.685-9.087,5.246-18.173,10.493c-1.82,1.048-3.9,1.362-5.875,1.937-.823.24-.84-.746-1.085-1.2-.278-.509.377-.418.634-.469a26.605,26.605,0,0,0,8.17-3.533c9.8-5.716,19.631-11.364,29.452-17.036.783-.452,1.282-.151,1.285.838" transform="translate(-37.879 -28.401)" fill="#fefefe"/>
      </g>
    </g>
  </g>
</svg>
