<svg xmlns="http://www.w3.org/2000/svg" xmlns:xlink="http://www.w3.org/1999/xlink" width="295" height="206" viewBox="0 0 295 206">
  <defs>
    <clipPath id="clip-path">
      <rect id="Rect치ngulo_41152" data-name="Rect치ngulo 41152" width="213.006" height="165.571" fill="none"/>
    </clipPath>
  </defs>
  <g id="Grupo_165927" data-name="Grupo 165927" transform="translate(-460 -1643)">
    <rect id="Rect치ngulo_41001" data-name="Rect치ngulo 41001" width="295" height="140" rx="9" transform="translate(460 1709)" fill="#ffbfc1"/>
    <g id="Grupo_165924" data-name="Grupo 165924" transform="translate(503.497 1643)">
      <g id="Grupo_165923" data-name="Grupo 165923" clip-path="url(#clip-path)">
        <path id="Trazado_151402" data-name="Trazado 151402" d="M144.916,31.585c4.315,1.474,8.838-.31,11.559-4.559a16.92,16.92,0,0,1,19.234-7.464,13.178,13.178,0,0,1,6.543,3.815c3.466,3.882,7.855,4.761,12.663,3.79,5.772-1.167,10.821-.217,15.046,4.109,1.488,1.524,2.1,3.507,3.045,5.315v4.161c-1.341,4.564-4.329,7.662-8.392,10.032-4.3,2.507-6.65,6.122-6.224,11.478.6,7.6-3.078,13.233-9.055,17.565a2.017,2.017,0,0,1-1.673.645c-4.524,0-9.051.265-13.566-.141-1.276-.41-1.151-1.61-1.38-2.569a22.605,22.605,0,0,0-13.48-16.306,19.14,19.14,0,0,0-5.394-1.417c-12.574-2.128-23.4,7.741-25.094,18.143-.13.8-.106,1.707-1.078,2.091-3.559.511-7.133.182-10.7.216-1.785.018-3.572-.055-5.357-.012-2.57-.039-5.15.242-7.708-.212-1.07-.424-1.3-1.426-1.623-2.361a17.34,17.34,0,0,1,2.858-14.658,17.707,17.707,0,0,1,6.288-5.365,19,19,0,0,1,4.434-1.611,8.739,8.739,0,0,0,6.2-4.956c1.1-1.876,1.162-3.984,1.375-6.06A17.693,17.693,0,0,1,142.207,30.63a9.357,9.357,0,0,1,2.709.955" fill="#4fe167"/>
        <path id="Trazado_151403" data-name="Trazado 151403" d="M103.539,79.785l7.948.133c13.437.216,23.7,13.257,24.795,24.943a28.87,28.87,0,0,1-6.705,21.826,49.251,49.251,0,0,1-28.764,17.431,39.794,39.794,0,0,1-8.258.833c-14.351-.037-28.7-.008-43.054-.033a4.1,4.1,0,0,0-3.4,1.13c-.276-2.023-2-2.626-3.457-3.427a92.03,92.03,0,0,1-23.228-17.808c-7.76-8.333-13.739-17.788-16.63-28.938C.6,87.447,6.572,79.882,15.27,79.842c1,0,2.077.354,3.016-.334a2.238,2.238,0,0,1,1.392-.323c9.768.064,19.536-.079,29.3.069,2.518-.085,5.037-.065,7.556,0,2.761-.1,5.523-.029,8.284-.015,2.082-.049,4.163-.03,6.245-.006,1.549.033,3.1-.066,4.648.021,2.2-.055,4.389-.063,6.584,0q2.127-.073,4.256,0c2.2-.067,4.4-.046,6.607-.023,2.713.029,5.427-.087,8.14.031a4.121,4.121,0,0,1,2.237.522" fill="#fde09c"/>
        <path id="Trazado_151404" data-name="Trazado 151404" d="M46.1,146.049c-.154-1.607.806-1.7,2.078-1.7,14.836.028,29.673.062,44.509-.007a45.512,45.512,0,0,0,27.865-9.757c6.283-4.782,11.726-10.418,14.063-18.262,2.843-9.544,1.045-18.278-5.069-26.121a25.574,25.574,0,0,0-17.519-10,1.743,1.743,0,0,1-.539-.287l16.58-.082a3.544,3.544,0,0,1,2.356-.637c9.343.013,18.686-.092,28.028.046,4.173-.111,8.347-.041,12.521-.044a3.749,3.749,0,0,1,2.539.611q7.912.006,15.824.014c2.827.209,5.687-.33,8.489.315a12.7,12.7,0,0,1,9.569,16.333c-4.166,13.964-12.353,25.238-23.268,34.69a96.37,96.37,0,0,1-18.51,12.568,2.3,2.3,0,0,0-1.362,2.061c-1.463,12.247-9.971,19.773-22.275,19.774q-37.116,0-74.233,0c-10.7,0-19.017-6.653-21.347-17.052a24.038,24.038,0,0,1-.3-2.465" fill="#dbad42"/>
        <path id="Trazado_151405" data-name="Trazado 151405" d="M49.178,79.776q-14.643.041-29.287.065a7.915,7.915,0,0,1-1.606-.333c-5.868-2.869-8.586-7.585-8.174-14.083.19-2.985-1.392-4.959-3.58-6.613-.826-.624-1.746-1.123-2.589-1.726C.818,54.852-.64,51.255.264,48.077a9.26,9.26,0,0,1,8.059-6.5,15.039,15.039,0,0,1,3.922.227c3.442.622,6.588.171,9.131-2.587a12.53,12.53,0,0,1,3.392-2.646c5.269-2.578,11.963.065,14.7,4.27,2.417,3.72,4.379,4.329,8.658,3.424,1.464-.31,3-.809,4.317.454.293.683-.093,1.22-.437,1.723a34.5,34.5,0,0,0-4.9,11.169c-.118.468-.219.963-.785,1.123-.78-.375-.841-1.223-1.2-1.867-2.223-3.965-6.464-4.66-9.694-1.508-2.971,2.9-5.968,5.778-8.786,8.825A5.885,5.885,0,1,0,35.06,72.4c3.262-2.989,6.418-6.1,9.371-9.4.4-.452.591-1.607,1.631-.728.571,1.886.112,3.836.383,5.745a46.408,46.408,0,0,0,2.424,9.585c.256.69.69,1.379.309,2.17" fill="#4fe167"/>
        <path id="Trazado_151406" data-name="Trazado 151406" d="M52.385,44.888c-1.713-.8-3.4-.25-5.078.128-3.063.69-6.021-.2-7.628-2.812-3.34-5.424-8.123-6.914-14.081-5.651a4.314,4.314,0,0,1-.829.02,14.3,14.3,0,0,1,10.747-3.357c6.61.564,9.228-.937,12.071-6.933a17.1,17.1,0,0,1,19.423-9.07c.468.111.94.2,1.41.307,1.055-.055,1.56.787,2.181,1.39,2.375,2.307,4.615,4.754,7.067,6.976a6.251,6.251,0,0,0,7.836.282c2.214-1.752,2.739-4.637,1.357-7.473-.268-.55-.691-1.049-.544-1.729,4.649-3.4,9.728-3.664,15.063-2.066.721.544.331,1.277.289,1.923-.442,6.765.427,13.248,3.728,19.314a31.917,31.917,0,0,0,13.156,13.18c1.314.708,2.9,1.009,3.815,2.373a7.7,7.7,0,0,1-4.957,4.628c-1.928.715-3.915,1.271-5.877,1.9-.917-.506-.932-1.485-1.188-2.321C106.29,42.62,95.883,33.965,82.085,32.518c-10.051-1.054-18.6,2.24-25.9,9.119-1.207,1.137-1.972,2.834-3.8,3.251" fill="#00af4b"/>
        <path id="Trazado_151407" data-name="Trazado 151407" d="M144.916,31.585A17.2,17.2,0,0,0,128.277,36.6a16.643,16.643,0,0,0-4.414,8.732c-.89.542-1.6-.063-2.307-.417a27.3,27.3,0,0,1-13.625-32.031,26.064,26.064,0,0,1,4.079-8.342c.84-1.1,1.544-2.532,3.28-2.541l12.779,12.636c.2.722-.337,1.149-.662,1.659a8.038,8.038,0,0,0,.719,9.647,8.279,8.279,0,0,0,9.525,1.9c.848-.394,1.552-1.248,2.655-.91l4.61,4.651" fill="#fe5368"/>
        <path id="Trazado_151408" data-name="Trazado 151408" d="M115.29,2c-4.4,3.423-6.44,8.269-7.426,13.458-1.8,9.459.9,17.736,7.723,24.536a22.527,22.527,0,0,0,8.276,5.337c-.195,2.19.087,4.493-1.5,6.356C106.975,45.247,99.038,31.334,101.38,14.9a37.144,37.144,0,0,1,4.664-12.044C108.012-.41,113.031-1.115,115.29,2" fill="#c4324f"/>
        <path id="Trazado_151409" data-name="Trazado 151409" d="M86.316,16.966c2.06,2.466,2.576,5.147.963,8.023a6.306,6.306,0,0,1-6.77,2.9,6.834,6.834,0,0,1-3.692-2.125c-2.785-2.764-5.6-5.5-8.4-8.249-2.632-3.452-2.808-6.627-.508-9.2a6.411,6.411,0,0,1,9.408-.229c3.031,2.924,6,5.913,9,8.873" fill="#fe7e40"/>
        <path id="Trazado_151410" data-name="Trazado 151410" d="M140.306,26.933c-2,1.229-3.977,2.362-6.515,2.207a8.008,8.008,0,0,1-7.441-5c-1.333-3.147-1.283-6.328,1.358-9a3.786,3.786,0,0,0,.361-.5,154.308,154.308,0,0,1,12.237,12.3" fill="#fe7c8b"/>
        <path id="Trazado_151411" data-name="Trazado 151411" d="M86.529,79.8l-4.142.008a7.351,7.351,0,0,1,1.818-8.852,7.841,7.841,0,0,0,.057-11.738,6.487,6.487,0,0,1-2.5-5.956,25.729,25.729,0,0,0-.058-4.774c-.22-1.892-1.371-3.21-2.7-3.2-1.407.012-2.607,1.466-2.7,3.4-.1,2.075-.046,4.156-.028,6.234a3.869,3.869,0,0,1-1.668,3.355c-4.811,3.7-4.9,9.521-.163,13.2a4.093,4.093,0,0,1,1.821,3.9c-.144,1.48.443,3.06-.593,4.42l-4.426-.019c-.129-3.114-2.48-4.732-4.476-6.56a2.12,2.12,0,0,0-3.142.154A2.411,2.411,0,0,0,62.97,76.5c.556,1.15,1.906,1.834,1.9,3.3l-8.318-.013a17,17,0,0,1-4.472-10.069c-.9-6.741-.221-13.34,3.7-19.158,6.143-9.123,14.707-13.888,25.786-12.751,10.807,1.109,18.409,7.031,22.768,17.031a25.737,25.737,0,0,1,1.683,5.771,3.787,3.787,0,0,1-.314,2.62,18.265,18.265,0,0,0-2.972,14.515,3.7,3.7,0,0,1-1.219,2.053l-8.352.008c-.1-1.107.809-1.7,1.3-2.5.994-1.625.926-3.159-.249-4.114-1.2-.973-2.522-.679-3.982.826C88.6,75.7,86.986,77.376,86.529,79.8" fill="#fe5368"/>
        <path id="Trazado_151412" data-name="Trazado 151412" d="M105.7,63.23c-.408-11.784-10.46-22.651-22.07-24.65C69.3,36.112,56.283,45.574,53.189,57.914c-1.815,7.242-1.162,14.263,2.839,20.771a10.88,10.88,0,0,1,.522,1.1l-7.372-.011a37.243,37.243,0,0,1-3.435-17.76,3.2,3.2,0,0,1,.479-3.442,40.823,40.823,0,0,1,6.162-13.686,34.917,34.917,0,0,1,18.367-12.11,33.275,33.275,0,0,1,40.321,23.63c.157.6.308,1.2.462,1.807A25.849,25.849,0,0,0,105.7,63.23" fill="#c4324f"/>
        <path id="Trazado_151413" data-name="Trazado 151413" d="M158.492,79.794l-30.426.042c.863-12.42,13.357-22.6,25.858-20.276,5.55,1.906,8.041,6.036,7.309,11.964-.365,2.952-.731,5.876-2.741,8.27" fill="#fe5368"/>
        <path id="Trazado_151414" data-name="Trazado 151414" d="M171.6,40.718c2.074,0,4.149-.035,6.224.006a6.4,6.4,0,0,1,.531,12.787c-4.554.216-9.134.213-13.688,0a6.4,6.4,0,0,1,.5-12.785c2.143-.043,4.288-.008,6.433-.01" fill="#fe7e40"/>
        <path id="Trazado_151415" data-name="Trazado 151415" d="M158.492,79.794c.8-2.755,1.957-5.362,2.2-8.332.436-5.409-1.241-8.945-6.075-11.463-.241-.125-.46-.292-.688-.439,10.127,1.06,18.86,10.089,19.585,20.252l-15.018-.018" fill="#c4324f"/>
        <path id="Trazado_151416" data-name="Trazado 151416" d="M101.507,79.8a2.851,2.851,0,0,1,1.219-2.053l.812,2.04-2.031.013" fill="#c14053"/>
        <path id="Trazado_151417" data-name="Trazado 151417" d="M75.679,79.8c.009-.762-.013-1.526.034-2.286.16-2.59-.146-4.6-2.62-6.52-4.185-3.255-3.442-10.051.991-13a3.206,3.206,0,0,0,1.654-3.224c-.123-2.072-.052-4.157-.025-6.236.027-2.036,1.54-3.912,3.185-4.013,1.611-.1,3.314,1.661,3.421,3.783.115,2.282.076,4.574.015,6.86a2.8,2.8,0,0,0,1.4,2.742c5.487,3.575,4.461,11.782-.086,14.161a2.369,2.369,0,0,0-1.314,2.539c.074,1.73.039,3.464.05,5.2L75.679,79.8" fill="#fe7b8a"/>
        <path id="Trazado_151418" data-name="Trazado 151418" d="M64.868,79.8c-.8-1.027-1.689-2-2.386-3.1-.945-1.484-.371-2.776.826-3.844a2.609,2.609,0,0,1,3.738-.178,43.1,43.1,0,0,1,3.793,3.805,2.9,2.9,0,0,1,.413,3.292l-6.384.02" fill="#fece5d"/>
        <path id="Trazado_151419" data-name="Trazado 151419" d="M86.529,79.8c-.082-2.62,2.846-6.769,5.339-7.609a2.807,2.807,0,0,1,3.276,1.15,3.1,3.1,0,0,1,.151,3.686,26.124,26.124,0,0,1-2.139,2.783l-6.627-.01" fill="#fece5d"/>
        <path id="Trazado_151420" data-name="Trazado 151420" d="M46.222,58.574a10.736,10.736,0,0,1-.479,3.442A93.885,93.885,0,0,1,34.726,73.291a6.188,6.188,0,0,1-8.788-.623,6.46,6.46,0,0,1,.279-8.857c2.794-2.891,5.694-5.681,8.509-8.553,1.883-1.921,4.016-2.9,6.732-2.129a6.411,6.411,0,0,1,4.764,5.445" fill="#fe7e40"/>
        <path id="Trazado_151421" data-name="Trazado 151421" d="M120.774,27.87a3.243,3.243,0,0,1,1.966,1c1.024,1.023,2.059,2.036,3.068,3.074a3.135,3.135,0,0,1-3.922,4.872,10.943,10.943,0,0,1-4.29-4.638,3.164,3.164,0,0,1,3.178-4.308" fill="#fece5d"/>
        <path id="Trazado_151422" data-name="Trazado 151422" d="M120.251,20.947c0,.692.02,1.382,0,2.073a3.121,3.121,0,0,1-6.237.234A33.49,33.49,0,0,1,114,18.286a3.1,3.1,0,0,1,3.189-2.9,3.164,3.164,0,0,1,3.028,3.079c.054.826.011,1.656.011,2.485h.022" fill="#fece5d"/>
        <path id="Trazado_151423" data-name="Trazado 151423" d="M92.776,64.709a16.392,16.392,0,0,1,.016-2.272,3.044,3.044,0,0,1,2.986-2.9A3.007,3.007,0,0,1,99,61.9a11.412,11.412,0,0,1,.04,5.919,2.847,2.847,0,0,1-3.27,2.462A3.014,3.014,0,0,1,92.8,67.4a20.93,20.93,0,0,1-.022-2.687" fill="#fece5d"/>
        <path id="Trazado_151424" data-name="Trazado 151424" d="M71.544,51.432c.045,1.887-4.406,6.4-6.292,6.376a3.107,3.107,0,0,1-2.745-4.695,12.371,12.371,0,0,1,4.312-4.388,3.128,3.128,0,0,1,4.725,2.707" fill="#fece5d"/>
        <path id="Trazado_151425" data-name="Trazado 151425" d="M58.7,64.826a14.926,14.926,0,0,1,.019-2.269,3.561,3.561,0,0,1,3.61-3.027,3.629,3.629,0,0,1,2.873,3.943,8.407,8.407,0,0,0-.039,2.641,3.34,3.34,0,0,1-2.7,4.168c-2.058.283-3.564-1.044-3.791-3.39-.065-.683-.01-1.377-.01-2.066H58.7" fill="#fecd5d"/>
        <path id="Trazado_151426" data-name="Trazado 151426" d="M92.261,57.82a2.91,2.91,0,0,1-1.846-.934c-1.032-1.021-2.09-2.021-3.055-3.1a3.222,3.222,0,0,1-.031-4.49,2.985,2.985,0,0,1,4.44-.128,27.948,27.948,0,0,1,3.322,3.411,3.343,3.343,0,0,1,.287,3.719c-.537,1.118-1.534,1.523-3.117,1.526" fill="#fece5d"/>
      </g>
    </g>
  </g>
</svg>
