<svg xmlns="http://www.w3.org/2000/svg" width="280.474" height="654.292" viewBox="0 0 280.474 654.292">
  <g id="Grupo_166245" data-name="Grupo 166245" transform="translate(4278.171 9792)">
    <path id="Trazado_154372" data-name="Trazado 154372" d="M150.827,92.958s11.561-18.934,17.078-27.606,12.35-19.561,12.35-19.561c.438-.7,12.528,2.459,14.009,2.756,5.128,1.028,10.259,2.047,15.414,2.934,15.224,2.619,30.759,2.413,46.114,1.312,7.612-.545,15.2-1.316,22.8-2.082C285.606,50,293,48.62,300.069,49.062c8.408.526,12.875,1.1,12.875,1.1l-54.916,86.562-8.67,12.3s-36.523-.642-51.5-3.271-47.032-52.8-47.032-52.8" transform="translate(-4313.362 -9782.731)" fill="#ffeae6"/>
    <path id="Trazado_154373" data-name="Trazado 154373" d="M143.08,93.9c3.392-6.041,6.914-12.169,12.068-16.8a32.6,32.6,0,0,1,15.015-7.607,6.764,6.764,0,0,1,3.149-.1c3.024.828,2.567,4.713,1.063,6.676a15,15,0,0,1-3.63,3.077l-10.165,6.9c-5.372,3.65-11.07,7.417-17.544,7.926l.043-.077" transform="translate(-4314.942 -9777.952)" fill="#f9b3a2"/>
    <path id="Trazado_154374" data-name="Trazado 154374" d="M189.409,259.065a1.054,1.054,0,0,1-.99-.7L123.511,76.952a1.051,1.051,0,0,1,1.979-.708L190.4,257.66a1.051,1.051,0,0,1-.636,1.344,1.038,1.038,0,0,1-.354.061" transform="translate(-4318.917 -9776.674)" fill="#0f0a1c"/>
    <path id="Trazado_154375" data-name="Trazado 154375" d="M134.705,553.018v.022a4.934,4.934,0,0,1-4.94,4.939H77.909a6.893,6.893,0,0,1-2.249-.337,6.42,6.42,0,0,1-1.282-.567.5.5,0,0,1-.253-.148c-2.4-1.492-3.616-4.5-3.49-8.113l.022-11.308.084-67.1,44.31,13.432.379,42.565v.884l.924,1.134,8.051,10.09,2.1,2.627,3.447,4.31,2.1,2.627,1.072,1.346a4.866,4.866,0,0,1,1.577,3.594" transform="translate(-4329.632 -9696.568)" fill="#f9b3a2"/>
    <path id="Trazado_154376" data-name="Trazado 154376" d="M134.705,542.259v.022a4.934,4.934,0,0,1-4.94,4.939H77.909a6.893,6.893,0,0,1-2.249-.337,6.42,6.42,0,0,1-1.282-.567.5.5,0,0,1-.253-.148c-2.4-1.492-3.616-4.5-3.49-8.113l.022-11.308a33.342,33.342,0,0,1,21.819-2.5c13.662,2.964,17.7,18.014,17.7,18.014Z" transform="translate(-4329.632 -9685.811)" fill="#2f3f4f"/>
    <path id="Trazado_154377" data-name="Trazado 154377" d="M117.437,529.656v12.823h-2.1v-15.45Z" transform="translate(-4320.562 -9685.084)" fill="#2f3f4f"/>
    <path id="Trazado_154378" data-name="Trazado 154378" d="M122.05,535.422v5.886h-2.1V532.8Z" transform="translate(-4319.626 -9683.913)" fill="#2f3f4f"/>
    <path id="Trazado_154379" data-name="Trazado 154379" d="M111.436,518.981,96.279,532.686l-1.407-1.555,15.638-14.169v.883Z" transform="translate(-4324.713 -9687.124)" fill="#2f3f4f"/>
    <path id="Trazado_154380" data-name="Trazado 154380" d="M306.73,553.526a5.092,5.092,0,0,1-5.045,4.415H225.571a10.116,10.116,0,0,1-9.859-7.988l-4.792-15.827-16.248-53.707,45.971-5.466s12.675,38.3,14.882,44.942c.211.61.315.967.337.987,0,.022.378.232,1.05.632,3.216,1.828,13.432,7.524,23.753,13.452.715.4,1.409.8,2.1,1.22,2.627,1.513,5.234,3.048,7.714,4.519.715.421,1.429.841,2.1,1.24,7.672,4.583,13.578,8.388,13.915,9.417.02.042.02.084.042.126a4.564,4.564,0,0,1,.189,2.039" transform="translate(-4304.467 -9695.648)" fill="#f9b3a2"/>
    <path id="Trazado_154381" data-name="Trazado 154381" d="M91.724,84.986s-19.138,5.8-27.194,35.877c-6.1,22.755,12.218,43.457,25.553,49.5S109.2,168,109.2,165.9,91.724,84.986,91.724,84.986" transform="translate(-4331.114 -9774.76)" fill="#f9b3a2"/>
    <path id="Trazado_154383" data-name="Trazado 154383" d="M145.54,95.864l-14.44,4.578-19.633-3.986,7.858-35.782.113-.546.206-.889.227-1.071,4.374,1.321,9.634,2.893,10.477,3.166.342,9,.206,4.92Z" transform="translate(-4321.347 -9780.199)" fill="#f9b3a2"/>
    <path id="Trazado_154384" data-name="Trazado 154384" d="M157.206,49.359l-.013.188a24.944,24.944,0,0,1-1.216,6.05,24.7,24.7,0,0,1-26.942,16.509,23.9,23.9,0,0,1-4.154-1.016,24.212,24.212,0,0,1-5.6-2.7c-.046-.026-.067-.052-.114-.055a26.924,26.924,0,0,1-2.578-1.969c-.313-.257-.579-.511-.866-.791-.267-.23-.532-.508-.773-.76a24.569,24.569,0,0,1,25.528-40.292,24.312,24.312,0,0,1,11.282,7.851,23.062,23.062,0,0,1,3.817,6.607,9.412,9.412,0,0,1,.441,1.139v.024a24.852,24.852,0,0,1,1.185,9.212" transform="translate(-4322.023 -9787.282)" fill="#f9b3a2"/>
    <path id="Trazado_154385" data-name="Trazado 154385" d="M156.028,44.718s-.138,13.565-2.64,23.288c-3.1,12.038-15.737,11.8-25.964,4.809S113.975,53.7,113.975,53.7s20.645-8.884,23.25-8.789,18.8-.195,18.8-.195" transform="translate(-4320.838 -9782.929)" fill="#f9b3a2"/>
    <path id="Trazado_154386" data-name="Trazado 154386" d="M155.581,38.985c-3.717,15.341-14.415,28.574-20.356,29.89a22.236,22.236,0,0,1-3.782.447,61.223,61.223,0,0,1-12.156-.95.5.5,0,0,1-.115-.031,27.174,27.174,0,0,1-2.578-1.97c-.313-.259-.579-.512-.866-.791-.267-.23-.532-.509-.773-.759a24.57,24.57,0,0,1,25.527-40.295,24.324,24.324,0,0,1,11.283,7.852,23.045,23.045,0,0,1,3.817,6.607" transform="translate(-4322.023 -9787.283)" fill="#2f3f4f"/>
    <path id="Trazado_154387" data-name="Trazado 154387" d="M146.706,50.521c-.312,4.553-2.821,8.089-5.6,7.9s-4.786-4.034-4.473-8.588,2.821-8.089,5.6-7.9,4.786,4.037,4.473,8.59" transform="translate(-4316.249 -9783.495)" fill="#f9b3a2"/>
    <path id="Trazado_154388" data-name="Trazado 154388" d="M142.9,16.66a15.594,15.594,0,1,0-16.624,14.492A15.593,15.593,0,0,0,142.9,16.66" transform="translate(-4321.29 -9792)" fill="#2f3f4f"/>
    <path id="Trazado_154389" data-name="Trazado 154389" d="M140.669,77.3a12.51,12.51,0,0,1-1.435-.615,13.214,13.214,0,0,1-6.9-7.835l8.13,3.53Z" transform="translate(-4317.114 -9778.032)" fill="#2f3f4f"/>
    <path id="Trazado_154390" data-name="Trazado 154390" d="M205.82,109.2l-26.191,51.668-3.321,6.558s-26.4-1.009-49.965-3.363c-.757-.084-1.513-.148-2.27-.231-3.153-.337-6.222-.674-9.144-1.051-.757-.084-1.513-.189-2.249-.295-11.792-1.576-20.872-3.594-22.281-6.074-1.87-3.279-3.006-15.807-3.72-29.344-1.009-19.023-.947-39.855-.947-39.855a37.544,37.544,0,0,1,3.826-1.66c1.892-.715,4.078-1.514,5.655-2.1,1.072-.4,1.87-.693,2.1-.757.064-.02.147-.042.211-.063.253-.084.5-.148.757-.232.421-.125.861-.273,1.3-.4.232-.063.484-.147.715-.189a110.384,110.384,0,0,1,61.968,0c1.786.505,3.552,1.093,5.3,1.724A102.826,102.826,0,0,1,182.257,90.1C195.9,97.537,205.82,109.2,205.82,109.2" transform="translate(-4326.567 -9776.302)" fill="#f9b3a2"/>
    <path id="Trazado_154391" data-name="Trazado 154391" d="M184.339,177.99c-2.1,4.351-8.555,9.586-8.555,9.586l-6.957,32.455-84.606-2.354-6.58-64.385s8.029-13.6,10.679-26.969a135.138,135.138,0,0,0,2.374-15.954c.694-9.921.63-19.844.5-25.561,1.892-.715,4.079-1.513,5.655-2.1-.042,2.627-.126,43.427,24.152,45.719,23.92,2.249,41.346-43.2,42.9-47.358,1.787.5,3.553,1.092,5.3,1.724-.378,2.733-5.466,38.172-1.429,57.111,2.5,11.687,8.786,17.468,13.495,20.221a19.338,19.338,0,0,0,5.675,2.354,28.572,28.572,0,0,1-2.607,15.513" transform="translate(-4328.209 -9775.555)" fill="#ffe7cf"/>
    <path id="Trazado_154392" data-name="Trazado 154392" d="M190.921,103.83s21.02,30.392,30.742,46.682,31.4,55.178,31.4,55.178-13.137,26.669-34.815,19.576-59.122-74.224-59.122-74.224,11.828-40.2,12.878-40.993,18.919-6.219,18.919-6.219" transform="translate(-4311.679 -9770.937)" fill="#f9b3a2"/>
    <path id="Trazado_154393" data-name="Trazado 154393" d="M213.521,152.592l22.6-33.107,29.954,4.466,6.831,12.086s-21.132,54.609-28.509,66.476-26.669,7.095-30.873,3.416-13.663-26.013-11.3-29.428,11.3-23.911,11.3-23.911" transform="translate(-4303.011 -9767.761)" fill="#f9b3a2"/>
    <path id="Trazado_154394" data-name="Trazado 154394" d="M231.042,129.579s-5.08-18.831-4.028-28.115,8.232-12.317,13.138-18.1,6.13-11.641,8.582-13.043,8.289-.914,6.362,7.844-8.113,19.543-8.113,20.719,1.577,4.5,1.577,4.5l-.7,40.756s-16.64-3.094-16.64-4.145-.176-10.423-.176-10.423" transform="translate(-4297.935 -9777.854)" fill="#f9b3a2"/>
    <path id="Trazado_154395" data-name="Trazado 154395" d="M271.409,556.434H209.063s-1.345-3.321-3.7-9.122c-.632-1.555-1.324-3.279-2.1-5.171-4.814-11.876-12.233-30.122-20.6-50.574-.694-1.724-1.388-3.447-2.1-5.171-6.642-16.227-13.748-33.59-20.6-50.174-.694-1.7-1.409-3.405-2.1-5.087-7.714-18.666-14.966-36.029-20.6-49.292-.736-1.7-1.43-3.343-2.1-4.9-3.111-7.252-5.613-12.907-7.23-16.354-.315-.672-.588-1.239-.841-1.744-2.922-5.844-7.483-17.762-12.528-31.929-.694-1.956-1.409-3.931-2.1-5.949-7.252-20.6-15.155-44.6-20.6-61.547-.757-2.334-1.451-4.519-2.1-6.558-2.9-9.1-4.708-14.988-4.708-15.239,0-.694-.862-19.486-1.43-31.993-.293-6.285-.5-10.994-.5-10.994l6.642.19,2.1.063,20.6.568,2.1.063,20.6.568,2.1.064,20.6.567,2.1.064,7.756.21s1.64,4.624,4.12,11.665c2.376,6.706,5.507,15.64,8.723,24.825.694,2.018,1.409,4.036,2.1,6.054,3.321,9.628,6.558,19.044,8.87,26.127,1.513,4.645,5.844,19.822,11.729,40.99.674,2.438,1.387,4.961,2.1,7.567,5.928,21.377,13.138,47.673,20.6,74.978.714,2.543,1.409,5.107,2.1,7.672,7.042,25.75,14.188,52.046,20.6,75.672.714,2.627,1.409,5.193,2.1,7.736,11.813,43.491,20.641,76.156,20.641,76.156" transform="translate(-4327.099 -9752.516)" fill="#44a38c"/>
    <path id="Trazado_154396" data-name="Trazado 154396" d="M134.237,348.336l-.546,12.255-8.556,195.844H62.959c-.022,0-5.928-140.6-7.611-176.926-.777-17.047-1.627-93.707,2.348-118.581,1.849-11.574,4.274-17.65,9.381-28.139,1.85-3.784,3.742-7.547,5.739-11.267.694-1.3,1.388-2.607,2.1-3.909,2.27-4.12,4.645-8.219,7.1-12.234,2.187-3.636,4.477-7.23,6.853-10.74,0,0,2.712,3.069,6.642,7.5.672.736,1.366,1.535,2.1,2.355.42.482.861.966,1.3,1.471,6.076,6.811,13.705,15.26,19.3,21.273.736.8,1.451,1.555,2.1,2.27,2.964,3.111,5.023,5.171,5.507,5.318,2.1.694,8.408,113.509,8.408,113.509" transform="translate(-4332.864 -9752.515)" fill="#44a38c"/>
    <path id="Trazado_154397" data-name="Trazado 154397" d="M71.862,213.737V552.559h-2.1V217.646c.693-1.3,1.387-2.607,2.1-3.909" transform="translate(-4329.807 -9748.641)" fill="#fff"/>
    <path id="Trazado_154398" data-name="Trazado 154398" d="M90.735,194.857V556.4h-2.1V194.793Z" transform="translate(-4325.979 -9752.482)" fill="#fff"/>
    <path id="Trazado_154399" data-name="Trazado 154399" d="M109.608,195.381V556.3h-2.1V195.317Z" transform="translate(-4322.15 -9752.376)" fill="#fff"/>
    <path id="Trazado_154400" data-name="Trazado 154400" d="M128.481,195.906V381.6c-.735-1.7-1.429-3.342-2.1-4.9V195.843Z" transform="translate(-4318.321 -9752.27)" fill="#fff"/>
    <path id="Trazado_154401" data-name="Trazado 154401" d="M147.354,196.43V435.87c-.693-1.7-1.409-3.405-2.1-5.087V196.367Z" transform="translate(-4314.493 -9752.163)" fill="#fff"/>
    <path id="Trazado_154402" data-name="Trazado 154402" d="M166.227,232.984V485.015c-.693-1.724-1.387-3.447-2.1-5.171V226.93c.693,2.018,1.409,4.036,2.1,6.054" transform="translate(-4310.664 -9745.964)" fill="#fff"/>
    <path id="Trazado_154403" data-name="Trazado 154403" d="M185.1,295.328V528.42c-.63-1.555-1.324-3.279-2.1-5.171V287.761c.672,2.438,1.387,4.961,2.1,7.567" transform="translate(-4306.835 -9733.622)" fill="#fff"/>
    <path id="Trazado_154404" data-name="Trazado 154404" d="M203.973,364.057V523.621h-2.1V356.385c.715,2.543,1.407,5.107,2.1,7.672" transform="translate(-4303.006 -9719.7)" fill="#fff"/>
    <path id="Trazado_154405" data-name="Trazado 154405" d="M222.846,433.409v76.156h-2.1V425.673c.714,2.628,1.407,5.193,2.1,7.736" transform="translate(-4299.178 -9705.646)" fill="#fff"/>
    <path id="Trazado_154406" data-name="Trazado 154406" d="M172.993,208.657l-16.816-.568L154.053,208l-59.739-2.039-4.455-.147-2.124-.084-2.964-.1-7.357-.253c2.187-3.636,4.477-7.23,6.853-10.742l5.759.168,2.145.042,60.663,1.7,2.1.064,13.936.378s1.64,4.625,4.12,11.667" transform="translate(-4328.255 -9752.516)" fill="#2f3f4f"/>
    <path id="Trazado_154407" data-name="Trazado 154407" d="M303.99,543.668a5.092,5.092,0,0,1-5.045,4.415H222.831a10.116,10.116,0,0,1-9.859-7.988l-4.792-15.827a30.484,30.484,0,0,1,20.7,2.753c9.43,5.123,12.612,16.648,12.612,16.648Z" transform="translate(-4301.727 -9685.79)" fill="#2f3f4f"/>
    <path id="Trazado_154408" data-name="Trazado 154408" d="M268.263,526.064V545.15h-2.1V524.844c.715.4,1.407.8,2.1,1.22" transform="translate(-4289.964 -9685.527)" fill="#2f3f4f"/>
    <path id="Trazado_154409" data-name="Trazado 154409" d="M276.424,530.855v13.327h-2.1V529.615c.713.42,1.429.841,2.1,1.24" transform="translate(-4288.309 -9684.559)" fill="#2f3f4f"/>
    <path id="Trazado_154410" data-name="Trazado 154410" d="M250.843,513.933,225.809,531.38l-1.22-1.724,24.867-17.342c.209.61.315.967.336.989,0,.021.379.231,1.051.63" transform="translate(-4298.397 -9688.069)" fill="#2f3f4f"/>
    <path id="Trazado_154411" data-name="Trazado 154411" d="M143.457,207.767l-2.123-.084-1.22-11.456,2.1.064Z" transform="translate(-4315.536 -9752.192)" fill="#a66353"/>
    <path id="Trazado_154412" data-name="Trazado 154412" d="M90.43,194.818l-2.312,10.973-2.123-.084,2.291-10.93Z" transform="translate(-4326.515 -9752.486)" fill="#a66353"/>
    <path id="Trazado_154413" data-name="Trazado 154413" d="M123.414,340.549a1.053,1.053,0,0,1-.923-.545c-.878-1.6-21.575-39.363-26.874-55.085a1.05,1.05,0,1,1,1.991-.671c5.242,15.547,26.512,54.354,26.727,54.745a1.049,1.049,0,0,1-.92,1.557" transform="translate(-4324.574 -9734.481)" fill="#2f3f4f"/>
    <path id="Trazado_154414" data-name="Trazado 154414" d="M78.119,143.6a1.052,1.052,0,0,1-1.039-.9l-3.132-21a1.051,1.051,0,0,1,2.08-.31l3.132,21a1.053,1.053,0,0,1-.884,1.2,1.152,1.152,0,0,1-.156.011" transform="translate(-4328.96 -9767.557)" fill="#2f3f4f"/>
    <path id="Trazado_154415" data-name="Trazado 154415" d="M223.812,166.3a1.049,1.049,0,0,1-.929-.558L212.549,146.3a1.051,1.051,0,0,1,1.856-.988l10.334,19.444a1.049,1.049,0,0,1-.926,1.544" transform="translate(-4300.865 -9762.636)" fill="#2f3f4f"/>
    <path id="Trazado_154416" data-name="Trazado 154416" d="M287.751,94.262c-.883,14.125-22.429,51.773-22.429,51.773l-17.7,4.372s-8.218-18.393-8.408-19.444c-.168-1.05,5.255-32.182,5.255-32.182s1.892,4.162,8.029,2.418c6.159-1.766,14.61-12.024,14.61-12.024l12.023-18.96a46.348,46.348,0,0,1,3.784,6.348c.5,1.009,1.03,2.1,1.513,3.3A45.469,45.469,0,0,1,287.457,90.1v.02c.126.736.21,1.493.295,2.271a9.32,9.32,0,0,1,0,1.87" transform="translate(-4295.432 -9777.755)" fill="#f9b3a2"/>
    <path id="Trazado_154417" data-name="Trazado 154417" d="M278.542,78.791a32.709,32.709,0,0,1-3.069,8.2c-3.784,7.063-5.318,8.556-5.486,8.7a1.066,1.066,0,0,1-.694.273,1.06,1.06,0,0,1-.714-1.828c.042-.042,1.451-1.451,5.045-8.135a32.4,32.4,0,0,0,3.405-10.509c.5,1.008,1.03,2.1,1.513,3.3" transform="translate(-4289.543 -9776.687)" fill="#2f3f4f"/>
    <path id="Trazado_154418" data-name="Trazado 154418" d="M280.734,90.9c-3.574,6.58-5,7.988-5.171,8.135a1.049,1.049,0,1,1-1.409-1.555c.042-.042,1.451-1.451,5.024-8.115.484-.883.883-1.744,1.261-2.607.126.736.21,1.493.295,2.271a9.32,9.32,0,0,1,0,1.87" transform="translate(-4288.414 -9774.398)" fill="#2f3f4f"/>
    <path id="Trazado_154419" data-name="Trazado 154419" d="M142.347,52.164a1.051,1.051,0,0,0-1.844,1.01,19.591,19.591,0,0,1,2.061,8.428c0,4.89-1.832,7.882-2.83,7.882-1.045,0-2.627-3.144-2.627-7.882a16.192,16.192,0,0,1,1.658-6.676,14.32,14.32,0,0,1-1.222-2.259,18.208,18.208,0,0,0-2.537,8.935c0,4.961,1.624,9.984,4.729,9.984,3.088,0,4.932-5.076,4.932-9.984a21.586,21.586,0,0,0-2.318-9.439" transform="translate(-4316.572 -9781.529)" fill="#fff"/>
    <path id="Trazado_154420" data-name="Trazado 154420" d="M156.577,268.9a.841.841,0,0,1-.315.063,1.079,1.079,0,0,1-1.009-.735l-33.3-105.143L96.165,81.655c.42-.126.861-.273,1.3-.4.231-.064.484-.148.714-.189l26.044,82.251L157.271,267.6a1.051,1.051,0,0,1-.694,1.3" transform="translate(-4324.451 -9775.555)" fill="#0f0a1c"/>
    <path id="Trazado_154421" data-name="Trazado 154421" d="M143.911,236.474c-.33,1.32,13.082,37.234,14.7,39.467a3.309,3.309,0,0,0,1.423,1.281c.544.2,40.255-10,40.9-11.874.278-.811-.306-2.194-.51-2.96-.546-2.05-1.2-4.072-1.863-6.085-1.81-5.484-3.789-10.915-5.856-16.306-1.688-4.4-3.357-8.872-5.465-13.1-.568-1.138-.868-2.19-2.283-1.927q-1,.188-2,.393c-2.14.444-4.271.924-6.4,1.41q-8.59,1.956-17.143,4.081c-4.322,1.072-8.7,2.074-12.944,3.429a6.368,6.368,0,0,0-1.229.456,2.659,2.659,0,0,0-1.317,1.731" transform="translate(-4314.766 -9746.369)" fill="#2f3f4f"/>
    <path id="Trazado_154422" data-name="Trazado 154422" d="M177.383,250.154c-5.272,0-27.461-11.182-31.989-13.491a1.051,1.051,0,0,1,.955-1.872c13.283,6.776,28.7,13.705,31.115,13.26,2.024-.392,5.581-11.265,7.632-21.174a1.052,1.052,0,1,1,2.059.427c-1.063,5.135-4.874,21.955-9.291,22.81a2.509,2.509,0,0,1-.481.04" transform="translate(-4314.581 -9746.145)" fill="#0f0a1c"/>
  </g>
</svg>
