<svg xmlns="http://www.w3.org/2000/svg" xmlns:xlink="http://www.w3.org/1999/xlink" width="820" height="577.287" viewBox="0 0 820 577.287">
  <defs>
    <clipPath id="clip-path">
      <rect id="Rectángulo_37918" data-name="Rectángulo 37918" width="820" height="577.287" rx="13" transform="translate(0 0)" fill="#ff9fa3"/>
    </clipPath>
  </defs>
  <g id="Grupo_165840" data-name="Grupo 165840" transform="translate(-600 -1913)">
    <path id="Trazado_149515" data-name="Trazado 149515" d="M13.112,0H806.888C814.13,0,820,7.923,820,17.7v541.8c0,9.774-5.87,17.7-13.112,17.7H13.112C5.87,577.19,0,569.267,0,559.493V17.7C0,7.923,5.87,0,13.112,0Z" transform="translate(600 1913.097)" fill="#6b8dfc"/>
    <g id="Enmascarar_grupo_160" data-name="Enmascarar grupo 160" transform="translate(600 1913)" clip-path="url(#clip-path)">
      <g id="Grupo_160414" data-name="Grupo 160414" transform="translate(22.189 -56.809)">
        <g id="Grupo_82657" data-name="Grupo 82657" transform="translate(0 23.89)" style="isolation: isolate">
          <path id="Trazado_115694" data-name="Trazado 115694" d="M239.067,553.21c52.8,49.672,107.36,97.52,162.964,144.522-24.043-49.974-49.96-99.153-72.786-149.651-25.873-57.249-55.954-135.283-23.331-195.333,74.342-136.875,262.269-2.569,331.428,66.327,7.365,7.345,14.4,15.012,21.523,22.589-24.711-55.636-46.957-112.8-41.083-172.915,8.076-82.649,90.484-102.477,161.429-64.07,76.183,41.229,137.375,112.573,188.464,177.368,43.4,55.032-55.9,107.424-98.955,53.178a735.766,735.766,0,0,0-77.356-83.193q6.164,10.383,12.46,20.725C831.582,418.35,859,464.123,881.618,512.112c43.308,91.878,107.36,219.08,52.875,315.724-27.462,48.7-91.854,53.651-140.334,33.833-65.17-26.64-110.308-85.45-153.824-135.223-45.423-51.969-85.432-107.152-127.48-161.378-17.566-22.66-35.122-45.642-55.242-66.478-.46-.484-.943-.927-1.4-1.4l.5,1.461c11.167,31.919,25.522,62.548,40.064,93.258,27.045,57.138,61.937,117.278,71.844,179.444,8.756,54.972-15.452,116.583-87.361,112.593-67.6-3.748-121.782-63.616-166.975-103.6-54.727-48.423-108.478-97.8-162.24-147.131C95.906,581.713,183.606,501.049,239.067,553.21Z" transform="translate(-122.989 -175.74)" fill="#7595fd"/>
          <path id="Trazado_115695" data-name="Trazado 115695" d="M497.684,903.3c26.53,0,49.05-8.564,65.433-24.967,22.772-22.8,32.612-59.939,26.333-99.344-8.186-51.375-32.558-100.583-56.118-148.16-5.644-11.4-11.232-22.68-16.514-33.843-5.008-10.589-10.279-21.713-15.506-33.219q4.8,6.151,9.5,12.232l3.112,4.02c10.925,14.086,21.709,28.231,32.481,42.377,30.256,39.7,61.543,80.755,95.382,119.465,4.942,5.652,9.907,11.425,14.925,17.259,38.8,45.118,82.781,96.25,142.986,120.855,53.675,21.914,123.974,15.778,154.5-38.4,54.869-97.319-4.373-222.546-47.636-313.981l-4.91-10.4c-12.723-27.012-26.991-53.38-42.125-79.626q5.26,6.3,10.323,12.7C896.474,483.8,943.091,483.3,972.8,463.43c24.569-16.433,38.355-46.982,13.742-78.2C932,316.066,871.017,246.364,794.757,205.1c-42.322-22.9-88.643-26.619-123.94-9.944-31.078,14.68-50.245,43.727-53.959,81.8-4.362,44.654,6.126,87.394,21.325,128.17-56.272-50.549-160.345-122.235-243.837-111.374-38.355,5.008-68.041,26.408-88.238,63.6-33.226,61.158-7.014,137.3,23.013,203.705,14.29,31.617,30,63.153,45.2,93.661L379.7,665.5c-45.226-38.992-85.685-75.314-122.812-110.235v.01c-18.356-17.279-41.675-23.627-65.6-17.914-26.268,6.287-48.721,26.77-55.867,50.992-6.553,22.216.143,43.919,18.871,61.1l6.115,5.6c50.9,46.71,103.536,95.012,156.268,141.651,6.5,5.753,13.172,11.909,20.054,18.257,40.941,37.733,91.887,84.7,153.857,88.14C492.983,903.243,495.349,903.3,497.684,903.3Zm-31.44-406.655a11.054,11.054,0,0,0-5.3,1.3c-4.405,2.4-6.751,6.962-5.172,11.435l.515,1.471c11.7,33.471,26.969,65.722,40.437,94.175,5.337,11.274,10.98,22.66,16.668,34.146,22.925,46.307,46.639,94.185,54.376,142.739,5.249,32.967-2.717,64.694-20.788,82.79-13.4,13.42-31.9,19.5-55.055,18.287-53.653-2.982-99.35-45.1-139.666-82.266-6.991-6.438-13.775-12.7-20.372-18.539-52.59-46.518-105.157-94.75-155.994-141.4l-6.1-5.6c-16.569-15.194-16.317-30.982-13.2-41.551,5.074-17.2,21.621-32.312,40.228-36.765,11.342-2.72,28.229-2.74,44.4,12.484v.01c47.965,45.108,101.41,92.5,163.4,144.885a11.689,11.689,0,0,0,13.8.766,9.593,9.593,0,0,0,3.638-12.262c-9.085-18.891-18.443-37.662-27.8-56.432-15.112-30.347-30.75-61.722-44.886-93.006-28.131-62.206-52.93-133.067-23.649-186.96,17.018-31.355,40.481-48.574,71.723-52.644,77.838-10.136,187.3,66.961,241.843,121.308,5.819,5.783,11.419,11.788,17.03,17.793l4.241,4.544a11.617,11.617,0,0,0,14.027,2.005,9.663,9.663,0,0,0,4.416-12.393c-23.528-53-46.026-109.641-40.305-168.22,3.069-31.385,17.643-54.095,42.147-65.671,28.58-13.5,67.011-9.985,102.813,9.38,72.786,39.4,132.006,107.2,185.154,174.607,16.788,21.3,6.422,39.838-8.888,50.075-20.733,13.854-53.127,15.486-72.348-8.745a750.079,750.079,0,0,0-78.441-84.372,11.675,11.675,0,0,0-14.323-.967,9.578,9.578,0,0,0-3.068,12.907q6.2,10.428,12.526,20.816c28.1,46.166,55.165,91.5,77.29,138.437l4.92,10.418c41.511,87.727,98.341,207.877,48.283,296.671-24.317,43.133-81.871,47.344-126.154,29.259-55.264-22.579-95.646-69.531-134.691-114.94-5.052-5.864-10.06-11.688-15.046-17.38-33.379-38.2-64.447-78.971-94.506-118.406q-16.208-21.28-32.58-42.508l-3.112-4.01C512.171,543.026,495.119,521.021,475.8,501l-.975-.977A12.492,12.492,0,0,0,466.244,496.648Zm-217.2,65.662h0Z" transform="translate(-132.979 -184.841)" fill="#7595fd"/>
          <path id="Trazado_115696" data-name="Trazado 115696" d="M158.843,227.89c40.371,74.6,63.154,162.053,27.681,242.234-5.238,11.859-26.443,6.67-21.128-5.36,33.292-75.284,12.493-156.543-25.478-226.708C133.649,226.489,152.553,216.262,158.843,227.89Z" transform="translate(600.137 159.343)" fill="#7595fd"/>
          <path id="Trazado_115697" data-name="Trazado 115697" d="M150.681,293.528c.186-.02.361-.071.537-.1.307-.544.581-1.139.679-1.3l.055-.061c.022-.081-.011-.02.022-.141,1.414-4.5,2.422-9.058,3.5-13.642q3.715-15.944,7.441-31.889c1.205-5.159,8.076-8.645,13.479-7.033,5.918,1.763,8.953,6.861,7.66,12.393q-4.208,18.03-8.427,36.07c-2.334,10-6.071,23.133-19.111,25.138-5.633.867-12.076-1.36-13.479-7.043C141.826,301.055,144.632,294.455,150.681,293.528Z" transform="translate(575.018 306.367)" fill="#7595fd"/>
          <path id="Trazado_115698" data-name="Trazado 115698" d="M221.174,202.876c12.438-6.106,23.517,11.284,11.057,17.4-17.2,8.443-22.454,25.632-23.133,42.518-.789,19.174,1.556,38.881,4.942,57.763a361.94,361.94,0,0,0,38.037,108.23c6.257,11.577-12.635,21.793-18.925,10.166-21.709-40.141-36.218-82.982-42.541-127.464C185.45,275.177,179.269,223.44,221.174,202.876Z" transform="translate(22.055 -32.779)" fill="#7595fd"/>
        </g>
        <g id="Grupo_82660" data-name="Grupo 82660" transform="translate(25.987 0)">
          <g id="Grupo_82659" data-name="Grupo 82659">
            <g id="Grupo_82658" data-name="Grupo 82658">
              <path id="Trazado_115699" data-name="Trazado 115699" d="M236.69,550.842c52.8,49.672,107.36,97.52,162.975,144.512-24.043-49.964-49.971-99.152-72.8-149.64-25.873-57.249-55.943-135.283-23.331-195.333,74.343-136.875,262.27-2.579,331.429,66.327,7.375,7.335,14.4,15,21.523,22.589-24.7-55.637-46.946-112.8-41.083-172.915,8.076-82.649,90.484-102.477,161.429-64.08,76.194,41.239,137.376,112.583,188.475,177.378,43.4,55.032-55.91,107.425-98.966,53.178A736.57,736.57,0,0,0,789,349.655q6.164,10.383,12.449,20.735c27.758,45.591,55.176,91.364,77.794,139.343,43.319,91.888,107.36,219.081,52.875,315.734-27.462,48.7-91.843,53.652-140.334,33.833-65.17-26.639-110.308-85.45-153.824-135.223C592.534,672.11,552.535,616.927,510.487,562.7c-17.577-22.66-35.133-45.642-55.242-66.488-.46-.474-.953-.917-1.414-1.4l.5,1.471C465.5,528.2,479.869,558.831,494.4,589.541c27.056,57.128,61.937,117.268,71.844,179.444,8.767,54.972-15.452,116.583-87.361,112.593-67.592-3.748-121.771-63.616-166.964-103.6C257.182,729.56,203.431,680.17,149.668,630.841,93.539,579.345,181.24,498.681,236.69,550.842Z" transform="translate(-120.616 -173.371)" fill="#a6bbff"/>
              <path id="Trazado_115700" data-name="Trazado 115700" d="M495.319,900.923c26.531,0,49.039-8.554,65.422-24.957,22.772-22.8,32.612-59.939,26.333-99.354-8.175-51.365-32.547-100.573-56.118-148.16-5.633-11.4-11.221-22.67-16.514-33.833-5.008-10.589-10.279-21.713-15.506-33.219,3.2,4.091,6.367,8.181,9.5,12.232l3.112,4.01c10.926,14.086,21.709,28.242,32.492,42.377,30.245,39.708,61.532,80.765,95.372,119.465q7.413,8.493,14.925,17.269c38.8,45.108,82.78,96.241,142.986,120.855,53.685,21.914,123.973,15.768,154.5-38.407,54.869-97.309-4.372-222.536-47.626-313.981l-4.92-10.388c-12.723-27.012-26.991-53.38-42.113-79.626q5.243,6.3,10.323,12.685c26.607,33.541,73.224,33.037,102.933,13.169,24.569-16.433,38.355-46.982,13.742-78.2C929.626,313.7,868.642,243.994,792.393,202.715c-42.333-22.891-88.643-26.609-123.952-9.934-31.078,14.68-50.234,43.718-53.959,81.793-4.362,44.654,6.126,87.4,21.336,128.17C579.535,352.2,475.473,280.518,391.981,291.379c-38.355,5.007-68.052,26.407-88.249,63.6-33.215,61.158-7,137.288,23.013,203.706,14.29,31.606,30,63.153,45.2,93.651l5.381,10.791c-45.225-38.982-85.684-75.3-122.812-110.225h0c-18.355-17.28-41.675-23.617-65.6-17.9-26.268,6.287-48.721,26.771-55.856,50.992-6.564,22.216.132,43.909,18.859,61.087l6.115,5.612c50.9,46.709,103.536,95,156.268,141.651,6.5,5.753,13.172,11.909,20.065,18.257,40.93,37.733,91.876,84.7,153.846,88.14C490.618,900.863,492.974,900.923,495.319,900.923Zm-31.44-406.655a11.034,11.034,0,0,0-5.3,1.31c-4.416,2.4-6.762,6.952-5.184,11.436l.515,1.471c11.7,33.46,26.969,65.722,40.436,94.175,5.337,11.264,10.981,22.649,16.668,34.146,22.936,46.307,46.65,94.185,54.387,142.729,5.249,32.967-2.718,64.694-20.8,82.8-13.391,13.41-31.9,19.5-55.055,18.286-53.653-2.982-99.35-45.1-139.655-82.266-6.992-6.448-13.786-12.705-20.382-18.539-52.59-46.518-105.158-94.75-155.994-141.4l-6.1-5.612c-16.558-15.184-16.317-30.972-13.194-41.551,5.074-17.188,21.61-32.312,40.229-36.755,11.331-2.72,28.218-2.74,44.393,12.484h0c47.965,45.108,101.41,92.5,163.4,144.895a11.69,11.69,0,0,0,13.8.766,9.581,9.581,0,0,0,3.638-12.262c-9.084-18.891-18.443-37.662-27.791-56.443-15.123-30.337-30.749-61.712-44.9-93-28.119-62.206-52.929-133.066-23.648-186.97,17.029-31.345,40.492-48.563,71.723-52.644C472.9,301.2,582.373,378.3,636.914,432.637c5.808,5.793,11.408,11.8,17.019,17.793l4.252,4.554a11.6,11.6,0,0,0,14.016,2.005,9.676,9.676,0,0,0,4.427-12.4c-23.539-52.987-46.036-109.641-40.316-168.21,3.069-31.4,17.643-54.105,42.146-65.682,28.591-13.491,67.011-9.975,102.813,9.39,72.8,39.4,132.006,107.2,185.154,174.608,16.8,21.3,6.422,39.828-8.887,50.065-20.734,13.864-53.127,15.5-72.348-8.736a748.2,748.2,0,0,0-78.441-84.372,11.659,11.659,0,0,0-14.312-.967,9.558,9.558,0,0,0-3.068,12.9q6.2,10.443,12.514,20.826c28.109,46.165,55.165,91.5,77.3,138.436l4.92,10.418c41.5,87.727,98.331,207.877,48.272,296.662-24.317,43.143-81.871,47.354-126.154,29.269-55.264-22.579-95.646-69.541-134.691-114.941q-7.578-8.811-15.035-17.39c-33.391-38.186-64.458-78.961-94.517-118.4-10.805-14.186-21.621-28.383-32.579-42.518l-3.112-4c-16.492-21.289-33.544-43.3-52.853-63.314l-.986-.978A12.474,12.474,0,0,0,463.879,494.268Zm-217.2,65.672h0Z" transform="translate(-130.608 -182.469)" fill="#6b8dfc"/>
            </g>
            <path id="Trazado_115701" data-name="Trazado 115701" d="M156.468,225.52c40.382,74.6,63.154,162.043,27.692,242.234-5.249,11.849-26.454,6.67-21.139-5.36,33.3-75.294,12.5-156.542-25.478-226.708C131.286,224.11,150.178,213.893,156.468,225.52Z" transform="translate(602.507 161.713)" fill="#6b8dfc"/>
            <path id="Trazado_115702" data-name="Trazado 115702" d="M148.309,291.157c.186-.02.361-.07.537-.1.307-.554.592-1.139.69-1.3l.044-.06c.022-.081-.011-.03.022-.151,1.414-4.494,2.433-9.058,3.5-13.632q3.731-15.944,7.441-31.889c1.205-5.158,8.076-8.645,13.49-7.033,5.906,1.753,8.942,6.861,7.649,12.393l-8.416,36.06c-2.345,10.015-6.082,23.143-19.123,25.148-5.633.857-12.076-1.36-13.479-7.042C139.454,298.684,142.271,292.084,148.309,291.157Z" transform="translate(577.385 308.738)" fill="#6b8dfc"/>
            <path id="Trazado_115703" data-name="Trazado 115703" d="M218.8,200.505c12.438-6.106,23.528,11.284,11.057,17.4-17.2,8.443-22.443,25.632-23.133,42.508-.789,19.174,1.556,38.891,4.942,57.772a361.934,361.934,0,0,0,38.037,108.231c6.268,11.576-12.635,21.793-18.925,10.166-21.7-40.151-36.218-82.991-42.541-127.465C183.078,272.8,176.9,221.059,218.8,200.505Z" transform="translate(24.422 -30.407)" fill="#6b8dfc"/>
          </g>
        </g>
      </g>
    </g>
  </g>
</svg>
