<svg xmlns="http://www.w3.org/2000/svg" width="122" height="87" viewBox="0 0 122 87">
  <g id="Grupo_166761" data-name="Grupo 166761" transform="translate(-765 -2969)">
    <rect id="Rectángulo_41125" data-name="Rectángulo 41125" width="122" height="87" rx="13" transform="translate(765 2969)" fill="#ff9fa3"/>
    <path id="Trazado_156290" data-name="Trazado 156290" d="M12.289,11.961q.164-.93-.914-1.422l-1.508-.6Q7.242,8.766,7.375,6.711A2.964,2.964,0,0,1,8,5.023,3.758,3.758,0,0,1,9.6,3.871a5.67,5.67,0,0,1,2.227-.4,3.857,3.857,0,0,1,2.664.98,3.267,3.267,0,0,1,1,2.543H13.211a1.628,1.628,0,0,0-.34-1.2A1.531,1.531,0,0,0,11.7,5.344a2.37,2.37,0,0,0-1.359.355,1.458,1.458,0,0,0-.687,1.02Q9.5,7.57,10.789,8.07l1.031.391.594.273q2.3,1.141,2.156,3.2a3.09,3.09,0,0,1-.645,1.738A3.633,3.633,0,0,1,12.363,14.8a5.565,5.565,0,0,1-2.176.367,4.873,4.873,0,0,1-2.156-.508,3.349,3.349,0,0,1-1.437-1.367,3.54,3.54,0,0,1-.43-1.875l2.289.008q-.109,1.852,1.82,1.883a2.392,2.392,0,0,0,1.375-.367A1.43,1.43,0,0,0,12.289,11.961Zm8.453,2.164a2.919,2.919,0,0,1-2.328,1.031,2.172,2.172,0,0,1-1.844-.875,3.2,3.2,0,0,1-.484-2.266L17,6.547h2.2l-.93,5.5a2.175,2.175,0,0,0-.008.485.8.8,0,0,0,.867.806,2.014,2.014,0,0,0,1.7-.79l1.055-6H24.1L22.633,15H20.578ZM32.4,10.8A6.061,6.061,0,0,1,31.18,14a3.033,3.033,0,0,1-2.547,1.164A2.357,2.357,0,0,1,26.6,14.086l-.32.914H24.273L26.352,3h2.211l-.852,4.32a2.634,2.634,0,0,1,2.063-.93A2.385,2.385,0,0,1,31.7,7.27a3.89,3.89,0,0,1,.746,2.387A9.132,9.132,0,0,1,32.4,10.8Zm-2.187-.165A6.554,6.554,0,0,0,30.258,9.6q-.086-1.364-1.125-1.387a1.833,1.833,0,0,0-1.617.885l-.609,3.37a1.258,1.258,0,0,0,1.266.878q1.625.047,1.992-2.367Zm6.68-4.085-1.516,8.914a3.516,3.516,0,0,1-1.02,2.2,2.984,2.984,0,0,1-2.168.773,6.8,6.8,0,0,1-1.172-.148l.18-1.8a4.309,4.309,0,0,0,.68.1,1.2,1.2,0,0,0,1.266-1.125l1.531-8.922ZM34.883,4.4a1.1,1.1,0,0,1,.328-.855,1.328,1.328,0,0,1,1.77-.035,1.108,1.108,0,0,1,.363.813,1.113,1.113,0,0,1-.328.863,1.257,1.257,0,0,1-.883.355,1.235,1.235,0,0,1-.863-.3A1.091,1.091,0,0,1,34.883,4.4Zm6.328,10.758a3.677,3.677,0,0,1-1.965-.543,3.292,3.292,0,0,1-1.277-1.469,4.093,4.093,0,0,1-.328-2.059l.023-.312a5.465,5.465,0,0,1,.719-2.266,4.341,4.341,0,0,1,1.547-1.59,3.827,3.827,0,0,1,2.094-.527,2.924,2.924,0,0,1,2.473,1.2,4.117,4.117,0,0,1,.637,2.962l-.125.962h-5.18a1.814,1.814,0,0,0,.4,1.313,1.521,1.521,0,0,0,1.172.508,2.7,2.7,0,0,0,2.109-.937l1.008,1.25a3.135,3.135,0,0,1-1.375,1.121A4.5,4.5,0,0,1,41.211,15.156Zm.7-6.945a1.565,1.565,0,0,0-1.082.383,3.363,3.363,0,0,0-.848,1.383h3.031l.047-.2a2.071,2.071,0,0,0,.008-.594,1.134,1.134,0,0,0-.383-.707A1.2,1.2,0,0,0,41.914,8.211Zm7.453,5.133a1.447,1.447,0,0,0,1.016-.332,1.632,1.632,0,0,0,.531-.926l2.07-.008a3.037,3.037,0,0,1-.559,1.6,3.394,3.394,0,0,1-1.344,1.109,3.847,3.847,0,0,1-1.77.375A3.123,3.123,0,0,1,46.875,14.1a3.965,3.965,0,0,1-.867-2.766l.023-.43.008-.086a5.284,5.284,0,0,1,1.391-3.27,3.761,3.761,0,0,1,2.914-1.16,3.047,3.047,0,0,1,2.27.934A3.3,3.3,0,0,1,53.438,9.7H51.383a1.73,1.73,0,0,0-.3-1.07,1.128,1.128,0,0,0-.891-.422q-1.578-.047-1.914,2.3a7.782,7.782,0,0,0-.086,1.438Q48.273,13.32,49.367,13.344ZM58.3,4.469l-.367,2.078h1.406L59.055,8.2H57.648l-.719,4.234a1.077,1.077,0,0,0,.063.609q.109.211.531.227.125.008.672-.039l-.156,1.727a3.706,3.706,0,0,1-1.266.18,1.985,1.985,0,0,1-1.617-.68,2.456,2.456,0,0,1-.437-1.8L55.445,8.2h-1.2l.289-1.656h1.2l.359-2.078ZM17.391,36.07q.172-1.25-1.3-1.828l-1.352-.492-.453-.2q-2.281-1.039-2.133-2.922a3.056,3.056,0,0,1,.648-1.672,3.69,3.69,0,0,1,1.512-1.121,4.849,4.849,0,0,1,2-.371,4,4,0,0,1,1.84.461,2.962,2.962,0,0,1,1.23,1.223,3.333,3.333,0,0,1,.375,1.77l-1.477-.008a2.037,2.037,0,0,0-.469-1.627,2.1,2.1,0,0,0-1.562-.592,2.91,2.91,0,0,0-1.789.5,1.955,1.955,0,0,0-.828,1.409q-.156,1.166,1.43,1.769l1.164.415.586.25a2.941,2.941,0,0,1,2.039,3.016,3.012,3.012,0,0,1-.648,1.66A3.626,3.626,0,0,1,16.684,38.8a5.266,5.266,0,0,1-2.074.359,4.339,4.339,0,0,1-1.957-.457,3.193,3.193,0,0,1-1.348-1.23A3.078,3.078,0,0,1,10.9,35.7l1.469.008a1.935,1.935,0,0,0,.551,1.613,2.479,2.479,0,0,0,1.754.613,3.131,3.131,0,0,0,1.867-.492A1.916,1.916,0,0,0,17.391,36.07Zm8.047,2.094a3.265,3.265,0,0,1-2.523.992,2.107,2.107,0,0,1-1.793-.867,3.317,3.317,0,0,1-.434-2.281l.906-5.461h1.414l-.914,5.484a3.643,3.643,0,0,0-.016.672,1.4,1.4,0,0,0,.336.883,1.146,1.146,0,0,0,.828.344A2.537,2.537,0,0,0,25.586,36.7l1.063-6.156h1.414L26.594,39H25.258Zm6.2-7.617-1.6,9.461a2.989,2.989,0,0,1-.8,1.82,2.264,2.264,0,0,1-1.684.609,4.171,4.171,0,0,1-.93-.156l.125-1.156a3.372,3.372,0,0,0,.648.086q1.008,0,1.211-1.2l1.617-9.461Zm-1.172-2.219a.9.9,0,0,1,.23-.609.822.822,0,0,1,.6-.258.761.761,0,0,1,.6.223.811.811,0,0,1,.238.6.841.841,0,0,1-.242.6.87.87,0,0,1-.6.25.745.745,0,0,1-.586-.219A.8.8,0,0,1,30.461,28.328Zm5.68,10.828a3.048,3.048,0,0,1-2.469-1.164,4.006,4.006,0,0,1-.75-2.9l.039-.336a5.624,5.624,0,0,1,.746-2.3,4.339,4.339,0,0,1,1.5-1.566,3.491,3.491,0,0,1,1.906-.5,2.688,2.688,0,0,1,2.047.867,3.566,3.566,0,0,1,.813,2.266,6.621,6.621,0,0,1-.031,1.016l-.086.648H34.328a2.856,2.856,0,0,0,.379,1.953,1.8,1.8,0,0,0,1.551.836,3.007,3.007,0,0,0,2.313-1.125l.813.688a3.718,3.718,0,0,1-1.371,1.2A3.886,3.886,0,0,1,36.141,39.156Zm.9-7.586a2.066,2.066,0,0,0-1.527.594A4.22,4.22,0,0,0,34.477,34l4.109.008.031-.125a2.313,2.313,0,0,0-.316-1.637A1.488,1.488,0,0,0,37.039,31.57Zm7.477-3.07-.359,2.047H45.7l-.2,1.117H43.969l-.883,5.258a1.833,1.833,0,0,0-.008.375.6.6,0,0,0,.664.609,4.05,4.05,0,0,0,.688-.078l-.109,1.18a3.847,3.847,0,0,1-1.031.141,1.476,1.476,0,0,1-1.266-.621A2.4,2.4,0,0,1,41.7,36.9l.859-5.234H41.063l.2-1.117H42.75l.359-2.047Zm5.953,1.891a3.047,3.047,0,0,1,1.82.578A3.285,3.285,0,0,1,53.41,32.52a4.8,4.8,0,0,1,.246,2.16l-.016.172a5.685,5.685,0,0,1-.734,2.23,4.309,4.309,0,0,1-1.516,1.551,3.7,3.7,0,0,1-2.039.523,3.052,3.052,0,0,1-1.816-.578,3.21,3.21,0,0,1-1.113-1.531,4.931,4.931,0,0,1-.25-2.133,5.76,5.76,0,0,1,.711-2.359,4.409,4.409,0,0,1,1.527-1.621A3.652,3.652,0,0,1,50.469,30.391Zm-2.875,4.531a4.8,4.8,0,0,0,0,1.023,2.507,2.507,0,0,0,.551,1.469,1.653,1.653,0,0,0,1.262.57,2.253,2.253,0,0,0,1.3-.348,2.919,2.919,0,0,0,1-1.121,4.721,4.721,0,0,0,.523-1.664,7.494,7.494,0,0,0,.023-1.211,2.6,2.6,0,0,0-.57-1.492,1.69,1.69,0,0,0-1.266-.578,2.3,2.3,0,0,0-1.859.859,4.245,4.245,0,0,0-.945,2.313Z" transform="translate(794 2991)" fill="#12263f"/>
  </g>
</svg>
