<svg id="Grupo_165940" data-name="Grupo 165940" xmlns="http://www.w3.org/2000/svg" xmlns:xlink="http://www.w3.org/1999/xlink" width="784.495" height="175.985" viewBox="0 0 784.495 175.985">
  <defs>
    <clipPath id="clip-path">
      <rect id="Rectángulo_41154" data-name="Rectángulo 41154" width="784.495" height="175.985" fill="none"/>
    </clipPath>
  </defs>
  <g id="Grupo_165939" data-name="Grupo 165939" clip-path="url(#clip-path)">
    <path id="Trazado_151493" data-name="Trazado 151493" d="M22.354,352.5c-.01-.029-.029-.048-.038-.076.381-.3.162-1.039-.353-.848a14.88,14.88,0,0,1-2.973.505c-.953.152-1.848.591-2.8.657a5.563,5.563,0,0,0-.544-.515,3.65,3.65,0,0,0-3.03-1c-1.925.343-3.459,2.716-4.612,4.136a26.081,26.081,0,0,1-3.05,3.431c-1.229,1.067-2.9,1.4-4.079,2.449-1.02.9-1.277,2.364-.057,3.212,1.811,1.277,5,.81,7.348.562.4-.038.772-.076,1.106-.1q5.5-.343,11.008-.667c1.648-.1,3.621.162,3.831-1.858.323-3.164-.811-6.929-1.754-9.893" transform="translate(0 -202.916)" fill="#ffa98f"/>
    <path id="Trazado_151494" data-name="Trazado 151494" d="M160.14,309.89a18.12,18.12,0,0,0-10.166-15.88,7.023,7.023,0,0,0,.789-1.436c.226-.57-.7-.818-.919-.253a5.7,5.7,0,0,1-.742,1.308c-.124-.052-.242-.111-.368-.161a.392.392,0,0,0-.549.3c-.087-.039-.176-.07-.261-.112.125-.369-.254-.843-.669-.577-.058.037-.117.071-.175.108l-.035-.019a.468.468,0,0,0-.7.475,96.9,96.9,0,0,1-9.85,5.436c-2.621,1.247-5.534,2.428-7.362,4.8-2.153,2.791-1.912,6.53-1.456,9.831.364,2.629,1.115,5.415,3.18,7.233,2.322,2.044,3.174,3.993,6.108,4.391a34.007,34.007,0,0,0,12.991-.624c3.144-.851,6.823-1.364,8.55-4.471,1.749-3.148,1.808-6.842,1.632-10.344" transform="translate(-73.598 -168.723)" fill="#8c3e32"/>
    <path id="Trazado_151495" data-name="Trazado 151495" d="M71.836,257.282a21.456,21.456,0,0,0,10.332-5.056.483.483,0,0,0-.21-.8,66.491,66.491,0,0,1-13.127-7.642c-4.1-2.932-8.428-5.839-11.887-9.532a20.41,20.41,0,0,1-4.186-6.345c-.778-1.97-.888-4.037-1.42-6.063-.959-3.653-3.737-4.838-7.173-5.541a.419.419,0,0,0-.433-.3c-3.684.1-6.4,2.347-9.37,4.261-3.4,2.188-7.173,3.457-10.177,6.254a24.27,24.27,0,0,0-5.694,8.152,26.273,26.273,0,0,0-.739,24.976,25.447,25.447,0,0,0,13.6,12.161,2,2,0,0,0-.452.01,3.982,3.982,0,0,0-2.414,1.426c-2.635,3.168-1.784,10.063.993,12.883a7.521,7.521,0,0,0,5.3,1.866c3.412.126,6.864-.118,10.277-.2,5.838-.135,12.091-.106,17.839-1.483,1.538-.139,3.071-.334,4.595-.612,4.629-.843,10.951-2.339,14.012-6.276,6.243-8.031-3.412-17.384-9.663-22.144" transform="translate(-8.637 -124.811)" fill="#b35547"/>
    <path id="Trazado_151496" data-name="Trazado 151496" d="M319.051,266.419c.358-.617.184-1.143-.01-1.99-.238-1.041-.135-1.929-1.151-2.6-1.349-.887-3.641-.749-5.164-.893-2.488-.236-4.981-.359-7.477-.423l-6.836-1.867a.477.477,0,0,0-.254.919l.088.024c-3.158,2.416-4.539,5.711-5.187,9.687a.487.487,0,0,0,.46.6,79.185,79.185,0,0,0,11.259.266,32.575,32.575,0,0,0,3.768,1.938c1.193.5,3.3,1.52,4.623.982a1.355,1.355,0,0,0,.775-1.743c-.4-1.217-1.674-.864-2.414-1.47a.675.675,0,0,1,.885-.685q.6-.049,1.2-.107.9-.087,1.8-.193a10.177,10.177,0,0,0,3.262-.548,1.146,1.146,0,0,0,.377-1.9" transform="translate(-169.33 -149.44)" fill="#ffa98f"/>
    <path id="Trazado_151497" data-name="Trazado 151497" d="M300.941,256.562a.43.43,0,0,0-.546.4.462.462,0,0,0-.045.049,47.937,47.937,0,0,0-2.319,5.485q-.68,1.533-1.466,3.016a10.766,10.766,0,0,0-1.447,2.636c-.233,1.546,2.224,2.361,3.462,1.881,1.129-.437,1.812-2.263,2.332-3.2a49.024,49.024,0,0,0,2.827-6c1.155-2.964.019-3.553-2.8-4.271" transform="translate(-170.515 -148.236)" fill="#fff"/>
    <path id="Trazado_151498" data-name="Trazado 151498" d="M235.467,348.688c-.812-.885-2.9-1.328-3.993-1.8-.629-.269-1.255-.569-1.9-.8-.538-.193-1.18-.28-1.747-.486a30.163,30.163,0,0,0-1.6-3.813.5.5,0,0,0-.255-.534c-.018-.035-.032-.071-.05-.105-.247-.467-.887-.174-.879.262a80.673,80.673,0,0,1-9.981,2.333.481.481,0,0,0-.285.7c1.617,2.951,3.695,6.28,6.532,8.234,2.241,1.543,6.752,1.5,9.3,1.294a2.426,2.426,0,0,0,1.588-.69c.865-.578,1.9-.24,2.7-.843a1.518,1.518,0,0,0,.222-2.324c.68-.242,1.037-.675.345-1.43" transform="translate(-124.066 -196.986)" fill="#ffa98f"/>
    <path id="Trazado_151499" data-name="Trazado 151499" d="M224.11,341.632c-1.541-.278-3.89.637-5.417.942-2.28.456-4.547.966-6.806,1.513a.416.416,0,0,0-.3.247.5.5,0,0,0-.252.67c.437.939.935,3.005,1.865,3.563.872.523,2.605-.046,3.5-.257a44.817,44.817,0,0,0,5.61-1.949c.949-.364,2.374-.684,3.045-1.533a2.019,2.019,0,0,0-1.239-3.2" transform="translate(-122.083 -197.371)" fill="#fff"/>
    <path id="Trazado_151500" data-name="Trazado 151500" d="M258.536,215.93a76.1,76.1,0,0,0-8.149-3.293,13.667,13.667,0,0,0-2.26-3.322c-2.129-2.279-4.266-3.8-5.7-6.686-2.07-4.172-8.126-9.812-12.868-10.149-.612-.043,2.013,3.839,2.623,3.882.833.059-4.232,12.644-6.443,19.281.442,2.93.668,5.935,2.1,8.557a.86.86,0,0,1-.345,1.186,16.637,16.637,0,0,0,5,2.975,18.232,18.232,0,0,0,4.132.973,16.615,16.615,0,0,1,5.843,1.927,21.684,21.684,0,0,0,9.511,2.362c2.686.033,3.868-.42,5.33-2.693,1.773-2.757,4.308-6.041,4.847-9.345.44-2.7-1.395-4.533-3.627-5.653" transform="translate(-130.437 -111.217)" fill="#e6b7a8"/>
    <path id="Trazado_151501" data-name="Trazado 151501" d="M145.893,191.914c.442-4.476-2.112-8.8-5.688-11.521-4.547-3.465-9.59-6.566-15.211-7.675-6.254-1.234-11.957.7-17.681,3.2a46.844,46.844,0,0,0-6.635,3.569q-1.593,1.025-3.108,2.165c-.6.448-2.271,2.337-2.951,2.38a34.708,34.708,0,0,0-7.182,1.048,26.73,26.73,0,0,0-4.1,1.673,34.073,34.073,0,0,1-5.09,1.423,37,37,0,0,0-8.706,3.951c-1.894,1.149-1.744,2.982-1.723,5.054a31.661,31.661,0,0,0,13.506,25.347c2.286,3.128,6.895,4.442,10.173,6.47,1.264.781,2.309,1.891,3.6,2.615a11.021,11.021,0,0,0,4.04,1.061c3.3.439,6.572.7,9.8-.3,6-1.866,11.969-4.14,17.164-7.723a47.1,47.1,0,0,0,12.034-12.053c4.217-6.131,6.313-12.988,8.094-20.14a.433.433,0,0,0-.341-.537" transform="translate(-39.181 -99.579)" fill="#e6b7a8"/>
    <path id="Trazado_151502" data-name="Trazado 151502" d="M223.542,202.975s2.519,3.471,4.276,3.5.969-3.192.969-3.192a20.277,20.277,0,0,0-3.233-1.28,14.241,14.241,0,0,0-2.012.976" transform="translate(-129.166 -116.718)" fill="#fff"/>
    <path id="Trazado_151503" data-name="Trazado 151503" d="M197.214,177.383a30.569,30.569,0,0,0,4.4,11.059c3.662,5.718,5.609,4.845,6.263,2.939a16.862,16.862,0,0,0,.4-5.242Z" transform="translate(-113.954 -102.495)" fill="#fff"/>
    <path id="Trazado_151504" data-name="Trazado 151504" d="M225.665,95.94c.209-1.632-.154-2.428,1.861-2.43.667,0,3.575,2.865,4.091,2.409s.417-8.2-.625-10.661c-3.972-9.384-15.921-15.687-25.759-12.92a18.022,18.022,0,0,0-2.467.891c-.62.277-1.561,1.09-2.2,1.175-4.445.583-8.937,2.315-12.115,6.019a20.435,20.435,0,0,0-4.3,11.1,27.526,27.526,0,0,0,.208,5.694,24.272,24.272,0,0,0,.529,2.84,3.073,3.073,0,0,0,.253.98c.081.095,1.373.276,1.294.112.032.065.058.133.09.2a.5.5,0,0,0,.925-.246c0-.055,0-.111,0-.165a6.116,6.116,0,0,0,2.129,1.163,21.852,21.852,0,0,1,4.175,1.6,6.579,6.579,0,0,0,2.27.913c4.576.8,9.34-1.394,13.87-1.7,5.06-.339,10.119.891,15.172.283.086-.01.163-.026.246-.038a53.3,53.3,0,0,1,.356-7.225" transform="translate(-106.368 -41.419)" fill="#ab593f"/>
    <path id="Trazado_151505" data-name="Trazado 151505" d="M199.055,167.821l-1.842,4.037s2.59,6.751,6.576,9.53,9.784,2.144,9.784,2.144l3.748-4.076Z" transform="translate(-113.953 -96.97)" fill="#ffa98f"/>
    <path id="Trazado_151506" data-name="Trazado 151506" d="M202.652,133.872c7.24,4.344,13.954,4.813,18.267,3.891,8.295-1.774,13.223-7.756,14.276-19.759.041-.461.067-.922.1-1.384.264-4.249,1.088-11.755-1.679-15.361a22.529,22.529,0,0,0-9.843-7.782c-4-1.462-8.761-1.267-12.955-.522-7.543,1.341-15.051,5.667-17.1,13.367-1.234,4.628-.665,10.7.306,15.333a18.988,18.988,0,0,0,8.636,12.216" transform="translate(-111.521 -53.382)" fill="#ffa98f"/>
    <path id="Trazado_151507" data-name="Trazado 151507" d="M227.368,129.881c-.023-.023-.046-.046-.072-.068-1.475-1.3-5.6-.735-6.245,1.039a.6.6,0,0,0,.574.735c.957-.03,1.755-.223,2.706-.288.833-.057,2.206.32,2.915-.134a.81.81,0,0,0,.122-1.283" transform="translate(-127.713 -74.597)" fill="#ab593f"/>
    <path id="Trazado_151508" data-name="Trazado 151508" d="M269.22,129.881c.022-.023.046-.046.071-.068,1.475-1.3,5.6-.735,6.245,1.039a.6.6,0,0,1-.574.735c-.957-.03-1.755-.223-2.706-.288-.833-.057-2.206.32-2.915-.134a.809.809,0,0,1-.122-1.283" transform="translate(-155.41 -74.597)" fill="#ab593f"/>
    <path id="Trazado_151509" data-name="Trazado 151509" d="M228.453,140.062a1.746,1.746,0,0,0-.154-.246c-.61-.811-1.409-.417-1.834.363a3.649,3.649,0,0,0-.018,3.046c.311.627,1.008,1.044,1.549.734a1.707,1.707,0,0,0,.668-1.1,4.728,4.728,0,0,0,.058-1.954,2.955,2.955,0,0,0-.269-.839" transform="translate(-130.657 -80.529)" fill="#422c25"/>
    <path id="Trazado_151510" data-name="Trazado 151510" d="M275.054,139.676a1.8,1.8,0,0,0-.16-.246c-.636-.809-1.475-.411-1.923.37a3.5,3.5,0,0,0-.03,3.047,1.277,1.277,0,0,0,1.62.729,1.716,1.716,0,0,0,.7-1.107,4.534,4.534,0,0,0,.068-1.955,2.854,2.854,0,0,0-.279-.838" transform="translate(-157.517 -80.308)" fill="#422c25"/>
    <path id="Trazado_151511" data-name="Trazado 151511" d="M189.541,138.615s-2.592-3.308-5.833-1.887-3.078,10.576,2.268,13.348c4.087,2.119,8.344-.909,8.182-.99s-4.617-10.471-4.617-10.471" transform="translate(-104.907 -78.799)" fill="#ffa98f"/>
    <path id="Trazado_151512" data-name="Trazado 151512" d="M194.247,154.077a2.364,2.364,0,0,1-.023-3.088c.4-.479-.289-1.17-.687-.687a3.372,3.372,0,0,0,.023,4.462c.4.478,1.089-.212.687-.687" transform="translate(-111.348 -86.752)" fill="#e87c5a"/>
    <path id="Trazado_151513" data-name="Trazado 151513" d="M281.65,153.636a2.074,2.074,0,0,0-.507-.281,4.8,4.8,0,0,0-3.449.2c-.593.253-1.234.843-.741,1.5a1.781,1.781,0,0,0,.868.55,5.17,5.17,0,0,0,2.794.162,2.315,2.315,0,0,0,1.063-.484,1.119,1.119,0,0,0,.383-1.058,1.08,1.08,0,0,0-.41-.586" transform="translate(-159.927 -88.474)" fill="#f79274"/>
    <path id="Trazado_151514" data-name="Trazado 151514" d="M219.09,151.951a2.089,2.089,0,0,0-.509-.281,4.805,4.805,0,0,0-3.457.2c-.594.254-1.237.845-.743,1.5a1.781,1.781,0,0,0,.871.551,5.178,5.178,0,0,0,2.8.162,2.32,2.32,0,0,0,1.065-.486,1.12,1.12,0,0,0,.384-1.06,1.085,1.085,0,0,0-.411-.589" transform="translate(-123.771 -87.5)" fill="#f79274"/>
    <path id="Trazado_151515" data-name="Trazado 151515" d="M252.844,167.407c-.244-1.286-1.9-.549-2.714-.491a37.517,37.517,0,0,1-4.443-.116c-.545-.026-1.253-.242-1.586.25a1.293,1.293,0,0,0,.24,1.422,5.677,5.677,0,0,0,4.568,1.5,5.478,5.478,0,0,0,2.29-.6c.636-.363,1.812-1.079,1.644-1.971" transform="translate(-140.972 -96.295)" fill="#d4562f"/>
    <path id="Trazado_151516" data-name="Trazado 151516" d="M221.368,186.838a16.392,16.392,0,0,1-11.61-8.327c-.3-.548-1.141-.058-.839.491a17.311,17.311,0,0,0,12.191,8.773c.612.11.874-.827.258-.937" transform="translate(-120.68 -103.008)" fill="#e87c5a"/>
    <path id="Trazado_151517" data-name="Trazado 151517" d="M222.279,90.359a.509.509,0,0,0-.367-.813c-9.956-.56-22.865,2.347-27.966,11.913-.635,1.192-1.975,9.964-.824,10.092s2.569-4.416,3.093-5.393c1.345-2.506,3.357-5.057,6.025-6.191a3.709,3.709,0,0,0,1.378,2.6.482.482,0,0,0,.491,0,3.676,3.676,0,0,0,1.061-1.453c.455-.763.976-.78,1.762-1.061,1.011-.361,2.011-.756,2.987-1.2a20.83,20.83,0,0,0,5.356-3.428,14.622,14.622,0,0,1,.038,3.228c-.029.568-.138,1.1.321,1.491a.506.506,0,0,0,.589.076,7.518,7.518,0,0,0,2.41-3.035,12.066,12.066,0,0,0,.55-1.215,12.9,12.9,0,0,1,.662,4.57.49.49,0,0,0,.732.42c2.394-1.534,2.36-4.988,1.555-7.89a23.442,23.442,0,0,1,3.421,2.3c.933.761,2.614,2.573,3.816,2.924,1.061.309.586-.926.476-1.87a36.594,36.594,0,0,1,2.813,3.4l2.433,3.395a7.738,7.738,0,0,0,.391-1.582c-.214-6.115-7.619-10.007-13.2-11.273" transform="translate(-111.328 -51.703)" fill="#ab593f"/>
    <path id="Trazado_151518" data-name="Trazado 151518" d="M225.724,83.237c-.121-.613-1.058-.354-.937.258.717,3.632,1.1,7.307-.516,10.762-.264.563.573,1.057.839.491,1.736-3.7,1.386-7.6.614-11.511" transform="translate(-129.558 -47.893)" fill="#943f24"/>
    <path id="Trazado_151519" data-name="Trazado 151519" d="M218.794,97.061a12.284,12.284,0,0,1-2.752,5.783c-.4.473.28,1.164.687.687a13.275,13.275,0,0,0,3-6.212c.116-.611-.821-.873-.938-.258" transform="translate(-124.762 -55.881)" fill="#943f24"/>
    <path id="Trazado_151520" data-name="Trazado 151520" d="M249.432,84.836c-1.717-1.966-4.331-4.784-7.122-4.9-.626-.027-.624.946,0,.972,2.454.1,4.922,2.886,6.435,4.618.412.472,1.1-.218.687-.687" transform="translate(-139.74 -46.186)" fill="#943f24"/>
    <path id="Trazado_151521" data-name="Trazado 151521" d="M258.663,152.43c-.15-1.161-1.082-2.089-1.444-3.179-.2-.591-1.136-.337-.937.258.465,1.4,2.263,3.057.643,4.291-.491.374-.008,1.218.491.839a2.523,2.523,0,0,0,1.248-2.209" transform="translate(-148.068 -86.046)" fill="#e87c5a"/>
    <path id="Trazado_151522" data-name="Trazado 151522" d="M200.628,260.159c-.424-2.315-2.363-4.48-2.488-6.764-.119-2.184,1.021-3.665.268-5.889-.826-2.439-2.223-4.5-2.734-7.079-.221-1.115-.432-2.213-.648-3.305a.773.773,0,0,1-.888-.41c-1.968-3.6-1.817-7.757-2.789-11.647a.9.9,0,0,1-.014-.3,108.041,108.041,0,0,0-5.173-9.89,15.217,15.217,0,0,1,1.584-.378c.6-.108.347-1.026-.253-.919a15.552,15.552,0,0,0-1.823.449c-.234-.4-.464-.8-.7-1.2a.477.477,0,0,0-.823.481c.2.345.4.692.6,1.038-4.655,1.748-8.212,5.588-10.505,10.038a45.677,45.677,0,0,0-3.452,9.41c-.742,2.851-1.237,5.975.009,8.76,1.288,2.879,1.816,5.86,3.288,8.675,1.854,3.545,3.79,7.224,5.29,10.931,1.192,2.942,3.649,5.025,5.692,7.536,1.833,2.253,3.762,2.1,6.613,1.742,2.945-.368,7.286-1.381,9.478-3.567,1.134-1.131.526-3.035-.255-4.674a19.582,19.582,0,0,0-.283-3.037" transform="translate(-98.254 -122.841)" fill="#e6b7a8"/>
    <path id="Trazado_151523" data-name="Trazado 151523" d="M12.614,351.223c-1.925.343-3.459,2.716-4.613,4.136a26.109,26.109,0,0,1-3.05,3.431c-1.229,1.067-2.9,1.4-4.079,2.449-1.02.9-1.277,2.364-.057,3.212,1.81,1.277,5,.81,7.348.562a18.352,18.352,0,0,1,.638-2.687c1.144-3.393,3.431-8.368,6.843-10.1a3.65,3.65,0,0,0-3.03-1" transform="translate(0 -202.916)" fill="#f2ebe6"/>
    <path id="Trazado_151524" data-name="Trazado 151524" d="M250.723,366.245a12.582,12.582,0,0,0-3.026-.972c-.6-.11-.857.809-.253.919a11.637,11.637,0,0,1,2.8.876c.553.256,1.038-.565.481-.823" transform="translate(-142.778 -211.055)" fill="#e87c5a"/>
    <path id="Trazado_151525" data-name="Trazado 151525" d="M255.408,362.47a15.832,15.832,0,0,0-3.646-1.576.477.477,0,0,0-.253.919,14.772,14.772,0,0,1,3.419,1.479.477.477,0,0,0,.481-.823" transform="translate(-145.131 -208.52)" fill="#e87c5a"/>
    <path id="Trazado_151526" data-name="Trazado 151526" d="M259.5,358.934a7.4,7.4,0,0,0-1.221-.512c-.586-.186-.837.734-.253.919a5.978,5.978,0,0,1,.993.415c.542.286,1.024-.536.481-.823" transform="translate(-148.899 -207.088)" fill="#e87c5a"/>
    <path id="Trazado_151527" data-name="Trazado 151527" d="M347.115,276.1H343.7a.477.477,0,0,0,0,.953h3.415a.477.477,0,0,0,0-.953" transform="translate(-198.33 -159.534)" fill="#e87c5a"/>
    <path id="Trazado_151528" data-name="Trazado 151528" d="M346.663,270.547h-3.057a.477.477,0,0,0,0,.953h3.057a.477.477,0,0,0,0-.953" transform="translate(-198.275 -156.327)" fill="#e87c5a"/>
    <path id="Trazado_151529" data-name="Trazado 151529" d="M346.54,265.923a11.95,11.95,0,0,1-1.429.043c-.614-.019-.613.935,0,.953a11.868,11.868,0,0,0,1.429-.043c.606-.054.612-1.008,0-.953" transform="translate(-199.145 -153.653)" fill="#e87c5a"/>
    <path id="Trazado_151530" data-name="Trazado 151530" d="M217.534,221.752c-.238-.563-1.06-.078-.823.481a64.986,64.986,0,0,1,4.708,17.749c.071.6,1.025.609.953,0a66.6,66.6,0,0,0-4.838-18.23" transform="translate(-125.195 -127.988)" fill="#cf9886"/>
    <path id="Trazado_151531" data-name="Trazado 151531" d="M243.024,228.671a47.361,47.361,0,0,1-7.636,17.83c-.352.5.474.981.823.481a48.008,48.008,0,0,0,7.732-18.057c.121-.6-.8-.855-.919-.253" transform="translate(-135.962 -131.932)" fill="#cf9886"/>
    <path id="Trazado_151532" data-name="Trazado 151532" d="M171.215,211.421c-4.236-.321-7.8-.022-10.955,3.053-2.705,2.635-4.939,6.229-5.068,10.091-.149,4.466,2.746,8.358,2.983,12.818a10.257,10.257,0,0,0,1.76,5.054,27.913,27.913,0,0,1,3.407,7.461.477.477,0,0,0,.919-.254,25.059,25.059,0,0,0-1.813-4.841c-.944-1.864-2.5-3.577-3.076-5.609-.495-1.744-.236-3.619-.707-5.394-.438-1.647-1.164-3.2-1.714-4.81-1.516-4.426-.476-8.5,2.418-12.112a11.982,11.982,0,0,1,5.3-4.177,17.005,17.005,0,0,1,6.552-.328c.611.046.608-.906,0-.953" transform="translate(-89.669 -122.104)" fill="#cf9886"/>
    <path id="Trazado_151533" data-name="Trazado 151533" d="M192.041,204.023A29.356,29.356,0,0,0,180.58,196.9c-.582-.2-.832.723-.254.919a28.23,28.23,0,0,1,11.04,6.88.477.477,0,0,0,.674-.674" transform="translate(-104.006 -113.755)" fill="#cf9886"/>
    <path id="Trazado_151534" data-name="Trazado 151534" d="M131.579,296.817c-5.822-1.265-9.777-4.335-13.9-8.475a.477.477,0,0,0-.674.674c4.266,4.289,8.308,7.415,14.317,8.721.6.13.853-.789.253-.919" transform="translate(-67.529 -166.527)" fill="#cf9886"/>
    <path id="Trazado_151535" data-name="Trazado 151535" d="M77.922,336.136a20.222,20.222,0,0,0-9.7,2.47.422.422,0,0,0-.225.284,43.287,43.287,0,0,0-10.863,1.6.477.477,0,0,0,.253.919,42.158,42.158,0,0,1,19.925-.749c.6.121.855-.8.253-.919a43.883,43.883,0,0,0-7.766-.866,19.1,19.1,0,0,1,8.122-1.789.477.477,0,0,0,0-.953" transform="translate(-32.819 -194.225)" fill="#8c3e32"/>
    <path id="Trazado_151536" data-name="Trazado 151536" d="M767.4,351.492a3.745,3.745,0,0,0-1.285-.6c-1.638-.424-3.292-.7-4.932-1.18-2.068-.6-4.1-1.3-6.107-2.072q-2.8-3.859-5.474-7.8a.482.482,0,0,0-.749-.1c-3.2,3.471-7.355,6.015-9.809,10.132-.184-.138-.364-.282-.553-.415-.5-.354-.979.472-.481.823,2.835,1.994,5.141,4.62,7.915,6.685a5.622,5.622,0,0,0,5.776,2.276,43.606,43.606,0,0,1,8.291-.93c2.094.049,4.356.47,6.334-.424,1.588-.717,2.446-3.07,2.156-4.7a2.667,2.667,0,0,0-1.081-1.7" transform="translate(-426.314 -196.231)" fill="#ffa98f"/>
    <path id="Trazado_151537" data-name="Trazado 151537" d="M650.445,382.157c-.846-1.164-2.573-1.475-3.871-1.828-1.989-.541-3.988-1.043-5.984-1.557-1.491-.384-2.309-3.452-2.862-4.736s-.963-3.046-2.067-3.986a.388.388,0,0,0-.568.047.459.459,0,0,0-.144-.027,14.653,14.653,0,0,0-6.844,2.022c-1.578.847-3.411,1.676-4.381,3.233a.471.471,0,0,0-.473.7q1.345,2.271,2.769,4.493c1.511,2.368,2.5,5.5,4.607,7.426,1.335,1.219,2.893,1.332,4.628,1.392,1.7.06,3.4.006,5.1.066a31.675,31.675,0,0,0,4.938.29c2.578-.321,7.15-4.782,5.147-7.537" transform="translate(-360.086 -213.761)" fill="#ffa98f"/>
    <path id="Trazado_151538" data-name="Trazado 151538" d="M445.02,138.491a4.831,4.831,0,0,1-.757-2.5,8.842,8.842,0,0,0-.25-4.32,9.982,9.982,0,0,0-1.637-2.56,23.58,23.58,0,0,0-1.861-2.282c-.52-.494-1.746-1.119-2.443-.667a1.192,1.192,0,0,0-.393,1.213,9.388,9.388,0,0,0,1.464,3.566c-2.342-1.482-3.445-3.548-6.454-3.467a6.1,6.1,0,0,0-1.082.12,2.846,2.846,0,0,0-3.314.009c-.764.652-.765,2.775-.765,2.775s-1.5.93-1.588,1.256a2.664,2.664,0,0,0,.589,2.572,9.2,9.2,0,0,0,.861.973,2.235,2.235,0,0,0-.174,2.167c1.524,3.5,5.832,5.686,8.469,8.228,1,.963,4.491,4.9,4.491,4.9a11.742,11.742,0,0,1,1.819-2.33,66.4,66.4,0,0,0,5.726-6.247,28.184,28.184,0,0,1-2.7-3.415" transform="translate(-246.048 -72.811)" fill="#ffa98f"/>
    <path id="Trazado_151539" data-name="Trazado 151539" d="M726.156,76.439a2.123,2.123,0,0,0-.06-1.568.627.627,0,0,0-.239-.181,1.9,1.9,0,0,0-.027-1.557c-.406-.866-1.327-.614-2.063-.362a8.836,8.836,0,0,0-.838.345c.657-.8.948-1.625.095-2.173-.83-.534-2.067.385-2.746.732-1.818.927-4.052,2.842-6.114,1.907-.168-1.914-.656-5.757-2.667-4.178-.887.7-1.02,3.842-1.248,4.908-.237,1.107-.575,2.237-.7,3.361a4.988,4.988,0,0,0,.026,1.165c-1.825,1.925-3.89,3.644-5.852,5.422a.428.428,0,0,0,.047.683,15.3,15.3,0,0,0,2.8,4.523c.765.873,2.234,3.071,3.487,3.179,1.178.1,2.464-1.6,3.193-2.3a38.376,38.376,0,0,0,3.562-3.971c2.748-1.467,6.017-2.226,8.041-4.73.54-.668,1.946-3.495,1-4.3a4.667,4.667,0,0,0,.3-.9" transform="translate(-406.535 -39.887)" fill="#ffa98f"/>
    <path id="Trazado_151540" data-name="Trazado 151540" d="M573.258,101.395l-.953,13.779,9.282,5.6,10.362-.953,1.246-8.18Z" transform="translate(-330.688 -58.588)" fill="#ffa98f"/>
    <path id="Trazado_151541" data-name="Trazado 151541" d="M597.93,22.492c-.77-6.737-3.922-13.735-9.587-17.694A26.763,26.763,0,0,0,574.6.063C569.85-.2,564.467.287,560.588,3.28A42.094,42.094,0,0,0,556.826,7.2c-4.779.409-8.881,4.422-10.708,8.971-2.437,6.065.6,12.375,2.315,18.186a.5.5,0,0,0,.981-.155c.235,4.7,8.6,4.272,11.843,4.329,3.118.054,6.238-.09,9.355.045,3.372.146,6.718.7,10.1.662,5.151-.054,10.584-.665,13.921-4.948a11.354,11.354,0,0,0,2.3-8.842c.9.015,1.251-2.43,1-2.953" transform="translate(-315.03 0)" fill="#ab593f"/>
    <path id="Trazado_151542" data-name="Trazado 151542" d="M571.964,66.515c10.307,6.763,22.062,4.15,28.255-4.712,2.778-3.976,3.344-9.632,3.361-14.355,0-.463-.011-.925-.021-1.387-.092-4.256-.456-11.21-3.515-14.572a22.524,22.524,0,0,0-10.46-6.931c-4.109-1.123-8.836-.529-12.953.564-7.4,1.967-14.524,6.907-15.925,14.751-.842,4.715.233,10.72,1.589,15.253,1.279,4.278,4.608,7.531,8.018,10.224.529.418,1.088.794,1.65,1.163" transform="translate(-323.814 -13.842)" fill="#ffa98f"/>
    <path id="Trazado_151543" data-name="Trazado 151543" d="M593.127,61.433c-.029-.022-.06-.042-.092-.061-1.89-1.134-6.33.324-6.679,2.411a.674.674,0,0,0,.782.7c1.049-.228,1.891-.6,2.927-.867.908-.232,2.5-.093,3.189-.738a.908.908,0,0,0-.126-1.44" transform="translate(-338.802 -35.233)" fill="#ab593f"/>
    <path id="Trazado_151544" data-name="Trazado 151544" d="M637.1,57.7c.023-.027.048-.054.074-.08,1.536-1.521,6.1-1.084,6.917.869a.66.66,0,0,1-.583.849c-1.051.011-2.078-.173-3.125-.2-.918-.025-2.261.467-3.068-.008A.919.919,0,0,1,637.1,57.7" transform="translate(-367.987 -32.766)" fill="#ab593f"/>
    <path id="Trazado_151545" data-name="Trazado 151545" d="M652.728,82.307a2.184,2.184,0,0,0-.559-.251,5.067,5.067,0,0,0-3.614.515c-.6.319-1.226,1-.648,1.643a1.876,1.876,0,0,0,.963.5,5.461,5.461,0,0,0,2.956-.077,2.445,2.445,0,0,0,1.077-.6,1.182,1.182,0,0,0,.309-1.147,1.139,1.139,0,0,0-.484-.581" transform="translate(-374.239 -47.329)" fill="#f79274"/>
    <path id="Trazado_151546" data-name="Trazado 151546" d="M586.7,87.477a2.194,2.194,0,0,0-.561-.252,5.079,5.079,0,0,0-3.623.517c-.6.32-1.228,1-.649,1.647a1.885,1.885,0,0,0,.966.5,5.466,5.466,0,0,0,2.963-.077,2.453,2.453,0,0,0,1.079-.605,1.184,1.184,0,0,0,.31-1.15,1.144,1.144,0,0,0-.485-.583" transform="translate(-336.081 -50.316)" fill="#f79274"/>
    <path id="Trazado_151547" data-name="Trazado 151547" d="M623.409,98.759a1.232,1.232,0,0,0-.459-.828,2.2,2.2,0,0,0-1.685-.153,37.4,37.4,0,0,1-5.713.529,2.8,2.8,0,0,0-.96.123c-1.244.475-.429,2.166.229,2.785a4.458,4.458,0,0,0,2.077,1.019,5.994,5.994,0,0,0,5.895-1.8,2.6,2.6,0,0,0,.616-1.244,1.545,1.545,0,0,0,0-.43" transform="translate(-354.747 -56.446)" fill="#d4562f"/>
    <path id="Trazado_151548" data-name="Trazado 151548" d="M628.292,84.042c-.261-1.209-1.324-2.1-1.8-3.22-.259-.6-1.226-.255-.964.355.614,1.431,2.654,3.019,1.057,4.461-.484.437.1,1.284.591.841a2.666,2.666,0,0,0,1.119-2.437" transform="translate(-361.413 -46.519)" fill="#e87c5a"/>
    <path id="Trazado_151549" data-name="Trazado 151549" d="M597.005,76.056a3.783,3.783,0,0,0-2.914-.64c-.651.146-2.822,1.19-2.138,2.135.215.3.67.2,1.021.09a7.944,7.944,0,0,1,2.5-.344A2.672,2.672,0,0,0,597,77.08c.627-.4.406-.75.007-1.025" transform="translate(-341.965 -43.532)" fill="#422c25"/>
    <path id="Trazado_151550" data-name="Trazado 151550" d="M644.913,72.577a3.783,3.783,0,0,0-2.914-.64c-.651.146-2.822,1.19-2.138,2.135.215.3.67.2,1.021.089a7.931,7.931,0,0,1,2.5-.343,2.676,2.676,0,0,0,1.526-.216c.627-.4.406-.75.007-1.025" transform="translate(-369.647 -41.522)" fill="#422c25"/>
    <path id="Trazado_151551" data-name="Trazado 151551" d="M590.735,22.132a27.185,27.185,0,0,0-15.123-2.786,34.426,34.426,0,0,0-7.9,2.062,22.436,22.436,0,0,0-7.26,3.676c-4.5,3.873-5.822,9.915-5.621,15.61a.481.481,0,0,0,.086.258c-.143.008-.275.033-.425.031a.5.5,0,0,0,0,1.007,6.1,6.1,0,0,0,5.13-2.508c-.046.26-.107.515-.15.776a.511.511,0,0,0,.74.569c2.183-1.324,3.276-4.362,4.278-6.583a45.951,45.951,0,0,0,2.861-8.631,69.357,69.357,0,0,1,8.623.253,63.022,63.022,0,0,1,8.93,2.365.51.51,0,0,0,.619-.619,3.474,3.474,0,0,0-1.373-2.022c4.14,1.071,8.613,2.269,11.544,4.992a.508.508,0,0,0,.841-.222q.067-.315.1-.617a21.111,21.111,0,0,1,3.021,3,.508.508,0,0,0,.86-.356c-.347-4.653-6.012-8.352-9.781-10.253" transform="translate(-320.111 -11.088)" fill="#ab593f"/>
    <path id="Trazado_151552" data-name="Trazado 151552" d="M555.776,73.228s-2.626-3.581-6.1-2.19-3.61,11.065,1.943,14.175c4.244,2.377,8.844-.677,8.675-.768s-4.522-11.217-4.522-11.217" transform="translate(-316.2 -40.861)" fill="#ffa98f"/>
    <path id="Trazado_151553" data-name="Trazado 151553" d="M560.363,89.6a2.5,2.5,0,0,1,.08-3.262c.434-.492-.265-1.246-.7-.749a3.564,3.564,0,0,0-.127,4.714c.411.519,1.158-.187.749-.7" transform="translate(-322.875 -49.359)" fill="#e87c5a"/>
    <path id="Trazado_151554" data-name="Trazado 151554" d="M593.949,121.461a.432.432,0,0,1-.051,0,50.7,50.7,0,0,1-9.617-2.132c-4.612-1.593-8.751-5.865-8.925-6.046a.477.477,0,0,1,.687-.661c.04.043,4.158,4.288,8.549,5.805A49.607,49.607,0,0,0,594,120.511a.477.477,0,0,1-.051.95" transform="translate(-332.373 -64.989)" fill="#e87c5a"/>
    <path id="Trazado_151555" data-name="Trazado 151555" d="M578.738,21.336q-.932-.76-1.831-1.558c-.54-.481-1.437-1.061-1.689-1.758-.219-.6-1.193-.344-.971.268a4.969,4.969,0,0,0,1.551,1.845q1.087.99,2.228,1.915c.5.406,1.215-.3.712-.712" transform="translate(-331.791 -10.214)" fill="#943f24"/>
    <path id="Trazado_151556" data-name="Trazado 151556" d="M572.533,28.866A49.545,49.545,0,0,1,569.758,40.4c-.225.609.747.871.971.268a50.562,50.562,0,0,0,2.811-11.8c.075-.643-.933-.637-1.007,0" transform="translate(-329.196 -16.402)" fill="#943f24"/>
    <path id="Trazado_151557" data-name="Trazado 151557" d="M561.943,39.638a40.012,40.012,0,0,1-3.4,9.028c-.3.574.57,1.084.87.508a41.151,41.151,0,0,0,3.5-9.269c.154-.629-.817-.9-.971-.268" transform="translate(-322.702 -22.696)" fill="#943f24"/>
    <path id="Trazado_151558" data-name="Trazado 151558" d="M611.168,24.622a24.959,24.959,0,0,0-7.495-2.5c-.634-.1-.907.866-.268.971a24.085,24.085,0,0,1,7.254,2.4c.574.3,1.084-.57.508-.87" transform="translate(-348.448 -12.775)" fill="#943f24"/>
    <path id="Trazado_151559" data-name="Trazado 151559" d="M628.723,21.8c-3.8-5.754-10.459-7.433-16.938-8.156-.643-.072-.638.936,0,1.007,6.089.679,12.483,2.228,16.069,7.657.356.538,1.228.035.87-.508" transform="translate(-353.222 -7.881)" fill="#943f24"/>
    <path id="Trazado_151560" data-name="Trazado 151560" d="M579.776,173.927c-.515,3.183,1.391,5.976.1,9.139a10.25,10.25,0,0,1-4.213,4.708c-5.175,3.126-12.589,2.878-18.393,3.526-6.843.762-13.781,1.983-20.662,2.1-5.718.1-12.18-1.258-16.869-4.7a7.163,7.163,0,0,1-3.2-4.565,11.826,11.826,0,0,1,.457-3.641,32.276,32.276,0,0,0,.057-6.147c-.181-7.148.076-14.3.3-21.443a91.437,91.437,0,0,1,.705-10.826c.439-2.945.934-6.49,2.3-9.168a3.881,3.881,0,0,1,1.639-1.639,22.194,22.194,0,0,1,4.1-1.344c1.125-.353,2.24-.705,3.364-1.058q2.888-.914,5.794-1.83a4.127,4.127,0,0,1,2.392-1.992,2.288,2.288,0,0,1,2.821,1.554,30.153,30.153,0,0,0,7.948,3.7,16.576,16.576,0,0,0,6.071.982,19.4,19.4,0,0,0,2.754-.276c.791-.353,1.582-.686,2.392-.963.133-.048.258-.1.391-.133,1.315-.429,2.259.343,3.4.5.676-.143,1.353-.267,2.049-.353a44.99,44.99,0,0,1,4.965-.41l1.2-.029c2.468-.057,4.918-.029,7.252-.124a.478.478,0,0,1,.458.353c2.135,7.386,1.21,14.991,1.106,22.558-.01.477,0,.944.009,1.411.067,3.374.477,6.7.7,10.083a24.17,24.17,0,0,1-.162,5.442c-.258,1.573-.963,3.031-1.21,4.594" transform="translate(-298.437 -72.21)" fill="#f2e5dc"/>
    <path id="Trazado_151561" data-name="Trazado 151561" d="M490.949,153.4a22.4,22.4,0,0,0-3.627-6.441,28.94,28.94,0,0,0-4.419-5.092c.467-.063.937-.106,1.4-.128.61-.03.614-.983,0-.953a11.033,11.033,0,0,0-4.366.932c-1.81.887-2.322,2.629-3.862,3.726-1.73,1.233-3.842,1.784-5.6,3.062a16.294,16.294,0,0,0-2.086,1.822c-1.661-1.349-4.321-2.043-5.635-3.52-.652-.733-1.049-2.569-2.319-2.568-1.358,0-2.572,2.107-3.338,3a53.476,53.476,0,0,0-7.421,11.2c-.531,1.076-1.069,1.933-.673,3.115.583,1.739,2.349,3.559,3.543,4.936a33.774,33.774,0,0,0,20.872,11.431c3.214.413,7.343.754,10.105-1.266,3.063-2.24,5.2-5.953,6.464-9.457,1.516-4.218,2.268-9.437.958-13.8" transform="translate(-259.364 -81.346)" fill="#f2e5dc"/>
    <path id="Trazado_151562" data-name="Trazado 151562" d="M676.8,112.787c-.705-2.888-3.746-7.348-5.518-9.683-.6-.8-2.1-3.145-3.126-3.478a2.308,2.308,0,0,0-1.734.3c-2.621,1.077-4.47,3.355-6.747,4.956a10.248,10.248,0,0,1-4.184,1.658,5.8,5.8,0,0,0-3.326,1.953c-2.821,2.7-6.967,3.621-10.093,5.832a7.514,7.514,0,0,0-.819.629,9.072,9.072,0,0,0-2.125,2.535.479.479,0,0,0,.829.477,8.458,8.458,0,0,1,1.868-2.249v.029a67.093,67.093,0,0,0,2.449,15.725c.381,1.363.734,4.517,2.106,5.317a5.7,5.7,0,0,1,1.382,1.373c.705.886,1.373,1.763,2.192,1.563a5.2,5.2,0,0,0,1.325-.6c2.2-1.3,5.261-4.184,6.709-5.165,1.668-1.134,2.669-3.012,4.232-4.27,1.9-1.534,6.471-5.642,7-6.89,1.21-1.067,2.392-2.164,3.536-3.316.276-.277.581-.562.9-.848,1.372-1.287,2.916-2.688,3.193-4.413a3.319,3.319,0,0,0-.048-1.43" transform="translate(-369.262 -57.521)" fill="#f2e5dc"/>
    <path id="Trazado_151563" data-name="Trazado 151563" d="M579.663,271.879a77.4,77.4,0,0,1-.8-12.952c0-.315,0-.619-.009-.934v-.21c-.029-1.915.171-3.984.009-5.909a.107.107,0,0,0-.009-.048,4.825,4.825,0,0,0-.057-.534,1.72,1.72,0,0,0-.848-1.553c-3.336-2.259-8.12-.7-11.665-.229a79.606,79.606,0,0,1-14.057.381c-9.835-.448-19.661-1.182-29.506-1.7a.5.5,0,0,0-.581-.457,13.28,13.28,0,0,1-6.69-.467c-.057-.048-1.306.019-1.4,0a.316.316,0,0,0-.1-.01c-1.906-.248-1.382,4.375-1.63,6-.41,2.707-.724,5.432-.953,8.158-.019.324-.048.648-.076.972q-.129,1.816-.228,3.631c-.41,8.158.171,16.1,3.8,23.54,1.486,3.059,3.164,6.328,6.195,8.1,2.84,1.658,6.252,2.154,9.445,2.716,3.64.629,7.4,1.125,11.074.362a17.958,17.958,0,0,0,1.82-.514,39.613,39.613,0,0,0,3.926-.639,120.478,120.478,0,0,0,13.209-3.822,17.6,17.6,0,0,0,7.729,1.182c2.783-.2,6.49-1.02,8.425-3.221,1.077-1.229,1.5-3.021,2.03-4.517.734-2.068,1.573-4.127,2.125-6.242,1.058-3.993-.476-7.2-1.182-11.093" transform="translate(-295.236 -142.867)" fill="#4d68b0"/>
    <path id="Trazado_151564" data-name="Trazado 151564" d="M582.079,219.749a99.017,99.017,0,0,0-1.02-10.579c-.143-1.1-.286-2.192-.439-3.3a117.451,117.451,0,0,0-2.392-13.113,1.059,1.059,0,0,0-1.363-1.01,309.739,309.739,0,0,1-33.785.591c-1.954-.076-9.044-1.42-9.3,1.4a59.807,59.807,0,0,1-3.993,16.716,5.093,5.093,0,0,1-1.277,2.1,5.359,5.359,0,0,1-2.507.953c-2.1.41-6.309,1.144-8.406,1.554a1.131,1.131,0,0,0-.419.124c-.143.1.19.229-.238.829-.267.372-.848,2.287.181,2.106.362-.067.486-.505.62-.848s.562-.686.829-.439c1.753,5.49,6.776,9.4,12.142,11.5.972.381,1.973.715,2.973,1.01.81.238,1.639.448,2.469.648,3.746.887,7.615,1.4,11.408,2.116,4.7.9,9.349,2.106,14.114,2.564s9.721.114,14.029-1.963a11.18,11.18,0,0,0,5.041-4.4,8.584,8.584,0,0,0,.562-1.249,9.087,9.087,0,0,0,.3-.991,17.591,17.591,0,0,0,.467-3.745c.029-.839.029-1.687.019-2.525a.106.106,0,0,0-.009-.048" transform="translate(-298.461 -110.789)" fill="#4d68b0"/>
    <path id="Trazado_151565" data-name="Trazado 151565" d="M542.084,140.444a19.757,19.757,0,0,0-5.118-6.242c-1.125.353-2.24.705-3.364,1.058a22.234,22.234,0,0,0-4.1,1.343c4.05,2.24,6.719,5.976,8.8,10.026,2.354,4.584,4.422,9.521,4.832,14.705a.486.486,0,0,0,.343.429.493.493,0,0,0,.448.486,11.918,11.918,0,0,0,4.384-.362c.248-.067,1.163-.41,1.1-.658-1.973-6.986-3.66-14.391-7.319-20.786" transform="translate(-305.956 -77.544)" fill="#4d68b0"/>
    <path id="Trazado_151566" data-name="Trazado 151566" d="M643.962,158.376c-.848-5.594-1.592-11.265-2.878-16.745a22.743,22.743,0,0,0-1.3-3.917c-.248-.572-.658-1.7-1.135-2.573a5.032,5.032,0,0,0-.381-.6,58.575,58.575,0,0,1-5.785,1.039,54.466,54.466,0,0,1,4.832,12.618c1.115,4.584.963,9.454,2.354,13.952a.477.477,0,0,0,.457.353c1.306-.066,2.6-.143,3.9-.219a.48.48,0,0,0,.458-.6c-.181-1.1-.353-2.2-.524-3.307" transform="translate(-365.462 -77.74)" fill="#4d68b0"/>
    <path id="Trazado_151567" data-name="Trazado 151567" d="M611.833,347.566c-4-5.653-8.386-11.461-14.822-14.474-5.216-2.441-11.5-2.631-16.279.925-1.788,1.331-4.36,3.984-4,6.464a5.194,5.194,0,0,0,3.451,3.771c.142.157.271.322.421.474,1.869,1.885,4.232,2.835,5.8,5.008a32.2,32.2,0,0,0,5.244,5.709,15.869,15.869,0,0,0,2.858,4.094c2.205,2.267,4.036.4,6.482-.884l5.421-2.845a52.27,52.27,0,0,0,5.9-3.111c2.1-1.483.71-3.461-.471-5.13" transform="translate(-333.227 -191.429)" fill="#4d68b0"/>
    <path id="Trazado_151568" data-name="Trazado 151568" d="M706.007,305.419a2.163,2.163,0,0,0-.154-.3c-.094-.151-.468-.079-.612-.254a7.419,7.419,0,0,1-.557-1.25,13.5,13.5,0,0,0-1.568-2.319c-1.2-1.468-2.613-2.742-3.849-4.177a74.062,74.062,0,0,0-7.183-7.826c-2.44-2.062-4.37-4.916-7.306-6.11-4.3-1.748-7.341-2.071-13.144-3.778a66.459,66.459,0,0,0-10.274-1.809c0-.123-.005-.247-.007-.37a.477.477,0,0,0-.953,0c0,.086,0,.173.005.26-.157-.016-.311-.041-.469-.055-.61-.056-.607.9,0,.953.164.015.324.038.487.055.217,10.64,1.5,22.038-2.7,32.029-.117.28-.806,2.713-.524,2.7,3.533-.218,6.551.011,10.027-.692a14.75,14.75,0,0,1,5.122,0c.886.129,3.047-.931,3.931-.9,1.457,1.529,3.353.888,5.387,1.734a10.407,10.407,0,0,1,3.814,2.145c.6.614.984,1.378,1.757,1.81a7.374,7.374,0,0,0,1.953.437c.9.242,1.63.98,2.545,1.08,1.36.148,3.125-1.143,4.2-1.8a27.812,27.812,0,0,0,5.119-4,27.455,27.455,0,0,0,4.191-4.918c.816-1.319,1.384-1.179.759-2.645" transform="translate(-379.703 -159.923)" fill="#4d68b0"/>
    <path id="Trazado_151569" data-name="Trazado 151569" d="M729.836,83.944c-.209-.571-1.131-.324-.919.253a4.774,4.774,0,0,1-.187,3.861c-.273.547.549,1.03.823.481a5.725,5.725,0,0,0,.284-4.6" transform="translate(-421.041 -48.317)" fill="#e87c5a"/>
    <path id="Trazado_151570" data-name="Trazado 151570" d="M744.19,79.663a25.282,25.282,0,0,1-2.169,2.18c-.459.409.217,1.081.674.674a25.282,25.282,0,0,0,2.169-2.18c.4-.458-.268-1.135-.674-.674" transform="translate(-428.664 -45.941)" fill="#e87c5a"/>
    <path id="Trazado_151571" data-name="Trazado 151571" d="M748.179,82.517c-.991,1-2,2.366-3.3,2.965-.556.257-.073,1.079.481.823,1.384-.64,2.437-2.051,3.49-3.114a.477.477,0,0,0-.674-.674" transform="translate(-430.263 -47.598)" fill="#e87c5a"/>
    <path id="Trazado_151572" data-name="Trazado 151572" d="M748.708,91.15l-2.5,2.267c-.455.413.22,1.085.674.674l2.5-2.267c.455-.413-.22-1.085-.674-.674" transform="translate(-431.085 -52.594)" fill="#e87c5a"/>
    <path id="Trazado_151573" data-name="Trazado 151573" d="M457.575,145.279a6.453,6.453,0,0,1-.252-5.362c.22-.573-.7-.821-.919-.253a7.383,7.383,0,0,0,.348,6.1c.279.547,1.1.065.823-.481" transform="translate(-263.43 -80.515)" fill="#e87c5a"/>
    <path id="Trazado_151574" data-name="Trazado 151574" d="M443.944,133.852l-3.385-3.168c-.448-.418-1.123.254-.674.674l3.385,3.167c.448.419,1.123-.254.674-.674" transform="translate(-254.087 -75.435)" fill="#e87c5a"/>
    <path id="Trazado_151575" data-name="Trazado 151575" d="M437.44,138.522q-2.182-1.358-4.263-2.867c-.5-.361-.973.466-.481.823q2.081,1.508,4.263,2.867c.522.325,1-.5.481-.823" transform="translate(-249.899 -78.332)" fill="#e87c5a"/>
    <path id="Trazado_151576" data-name="Trazado 151576" d="M436.358,147.943q-1.9-1.312-3.74-2.7c-.49-.369-.966.458-.481.823q1.843,1.389,3.74,2.7c.506.35.983-.476.481-.823" transform="translate(-249.579 -83.87)" fill="#e87c5a"/>
    <path id="Trazado_151577" data-name="Trazado 151577" d="M569.11,196.84a1.971,1.971,0,0,0-.815-.957c-1.385-.807-3.159.6-3.166,2.07a2.124,2.124,0,0,0,.817,1.668,1.716,1.716,0,0,0,.828.354,2.421,2.421,0,0,0,2.461-1.881,2.152,2.152,0,0,0-.125-1.254" transform="translate(-326.541 -113.048)" fill="#ffbf87"/>
    <path id="Trazado_151578" data-name="Trazado 151578" d="M652.69,194.875a1.976,1.976,0,0,0-1.249-.138c-1.561.362-1.887,2.6-.886,3.678a2.125,2.125,0,0,0,1.739.654,1.718,1.718,0,0,0,.846-.31,2.42,2.42,0,0,0,.5-3.056,2.151,2.151,0,0,0-.951-.827" transform="translate(-375.572 -112.496)" fill="#ffbf87"/>
    <path id="Trazado_151579" data-name="Trazado 151579" d="M589.646,209.6c.715-.659,10.8.159,14.057,0s7.7-1.033,8.5-.477,1.271,10.484,0,13.422-6.425,3.795-12.508,3.812c-4.408.012-7.942-1.242-9.332-3.812-1.153-2.133-1.43-12.286-.715-12.945" transform="translate(-340.481 -120.729)" fill="#7b93d1"/>
    <path id="Trazado_151580" data-name="Trazado 151580" d="M633.787,368.572c-.766-.743-1.25-.678-2.227-.332a10.241,10.241,0,0,0-1.4.708,31.247,31.247,0,0,1-3.54,1.442,66.166,66.166,0,0,0-8.2,4.178,31.591,31.591,0,0,1-3.835,1.332c-.92.372-2.969,1.692-2.19,2.934.623.993,1.6,1.721,2.192,2.711.431.72.413,1.283,1.289,1.7a3.644,3.644,0,0,0,2.49.063,42.573,42.573,0,0,0,9.557-4.025q2.4-1.251,4.677-2.7c.966-.615,2.653-1.36,3.191-2.5.768-1.625-.913-4.45-2.007-5.511" transform="translate(-353.754 -212.632)" fill="#7b93d1"/>
    <path id="Trazado_151581" data-name="Trazado 151581" d="M750.206,341.575c-.289-.557-.729-1.643-1.39-1.849-1.077-.335-2.981,1.039-3.357,1.723a9.972,9.972,0,0,1-1.47,1.769,16.028,16.028,0,0,1-2.075,2.319,22.793,22.793,0,0,1-3.76,2.551,9.029,9.029,0,0,0-1.639,1.523c-1.167,1.427-1.385,2.117-3.583,2.718-2.72.743-1.763,1.725-.114,4.273a.431.431,0,0,0,.053.054c.739,1.374,2.348,1.642,3.863.941,1.467-.678,2.56-2.111,3.869-3.024s2.723-1.648,4.075-2.484c2.016-1.246,5.372-3.828,6.5-6.035.821-1.608-.216-3.023-.971-4.479" transform="translate(-422.513 -196.27)" fill="#7b93d1"/>
    <path id="Trazado_151582" data-name="Trazado 151582" d="M567.51,194.913c-.217-.567-1.138-.321-.919.253a12.547,12.547,0,0,1,.6,1.967c.213,1.042.544,2.064-.6,2.55a18.4,18.4,0,0,1-4.92.837l-.906-5.717c-.1-.6-1.014-.348-.919.253q.484,3.055.968,6.11a.474.474,0,0,0,.459.35c1.2-.144,2.389-.311,3.576-.522.789-.14,2.68-.155,3.253-.78.973-1.06-.182-4.231-.59-5.3" transform="translate(-323.483 -112.361)" fill="#354f96"/>
    <path id="Trazado_151583" data-name="Trazado 151583" d="M652.182,198.487c-.79.037-1.579.088-2.366.17-.581.061-1.794.427-2.3.16-.447-.233-.361-.525-.444-1.058q-.094-.6-.188-1.2-.206-1.315-.413-2.631c-.1-.6-1.014-.347-.919.253q.263,1.674.526,3.348c.1.646.046,1.707.592,2.181.456.4,1.091.166,1.628.087a38.544,38.544,0,0,1,3.887-.363c.61-.028.614-.981,0-.953" transform="translate(-373.006 -111.859)" fill="#354f96"/>
    <path id="Trazado_151584" data-name="Trazado 151584" d="M528.7,245.374a31.576,31.576,0,0,1-3.54,6.709c-1.489,2.126-3.472,4.843-5.951,5.837-.562.226-.317,1.148.253.919,4.955-1.989,8.337-8.533,10.156-13.212.222-.572-.7-.82-.919-.253" transform="translate(-299.823 -141.596)" fill="#354f96"/>
    <path id="Trazado_151585" data-name="Trazado 151585" d="M593.728,306.09c-1.784-3.846-3.3-8.475-6.5-11.42-3.01-2.772-7.015-2.774-10.869-2.445a75.729,75.729,0,0,0-14.874,2.825.477.477,0,0,0,.253.919,74.57,74.57,0,0,1,13.74-2.71c4.512-.44,9.088-.545,12.2,3.32,2.422,3,3.8,6.933,5.414,10.4,1.875,4.043,4.344,8.187,5.163,12.595.112.6,1.031.347.919-.253-.86-4.632-3.485-9-5.449-13.231" transform="translate(-324.242 -168.768)" fill="#354f96"/>
    <path id="Trazado_151586" data-name="Trazado 151586" d="M578.343,351.152a31.837,31.837,0,0,1-8.123-10.968c-.252-.559-1.073-.074-.823.481a32.366,32.366,0,0,0,6.117,9.083c-2.876-.285-5.331-1.785-7.631-3.478-.494-.364-.97.463-.481.823,2.6,1.913,5.38,3.53,8.675,3.664a.417.417,0,0,0,.313-.112q.622.6,1.28,1.181c.46.4,1.137-.269.674-.674" transform="translate(-327.735 -196.421)" fill="#354f96"/>
    <path id="Trazado_151587" data-name="Trazado 151587" d="M671.1,284.13a92.193,92.193,0,0,0-7.033,10.92,82.621,82.621,0,0,0,2.571-13.213c.068-.609-.886-.6-.953,0a81.129,81.129,0,0,1-4.216,18.272c-.179.5.639.856.871.367a92.158,92.158,0,0,1,9.583-15.864c.368-.491-.459-.966-.823-.481" transform="translate(-382.193 -162.587)" fill="#354f96"/>
    <path id="Trazado_151588" data-name="Trazado 151588" d="M657.457,328.1a15.719,15.719,0,0,1-2.421,7.36c-.327.521.5,1,.823.481a16.785,16.785,0,0,0,2.55-7.841c.044-.612-.91-.609-.953,0" transform="translate(-378.447 -189.317)" fill="#354f96"/>
    <path id="Trazado_151589" data-name="Trazado 151589" d="M710.331,333.618c-1.872,3.393-3.883,6.826-7.3,8.748.794-2.488,2.235-4.723,2.886-7.27a.477.477,0,0,0-.919-.253c-.724,2.833-2.435,5.277-3.134,8.12,0,.01,0,.018,0,.027-.372.3.069.972.583.751,4.234-1.818,6.573-5.775,8.706-9.642.3-.537-.526-1.019-.823-.481" transform="translate(-405.469 -192.635)" fill="#354f96"/>
    <path id="Trazado_151590" data-name="Trazado 151590" d="M579.33,273.628c-.257.076-.524.143-.781.21a59.031,59.031,0,0,1-9.645,1.2c-6.833.562-13.848-.705-20.547.858-3.164.743-6.185.486-9.4.5a51.749,51.749,0,0,0-5.566.372c-1.563.172-3.117.382-4.68.591-5.671.753-11.446,1.325-16.955-.267.029-.324.057-.648.076-.972,5.632,1.668,11.532,1,17.326.229l1.763-.229a67.347,67.347,0,0,1,7.586-.667c3.268-.057,6.356.277,9.587-.476,5.871-1.382,11.722-.362,17.689-.677,4.069-.219,8.873-.229,13.056-1.458.162-.048.315-.1.477-.152.009.315.009.619.009.934" transform="translate(-295.704 -157.567)" fill="#354f96"/>
    <path id="Trazado_151591" data-name="Trazado 151591" d="M611.925,212.633a147.656,147.656,0,0,1-28.213.844c-.612-.04-.61.913,0,.953a147.654,147.654,0,0,0,28.213-.844c.6-.076.608-1.03,0-.953" transform="translate(-337.014 -122.86)" fill="#4d68b0"/>
    <path id="Trazado_151592" data-name="Trazado 151592" d="M466.84,180a2.832,2.832,0,0,0-4.322,1.361,2.623,2.623,0,0,0,.178,2.091c.007.016.011.032.018.047a2.229,2.229,0,0,0,.163.253c.037.055.066.114.106.166a2.381,2.381,0,0,0,.361.378c.042.038.081.078.126.114s.109.074.166.11a2.732,2.732,0,0,0,1.653.525,2.04,2.04,0,0,0,1.01-.316,2.578,2.578,0,0,0,.744-.442,2.834,2.834,0,0,0-.2-4.286" transform="translate(-267.169 -103.691)" fill="#fff"/>
    <path id="Trazado_151593" data-name="Trazado 151593" d="M523.351,209.063a2.832,2.832,0,0,0-4.322,1.361,2.623,2.623,0,0,0,.178,2.091c.007.016.01.032.018.047a2.228,2.228,0,0,0,.163.254c.037.054.066.114.106.166a2.417,2.417,0,0,0,.361.378c.042.038.081.078.126.114s.11.075.166.11a2.73,2.73,0,0,0,1.653.525,2.044,2.044,0,0,0,1.01-.316,2.59,2.59,0,0,0,.744-.443,2.834,2.834,0,0,0-.2-4.286" transform="translate(-299.822 -120.485)" fill="#fff"/>
    <path id="Trazado_151594" data-name="Trazado 151594" d="M578.218,165.184a2.832,2.832,0,0,0-4.322,1.361,2.623,2.623,0,0,0,.178,2.091c.007.016.011.032.018.047a2.226,2.226,0,0,0,.163.254c.037.054.066.114.107.166a2.374,2.374,0,0,0,.361.378c.042.038.081.078.126.114s.109.075.166.11a2.732,2.732,0,0,0,1.653.525,2.04,2.04,0,0,0,1.01-.316,2.579,2.579,0,0,0,.744-.442,2.833,2.833,0,0,0-.2-4.286" transform="translate(-331.525 -95.131)" fill="#fff"/>
    <path id="Trazado_151595" data-name="Trazado 151595" d="M635.9,176.47a2.832,2.832,0,0,0-4.322,1.361,2.623,2.623,0,0,0,.178,2.091c.007.016.011.032.018.047a2.226,2.226,0,0,0,.163.254c.037.054.066.114.107.166a2.4,2.4,0,0,0,.361.378c.042.038.082.078.126.114s.109.075.166.11a2.727,2.727,0,0,0,1.652.525,2.044,2.044,0,0,0,1.01-.316,2.588,2.588,0,0,0,.744-.443,2.833,2.833,0,0,0-.2-4.286" transform="translate(-364.856 -101.652)" fill="#fff"/>
    <path id="Trazado_151596" data-name="Trazado 151596" d="M669.713,165.184a2.832,2.832,0,0,0-4.322,1.361,2.623,2.623,0,0,0,.178,2.091c.007.016.011.032.018.047a2.209,2.209,0,0,0,.163.254c.037.054.066.114.106.166a2.392,2.392,0,0,0,.361.378c.042.038.081.078.126.114s.109.075.166.11a2.73,2.73,0,0,0,1.652.525,2.04,2.04,0,0,0,1.01-.316,2.578,2.578,0,0,0,.744-.442,2.833,2.833,0,0,0-.2-4.286" transform="translate(-384.393 -95.131)" fill="#fff"/>
    <path id="Trazado_151597" data-name="Trazado 151597" d="M723.1,133.935c-.277,1.725-1.82,3.126-3.193,4.413a2.1,2.1,0,0,1-.191-.22c-.038-.048-.067-.1-.1-.162a1.463,1.463,0,0,1-.162-.257c-.009-.009-.009-.028-.019-.048a2.64,2.64,0,0,1-.181-2.087,2.852,2.852,0,0,1,3.85-1.639" transform="translate(-415.518 -77.239)" fill="#fff"/>
    <path id="Trazado_151598" data-name="Trazado 151598" d="M527.393,154.46a2.832,2.832,0,0,0-4.322,1.361,2.623,2.623,0,0,0,.178,2.091c.007.016.01.032.018.047a2.291,2.291,0,0,0,.163.254c.037.054.066.114.107.165a2.375,2.375,0,0,0,.361.378c.042.038.081.078.126.114s.109.074.165.11a2.733,2.733,0,0,0,1.653.525,2.041,2.041,0,0,0,1.01-.316,2.58,2.58,0,0,0,.744-.442,2.834,2.834,0,0,0-.2-4.286" transform="translate(-302.158 -88.934)" fill="#fff"/>
    <path id="Trazado_151599" data-name="Trazado 151599" d="M611.1,140.457a2.561,2.561,0,0,1-.744.439,2.034,2.034,0,0,1-1.01.315,2.7,2.7,0,0,1-1.649-.524c-.057-.038-.114-.067-.171-.105a1.386,1.386,0,0,1-.124-.114,2.294,2.294,0,0,1-.362-.381c-.038-.048-.067-.114-.1-.162a1.479,1.479,0,0,1-.162-.258c-.009-.019-.009-.028-.019-.047a2.647,2.647,0,0,1-.3-1.4,19.407,19.407,0,0,0,2.754-.276c.791-.353,1.582-.686,2.392-.963a2.79,2.79,0,0,1-.5,3.478" transform="translate(-350.413 -79.149)" fill="#fff"/>
    <path id="Trazado_151600" data-name="Trazado 151600" d="M681.77,119.934a2.832,2.832,0,0,0-4.322,1.361,2.623,2.623,0,0,0,.178,2.091c.007.016.011.032.018.047a2.275,2.275,0,0,0,.163.254c.037.054.066.114.107.166a2.374,2.374,0,0,0,.361.378c.042.038.081.078.126.114s.109.074.166.11a2.732,2.732,0,0,0,1.653.525,2.04,2.04,0,0,0,1.01-.316,2.578,2.578,0,0,0,.744-.442,2.833,2.833,0,0,0-.2-4.286" transform="translate(-391.359 -68.985)" fill="#fff"/>
    <path id="Trazado_151601" data-name="Trazado 151601" d="M499.487,169.718c-.721-1.762-2.046-3.26-2.473-5.13-.128-.559-.93-.369-.922.147a.405.405,0,0,0-.452.454q.473,5.394.442,10.8a.477.477,0,0,0,.953,0q.027-4.8-.349-9.57c.345.7.757,1.365,1.153,2.074a14.212,14.212,0,0,1,1.742,5.746c.055.606,1.008.612.953,0a15.466,15.466,0,0,0-1.048-4.526" transform="translate(-286.388 -94.905)" fill="#dbc7ba"/>
    <path id="Trazado_151602" data-name="Trazado 151602" d="M531.095,200.072a32.889,32.889,0,0,1-7.075,10.165c-.439.429.235,1.1.674.674a33.541,33.541,0,0,0,7.224-10.358c.248-.555-.573-1.04-.823-.481" transform="translate(-302.705 -115.462)" fill="#dbc7ba"/>
    <path id="Trazado_151603" data-name="Trazado 151603" d="M588.2,134.436c-3.631,2.009-8.057,1.3-11.925.391-3.754-.886-7.288-2.431-9.816-5.443-.395-.47-1.114.155-.72.625,2.8,3.334,6.77,4.977,10.945,5.879,3.944.852,8.263,1.435,11.938-.6.535-.3.117-1.153-.421-.855" transform="translate(-326.83 -74.664)" fill="#dbc7ba"/>
    <path id="Trazado_151604" data-name="Trazado 151604" d="M671.3,130.818c.079-.606-.874-.6-.953,0a61.965,61.965,0,0,1-2.28,10.314c-.16-3.572-.549-7.153-.738-10.634-.033-.61-.986-.614-.953,0,.42,7.779,1.889,16.133-.608,23.671-.193.584.727.834.919.254a32.828,32.828,0,0,0,1.449-10.464c0-.008.009-.011.011-.019a63.5,63.5,0,0,0,3.152-13.121" transform="translate(-384.677 -75.139)" fill="#dbc7ba"/>
    <path id="Trazado_151605" data-name="Trazado 151605" d="M674.622,410.863a9.974,9.974,0,0,1-1.419-.3.477.477,0,0,0-.253.919,11.613,11.613,0,0,0,1.673.331c.606.078.6-.876,0-.953" transform="translate(-388.647 -237.22)" fill="#e87c5a"/>
    <path id="Trazado_151606" data-name="Trazado 151606" d="M682.039,399.5a7.648,7.648,0,0,0-2.487-.977c-.6-.12-.855.8-.253.919a6.86,6.86,0,0,1,2.26.88c.525.32,1-.5.481-.823" transform="translate(-392.311 -230.27)" fill="#e87c5a"/>
    <path id="Trazado_151607" data-name="Trazado 151607" d="M680.423,405.5a6.619,6.619,0,0,0-1.724-.593c-.6-.115-.856.8-.253.919a5.725,5.725,0,0,1,1.5.5c.547.273,1.03-.548.481-.823" transform="translate(-391.819 -233.954)" fill="#e87c5a"/>
    <path id="Trazado_151608" data-name="Trazado 151608" d="M803.066,377.818a4.086,4.086,0,0,0-2.763-.542c-.595.147-.343,1.066.254.919a3.079,3.079,0,0,1,2.029.446c.551.262,1.035-.559.481-.823" transform="translate(-462.232 -217.952)" fill="#e87c5a"/>
    <path id="Trazado_151609" data-name="Trazado 151609" d="M805.185,373.274a2.786,2.786,0,0,0-1.866-.228c-.6.129-.346,1.048.253.919a1.7,1.7,0,0,1,1.131.132c.55.266,1.034-.555.481-.823" transform="translate(-463.974 -215.513)" fill="#e87c5a"/>
    <path id="Trazado_151610" data-name="Trazado 151610" d="M805.31,368.466a2.312,2.312,0,0,0-1.441-.208c-.6.094-.347,1.012.253.919a1.166,1.166,0,0,1,.707.112c.55.266,1.034-.556.481-.823" transform="translate(-464.29 -212.766)" fill="#e87c5a"/>
    <path id="Trazado_151611" data-name="Trazado 151611" d="M1297.475,319.411a1.584,1.584,0,0,0,.147-1.583,9.47,9.47,0,0,0-2.921-3.388c-2.056-1.512-6.614-4.138-6.614-4.138l-6.373-14.726a42.767,42.767,0,0,1-4.853,3.117c-2.447.97-4.957,1.849-7.349,2.946a.433.433,0,0,0-.071.052l-.737-.978c-.379-.5-1.239-.01-.855.5l8.916,13.3c.009.011.02.016.029.026a18.775,18.775,0,0,0,2.137,5.554c1.1,1.638,3.9,2.065,5.807,2.447.81.162,2.484.412,2.756-.679.172-.69-.474-1.24-1.311-1.671l.554.018a11.211,11.211,0,0,1,4.351.532,8.387,8.387,0,0,0,2.3.9c.618.071,1.07.081,1.293-.6,0-.006,0-.013,0-.019,1.627.427,3.521.542,2.869-1.42-.021-.062-.054-.122-.077-.184" transform="translate(-732.53 -170.789)" fill="#ffa98f"/>
    <path id="Trazado_151612" data-name="Trazado 151612" d="M1322.77,347.84a9.852,9.852,0,0,0-4.81-2.933.5.5,0,0,0-.263.955,8.939,8.939,0,0,1,4.373,2.678.5.5,0,0,0,.7-.7" transform="translate(-761.184 -199.284)" fill="#e87c5a"/>
    <path id="Trazado_151613" data-name="Trazado 151613" d="M1327.262,342.7a11.18,11.18,0,0,0-5.6-3.2c-.62-.144-.884.811-.263.955a10.219,10.219,0,0,1,5.166,2.94c.442.461,1.141-.239.7-.7" transform="translate(-763.32 -196.166)" fill="#e87c5a"/>
    <path id="Trazado_151614" data-name="Trazado 151614" d="M1305.851,350.932a4.417,4.417,0,0,0-1.865-.257c-.631.048-.636,1.039,0,.99a3.729,3.729,0,0,1,1.6.221c.6.219.858-.738.263-.955" transform="translate(-753.191 -202.618)" fill="#e87c5a"/>
    <path id="Trazado_151615" data-name="Trazado 151615" d="M1246.522,334.06a6.469,6.469,0,0,0-3.049-1.607c-1.5-.489-2.959-1.069-4.442-1.6-.678-.244-1.486-.353-2.2-.612-.556-1.648-2.905-9.432-3.682-10.99a.626.626,0,0,0-.321-.673c-.023-.043-.041-.089-.063-.132-.311-.588-1.117-.22-1.106.33-4.129,1.242-9.074,3.65-13.331,4.361a.605.605,0,0,0-.358.881c2.036,3.716,7.079,12.674,10.651,15.134,2.822,1.943,8.5,1.887,11.714,1.629a3.054,3.054,0,0,0,2-.868c1.09-.729,2.394-.3,3.4-1.062a1.911,1.911,0,0,0,.28-2.925c.283.393.95-1.138.675-1.615a2.047,2.047,0,0,0-.169-.249" transform="translate(-703.721 -183.83)" fill="#ffa98f"/>
    <path id="Trazado_151616" data-name="Trazado 151616" d="M1276.627,355.389a8.7,8.7,0,0,0-4.4-1.577c-.635-.052-.632.939,0,.99a7.719,7.719,0,0,1,3.9,1.442c.521.369,1.016-.489.5-.855" transform="translate(-734.842 -204.437)" fill="#e87c5a"/>
    <path id="Trazado_151617" data-name="Trazado 151617" d="M1273.318,361.352a10.853,10.853,0,0,0-5.089-1.571c-.635-.051-.632.939,0,.99a10.069,10.069,0,0,1,4.589,1.435c.519.371,1.015-.488.5-.855" transform="translate(-732.53 -207.887)" fill="#e87c5a"/>
    <path id="Trazado_151618" data-name="Trazado 151618" d="M1265.33,365.268l-4.329-.837c-.622-.12-.889.833-.263.955l4.329.837c.623.12.889-.833.263-.955" transform="translate(-728.27 -210.568)" fill="#e87c5a"/>
    <path id="Trazado_151619" data-name="Trazado 151619" d="M906.356,341.452c-.01-.04-.04-.06-.049-.1.495-.386.208-1.346-.456-1.1a19.634,19.634,0,0,1-3.861.653,15.644,15.644,0,0,0-2,.525c-.049.02-.109.03-.158.049a7.54,7.54,0,0,1-1.485.277,7.378,7.378,0,0,0-.7-.663,5.319,5.319,0,0,0-2.158-1.208,3.707,3.707,0,0,0-1.554-.129,1.544,1.544,0,0,0-.228.03c-2.5.445-4.495,3.534-5.99,5.376a34.606,34.606,0,0,1-3.96,4.455c-1.6,1.386-3.762,1.821-5.306,3.187-1.316,1.158-1.653,3.069-.069,4.168a2.352,2.352,0,0,0,.237.149,5.326,5.326,0,0,0,.634.327,1.44,1.44,0,0,0,.218.089c2.406.93,5.831.445,8.455.168.524-.049,1-.1,1.435-.129q5.272-.327,10.544-.634c1.257-.079,2.5-.149,3.752-.228,2.148-.129,4.712.208,4.98-2.416.426-4.108-1.049-9-2.277-12.85" transform="translate(-506.931 -196.301)" fill="#ffa98f"/>
    <path id="Trazado_151620" data-name="Trazado 151620" d="M899.99,341.432c-.049.02-.109.03-.158.049a7.5,7.5,0,0,1-1.406.268.221.221,0,0,1-.079.01,7.378,7.378,0,0,0-.7-.663c-.04-.04-.079-.069-.119-.109a5.388,5.388,0,0,0-2.039-1.1,3.707,3.707,0,0,0-1.554-.129,1.544,1.544,0,0,0-.228.03c-2.5.445-4.495,3.534-5.99,5.376a34.606,34.606,0,0,1-3.96,4.455c-1.6,1.386-3.762,1.821-5.306,3.187-1.316,1.158-1.653,3.069-.069,4.168a2.352,2.352,0,0,0,.237.149,5.326,5.326,0,0,0,.634.327,1.44,1.44,0,0,0,.218.089c2.406.93,5.831.445,8.455.168.524-.049,1-.1,1.435-.129,2.564-.158,5.138-.317,7.7-.465l.98-.06c.624-.04,1.237-.069,1.861-.109.138-3.613.1-9.642.089-15.513" transform="translate(-506.931 -196.301)" fill="#f2ebe6"/>
    <path id="Trazado_151621" data-name="Trazado 151621" d="M1061.294,281.162a17.9,17.9,0,0,0-4.353.258q-2.4.206-4.8.412c-2.792.243-5.585.5-8.36.9-4.187.608-10.586,1.2-13.476,4.787a5.068,5.068,0,0,0-.99,4.93,9,9,0,0,1,.869,3.874c-.043.6-.094,1.2-.143,1.8a39.033,39.033,0,0,0-5.61.93c-1.921.473-4.141.989-4.918,3.039s-.262,4.935-.261,7.079q0,5.331.006,10.662a.5.5,0,0,0,.495.495c7.19.171,14.38.368,21.572.443,5.6.059,11.825.545,16.966-2.116,5.124-2.651,5.925-8.1,5.933-13.14a182.161,182.161,0,0,0-.99-20.975c.051.183.044-3.027-1.937-3.38" transform="translate(-588.842 -162.415)" fill="#ab6563"/>
    <path id="Trazado_151622" data-name="Trazado 151622" d="M1020.723,214.69c-.406-9.108-2.306-18.087-4.524-26.9-1.643-6.5-4.455-14.335-11.939-15.4a.5.5,0,0,0-.257-.752c-6.147-1.931-12.523-1.614-18.849-1.05a42,42,0,0,0-6.524,1.1c-.347.079-.683.179-1.02.277a29.8,29.8,0,0,0-10.6,5.316,24.878,24.878,0,0,0-7.5,10.444c-.129.317-.247.624-.366.941-2.168,5.881-2.861,12.474-3.782,18.651a52.038,52.038,0,0,1-4.426,14.068c-1.722,3.841-1.91,7.91-1.91,12.038a7.86,7.86,0,0,0-5.9,1.653c-.475.386-.8.911-1.247,1.307a7.531,7.531,0,0,1-2.97,1.218,6.8,6.8,0,0,0-3.307,2.237c-2,2.515-2,5.92-1.614,8.96.4,3.207,1.287,8.059,3.554,10.573a3.632,3.632,0,0,0,2.366,1.119,53.8,53.8,0,0,0,6.792.465,76.737,76.737,0,0,0,12.87-.723A30.705,30.705,0,0,0,970.174,257c3.208-1.772,7.366-3.2,9.543-6.079,2.693-3.574,4.663-7.92,6.593-11.989a42.4,42.4,0,0,0,2.119-6.039c3.5-.416,7.385.258,10.721.04a37.9,37.9,0,0,0,11.474-2.4c3.01-1.188,6.188-2.871,8.2-5.474,2.317-2.98,2.059-6.791,1.9-10.375" transform="translate(-539.554 -98.318)" fill="#d18f88"/>
    <path id="Trazado_151623" data-name="Trazado 151623" d="M1260.817,226.289c-.758-2.286-.345-4.694-1.1-6.972-.873-2.626-2.175-4.68-2.318-7.546a47.152,47.152,0,0,0-4.007-15.875c-1.755-4.227-4.111-8.074-7.845-10.812-.406-.3-.792.174-.688.57a.477.477,0,0,0-.115.031c-3.994,1.987-6.275,5.992-8.469,9.7-2.442,4.128-4.76,8.824-4.148,13.764.287,2.311,1.376,4.365,1.961,6.594.664,2.53.411,5.127.8,7.69.661,4.388,4.42,6.6,6.251,10.433,1.467,3.069,2.967,5.988,6.811,5.993,4.452.006,9.486-2.113,13.275-4.328,3.57-2.087.564-6.322-.4-9.241" transform="translate(-711.886 -106.89)" fill="#f0995b"/>
    <path id="Trazado_151624" data-name="Trazado 151624" d="M1161.756,171.55a46.422,46.422,0,0,0-3.653-5.861,17.37,17.37,0,0,0-7.049-5.792c-1.208-1.663-2.435-3.307-3.7-4.91-3.346-4.227-8.148-6.326-13.494-5.019a.475.475,0,0,0-.188.089,19.93,19.93,0,0,0-4.168.564c-1.94.485-3.772,1.307-5.712,1.752a28.339,28.339,0,0,1-6.138.406,40.3,40.3,0,0,0-10.9,2.238c-.594.188-1.168.376-1.742.564a36.786,36.786,0,0,0-5.613.287c-2.752.366-5.524,1.653-8.276,1.772-1.406.059-5.2-1.3-6.187-.178a6.2,6.2,0,0,0-.634.891c-1.059-.247-2.306-.465-2.811.534-.445.891-.218,2.445-.267,3.415-.1,1.911-.178,3.822-.218,5.732a205.637,205.637,0,0,0,.624,21.958,121.84,121.84,0,0,0,3.257,20.79c.8,3.069,1.376,6.91,2.832,9.731.811,1.584,2.217,1.653,3.742,1.317a13.887,13.887,0,0,0,1.565-.01,17.751,17.751,0,0,0,6.494,1.881c.317.03.634.059.96.069.653.049,1.316.06,1.98.049a65.208,65.208,0,0,0,15.008-2.059,21.541,21.541,0,0,0,3.91-1.426c.336-.149.663-.317.98-.5a21.443,21.443,0,0,0,5.841-4.653c.564-.267,1.128-.545,1.683-.861,1.406-.792,2.3-1.821,3.881-1.98a10.842,10.842,0,0,0,2.515-.485,34.648,34.648,0,0,0,10.425-5.336c1.327-1.079,1.763-4.277,2.614-5.722a20.567,20.567,0,0,1,4.109-4.534,22.473,22.473,0,0,0,6.207-9.019c.594-1.742.871-3.574,1.3-5.355.475-2.02,1.742-3.861,2.089-5.861.277-1.643-.505-3.089-1.257-4.484" transform="translate(-624.584 -86.431)" fill="#ffbf87"/>
    <path id="Trazado_151625" data-name="Trazado 151625" d="M1223.093,138.766l-9.167,11.038,4.427,10.354,9.314,5.485,9.9-7.791Z" transform="translate(-701.428 -80.182)" fill="#ffa98f"/>
    <path id="Trazado_151626" data-name="Trazado 151626" d="M1260.176,70.552c-.016-2.992-1.708-6.916-2.546-8.8a22.852,22.852,0,0,0-7.588-9.573c-4.18-2.921-10.628-5.471-15.718-5.757-11.836-.665-24.34,5.778-28.144,17.567-2.085,6.462.624,12.855,2.4,18.892a.522.522,0,0,0,1.019-.161c.244,4.883,8.93,4.438,12.3,4.5,3.239.057,6.48-.092,9.718.047,3.5.151,6.978.724,10.49.688,5.35-.056,10.994-.691,14.461-5.141a11.919,11.919,0,0,0,2.449-8.645.905.905,0,0,1,.006-.348,1.021,1.021,0,0,1,.263-.376,4.155,4.155,0,0,0,.882-2.885" transform="translate(-696.515 -26.793)" fill="#ab593f"/>
    <path id="Trazado_151627" data-name="Trazado 151627" d="M1232.973,118.23c9.417,6.179,22.46,5.023,29.139-4.623,3.19-4.607,3.479-10.58,3.5-16.008,0-.48-.011-.961-.022-1.441-.1-4.421-.473-11.644-3.651-15.137a23.406,23.406,0,0,0-10.866-7.2c-4.268-1.166-9.179-.55-13.455.586-7.691,2.044-15.087,7.175-16.542,15.324-.875,4.9.242,11.135,1.65,15.845,1.329,4.443,4.991,8.648,8.534,11.445.55.434,1.129.825,1.714,1.208" transform="translate(-705.38 -42.293)" fill="#ffa98f"/>
    <path id="Trazado_151628" data-name="Trazado 151628" d="M1256.949,112.126c-.03-.022-.062-.043-.1-.064-1.963-1.178-6.576.336-6.938,2.5a.7.7,0,0,0,.812.722c1.09-.237,1.964-.625,3.04-.9.943-.241,2.6-.1,3.313-.767a.943.943,0,0,0-.131-1.5" transform="translate(-722.218 -64.514)" fill="#ab593f"/>
    <path id="Trazado_151629" data-name="Trazado 151629" d="M1301.053,108.248c.024-.028.049-.056.076-.083,1.6-1.58,6.337-1.126,7.185.9a.686.686,0,0,1-.606.882c-1.092.011-2.16-.179-3.247-.209-.954-.026-2.349.485-3.187-.008a.954.954,0,0,1-.222-1.484" transform="translate(-751.622 -61.951)" fill="#ab593f"/>
    <path id="Trazado_151630" data-name="Trazado 151630" d="M1316.664,133.81a2.272,2.272,0,0,0-.581-.261,5.263,5.263,0,0,0-3.754.536c-.625.331-1.273,1.035-.673,1.706a1.955,1.955,0,0,0,1,.522,5.673,5.673,0,0,0,3.071-.08,2.541,2.541,0,0,0,1.118-.627,1.227,1.227,0,0,0,.322-1.191,1.184,1.184,0,0,0-.5-.6" transform="translate(-757.759 -77.079)" fill="#f79274"/>
    <path id="Trazado_151631" data-name="Trazado 151631" d="M1248.077,139.18a2.265,2.265,0,0,0-.583-.261,5.274,5.274,0,0,0-3.763.537c-.627.332-1.276,1.038-.675,1.711a1.956,1.956,0,0,0,1,.523,5.683,5.683,0,0,0,3.078-.08,2.545,2.545,0,0,0,1.121-.629,1.229,1.229,0,0,0,.323-1.194,1.192,1.192,0,0,0-.5-.605" transform="translate(-718.121 -80.181)" fill="#f79274"/>
    <path id="Trazado_151632" data-name="Trazado 151632" d="M1286.113,150.974a1.666,1.666,0,0,0-.763-.238,5.5,5.5,0,0,0-.972.019,1.305,1.305,0,0,1-.19.009,43.567,43.567,0,0,1-4.861.143c-.295.01-.6,0-.905-.01a3.237,3.237,0,0,0-.429-.009,2.28,2.28,0,0,0-.572.057c-1.325.315-.6,1.735.047,2.268a5,5,0,0,0,2.087.944,7.492,7.492,0,0,0,6.233-1.163,1.976,1.976,0,0,0,.715-.982.827.827,0,0,0,.039-.343.987.987,0,0,0-.429-.7" transform="translate(-737.687 -87.089)" fill="#d4562f"/>
    <path id="Trazado_151633" data-name="Trazado 151633" d="M1287.813,150.822c-.229,1.773-2.24,1.839-3.2,1.687a1.805,1.805,0,0,1-1.658-1.544,43.567,43.567,0,0,0,4.86-.143" transform="translate(-741.312 -87.148)" fill="#fff"/>
    <path id="Trazado_151634" data-name="Trazado 151634" d="M1215.952,124.378s-2.727-3.721-6.333-2.276-3.751,11.494,2.018,14.725c4.409,2.469,9.187-.7,9.012-.8s-4.7-11.651-4.7-11.651" transform="translate(-697.47 -70.36)" fill="#ffa98f"/>
    <path id="Trazado_151635" data-name="Trazado 151635" d="M1220.717,141.383a2.594,2.594,0,0,1,.084-3.388c.45-.512-.276-1.294-.73-.779a3.7,3.7,0,0,0-.133,4.9c.428.539,1.2-.195.779-.73" transform="translate(-704.403 -79.188)" fill="#e87c5a"/>
    <path id="Trazado_151636" data-name="Trazado 151636" d="M1244.948,173.23a.471.471,0,0,1-.167-.03,32.865,32.865,0,0,1-7.242-3.883,33.444,33.444,0,0,1-5.694-5.808.477.477,0,0,1,.763-.572,33.023,33.023,0,0,0,5.506,5.619,32.477,32.477,0,0,0,7,3.751.476.476,0,0,1-.167.923" transform="translate(-711.726 -94.038)" fill="#e87c5a"/>
    <path id="Trazado_151637" data-name="Trazado 151637" d="M1262.143,122.49a1.855,1.855,0,0,0-.16-.255c-.634-.843-1.464-.433-1.905.377a3.79,3.79,0,0,0-.019,3.165c.323.651,1.047,1.084,1.609.762a1.774,1.774,0,0,0,.694-1.147,4.915,4.915,0,0,0,.06-2.029,3.07,3.07,0,0,0-.279-.872" transform="translate(-727.889 -70.361)" fill="#422c25"/>
    <path id="Trazado_151638" data-name="Trazado 151638" d="M1308.662,118.418a1.84,1.84,0,0,0-.186-.238c-.718-.772-1.5-.278-1.855.574a3.791,3.791,0,0,0,.311,3.149c.389.613,1.154.969,1.679.591a1.774,1.774,0,0,0,.571-1.213,4.914,4.914,0,0,0-.151-2.025,3.071,3.071,0,0,0-.369-.838" transform="translate(-754.866 -68.064)" fill="#422c25"/>
    <path id="Trazado_151639" data-name="Trazado 151639" d="M1291.123,126.837c-.3-.561-1.158-.061-.855.5.738,1.363,2.772,3.817.767,4.953a.5.5,0,0,0,.5.855c2.728-1.546.623-4.4-.412-6.307" transform="translate(-745.502 -73.147)" fill="#e87c5a"/>
    <path id="Trazado_151640" data-name="Trazado 151640" d="M1254.43,70.51a30.309,30.309,0,0,0-16.731-1.473,27.755,27.755,0,0,0-6.211,1.939.53.53,0,0,0-.717.334,26.062,26.062,0,0,0-14.418,17.81.456.456,0,0,0-.136.582c0,.015-.007.029-.01.043a.516.516,0,0,0,.448.606c2,2.48,5.722,1.582,7.153-1.286.879-1.761.865-2.339,2.5-3.868.268-.251.515-.5.752-.744a1.148,1.148,0,0,0,.457.83.516.516,0,0,0,.6.077c1.484-.732,2.278-3.99,2.841-5.493A27.178,27.178,0,0,0,1232.567,73a21.465,21.465,0,0,0,15.364,3.541.406.406,0,0,0,.326-.342l.982.337a33.556,33.556,0,0,1,4.479,1.825c1.43.74,2.514,1.948,3.869,2.734a1.544,1.544,0,0,0,2.368-.6,2.428,2.428,0,0,0,.168-1.266c.424.233.847.467,1.284.683a.5.5,0,0,0,.728-.3c.7-4.389-4.2-7.666-7.7-9.1" transform="translate(-702.72 -39.575)" fill="#ab593f"/>
    <path id="Trazado_151641" data-name="Trazado 151641" d="M1249.881,64.314a20.066,20.066,0,0,1-1.928-6.445c-.077-.624-1.068-.632-.99,0a21.57,21.57,0,0,0,2.063,6.945c.281.572,1.135.071.855-.5" transform="translate(-720.514 -33.165)" fill="#943f24"/>
    <path id="Trazado_151642" data-name="Trazado 151642" d="M1275.4,71.4c-4.14-1.958-8.35-4.044-10.774-8.119a.5.5,0,0,0-.854.5c2.516,4.232,6.817,6.435,11.128,8.474.573.271,1.076-.582.5-.855" transform="translate(-730.185 -36.428)" fill="#943f24"/>
    <path id="Trazado_151643" data-name="Trazado 151643" d="M1298.934,82.87a32.709,32.709,0,0,0-10.453-7.379c-.577-.257-1.081.6-.5.855a32.015,32.015,0,0,1,10.252,7.224c.44.462,1.139-.239.7-.7" transform="translate(-744.069 -43.592)" fill="#943f24"/>
    <path id="Trazado_151644" data-name="Trazado 151644" d="M1235.534,81.872a21.234,21.234,0,0,1-.808,5.106c-.368,1.253-1.022,4.012-2.333,4.592-.581.258-.078,1.111.5.855,1.407-.623,1.987-2.805,2.465-4.17a22.019,22.019,0,0,0,1.167-6.383c.028-.637-.963-.636-.99,0" transform="translate(-711.948 -47.031)" fill="#943f24"/>
    <path id="Trazado_151645" data-name="Trazado 151645" d="M1225.3,70.765c-1.252,6.126-2.647,12.418-7.172,17.034-.446.456.253,1.156.7.7,4.65-4.744,6.136-11.162,7.426-17.47.127-.622-.827-.888-.955-.263" transform="translate(-703.775 -40.683)" fill="#943f24"/>
    <path id="Trazado_151646" data-name="Trazado 151646" d="M1197.655,158.946c-7.523-6.1-25.474-24.794-28.033-26.47-2.779-1.82-6.156-3.264-9.574-3.107a5.668,5.668,0,0,0-3.5,1.17c-1.172,1-1.45,2.626-2.489,3.722-1.748,1.844-5.106,1.708-5.987,4.453-.683,2.13.693,4.246,2.38,5.43,2.645,1.855,6.217,2.671,9.238,3.69,3.591,1.211,7.206,2.354,10.776,3.626,8.68,3.093,16.851,7.1,23.231,13.91a.5.5,0,0,0,.827-.218c.92-3.891,6.067-3.824,3.132-6.2" transform="translate(-663.271 -74.744)" fill="#ffbf87"/>
    <path id="Trazado_151647" data-name="Trazado 151647" d="M1209.087,250.559c-.434-1.079-1.193-2.155-1.169-3.374.023-1.174.69-2.243.921-3.373.77-3.772-2.534-6.548-2.762-10.2-.156-2.5.539-4.973.414-7.483a30.735,30.735,0,0,0-.913-5.731,44.863,44.863,0,0,0-3.263-8.96c.475.009.635-.781.1-.98-.236-.088-.474-.153-.71-.229-.38-.729-.771-1.452-1.187-2.163a.5.5,0,0,0-.855.5c.251.429.491.863.729,1.3-6.863-1.6-13.871,1.434-18.721,6.462-4.166,4.318-10.512,12.928-7.324,19.219.825,1.628,2.367,2.74,3.21,4.348.992,1.893.973,4.131,1.812,6.087,1.883,4.4,5.37,8.47,8.057,12.409.895,1.311,1.53,2.446,3.172,2.758,1.662.316,3.8-.178,5.464-.4a55.868,55.868,0,0,0,13.723-3.678.518.518,0,0,0,.364-.477,15.653,15.653,0,0,0-1.062-6.037" transform="translate(-678.058 -120.086)" fill="#ffbf87"/>
    <path id="Trazado_151648" data-name="Trazado 151648" d="M1251.079,204.023a1.069,1.069,0,0,0-.251-1.077c-.966-.833-2.377.941-2.636,1.69a1.382,1.382,0,0,0,.106,1.375,1.27,1.27,0,0,0,1.623-.052,3.783,3.783,0,0,0,1.158-1.936" transform="translate(-721.152 -117.14)" fill="#fff"/>
    <path id="Trazado_151649" data-name="Trazado 151649" d="M1265.783,206.81c.373-2.484-2.616-.458-2.94.835a1.329,1.329,0,0,0,.078,1.012,1.121,1.121,0,0,0,1.425.3,2.669,2.669,0,0,0,1.06-1.162,3,3,0,0,0,.377-.984" transform="translate(-729.656 -118.819)" fill="#fff"/>
    <path id="Trazado_151650" data-name="Trazado 151650" d="M1191.893,176.346c-2.5-2.248-5.6-3.245-8.553-4.734-3.28-1.653-6.29-3.756-9.63-5.312-6.512-3.034-13.474-4.9-20.394-6.748a.5.5,0,0,0-.263.955c6.833,1.823,13.725,3.652,20.157,6.649,3.073,1.432,5.863,3.3,8.842,4.9,3.082,1.653,6.493,2.607,9.14,4.989.472.425,1.175-.273.7-.7" transform="translate(-666.051 -92.181)" fill="#f0995b"/>
    <path id="Trazado_151651" data-name="Trazado 151651" d="M1262.078,196.438l-2.066-2.4c-.416-.484-1.114.219-.7.7l2.066,2.4c.416.484,1.114-.219.7-.7" transform="translate(-727.579 -112.023)" fill="#f0995b"/>
    <path id="Trazado_151652" data-name="Trazado 151652" d="M1179.783,149.81l-12.652-7.34a.5.5,0,0,0-.5.855l12.652,7.34a.5.5,0,0,0,.5-.855" transform="translate(-673.961 -82.281)" fill="#f0995b"/>
    <path id="Trazado_151653" data-name="Trazado 151653" d="M1228.325,215.465a28.423,28.423,0,0,1-1.941-4.368c-.38-1.464-.288-3.02-.562-4.506-.88-4.765-4.046-8.681-7.708-11.677-.489-.4-1.194.3-.7.7,4.063,3.325,7.085,7.489,7.646,12.815a15.432,15.432,0,0,0,1.308,5.33,21.209,21.209,0,0,1,2.522,8.358c.033.634,1.023.637.99,0a18.369,18.369,0,0,0-1.554-6.653" transform="translate(-703.346 -112.555)" fill="#f0995b"/>
    <path id="Trazado_151654" data-name="Trazado 151654" d="M1163.828,261.5a24.922,24.922,0,0,1-3.552-7.284,19.685,19.685,0,0,0-1.984-5.471c-2.85-4.519-5.583-8.99-5.949-14.467-.043-.632-1.033-.637-.99,0,.306,4.585,2.154,8.68,4.52,12.533a33.838,33.838,0,0,1-10.4-8.957c-.383-.5-1.243-.006-.855.5a34.959,34.959,0,0,0,12.134,10.052.487.487,0,0,0,.129.035,27.532,27.532,0,0,1,2.563,6.458,25.872,25.872,0,0,0,3.53,7.1c.361.52,1.219.026.855-.5" transform="translate(-661.322 -135.094)" fill="#f0995b"/>
    <path id="Trazado_151655" data-name="Trazado 151655" d="M1230.772,320.5a61.411,61.411,0,0,1-17.068,2.8.5.5,0,0,0,0,.99,62.357,62.357,0,0,0,17.331-2.832c.606-.19.347-1.145-.263-.955" transform="translate(-701.023 -185.175)" fill="#f0995b"/>
    <path id="Trazado_151656" data-name="Trazado 151656" d="M1065.349,243.529a.5.5,0,0,0-.99,0,93.673,93.673,0,0,1-1.017,13.878,74.184,74.184,0,0,0-2.65-16.006.5.5,0,0,0-.955.263,73.5,73.5,0,0,1,2.728,18.8,15.475,15.475,0,0,1,.029,1.652c-.121,1.3-.026,2.571-.086,3.863-.029.622-.147,1.236-.2,1.857-.1,1.257-.233,2.512-.406,3.762-.086.623.868.892.955.263a75.25,75.25,0,0,0,.684-9.318,94.668,94.668,0,0,0,1.907-19.013" transform="translate(-612.322 -139.284)" fill="#ab6563"/>
    <path id="Trazado_151657" data-name="Trazado 151657" d="M968.574,335.98a23.335,23.335,0,0,1-2.392-15.153.5.5,0,0,0-.954-.263,15.285,15.285,0,0,0-.633,1.631,27.2,27.2,0,0,0-1.541,13.5c.091.628,1.045.361.955-.263a26.7,26.7,0,0,1,.876-11.618,24.383,24.383,0,0,0,2.835,12.663c.3.563,1.153.063.855-.5" transform="translate(-556.311 -185.035)" fill="#ab6563"/>
    <path id="Trazado_151658" data-name="Trazado 151658" d="M1013.331,173.78c-.049.386-.109.782-.158,1.168-.257,1.841-.228,4.178-.941,5.89a4.242,4.242,0,0,1-1.663,1.832c-1.663,1.207-3.445,2.3-5.158,3.435l-5.158,3.435c-1.95,1.3-2.217,1.7-4.514,1.435-.634-.069-1.267-.148-1.9-.218.119-.317.238-.624.366-.94.04,0,.079.01.119.01a6.879,6.879,0,0,0,5.425-1.138l4.366-2.911,4.366-2.911c1.98-1.307,2.861-2,3.217-4.425.218-1.465.416-2.921.614-4.386.336-.1.673-.2,1.02-.277" transform="translate(-574.257 -100.413)" fill="#ab6563"/>
    <path id="Trazado_151659" data-name="Trazado 151659" d="M924.884,358.776l-.98.06a103.36,103.36,0,0,1,.465-16.127c.04.04.079.069.119.109a7.341,7.341,0,0,1,.7.663.225.225,0,0,0,.079-.01,101.258,101.258,0,0,0-.386,15.3" transform="translate(-533.774 -198.023)" fill="#d4562f"/>
    <path id="Trazado_151660" data-name="Trazado 151660" d="M1095.154,234.338c-2.249-4.344-2.972-9.631-3.886-14.391q-1.431-7.45-2.232-15a184.519,184.519,0,0,1-.711-29.611c.035-.637-.955-.635-.99,0a184.376,184.376,0,0,0,.922,31.512q.838,7.191,2.239,14.3c.9,4.572,1.639,9.51,3.8,13.689.293.566,1.147.066.855-.5" transform="translate(-628.114 -101.036)" fill="#f0995b"/>
    <path id="Trazado_151661" data-name="Trazado 151661" d="M1145.98,301.307c-.317.178-.643.347-.98.5a14.86,14.86,0,0,1-2.643-2.851c-1.139-1.564-2.029-3.287-3.03-4.94-1.287-2.118-2.8-2.118-5.069-2.2-2.039-.069-4.069-.129-6.108-.2-.831-.03-2.287-.376-3.059-.089a3.472,3.472,0,0,0-2.227,3.693c.178,3.336.723,6.692,1.237,10.019-.326-.01-.643-.04-.96-.07-.2-1.475-.4-2.96-.594-4.435-.287-2.208-.881-4.6-.683-6.841.326-3.693,3.336-3.366,6.286-3.267,2.663.089,5.326.158,7.989.258,1.277.049,2.168.01,3.009,1.03,2.535,3.079,3.752,7.029,6.831,9.395" transform="translate(-648.209 -167.898)" fill="#f0995b"/>
    <path id="Trazado_151662" data-name="Trazado 151662" d="M1562.653,326.986l-17.873,14.564s7.3,2.264,7.843,3.413-.545,3.7-2.721,4.021-13.3.051-17.443-.214a5.213,5.213,0,0,1-4.966-6.628c.79-2.725,10.581-23.351,15.557-24.111s19.6,8.955,19.6,8.955" transform="translate(-882.5 -183.739)" fill="#ffa98f"/>
    <path id="Trazado_151663" data-name="Trazado 151663" d="M1456.695,328.244,1440.9,342.889s7.322,3.233,7.9,4.273-.287,3.48-2.3,3.911-12.778-.718-16.655-.718a4.87,4.87,0,0,1-5.025-5.883c.575-2.588,8.471-22.4,13.066-23.407s18.809,7.179,18.809,7.179" transform="translate(-823.223 -185.467)" fill="#ffa98f"/>
    <path id="Trazado_151664" data-name="Trazado 151664" d="M1790.018,336.276s-3.913-10.681-6.169-15.244c-.793-1.6-1.52-4.095-2.954-5.243-1.218-.976-3.077-.419-4.414-.012-3.973,1.208-7.79,3.982-10.947,6.733-.1-.145-.206-.285-.3-.431-.349-.516-1.193-.03-.84.491.138.2.286.4.426.6a.482.482,0,0,0,.495.7,85.305,85.305,0,0,0,18.438,19.067c.5.377.985-.467.491-.84l-.007-.006c3.267-.464,5.786-5.818,5.786-5.818" transform="translate(-1019.445 -182.154)" fill="#ffa98f"/>
    <path id="Trazado_151665" data-name="Trazado 151665" d="M1688.667,351.669c-2.89-5.96-7.956-12.671-10.646-17.23-.077-.13-10.079,3.061-15.01,4.584-.243.075-1.373.947-1.29,1.2,1.216,3.8,10.829,12.251,12.619,13.783,1.5,1.281,2.969,2.979,4.8,3.8a8.09,8.09,0,0,0,8.194-1.337c1.6-1.487,1.5-4.475,1.337-4.809" transform="translate(-960.168 -193.243)" fill="#ffa98f"/>
    <path id="Trazado_151666" data-name="Trazado 151666" d="M1577.483,271.814c-4.778-5.051-8.992.117-15.755,0a31.494,31.494,0,0,0-5.07.321,30.7,30.7,0,0,0-3.4.643,32.547,32.547,0,0,0-10.13,4.418,9.331,9.331,0,0,1-.477-2.832.487.487,0,0,0-.973,0,10.1,10.1,0,0,0,.613,3.386c-.8.564-1.567,1.158-2.316,1.8-.477.4.214,1.09.691.681.642-.545,1.314-1.061,1.995-1.557a41.355,41.355,0,0,0,4.165,6.578,30.214,30.214,0,0,1-2.754,3.62c-1.1,1.187-2.365,3.921-3.347,5.177-1.07,1.372-.253,3.571-1.635,4.739a.478.478,0,0,0,0,.681,28.782,28.782,0,0,0,4.846,4.272,34.453,34.453,0,0,0,3.046,1.966c.535.321,1.09.632,1.644.925.643.34,1.285.671,1.937.993,1.021.506,2.053.993,3.094,1.469.166.078.331.156.506.243a8.65,8.65,0,0,0,4.311,1.226c3.746-.321,18.022-15.385,21.116-18.334,5.235-4.982,3.309-14.7-2.111-20.415" transform="translate(-889.232 -155.777)" fill="#cf9886"/>
    <path id="Trazado_151667" data-name="Trazado 151667" d="M1563.486,266.9c-.35-.973-.74-1.937-1.129-2.87.331-.263.253-.905-.263-.876a2.022,2.022,0,0,1-1-.165,9.638,9.638,0,0,1,.584-1.713c.263-.564-.574-1.061-.847-.486a9.791,9.791,0,0,0-.642,1.907.556.556,0,0,0-.146.749,14.1,14.1,0,0,0,.048,4.1c.526,3.854,1.995,7.736.934,11.6-.925,3.377-3.99,5.43-5.693,8.359-2.044,3.5-1.09,7.688-4.262,10.734-.1.088-.195.185-.3.272a34.456,34.456,0,0,0,3.046,1.966c.846-1.187,1.693-2.384,2.5-3.6,2.131-3.182,2.89-6.335,3.785-10,.993-4.058,4.35-6.919,4.826-11.113a19.685,19.685,0,0,0-1.44-8.855" transform="translate(-896.06 -150.54)" fill="#f2ebe6"/>
    <path id="Trazado_151668" data-name="Trazado 151668" d="M1591.239,289.771a8.042,8.042,0,0,0-1.917-4.7c0-.214.01-.418.01-.632a.488.488,0,0,0-.9-.233,6.59,6.59,0,0,0-2.083-1.119c-.594-.2-.847.74-.253.934a5.933,5.933,0,0,1,2.277,1.353c.068,3.523.662,8.262-1.7,10.831-2.423,2.608-5.391,4.836-8.009,7.259a158.553,158.553,0,0,0-12.193,11.94c1.022.506,2.053.993,3.094,1.47.166.078.331.155.506.243,4.612-6.569,11.3-11.317,16.659-17.292,2.452-2.734,4.826-6.189,4.515-10.052" transform="translate(-905.13 -163.555)" fill="#f2ebe6"/>
    <path id="Trazado_151669" data-name="Trazado 151669" d="M1506.133,159.763a54.369,54.369,0,0,1-1.236,10.159q-1.008,5.955-2.005,11.92t-2,11.93c-.6,3.562-.866,7.4-1.878,10.86-.769,2.666-2.549,3.095-5.07,3.678L1483.6,210.7a46.2,46.2,0,0,1-9.381,16.232,45.173,45.173,0,0,1-8.31,7.269,19.986,19.986,0,0,1-2.9,1.664,80.821,80.821,0,0,1-9.517-1.81c-1.343-.35-2.676-.759-4.009-1.245-.263-.088-.526-.185-.789-.282q-2.364-.89-4.651-1.946-2-.89-3.942-1.907c-2.17-1.1-4.291-2.3-6.373-3.542a37.84,37.84,0,0,1,4.768-5.323c1.275-4.564,5.819-7.289,6.549-11.979.457-2.89.954-5.7,1.644-8.466-.087-2.452-.156-4.895-.175-7.347-.03-4.408-.166-8.953.642-13.312,1.313-7.065,4-15.122,8.457-20.863,10.227-13.166,29.66-9.848,43.916-7.366a.387.387,0,0,1,.35.4.439.439,0,0,1,.253-.029c.954.136,1.479-1.11,2.549-.856a2.669,2.669,0,0,1,1.509,1.313c1.469,2.336,1.878,5.741,1.947,8.456" transform="translate(-828.43 -85.627)" fill="#e6b7a8"/>
    <path id="Trazado_151670" data-name="Trazado 151670" d="M1507.811,155.461c0,.36-.01.71-.01,1.07a63.446,63.446,0,0,0-26.673,3.182,21.12,21.12,0,0,0-13.555,14.139,70.022,70.022,0,0,0-2.355,11.142c-.3,1.966-.6,3.951-.788,5.936-.253,2.6.35,5.955-.856,8.31-.9,1.742-2.287,3.182-3.173,4.953a25.886,25.886,0,0,0-1.946,5.459c-.993,4.1-.633,8.437-1.664,12.485-1.1,4.292-5.615,6.549-7.824,10.227-.049.078-.1.165-.146.243,1.294.681,2.608,1.314,3.941,1.907a3.841,3.841,0,0,1,.175-.837,18.035,18.035,0,0,1,2.987-4.515c2.238-3,3.63-6.529,5.041-9.965q2.394-5.794,4.291-11.784a153.262,153.262,0,0,0,5.556-23.977c1.051-7.094.613-16.64,9.011-19.034,4.428-1.265,9.03-2.092,13.517-3.114,4.466-1.022,10.4-3.435,14.645-.768a.5.5,0,0,0,.74-.419q.029-2.321.058-4.641a.487.487,0,0,0-.973,0" transform="translate(-837.153 -89.558)" fill="#fff"/>
    <path id="Trazado_151671" data-name="Trazado 151671" d="M1521.281,189.89c.428-.058.681-.662.214-.886a5.926,5.926,0,0,0-.574-.233c-.428-1.2-.963-2.394-1.3-3.445-.184-.594-1.129-.341-.934.263.3.934.613,1.878.915,2.822-2.763-.506-5.663.4-8.33,1.265a28.6,28.6,0,0,0-9.975,5.3,17.644,17.644,0,0,0-5.721,8.962c-1.032,4.214.749,8.807-2.17,12.466-1.119,1.392-2.53,2.52-3.571,3.98a15.052,15.052,0,0,0-2.258,5.148c-1.168,4.486-1.635,8.884-3.717,13.108a38.849,38.849,0,0,1-8.194,10.578,58.7,58.7,0,0,0-4.622,4.856c1.333.486,2.667.9,4.01,1.245a46.971,46.971,0,0,1,6.189-7,31.481,31.481,0,0,0,7.269-9.984,66.98,66.98,0,0,0,3.5-11.522,15.741,15.741,0,0,1,3.065-6.85c1.314-1.508,3.016-2.628,4.418-4.048,4.915-5,3.649-13.555,9.031-18.09a15,15,0,0,1,6.393-2.725c1.732-.4,4.1-.5,5.634-1.411a1.9,1.9,0,0,0,1.031-2.1,7.293,7.293,0,0,0-.3-1.7" transform="translate(-849.992 -106.889)" fill="#fff"/>
    <path id="Trazado_151672" data-name="Trazado 151672" d="M1758.236,270.786a55.33,55.33,0,0,1-3.217-7.872c-.79-3.049-1.393-5.888-3.163-8.541-1.746-2.617-2.6-5.346-3.811-8.216a19.642,19.642,0,0,0-2.986-4.875l.445-.336c.494-.373.009-1.218-.491-.84l-.591.447c-.312-.346-.621-.7-.956-1.025-.447-.439-1.136.248-.688.688.306.3.59.612.863.928l-10.228,7.731c-2.874,2.173-6.662,4.289-8.836,7.25-1.922,2.618-1.474,5.6.365,8.157a27.7,27.7,0,0,0,3.353,3.524,20.529,20.529,0,0,1,3.74,5.05,8.746,8.746,0,0,0,2.573,3.085,7.534,7.534,0,0,1,2.161,1.776c.347.509.492,1.132.89,1.606,1.876,2.24,6.388,1.2,8.809.79,3.837-.65,15.794-2.664,11.769-9.328" transform="translate(-995.77 -138.321)" fill="#49a6a5"/>
    <path id="Trazado_151673" data-name="Trazado 151673" d="M1657.02,191.671c-1.174-7.044-7.17-12.515-11.881-17.392-2.927-3.03-5.753-6.722-9.542-8.714-1.641-.863.454-3.055-1.343-3.457a26.565,26.565,0,0,0-8.925-3.681c-1.966-.338-3.969-.3-5.937-.651-2.019-.357-4-.922-5.988-1.43-4.2-1.074-10.016-.164-14.256-1.046a21.328,21.328,0,0,0-8.414-.338c-2-.627-4.017-1.181-6.063-1.642-1.765-.4-4.342-1.363-6.173-.84s-2.533,2.758-3.264,4.3a62.852,62.852,0,0,0-2.745,6.808,63.933,63.933,0,0,0-2.878,27.6,57.476,57.476,0,0,0-.067,13.669c.4,4.194.024,11.782,5.32,13.065,3.011.729,5.949-.892,8.94-.874,3.456.021,6.885,1.227,10.386,1.306a39.861,39.861,0,0,0,13.46-2.065c6.721,1.381,13.659,2.446,20.4.688a22.314,22.314,0,0,0,8.554-4.349,23.824,23.824,0,0,1,5.354-3.549,38.6,38.6,0,0,0,5.454-2.6,27.993,27.993,0,0,0,6.732-6.873c1.89-2.5,3.425-4.657,2.879-7.936" transform="translate(-906.693 -88.018)" fill="#49a6a5"/>
    <path id="Trazado_151674" data-name="Trazado 151674" d="M1714.608,172.408l-8.195,5.433,1.526,11.856,7.61,9.046,12.787-5.19Z" transform="translate(-985.995 -99.62)" fill="#ffa98f"/>
    <path id="Trazado_151675" data-name="Trazado 151675" d="M1778.817,109.772a34.653,34.653,0,0,0-11.882-16.644c-2.821-2.1-5.433-4.262-8.879-4.84a42.035,42.035,0,0,0-6.729-.391c-1.553.061-4.082,1.335-5.545,1.16a13.034,13.034,0,0,0-3.878.108,19.2,19.2,0,0,0-8.522,3.934c-3.063,2.369-6.166,3.868-8.065,7.427-2.026,3.8-2.284,9.1-2.929,13.315-.1.647.913.729,1.011.087.288-1.883.632-3.906,1.126-5.9a15.382,15.382,0,0,0,7.716,8.463,41.064,41.064,0,0,1,7.174,4.108,46.871,46.871,0,0,0,6.022,4.255c2.151,1.152,4.524,1.724,6.766,2.654a27.577,27.577,0,0,1,6.7,4.218c1.9,1.538,3.7,3.2,5.594,4.74,1.463,1.19,3.144,2.927,5.143,2.888a.521.521,0,0,0,.521-.334c.714-2.735,2.423-5.323,3.707-7.97a7.059,7.059,0,0,0,1.13,2.225.51.51,0,0,0,.861-.16c1.852-7.187,5.285-14.995,3.2-22.5q-.117-.422-.25-.84" transform="translate(-995.222 -50.779)" fill="#ab593f"/>
    <path id="Trazado_151676" data-name="Trazado 151676" d="M1773.973,142.216a24.9,24.9,0,0,0-4.193-13.234c-2.756-3.817-7.237-6.583-11.539-8.506-7.742-3.44-17.3-4.134-23.95,1.646-4,3.47-7.237,9.388-9.219,14.236-1.864,4.57-1.13,9.735-.06,14.414.158.733.377,1.438.6,2.151,3.678,11.41,13.938,17.636,26.062,14.87a24.573,24.573,0,0,0,11.658-6.553c.664-.635,1.3-1.309,1.9-2,.238-.278.466-.555.694-.833.327-.4.635-.8.952-1.21,2.875-3.727,7.385-9.963,7.088-14.979" transform="translate(-996.114 -68.085)" fill="#ffa98f"/>
    <path id="Trazado_151677" data-name="Trazado 151677" d="M1788.512,190.776a29.587,29.587,0,0,1-.722,2.973c-.445,1.244-1.648.768-2.7.752-.65-.011-.74,1-.087,1.011,1.081.017,2.426.41,3.284-.5a3.281,3.281,0,0,0,.617-1.583l.562-2.312c.153-.629-.8-.978-.955-.344" transform="translate(-1031.147 -110.04)" fill="#e87c5a"/>
    <path id="Trazado_151678" data-name="Trazado 151678" d="M1782.093,155.86c-.006-.04-.013-.08-.023-.121-.563-2.371-5.148-4.756-7.069-3.419a.746.746,0,0,0,.054,1.156c.991.654,1.938,1.03,2.947,1.644.886.539,2.005,1.9,3.049,1.951a1,1,0,0,0,1.042-1.212" transform="translate(-1025.482 -87.791)" fill="#ab593f"/>
    <path id="Trazado_151679" data-name="Trazado 151679" d="M1816.889,183.978c.039-.008.078-.013.119-.018,2.378-.242,6,3.3,5.35,5.549a.73.73,0,0,1-1.091.326c-.912-.721-1.669-1.592-2.55-2.343-.773-.659-2.27-1.167-2.635-2.136a1.016,1.016,0,0,1,.807-1.378" transform="translate(-1049.322 -106.288)" fill="#ab593f"/>
    <path id="Trazado_151680" data-name="Trazado 151680" d="M1814.642,212.913c-.6.694-1.239,1.368-1.9,2-.079-.03-.158-.06-.228-.089a5.978,5.978,0,0,1-2.6-1.983,2.05,2.05,0,0,1-.486-1.1c-.05-.962.962-1.11,1.705-.971a5.6,5.6,0,0,1,3.46,2.072.426.426,0,0,1,.049.069" transform="translate(-1045.517 -121.762)" fill="#f79274"/>
    <path id="Trazado_151681" data-name="Trazado 151681" d="M1761.049,168.879a2.406,2.406,0,0,0-.2-.649,5.614,5.614,0,0,0-3.079-2.625c-.706-.266-1.727-.288-1.84.667a2.086,2.086,0,0,0,.289,1.169,6.049,6.049,0,0,0,2.233,2.4,2.716,2.716,0,0,0,1.292.452,1.309,1.309,0,0,0,1.18-.584,1.264,1.264,0,0,0,.128-.829" transform="translate(-1014.6 -95.598)" fill="#f79274"/>
    <path id="Trazado_151682" data-name="Trazado 151682" d="M1726.456,136.778s.226-4.906-3.727-6.117-10.789,7.018-8.168,13.549c2,4.992,8.082,5.557,8,5.361s3.895-12.793,3.895-12.793" transform="translate(-990.366 -75.429)" fill="#ffa98f"/>
    <path id="Trazado_151683" data-name="Trazado 151683" d="M1724.784,152.6a2.762,2.762,0,0,1,2.334-2.752c.715-.123.636-1.257-.085-1.133a3.94,3.94,0,0,0-3.382,3.969c-.006.732,1.127.643,1.133-.084" transform="translate(-995.955 -85.925)" fill="#e87c5a"/>
    <path id="Trazado_151684" data-name="Trazado 151684" d="M1776.567,165.648a1.949,1.949,0,0,0,.067-.314c.14-1.113-.8-1.415-1.735-1.123a4.036,4.036,0,0,0-2.359,2.405c-.235.737,0,1.6.665,1.775a1.888,1.888,0,0,0,1.38-.363,5.233,5.233,0,0,0,1.55-1.507,3.263,3.263,0,0,0,.432-.873" transform="translate(-1024.152 -94.823)" fill="#422c25"/>
    <path id="Trazado_151685" data-name="Trazado 151685" d="M1815.132,196.889a1.959,1.959,0,0,0,.075-.312c.168-1.109-.762-1.435-1.707-1.167a4.035,4.035,0,0,0-2.419,2.345c-.253.73-.043,1.6.62,1.791a1.893,1.893,0,0,0,1.389-.328,5.235,5.235,0,0,0,1.587-1.467,3.281,3.281,0,0,0,.454-.862" transform="translate(-1046.414 -112.86)" fill="#422c25"/>
    <path id="Trazado_151686" data-name="Trazado 151686" d="M1772.752,202c-3.3.182-6.937-3.164-6.787-6.595a.508.508,0,0,0-1.014-.03c-.173,3.955,3.9,7.853,7.771,7.639.648-.036.683-1.05.03-1.014" transform="translate(-1019.816 -112.62)" fill="#e87c5a"/>
    <path id="Trazado_151687" data-name="Trazado 151687" d="M1782.1,125.871a22.432,22.432,0,0,0-11.312-11.188,36.581,36.581,0,0,0-8.246-2.528c-1.915-.412-3.222-1.676-4.987-2.353a10.8,10.8,0,0,0-4.217-.476c-4.768.151-11.051,1.211-12.327,6.477a.551.551,0,0,0-.717.4,20.645,20.645,0,0,0,.243,9.23c.114.449.83.6.976.079a58.6,58.6,0,0,1,2.373-7.163c-.207,2.375.032,4.548,1.837,3.334.594-.4.861-1.25,1.254-1.814a11.038,11.038,0,0,1,2.973-2.524c1.571-1.158,2.124-2.857,3.138-4.369a16.4,16.4,0,0,0,2.368,3.414c1.213,1.471,2.314,3.174,4.166,3.863a.511.511,0,0,0,.677-.434,12.606,12.606,0,0,0-.453-2.955,27.2,27.2,0,0,0,2.118,2.184c2.456,2.3,3.725,5.455,6.179,7.807.723.693,2,1.974,2.849.681.525-.8-.29-2.685-.5-3.465-.054-.195-.119-.385-.178-.578,1.288,1.106,2.648,2.157,3.861,3.363a23.115,23.115,0,0,1,2.06,2.373,76.394,76.394,0,0,0,2.177,7.424c.8,2.288,1.5,5.555,3.779,6.833a.522.522,0,0,0,.705-.131c1.549-2.078,1.619-4.5,1.418-7.007a33.867,33.867,0,0,0-2.212-10.482" transform="translate(-1005.334 -63.16)" fill="#ab593f"/>
    <path id="Trazado_151688" data-name="Trazado 151688" d="M1766.258,103.055l.563,3.937c.093.647,1.09.46,1-.185l-.564-3.937c-.093-.646-1.09-.46-1,.185" transform="translate(-1020.57 -59.208)" fill="#943f24"/>
    <path id="Trazado_151689" data-name="Trazado 151689" d="M1755.568,109.419a17.949,17.949,0,0,0-2.6,8.148.508.508,0,0,0,1.011.087,16.79,16.79,0,0,1,2.423-7.66c.338-.557-.5-1.134-.836-.575" transform="translate(-1012.895 -63.092)" fill="#943f24"/>
    <path id="Trazado_151690" data-name="Trazado 151690" d="M1800.2,123.893a33.721,33.721,0,0,0-7.919-8.993c-.512-.407-1.084.431-.575.836a32.223,32.223,0,0,1,7.582,8.6c.335.553,1.252.116.912-.444" transform="translate(-1035.163 -66.329)" fill="#943f24"/>
    <path id="Trazado_151691" data-name="Trazado 151691" d="M1816.682,130.493c-1.139-1.754-2.025-3.666-3.26-5.359a37.308,37.308,0,0,0-4.708-5.008c-.47-.443-1.244.214-.768.664a40.129,40.129,0,0,1,4.186,4.327c1.345,1.717,2.265,3.681,3.429,5.514,2.442,3.848,4.533,7.176,5.279,11.778a.508.508,0,0,0,1-.185c-.728-4.491-2.719-7.976-5.156-11.73" transform="translate(-1044.576 -69.326)" fill="#943f24"/>
    <path id="Trazado_151692" data-name="Trazado 151692" d="M1731.7,196.421a.476.476,0,0,1-.362-.167c-.176-.207-4.346-5.116-5.771-9.761a55.056,55.056,0,0,1-1.784-11,.476.476,0,0,1,.449-.5.462.462,0,0,1,.5.449,55.33,55.33,0,0,0,1.743,10.776c1.368,4.457,5.543,9.372,5.585,9.421a.477.477,0,0,1-.362.787" transform="translate(-996.033 -101.111)" fill="#e87c5a"/>
    <path id="Trazado_151693" data-name="Trazado 151693" d="M1665.434,261.878a51.732,51.732,0,0,0-.046-16.045.489.489,0,0,0,.353-.718q-.277-.5-.59-.949c-.045-.307-.086-.611-.134-.92-.064-.417-.508-.427-.763-.2-3.2-3.583-8.255-4.694-13.056-4.8-5.661-.127-12.509,1.026-15.2,6.733-1.161,2.461-.769,5.03-.409,7.631.533,3.844.956,7.731,1.713,11.54,1.395,7.014,4.249,13.84,7.347,20.264,1.32,2.737,5.571,1.661,8.1,1.436a59.62,59.62,0,0,0,12.433-2.748c.635-.2.861-.385.859-1.082-.012-3.45-.356-6.1-.475-9.457-.131-3.724-.79-6.924-.134-10.679" transform="translate(-944.859 -137.654)" fill="#49a6a5"/>
    <path id="Trazado_151694" data-name="Trazado 151694" d="M1712.245,200.41a3.389,3.389,0,0,0-2.115-1.779,13.742,13.742,0,0,1-4.469-2.793c-2.666-2.693-3.96-6.349-4.609-10.012-.435-2.457-.487-4.937-.805-7.4a4.01,4.01,0,0,0-1.107-2.662c-2.1-1.9-6.521-1.071-9.055-1.081a.487.487,0,0,0,0,.973h.236c-3.926,2.315-1.751,10.118-.653,13.431,1.853,5.589,4.138,10.519,10.1,12.406,1.641.519,14.2,4.02,12.475-1.08" transform="translate(-975.395 -100.833)" fill="#49a6a5"/>
    <path id="Trazado_151695" data-name="Trazado 151695" d="M1825.837,370.08c-1-5.086-7.644-8.418-12.365-9.8-1.113-.886-.515-.757-1.345-1.936a.493.493,0,0,0-.765-.1c-1.534,1.767-3.785,3.678-4.822,5.917l-.071-.244a.487.487,0,0,0-.938.259c.555,1.88.8,4.883,2.417,6.2a18.972,18.972,0,0,0,6.8,3.207c1.114.271,2.577.2,2.477-1.338a1.911,1.911,0,0,0-.551-1.169c.913,1,7.939,3.679,8.263,1.146a1.184,1.184,0,0,0,.974-.337c.488-.519.31-1.178-.073-1.8" transform="translate(-1043.254 -206.915)" fill="#ffa98f"/>
    <path id="Trazado_151696" data-name="Trazado 151696" d="M1826.255,383.346a10.287,10.287,0,0,0-2.615-2.114.487.487,0,0,0-.491.841,9.445,9.445,0,0,1,2.418,1.961c.417.469,1.1-.221.688-.688" transform="translate(-1053.309 -220.243)" fill="#e87c5a"/>
    <path id="Trazado_151697" data-name="Trazado 151697" d="M1842.543,384.626a16.717,16.717,0,0,0-4.565-2.347c-.595-.2-.85.74-.259.938a15.88,15.88,0,0,1,4.333,2.249c.506.37.992-.474.491-.84" transform="translate(-1061.672 -220.871)" fill="#e87c5a"/>
    <path id="Trazado_151698" data-name="Trazado 151698" d="M1845.037,378.531a9.743,9.743,0,0,0-5.112-3.865c-.6-.2-.852.744-.259.939a8.662,8.662,0,0,1,4.531,3.417c.348.517,1.192.03.84-.491" transform="translate(-1062.795 -216.474)" fill="#e87c5a"/>
    <path id="Trazado_151699" data-name="Trazado 151699" d="M1719.433,378.619a6.2,6.2,0,0,0-3.094-3.4,41.829,41.829,0,0,0-6.032-2.249,7.054,7.054,0,0,0-1.679-1.457,2.012,2.012,0,0,0-2.509.654c-1.893,1.906-3.42,3.681-5.775,5.049q-.14-.272-.277-.545c-.283-.559-1.123-.067-.841.491a11.424,11.424,0,0,0,2.806,4c1.615,1.277,3.762,1.3,5.719,1.537.585.07,4.559.905,6.364.49a5.452,5.452,0,0,0,2.646.273,1.63,1.63,0,0,0,1.5-1.571c0-.035,1.2-1.274,1.288-1.785a3.233,3.233,0,0,0-.119-1.48" transform="translate(-981.809 -214.539)" fill="#ffa98f"/>
    <path id="Trazado_151700" data-name="Trazado 151700" d="M1720.868,390.392c-.623-.061-.618.912,0,.973,1.356.133,4.736.216,4.881,2.105.048.62,1.021.626.973,0-.209-2.707-3.8-2.876-5.854-3.079" transform="translate(-994.078 -225.574)" fill="#e87c5a"/>
    <path id="Trazado_151701" data-name="Trazado 151701" d="M1733.519,389.765c-.611-2.732-3.586-3.377-5.871-4.242-.586-.222-.84.719-.259.938,1.932.731,4.674,1.246,5.192,3.562.137.611,1.075.352.938-.259" transform="translate(-997.925 -222.742)" fill="#e87c5a"/>
    <path id="Trazado_151702" data-name="Trazado 151702" d="M1735.852,384.169c-1.425-2.455-3.971-3.616-6.661-4.159-.611-.124-.873.814-.258.938,2.444.494,4.776,1.467,6.079,3.712a.487.487,0,0,0,.84-.491" transform="translate(-998.804 -219.57)" fill="#e87c5a"/>
    <path id="Trazado_151703" data-name="Trazado 151703" d="M1471.953,385.712a3.264,3.264,0,0,0-2.892-.852c-.616.11-.355,1.048.258.938a2.233,2.233,0,0,1,1.946.6c.453.432,1.142-.255.688-.688" transform="translate(-848.645 -222.346)" fill="#e87c5a"/>
    <path id="Trazado_151704" data-name="Trazado 151704" d="M1476.05,381.615a2.181,2.181,0,0,0-2.459-1.1c-.609.146-.351,1.084.259.939a1.2,1.2,0,0,1,1.36.654c.286.557,1.126.065.84-.491" transform="translate(-851.265 -219.831)" fill="#e87c5a"/>
    <path id="Trazado_151705" data-name="Trazado 151705" d="M1579.885,385.546a5.782,5.782,0,0,0-2.065-.416.487.487,0,0,0,0,.973,5.03,5.03,0,0,1,1.807.382c.58.235.833-.706.258-.939" transform="translate(-911.419 -222.534)" fill="#e87c5a"/>
    <path id="Trazado_151706" data-name="Trazado 151706" d="M1581.68,380.544l-1.728-.526c-.6-.183-.857.756-.259.939l1.728.526c.6.183.857-.757.259-.939" transform="translate(-912.577 -219.567)" fill="#e87c5a"/>
    <path id="Trazado_151707" data-name="Trazado 151707" d="M1558.335,373.713l-4.265,1.313c-.6.184-.342,1.123.259.939l4.265-1.313c.6-.184.342-1.123-.259-.939" transform="translate(-897.772 -215.924)" fill="#e87c5a"/>
    <path id="Trazado_151708" data-name="Trazado 151708" d="M1522.713,271.38a25.107,25.107,0,0,1-10.536-5.824c-3.1-2.637-6.364-5.455-8.656-8.834-.349-.515-1.193-.029-.84.491,2.484,3.664,6.015,6.73,9.411,9.539a25.365,25.365,0,0,0,10.362,5.566c.61.141.87-.8.259-.938" transform="translate(-868.226 -148.212)" fill="#cf9886"/>
    <path id="Trazado_151709" data-name="Trazado 151709" d="M1517.5,253.238a42.2,42.2,0,0,1-7.65-17.8c-.109-.616-1.047-.355-.938.259a42.784,42.784,0,0,0,7.748,18.036c.368.5,1.213.014.84-.491" transform="translate(-871.868 -135.835)" fill="#cf9886"/>
    <path id="Trazado_151710" data-name="Trazado 151710" d="M1745.529,256.224a29.851,29.851,0,0,1-8.63,4.491c.419-.374.846-.738,1.284-1.081,3.575-2.8,7.656-5.484,7.958-10.447.038-.626-.935-.623-.973,0-.312,5.105-5.1,7.57-8.593,10.493-3.075,2.576-5.544,6.049-9.594,7.129a.487.487,0,0,0,.259.938c3.421-.911,5.841-3.423,8.337-5.8a.435.435,0,0,0,.4.073,30.567,30.567,0,0,0,10.04-4.952c.5-.37.011-1.215-.491-.84" transform="translate(-997.68 -143.714)" fill="#248582"/>
    <path id="Trazado_151711" data-name="Trazado 151711" d="M1633.845,262.105a102.51,102.51,0,0,1-3.255-24.821.487.487,0,0,0-.973,0,103.585,103.585,0,0,0,3.29,25.08.487.487,0,0,0,.938-.259" transform="translate(-941.621 -136.835)" fill="#248582"/>
    <path id="Trazado_151712" data-name="Trazado 151712" d="M1700.76,225.82c.732-6.095-1.678-13.447-5.391-18.239-.383-.494-1.067.2-.688.688a23.522,23.522,0,0,1,4.067,8.6c.878,3.367,1.673,7.172.684,10.584-.721,2.489-1.568,4.319-1.186,6.971.5,3.482,2.316,6.931.568,10.359-.284.557.556,1.05.84.491,1.343-2.635.866-5.314.192-8.079-.541-2.221-1.073-4.369-.47-6.642a34.274,34.274,0,0,0,1.384-4.731" transform="translate(-979.151 -119.846)" fill="#248582"/>
    <path id="Trazado_151713" data-name="Trazado 151713" d="M1679.62,334.274c-2.154,1.408-4.225,3.023-6.715,3.771-2.472.743-5.738,1.666-8.3,1.319-.612-.083-.877.854-.258.938,2.661.361,5.464-.487,8.032-1.125,2.946-.731,5.215-2.419,7.731-4.063.522-.341.035-1.184-.491-.84" transform="translate(-961.484 -193.103)" fill="#248582"/>
    <path id="Trazado_151714" data-name="Trazado 151714" d="M1768.982,325.466a34.615,34.615,0,0,1-12.573,0c-.612-.112-.875.825-.259.938a36.086,36.086,0,0,0,13.091,0c.615-.112.354-1.05-.259-.939" transform="translate(-1014.53 -188.052)" fill="#248582"/>
    <path id="Trazado_151715" data-name="Trazado 151715" d="M1725.621,206.461c-4.838,3.389-9.654-1.31-11.3-5.719-1.509-4.028-1.7-8.4-3.329-12.4-.233-.572-1.175-.322-.938.259,2.12,5.21,1.824,11.467,5.259,16.127,2.47,3.351,7.139,5.14,10.8,2.573.509-.357.024-1.2-.491-.84" transform="translate(-988.074 -108.641)" fill="#248582"/>
  </g>
</svg>
