<svg xmlns="http://www.w3.org/2000/svg" width="190" height="163" viewBox="0 0 190 163">
  <g id="Grupo_166712" data-name="Grupo 166712" transform="translate(-705 -726)">
    <rect id="Rectángulo_40990" data-name="Rectángulo 40990" width="190" height="163" rx="10" transform="translate(705 726)" fill="#6b8dfc"/>
    <path id="Trazado_156192" data-name="Trazado 156192" d="M31.109,5.625l1.4,8.227L36.75,5.625H39.8L37.82,17h-2.3l.563-3.242L37.2,8.7,32.836,17h-1.57L29.742,8.406l-.734,5.6L28.484,17H26.2L28.172,5.625ZM44.617,17a2.281,2.281,0,0,1-.086-.766,2.863,2.863,0,0,1-2.156.922,2.594,2.594,0,0,1-1.84-.723,2.186,2.186,0,0,1-.684-1.746,2.527,2.527,0,0,1,1.16-2.121,5.266,5.266,0,0,1,2.965-.738l1.031.016.109-.508a1.764,1.764,0,0,0,.023-.492.846.846,0,0,0-.277-.574.955.955,0,0,0-.629-.215,1.345,1.345,0,0,0-.875.254,1.231,1.231,0,0,0-.461.777l-2.211.008A2.457,2.457,0,0,1,41.8,9.129a4.312,4.312,0,0,1,2.613-.738,3.117,3.117,0,0,1,2.25.855,2.5,2.5,0,0,1,.68,2.121L46.7,15.414l-.039.5a2.412,2.412,0,0,0,.133.938L46.781,17Zm-1.7-1.555a2.017,2.017,0,0,0,1.664-.828l.273-1.461-.766-.008a2.139,2.139,0,0,0-1.758.742,1.292,1.292,0,0,0-.242.633.75.75,0,0,0,.176.668A.891.891,0,0,0,42.922,15.445Zm8.789-1.664,2.414-5.234h2.453l-4.945,9.727a4.231,4.231,0,0,1-1.246,1.641,2.723,2.723,0,0,1-1.652.523,5.035,5.035,0,0,1-1.062-.164l.164-1.719.3.016a1.651,1.651,0,0,0,1.578-.789l.484-.9L48.82,8.547H51.1Z" transform="translate(759 798)" fill="#12263f"/>
  </g>
</svg>
