<svg xmlns="http://www.w3.org/2000/svg" width="97" height="156" viewBox="0 0 97 156">
  <g id="Grupo_166728" data-name="Grupo 166728" transform="translate(-0.34 0.059)">
    <rect id="Rectángulo_41559" data-name="Rectángulo 41559" width="97" height="156" rx="10" transform="translate(0.34 -0.058)" fill="#ffd947"/>
    <g id="Grupo_166729" data-name="Grupo 166729" transform="translate(9.636 11.563)">
      <path id="Trazado_156247" data-name="Trazado 156247" d="M21.767,3.625l1.4,8.227,4.242-8.227h3.047L28.478,15h-2.3l.563-3.242L27.853,6.7,23.493,15h-1.57L20.4,6.406l-.734,5.6L19.142,15H16.853L18.829,3.625ZM35.274,15a2.281,2.281,0,0,1-.086-.766,2.863,2.863,0,0,1-2.156.922,2.594,2.594,0,0,1-1.84-.723,2.186,2.186,0,0,1-.684-1.746,2.527,2.527,0,0,1,1.16-2.121,5.266,5.266,0,0,1,2.965-.738l1.031.016.109-.508a1.764,1.764,0,0,0,.023-.492.846.846,0,0,0-.277-.574.955.955,0,0,0-.629-.215,1.345,1.345,0,0,0-.875.254,1.231,1.231,0,0,0-.461.777l-2.211.008a2.457,2.457,0,0,1,1.113-1.965,4.312,4.312,0,0,1,2.613-.738,3.117,3.117,0,0,1,2.25.855A2.5,2.5,0,0,1,38,9.367l-.648,4.047-.039.5a2.412,2.412,0,0,0,.133.938L37.439,15Zm-1.7-1.555a2.017,2.017,0,0,0,1.664-.828l.273-1.461-.766-.008a2.139,2.139,0,0,0-1.758.742,1.292,1.292,0,0,0-.242.633.75.75,0,0,0,.176.668A.891.891,0,0,0,33.579,13.445ZM41.11,15H38.892L40.36,6.547h2.219ZM40.618,4.4a1.1,1.1,0,0,1,.344-.867A1.323,1.323,0,0,1,42.7,3.492a1.1,1.1,0,0,1,.383.828,1.132,1.132,0,0,1-.324.844,1.215,1.215,0,0,1-.887.375,1.235,1.235,0,0,1-.863-.3A1.091,1.091,0,0,1,40.618,4.4Zm5.844,2.141-.187,1a3.042,3.042,0,0,1,2.461-1.148,2.028,2.028,0,0,1,1.766.875,3.526,3.526,0,0,1,.414,2.359L50.024,15h-2.2l.906-5.4a2.528,2.528,0,0,0,.016-.555.9.9,0,0,0-1-.82,1.9,1.9,0,0,0-1.555.8L45.134,15h-2.2L44.4,6.547Zm-24.1,29.672,2.406-5.664h2.375L23.06,39H20.95L19.5,30.547h2.234Zm8.281,2.945a3.677,3.677,0,0,1-1.965-.543A3.292,3.292,0,0,1,27.4,37.145a4.093,4.093,0,0,1-.328-2.059l.023-.312a5.465,5.465,0,0,1,.719-2.266,4.341,4.341,0,0,1,1.547-1.59,3.827,3.827,0,0,1,2.094-.527,2.924,2.924,0,0,1,2.473,1.2,4.117,4.117,0,0,1,.637,2.962l-.125.962h-5.18a1.814,1.814,0,0,0,.4,1.313,1.521,1.521,0,0,0,1.172.508,2.7,2.7,0,0,0,2.109-.937l1.008,1.25a3.135,3.135,0,0,1-1.375,1.121A4.5,4.5,0,0,1,30.646,39.156Zm.7-6.945a1.565,1.565,0,0,0-1.082.383,3.363,3.363,0,0,0-.848,1.383H32.45l.047-.2a2.071,2.071,0,0,0,.008-.594,1.134,1.134,0,0,0-.383-.707A1.2,1.2,0,0,0,31.349,32.211Zm9.539.453a4.549,4.549,0,0,0-.742-.078,2.136,2.136,0,0,0-1.867.883L37.3,39H35.1l1.469-8.453,2.07-.008-.2,1.031a2.325,2.325,0,0,1,1.969-1.2,3.214,3.214,0,0,1,.766.109ZM48.966,34.8A6.061,6.061,0,0,1,47.747,38,3.033,3.033,0,0,1,45.2,39.164a2.357,2.357,0,0,1-2.031-1.078l-.32.914H40.841l2.078-12H45.13l-.852,4.32a2.634,2.634,0,0,1,2.063-.93,2.385,2.385,0,0,1,1.926.879,3.89,3.89,0,0,1,.746,2.387A9.132,9.132,0,0,1,48.966,34.8Zm-2.187-.165a6.554,6.554,0,0,0,.047-1.034q-.086-1.364-1.125-1.387a1.833,1.833,0,0,0-1.617.885l-.609,3.37a1.258,1.258,0,0,0,1.266.878q1.625.047,1.992-2.367ZM18.38,61.008l3.25-9.383h1.641L19.052,63H17.724L13.513,51.625h1.633Zm9.352,2.148a3.693,3.693,0,0,1-2.8-1.129,4.19,4.19,0,0,1-1.078-3.02v-.266a5.073,5.073,0,0,1,.48-2.246,3.748,3.748,0,0,1,1.344-1.547,3.378,3.378,0,0,1,1.871-.559,3.166,3.166,0,0,1,2.563,1.086,4.7,4.7,0,0,1,.914,3.109v.6H25.3a3,3,0,0,0,.73,2.02,2.3,2.3,0,0,0,1.777.77,2.517,2.517,0,0,0,1.3-.312,3.259,3.259,0,0,0,.93-.828l.883.688A3.55,3.55,0,0,1,27.731,63.156Zm-.18-7.578a1.928,1.928,0,0,0-1.469.637A3.1,3.1,0,0,0,25.349,58h4.234v-.109a2.753,2.753,0,0,0-.594-1.707A1.815,1.815,0,0,0,27.552,55.578Zm9.234.266a4.331,4.331,0,0,0-.711-.055A1.9,1.9,0,0,0,34.146,57v6H32.7V54.547h1.406l.023.977a2.251,2.251,0,0,1,2.016-1.133,1.477,1.477,0,0,1,.641.109Zm8.484,3.023a5.026,5.026,0,0,1-.891,3.113,2.846,2.846,0,0,1-2.391,1.176,2.947,2.947,0,0,1-2.477-1.133l-.07.977H38.114V51H39.56v4.477a2.93,2.93,0,0,1,2.414-1.086,2.863,2.863,0,0,1,2.418,1.164,5.177,5.177,0,0,1,.879,3.188ZM43.825,58.7a3.906,3.906,0,0,0-.57-2.281,1.888,1.888,0,0,0-1.641-.8,2.122,2.122,0,0,0-2.055,1.328V60.6a2.181,2.181,0,0,0,2.07,1.328,1.878,1.878,0,0,0,1.617-.8A4.153,4.153,0,0,0,43.825,58.7Zm2.883-.008a4.993,4.993,0,0,1,.488-2.234,3.643,3.643,0,0,1,1.359-1.531,3.7,3.7,0,0,1,1.988-.539,3.565,3.565,0,0,1,2.793,1.2,4.6,4.6,0,0,1,1.066,3.18v.1a5.036,5.036,0,0,1-.473,2.215,3.589,3.589,0,0,1-1.352,1.527,3.743,3.743,0,0,1-2.02.547,3.556,3.556,0,0,1-2.785-1.2A4.575,4.575,0,0,1,46.708,58.8Zm1.453.172a3.616,3.616,0,0,0,.652,2.258,2.211,2.211,0,0,0,3.5-.012,3.955,3.955,0,0,0,.648-2.418,3.61,3.61,0,0,0-.66-2.254,2.1,2.1,0,0,0-1.754-.863,2.075,2.075,0,0,0-1.727.852A3.925,3.925,0,0,0,48.161,58.867Zm-36.18,24a5.062,5.062,0,0,1-.883,3.109,2.829,2.829,0,0,1-2.391,1.18,3.1,3.1,0,0,1-2.422-.977v4.07H4.841v-11.7h1.32l.07.938a2.977,2.977,0,0,1,2.453-1.094,2.882,2.882,0,0,1,2.41,1.148,5.117,5.117,0,0,1,.887,3.2ZM10.536,82.7a3.735,3.735,0,0,0-.609-2.258,1.963,1.963,0,0,0-1.672-.828,2.125,2.125,0,0,0-1.969,1.164V84.82a2.129,2.129,0,0,0,1.984,1.156,1.954,1.954,0,0,0,1.652-.824A4.077,4.077,0,0,0,10.536,82.7ZM17.9,79.844a4.331,4.331,0,0,0-.711-.055A1.9,1.9,0,0,0,15.263,81v6H13.817V78.547h1.406l.023.977a2.251,2.251,0,0,1,2.016-1.133,1.477,1.477,0,0,1,.641.109ZM20.8,87H19.356V78.547H20.8ZM19.239,76.3a.863.863,0,0,1,.215-.594.807.807,0,0,1,.637-.242.819.819,0,0,1,.641.242.854.854,0,0,1,.219.594.826.826,0,0,1-.219.586.834.834,0,0,1-.641.234.821.821,0,0,1-.637-.234A.834.834,0,0,1,19.239,76.3Zm5.242,2.242.047,1.063a3.08,3.08,0,0,1,2.531-1.219q2.68,0,2.7,3.023V87H28.317V81.406a1.946,1.946,0,0,0-.418-1.352,1.675,1.675,0,0,0-1.277-.437,2.086,2.086,0,0,0-1.234.375,2.546,2.546,0,0,0-.828.984V87H23.114V78.547Zm10.852,7.43a2.082,2.082,0,0,0,1.352-.469,1.649,1.649,0,0,0,.641-1.172h1.367a2.621,2.621,0,0,1-.5,1.383,3.293,3.293,0,0,1-1.23,1.047,3.55,3.55,0,0,1-1.629.391A3.482,3.482,0,0,1,32.587,86a4.59,4.59,0,0,1-1.02-3.152v-.242a5.089,5.089,0,0,1,.453-2.2,3.451,3.451,0,0,1,1.3-1.492,3.7,3.7,0,0,1,2-.531,3.39,3.39,0,0,1,2.363.852,3.043,3.043,0,0,1,1,2.211H37.325a1.992,1.992,0,0,0-.621-1.348,1.932,1.932,0,0,0-1.379-.527,2.023,2.023,0,0,0-1.707.793,3.724,3.724,0,0,0-.605,2.293v.273a3.65,3.65,0,0,0,.6,2.25A2.033,2.033,0,0,0,35.333,85.977ZM41.888,87H40.442V78.547h1.445ZM40.325,76.3a.863.863,0,0,1,.215-.594.807.807,0,0,1,.637-.242.819.819,0,0,1,.641.242.854.854,0,0,1,.219.594.826.826,0,0,1-.219.586.834.834,0,0,1-.641.234.821.821,0,0,1-.637-.234A.834.834,0,0,1,40.325,76.3Zm11.016,6.563a5.062,5.062,0,0,1-.883,3.109,2.829,2.829,0,0,1-2.391,1.18,3.1,3.1,0,0,1-2.422-.977v4.07H44.2v-11.7h1.32l.07.938a2.977,2.977,0,0,1,2.453-1.094,2.882,2.882,0,0,1,2.41,1.148,5.117,5.117,0,0,1,.887,3.2ZM49.9,82.7a3.735,3.735,0,0,0-.609-2.258,1.963,1.963,0,0,0-1.672-.828,2.125,2.125,0,0,0-1.969,1.164V84.82a2.129,2.129,0,0,0,1.984,1.156,1.954,1.954,0,0,0,1.652-.824A4.077,4.077,0,0,0,49.9,82.7ZM58.4,87a3.036,3.036,0,0,1-.2-.891,3.225,3.225,0,0,1-2.406,1.047,2.984,2.984,0,0,1-2.051-.707,2.287,2.287,0,0,1-.8-1.793,2.39,2.39,0,0,1,1-2.051,4.733,4.733,0,0,1,2.824-.73h1.406v-.664A1.623,1.623,0,0,0,57.716,80a1.821,1.821,0,0,0-1.336-.449,2.108,2.108,0,0,0-1.3.391,1.151,1.151,0,0,0-.523.945H53.106a2,2,0,0,1,.449-1.223,3.066,3.066,0,0,1,1.219-.934,4.1,4.1,0,0,1,1.691-.344,3.342,3.342,0,0,1,2.289.73,2.635,2.635,0,0,1,.859,2.012v3.891a4.757,4.757,0,0,0,.3,1.852V87ZM56,85.9a2.54,2.54,0,0,0,1.289-.352,2.127,2.127,0,0,0,.883-.914V82.9H57.036q-2.656,0-2.656,1.555a1.316,1.316,0,0,0,.453,1.063A1.742,1.742,0,0,0,56,85.9ZM63.45,87H62V75H63.45ZM27.122,111.156a3.048,3.048,0,0,1-2.469-1.164,4.006,4.006,0,0,1-.75-2.9l.039-.336a5.624,5.624,0,0,1,.746-2.3,4.339,4.339,0,0,1,1.5-1.566,3.491,3.491,0,0,1,1.906-.5,2.688,2.688,0,0,1,2.047.867,3.566,3.566,0,0,1,.813,2.266,6.621,6.621,0,0,1-.031,1.016l-.086.648H25.31a2.856,2.856,0,0,0,.379,1.953,1.8,1.8,0,0,0,1.551.836,3.007,3.007,0,0,0,2.313-1.125l.813.688a3.718,3.718,0,0,1-1.371,1.2A3.886,3.886,0,0,1,27.122,111.156Zm.9-7.586a2.066,2.066,0,0,0-1.527.594A4.22,4.22,0,0,0,25.458,106l4.109.008.031-.125a2.313,2.313,0,0,0-.316-1.637A1.488,1.488,0,0,0,28.021,103.57ZM36.935,111a1.894,1.894,0,0,1-.055-.445l.023-.445a3.465,3.465,0,0,1-2.469,1.047,2.526,2.526,0,0,1-1.816-.707,2.14,2.14,0,0,1-.637-1.73,2.6,2.6,0,0,1,1.176-2.1,5.005,5.005,0,0,1,2.887-.754l1.477.008.094-.672a1.545,1.545,0,0,0-.293-1.2,1.414,1.414,0,0,0-1.113-.457,2.181,2.181,0,0,0-1.285.355,1.513,1.513,0,0,0-.684.98l-1.422.008a2.266,2.266,0,0,1,.578-1.316,3.363,3.363,0,0,1,1.3-.891,4.215,4.215,0,0,1,1.648-.3,2.8,2.8,0,0,1,2.055.8,2.484,2.484,0,0,1,.617,2.043l-.687,4.188-.039.6a2.949,2.949,0,0,0,.094.852l-.016.133Zm-2.219-1.094A2.466,2.466,0,0,0,36,109.582a3.254,3.254,0,0,0,1.043-.941l.3-1.742-1.07-.008a4.054,4.054,0,0,0-2.047.422,1.554,1.554,0,0,0-.8,1.2,1.21,1.21,0,0,0,.277.988A1.321,1.321,0,0,0,34.716,109.906Zm9.3-9.406-.359,2.047H45.2l-.2,1.117H43.474l-.883,5.258a1.833,1.833,0,0,0-.008.375.6.6,0,0,0,.664.609,4.05,4.05,0,0,0,.688-.078l-.109,1.18a3.847,3.847,0,0,1-1.031.141,1.476,1.476,0,0,1-1.266-.621A2.4,2.4,0,0,1,41.2,108.9l.859-5.234H40.567l.2-1.117h1.492l.359-2.047Zm-16.9,34.656a3.048,3.048,0,0,1-2.469-1.164,4.006,4.006,0,0,1-.75-2.9l.039-.336a5.624,5.624,0,0,1,.746-2.3,4.339,4.339,0,0,1,1.5-1.566,3.491,3.491,0,0,1,1.906-.5,2.688,2.688,0,0,1,2.047.867,3.566,3.566,0,0,1,.813,2.266,6.621,6.621,0,0,1-.031,1.016l-.086.648H25.31a2.856,2.856,0,0,0,.379,1.953,1.8,1.8,0,0,0,1.551.836,3.007,3.007,0,0,0,2.313-1.125l.813.688a3.718,3.718,0,0,1-1.371,1.2A3.886,3.886,0,0,1,27.122,135.156Zm.9-7.586a2.066,2.066,0,0,0-1.527.594A4.22,4.22,0,0,0,25.458,130l4.109.008.031-.125a2.313,2.313,0,0,0-.316-1.637A1.488,1.488,0,0,0,28.021,127.57ZM36.935,135a1.894,1.894,0,0,1-.055-.445l.023-.445a3.465,3.465,0,0,1-2.469,1.047,2.526,2.526,0,0,1-1.816-.707,2.14,2.14,0,0,1-.637-1.73,2.6,2.6,0,0,1,1.176-2.1,5.005,5.005,0,0,1,2.887-.754l1.477.008.094-.672a1.545,1.545,0,0,0-.293-1.2,1.414,1.414,0,0,0-1.113-.457,2.181,2.181,0,0,0-1.285.355,1.513,1.513,0,0,0-.684.98l-1.422.008a2.266,2.266,0,0,1,.578-1.316,3.363,3.363,0,0,1,1.3-.891,4.215,4.215,0,0,1,1.648-.3,2.8,2.8,0,0,1,2.055.8,2.484,2.484,0,0,1,.617,2.043l-.687,4.188-.039.6a2.949,2.949,0,0,0,.094.852l-.016.133Zm-2.219-1.094A2.466,2.466,0,0,0,36,133.582a3.254,3.254,0,0,0,1.043-.941l.3-1.742-1.07-.008a4.054,4.054,0,0,0-2.047.422,1.554,1.554,0,0,0-.8,1.2,1.21,1.21,0,0,0,.277.988A1.321,1.321,0,0,0,34.716,133.906Zm9.3-9.406-.359,2.047H45.2l-.2,1.117H43.474l-.883,5.258a1.833,1.833,0,0,0-.008.375.6.6,0,0,0,.664.609,4.05,4.05,0,0,0,.688-.078l-.109,1.18a3.847,3.847,0,0,1-1.031.141,1.476,1.476,0,0,1-1.266-.621A2.4,2.4,0,0,1,41.2,132.9l.859-5.234H40.567l.2-1.117h1.492l.359-2.047Z" transform="translate(5.3 0)" fill="#12263f"/>
      <path id="Trazado_156248" data-name="Trazado 156248" d="M0,0H77.317" transform="translate(0 120.024)" fill="none" stroke="#3c3fa7" stroke-width="1"/>
    </g>
  </g>
</svg>
