<svg xmlns="http://www.w3.org/2000/svg" xmlns:xlink="http://www.w3.org/1999/xlink" width="85" height="85" viewBox="0 0 85 85">
  <defs>
    <clipPath id="clip-path">
      <rect id="Rectángulo_41178" data-name="Rectángulo 41178" width="61.798" height="50.221" fill="none"/>
    </clipPath>
  </defs>
  <g id="Grupo_165981" data-name="Grupo 165981" transform="translate(-1125 -8226)">
    <circle id="Elipse_4862" data-name="Elipse 4862" cx="42.5" cy="42.5" r="42.5" transform="translate(1125 8226)" fill="#ff9fa3"/>
    <g id="Grupo_165980" data-name="Grupo 165980" transform="translate(1137 8243)">
      <g id="Grupo_165979" data-name="Grupo 165979" transform="translate(0 0)" clip-path="url(#clip-path)">
        <path id="Trazado_153484" data-name="Trazado 153484" d="M61.8,45.389a2.876,2.876,0,0,0-.311.946,5.672,5.672,0,0,1-5.294,3.87c-7.641.023-15.282.011-22.922.008a3.107,3.107,0,0,1-2.094-.793c-.209-.182-.33-.2-.545-.008a3.449,3.449,0,0,1-2.392.81q-11.13-.012-22.26-.006a5.732,5.732,0,0,1-5.978-6Q0,26.359,0,8.5A2.732,2.732,0,0,1,3.045,5.449c.464,0,.6-.1.59-.582A2.729,2.729,0,0,1,6.68,1.817c.382,0,.764.006,1.146,0C8.447,1.8,9.15,2.063,9.209.958c.033-.6.672-.935,1.31-.942q2.745-.028,5.489,0a1.477,1.477,0,0,1,1.489,1.5c.019.422.018.844.025,1.265a1.028,1.028,0,0,1,.161.69q.005,3.62,0,7.24a1.973,1.973,0,0,1-.292,1.092,1.614,1.614,0,0,1-2.264.531,8.9,8.9,0,0,1-1.178-.939c-.6-.525-.741-.527-1.328-.015-.319.278-.639.552-.977.807a1.588,1.588,0,0,1-1.749.256,1.7,1.7,0,0,1-1.019-1.585c-.028-1.166-.007-2.333-.01-3.5,0-.965-.01-1.931,0-2.9.006-.446-.14-.676-.624-.654-.522.023-1.046-.008-1.568.01-.771.027-1.026.293-1.059,1.079-.008.181,0,.362,0,.543V42.97c0,1.5.125,1.631,1.6,1.631H28.337c1.265,0,1.407-.132,1.516-1.388.019-.221.01-.442.016-.663a.548.548,0,0,0-.493-.627c-.667-.16-.938-.512-.929-1.076a1,1,0,0,1,.905-1.035.582.582,0,0,0,.518-.672q-.009-1.6,0-3.2a.583.583,0,0,0-.526-.666,1,1,0,0,1-.9-1.041c0-.563.264-.909.937-1.069a.553.553,0,0,0,.485-.634q0-1.629,0-3.258a.556.556,0,0,0-.493-.629c-.668-.164-.938-.513-.929-1.076s.27-.872.965-1.049a.526.526,0,0,0,.456-.593q0-1.659,0-3.319a.535.535,0,0,0-.461-.593c-.7-.186-.954-.5-.959-1.053-.006-.575.249-.88.992-1.087a.506.506,0,0,0,.426-.556q.01-1.69,0-3.379c0-.339-.169-.484-.492-.57-.667-.177-.934-.518-.925-1.082a1,1,0,0,1,.908-1.032.582.582,0,0,0,.513-.676c0-1.026-.008-2.052,0-3.077a.6.6,0,0,0-.518-.681.979.979,0,0,1-.789-1.009.979.979,0,0,1,.81-1.051.592.592,0,0,0,.5-.692,11.511,11.511,0,0,0-.04-1.265c-.11-.738-.366-.981-1.113-.986-2.072-.016-4.143,0-6.215-.007a14.63,14.63,0,0,1-1.688-.028c-.648-.077-.942-.414-.918-1,.157-.75.4-.962,1.132-.963,2.653,0,5.306,0,7.959,0a2.628,2.628,0,0,1,1.589.463.449.449,0,0,0,.631.009,2.67,2.67,0,0,1,1.647-.472q11.214.007,22.429,0a2.691,2.691,0,0,1,2.879,2.911c-.009.554.084.757.695.724A2.794,2.794,0,0,1,61.8,7.61V38.147a.928.928,0,0,1-1.022.74,1.151,1.151,0,0,1-.971-1.2c-.02-.281-.011-.563-.011-.844q0-13.842,0-27.683a6.555,6.555,0,0,0-.033-.963.783.783,0,0,0-.638-.711c-.506-.118-.712.034-.746.552-.016.241-.007.483-.007.724q0,17.34.01,34.679a3.177,3.177,0,0,1-1.6,3.023,3.716,3.716,0,0,1-1.82.327q-10.982,0-21.965,0a1.54,1.54,0,0,0-.181,0c-.243.029-.572-.109-.682.215a.787.787,0,0,0,.3.8,1.416,1.416,0,0,0,.869.379,8.364,8.364,0,0,0,.965.026c6.959,0,13.919-.008,20.877,0a4.151,4.151,0,0,0,3.633-1.176,3.775,3.775,0,0,0,1.04-2.555c.025-.762-.019-1.525.017-2.287.032-.707.323-1.014,1.047-1.175a.925.925,0,0,1,.92.743Z" transform="translate(0 0)"/>
        <path id="Trazado_153485" data-name="Trazado 153485" d="M26.758,6.293a1.037,1.037,0,0,0,1.19.853c2.575-.016,5.15-.008,7.724-.006.865,0,1.168.294,1.182,1.144.009.563-.008,1.127.006,1.69.008.278-.021.426-.374.438a.867.867,0,0,0-.947.874c-.01.527.324.874.973.91.318.018.35.144.348.4-.009,1.308-.014,2.615,0,3.923,0,.32-.092.4-.408.406-.677.011-1.046.361-1.038.907s.366.869,1.063.881c.35.006.382.15.38.433-.011,1.328-.016,2.656,0,3.983.005.347-.1.431-.44.434a.888.888,0,0,0-1.006.878.878.878,0,0,0,.974.91c.365,0,.481.081.474.464q-.038,1.961,0,3.922c.008.382-.108.466-.473.465a.9.9,0,1,0-.03,1.786c.388,0,.512.094.5.5-.027,1.287-.019,2.575,0,3.862,0,.332-.029.5-.441.5a.877.877,0,0,0-1,.878c-.008.547.36.9,1.037.909.314.006.412.084.408.4q-.025,2.022,0,4.043c0,.33-.108.393-.414.4-.676.014-1.043.364-1.032.913.011.528.371.871,1.008.877.339,0,.457.091.437.437-.028.481,0,.965-.009,1.448-.014.855-.312,1.146-1.176,1.146q-7.121,0-14.242,0-3.952,0-7.905,0c-.947,0-1.236-.281-1.236-1.2q0-19.371,0-38.743c0-.93.289-1.212,1.229-1.215.624,0,1.249.027,1.871-.01.416-.025.537.084.532.518-.025,2.172,0,4.345-.018,6.517A1.592,1.592,0,0,0,16.79,15.8a1.538,1.538,0,0,0,1.816-.39c.383-.355.811-.665,1.174-1.039.288-.3.475-.231.736.019.406.389.846.743,1.269,1.115a1.459,1.459,0,0,0,1.67.307,1.5,1.5,0,0,0,.909-1.5q0-4.012.019-8.024h2.374" transform="translate(-6.861 -3.512)" fill="#f1f1f1"/>
        <path id="Trazado_153486" data-name="Trazado 153486" d="M93.625,49.354c-.18.008-.361.022-.541.022q-9.927,0-19.853,0c-.99,0-1.26-.264-1.268-1.236,0-.281,0-.563,0-.845,0-.489-.161-1.025.693-1.016.419,0,.65-.443.612-.9a.8.8,0,0,0-.809-.813c-.444,0-.514-.165-.506-.561.025-1.267.018-2.535,0-3.8,0-.324.016-.509.433-.5a.829.829,0,0,0,.883-.871.86.86,0,0,0-.906-.912c-.3-.017-.417-.068-.413-.4q.029-2.021,0-4.043c0-.321.1-.393.406-.409a.893.893,0,1,0-.024-1.784c-.344-.014-.381-.149-.379-.434.011-1.327.017-2.655,0-3.983-.005-.347.1-.43.437-.438a.891.891,0,1,0-.026-1.783c-.373-.01-.413-.155-.41-.467q.023-1.961,0-3.922c0-.307.028-.46.406-.47A.892.892,0,1,0,72.335,18c-.347-.014-.379-.153-.377-.436.011-1.287.017-2.575,0-3.862-.006-.348.1-.43.438-.433.635-.008,1-.353,1.007-.879.01-.548-.358-.9-1.034-.912-.3-.008-.424-.071-.41-.4.027-.643-.01-1.288.017-1.93a.873.873,0,0,1,.956-.933q10.348,0,20.7.016a.785.785,0,0,1,.3.628c.017.221.015.442.015.663q0,19.268,0,38.536c0,.448.114.941-.316,1.292" transform="translate(-40.157 -4.587)" fill="#fefefe"/>
        <path id="Trazado_153487" data-name="Trazado 153487" d="M4.1,35.594V17.672c0-1.091.464-1.475,1.552-1.325.219.03.267.116.259.3-.007.161,0,.322,0,.483v35.42c0,2.11,1.037,3.152,3.139,3.152q10.982,0,21.964,0a2.684,2.684,0,0,0,.779-.036c.45-.14.515.031.474.425a1.5,1.5,0,0,1-1.4,1.41c-.18.016-.362.008-.543.008H8.422a3.954,3.954,0,0,1-4.323-4.3q0-8.81,0-17.62" transform="translate(-2.288 -9.106)" fill="#cbac76"/>
        <path id="Trazado_153488" data-name="Trazado 153488" d="M121,49.349a2.818,2.818,0,0,0,.129-.887q-.006-19.673,0-39.346A2.751,2.751,0,0,0,121,8.23c.643-.007,1.285-.029,1.928-.016a.9.9,0,0,1,.97.985c.005.12,0,.241,0,.361V48.023c0,1.1-.241,1.35-1.333,1.348-.522,0-1.044-.014-1.566-.021" transform="translate(-67.531 -4.582)" fill="#e7e7e7"/>
        <path id="Trazado_153489" data-name="Trazado 153489" d="M130.768,47.892q0,1.2,0,2.391c-.739.148-.952.4-.958,1.132s.008,1.484,0,2.226a3.925,3.925,0,0,1-3.862,3.893c-.28.006-.56-.008-.841-.013.021-.324.331-.418.5-.623a4.4,4.4,0,0,0,.917-1.439,3.077,3.077,0,0,0,1.488-2.883q-.032-17.7,0-35.4c0-.26-.305-.727.295-.8.856-.1,1.381.167,1.483.767a3.976,3.976,0,0,1,.018.662q0,14.413,0,28.827c0,.86.186,1.1.958,1.257" transform="translate(-69.822 -9.13)" fill="#b4874d"/>
        <path id="Trazado_153490" data-name="Trazado 153490" d="M96.883,104.841c.237.162.062.326-.019.459a5.006,5.006,0,0,1-1.4,1.6q-6.123.008-12.247.016-4.766,0-9.533,0a1.518,1.518,0,0,1-1.688-1.554c0-.215-.019-.394.319-.322a4.912,4.912,0,0,0,1.018.068q10.951.005,21.9.008a4.243,4.243,0,0,0,1.649-.278" transform="translate(-40.181 -58.513)" fill="#cbac75"/>
        <path id="Trazado_153491" data-name="Trazado 153491" d="M29.4,12.54c-.511-.445-.913-.8-1.326-1.152a1.531,1.531,0,0,0-2.176,0c-.411.35-.814.708-1.213,1.055-.157-.061-.11-.176-.11-.264,0-2.532.006-5.064-.011-7.6,0-.391.1-.507.495-.5,1.305.026,2.612.01,3.918.009.218,0,.432-.05.43.311C29.4,7.076,29.4,9.745,29.4,12.54" transform="translate(-13.709 -2.281)" fill="#f6a974"/>
        <path id="Trazado_153492" data-name="Trazado 153492" d="M24.288,35.116a2.8,2.8,0,0,1,1.916.764c.462.448.938.885,1.36,1.369.319.365.506.4.871.019,1.611-1.659,3.254-3.286,4.9-4.912a2.714,2.714,0,0,1,4.616,1.582,2.469,2.469,0,0,1-.7,2.159c-2.461,2.486-4.922,4.974-7.425,7.418a2.61,2.61,0,0,1-3.658-.028q-1.933-1.861-3.8-3.8a2.535,2.535,0,0,1-.5-2.958,2.658,2.658,0,0,1,2.419-1.617" transform="translate(-12.056 -17.604)"/>
        <path id="Trazado_153493" data-name="Trazado 153493" d="M31.465,67.206q2.865,0,5.729,0c.72,0,1.12.315,1.136.877.017.589-.395.931-1.141.932q-5.789,0-11.579,0c-.72,0-1.119-.316-1.136-.878-.017-.589.394-.93,1.141-.931q2.924,0,5.85,0" transform="translate(-13.659 -37.508)"/>
        <path id="Trazado_153494" data-name="Trazado 153494" d="M34.416,77.21c-1.125,0-2.251,0-3.376,0-.7,0-1.109-.344-1.108-.907s.41-.9,1.112-.9q3.406-.005,6.813,0c.7,0,1.11.344,1.108.906s-.412.9-1.113.9c-1.146,0-2.291,0-3.437,0" transform="translate(-16.705 -42.081)"/>
        <path id="Trazado_153495" data-name="Trazado 153495" d="M88.78,31.658a2.645,2.645,0,0,1,1.9.778c.421.4.845.806,1.235,1.238.31.345.554.383.879.016.373-.42.779-.813,1.191-1.2a2.718,2.718,0,0,1,3.759.008,2.682,2.682,0,0,1,.136,3.752c-.411.467-.86.9-1.314,1.328-.289.271-.279.48.005.744.412.383.809.783,1.194,1.193a2.7,2.7,0,0,1,.017,3.846,2.73,2.73,0,0,1-3.892-.042c-.361-.349-.732-.692-1.061-1.07s-.578-.414-.922-.018a16.791,16.791,0,0,1-1.189,1.2A2.715,2.715,0,1,1,86.9,39.581c.4-.42.81-.84,1.238-1.234.311-.288.3-.512-.006-.795-.469-.44-.934-.887-1.357-1.37a2.567,2.567,0,0,1-.465-2.913,2.616,2.616,0,0,1,2.475-1.61" transform="translate(-48.023 -17.669)"/>
        <path id="Trazado_153496" data-name="Trazado 153496" d="M91.433,69.016q-2.865,0-5.73,0c-.745,0-1.156-.345-1.137-.935.018-.561.416-.873,1.138-.874q5.79,0,11.58,0c.722,0,1.121.313,1.138.874.018.589-.394.933-1.139.935q-2.925,0-5.85,0" transform="translate(-47.197 -37.508)"/>
        <path id="Trazado_153497" data-name="Trazado 153497" d="M94.493,77.209c-1.125,0-2.251,0-3.376,0-.7,0-1.1-.351-1.09-.922.01-.546.4-.884,1.066-.885q3.437-.007,6.874,0c.7,0,1.1.351,1.091.921-.011.545-.406.882-1.066.886-1.166.007-2.331,0-3.5,0" transform="translate(-50.245 -42.08)"/>
        <path id="Trazado_153498" data-name="Trazado 153498" d="M30.325,44.709a1.014,1.014,0,0,1-.741-.337c-1.162-1.168-2.333-2.327-3.49-3.5A.907.907,0,1,1,27.361,39.6c.549.531,1.081,1.078,1.623,1.616a1.583,1.583,0,0,0,2.638.014q2.559-2.555,5.111-5.116a1.045,1.045,0,0,1,1.12-.392.9.9,0,0,1,.276,1.551c-.925.949-1.871,1.878-2.809,2.816q-2.087,2.089-4.174,4.178a1.106,1.106,0,0,1-.822.444" transform="translate(-14.361 -19.909)" fill="#8fd298"/>
        <path id="Trazado_153499" data-name="Trazado 153499" d="M99.075,36.681a1.068,1.068,0,0,1-.35.78c-.412.411-.832.816-1.233,1.238a2.089,2.089,0,0,0-.017,3.066c.372.395.767.767,1.147,1.154.54.55.594,1.049.167,1.464-.406.393-.937.319-1.473-.209-.386-.381-.76-.775-1.154-1.148a2.075,2.075,0,0,0-2.976-.015c-.456.423-.88.881-1.327,1.314-.5.484-1.038.524-1.424.119s-.344-.891.129-1.38c.4-.419.826-.821,1.233-1.238a2.1,2.1,0,0,0,.016-3.153c-.406-.418-.828-.82-1.234-1.238-.5-.511-.534-1.022-.119-1.424a.932.932,0,0,1,1.381.128c.433.419.845.859,1.282,1.274a2.1,2.1,0,0,0,3.11-.025c.433-.419.852-.852,1.283-1.274a.916.916,0,0,1,1.559.565" transform="translate(-50.327 -19.959)" fill="#f39494"/>
      </g>
    </g>
  </g>
</svg>
