<svg xmlns="http://www.w3.org/2000/svg" xmlns:xlink="http://www.w3.org/1999/xlink" width="85" height="85" viewBox="0 0 85 85">
  <defs>
    <clipPath id="clip-path">
      <rect id="Rectángulo_41177" data-name="Rectángulo 41177" width="53.697" height="54.023" fill="none"/>
    </clipPath>
  </defs>
  <g id="Grupo_165978" data-name="Grupo 165978" transform="translate(-653 -8226)">
    <circle id="Elipse_4863" data-name="Elipse 4863" cx="42.5" cy="42.5" r="42.5" transform="translate(653 8226)" fill="#ff9fa3"/>
    <g id="Grupo_165977" data-name="Grupo 165977" transform="translate(668.529 8241.539)">
      <g id="Grupo_165976" data-name="Grupo 165976" clip-path="url(#clip-path)">
        <path id="Trazado_153436" data-name="Trazado 153436" d="M8.442,55.363c-.449-.137-.49-.459-.4-.853a4.879,4.879,0,0,1,4.763-3.69,4.76,4.76,0,0,1,4.643,3.816,19.541,19.541,0,0,1,.011,5.518A3.981,3.981,0,0,1,16.3,62.409a.851.851,0,0,0-.276.66c.017.717.028,1.436,0,2.151-.016.348.134.452.43.529,1.8.464,3.6.929,5.394,1.42a4.72,4.72,0,0,1,3.637,4.724c.017,5.092.005,10.185.008,15.277,0,.339-.014.675-.423.761s-.572-.2-.683-.528a1.2,1.2,0,0,1-.165-.874q0-7.227,0-14.454A3.484,3.484,0,0,0,21.4,68.339c-1.117-.326-2.252-.591-3.37-.91-.4-.16-.823-.228-1.289-.362.5,1.182,1.044,2.283,1.57,3.391.338.713.657,1.434,1,2.143.317.647.225.92-.388,1.292-.505.307-1.023.6-1.539.883a.522.522,0,0,0-.251.757c.338.868.635,1.753.978,2.62a1.142,1.142,0,0,1-.22,1.241c-1.267,1.581-2.528,3.167-3.828,4.72a2.418,2.418,0,0,0-.629,2.014c-.03.428.111.874-.136,1.278-.064.3-.211.532-.556.532s-.491-.228-.556-.531c-.246-.4-.107-.849-.138-1.275a2.334,2.334,0,0,0-.626-2.011C10.163,82.66,9,81.108,7.742,79.64a1.561,1.561,0,0,1-.288-1.82c.328-.755.568-1.547.871-2.313.137-.346.094-.561-.254-.741-.493-.255-.966-.547-1.449-.822-.714-.406-.818-.712-.452-1.443.9-1.79,1.717-3.616,2.616-5.46-.452.183-.9.236-1.315.384-1.158.323-2.326.6-3.481.931A3.531,3.531,0,0,0,1.4,70.785,3.678,3.678,0,0,0,1.287,71.9q0,7.314,0,14.628c0,.3.066.617-.172.871-.114.321-.269.616-.679.531S0,87.516,0,87.176C0,82.089-.008,77,.01,71.915a4.733,4.733,0,0,1,3.77-4.776c1.762-.461,3.522-.933,5.286-1.386.306-.079.455-.2.416-.541a4.4,4.4,0,0,1,0-.8,3.147,3.147,0,0,0-.761-2.651,3.743,3.743,0,0,1-.806-2.344c-.039-.435.085-.736.533-.852.556-.045.634.339.683.755a3.714,3.714,0,0,0,1.1,2.389,3.457,3.457,0,0,0,3.877.768,3.441,3.441,0,0,0,2.255-3.2c.074-1.215.042-2.439.009-3.657a3.614,3.614,0,0,0-7.085-.968c-.222.7-.308.771-.836.717" transform="translate(0 -33.924)"/>
        <path id="Trazado_153437" data-name="Trazado 153437" d="M94.97,67.817c-.037-.443.208-.64.606-.742,1.68-.431,3.355-.881,5.037-1.3.349-.088.531-.219.471-.609a3.45,3.45,0,0,1,0-.7,3.175,3.175,0,0,0-.766-2.7,3.079,3.079,0,0,1-.767-2.081,26.349,26.349,0,0,1,.055-4.832,4.815,4.815,0,0,1,9.552.47,27.174,27.174,0,0,1-.065,4.672,4.222,4.222,0,0,1-1.155,2.376,1.04,1.04,0,0,0-.308.811c.019.663.035,1.329-.005,1.99-.024.393.132.517.479.605q2.651.675,5.292,1.391a4.72,4.72,0,0,1,3.687,4.742c.022,5.093.007,10.187.009,15.28,0,.341-.03.672-.437.753s-.56-.22-.678-.537c-.232-.257-.167-.575-.167-.873,0-4.837-.046-9.675.017-14.512a3.659,3.659,0,0,0-2.872-3.705c-1.115-.265-2.221-.57-3.325-.876-.4-.163-.823-.222-1.287-.368.511,1.2,1.064,2.316,1.592,3.44.342.728.669,1.465,1.028,2.186.259.52.174.806-.327,1.133-.524.342-1.079.636-1.626.941a.541.541,0,0,0-.264.8c.349.843.62,1.717.959,2.564a1.17,1.17,0,0,1-.221,1.287c-1.275,1.57-2.5,3.178-3.821,4.712a2.383,2.383,0,0,0-.625,2.012c-.028.43.109.877-.138,1.283-.053.311-.212.521-.549.522s-.483-.231-.555-.526c-.254-.4-.114-.848-.145-1.275a2.342,2.342,0,0,0-.62-2.01c-1.269-1.48-2.449-3.037-3.714-4.521a1.475,1.475,0,0,1-.28-1.718c.333-.77.573-1.581.891-2.36a.524.524,0,0,0-.289-.779c-.493-.251-.966-.545-1.447-.821-.667-.382-.788-.672-.447-1.36.628-1.267,1.195-2.563,1.841-3.821.27-.525.488-1.072.766-1.667-.443.115-.835.209-1.225.318-1.013.274-2.022.555-3.04.806a1.4,1.4,0,0,1-.789.027c-.193-.064-.358-.169-.32-.419" transform="translate(-63.392 -33.929)"/>
        <path id="Trazado_153438" data-name="Trazado 153438" d="M64.617,1.618l1.026.248a2.011,2.011,0,0,0,1.037.857A8.921,8.921,0,0,1,71.2,13.8a7.654,7.654,0,0,1-.9,1.768,1.161,1.161,0,0,0-.139,1.164c.184.486.351.98.491,1.48s.017.612-.463.483a16.974,16.974,0,0,1-1.644-.506,1.109,1.109,0,0,0-1.019.1,8.71,8.71,0,0,1-9.241.023,1.214,1.214,0,0,0-1.123-.11c-.468.179-.948.331-1.429.472-.2.059-.44.178-.614.015s-.049-.407.014-.607c.133-.428.259-.86.428-1.274A1.332,1.332,0,0,0,55.4,15.5a8.611,8.611,0,0,1-.378-8.909A8.5,8.5,0,0,1,61.3,2a1.628,1.628,0,0,0,1.169-.548l1.041.036C63.994,2,64,2,64.617,1.618" transform="translate(-36.017 -0.97)" fill="#efbf20"/>
        <path id="Trazado_153439" data-name="Trazado 153439" d="M40.017,120.436q0-.7,0-1.4c1.752-1.989,3.339-4.116,5.037-6.149a1.787,1.787,0,0,0,.339-1.983c-.259-.648-.469-1.316-.735-1.962a.609.609,0,0,1,.294-.891c.376-.207.752-.417,1.117-.644a1.335,1.335,0,0,0,.607-1.915q-.521-1.15-1.075-2.284c-.395-.8-.746-1.628-1.143-2.431-.077-.155-.364-.5.176-.477,1.348.355,2.72.641,4.039,1.083a3.224,3.224,0,0,1,2.393,3.072c.07,5.325.025,10.652.024,15.978l-3.014,0c-.239-.254-.172-.574-.173-.87q-.008-5.434,0-10.868a2.521,2.521,0,0,0-.067-.8c-.053-.159-.142-.306-.333-.3s-.263.161-.3.326a3.861,3.861,0,0,0-.036.751q0,5.461,0,10.922c0,.312.083.653-.189.914a1.04,1.04,0,0,0-.524-.073l-6.432,0" transform="translate(-26.713 -66.953)" fill="#72c1e8"/>
        <path id="Trazado_153440" data-name="Trazado 153440" d="M124.829,120.415l0-1.4c1.758-2.01,3.361-4.147,5.074-6.192a1.764,1.764,0,0,0,.334-1.893c-.26-.706-.5-1.42-.783-2.118a.534.534,0,0,1,.261-.76c.4-.237.813-.455,1.208-.7a1.316,1.316,0,0,0,.585-1.837c-.288-.675-.611-1.336-.932-2-.447-.919-.851-1.857-1.309-2.77-.088-.176-.324-.5.184-.494,1.281.334,2.57.641,3.841,1.009a3.564,3.564,0,0,1,2.622,3.372c.026,5.218.011,10.436.011,15.655a.542.542,0,0,1-.022.105l-3.015.014c-.252-.27-.175-.608-.175-.922q-.009-5.4,0-10.8a2.6,2.6,0,0,0-.062-.8c-.05-.158-.13-.311-.326-.305s-.267.157-.3.322a3.451,3.451,0,0,0-.041.75q0,5.429,0,10.858c0,.311.084.653-.192.912l-6.955,0" transform="translate(-83.328 -66.923)" fill="#868686"/>
        <path id="Trazado_153441" data-name="Trazado 153441" d="M90.107,100.818c.216.391.551.4.928.3q1.631-.429,3.264-.851c.515-.008.264.318.181.49-.364.759-.718,1.522-1.079,2.282-.376.792-.777,1.573-1.132,2.376a1.4,1.4,0,0,0,.582,1.981,11.92,11.92,0,0,0,1.073.612.584.584,0,0,1,.329.866c-.277.68-.47,1.394-.775,2.061a1.541,1.541,0,0,0,.265,1.782c1.727,2.1,3.392,4.255,5.181,6.306q0,.7,0,1.4l-6.632-.007c-.159,0-.324-.021-.45.115-.257-.268-.178-.607-.179-.92q-.009-5.456,0-10.911a4.794,4.794,0,0,0-.022-.7c-.029-.2-.058-.422-.319-.42-.242,0-.312.211-.354.409a3.316,3.316,0,0,0-.038.7q0,5.429,0,10.857c0,.3.065.616-.17.871l-2.908,0a.926.926,0,0,1-.166-.711q-.006-7.493,0-14.987a2.4,2.4,0,0,1,.055-.641,2.088,2.088,0,0,0,0-1.212c.169-.328.5-.565.55-.961.754.081.754.081.859-.645l.961-.432" transform="translate(-58.529 -66.93)" fill="#868686"/>
        <path id="Trazado_153442" data-name="Trazado 153442" d="M14.365,118.967v1.4l-7.052,0c-.292-.251-.2-.6-.2-.905q-.011-5.431,0-10.863a4.073,4.073,0,0,0-.028-.7c-.031-.181-.077-.372-.308-.373s-.3.179-.346.354a3.168,3.168,0,0,0-.049.8q0,5.377,0,10.756c0,.314.077.652-.175.923l-2.913,0c-.01-.178-.029-.356-.029-.534q0-7.277,0-14.554c0-2.382.932-3.6,3.226-4.2,1.087-.287,2.177-.561,3.266-.84.24-.1.295.029.272.229a1.161,1.161,0,0,1-.156.4c-.668,1.269-1.211,2.6-1.877,3.868q-.112.214-.207.438c-.516,1.224-.33,1.7.826,2.373,1.492.873,1.351.413.77,2.135-.161.475-.342.943-.528,1.409a1.387,1.387,0,0,0,.26,1.5c1.72,2.064,3.333,4.214,5.13,6.214.048.053.082.117.129.172" transform="translate(-2.171 -66.882)" fill="#72c1e8"/>
        <path id="Trazado_153443" data-name="Trazado 153443" d="M60.675.483c-.027.418-.275.552-.667.612A8.609,8.609,0,0,0,52.534,7.96a8.385,8.385,0,0,0,1.239,6.572,1.239,1.239,0,0,1,.167,1.245c-.237.614-.418,1.25-.657,1.978.781-.253,1.485-.467,2.178-.712a1.045,1.045,0,0,1,.961.1,8.58,8.58,0,0,0,9.3,0,1.043,1.043,0,0,1,.96-.1c.687.242,1.385.454,2.168.707-.235-.72-.432-1.381-.67-2.027a1.158,1.158,0,0,1,.157-1.147A8.731,8.731,0,0,0,64.834,1.884a4.362,4.362,0,0,0-.492-.213A.641.641,0,0,1,63.85.9c.236-.379.542-.376.927-.221A9.809,9.809,0,0,1,69.469,14.8a1.1,1.1,0,0,0-.108,1.045c.281.792.521,1.6.79,2.393a.637.637,0,0,1-.091.745.624.624,0,0,1-.7.065c-.9-.3-1.8-.577-2.7-.886a.718.718,0,0,0-.647.066,9.662,9.662,0,0,1-9.877,0,.72.72,0,0,0-.648-.064c-.912.314-1.837.593-2.751.9a.565.565,0,0,1-.763-.773c.284-.866.552-1.738.853-2.6a.792.792,0,0,0-.066-.751A9.787,9.787,0,0,1,59.106.153c.262-.058.529-.092.794-.136a.6.6,0,0,1,.775.466" transform="translate(-34.224 0)"/>
        <path id="Trazado_153444" data-name="Trazado 153444" d="M25.226,57.5c.388,0,.555-.22.653-.579a3.755,3.755,0,0,1,7.408.964,24.88,24.88,0,0,1-.081,4.078,3.691,3.691,0,0,1-4,3.052,3.734,3.734,0,0,1-3.425-3.526c-.023-.413-.137-.691-.555-.793a2.882,2.882,0,0,0-.085-1.054c.573-.447.573-.447.084-1.1q0-.521,0-1.042" transform="translate(-16.784 -36.064)" fill="#fdb59e"/>
        <path id="Trazado_153445" data-name="Trazado 153445" d="M85.854,108.031a.613.613,0,0,1,.261.829,3.232,3.232,0,0,0-.172,1.16q0,7.648,0,15.3c0,.089.015.178.022.267-.116.321-.271.615-.682.531s-.427-.416-.426-.756q0-7.655,0-15.309a5.254,5.254,0,0,1,.213-1.479c.121-.417.348-.606.78-.537" transform="translate(-56.646 -72.105)" fill="#010101"/>
        <path id="Trazado_153446" data-name="Trazado 153446" d="M77.946,74.787a.572.572,0,0,1-.447.521A2.34,2.34,0,0,0,75.777,77.3c-.075.341-.191.68-.632.676s-.556-.344-.616-.688a2.308,2.308,0,0,0-1.687-1.955.587.587,0,0,1-.482-.57.556.556,0,0,1,.468-.574,2.285,2.285,0,0,0,1.678-1.9,2.723,2.723,0,0,1,.121-.412.568.568,0,0,1,1.047.006c.083.216.14.444.2.667a2.094,2.094,0,0,0,1.5,1.6.645.645,0,0,1,.565.64" transform="translate(-48.303 -47.749)"/>
        <path id="Trazado_153447" data-name="Trazado 153447" d="M60.941,134.629q0-6.1,0-12.205c0-.161,0-.323.008-.483a.524.524,0,0,1,1.036-.067,2.314,2.314,0,0,1,.031.534q0,5.78,0,11.561c0,.2.014.393.021.589-.091.277-.209.531-.557.535a.522.522,0,0,1-.546-.462" transform="translate(-40.68 -81.075)" fill="#000101"/>
        <path id="Trazado_153448" data-name="Trazado 153448" d="M12.1,134.548q.01-4.379.021-8.758c0-1.218-.006-2.436,0-3.654,0-.526.331-.8.724-.652.334.13.351.408.351.708q-.006,2.311,0,4.622.007,3.868.019,7.737c-.059.308-.208.529-.553.531s-.476-.25-.565-.534" transform="translate(-8.08 -81.067)" fill="#000101"/>
        <path id="Trazado_153449" data-name="Trazado 153449" d="M96.936,134.569q.01-4.7.02-9.4c0-1,0-2.006,0-3.009,0-.391.154-.7.577-.682.4.015.5.321.5.69q-.012,6.26-.012,12.52a.5.5,0,0,1-.526.421c-.353,0-.467-.26-.562-.535" transform="translate(-64.708 -81.088)" fill="#010101"/>
        <path id="Trazado_153450" data-name="Trazado 153450" d="M145.747,134.563q.007-6.074.015-12.148c0-.7.171-1.021.552-.965.568.083.525.537.525.956q.006,6.074.016,12.148c-.083.286-.213.53-.558.53s-.5-.208-.55-.52" transform="translate(-97.291 -81.067)"/>
        <path id="Trazado_153451" data-name="Trazado 153451" d="M24.332,67.622c.3.1.566.235.533.606s-.28.494-.617.494a.53.53,0,0,1-.444-.576c.021-.317.266-.437.529-.524" transform="translate(-15.888 -45.14)" fill="#070606"/>
        <path id="Trazado_153452" data-name="Trazado 153452" d="M83.8.725a.537.537,0,0,1-.579.441c-.36-.018-.46-.279-.528-.569.117-.278.273-.519.623-.476s.472.283.484.6" transform="translate(-55.199 -0.077)" fill="#050503"/>
        <path id="Trazado_153453" data-name="Trazado 153453" d="M90.195,102.882c.172.295.2.586-.109.8a.534.534,0,0,1-.75-.152.505.505,0,0,1,.137-.7.539.539,0,0,1,.722.059" transform="translate(-59.578 -68.562)" fill="#040404"/>
        <path id="Trazado_153454" data-name="Trazado 153454" d="M24.477,102.433c.152.47,2.177,14.232,2.172,14.773-.894-1.1-1.691-2.2-2.621-3.179a1.689,1.689,0,0,1-.348-2.167c.354-.737.566-1.541.871-2.3a.665.665,0,0,0-.357-.966c-.615-.326-1.211-.69-1.817-1.034-.144-.082-.292-.142-.187-.36.758-1.573,1.511-3.147,2.286-4.765" transform="translate(-14.79 -68.377)" fill="#eee"/>
        <path id="Trazado_153455" data-name="Trazado 153455" d="M40.9,116.912c.715-4.862,1.43-9.725,2.167-14.739.8,1.7,1.532,3.272,2.281,4.83.126.263-.043.3-.193.387-.589.338-1.167.7-1.771,1.008a.713.713,0,0,0-.369,1.053c.4,1.013.757,2.043,1.134,3.065.067.183.156.34-.008.541-1.051,1.288-2.089,2.586-3.132,3.881l-.109-.026" transform="translate(-27.301 -68.204)" fill="#eee"/>
        <path id="Trazado_153456" data-name="Trazado 153456" d="M22.554,118.272c-.615-.253-.918-.832-1.309-1.3-1.377-1.66-2.722-3.346-4.081-5.021a1.426,1.426,0,0,1-.3-1.493c.3-.8.55-1.626.89-2.41.174-.4.042-.516-.283-.673a11.015,11.015,0,0,1-1.25-.728,1.325,1.325,0,0,1-.539-1.821c.741-1.608,1.523-3.2,2.272-4.8.062-.134.394-.35-.024-.487l1.335-.381c.068.211-.063.331-.126.463q-1.232,2.592-2.472,5.18c-.374.784-.34.891.4,1.309.53.3,1.049.618,1.588.9.287.15.366.3.237.619-.353.878-.631,1.788-1.008,2.656a1.227,1.227,0,0,0,.252,1.451c1.292,1.534,2.513,3.129,3.82,4.649a2.146,2.146,0,0,1,.593,1.893" transform="translate(-10.361 -66.188)" fill="#4ba4c7"/>
        <path id="Trazado_153457" data-name="Trazado 153457" d="M44.562,99.581c-.339.066-.145.257-.081.394q1.065,2.255,2.142,4.5a2.089,2.089,0,0,1,.3,1.177,1.332,1.332,0,0,1-.666,1.043c-.463.269-.916.559-1.394.8-.279.14-.293.3-.2.554.275.716.507,1.451.8,2.157a1.8,1.8,0,0,1-.357,2.02c-1.438,1.746-2.833,3.528-4.259,5.285a2.16,2.16,0,0,1-.908.8,2.163,2.163,0,0,1,.591-1.895c1.334-1.569,2.589-3.2,3.9-4.8a1.015,1.015,0,0,0,.182-1.168c-.38-.926-.686-1.881-1.054-2.812-.121-.3-.053-.443.22-.587.57-.3,1.125-.627,1.682-.951.638-.37.681-.5.372-1.157q-1.211-2.573-2.427-5.143c-.083-.176-.161-.354-.267-.588a6.524,6.524,0,0,1,1.421.359" transform="translate(-26.64 -66.234)" fill="#4ba4c7"/>
        <path id="Trazado_153458" data-name="Trazado 153458" d="M35.241,116.976c-.468-3.166-.931-6.32-1.407-9.471a.96.96,0,0,1,.362-1.073c.405-.287.711-.947,1.118-.918s.745.6,1.122.929a.858.858,0,0,1,.393.857c-.477,3.1-.928,6.2-1.389,9.3-.02.134.016.3-.2.378" transform="translate(-22.567 -70.433)" fill="#71c1e8"/>
        <path id="Trazado_153459" data-name="Trazado 153459" d="M36.061,93.209c-.6.592-1.318,1.03-1.961,1.563a.262.262,0,0,1-.381,0c-.641-.537-1.361-.974-1.961-1.563-.008-.016-.024-.031-.024-.047-.078-1.415-.129-1.342,1.139-1.055a5.5,5.5,0,0,0,2.44-.081c.785-.178.806-.155.8.661a.97.97,0,0,1-.05.523" transform="translate(-21.16 -61.37)" fill="#fdb59e"/>
        <path id="Trazado_153460" data-name="Trazado 153460" d="M36.031,91.264c-.057-.369.152-.849-.094-1.084s-.659.08-1,.141a5.672,5.672,0,0,1-2.739-.143c-.358-.113-.493-.051-.463.336.02.248,0,.5-.009.748a15.824,15.824,0,0,1-.048-2.242c2.124.577,2.124.577,4.4,0a15.284,15.284,0,0,1-.05,2.24" transform="translate(-21.13 -59.425)" fill="#e98e7b"/>
        <path id="Trazado_153461" data-name="Trazado 153461" d="M32.581,102.272l-.241-1.7a6.365,6.365,0,0,1,1.153.834l-.912.863" transform="translate(-21.588 -67.137)" fill="#6ebbe1"/>
        <path id="Trazado_153462" data-name="Trazado 153462" d="M42.151,102.18c-.944-.815-.944-.815-.059-1.48l.269-.2a8.185,8.185,0,0,1-.21,1.679" transform="translate(-27.66 -67.088)" fill="#6fbde2"/>
        <path id="Trazado_153463" data-name="Trazado 153463" d="M119.254,59.793A14.474,14.474,0,0,1,119.18,62a3.72,3.72,0,0,1-3.919,3.035,3.66,3.66,0,0,1-3.493-3.391,20.351,20.351,0,0,1,.064-4.561,3.7,3.7,0,0,1,3.925-3.027,3.778,3.778,0,0,1,3.493,3.593c.023.645,0,1.291,0,2.139" transform="translate(-74.544 -36.081)" fill="#fdb59e"/>
        <path id="Trazado_153464" data-name="Trazado 153464" d="M111.42,117.28c-.879-1.08-1.719-2.194-2.651-3.225a1.442,1.442,0,0,1-.293-1.849,21.5,21.5,0,0,0,.868-2.309c.267-.737.226-.833-.476-1.233-.545-.31-1.088-.622-1.633-.932-.144-.082-.291-.145-.186-.364.75-1.561,1.5-3.125,2.353-4.675l2.136,14.533-.117.054" transform="translate(-71.434 -68.551)" fill="#868686"/>
        <path id="Trazado_153465" data-name="Trazado 153465" d="M125.747,117.212l2.137-14.535.1-.023q.479,1.006.957,2.012c.382.809.734,1.633,1.151,2.423.205.388.1.544-.247.721-.558.284-1.081.636-1.637.921a.685.685,0,0,0-.369.973c.386,1.039.766,2.081,1.149,3.121.067.182.163.345,0,.545-1.047,1.289-2.084,2.587-3.125,3.882l-.114-.04" transform="translate(-83.94 -68.525)" fill="#868686"/>
        <path id="Trazado_153466" data-name="Trazado 153466" d="M129.4,99.571c-.385.092-.124.3-.06.437q1.055,2.26,2.129,4.511a1.541,1.541,0,0,1-.7,2.37c-.452.281-1.169.4-1.293.863-.111.409.288.956.461,1.443a3.517,3.517,0,0,0,.186.5,2.4,2.4,0,0,1-.527,3c-1.372,1.573-2.63,3.245-3.95,4.864a2.024,2.024,0,0,1-.873.769,2.21,2.21,0,0,1,.592-1.9c1.384-1.615,2.685-3.3,4.021-4.958a.729.729,0,0,0,.13-.794c-.375-.967-.71-1.949-1.091-2.913-.148-.374-.088-.574.282-.759.591-.3,1.15-.655,1.728-.978a.637.637,0,0,0,.292-.974c-.924-1.916-1.82-3.846-2.754-5.83a6.778,6.778,0,0,1,1.424.341" transform="translate(-83.271 -66.239)" fill="#4c4944"/>
        <path id="Trazado_153467" data-name="Trazado 153467" d="M107.432,118.234c-.6-.247-.894-.812-1.275-1.272-1.38-1.667-2.732-3.358-4.094-5.04a1.5,1.5,0,0,1-.273-1.647c.316-.759.574-1.542.877-2.307.112-.283.082-.444-.212-.589a13.688,13.688,0,0,1-1.3-.748,1.446,1.446,0,0,1-.551-1.963c.752-1.586,1.515-3.167,2.262-4.755.063-.132.333-.343-.058-.436l1.434-.392c-.241.529-.435.973-.645,1.411-.687,1.436-1.383,2.868-2.07,4.3-.341.712-.288.858.385,1.237.561.316,1.11.655,1.682.949.277.142.292.293.192.55-.359.934-.695,1.877-1.056,2.81a1.045,1.045,0,0,0,.171,1.18c1.34,1.605,2.612,3.268,3.976,4.851a2.2,2.2,0,0,1,.557,1.855" transform="translate(-67.036 -66.143)" fill="#4c4944"/>
        <path id="Trazado_153468" data-name="Trazado 153468" d="M120.1,117.106q-.3-2.012-.6-4.023c-.274-1.859-.528-3.722-.828-5.577a1,1,0,0,1,.385-1.113c.4-.291.7-.941,1.125-.909.377.027.714.594,1.07.922.246.228.481.409.414.845-.505,3.286-.975,6.577-1.457,9.866l-.11-.011" transform="translate(-79.202 -70.413)" fill="#71c1e8"/>
        <path id="Trazado_153469" data-name="Trazado 153469" d="M120.929,93.21c-.6.584-1.32,1.028-1.964,1.563-.167.139-.288.058-.424-.047-.579-.45-1.152-.908-1.747-1.335-.242-.174-.2-.393-.2-.619,0-.25.014-.5.022-.749.257-.18.518-.058.772,0a5.88,5.88,0,0,0,2.855-.013c.68-.179.743-.118.735.568a1.423,1.423,0,0,1-.046.631" transform="translate(-77.826 -61.363)" fill="#fcb59e"/>
        <path id="Trazado_153470" data-name="Trazado 153470" d="M120.979,91.289c-.076-.378.175-.907-.137-1.1-.226-.142-.7.127-1.062.186a6.493,6.493,0,0,1-2.7-.182c-.137-.036-.277-.06-.416-.089v-1c.115-.108.2-.01.292.025a4.81,4.81,0,0,0,3.7,0c.325-.134.412-.074.389.26a9.787,9.787,0,0,1-.066,1.9" transform="translate(-77.876 -59.442)" fill="#e98e7b"/>
        <path id="Trazado_153471" data-name="Trazado 153471" d="M126.614,102.129l-.927-.876,1.175-.9c-.089.638-.161,1.151-.248,1.773" transform="translate(-83.9 -66.991)" fill="#6ebbe0"/>
        <path id="Trazado_153472" data-name="Trazado 153472" d="M118.325,101.39l-.9.856-.252-1.7a7.158,7.158,0,0,1,1.154.841" transform="translate(-78.216 -67.12)" fill="#6fbce2"/>
        <path id="Trazado_153473" data-name="Trazado 153473" d="M68.5,22.107c-1.56,0-3.12.006-4.68,0-1.007,0-1.427-.434-1.43-1.453q-.007-2.636,0-5.272c0-1.033.445-1.47,1.474-1.473.538,0,1.076-.012,1.614,0,.283.009.4-.05.415-.377.056-1.732.237-1.893,2-1.893.628,0,1.255-.007,1.883,0A1.205,1.205,0,0,1,71.1,12.983c.019.924.019.924.931.924.431,0,.861-.01,1.291,0A1.169,1.169,0,0,1,74.582,15.1q.042,2.9,0,5.81a1.156,1.156,0,0,1-1.3,1.195c-1.6.012-3.192,0-4.788,0" transform="translate(-41.642 -7.77)"/>
        <path id="Trazado_153474" data-name="Trazado 153474" d="M91.414,113.555q0-2.608,0-5.215a2.926,2.926,0,0,1,2.962-2.92.511.511,0,0,1,.216.993c-.235.085-.478.147-.72.212a1.651,1.651,0,0,0-1.38,1.781q-.006,5.108,0,10.215c0,.144,0,.287,0,.43-.005.369-.159.664-.55.656s-.53-.286-.529-.669c.009-1.828,0-3.656,0-5.484" transform="translate(-61.019 -70.369)" fill="#eee"/>
        <path id="Trazado_153475" data-name="Trazado 153475" d="M92.467,152.576c.012.312,0,.618-.326.785a.489.489,0,0,1-.655-.189,1.671,1.671,0,0,1,.043-1.283.516.516,0,0,1,.685-.086c.285.175.263.483.253.772" transform="translate(-60.998 -101.273)" fill="#ededed"/>
        <path id="Trazado_153476" data-name="Trazado 153476" d="M6.606,113.533c0-1.758.005-3.516,0-5.274a2.913,2.913,0,0,1,3.015-2.788.451.451,0,0,1,.5.395.473.473,0,0,1-.346.584c-.289.094-.586.161-.874.255a1.584,1.584,0,0,0-1.214,1.682q0,5.139,0,10.278c0,.126,0,.251,0,.377,0,.388-.162.719-.564.714s-.518-.348-.516-.734c.009-1.83,0-3.659,0-5.489" transform="translate(-4.407 -70.406)" fill="#c4e4fd"/>
        <path id="Trazado_153477" data-name="Trazado 153477" d="M7.627,152.6a1.014,1.014,0,0,1-.1.575.518.518,0,0,1-.58.287c-.335-.079-.512-.694-.389-1.278a.476.476,0,0,1,.594-.4c.5.064.46.462.475.818" transform="translate(-4.351 -101.316)" fill="#c3e4fd"/>
        <path id="Trazado_153478" data-name="Trazado 153478" d="M33.723,75.761a2.258,2.258,0,0,1-2.184-2.1c-.012-.347.086-.622.459-.668.4-.049.567.193.623.569a1.179,1.179,0,0,0,2.355.011c.053-.379.218-.625.612-.581s.5.349.47.713a2.269,2.269,0,0,1-2.336,2.058" transform="translate(-21.053 -48.72)" fill="#010100"/>
        <path id="Trazado_153479" data-name="Trazado 153479" d="M79.22,80.338a1.839,1.839,0,0,1-.184-.227c-.154-.275-.618-.41-.572-.69s.392-.48.6-.719c.065-.073.127-.232.233-.1a8.106,8.106,0,0,0,.663.765c.112.111-.04.178-.1.25l-.64.718" transform="translate(-52.376 -52.437)" fill="#ecbd20"/>
        <path id="Trazado_153480" data-name="Trazado 153480" d="M118.633,75.759a2.267,2.267,0,0,1-2.263-2.021c-.037-.382.049-.712.481-.754.392-.038.548.22.6.6a1.179,1.179,0,0,0,2.351.013c.05-.371.194-.642.59-.613.437.033.521.361.492.744a2.26,2.26,0,0,1-2.249,2.033" transform="translate(-77.675 -48.717)" fill="#010100"/>
        <path id="Trazado_153481" data-name="Trazado 153481" d="M70.61,33.035c-1.488,0-2.976-.012-4.463.008-.4.005-.576-.075-.556-.526.038-.823.034-1.649,0-2.473-.017-.423.14-.481.49-.382.206.059.421.085.632.123.311.056.567.095.64.529a.491.491,0,0,0,.912.086.369.369,0,0,1,.5-.2c.155.041.321.049.471.1a6.305,6.305,0,0,0,3.485-.148c.3-.062.572-.186.7.259.066.227.317.275.547.231a.509.509,0,0,0,.423-.488c.019-.149-.05-.339.195-.374.333-.047.664-.122,1-.14.093,0,.07.182.07.285,0,.914-.013,1.828.008,2.742.009.4-.224.37-.486.369q-2.285,0-4.57,0" transform="translate(-43.784 -19.773)" fill="#71c1e8"/>
        <path id="Trazado_153482" data-name="Trazado 153482" d="M70.692,21.681c1.5,0,3.009.011,4.513-.008.352,0,.505.1.459.452a1.242,1.242,0,0,0,0,.161c0,.934-.1,1.034-1.029,1.1-.212.015-.263-.119-.374-.231a.5.5,0,0,0-.887.182c-.083.3-.242.345-.48.382a4.294,4.294,0,0,0-.735.15,6.212,6.212,0,0,1-3.48-.086c-.188-.043-.314-.1-.317-.338a.489.489,0,0,0-.438-.474.48.48,0,0,0-.564.31c-.08.2-.176.231-.362.168a3.373,3.373,0,0,0-.421-.081c-.986-.2-.964-.2-.98-1.2-.007-.421.144-.5.53-.5,1.522.02,3.044.008,4.567.008" transform="translate(-43.787 -14.467)" fill="#71c1e8"/>
        <path id="Trazado_153483" data-name="Trazado 153483" d="M77.529,16.068h-.749c-.764,0-.929-.22-.761-.973.042-.189.145-.216.3-.216.821,0,1.641.006,2.462,0,.238,0,.292.105.31.321.072.871.079.871-.813.871h-.749" transform="translate(-50.705 -9.93)" fill="#eebf20"/>
      </g>
    </g>
  </g>
</svg>
