<svg xmlns="http://www.w3.org/2000/svg" xmlns:xlink="http://www.w3.org/1999/xlink" width="144" height="138" viewBox="0 0 144 138">
  <defs>
    <clipPath id="clip-path">
      <rect id="Rect치ngulo_41180" data-name="Rect치ngulo 41180" width="101.278" height="115.878" fill="none"/>
    </clipPath>
  </defs>
  <g id="Grupo_165862" data-name="Grupo 165862" transform="translate(-537 -1287.998)">
    <g id="Grupo_165391" data-name="Grupo 165391" transform="translate(0 -0.002)">
      <rect id="Rect치ngulo_40797" data-name="Rect치ngulo 40797" width="144" height="138" transform="translate(537 1288)" fill="#c4d1ff"/>
    </g>
    <g id="Grupo_165985" data-name="Grupo 165985" transform="translate(558.001 1298.998)">
      <g id="Grupo_165985-2" data-name="Grupo 165985" clip-path="url(#clip-path)">
        <path id="Trazado_153522" data-name="Trazado 153522" d="M70.042,52.892C69.19,60.444,65.36,66.041,58.884,69.9a3.06,3.06,0,0,0-1.18.882c6.779.561,11.53,4.078,14.89,9.791a46.044,46.044,0,0,1,4.035,10.333,50.6,50.6,0,0,0,4.312,9.439A28.522,28.522,0,0,1,84.551,111.8a14.379,14.379,0,0,1,.14,3.4c-.13.821-.469,1.124-1.362,1.11-3.517-.054-7.035-.008-10.553,0-.05-.042-.1-.083-.151-.124-.56-2.024-.375-4.132-.688-6.187a23.743,23.743,0,0,0-3.06-9.239,12.342,12.342,0,0,1-1.923-5.987,12.251,12.251,0,0,0-4.38-8.879c-.578-.5-1.237-1.277-2.118-.482-.563.508-.3,1.193.769,2.1a10.88,10.88,0,0,1,3.7,8,13.124,13.124,0,0,0,1.974,5.99,24.093,24.093,0,0,1,3.111,14.5.619.619,0,0,1-.248.3l-42.573-.023q-6.2,0-12.392,0a1.45,1.45,0,0,1-.347-1.138,27.325,27.325,0,0,1,1.795-10.7,16.929,16.929,0,0,1,1.5-2.811,13.445,13.445,0,0,0,2.084-6.476,10.065,10.065,0,0,1,3.325-7.273,6.2,6.2,0,0,0,1-1.075,1.061,1.061,0,0,0-.023-1.457c-.473-.493-.983-.312-1.423.057-2.735,2.3-4.645,5.071-4.884,8.747a14.2,14.2,0,0,1-2.145,6.823c-2.673,4.242-3.344,8.986-3.279,13.894.011.8.367,1.1,1.129,1.069a1.5,1.5,0,0,1,1.26.345,2.835,2.835,0,0,1-2.133.205c-3.751-.451-7.511-.134-11.265-.182C.33,116.308.038,116.043.01,114.953A28.83,28.83,0,0,1,4.2,99.585,61.34,61.34,0,0,0,9.4,86.672,25.352,25.352,0,0,1,16.05,75.556a17.63,17.63,0,0,1,11.011-4.808c-1.084-.722-2.027-1.319-2.938-1.961a22.075,22.075,0,0,1-9.245-13.92c-.156-.736.341-1.813-.862-2.155a120.913,120.913,0,0,0,.649-12.848c-.053-1.714-.44-3.4-.389-5.114.571-.839.016-1.662-.128-2.439-1.367-7.366-.478-14.3,3.993-20.482A21.451,21.451,0,0,1,28.435,4.268a35.18,35.18,0,0,1,8.905-1.96,3.625,3.625,0,0,0,3.047.914,10.908,10.908,0,0,1,5.024.932c3.282,1.412,4.821,4.029,5.049,7.493a23.042,23.042,0,0,1-.012,3.19,6.15,6.15,0,0,1-9.1,5.04,3.473,3.473,0,0,1-1.789-3.506,3.41,3.41,0,0,1,2.483-3.177c.389-.13.808-.14,1.193-.284.527-.2,1.013-.5.908-1.139-.111-.673-.65-.875-1.29-.871a5.7,5.7,0,0,0-5,3.573A5.9,5.9,0,0,0,43.3,22.615c4.531.124,7.233-1.367,8.681-5.137,1.692-4.4.74-11.339-3.734-14.164-.358-.227-.824-.423-.813-.982,9.164.959,16.949,4.221,21.253,13.041a25.817,25.817,0,0,1,1.955,16,12.823,12.823,0,0,0-.355,3.395,13.084,13.084,0,0,1-.194,4.252,46.3,46.3,0,0,0,.237,9.051c.1,1.269.088,2.533.072,3.8a1.466,1.466,0,0,1-.357,1.019" transform="translate(0 -0.733)" fill="#fecdc6"/>
        <path id="Trazado_153523" data-name="Trazado 153523" d="M64.69,1.6a12.662,12.662,0,0,1,5.169,14.488,8.667,8.667,0,0,1-11.744,5.62,6.16,6.16,0,0,1-3.676-6.9,6.016,6.016,0,0,1,5.59-4.99c.923-.07,1.646.167,1.844,1.174.168.858-.448,1.457-1.579,1.606a3.256,3.256,0,0,0-3.185,3.359,3.519,3.519,0,0,0,3.126,3.52,5.893,5.893,0,0,0,7.209-5.751,15.379,15.379,0,0,0-.128-3.912C66.5,5.618,63.5,3.139,58.894,2.83a17.339,17.339,0,0,0-2.329-.016A1.649,1.649,0,0,1,54.6,1.575c.1-1.1.766-1.488,1.808-1.545A16.961,16.961,0,0,1,64.69,1.6" transform="translate(-17.261 0)" fill="#383844"/>
        <path id="Trazado_153524" data-name="Trazado 153524" d="M102.424,67.882c.221-3.964-.685-7.89-.446-11.844.126-2.1.005-4.237.687-6.277,3.811-1.175,7.435,1.655,7.379,6.058a17.223,17.223,0,0,1-1.6,7.33,8.5,8.5,0,0,1-6.022,4.733" transform="translate(-32.383 -15.723)" fill="#e78b89"/>
        <path id="Trazado_153525" data-name="Trazado 153525" d="M17.575,49.74c.837,1.231.586,2.686.693,4.022.355,4.426-.25,8.84-.422,13.261-.015.385-.142.618-.531.679-4.072-1.223-5.792-4.334-6.607-8.192a26.156,26.156,0,0,1-.313-4.015,5.648,5.648,0,0,1,7.179-5.755" transform="translate(-3.3 -15.724)" fill="#e78a88"/>
        <path id="Trazado_153526" data-name="Trazado 153526" d="M136.13,24.98a11.32,11.32,0,0,1,4.06.815,2.443,2.443,0,0,1,1.659,2.916,2.5,2.5,0,0,1-2.517,1.92,7.677,7.677,0,0,1-2.788-.293,33.714,33.714,0,0,0-7.682-1.367c-.406-.029-.867,0-.963-.54-.08-.45.3-.62.6-.833a13.4,13.4,0,0,1,7.634-2.617" transform="translate(-40.626 -7.935)" fill="#7aadec"/>
        <path id="Trazado_153527" data-name="Trazado 153527" d="M125.341,9.918a2.6,2.6,0,0,1,2.14,1.445,2.183,2.183,0,0,1-.345,2.605,8.647,8.647,0,0,1-3.1,2.141,27.6,27.6,0,0,0-6.481,3.669c-.277.218-.595.487-.991.221a.747.747,0,0,1-.232-.888c1.125-4.243,3.95-7.919,8.537-9.091.158-.04.318-.068.476-.1" transform="translate(-36.938 -3.151)" fill="#7aadec"/>
        <path id="Trazado_153528" data-name="Trazado 153528" d="M105.256,169.192a4.581,4.581,0,0,1-3.013,0l.078-.083a3.024,3.024,0,0,1,2.863.009Z" transform="translate(-32.48 -53.607)" fill="#fecdc6"/>
        <path id="Trazado_153529" data-name="Trazado 153529" d="M48.992,81.877c-4.632-1.067-6.17-5.977-2.96-9.445,6.206-6.71,15.466-6.742,21.71-.086a5.47,5.47,0,0,1,1.441,5.742,5.276,5.276,0,0,1-4.5,3.81,2.406,2.406,0,0,1-.289-1.652,4.54,4.54,0,0,0-2.124-3.938,10.337,10.337,0,0,0-9.957-.9A5.109,5.109,0,0,0,49.1,80.7c.017.394.2.812-.109,1.178" transform="translate(-14.084 -21.404)" fill="#383844"/>
        <path id="Trazado_153530" data-name="Trazado 153530" d="M51.063,85.061c-.931-3.851,1.311-6.93,5.568-7.522a11.842,11.842,0,0,1,4.853.248c3.963,1.107,5.473,3.191,5.272,7.294-2.806.186-5.59-.287-8.4-.246-2.435.035-4.855.494-7.3.226" transform="translate(-16.155 -24.588)" fill="#f85d85"/>
        <path id="Trazado_153531" data-name="Trazado 153531" d="M100.51,154.578l-2.863-.009a36.069,36.069,0,0,0-1-9.443,15.634,15.634,0,0,0-1.951-4.6A16.6,16.6,0,0,1,92.2,132.58a9.293,9.293,0,0,0-3.741-6.738c-.957-.749-1.2-1.554-.617-2.285a1.261,1.261,0,0,1,1.93-.216c2.658,1.878,4.621,4.446,4.934,7.588a29.442,29.442,0,0,0,3.51,10.525,22.511,22.511,0,0,1,2.09,9.713,20.438,20.438,0,0,1,.2,3.41" transform="translate(-27.806 -39.072)" fill="#e78b89"/>
        <path id="Trazado_153532" data-name="Trazado 153532" d="M20.412,154.614c-2.745-.034-2.759-.034-2.72-2.781a24.32,24.32,0,0,1,3.832-13.558,10.56,10.56,0,0,0,1.554-5.463c.2-4,2.2-7,5.168-9.47a1.2,1.2,0,0,1,1.926.132,1.364,1.364,0,0,1-.235,2.052,10.947,10.947,0,0,0-4.041,6.514c-.164.926-.145,1.861-.268,2.791a13.465,13.465,0,0,1-2.078,5.434,21.22,21.22,0,0,0-2.94,9.093,42.625,42.625,0,0,0-.192,5.251l0,.005" transform="translate(-5.618 -39.05)" fill="#e78b89"/>
        <path id="Trazado_153533" data-name="Trazado 153533" d="M57.376,111.023a16.662,16.662,0,0,1-10.8-4.264,2.073,2.073,0,0,1-.257-.263c-.252-.321-.63-.714-.426-1.075.274-.486.738-.035,1.068.072a31.809,31.809,0,0,0,20.615-.267c.36-.126.864-.635,1.178-.1.2.338-.235.73-.517,1.025a15.436,15.436,0,0,1-10.867,4.875" transform="translate(-14.562 -33.319)" fill="#e78b89"/>
        <path id="Trazado_153534" data-name="Trazado 153534" d="M43.911,52.351c-.285-.8-.417-1.522.295-2.077s1.386-.215,2.046.141A11.259,11.259,0,0,1,50.8,54.4c.456.755.867,1.562.132,2.356-.717.774-1.477.361-2.224-.031a11.71,11.71,0,0,0-9.914-.947,1.375,1.375,0,1,1-.96-2.57,13.663,13.663,0,0,1,6.073-.856" transform="translate(-11.7 -15.877)" fill="#383844"/>
        <path id="Trazado_153535" data-name="Trazado 153535" d="M73,52.343a13.977,13.977,0,0,1,5.67.708c1.168.439,1.659,1.161,1.277,1.973-.467.992-1.249.98-2.173.648a11.443,11.443,0,0,0-9.029.742c-.369.173-.726.374-1.088.562a1.334,1.334,0,0,1-1.689-.206,1.364,1.364,0,0,1-.233-1.694,10.222,10.222,0,0,1,5.779-5.025c1.174-.463,1.874.622,1.488,2.291" transform="translate(-20.821 -15.866)" fill="#383844"/>
        <path id="Trazado_153536" data-name="Trazado 153536" d="M29.123,70.233a4.457,4.457,0,0,1-2.8-.83,2.325,2.325,0,0,1-.2-3.843,4.812,4.812,0,0,1,6.315.452,2.113,2.113,0,0,1-.474,3.423,4.439,4.439,0,0,1-2.843.8" transform="translate(-8.006 -20.518)" fill="#feaaaa"/>
        <path id="Trazado_153537" data-name="Trazado 153537" d="M89.324,70.218a4.135,4.135,0,0,1-2.26-.491,2.5,2.5,0,0,1-1.672-2.2,2.614,2.614,0,0,1,1.659-2.376,4.792,4.792,0,0,1,4.347-.134,2.491,2.491,0,0,1,1.841,2.449,2.784,2.784,0,0,1-2.029,2.472,3.841,3.841,0,0,1-1.886.275" transform="translate(-27.126 -20.511)" fill="#feaaaa"/>
      </g>
    </g>
  </g>
</svg>
