<svg xmlns="http://www.w3.org/2000/svg" xmlns:xlink="http://www.w3.org/1999/xlink" width="144" height="138" viewBox="0 0 144 138">
  <defs>
    <clipPath id="clip-path">
      <rect id="Rect치ngulo_41179" data-name="Rect치ngulo 41179" width="96.77" height="113.94" fill="none"/>
    </clipPath>
  </defs>
  <g id="Grupo_165984" data-name="Grupo 165984" transform="translate(-808 -8908)">
    <g id="Grupo_165391" data-name="Grupo 165391" transform="translate(271 7620)">
      <rect id="Rect치ngulo_40797" data-name="Rect치ngulo 40797" width="144" height="138" transform="translate(537 1288)" fill="#c4d1ff"/>
    </g>
    <g id="Grupo_165983" data-name="Grupo 165983" transform="translate(832 8920)">
      <g id="Grupo_165982" data-name="Grupo 165982" clip-path="url(#clip-path)">
        <path id="Trazado_153500" data-name="Trazado 153500" d="M50.675,0A34.913,34.913,0,0,0,55.64.822,54.634,54.634,0,0,1,75.687,8.871a2.491,2.491,0,0,0,1.648.465c5.663-.445,9.639,2.232,12.5,6.866,2.754,4.458,4,9.446,4.869,14.534a114.6,114.6,0,0,1,1.375,21.48,32.252,32.252,0,0,1-3.775,15.012c-.628.468-.921,1.221-1.545,1.715-3.227,2.555-5.653,2.727-9.5.6-2.692-2.36-3.179-5.49-2.989-8.811a33.178,33.178,0,0,1,1.21-7.446,1.111,1.111,0,0,0-.217-1.242c-1.986-1.774-1.926-4.225-2.18-6.567a24.936,24.936,0,0,1,.231-3.766c.025-.57-.09-.94-.767-.922-2.21.062-3.876-1.13-5.425-2.48a21.735,21.735,0,0,1-4.436-5.667c-.643-1.115-.7-1.124-1.572-.272A16.89,16.89,0,0,1,54.6,37.395a11.871,11.871,0,0,1-5.734-1.08c-.871-.372-1.323-.35-1.894.5-2.471,3.673-6.3,4.927-11.19,3.844-.772-.171-1.58-.891-2.308-.408-.628.416-.582,1.4-.893,2.107-.96,2.182-1.944,4.339-3.98,5.779a5.243,5.243,0,0,1-1.863.967,1,1,0,0,0-.88,1.283,12.62,12.62,0,0,1-1.791,8.734c-.371.591-.125,1.047.192,1.529a16.914,16.914,0,0,1,2.469,5.436,5.36,5.36,0,0,1-1.507,5.5,8.855,8.855,0,0,1-6.754,1.842A5.806,5.806,0,0,1,13.934,70.1a26.878,26.878,0,0,1-2.84-10.632A123.9,123.9,0,0,1,11.112,37.6a61.267,61.267,0,0,1,4.623-19.232C20.09,8.524,27.529,2.665,38.158.862A31.626,31.626,0,0,0,42.887,0H44a.289.289,0,0,0,.445,0h2a2.9,2.9,0,0,0,1.781,0h.445A2.277,2.277,0,0,0,50.23,0Z" transform="translate(-4.049)" fill="#d86e27"/>
        <path id="Trazado_153501" data-name="Trazado 153501" d="M70.309,0a1.662,1.662,0,0,1-1.78,0Z" transform="translate(-26.13)" fill="#de854a"/>
        <path id="Trazado_153502" data-name="Trazado 153502" d="M73.683,0a1.278,1.278,0,0,1-1.558,0Z" transform="translate(-27.502)" fill="#e6a579"/>
        <path id="Trazado_153503" data-name="Trazado 153503" d="M65.018,0c-.148.247-.3.282-.445,0Z" transform="translate(-24.622)" fill="#edbc9c"/>
        <path id="Trazado_153504" data-name="Trazado 153504" d="M91.6,169.3a12.122,12.122,0,0,1,.881,2.967c.045.563-.132.848-.733.789-.22-.022-.445,0-.667,0H22.889c-1.4,0-1.425-.007-1.145-1.419.143-.72.412-1.416.624-2.123a2.365,2.365,0,0,1,.6-1.4c2.659-4.123,6.451-6.97,10.6-9.414a52.324,52.324,0,0,1,7.135-3.33,2.411,2.411,0,0,1,1.284-.281c.524.149.723.614.958,1.025,1.065,1.867,2.1,3.75,3.134,5.635.734,1.341.729,1.333,2.06.68,1.065-.523,2.064-1.166,3.125-1.7.791-.4,1.233-.179,1.774.478,1.872,2.271,2.332,5.087,3.142,7.769.3.987.585,1.976.865,3.061.647-2.379,1.222-4.668,1.862-6.939.464-1.644,1.632-2.891,2.553-4.272.345-.517.826-.371,1.291-.153,1.21.566,2.342,1.277,3.523,1.9.749.393,1.151.354,1.573-.436.977-1.83,2.021-3.625,3.012-5.448a4.39,4.39,0,0,1,1.084-1.528,1.4,1.4,0,0,1,1.172.117c5.532,2.11,10.715,4.809,14.974,9.021a18.164,18.164,0,0,1,2.829,3.4,3.1,3.1,0,0,1,.674,1.61" transform="translate(-8.238 -59.128)" fill="#f5a1b0"/>
        <path id="Trazado_153505" data-name="Trazado 153505" d="M33.722,139.329a41.849,41.849,0,0,0-15.762,9.259,24.827,24.827,0,0,0-3.83,5c-3.962-1.176-7.8-2.6-10.956-5.412a8.583,8.583,0,0,1-1.838-11.245c.427,0,.469.411.663.644a3.769,3.769,0,0,0,4.971,1.049,9.491,9.491,0,0,0,4.28-5.075,18.728,18.728,0,0,0,1.25-8.82A47.436,47.436,0,0,0,9.886,113.3a9.373,9.373,0,0,0,3.17,2.653c2.514.956,4.841.384,7.1-.8.293-.153.567-.342.849-.515.437.106.5.507.651.833a30.57,30.57,0,0,0,5.133,8.135,24.611,24.611,0,0,0,9.811,6.488,24.037,24.037,0,0,0,2.972.908,1.809,1.809,0,0,1,1.169.576,9.287,9.287,0,0,1,.134,2.951.917.917,0,0,1-.694.9,17.638,17.638,0,0,0-5.967,3.669,1.858,1.858,0,0,1-.494.238" transform="translate(0 -43.201)" fill="#d55128"/>
        <path id="Trazado_153506" data-name="Trazado 153506" d="M118.349,151.582c-3.665-6.248-9.49-9.806-15.848-12.683-1.21-.548-2.485-.95-3.73-1.42a21.034,21.034,0,0,0-6.342-3.893.863.863,0,0,1-.608-.841,9.511,9.511,0,0,1,.123-2.952,1.965,1.965,0,0,1,1.262-.621,27.184,27.184,0,0,0,8.835-4.015,26.338,26.338,0,0,0,8.944-11.473c.422-.966.567-2.072,1.382-2.849,1.067.285,1.969.952,3.1,1.148,2.916.507,5.054-.736,6.915-2.774.234-.256.327-.77.87-.574-.914,2.574-1.939,5.114-2.615,7.766-1.055,4.142-1.939,8.3-.966,12.6a13.274,13.274,0,0,0,2.975,6.12c2.633,2.922,5.152,2.918,7.7.015,1.617,1.75,1.928,5.968.505,8.45-1.712,2.985-4.442,4.7-7.411,6.116a31.011,31.011,0,0,1-5.092,1.878" transform="translate(-34.991 -41.406)" fill="#d55128"/>
        <path id="Trazado_153507" data-name="Trazado 153507" d="M89.315,88.71a30.291,30.291,0,0,1-6.651,11.541,25.629,25.629,0,0,1-12.69,7.133c-.322.08-.643.171-.964.257a2.914,2.914,0,0,1-.311.245,18.93,18.93,0,0,1-5.131.723,45.779,45.779,0,0,1-10.034-.478,1.548,1.548,0,0,1-.7-.241l-.265-.247a28.509,28.509,0,0,1-10.317-4.465,27.729,27.729,0,0,1-9.3-12.464c2.033-2.075,1.855-4.447.91-6.91a17.881,17.881,0,0,0-2.269-4.187.877.877,0,0,1-.025-1.25,11.711,11.711,0,0,0,1.974-8.11,7.363,7.363,0,0,0-.106-.881c-.143-.746.065-1.051.9-1.234a6.677,6.677,0,0,0,4.039-3.1,16.416,16.416,0,0,0,2.361-5.118c.258-1.013.647-1.064,1.533-.747a12.4,12.4,0,0,0,6.545.653,8.668,8.668,0,0,0,6.126-4.351c.293-.5.478-.832,1.171-.5,5.375,2.587,10.283,1.393,14.881-1.954a15.894,15.894,0,0,0,2.237-1.992c.6-.645.891-.653,1.317.174a21.656,21.656,0,0,0,4.353,5.86c1.705,1.614,3.571,2.915,6.087,2.728.58-.043.637.166.572.708a21.817,21.817,0,0,0,.165,7.725,4.522,4.522,0,0,0,1.794,2.96.677.677,0,0,1,.312.916,34.231,34.231,0,0,0-1.374,7.96c-.189,3.251.354,6.28,2.866,8.644" transform="translate(-11.94 -19.282)" fill="#fccb9a"/>
        <path id="Trazado_153508" data-name="Trazado 153508" d="M61.413,142.809a1.182,1.182,0,0,1,.193-.012,3.387,3.387,0,0,1,.29,2.261,2.457,2.457,0,0,0,.9,2.157,14.365,14.365,0,0,1,5.167,8.9c.379,1.878,1.012,3.708,1.644,5.8.453-1.249.713-2.326,1.019-3.384.6-2.061,1.2-4.123,1.764-6.193a5.422,5.422,0,0,1,1.508-2.539c.932-.9,1.843-1.821,2.748-2.748.33-.339.728-.656.667-1.217.135-1.01-.3-2.087.363-3.032a.92.92,0,0,1,.184.009c.006,1.069-.283,2.263.1,3.171.377.893,1.758.837,2.633,1.357a28.9,28.9,0,0,1,3.355,2.323c.275.221.624.426.62.863-1.436,2.582-2.884,5.158-4.3,7.753-.276.506-.473.455-.924.195-1.311-.759-2.692-1.4-4-2.165-.66-.387-.954-.225-1.414.334-2,2.429-2.673,5.374-3.4,8.311a16.106,16.106,0,0,1-1.024,3.043c-.77-2.666-1.56-5.327-2.3-8-.41-1.473-1.459-2.549-2.23-3.8-.281-.455-.6-.091-.856.04-1.383.708-2.763,1.421-4.119,2.177-.524.291-.776.273-1.092-.311-1.245-2.307-2.56-4.576-3.846-6.863-.145-.257-.248-.543-.555-.663a13.931,13.931,0,0,1,5.989-4.01c.724-.252,1.012-.552.944-1.318-.072-.807-.022-1.626-.025-2.44" transform="translate(-20.783 -54.449)" fill="#f28190"/>
        <path id="Trazado_153509" data-name="Trazado 153509" d="M81.931,146.146c-.036.6-.551.855-.9,1.21-3.922,3.98-3.914,3.979-5.308,9.379-.451,1.75-.968,3.482-1.473,5.217-.054.186-.02.466-.46.564-.463-1.56-.936-3.128-1.39-4.7-.511-1.772-1.049-3.538-1.489-5.328a6.632,6.632,0,0,0-1.664-2.687,3.858,3.858,0,0,0-.627-.628,6.091,6.091,0,0,1-2.71-6.376l.46.213c2.879,1.049,5.707,2.287,8.795,2.616a20.349,20.349,0,0,0,5.736.256,1.07,1.07,0,0,1,1.031.264" transform="translate(-25.087 -54.449)" fill="#fccb9a"/>
        <path id="Trazado_153510" data-name="Trazado 153510" d="M108.828,111.285a4.437,4.437,0,0,1-4.622-4.487,4.5,4.5,0,0,1,4.576-4.614,4.446,4.446,0,0,1,4.657,4.624,4.367,4.367,0,0,1-4.611,4.477" transform="translate(-39.733 -38.963)" fill="#f8a98c"/>
        <path id="Trazado_153511" data-name="Trazado 153511" d="M44.243,111.269c-2.319.274-4.622-2.078-4.527-4.538a4.584,4.584,0,1,1,9.166.115,4.439,4.439,0,0,1-4.639,4.423" transform="translate(-15.143 -38.948)" fill="#f8a98c"/>
        <path id="Trazado_153512" data-name="Trazado 153512" d="M102.291,91.791a3.73,3.73,0,0,1-.1-7.428,3.726,3.726,0,0,1,.1,7.428" transform="translate(-37.692 -32.168)" fill="#3b2519"/>
        <path id="Trazado_153513" data-name="Trazado 153513" d="M55.471,88.1A3.393,3.393,0,1,1,48.723,88a3.386,3.386,0,1,1,6.748.108" transform="translate(-18.578 -32.174)" fill="#3b2519"/>
        <path id="Trazado_153514" data-name="Trazado 153514" d="M82.287,146.147a27.092,27.092,0,0,1-10.272-.932,16.484,16.484,0,0,1-5.29-2.2c2.441.208,4.879.528,7.322.575a35.4,35.4,0,0,0,3.835-.152c1.489-.134,2.964-.418,4.445-.636q-.02,1.673-.041,3.348" transform="translate(-25.443 -54.45)" fill="#fbbb85"/>
        <path id="Trazado_153515" data-name="Trazado 153515" d="M50.714,71.907a7.885,7.885,0,0,1,3.241.5,2.972,2.972,0,0,1,1.932,1.856c.293.92-.16,1.423-1.059,1.1a12.411,12.411,0,0,0-8.045-.174c-.576.176-1.493.458-1.808-.278-.328-.766.366-1.361.971-1.8a7.535,7.535,0,0,1,4.768-1.209" transform="translate(-17.117 -27.413)" fill="#d86e27"/>
        <path id="Trazado_153516" data-name="Trazado 153516" d="M104.951,75.275c-1.348-.126-2.666-.688-4.088-.722a13.417,13.417,0,0,0-4.457.734c-.384.124-.807.369-1.123-.032a1.235,1.235,0,0,1-.007-1.364,2.814,2.814,0,0,1,1.636-1.424,10.054,10.054,0,0,1,7.46.169,3.541,3.541,0,0,1,1.377,1.094c.275.345.58.728.346,1.2s-.7.3-1.145.345" transform="translate(-36.252 -27.39)" fill="#d86e27"/>
        <path id="Trazado_153517" data-name="Trazado 153517" d="M75.638,112.767a5.553,5.553,0,0,1-4.629-1.632,1.993,1.993,0,0,1-.448-.619c-.144-.44-.512-.964-.126-1.357s.829.083,1.179.277a7.9,7.9,0,0,0,8.13-.037c.33-.182.728-.611,1.091-.265s.1.832-.094,1.234c-.809,1.666-2.332,2.152-3.992,2.391a7.913,7.913,0,0,1-1.111.007" transform="translate(-26.792 -41.563)" fill="#fbbb85"/>
        <path id="Trazado_153518" data-name="Trazado 153518" d="M82.254,122.045A3.786,3.786,0,0,1,79.7,123.9a23.423,23.423,0,0,1-8.99.574,9.144,9.144,0,0,1-3.822-1,3.465,3.465,0,0,1-.755-.455c-.277-.268-.861-.527-.663-.908.24-.463.738-.017,1.067.1a20.649,20.649,0,0,0,14.5,0,1.554,1.554,0,0,1,1.213-.173" transform="translate(-24.95 -46.485)" fill="#f6945e"/>
        <path id="Trazado_153519" data-name="Trazado 153519" d="M77.707,130.174a10.072,10.072,0,0,1-1.192-.447c-.257-.131-.523-.411-.343-.721s.457-.025.674.058a2.718,2.718,0,0,0,2.146-.043c.19-.084.426-.285.582-.024s-.04.5-.249.662a5.152,5.152,0,0,1-1.617.515" transform="translate(-29.022 -49.135)" fill="#fbbc86"/>
        <path id="Trazado_153520" data-name="Trazado 153520" d="M101.321,88.061a.991.991,0,1,1,1.018-.919.921.921,0,0,1-1.018.919" transform="translate(-38.271 -32.823)" fill="#f3f1f1"/>
        <path id="Trazado_153521" data-name="Trazado 153521" d="M51.261,88.066c-.637-.025-1.03-.305-1.071-.916a.99.99,0,1,1,1.978-.088.943.943,0,0,1-.907,1" transform="translate(-19.136 -32.825)" fill="#f9f9f8"/>
      </g>
    </g>
  </g>
</svg>
