<svg xmlns="http://www.w3.org/2000/svg" width="85" height="101" viewBox="0 0 85 101">
  <g id="Grupo_166732" data-name="Grupo 166732" transform="translate(4641 2973)">
    <rect id="Rectángulo_41080" data-name="Rectángulo 41080" width="85" height="101" rx="10" transform="translate(-4641 -2973)" fill="#3c3fa7"/>
    <path id="Trazado_156236" data-name="Trazado 156236" d="M24.051,15H21.832L18.668,7.414,17.348,15H15.059L17.035,3.625h2.211l3.172,7.6,1.32-7.6H26.02Zm6.742-8.609a3.39,3.39,0,0,1,1.926.574A3.234,3.234,0,0,1,33.906,8.5a4.762,4.762,0,0,1,.27,2.176,5.143,5.143,0,0,1-1.4,3.262,3.96,3.96,0,0,1-3.02,1.215,3.38,3.38,0,0,1-1.906-.566,3.222,3.222,0,0,1-1.187-1.527,4.657,4.657,0,0,1-.273-2.156,5.3,5.3,0,0,1,1.422-3.328A3.878,3.878,0,0,1,30.793,6.391Zm-2.227,5.315a1.95,1.95,0,0,0,.352,1.182,1.168,1.168,0,0,0,.945.449,1.712,1.712,0,0,0,1.594-.932A4.647,4.647,0,0,0,32,9.872a2.122,2.122,0,0,0-.363-1.2,1.149,1.149,0,0,0-.949-.464,1.715,1.715,0,0,0-1.574.924A4.6,4.6,0,0,0,28.566,11.706ZM39.277,4.469,38.91,6.547h1.406L40.027,8.2H38.621L37.9,12.438a1.077,1.077,0,0,0,.063.609q.109.211.531.227.125.008.672-.039l-.156,1.727a3.706,3.706,0,0,1-1.266.18,1.985,1.985,0,0,1-1.617-.68,2.456,2.456,0,0,1-.437-1.8L36.418,8.2h-1.2l.289-1.656h1.2l.359-2.078ZM23.844,39H22.422l-4.062-8.828L16.828,39H15.352l1.977-11.375H18.75l4.07,8.867,1.539-8.867H25.82Zm7.125-8.609a3.047,3.047,0,0,1,1.82.578A3.285,3.285,0,0,1,33.91,32.52a4.8,4.8,0,0,1,.246,2.16l-.016.172a5.685,5.685,0,0,1-.734,2.23,4.309,4.309,0,0,1-1.516,1.551,3.7,3.7,0,0,1-2.039.523,3.052,3.052,0,0,1-1.816-.578,3.21,3.21,0,0,1-1.113-1.531,4.931,4.931,0,0,1-.25-2.133,5.76,5.76,0,0,1,.711-2.359,4.409,4.409,0,0,1,1.527-1.621A3.652,3.652,0,0,1,30.969,30.391Zm-2.875,4.531a4.8,4.8,0,0,0,0,1.023,2.507,2.507,0,0,0,.551,1.469,1.653,1.653,0,0,0,1.262.57,2.253,2.253,0,0,0,1.3-.348,2.919,2.919,0,0,0,1-1.121,4.721,4.721,0,0,0,.523-1.664,7.494,7.494,0,0,0,.023-1.211,2.6,2.6,0,0,0-.57-1.492,1.69,1.69,0,0,0-1.266-.578,2.3,2.3,0,0,0-1.859.859,4.245,4.245,0,0,0-.945,2.313ZM38.938,28.5l-.359,2.047h1.539l-.2,1.117H38.391l-.883,5.258a1.833,1.833,0,0,0-.008.375.6.6,0,0,0,.664.609,4.05,4.05,0,0,0,.688-.078l-.109,1.18a3.847,3.847,0,0,1-1.031.141,1.476,1.476,0,0,1-1.266-.621,2.4,2.4,0,0,1-.328-1.629l.859-5.234H35.484l.2-1.117h1.492l.359-2.047Z" transform="translate(-4626 -2944)" fill="#fff"/>
    <path id="Trazado_156237" data-name="Trazado 156237" d="M0,0H60.807" transform="translate(-4628.307 -2922.5)" fill="none" stroke="#fff" stroke-width="1"/>
  </g>
</svg>
