<svg xmlns="http://www.w3.org/2000/svg" xmlns:xlink="http://www.w3.org/1999/xlink" width="85" height="85" viewBox="0 0 85 85">
  <defs>
    <clipPath id="clip-path">
      <rect id="Rectángulo_41183" data-name="Rectángulo 41183" width="42.749" height="46.1" fill="none"/>
    </clipPath>
  </defs>
  <g id="Grupo_165992" data-name="Grupo 165992" transform="translate(-758 -10152)">
    <circle id="Elipse_4865" data-name="Elipse 4865" cx="42.5" cy="42.5" r="42.5" transform="translate(758 10152)" fill="#ff9fa3"/>
    <g id="Grupo_165991" data-name="Grupo 165991" transform="translate(779 10171)">
      <g id="Grupo_165990" data-name="Grupo 165990" clip-path="url(#clip-path)">
        <path id="Trazado_153591" data-name="Trazado 153591" d="M84.756,0A5.838,5.838,0,0,0,86.14.211C90.483.9,93.225,3.492,94.729,7.49a10.857,10.857,0,0,1,.389,7.01,5.821,5.821,0,0,1-1.064,2,3.33,3.33,0,0,1,1.961,2.158,4.2,4.2,0,0,1-3.233,5.092,1.32,1.32,0,0,0-1.035.78,18.643,18.643,0,0,1-4.374,5.261c-.164.139-.306.25-.271.51q.181,1.314.316,2.633a.368.368,0,0,0,.311.363c.518.148,1.034.3,1.547.466a.337.337,0,0,0,.45-.115,1.681,1.681,0,0,1,1.9-.569c1.092.316,2.189.622,3.264.99a8.291,8.291,0,0,1,5.814,6.994c.213,1.285.454,2.566.682,3.848.005.029.014.058.02.088.108.607-.041.96-.453,1.072s-.7-.138-.888-.727a4.24,4.24,0,0,1-.364-1.513c-.184-.986-.343-1.978-.541-2.961a6.731,6.731,0,0,0-4.724-5.394c-.909-.306-1.83-.577-2.75-.847-.785-.229-.914-.125-.948.708,0,.06,0,.12,0,.18q-.128,1.514-.388,3.009a.875.875,0,0,1-.948.807c-.545-.26-.685-.465-.619-1.052.091-.8.221-1.6.319-2.406.065-.531.026-.6-.5-.78q-.106-.036-.214-.069c-.619-.187-.619-.187-.895.4a.847.847,0,0,1-.114.139,5.451,5.451,0,0,1-4.9,3.506c-.343.042-.44.132-.436.478.018,1.844.009,3.688.008,5.532a2.624,2.624,0,0,1-.009.4.671.671,0,0,1-1.335.006,2.188,2.188,0,0,1-.008-.359q0-18.777,0-37.554c0-.626.1-.778.613-.93a.656.656,0,0,1,.837.613,5.156,5.156,0,0,1,.027.9c0,.6.012,1.2,0,1.8a.487.487,0,0,0,.481.569,21.263,21.263,0,0,0,3.042.254,8.916,8.916,0,0,1,3.051.468,6.716,6.716,0,0,1,3.75,3.244c.139.313.242.641.374.981.21-.062.28-.236.369-.379A5.1,5.1,0,0,0,94,12.657a10.815,10.815,0,0,0-3.4-8.85,6.957,6.957,0,0,0-3.058-1.744,15.784,15.784,0,0,0-4.922-.578c-.31,0-.424.146-.423.439,0,.628,0,1.255,0,1.883a1.946,1.946,0,0,1-.04.49.652.652,0,0,1-.917.492.658.658,0,0,1-.528-.723c0-.968,0-1.937,0-2.906A1.289,1.289,0,0,1,81.512,0h.451a8.673,8.673,0,0,0,1.39.046c.2-.022.4.047.592-.046h.36a.117.117,0,0,0,.18,0Z" transform="translate(-58.69)"/>
        <path id="Trazado_153592" data-name="Trazado 153592" d="M86.782.085A4.617,4.617,0,0,1,85.335,0h1.442c.028.017.039.035.031.055s-.016.03-.025.03" transform="translate(-62.062)" fill="#111"/>
        <path id="Trazado_153593" data-name="Trazado 153593" d="M90.627.085c0-.028,0-.056-.006-.085h.541c-.155.173-.356.058-.535.085" transform="translate(-65.907)" fill="#2b2b2b"/>
        <path id="Trazado_153594" data-name="Trazado 153594" d="M94.1,0c-.06.132-.12.118-.18,0Z" transform="translate(-68.309)" fill="#818181"/>
        <path id="Trazado_153595" data-name="Trazado 153595" d="M6.691,8.2c-.561-.283-.678-.577-.4-1.111a6.8,6.8,0,0,1,6.249-4.041,3.683,3.683,0,0,1,1.375.187.773.773,0,0,0,.9-.237A10.563,10.563,0,0,1,19.02.583a1.148,1.148,0,0,1,1.639,1.2q0,21.887,0,43.774c0,.416-.09.764-.532.87-.425.1-.673-.152-.83-.517a.943.943,0,0,1-.118-.647c0-1.706,0-3.411,0-5.117,0-.535,0-.531-.522-.621a6.233,6.233,0,0,1-3.634-1.8,4.684,4.684,0,0,1-1.082-1.888c-.187-.616-.181-.617-.811-.44-.983.3-.833.243-.71,1.1A43.017,43.017,0,0,0,14.7,45.137a.971.971,0,0,1,.031.864c-.447.647-.936.613-1.351-.1a.941.941,0,0,1-.293-.5,44.605,44.605,0,0,1-2.344-9.317c-.033-.268-.028-.538-.072-.806-.057-.347-.243-.448-.572-.379a11.467,11.467,0,0,0-1.21.351,15.878,15.878,0,0,0-3.211,1.156,6.935,6.935,0,0,0-3.455,5.159c-.2,1.259-.446,2.509-.668,3.764a.7.7,0,0,1-.177.451c-.023.055-.05.109-.07.165a.629.629,0,0,1-.8.47.629.629,0,0,1-.493-.789c.229-1.328.477-2.653.7-3.982a10.185,10.185,0,0,1,.881-3A8.35,8.35,0,0,1,6.6,34.413c1.035-.346,2.093-.626,3.137-.945a1.731,1.731,0,0,1,2.017.572.31.31,0,0,0,.414.11c.511-.171,1.027-.327,1.548-.464a.36.36,0,0,0,.313-.362q.143-1.318.318-2.633a.425.425,0,0,0-.192-.413c-.44-.385-.879-.772-1.3-1.176-.444-.426-.439-.721-.02-1.189.367-.279.629-.265,1.023.1.452.416.874.863,1.363,1.241A9.527,9.527,0,0,0,18.54,31c.567.155.638.1.64-.47,0-.794-.008-1.589,0-2.384a.426.426,0,0,0-.424-.506,2.92,2.92,0,0,1-2.048-1.259.756.756,0,0,1,0-1.029.8.8,0,0,1,.946-.181,1.276,1.276,0,0,1,.4.352,1.528,1.528,0,0,0,.752.47c.226.062.351-.015.356-.255q.014-.63,0-1.259c-.006-.247-.182-.319-.377-.38a.919.919,0,0,1-.579-.4.764.764,0,0,1,.5-1.165c.443-.062.47-.28.469-.631q-.009-4.745,0-9.489a.523.523,0,0,0-.367-.622,14.566,14.566,0,0,1-2.041-1.1c-.3-.216-.6-.433-.888-.664-.573-.448-.569-.447-.865.217a7.15,7.15,0,0,1-2.857,3.311,4.258,4.258,0,0,0-2.2,4,21.973,21.973,0,0,0,.06,2.643,18.827,18.827,0,0,0,.175,1.876,7.622,7.622,0,0,0,1.243,3.008,3.677,3.677,0,0,1,.4.647c.117.287.188.58-.125.806-.528.365-.838.315-1.207-.205a10.622,10.622,0,0,1-1.08-1.808.518.518,0,0,0-.452-.341,4.245,4.245,0,0,1-3.65-4.627,3.159,3.159,0,0,1,1.459-2.365c.138-.094.284-.136.109-.357a8.257,8.257,0,0,1-1.592-5.267c0-.3.017-.6.037-.9.034-.524.251-.723.8-.747.454.069.622.233.656.692.032.433.015.869.01,1.3a7,7,0,0,0,.855,3.452,2.43,2.43,0,0,0,.719.833c.142-.056.126-.178.146-.272A5.367,5.367,0,0,1,11.2,12.31a6.785,6.785,0,0,0,2.9-4.074.828.828,0,0,0,.037-.356c-.1-.937-.2-1.875-.28-2.814-.026-.318-.255-.42-.522-.465a5.019,5.019,0,0,0-3.464.634A5.816,5.816,0,0,0,7.62,7.683c-.275.536-.491.645-.929.516" transform="translate(0 -0.363)"/>
        <path id="Trazado_153596" data-name="Trazado 153596" d="M45.61,37.423q.006,5.1.011,10.209a.663.663,0,0,1-.027.13,1.938,1.938,0,0,0-.49-.052.624.624,0,0,0-.58.589.581.581,0,0,0,.476.709c.622.063.674.416.629.91a6.715,6.715,0,0,0,0,1.078c.02.291-.109.326-.341.277a1.737,1.737,0,0,1-1.056-.629c-.326-.415-.716-.5-1.039-.245s-.349.646-.029,1.072a2.854,2.854,0,0,0,2.149,1.153c.256.02.319.1.316.341-.013,1.019-.024,2.04,0,3.058.01.366-.161.343-.4.295a8.461,8.461,0,0,1-3.208-1.454,13.287,13.287,0,0,1-1.912-1.635A.783.783,0,0,0,39.147,53a9.834,9.834,0,0,0-1.111-1.375.862.862,0,0,0-.131-1.029,8.2,8.2,0,0,1-1.666-5.311,11.433,11.433,0,0,1-.007-2.192,5.083,5.083,0,0,1,.841-1.868,5.892,5.892,0,0,1,1.964-2.168,6.057,6.057,0,0,0,2.261-3.05c.088-.222.158-.453.267-.666.159-.311.388-.451.73-.263l.815.6a14.988,14.988,0,0,0,1.8,1.221c.249.152.551.236.7.518" transform="translate(-26.315 -25.451)" fill="#f1d0a4"/>
        <path id="Trazado_153597" data-name="Trazado 153597" d="M5.049,137.034a42.148,42.148,0,0,1,1.043-5.549,6.735,6.735,0,0,1,4.647-4.559c.994-.328,2-.613,3.006-.909.465-.137.658-.04.7.4a42.672,42.672,0,0,0,2.6,10.646.38.38,0,0,1,.011.089q-5.718,0-11.437.011a1.571,1.571,0,0,1-.565-.127" transform="translate(-3.672 -91.607)" fill="#f4dd46"/>
        <path id="Trazado_153598" data-name="Trazado 153598" d="M93.844,18.178a6.764,6.764,0,0,0-5.688-3.614,33.866,33.866,0,0,1-4.161-.332c-.375-.077-.557-.185-.536-.619.04-.852.016-1.708.01-2.561,0-.542-.2-.748-.736-.813a3.8,3.8,0,0,0-.085-1.851c.626-.013.82-.209.823-.843,0-.765,0-1.529,0-2.294,0-.15-.023-.3.214-.3a16.742,16.742,0,0,1,5.294.583.41.41,0,0,1,.077.045,8.162,8.162,0,0,1,3.489,3.2,11.5,11.5,0,0,1,1.9,5.238,8.9,8.9,0,0,1-.231,3.787c-.055.164-.04.454-.368.376" transform="translate(-60.107 -3.598)" fill="#7a6d79"/>
        <path id="Trazado_153599" data-name="Trazado 153599" d="M109.067,133.732c.607-.034.792-.2.88-.838.134-.972.259-1.945.389-2.918a.249.249,0,0,1,.174-.026,12.655,12.655,0,0,1,4.544,1.844,7.884,7.884,0,0,1,3.033,5.219c.123.738.272,1.471.39,2.209.057.36.171.595.593.539a.37.37,0,0,1,.367.122.716.716,0,0,1-.438.058q-5.584,0-11.167-.005c-.1-.176.014-.319.083-.462a18.293,18.293,0,0,0,1-2.737,1.1,1.1,0,0,0-.273-1.3,3.4,3.4,0,0,1,.426-1.7" transform="translate(-78.396 -94.505)" fill="#f4dd46"/>
        <path id="Trazado_153600" data-name="Trazado 153600" d="M23.082,18.573c.446.033.664-.23.851-.6a5.538,5.538,0,0,1,4.128-3.144,4.734,4.734,0,0,1,1.877.05.481.481,0,0,1,.426.484c.087.955.19,1.907.283,2.861a.782.782,0,0,1-.012.312,6.943,6.943,0,0,1-2.965,4.236,5.26,5.26,0,0,0-2.716,4.054A2.078,2.078,0,0,1,24,25.885a7.49,7.49,0,0,1-.937-3.84c0-.285,0-.571.027-.854a.757.757,0,0,0-.549-.9c.115-.019.166-.079.192-.2.108-.509.233-1.014.352-1.52" transform="translate(-16.391 -10.737)" fill="#7a6d79"/>
        <path id="Trazado_153601" data-name="Trazado 153601" d="M126.213,136.988c-.31-.05-.715.124-.911-.079s-.155-.58-.22-.882a30.034,30.034,0,0,0-.689-3.319,7.379,7.379,0,0,0-4.848-4.855c-.805-.276-1.622-.516-2.434-.772.02-1.3.205-1.252,1.228-.916.8.261,1.6.48,2.4.73a6.844,6.844,0,0,1,5.012,5.552c.293,1.5.529,3,.791,4.505l-.334.037" transform="translate(-85.172 -91.609)" fill="#f2d232"/>
        <path id="Trazado_153602" data-name="Trazado 153602" d="M103.088,131.715l-.381,1.7a.249.249,0,0,1-.215.138.673.673,0,0,0-.558.568,16.959,16.959,0,0,1-1.236,3.349c-.1.214-.051.481-.248.656-.109-.18-.28-.185-.467-.186-.467,0-.5-.064-.26-.481a13.953,13.953,0,0,0,1.174-2.75A25.041,25.041,0,0,0,102,129.758c.022-.191.067-.38.084-.572.069-.778-.194-1.081-.977-1.139.1-.291,0-.734.241-.853.2-.1.555.131.841.218.83.255.835.257.725,1.136-.093.742-.179,1.486-.3,2.222a.783.783,0,0,0,.476.944" transform="translate(-72.418 -92.488)" fill="#efe8e5"/>
        <path id="Trazado_153603" data-name="Trazado 153603" d="M45.6,128.109a5.609,5.609,0,0,0,.108,1.719,32.569,32.569,0,0,0,.753,4.038,18.879,18.879,0,0,0,1.514,4.118,2.442,2.442,0,0,1,.327.735c-.354.038-.721-.086-1.064.09a1.353,1.353,0,0,0-.114-.742,44.733,44.733,0,0,1-2.191-7.9c-.079-.457-.125-.92-.213-1.375-.062-.322,0-.512.363-.551a3.469,3.469,0,0,0,.517-.135" transform="translate(-32.511 -93.171)" fill="#efe8e5"/>
        <path id="Trazado_153604" data-name="Trazado 153604" d="M102.756,154.79a1.083,1.083,0,0,1,.1-.651,15.783,15.783,0,0,0,1.27-3.389c.141-.559.306-.67.886-.671a.737.737,0,0,1,.429.99,18.72,18.72,0,0,1-1.283,3.512,1.794,1.794,0,0,1-.343.505c-.366.277-.734.177-1.06-.3" transform="translate(-74.724 -109.149)"/>
        <path id="Trazado_153605" data-name="Trazado 153605" d="M94.579,48.363a3.123,3.123,0,0,1,.555,1.815,27.171,27.171,0,0,1-.227,5.112,8.64,8.64,0,0,1-1.813,3.764,15.7,15.7,0,0,1-4.96,4.557,6.737,6.737,0,0,1-2.493.817c0-1.222,0-2.419,0-3.615,0-.2.089-.218.247-.2a1.927,1.927,0,0,1,1.282.571c.38.393.748.436,1.055.149s.283-.7-.095-1.1a3.063,3.063,0,0,0-2.117-.955c-.279-.018-.395-.072-.375-.376.028-.433.017-.869,0-1.3-.008-.241.03-.365.315-.42.645-.125.892-.427.8-.866s-.394-.579-1.094-.479v-9.7a.874.874,0,0,1,.571.034,16.021,16.021,0,0,0,2.5.3,13.917,13.917,0,0,1,3.519.392,4.611,4.611,0,0,1,2.337,1.518" transform="translate(-62.278 -33.516)" fill="#f1d0a4"/>
        <path id="Trazado_153606" data-name="Trazado 153606" d="M89.627,121.558a2.842,2.842,0,0,1-1.169,1.589,4.877,4.877,0,0,1-2.531.93c-.222.023-.28-.034-.278-.255.014-1.45.014-2.9.019-4.35a.482.482,0,0,1,.34-.2,10.4,10.4,0,0,0,1.869-.475c.71-.216,1.07.027,1.135.757.027.3.083.593.1.892a.925.925,0,0,0,.376.777c.113.077.22.168.139.332" transform="translate(-62.29 -86.345)" fill="#f1d0a4"/>
        <path id="Trazado_153607" data-name="Trazado 153607" d="M110.934,19.852c.226-.032.209-.241.247-.38a10.275,10.275,0,0,0,.044-4.864A11.818,11.818,0,0,0,108.952,9.7a10.691,10.691,0,0,0-2.806-2.453,6.908,6.908,0,0,1,2.976,1.692A10.871,10.871,0,0,1,112.612,18a4.707,4.707,0,0,1-1.255,3.054l-.422-1.2" transform="translate(-77.198 -5.272)" fill="#685e68"/>
        <path id="Trazado_153608" data-name="Trazado 153608" d="M124.243,69.465a23.4,23.4,0,0,0,.341-4.522c.006-.269.151-.235.325-.2a1.946,1.946,0,0,1,1.531,1.625,2.851,2.851,0,0,1-2.2,3.1" transform="translate(-90.359 -47.069)" fill="#f1ba87"/>
        <path id="Trazado_153609" data-name="Trazado 153609" d="M94.609,46.764a6.9,6.9,0,0,0-2.332-1.385,9.6,9.6,0,0,0-1.982-.322,20.926,20.926,0,0,1-4.4-.452,2.2,2.2,0,0,1-.209-.08c-.039-.7-.04-.7.663-.577,1.365.234,2.753.16,4.125.3a5.258,5.258,0,0,1,4.134,2.516" transform="translate(-62.308 -31.917)" fill="#f1ba87"/>
        <path id="Trazado_153610" data-name="Trazado 153610" d="M89.64,117.664c-.186-.283-.594-.39-.622-.8-.023-.339-.091-.676-.105-1.015-.036-.876-.3-1.076-1.118-.778a12.891,12.891,0,0,1-2.115.512c-.04-.8-.042-.81.7-.957a9.932,9.932,0,0,0,3.066-1.251c.124,1.182.25,2.3.354,3.429a1.542,1.542,0,0,1-.164.865" transform="translate(-62.303 -82.452)" fill="#f1ba87"/>
        <path id="Trazado_153611" data-name="Trazado 153611" d="M60.036,5.844v8.437a9.6,9.6,0,0,1-2.365-1.416c-1.39-1.08-1.382-1.087-1.493-2.864a7.042,7.042,0,0,0-.124-1.2.782.782,0,0,1,.315-.851,9.7,9.7,0,0,1,3.312-2.031c.085-.03.17-.057.257-.08a.313.313,0,0,1,.1.009" transform="translate(-40.746 -4.242)" fill="#7a6d79"/>
        <path id="Trazado_153612" data-name="Trazado 153612" d="M59.961,117.82c.005,1.451.005,2.9.021,4.354,0,.239-.091.266-.29.241a4.548,4.548,0,0,1-3.175-1.653,2.811,2.811,0,0,1-.578-2.108c.078-.728.18-1.454.272-2.181a.374.374,0,0,1,.341.057,10.149,10.149,0,0,0,3.175,1.17.429.429,0,0,1,.235.121" transform="translate(-40.669 -84.692)" fill="#f1cfa3"/>
        <path id="Trazado_153613" data-name="Trazado 153613" d="M42.188,33.68a.576.576,0,0,0-.7.461,7.608,7.608,0,0,1-1.8,3.062,7.122,7.122,0,0,1-1.066.809,5.59,5.59,0,0,0-1.669,2.07c-.226.4-.408.83-.628,1.236a1.6,1.6,0,0,0-.187.817c.009.583-.005,1.167-.01,1.751a15.523,15.523,0,0,1,.058-3.938,3.759,3.759,0,0,1,1.881-2.626,7.511,7.511,0,0,0,3.309-4.051,2.03,2.03,0,0,1,.108-.2l.7.611" transform="translate(-26.208 -24.05)" fill="#f1ba87"/>
        <path id="Trazado_153614" data-name="Trazado 153614" d="M26.571,69.483a2.9,2.9,0,0,1-2.133-3.1,1.969,1.969,0,0,1,1.529-1.631c.257-.052.3.04.3.269a29.532,29.532,0,0,0,.165,3.5c.037.309.089.616.14.965" transform="translate(-17.758 -47.08)" fill="#f1ba87"/>
        <path id="Trazado_153615" data-name="Trazado 153615" d="M60.739,115.758a8.835,8.835,0,0,1-3.245-1.061c-.172-.089-.337-.191-.506-.287.026-.251.052-.5.082-.795a10.176,10.176,0,0,0,2.571,1.093c.116.028.233.052.35.076.788.159.788.159.748.974" transform="translate(-41.446 -82.63)" fill="#f1c494"/>
        <path id="Trazado_153616" data-name="Trazado 153616" d="M64.082,39.257A14.846,14.846,0,0,1,61.8,37.792a.449.449,0,0,1-.213-.274,14.5,14.5,0,0,0,2.33,1.211c.29.1.163.337.17.529" transform="translate(-44.787 -27.286)" fill="#ecb786"/>
        <path id="Trazado_153617" data-name="Trazado 153617" d="M54.337,52.414a3.852,3.852,0,0,1,1.5.246.693.693,0,0,1,.5.905.672.672,0,0,1-.931.371,3.34,3.34,0,0,0-2.073-.014c-.521.137-.86-.007-.981-.412-.11-.368.106-.695.576-.867a3.733,3.733,0,0,1,1.411-.23" transform="translate(-38.053 -38.118)"/>
        <path id="Trazado_153618" data-name="Trazado 153618" d="M58.816,65.174c0,.3.021.6,0,.9a.645.645,0,0,1-.714.643.629.629,0,0,1-.621-.686q-.011-.875,0-1.75a.626.626,0,0,1,.62-.686.642.642,0,0,1,.714.641c.026.312.005.628.005.941" transform="translate(-41.797 -46.246)" fill="#010101"/>
        <path id="Trazado_153619" data-name="Trazado 153619" d="M94,63.223a.656.656,0,0,1-.732.7c-.27-.026-.295.064-.289.279a2.487,2.487,0,0,1-.041.623.6.6,0,0,1-.7.489.587.587,0,0,1-.588-.57,6.782,6.782,0,0,1-.01-1.076.517.517,0,0,0-.4-.634.733.733,0,0,1-.4-.27.633.633,0,0,1-.017-.791.6.6,0,0,1,.749-.253c.713.305,1.414.642,2.112.983a.6.6,0,0,1,.321.52" transform="translate(-65.952 -44.852)"/>
      </g>
    </g>
  </g>
</svg>
