<svg xmlns="http://www.w3.org/2000/svg" xmlns:xlink="http://www.w3.org/1999/xlink" width="85" height="85" viewBox="0 0 85 85">
  <defs>
    <clipPath id="clip-path">
      <rect id="Rectángulo_41184" data-name="Rectángulo 41184" width="51.453" height="61.764" fill="none"/>
    </clipPath>
  </defs>
  <g id="Grupo_165995" data-name="Grupo 165995" transform="translate(-1178 -10152)">
    <circle id="Elipse_4866" data-name="Elipse 4866" cx="42.5" cy="42.5" r="42.5" transform="translate(1178 10152)" fill="#ff9fa3"/>
    <g id="Grupo_165994" data-name="Grupo 165994" transform="translate(1195 10164)">
      <g id="Grupo_165993" data-name="Grupo 165993" clip-path="url(#clip-path)">
        <path id="Trazado_153620" data-name="Trazado 153620" d="M25.367,61.763a1.5,1.5,0,0,1-.614-1.384c.025-3.115,0-6.231.021-9.346a1.1,1.1,0,0,0-.378-.885c-1.011-.949-2-1.921-3-2.878-.144-.137-.247-.35-.543-.16-2.732,1.755-5.558,1.5-8.4.32a11.3,11.3,0,0,1-4.6-4.041c-.418-.564-.828-1.136-1.212-1.724A11.684,11.684,0,0,0,1.039,37.28c-.111-.046-.225-.087-.337-.13a.982.982,0,0,1,.009-1.885,25.11,25.11,0,0,1,4.5-1.3,19.516,19.516,0,0,1,9.246.184,13.291,13.291,0,0,1,6.612,4.191,7.6,7.6,0,0,1,1.887,4.775,4.209,4.209,0,0,1-.472,2.031.423.423,0,0,0,.111.609c.7.631,1.383,1.286,2.074,1.935.166-.054.093-.2.093-.3,0-4.06,0-8.12.01-12.18,0-.333-.031-.476-.439-.487a4.634,4.634,0,0,1-4.7-4.816,1.444,1.444,0,0,0-.781-1.411,12.356,12.356,0,0,1-5.977-10.481c-.129-5.363-.04-10.732-.035-16.1A.979.979,0,0,1,14.4.988q2.514,1.354,5,2.756a.649.649,0,0,0,.8-.037C21.81,2.576,23.435,1.469,25.056.355c.686-.471.9-.476,1.568,0,1.536,1.1,3.074,2.188,4.6,3.3a.7.7,0,0,0,.9.069c1.583-.9,3.187-1.772,4.784-2.652C37.935.507,38.623.913,38.624,2.1c0,5.065.023,10.13-.005,15.2A12.727,12.727,0,0,1,32.2,28.751a.7.7,0,0,0-.353.74,5.064,5.064,0,0,1-.766,3.1,4.634,4.634,0,0,1-3.9,2.14c-.307.01-.5-.009-.5.425q.026,9.406.014,18.813a1.724,1.724,0,0,0,.039.226c.764-.716,1.487-1.4,2.216-2.072a.293.293,0,0,0,.071-.411c-.991-2.019-.494-3.928.553-5.727a11.957,11.957,0,0,1,6.517-5.076,18.659,18.659,0,0,1,10.391-.44,25.094,25.094,0,0,1,4.15,1.207c.466.181.816.438.819.988s-.345.815-.811.992a12,12,0,0,0-6.1,4.861,15.433,15.433,0,0,1-3.312,3.959,9.35,9.35,0,0,1-9.53,1.7,3.733,3.733,0,0,1-.489-.229c-.871-.472-.88-.483-1.627.224-.889.843-1.757,1.71-2.643,2.556a.781.781,0,0,0-.254.632c.012,1-.025,2.011.016,3.015a1.462,1.462,0,0,1-.614,1.385Z" transform="translate(0 0)"/>
        <path id="Trazado_153621" data-name="Trazado 153621" d="M35.01,9.213c2.8,1.476,5.576,2.993,8.31,4.586a5.549,5.549,0,0,1,1.57,1.477,7.017,7.017,0,0,1,1.479,4.416c-.015,3.632-.006,7.265-.016,10.9a2.014,2.014,0,0,0,.234,1.039c-.008.344-.268.224-.44.223a9.824,9.824,0,0,1-3.914-.866,11.959,11.959,0,0,1-7.324-9.2,12.9,12.9,0,0,1-.2-2.334c-.023-3.151-.015-6.3,0-9.453,0-.276-.16-.664.3-.785" transform="translate(-18.79 -4.991)" fill="#d94759"/>
        <path id="Trazado_153622" data-name="Trazado 153622" d="M60.768,30.606a1.876,1.876,0,0,0,.15-.879c0-3.7.007-7.395,0-11.092a9.009,9.009,0,0,0-2.927-6.641,1.519,1.519,0,0,1,1.435-.82c.592.539.841.573,1.552.183q3.268-1.792,6.533-3.59c.171-.094.348-.178.576-.294.011.148.025.238.025.329,0,4.677.032,9.355-.014,14.032a10.625,10.625,0,0,1-3.228,7.609c-.112.112-.242.206-.364.308a8.826,8.826,0,0,1-3.273,1.064c-.178.03-.416.093-.466-.209" transform="translate(-31.419 -4.049)" fill="#e66578"/>
        <path id="Trazado_153623" data-name="Trazado 153623" d="M12.432,77.761a16.858,16.858,0,0,1,9.14.466,11.681,11.681,0,0,1,4.358,2.828,6.549,6.549,0,0,1,1.744,3.308,3.781,3.781,0,0,1,.065.656c.01.321.022.755-.226.883-.269.139-.483-.269-.7-.455a58.952,58.952,0,0,0-8.787-5.894.963.963,0,1,0-.92,1.683c1.952,1.191,3.951,2.308,5.815,3.64a29.7,29.7,0,0,1,3.013,2.4c-.367.5-.945.375-1.4.353a9.309,9.309,0,0,1-6.887-3.479,31.268,31.268,0,0,1-2.179-2.959,11.032,11.032,0,0,0-2.621-2.8c-.193-.144-.559-.232-.411-.624" transform="translate(-6.717 -41.908)" fill="#26b2b3"/>
        <path id="Trazado_153624" data-name="Trazado 153624" d="M68.341,101.284a35.167,35.167,0,0,1,5.387-3.938c1.113-.681,2.236-1.345,3.353-2.018a.969.969,0,0,0-.224-1.823,1.03,1.03,0,0,0-.8.189,58.008,58.008,0,0,0-8.965,6.07c-.139.121-.275.4-.475.269-.126-.081-.159-.357-.175-.551a5.22,5.22,0,0,1,1.138-3.533,10.431,10.431,0,0,1,4.84-3.553,16.408,16.408,0,0,1,9.425-.485c.019.254-.2.333-.35.444a12.208,12.208,0,0,0-3.053,3.3,18.269,18.269,0,0,1-3.054,3.713,8.7,8.7,0,0,1-6.455,2.321c-.259-.013-.6.036-.6-.4" transform="translate(-35.991 -49.546)" fill="#26b2b3"/>
        <path id="Trazado_153625" data-name="Trazado 153625" d="M33.667,8.274c-.212.169-.135.406-.135.617,0,3.25-.031,6.5.005,9.75a12.136,12.136,0,0,0,2.453,7.441,11.843,11.843,0,0,0,7.34,4.514,4.977,4.977,0,0,0,1.914.094,1.279,1.279,0,0,0,.939.3,2.1,2.1,0,0,0,.03,1.195,10.562,10.562,0,0,1-10.53-2.527,10.521,10.521,0,0,1-3.471-8.044c-.018-4.536-.005-9.071-.006-13.607V7.479a7.491,7.491,0,0,1,1.459.795" transform="translate(-17.447 -4.052)" fill="#d33445"/>
        <path id="Trazado_153626" data-name="Trazado 153626" d="M10.032,78.244c.171.42.592.579.915.822a16.478,16.478,0,0,1,3.184,3.879,12.161,12.161,0,0,0,3.906,3.834A8.818,8.818,0,0,0,21.488,87.9a5.546,5.546,0,0,0,2.045-.142c.433.222.287.377-.057.519a7.1,7.1,0,0,1-5.506-.005A9.941,9.941,0,0,1,13.681,84.6c-.6-.808-1.15-1.646-1.743-2.457a12.365,12.365,0,0,0-3.97-3.383,11.155,11.155,0,0,1,2.063-.519" transform="translate(-4.317 -42.391)" fill="#129195"/>
        <path id="Trazado_153627" data-name="Trazado 153627" d="M70.182,101.827c.094.221.28.249.494.259a8.822,8.822,0,0,0,7.116-2.934,22.953,22.953,0,0,0,2.516-3.269,12.368,12.368,0,0,1,3.383-3.43,13.543,13.543,0,0,1,1.782.386c.045.218-.107.247-.2.3a12.743,12.743,0,0,0-4.307,4.12,15.113,15.113,0,0,1-3.532,4.149,7.315,7.315,0,0,1-7.169,1.079c-.572-.209-.569-.257-.086-.658" transform="translate(-37.831 -50.089)" fill="#129195"/>
        <path id="Trazado_153628" data-name="Trazado 153628" d="M53.763,9.761a3.689,3.689,0,0,0-1.435.82,35.391,35.391,0,0,0-4.791-2.929,5.7,5.7,0,0,1,1.09-.808c.869-.612,1.748-1.21,2.621-1.817.184-.128.332-.254.579-.072,1.2.876,2.4,1.733,3.691,2.656l-1.174.667c-.7.395-.821.711-.58,1.482" transform="translate(-25.754 -2.636)" fill="#d33445"/>
        <path id="Trazado_153629" data-name="Trazado 153629" d="M49.111,65.48a13.7,13.7,0,0,0,4.763.251,13.46,13.46,0,0,0,2.159-.481c.226-.075.412-.143.4.242a2.743,2.743,0,0,1-2.233,2.54,20.476,20.476,0,0,1-2.865.028,3.3,3.3,0,0,1-2.377-2.288c-.014-.111-.1-.3.152-.293" transform="translate(-26.512 -35.319)" fill="#15a5aa"/>
        <path id="Trazado_153630" data-name="Trazado 153630" d="M62.443,58.52a.8.8,0,0,1-.03-1.195,1.592,1.592,0,0,0,.612-.378,3.24,3.24,0,0,0,1.76-.238c.671-.154,1.321-.407,1.98-.617a9.59,9.59,0,0,1-4.322,2.427" transform="translate(-33.677 -30.39)" fill="#e34a5c"/>
        <path id="Trazado_153631" data-name="Trazado 153631" d="M48.06,65.485a2.417,2.417,0,0,0,1.1,1.86,2.68,2.68,0,0,0,2.021.692,18.366,18.366,0,0,1,1.971,0,2.709,2.709,0,0,1-1.237.1c-.7.018-1.4.006-2.1,0a2.786,2.786,0,0,1-2.8-2.453c-.077-.477.07-.575.49-.4.181.077.371.134.557.2" transform="translate(-25.46 -35.325)" fill="#129094"/>
      </g>
    </g>
  </g>
</svg>
