<svg xmlns="http://www.w3.org/2000/svg" xmlns:xlink="http://www.w3.org/1999/xlink" width="144" height="138" viewBox="0 0 144 138">
  <defs>
    <clipPath id="clip-path">
      <rect id="Rect치ngulo_41185" data-name="Rect치ngulo 41185" width="83.157" height="108.955" fill="none"/>
    </clipPath>
  </defs>
  <g id="Grupo_165879" data-name="Grupo 165879" transform="translate(-808 -10680.182)">
    <g id="Grupo_165871" data-name="Grupo 165871" transform="translate(271 9392.182)">
      <rect id="Rect치ngulo_40797" data-name="Rect치ngulo 40797" width="144" height="138" transform="translate(537 1288)" fill="#c4d1ff"/>
    </g>
    <g id="Grupo_165996" data-name="Grupo 165996" transform="translate(838 10695.182)">
      <g id="Grupo_165996-2" data-name="Grupo 165996" clip-path="url(#clip-path)">
        <path id="Trazado_153632" data-name="Trazado 153632" d="M56.469,4.666c7.075,0,14.153.109,21.225-.035a5.111,5.111,0,0,1,5.463,5.446q-.106,47.288-.005,94.575c.008,3.621-2.408,5.517-5.548,5.51q-36.025-.08-72.052,0c-3.129.007-5.555-1.882-5.547-5.51Q.107,57.365,0,10.077A5.119,5.119,0,0,1,5.464,4.63c7.072.146,14.149.038,21.225.035a1.544,1.544,0,0,1,.4,1.295q.033,3.86,0,7.723a1.992,1.992,0,0,1-.3,1.229,2.947,2.947,0,0,1-1.932.342c-4.125.012-8.251,0-12.377.009-1.566,0-1.651.085-1.651,1.681q-.008,40.431,0,80.862c0,1.514.077,1.587,1.609,1.588q29.114.006,58.23,0c1.587,0,1.652-.067,1.652-1.668q.006-40.371,0-80.744c0-1.655-.07-1.718-1.73-1.721-4.125-.007-8.251,0-12.377-.007a2.968,2.968,0,0,1-1.824-.314,1.853,1.853,0,0,1-.329-1.223q-.038-3.876,0-7.752a1.551,1.551,0,0,1,.405-1.3" transform="translate(0 -1.207)" fill="#fc646f"/>
        <path id="Trazado_153633" data-name="Trazado 153633" d="M36.149,13.71Q36.125,8.585,36.1,3.459c.016-.824.09-1.652.034-2.472-.054-.793.242-.988,1-.983,4.677.032,9.354.016,14.031.016,4.519,0,9.039.023,13.56-.021.87-.008,1.2.2,1.121,1.106a21.2,21.2,0,0,0,.033,2.353q-.024,5.126-.049,10.251c-.246.715-.886.546-1.387.559-1.879.046-3.76.018-5.64.018-6.933,0-13.866.011-20.8-.016-.642,0-1.443.291-1.857-.561" transform="translate(-9.411 0)" fill="#f9d107"/>
        <path id="Trazado_153634" data-name="Trazado 153634" d="M30.391,18.543a7.462,7.462,0,0,0,.917.109q13.924.009,27.849,0a7.608,7.608,0,0,0,.917-.109c5.03.005,10.06.031,15.091-.005.932-.007,1.287.179,1.286,1.212q-.043,41.266-.007,82.533c0,.841-.16,1.147-1.088,1.146q-30.125-.042-60.249,0c-.926,0-1.088-.3-1.088-1.145q.03-41.266-.006-82.533c0-1.031.353-1.218,1.285-1.212,5.03.036,10.061.01,15.091.005" transform="translate(-3.654 -4.833)" fill="#def5fc"/>
        <path id="Trazado_153635" data-name="Trazado 153635" d="M52.8,10.3q-3.594,0-7.189,0c-1.185,0-2.048-.644-2.113-1.564-.064-.892.787-1.669,2-1.724,1.1-.05,2.2-.013,3.3-.013q5.48,0,10.96,0a4.425,4.425,0,0,1,1.276.142c.885.259,1.418.832,1.258,1.706a1.617,1.617,0,0,1-1.711,1.461c-2.592-.025-5.185-.008-7.777-.008" transform="translate(-11.339 -1.822)" fill="#f8ae16"/>
        <path id="Trazado_153636" data-name="Trazado 153636" d="M66.535,109.2c-3.178,0-6.357.005-9.536,0-1.371,0-2.083-.606-2.049-1.7.031-1.02.75-1.6,2.048-1.6q9.595-.009,19.189,0c1.312,0,2.123.686,2.081,1.709-.04.983-.809,1.583-2.08,1.587-3.218.007-6.436,0-9.654,0" transform="translate(-14.325 -27.607)" fill="#50758c"/>
        <path id="Trazado_153637" data-name="Trazado 153637" d="M66.547,59.049c-3.178,0-6.355.01-9.533,0-1.354-.006-2.094-.644-2.06-1.711.032-1.02.674-1.573,1.919-1.578,3.256-.015,6.512-.007,9.768-.007,3.178,0,6.356-.007,9.533,0,1.329,0,2.126.659,2.1,1.677-.029.976-.8,1.607-2.073,1.614-3.217.017-6.433.006-9.65.006" transform="translate(-14.326 -14.533)" fill="#50758d"/>
        <path id="Trazado_153638" data-name="Trazado 153638" d="M66.558,84.062c-3.178,0-6.355.005-9.533,0-1.414,0-2.086-.554-2.071-1.659.014-1.016.733-1.63,2.026-1.633q9.591-.019,19.183,0c1.327,0,2.139.7,2.108,1.7s-.807,1.587-2.181,1.59q-4.766.008-9.533,0" transform="translate(-14.327 -21.053)" fill="#50758d"/>
        <path id="Trazado_153639" data-name="Trazado 153639" d="M66.654,30.612q4.708,0,9.416,0c1.414,0,2.242.654,2.2,1.709-.041,1.011-.827,1.59-2.2,1.59q-9.475,0-18.95,0c-1.453,0-2.207-.6-2.171-1.7.033-1.049.762-1.592,2.168-1.594q4.767-.007,9.534,0" transform="translate(-14.325 -7.98)" fill="#50758c"/>
        <path id="Trazado_153640" data-name="Trazado 153640" d="M41.748,57.415a2.081,2.081,0,0,1-.693,1.333c-2.557,2.552-5.1,5.117-7.669,7.659-1.017,1.006-1.791.982-2.835-.044Q28.66,64.506,26.8,62.618c-.979-.99-1.07-1.9-.292-2.662.694-.676,1.7-.567,2.591.3.73.713,1.488,1.4,2.157,2.173.528.607.857.644,1.448.027,1.984-2.069,4.04-4.067,6.064-6.1a1.712,1.712,0,0,1,2.038-.44,1.567,1.567,0,0,1,.942,1.5" transform="translate(-6.775 -14.533)" fill="#50758d"/>
        <path id="Trazado_153641" data-name="Trazado 153641" d="M41.747,82.421a1.981,1.981,0,0,1-.659,1.394c-2.557,2.557-5.1,5.124-7.675,7.665-1.036,1.022-1.8,1-2.834-.021q-1.934-1.9-3.835-3.835c-.929-.945-1-1.831-.247-2.568s1.624-.654,2.575.274c.788.768,1.593,1.523,2.327,2.341.464.518.739.447,1.194-.018,2.032-2.08,4.1-4.121,6.158-6.181a1.679,1.679,0,0,1,2.02-.49,1.624,1.624,0,0,1,.979,1.438" transform="translate(-6.774 -21.07)" fill="#50758d"/>
        <path id="Trazado_153642" data-name="Trazado 153642" d="M41.747,32.275a1.961,1.961,0,0,1-.621,1.273c-2.608,2.609-5.208,5.228-7.831,7.823a1.646,1.646,0,0,1-2.584.034q-2.072-2.007-4.079-4.08a1.6,1.6,0,0,1-.114-2.48,1.632,1.632,0,0,1,2.41.124,24.388,24.388,0,0,1,2.238,2.254c.663.8,1.075.642,1.725-.037,1.953-2.041,3.979-4.014,5.981-6.008a1.53,1.53,0,0,1,1.922-.374,1.679,1.679,0,0,1,.953,1.472" transform="translate(-6.773 -7.98)" fill="#50758d"/>
        <path id="Trazado_153643" data-name="Trazado 153643" d="M32.052,117.255a1.571,1.571,0,0,1-1.3-.51c-1.385-1.39-2.789-2.761-4.156-4.168a1.572,1.572,0,0,1-.123-2.4,1.626,1.626,0,0,1,2.409.038,31.747,31.747,0,0,1,2.411,2.415c.571.654.917.536,1.469-.033,1.964-2.03,3.973-4.018,5.985-6,.934-.92,1.971-.919,2.636-.029a1.508,1.508,0,0,1-.139,2.134c-2.676,2.707-5.376,5.39-8.068,8.082a1.426,1.426,0,0,1-1.12.47" transform="translate(-6.771 -27.609)" fill="#50758c"/>
        <path id="Trazado_153644" data-name="Trazado 153644" d="M61.662,66.662c1.528,0,3.057-.012,4.585,0,1.289.013,1.966.609,1.952,1.675s-.674,1.615-2,1.619q-4.644.013-9.288,0c-1.286,0-1.973-.605-1.961-1.662.011-1.023.735-1.624,2.009-1.632,1.567-.012,3.135,0,4.7,0" transform="translate(-14.326 -17.378)" fill="#50758d"/>
        <path id="Trazado_153645" data-name="Trazado 153645" d="M61.527,44.837c-1.567,0-3.134.016-4.7-.005-1.223-.016-1.862-.591-1.873-1.618-.01-.993.675-1.656,1.859-1.666q4.76-.039,9.519,0c1.192.009,1.859.649,1.869,1.656.01,1.028-.625,1.61-1.855,1.628-1.606.022-3.212.005-4.818.005" transform="translate(-14.326 -10.827)" fill="#50758d"/>
        <path id="Trazado_153646" data-name="Trazado 153646" d="M61.481,120.124c-1.567,0-3.133.017-4.7-.005-1.155-.017-1.777-.569-1.825-1.544a1.6,1.6,0,0,1,1.79-1.728q4.875-.063,9.751,0a1.592,1.592,0,0,1,1.7,1.7c-.014.979-.635,1.558-1.785,1.576-1.644.026-3.289.007-4.934.007" transform="translate(-14.327 -30.453)" fill="#50758d"/>
        <path id="Trazado_153647" data-name="Trazado 153647" d="M61.54,95.111c-1.527,0-3.055.017-4.582,0-1.272-.018-2-.638-2-1.65-.005-1.073.648-1.637,1.966-1.641q4.7-.016,9.4,0c1.233.005,1.881.579,1.882,1.6A1.653,1.653,0,0,1,66.356,95.1c-1.6.036-3.211.009-4.817.01" transform="translate(-14.326 -23.934)" fill="#50758d"/>
      </g>
    </g>
  </g>
</svg>
