<svg xmlns="http://www.w3.org/2000/svg" xmlns:xlink="http://www.w3.org/1999/xlink" width="144" height="138" viewBox="0 0 144 138">
  <defs>
    <clipPath id="clip-path">
      <rect id="Rect치ngulo_41187" data-name="Rect치ngulo 41187" width="85.391" height="105.619" fill="none"/>
    </clipPath>
  </defs>
  <g id="Grupo_165883" data-name="Grupo 165883" transform="translate(-808.185 -10680.182)">
    <g id="Grupo_165871" data-name="Grupo 165871" transform="translate(271.185 9392.182)">
      <rect id="Rect치ngulo_40797" data-name="Rect치ngulo 40797" width="144" height="138" transform="translate(537 1288)" fill="#c4d1ff"/>
    </g>
    <g id="Grupo_165998" data-name="Grupo 165998" transform="translate(837.185 10696.182)">
      <g id="Grupo_165998-2" data-name="Grupo 165998" clip-path="url(#clip-path)">
        <path id="Trazado_153655" data-name="Trazado 153655" d="M49.384,0a27.454,27.454,0,0,0,4.122.6c5.617.95,10.833,2.765,15.038,6.811a17.72,17.72,0,0,1,3.6,4.726c-.921.645-1.959.264-2.945.335-2.4.052-4.806.005-7.208.024-1.277.011-1.346.071-1.349,1.335-.009,3.776,0,7.553,0,11.33A6.3,6.3,0,0,1,60.55,26.7c-.357.807-.85.342-1.246.084a21.962,21.962,0,0,1-4.981-4.6c-1.488-1.818-1.455-1.864-3.439-.651a51.737,51.737,0,0,1-14.926,5.8,1.489,1.489,0,0,1-.914.019.523.523,0,0,1-.241-.229,3.461,3.461,0,0,1-.149-1.42c0-3.461-.09-6.925.022-10.383A26.238,26.238,0,0,1,36.607,5.192,8.1,8.1,0,0,1,41.46.417a.769.769,0,0,1-.775-.235A.368.368,0,0,0,40.721,0Z" transform="translate(-11.272)" fill="#e17d47"/>
        <path id="Trazado_153656" data-name="Trazado 153656" d="M34.555,118.152c-1.949-.005-3.9,0-5.846-.026-.308,0-.69.19-.927-.2a1.881,1.881,0,0,1,1.369-.31q2.06-.017,4.118,0c.713,0,.958-.274.882-1a99.405,99.405,0,0,1-.48-13.974c.2-5.218.666-10.414,2.636-15.339a5.222,5.222,0,0,1,.753-1.456c.434-.371.847-.061,1.248.068a13.669,13.669,0,0,0,10.666-.653,8.108,8.108,0,0,0,4.473-5.319,8.421,8.421,0,0,1,3.272-.914c.544.289.728.88,1.079,1.328a7.446,7.446,0,0,0,3.362,2.575,10.373,10.373,0,0,0,7.134-.244c.843-.291,1.625-.727,2.463-1.03,1.043-.134,1.774.636,2.672.924a9.455,9.455,0,0,1,2.788,1.539,2.132,2.132,0,0,1-.722,1.026,15.072,15.072,0,0,1-7.015,3.669,21.754,21.754,0,0,1-9.088.154,8.521,8.521,0,0,0-1.525-.227c-.993,0-1.383.447-1.249,1.412.046.332.228.659.037,1,.377,2.262.825,4.515,1.117,6.788a85.951,85.951,0,0,1,.585,16.744c-.057.855-.213,1.707-.214,2.561,0,.773-.366.87-1.018.861-1.957-.027-3.915.007-5.872.017a2.088,2.088,0,0,1-1.366.343q-7.031,0-14.063,0a1.941,1.941,0,0,1-1.271-.311" transform="translate(-9.047 -25.733)" fill="#6ec07d"/>
        <path id="Trazado_153657" data-name="Trazado 153657" d="M85.721,18.045,88.674,18q7.105.021,14.21.042c3.089.006,6.18.029,9.269-.018.806-.012,1.04.2,1.035,1.022-.036,6.008.009,12.016-.03,18.023A20.668,20.668,0,0,1,99.329,56.484c-.484.173-.966.351-1.449.527-.546-.215-.609-.793-.893-1.2a5.083,5.083,0,0,0-1.118-1.324c-1.6-.944-2.178-.894-3.58.32-.258.224-.5.486-.883.469a4.626,4.626,0,0,1-2.036-2.238,22.682,22.682,0,0,1-2.894-7.33,1.112,1.112,0,0,1,.024-.9c.03-.016.067-.053.089-.046,1.406.465,2.328-.372,3.37-1.118a8.7,8.7,0,0,1,10.613.326,9.326,9.326,0,0,0,.912.67,1.231,1.231,0,0,0,1.757-.183,1.2,1.2,0,0,0-.113-1.679,8.663,8.663,0,0,0-2.471-2,11.725,11.725,0,0,0-13.121,1.3,7.251,7.251,0,0,0-.968,1.064c-.166.214-.364.48-.619.068a25.561,25.561,0,0,1-.424-7.276c.279-.5.742-.4,1.184-.351a6.069,6.069,0,0,0,6.645-4.744,4.317,4.317,0,0,0,.114-.815c.029-.981-.383-1.583-1.148-1.676-.713-.086-1.216.337-1.4,1.318a3.973,3.973,0,0,1-1.494,2.608,3.182,3.182,0,0,1-2.628.6c-.622-.125-1.194-.365-1.345-1.1-.152-4.261-.047-8.521-.056-12.781a1.284,1.284,0,0,1,.328-.95" transform="translate(-27.798 -5.861)" fill="#f0d233"/>
        <path id="Trazado_153658" data-name="Trazado 153658" d="M29.413.271h1.4c.107.164.05.242-.045.272C27.19,1.7,25.615,4.532,24.725,7.874a33.054,33.054,0,0,0-1.051,8.505q-.005,5.456-.009,10.912c-.274.486-.784.531-1.243.624a75.507,75.507,0,0,1-9.064,1.331c-.581.046-1.074.065-1.149.844a63.063,63.063,0,0,0,.233,13.764c.534,4.362,3.163,7.345,7.118,9.179a3.937,3.937,0,0,1,.908.475c.237.212.174.427-.025.612a25.155,25.155,0,0,0-2.9,3.172.451.451,0,0,1-.455.174,29.711,29.711,0,0,1-12.16-2.117A16.633,16.633,0,0,1,.44,52.674c-.257-.222-.679-.4-.266-.888,1.954-2.327,2.379-5.182,2.674-8.057.548-5.342.39-10.706.413-16.063.022-5.27.777-10.388,3.323-15.1C9.6,7,14.394,3.689,20.333,1.866A35.686,35.686,0,0,1,29.413.271" transform="translate(0 -0.088)" fill="#dc542e"/>
        <path id="Trazado_153659" data-name="Trazado 153659" d="M22.66,83.253a22.509,22.509,0,0,1,3.469-3.722c1.75-.243,2.532.166,3.161,1.719a7.7,7.7,0,0,0,3.52,3.861c.371.21.858.308.969.831a34.95,34.95,0,0,0-2.838,10.744,82.985,82.985,0,0,0-.4,13.951,41.563,41.563,0,0,0,.543,6.626c.132.636-.185.832-.806.823-1.99-.03-3.981-.013-5.972-.015a33.271,33.271,0,0,1-.484-5.421,6.793,6.793,0,0,1-.339-4.016c.3-2.365.257-2.421-2.12-2.423-1.026,0-2.053.016-3.079-.01-.444-.011-.9-.012-1.173-.473.071-7.249,1.012-14.306,4.574-20.786.313-.57.647-1.128.972-1.691" transform="translate(-5.573 -25.877)" fill="#528d61"/>
        <path id="Trazado_153660" data-name="Trazado 153660" d="M37.826,137.031l16.7-.03a36.361,36.361,0,0,1-1,3.52,2.458,2.458,0,0,1-1.68.3c-2.9.042-2.517-.339-2.555,2.6a5.551,5.551,0,0,1-.115,1.635.732.732,0,0,1-.218.3,5.073,5.073,0,0,1-2.748.061.591.591,0,0,1-.259-.243,11.478,11.478,0,0,1-.152-3.043c-.041-1.3-.171-1.413-1.757-1.31-.9.058-.91.19-.844,1.412.055,1.027.568,2.062.03,3.1a3.1,3.1,0,0,1-1.672.236c-.551-.111-1.192.179-1.647-.366l-2.084-8.171" transform="translate(-12.317 -44.612)" fill="#e9ab9c"/>
        <path id="Trazado_153661" data-name="Trazado 153661" d="M16.779,118.412a28.843,28.843,0,0,0,5.512.112c1.047-.016,1.37.26,1.273,1.3a26.271,26.271,0,0,0-.072,5.506c-.23-.419-.564-.372-.962-.27a12.163,12.163,0,0,1-3.652.323,2.669,2.669,0,0,1-2.783-2.866,13.3,13.3,0,0,1,.686-4.11" transform="translate(-5.238 -38.559)" fill="#e9ab9c"/>
        <path id="Trazado_153662" data-name="Trazado 153662" d="M70.389,94.1a9.025,9.025,0,0,1-.381-1.059,1.233,1.233,0,0,1,1.353-1.651c1.082.067,2.155.282,3.234.42,5.111.656,9.854-.183,13.985-3.471a.888.888,0,0,1,.649-.247c-3.14,3.981-7.042,6.678-12.228,7.119A13.9,13.9,0,0,1,70.389,94.1" transform="translate(-22.78 -28.686)" fill="#528e61"/>
        <path id="Trazado_153663" data-name="Trazado 153663" d="M99.091,71.829a5.786,5.786,0,0,1,1.886,2.68,8.747,8.747,0,0,1-2.912,7.235L95.2,80.43a3.6,3.6,0,0,1-.168-2.588,12.312,12.312,0,0,1,3.093-5.681c.231-.272.523-.573.964-.332" transform="translate(-30.895 -23.361)" fill="#fecabd"/>
        <path id="Trazado_153664" data-name="Trazado 153664" d="M57.681,149.037a5.052,5.052,0,0,1,5.257,4.222c.1.657-.061.775-.638.77-2.7-.021-5.407-.02-8.111-.028-.629-1.144-.206-2.381-.307-3.571a1.62,1.62,0,0,1,.32-1.339l.008-.07a4.869,4.869,0,0,1,3.47.016" transform="translate(-17.531 -48.424)" fill="#9cc5fa"/>
        <path id="Trazado_153665" data-name="Trazado 153665" d="M41.441,149.083l1.645-.042a3.447,3.447,0,0,1,2.9-.013l.02.074A8.611,8.611,0,0,1,46,153.985H37.7a1.652,1.652,0,0,1-.054-1.652,4.572,4.572,0,0,1,3.793-3.249" transform="translate(-12.196 -48.426)" fill="#9cc5fa"/>
        <path id="Trazado_153666" data-name="Trazado 153666" d="M57.845,146.914l-3.47-.016c0-1.231.048-2.467-.028-3.694-.054-.866.3-1.044,1.07-1.01,1.161.052,2.326.016,3.49.017l-1.061,4.7" transform="translate(-17.695 -46.302)" fill="#fecabd"/>
        <path id="Trazado_153667" data-name="Trazado 153667" d="M39.99,149.229a6.21,6.21,0,0,0-3.169,2.445,4.633,4.633,0,0,0-.57,2.456c-.789.013-1.582-.013-2.366.051-.826.069-1.012-.231-.819-1.007a5.008,5.008,0,0,1,4.862-3.967c.137-.007.272-.03.409-.045l1.652.065" transform="translate(-10.745 -48.572)" fill="#7398d2"/>
        <path id="Trazado_153668" data-name="Trazado 153668" d="M50.127,154.167q0-2.442.007-4.883L53,149.275q-.007,2.455-.013,4.91l-2.855-.018" transform="translate(-16.323 -48.609)" fill="#7398d2"/>
        <path id="Trazado_153669" data-name="Trazado 153669" d="M58.723,63.126l-3.221.8a1.659,1.659,0,0,1-1.171.3c-4.153-.042-8.3.318-12.456.223-3.235-.074-4.843-1.126-6.023-4.155a31.762,31.762,0,0,1-1.67-7c-.309-2.1.029-4.247-.432-6.34a1.833,1.833,0,0,1,.106-1.014.724.724,0,0,1,.664-.412c1.068-.11,1.511-.817,1.751-1.755a3.081,3.081,0,0,0-1.423-3.624,2.186,2.186,0,0,1,.018-3.22c6.107-1.43,12-3.38,17.2-7.026.561-.394.756-.077,1.038.321a23.488,23.488,0,0,0,6.354,6.227,4.976,4.976,0,0,0,.548.27,1.073,1.073,0,0,1,.307.939,31.105,31.105,0,0,0,1.076,9.94c-.346.672-.777.167-1.119.032a4.474,4.474,0,0,0-3.594.026A1.5,1.5,0,0,0,55.6,49.023c0,.678.487,1.029,1,1.323a3.8,3.8,0,0,0,4.475-.553c.221-.209.386-.489.707-.575.357.045.506.329.633.6a20.227,20.227,0,0,0,3.128,4.619,2.357,2.357,0,0,1,.628,1.034,9.849,9.849,0,0,1-3.3,5.413A11.553,11.553,0,0,1,59.5,63.015c-.247.108-.494.256-.779.111" transform="translate(-10.979 -9.678)" fill="#fecabd"/>
        <path id="Trazado_153670" data-name="Trazado 153670" d="M29.534,40.385a5.9,5.9,0,0,0-.434,1.954.973.973,0,0,0,.637,1.094,2.791,2.791,0,0,0-2.078,2.12,3.891,3.891,0,0,0,.549,2.829c.171.288.474.5.5.871a6.211,6.211,0,0,0,.321,2.731,1.183,1.183,0,0,1,.071.6,24.505,24.505,0,0,0,1.2,9.553A9.587,9.587,0,0,0,32.439,66.3a4.2,4.2,0,0,0,3.14,1.267c2.572.056,5.158.165,7.716-.027,2.3-.173,4.586-.088,6.877-.152-.293,2.486-1.884,4.068-3.9,5.207a13.77,13.77,0,0,1-12.421.61c-1.931-.958-3.819-2.094-4.512-4.222a2.576,2.576,0,0,0-2.652-2.043,2.165,2.165,0,0,1-.486-.146,12.234,12.234,0,0,1-8.293-9.04,11.637,11.637,0,0,1-.351-2.636c-.035-2.847-.3-5.689-.184-8.539.051-1.267.154-2.533.175-3.8.011-.711.444-.73.954-.757a72.6,72.6,0,0,0,10.223-1.484,4.651,4.651,0,0,0,.585-.2l.221.047" transform="translate(-5.649 -13.135)" fill="#e9ab9c"/>
        <path id="Trazado_153671" data-name="Trazado 153671" d="M73.927,44.017c-1.372-3.6-1.25-7.358-1.232-11.109.005-4.594.03-9.19,0-13.785-.006-.837.2-1.128,1.08-1.108,2.605.059,5.212.029,7.818.034q-.01,7.019-.02,14.038c-.866-.087-1.158-.753-1.405-1.434a10.182,10.182,0,0,1-.269-1.2,1.2,1.2,0,0,0-1.37-1.093A1.422,1.422,0,0,0,77.32,29.9a6.036,6.036,0,0,0,2.7,4.734c.519.369,1.232.477,1.552,1.121a67.6,67.6,0,0,0,.449,7.677,1.552,1.552,0,0,1,.424,1.329,21.793,21.793,0,0,0,3.969,9.51,7.525,7.525,0,0,0,.958.91,1.391,1.391,0,0,1-.792,1.5,16.538,16.538,0,0,1-6.313-3.415c-.58-.452-1.285-.808-1.514-1.6a25.006,25.006,0,0,1-4.218-6.2,1.308,1.308,0,0,1-.61-1.449" transform="translate(-23.668 -5.866)" fill="#e6a52e"/>
        <path id="Trazado_153672" data-name="Trazado 153672" d="M78.141,67.92a24.472,24.472,0,0,0,7.777,4.93.409.409,0,0,1,.124.374c-.55,1.508-.661,3.12-1.109,4.652a18.714,18.714,0,0,1-6.587,1.664,7.961,7.961,0,0,1-3.334-.051A7.58,7.58,0,0,1,70.8,75.565a12.287,12.287,0,0,0,7.343-7.645" transform="translate(-23.054 -22.117)" fill="#e17d47"/>
        <path id="Trazado_153673" data-name="Trazado 153673" d="M91.657,78.679A14.787,14.787,0,0,1,92.71,73.76a5.208,5.208,0,0,0,.842-1.416c.247-.227.5-.45.741-.684,1.24-1.2,2.317-1.253,3.749-.165-1.409.69-1.96,2.105-2.745,3.306a8.268,8.268,0,0,0-1.145,5.3,19.965,19.965,0,0,0-2.426-1.038c-.1-.113-.066-.25-.07-.38" transform="translate(-29.846 -23.028)" fill="#e9ab9c"/>
        <path id="Trazado_153674" data-name="Trazado 153674" d="M86.9,82.524c.239.088.118.241.069.381a13.18,13.18,0,0,1-7.8,1.944,4.834,4.834,0,0,1-2.128-.6,32.228,32.228,0,0,0,9.854-1.72" transform="translate(-25.089 -26.872)" fill="#fcfcfb"/>
        <path id="Trazado_153675" data-name="Trazado 153675" d="M86.959,54.949a2.961,2.961,0,0,1-.424-1.329,4.32,4.32,0,0,1,.713-1.109,11.911,11.911,0,0,1,16.306.015,1.652,1.652,0,0,1,.583,1.834,1.575,1.575,0,0,1-2.675.537,9.151,9.151,0,0,0-4.017-2.189,8.5,8.5,0,0,0-7.766,1.919c-1.14.985-1.46,1.039-2.72.323" transform="translate(-28.178 -16.05)" fill="#fefefe"/>
        <path id="Trazado_153676" data-name="Trazado 153676" d="M114.107,34.719a6.272,6.272,0,0,1-12.387,1.139,5.4,5.4,0,0,1-.161-1.523,1.493,1.493,0,0,1,1.464-1.463,1.475,1.475,0,0,1,1.648,1.235,12.979,12.979,0,0,0,.279,1.4,3.053,3.053,0,0,0,3.338,2,3.14,3.14,0,0,0,2.682-2.952c.165-1.36,1.165-2.06,2.242-1.552a1.562,1.562,0,0,1,.895,1.718" transform="translate(-33.067 -10.692)" fill="#fefefe"/>
        <path id="Trazado_153677" data-name="Trazado 153677" d="M83.685,40.588a8.8,8.8,0,0,1-2.961-1.995,6.25,6.25,0,0,1-1.563-4.037,1.6,1.6,0,0,1,1.46-1.689,1.533,1.533,0,0,1,1.674,1.44,3.168,3.168,0,0,0,1.384,2.609c1.467,1.368,4.421.46,4.823-1.952a2,2,0,0,0,.078-.4,1.607,1.607,0,0,1,1.754-1.709c.943.106,1.444.851,1.4,2.049A6.315,6.315,0,0,1,84.6,40.67c-.3-.049-.612-.056-.918-.082" transform="translate(-25.777 -10.696)" fill="#fefefe"/>
        <path id="Trazado_153678" data-name="Trazado 153678" d="M48.49,146.912l-2.9.013c-.113-1.05-.173-2.109-.351-3.149-.237-1.391-.137-1.56,1.249-1.561,2,0,2,0,2,2.017,0,.894,0,1.786.006,2.68" transform="translate(-14.698 -46.31)" fill="#fdcabd"/>
        <path id="Trazado_153679" data-name="Trazado 153679" d="M47.309,64.058a6.729,6.729,0,0,1-5.742-3.431,1.586,1.586,0,0,1,.457-2.406,1.659,1.659,0,0,1,2.265.746c1.643,2.5,4.407,2.5,6,.009a1.666,1.666,0,0,1,2.264-.763,1.607,1.607,0,0,1,.522,2.314,6.724,6.724,0,0,1-5.762,3.531" transform="translate(-13.423 -18.89)" fill="#d94a54"/>
        <path id="Trazado_153680" data-name="Trazado 153680" d="M71.646,56.162q.305.725.61,1.45a4.034,4.034,0,0,1-5.515,1.236c-.558-.331-1.1-.721-1.059-1.511a1.738,1.738,0,0,1,1.162-1.552,4.827,4.827,0,0,1,4.8.376" transform="translate(-21.388 -18.011)" fill="#e3989c"/>
        <path id="Trazado_153681" data-name="Trazado 153681" d="M33.519,50.747A3.57,3.57,0,0,1,32.286,46.7a2.039,2.039,0,0,1,2.258-1.776,3.644,3.644,0,0,1,.778,5.3c-.519.583-1.167.474-1.8.521" transform="translate(-10.456 -14.63)" fill="#544f57"/>
        <path id="Trazado_153682" data-name="Trazado 153682" d="M66.366,47.915a4.623,4.623,0,0,1-.379,1.659,1.82,1.82,0,0,1-1.638,1.2,1.731,1.731,0,0,1-1.562-1.151,3.846,3.846,0,0,1,.04-3.647,1.709,1.709,0,0,1,1.508-1.071,1.735,1.735,0,0,1,1.594,1.1,4.209,4.209,0,0,1,.437,1.91" transform="translate(-20.302 -14.623)" fill="#544f57"/>
      </g>
    </g>
  </g>
</svg>
