<svg xmlns="http://www.w3.org/2000/svg" xmlns:xlink="http://www.w3.org/1999/xlink" width="153" height="177" viewBox="0 0 153 177">
  <defs>
    <clipPath id="clip-path">
      <rect id="Rectángulo_41359" data-name="Rectángulo 41359" width="153" height="177" transform="translate(825 5964)" fill="#fff" stroke="#707070" stroke-width="1"/>
    </clipPath>
    <clipPath id="clip-path-2">
      <rect id="Rectángulo_41372" data-name="Rectángulo 41372" width="117.542" height="278.882" fill="none"/>
    </clipPath>
    <clipPath id="clip-path-4">
      <rect id="Rectángulo_41369" data-name="Rectángulo 41369" width="7.586" height="4.23" fill="none"/>
    </clipPath>
  </defs>
  <g id="Enmascarar_grupo_205" data-name="Enmascarar grupo 205" transform="translate(-825 -5964)" clip-path="url(#clip-path)">
    <g id="Grupo_166320" data-name="Grupo 166320" transform="translate(844.938 5970.975)">
      <g id="Grupo_166328" data-name="Grupo 166328" clip-path="url(#clip-path-2)">
        <g id="Grupo_166327" data-name="Grupo 166327">
          <g id="Grupo_166326" data-name="Grupo 166326" clip-path="url(#clip-path-2)">
            <path id="Trazado_155287" data-name="Trazado 155287" d="M245.134,194.981l6.366-3.08,9.8-2.563.906-1.967-.331-2.792-.281-4.526-7.1.595,2.1-4.55a8.921,8.921,0,0,0-4.717,2.563c-2.116,2.2-4.688,8.436-4.688,8.436l-6.262,4.857Z" transform="translate(-154.214 -112.718)" fill="#fca19f"/>
            <path id="Trazado_155288" data-name="Trazado 155288" d="M58.778,708.011,55.645,724.8l-8.9-1.5L47,721.545l1.629-12.28Z" transform="translate(-29.923 -453.188)" fill="#acbdd2"/>
            <path id="Trazado_155289" data-name="Trazado 155289" d="M45.328,739.809s3.091,4.929,9.857.167c0,0,19.8,7.184,20.049,9.69s-1.253,2.757-1.253,2.757l-29.322-.251Z" transform="translate(-28.586 -473.541)" fill="#242638"/>
            <path id="Trazado_155290" data-name="Trazado 155290" d="M153.309,710.449l1.128,15.788-10.15-1.378.251-1.755-1-10.525Z" transform="translate(-91.875 -454.748)" fill="#acbdd2"/>
            <path id="Trazado_155291" data-name="Trazado 155291" d="M90.118,358.64l.922,11.278-.167,122.131-15.538.5L70.657,382.114l-2.506-.167L56.623,492.384H40.25l2.506-62.653L42.087,362.4l10.359-7.184Z" transform="translate(-25.763 -227.368)" fill="#242638"/>
            <path id="Trazado_155292" data-name="Trazado 155292" d="M48.141,379.259l12.7-13.366,13.867.167" transform="translate(-30.815 -234.203)" fill="none" stroke="#356493" stroke-linecap="round" stroke-linejoin="round" stroke-width="1.393"/>
            <path id="Trazado_155293" data-name="Trazado 155293" d="M124.735,389.246l1-2,.167-20.884,12.531.334,6.683,10.359" transform="translate(-79.841 -234.5)" fill="none" stroke="#356493" stroke-linecap="round" stroke-linejoin="round" stroke-width="1.393"/>
            <path id="Trazado_155294" data-name="Trazado 155294" d="M77.678,79.13,76.025,94.98s1.219,10.228,9.933,8.172S93.2,95.086,93.2,95.086l-1.064-2.6-.818-9.149Z" transform="translate(-48.662 -50.65)" fill="#fca19f"/>
            <path id="Trazado_155295" data-name="Trazado 155295" d="M79.506,84.568l.35-4.12,4.158.793,4.019,1.239,5.732,4.13.446,4.986c-2.354,1.082-11.865,1.651-14.705-7.028" transform="translate(-50.891 -51.494)" fill="#f97070"/>
            <path id="Trazado_155296" data-name="Trazado 155296" d="M93.568,20.942c.4,7.049-.559,21.22-7.568,22.058-7.376.883-11.577-2.653-13.6-9.365,0,0-3.494,1.868-3.961-3.162-.206-2.219,2.418-1.406,2.418-1.406S64.025,11.6,75.234,8.449s17.792,2.844,18.335,12.493" transform="translate(-43.799 -4.868)" fill="#fca19f"/>
            <path id="Trazado_155297" data-name="Trazado 155297" d="M96.825,50.213a2.113,2.113,0,0,0,.674.2.572.572,0,0,0,.569-.346,1.12,1.12,0,0,0-.321-1.094,2.7,2.7,0,0,0-1.908-.673,5.752,5.752,0,0,0-2.011.138,2.564,2.564,0,0,0-1.6,1.328.483.483,0,0,0-.063.278.307.307,0,0,0,.257.255.647.647,0,0,0,.328-.08,5.287,5.287,0,0,1,4.071-.009" transform="translate(-58.994 -30.902)" fill="#945661"/>
            <path id="Trazado_155298" data-name="Trazado 155298" d="M120.959,50.348a1.8,1.8,0,0,1-.585.26.483.483,0,0,1-.524-.294,1.24,1.24,0,0,1,.22-1.117,2.336,2.336,0,0,1,1.65-.835,4.551,4.551,0,0,1,1.789-.037A2.236,2.236,0,0,1,125,49.509a.516.516,0,0,1,.072.271.306.306,0,0,1-.213.276.513.513,0,0,1-.3-.052,4.239,4.239,0,0,0-3.605.344" transform="translate(-76.676 -30.884)" fill="#945661"/>
            <path id="Trazado_155299" data-name="Trazado 155299" d="M113.922,62.313a10.128,10.128,0,0,0,1.415,4.65.627.627,0,0,1,.09.468.538.538,0,0,1-.117.175,1.964,1.964,0,0,1-.952.57c-.519.134-1.159.091-1.477.522" transform="translate(-72.253 -39.886)" fill="none" stroke="#242638" stroke-miterlimit="10" stroke-width="0.818"/>
            <path id="Trazado_155300" data-name="Trazado 155300" d="M125.533,58.033c-.054-1.193-.594-2.137-1.207-2.109s-1.065,1.017-1.011,2.21.594,2.137,1.207,2.109,1.065-1.017,1.011-2.21" transform="translate(-78.929 -35.796)" fill="#242638"/>
            <path id="Trazado_155301" data-name="Trazado 155301" d="M99.275,58.358c-.054-1.193-.594-2.137-1.207-2.109S97,57.266,97.057,58.459s.594,2.137,1.207,2.109,1.065-1.017,1.011-2.21" transform="translate(-62.122 -36.004)" fill="#242638"/>
            <path id="Trazado_155302" data-name="Trazado 155302" d="M110.076,83.714a19.738,19.738,0,0,1-8.98.64s1.99,3.318,4.89,2.957,4.09-3.6,4.09-3.6" transform="translate(-64.71 -53.584)" fill="#fff"/>
            <path id="Trazado_155303" data-name="Trazado 155303" d="M93.117,10.057c.563-.475,1.285-.981,1.254-1.717-.029-.711-.766-1.173-1.448-1.372a4.4,4.4,0,0,1-1.955-.79c1.44-.369,1.858-2.388,1.143-3.692A4.87,4.87,0,0,0,89.032.271,11.917,11.917,0,0,0,85.157.06a45.272,45.272,0,0,0-7.239,1.1c-2,.47-4.2,1.055-6.007.092A4.6,4.6,0,0,0,70.334.514a1.99,1.99,0,0,0-1.941,1.666,5.8,5.8,0,0,0,.3,2.757,3.434,3.434,0,0,0-2.929.456c-.776.668-.76,2.194.208,2.528.314.108.713.1.895.383.2.312-.029.714-.24,1.021a11.321,11.321,0,0,0,2.916,15.737c.516-2.615,1.447-5.131,2.06-7.725a15.212,15.212,0,0,0,.118-7.9c4.993,2.594,11.018,2.532,16.465,1.118a1.721,1.721,0,0,1,1.246-.012,1.683,1.683,0,0,1,.656,1.148c.409,1.627.662,3.414,1.07,5.041.422-2.112.128-5.131,1.958-6.675" transform="translate(-41.378 0)" fill="#945661"/>
            <path id="Trazado_155304" data-name="Trazado 155304" d="M76.533,37.531a54.718,54.718,0,0,0,1.716-16.279c.035.559,2.285,1.029,2.693,1.151a21.023,21.023,0,0,0,4.631.844c4.161.275,8.106-.709,12.176-1.343A2.793,2.793,0,0,1,99.417,22a1,1,0,0,1,.468,1.405" transform="translate(-48.988 -13.603)" fill="none" stroke="#fff" stroke-linecap="round" stroke-linejoin="round" stroke-width="0.832"/>
            <path id="Trazado_155305" data-name="Trazado 155305" d="M105.179,15.335c-2.259-.841-4.765-.194-7.108.371-3.445.831-7.073,1.471-10.506.588" transform="translate(-56.049 -9.558)" fill="none" stroke="#fff" stroke-linecap="round" stroke-linejoin="round" stroke-width="0.832"/>
            <line id="Línea_515" data-name="Línea 515" x2="2.005" y2="108.013" transform="translate(59.931 156.334)" fill="none" stroke="#356493" stroke-linecap="round" stroke-linejoin="round" stroke-width="1.393"/>
            <line id="Línea_516" data-name="Línea 516" x1="6.683" y2="110.269" transform="translate(25.012 154.412)" fill="none" stroke="#356493" stroke-linecap="round" stroke-linejoin="round" stroke-width="1.393"/>
            <path id="Trazado_155306" data-name="Trazado 155306" d="M27.017,117.079a23.416,23.416,0,0,0,10.191,8.187l6.683-7.184,3.007,2.172,15.965,6.616a4.484,4.484,0,0,1,2.758,3.857l7.413,26.923,17.66-10.227,5.687,9.778-24.3,21.459a4.878,4.878,0,0,1-7.529-1.595c-.384-.777.293,9.656-.051,8.556-.36-1.152,3.152,80.681,2.7,80.681-3.146,0-13.022-.833-14.963-1.8,0,0-17.376,5.681-34.083,3.341l-3.693-.9,1.2-85.394L3.309,178.918a4.177,4.177,0,0,1-3.294-4.44l3.517-41.371A6.139,6.139,0,0,1,7.044,128l16.13-7.578Z" transform="translate(0 -74.941)" fill="#e4eef9"/>
            <path id="Trazado_155307" data-name="Trazado 155307" d="M79.809,124.73c-4.344-2.673-9.628-8.488-9.628-8.488l-3.5,2.89,22.982,46.531-.417-46.112-2.988-3.029Z" transform="translate(-42.684 -74.405)" fill="#fff"/>
            <path id="Trazado_155308" data-name="Trazado 155308" d="M83.2,128.916l5.43,10.191-3.509,7.644,4.261.627-7.894,27.943L57.68,152.766l3.133-3.759L54.8,147.5l-2.13-17.543" transform="translate(-33.712 -82.517)" fill="none" stroke="#356493" stroke-linecap="round" stroke-linejoin="round" stroke-width="0.777"/>
            <line id="Línea_517" data-name="Línea 517" x2="4.237" y2="96.739" transform="translate(47.776 92.804)" fill="none" stroke="#356493" stroke-linecap="round" stroke-linejoin="round" stroke-width="0.777"/>
            <path id="Trazado_155309" data-name="Trazado 155309" d="M176.405,253.407l-1.612-20.378-.853-26.359" transform="translate(-111.337 -132.287)" fill="none" stroke="#356493" stroke-linecap="round" stroke-linejoin="round" stroke-width="0.777"/>
            <path id="Trazado_155310" data-name="Trazado 155310" d="M17.5,152.823s11.862,5.848,12.865,20.049" transform="translate(-11.204 -97.82)" fill="none" stroke="#356493" stroke-linecap="round" stroke-linejoin="round" stroke-width="0.777"/>
            <path id="Trazado_155311" data-name="Trazado 155311" d="M174.409,149.109a58.645,58.645,0,0,0-2.339,16.875" transform="translate(-110.134 -95.442)" fill="none" stroke="#356493" stroke-linecap="round" stroke-linejoin="round" stroke-width="0.777"/>
            <rect id="Rectángulo_41366" data-name="Rectángulo 41366" width="17.342" height="3.258" transform="translate(17.053 132.157)" fill="none" stroke="#356493" stroke-linecap="round" stroke-linejoin="round" stroke-width="0.777"/>
            <rect id="Rectángulo_41367" data-name="Rectángulo 41367" width="10.07" height="3.258" transform="translate(55.273 132.157)" fill="none" stroke="#356493" stroke-linecap="round" stroke-linejoin="round" stroke-width="0.777"/>
            <rect id="Rectángulo_41368" data-name="Rectángulo 41368" width="8.103" height="2.84" transform="translate(54.835 110.388)" fill="none" stroke="#356493" stroke-linecap="round" stroke-linejoin="round" stroke-width="1.393"/>
            <path id="Trazado_155312" data-name="Trazado 155312" d="M124.424,280.961a1.295,1.295,0,1,0-1.295,1.295A1.295,1.295,0,0,0,124.424,280.961Z" transform="translate(-77.984 -179.01)" fill="none" stroke="#356493" stroke-linecap="round" stroke-linejoin="round" stroke-width="1.393"/>
            <path id="Trazado_155313" data-name="Trazado 155313" d="M127.441,305.1a1.295,1.295,0,1,0-1.295,1.295A1.3,1.3,0,0,0,127.441,305.1Z" transform="translate(-79.915 -194.461)" fill="none" stroke="#356493" stroke-linecap="round" stroke-linejoin="round" stroke-width="1.393"/>
            <path id="Trazado_155314" data-name="Trazado 155314" d="M126.681,335a1.295,1.295,0,1,0-1.295,1.295A1.3,1.3,0,0,0,126.681,335Z" transform="translate(-79.429 -213.6)" fill="none" stroke="#356493" stroke-linecap="round" stroke-linejoin="round" stroke-width="1.393"/>
            <path id="Trazado_155315" data-name="Trazado 155315" d="M97.829,140.208l3.4.781-.877,4.093,7.1,17.793L107.659,181S99.18,164.63,99.18,164.129s-1.5-18.294-1.5-18.294L94.794,141.7Z" transform="translate(-60.676 -89.745)" fill="#2773bf"/>
            <path id="Trazado_155316" data-name="Trazado 155316" d="M76,145.267a.125.125,0,0,1-.056-.238l9.774-4.845a.113.113,0,0,1,.08-.01l9.774,1.963a.124.124,0,0,1,.1.147.127.127,0,0,1-.147.1l-9.732-1.954-9.736,4.826a.127.127,0,0,1-.056.013" transform="translate(-48.568 -89.721)" fill="#e4eef9"/>
            <path id="Trazado_155317" data-name="Trazado 155317" d="M144.2,739.809s3.091,4.929,9.857.167c0,0,19.8,7.184,20.049,9.69s-1.253,2.757-1.253,2.757l-29.322-.251Z" transform="translate(-91.875 -473.541)" fill="#242638"/>
            <path id="Trazado_155318" data-name="Trazado 155318" d="M123.915,285.866a70.344,70.344,0,0,1-10.514-3.88,19.259,19.259,0,0,1,5.167,4.15c-5.168-2.7-9.161-6.869-14.33-9.566-1.54-.8-4.255-.132-5.795-.936q.083-3.287.165-6.573c.013-.491.092-1.086.543-1.278a1.3,1.3,0,0,1,.694-.026l19.083,2.774a4.1,4.1,0,0,1,2.945,1.306c-2.686,1.093-5.886-.8-8.59.245l12.078,4.889a3.374,3.374,0,0,1,2.146,1.689l-2.91.106a3.464,3.464,0,0,1,2.25,3.143,43.726,43.726,0,0,1-10.711-1.938l7.177,4.65c.44.285.934.84.6,1.247" transform="translate(-63.012 -171.365)" fill="#fca19f"/>
            <path id="Trazado_155319" data-name="Trazado 155319" d="M90.133,264.625l4.976,1.085.3,12.833-3.479-.262Z" transform="translate(-57.693 -169.383)" fill="#e4eef9"/>
            <path id="Trazado_155320" data-name="Trazado 155320" d="M43.528,250.5l22.049,2.744-.3-13.02-20.5-4.789,1.347-10.626" transform="translate(-27.861 -143.898)" fill="none" stroke="#356493" stroke-linecap="round" stroke-linejoin="round" stroke-width="0.777"/>
            <path id="Trazado_155321" data-name="Trazado 155321" d="M273.5,185.924l17.936-1.95s1.364,1.56-4.289,1.95l-3.509.78,8.383,1.56s-.39.78-2.535.975L292.6,190.6a13.216,13.216,0,0,1-3.7.975c-1.365,0-7.993.78-7.993.78s9.553.2,9.553.975-11.112,1.365-11.112,1.365Z" transform="translate(-175.063 -117.759)" fill="#fca19f"/>
            <g id="Grupo_166322" data-name="Grupo 166322" transform="translate(32.379 20.536)" opacity="0.52">
              <g id="Grupo_166321" data-name="Grupo 166321">
                <g id="Grupo_166320-2" data-name="Grupo 166320" clip-path="url(#clip-path-4)">
                  <path id="Trazado_155322" data-name="Trazado 155322" d="M96.85,57.059H90.662a.7.7,0,0,0-.7.7V60.59a.7.7,0,0,0,.7.7H96.85a.7.7,0,0,0,.7-.7V57.758a.7.7,0,0,0-.7-.7" transform="translate(-89.963 -57.059)" fill="#c3e6ff"/>
                </g>
              </g>
            </g>
            <path id="Trazado_155323" data-name="Trazado 155323" d="M96.6,61.18H90.413a.84.84,0,0,1-.839-.839V57.51a.84.84,0,0,1,.839-.839H96.6a.84.84,0,0,1,.839.839v2.831a.84.84,0,0,1-.839.839m-6.187-4.23a.56.56,0,0,0-.559.559v2.831a.56.56,0,0,0,.559.559H96.6a.56.56,0,0,0,.559-.559V57.51a.56.56,0,0,0-.559-.559Z" transform="translate(-57.335 -36.274)" fill="#242638"/>
            <g id="Grupo_166325" data-name="Grupo 166325" transform="translate(42.54 20.536)" opacity="0.52">
              <g id="Grupo_166324" data-name="Grupo 166324">
                <g id="Grupo_166323" data-name="Grupo 166323" clip-path="url(#clip-path-4)">
                  <path id="Trazado_155324" data-name="Trazado 155324" d="M125.081,57.059h-6.187a.7.7,0,0,0-.7.7V60.59a.7.7,0,0,0,.7.7h6.187a.7.7,0,0,0,.7-.7V57.758a.7.7,0,0,0-.7-.7" transform="translate(-118.194 -57.059)" fill="#c3e6ff"/>
                </g>
              </g>
            </g>
            <path id="Trazado_155325" data-name="Trazado 155325" d="M124.832,61.18h-6.187a.84.84,0,0,1-.839-.839V57.51a.84.84,0,0,1,.839-.839h6.187a.84.84,0,0,1,.839.839v2.831a.84.84,0,0,1-.839.839m-6.187-4.23a.56.56,0,0,0-.559.559v2.831a.56.56,0,0,0,.559.559h6.187a.56.56,0,0,0,.559-.559V57.51a.56.56,0,0,0-.559-.559Z" transform="translate(-75.406 -36.274)" fill="#242638"/>
            <path id="Trazado_155326" data-name="Trazado 155326" d="M113.614,62.57s-.944-1.13-2.575-.011" transform="translate(-71.074 -39.727)" fill="none" stroke="#242638" stroke-miterlimit="10" stroke-width="1.166"/>
            <path id="Trazado_155327" data-name="Trazado 155327" d="M79.812,61.933l-5.263,1.332-.353-.306,5.59-1.926Z" transform="translate(-47.492 -39.066)" fill="#242638"/>
            <path id="Trazado_155328" data-name="Trazado 155328" d="M60.422,155.018,59.3,155c.023-1.337.564-32.79.982-36.823a10.116,10.116,0,0,1,5.5-7.633l-.047,1.305c-.042.03-3.95,2.7-4.338,6.443-.412,3.985-.97,36.4-.976,36.727" transform="translate(-37.959 -70.757)" fill="#242638"/>
            <path id="Trazado_155329" data-name="Trazado 155329" d="M59.123,225.743a3.6,3.6,0,1,0-3.6,3.6,3.6,3.6,0,0,0,3.6-3.6" transform="translate(-33.235 -142.19)" fill="#9fb6c4"/>
            <path id="Trazado_155330" data-name="Trazado 155330" d="M59.826,227.6a2.447,2.447,0,1,0-2.447,2.447,2.447,2.447,0,0,0,2.447-2.447" transform="translate(-35.161 -144.116)" fill="#242638"/>
            <path id="Trazado_155331" data-name="Trazado 155331" d="M132.149,154.9l-.4-1.043.2.522-.206-.52a4.161,4.161,0,0,0,2.272-2.982c.615-2.758-.529-8.059-9.467-17.65l-.145-.155-.005-.211c0-.107-.284-10.754-.743-15.341-.421-4.212-3.167-4.71-3.2-4.716l-.093-1.422c.149.034,3.9,1.024,4.4,6.027.427,4.266.7,13.68.743,15.211,7.362,7.935,10.588,14.172,9.588,18.537a5.273,5.273,0,0,1-2.948,3.744" transform="translate(-77.043 -71.296)" fill="#242638"/>
            <path id="Trazado_155332" data-name="Trazado 155332" d="M117.379,171.021a83.958,83.958,0,0,0-5.507,8.708c-2.777,5.137-4.948,10.969-1.764,12.733" transform="translate(-69.468 -109.468)" fill="none" stroke="#242638" stroke-miterlimit="10" stroke-width="3.108"/>
            <line id="Línea_518" data-name="Línea 518" x1="12.771" y2="0.28" transform="translate(42.318 70.502)" fill="none" stroke="#242638" stroke-miterlimit="10" stroke-width="3.108"/>
            <path id="Trazado_155333" data-name="Trazado 155333" d="M112.467,226.364h0a.7.7,0,0,0-.893.425l-.561,1.581a.7.7,0,1,0,1.318.468l.561-1.581a.7.7,0,0,0-.425-.893" transform="translate(-71.032 -144.866)" fill="#9fb6c4"/>
            <path id="Trazado_155334" data-name="Trazado 155334" d="M149.195,227.068h0a.7.7,0,0,0-.417.9l.576,1.576a.7.7,0,1,0,1.313-.479l-.575-1.576a.7.7,0,0,0-.9-.418" transform="translate(-95.203 -145.316)" fill="#9fb6c4"/>
          </g>
        </g>
      </g>
    </g>
  </g>
</svg>
