<svg xmlns="http://www.w3.org/2000/svg" xmlns:xlink="http://www.w3.org/1999/xlink" width="153" height="177" viewBox="0 0 153 177">
  <defs>
    <clipPath id="clip-path">
      <rect id="Rect치ngulo_41361" data-name="Rect치ngulo 41361" width="153" height="177" fill="#fff" stroke="#707070" stroke-width="1"/>
    </clipPath>
  </defs>
  <g id="Enmascarar_grupo_206" data-name="Enmascarar grupo 206" clip-path="url(#clip-path)">
    <g id="Grupo_166331" data-name="Grupo 166331" transform="translate(22.793 5.531)">
      <path id="Trazado_155387" data-name="Trazado 155387" d="M221.823,172.468l-1.895,18.17s1.4,11.725,11.386,9.368,8.3-9.247,8.3-9.247l-1.219-2.981-.938-10.488Z" transform="translate(-173.947 -139.819)" fill="#f59489"/>
      <path id="Trazado_155388" data-name="Trazado 155388" d="M227.873,179.6l.429-4.265,4.767.909,4.607,1.421,6.571,4.735.511,5.716c-2.608,1.831-13.629,1.434-16.885-8.516" transform="translate(-180.483 -142.147)" fill="#f3786a"/>
      <path id="Trazado_155389" data-name="Trazado 155389" d="M217.185,31.868c.455,8.081-.641,24.326-8.676,25.287-8.455,1.011-13.271-3.041-15.591-10.736,0,0-4,2.142-4.541-3.625-.237-2.544,2.772-1.612,2.772-1.612s-7.832-20.027,5.018-23.636,20.4,3.26,21.019,14.322" transform="translate(-145.517 -13.442)" fill="#f59489"/>
      <path id="Trazado_155390" data-name="Trazado 155390" d="M262.022,102.363a2.422,2.422,0,0,0,.773.232.656.656,0,0,0,.653-.4,1.285,1.285,0,0,0-.368-1.254,3.1,3.1,0,0,0-2.187-.771,6.6,6.6,0,0,0-2.306.158,2.94,2.94,0,0,0-1.829,1.522.554.554,0,0,0-.072.319.353.353,0,0,0,.295.292.746.746,0,0,0,.377-.092,6.06,6.06,0,0,1,4.666-.01" transform="translate(-204.68 -81.187)" fill="#945661"/>
      <path id="Trazado_155391" data-name="Trazado 155391" d="M198.615,100.514a2.055,2.055,0,0,1-.671.3.554.554,0,0,1-.6-.338,1.421,1.421,0,0,1,.252-1.28,2.677,2.677,0,0,1,1.892-.957,5.216,5.216,0,0,1,2.051-.043,2.565,2.565,0,0,1,1.709,1.357.6.6,0,0,1,.083.311.351.351,0,0,1-.244.317.589.589,0,0,1-.339-.059,4.86,4.86,0,0,0-4.133.394" transform="translate(-133.263 -79.536)" fill="#945661"/>
      <path id="Trazado_155392" data-name="Trazado 155392" d="M229.841,135.814a11.608,11.608,0,0,0,1.622,5.331.717.717,0,0,1,.1.536.613.613,0,0,1-.135.2,2.249,2.249,0,0,1-1.091.654c-.6.153-1.329.1-1.694.6" transform="translate(-167.459 -110.104)" fill="none" stroke="#242638" stroke-miterlimit="10" stroke-width="0.817"/>
      <path id="Trazado_155393" data-name="Trazado 155393" d="M210.655,119.79c-.062-1.367-.681-2.45-1.383-2.418s-1.221,1.166-1.159,2.533.681,2.45,1.383,2.418,1.221-1.166,1.159-2.533" transform="translate(-142.643 -95.153)" fill="#242638"/>
      <path id="Trazado_155394" data-name="Trazado 155394" d="M267.742,125.016c-.062-1.367-.681-2.45-1.383-2.418s-1.221,1.166-1.159,2.534.681,2.45,1.383,2.418,1.221-1.166,1.159-2.533" transform="translate(-210.537 -99.389)" fill="#242638"/>
      <path id="Trazado_155395" data-name="Trazado 155395" d="M225.783,182.458a22.624,22.624,0,0,1-10.295.734s2.281,3.8,5.606,3.39,4.689-4.124,4.689-4.124" transform="translate(-159.163 -147.918)" fill="#fff"/>
      <path id="Trazado_155396" data-name="Trazado 155396" d="M201.934,11.533c.646-.545,1.472-1.124,1.438-1.969-.033-.815-.877-1.344-1.66-1.573a5.04,5.04,0,0,1-2.241-.906c1.651-.423,2.129-2.737,1.311-4.232a5.584,5.584,0,0,0-3.53-2.538,13.666,13.666,0,0,0-4.443-.242,51.848,51.848,0,0,0-8.3,1.257c-2.288.539-4.811,1.209-6.887.105a5.279,5.279,0,0,0-1.808-.842A2.281,2.281,0,0,0,173.591,2.5a6.647,6.647,0,0,0,.345,3.16,3.935,3.935,0,0,0-3.357.523c-.89.766-.872,2.515.238,2.9.36.125.818.12,1.026.44.233.358-.033.819-.275,1.171a12.977,12.977,0,0,0,3.342,18.04c.592-3,1.659-5.882,2.362-8.856a17.44,17.44,0,0,0,.135-9.059c5.724,2.974,12.631,2.9,18.875,1.281a1.972,1.972,0,0,1,1.429-.013,1.931,1.931,0,0,1,.752,1.316l1.4,5.6a7.041,7.041,0,0,1,2.066-7.469" transform="translate(-128.008 -0.004)" fill="#945661"/>
      <path id="Trazado_155397" data-name="Trazado 155397" d="M180.746,64.728a.079.079,0,0,0,.076-.059A62.794,62.794,0,0,0,182.8,46.3a1.313,1.313,0,0,0,.186.142,3.98,3.98,0,0,0,.753.353,17.285,17.285,0,0,0,1.682.494c.157.04.281.071.352.093a24.112,24.112,0,0,0,5.326.971,30.532,30.532,0,0,0,5.483-.179c1.8-.205,3.625-.526,5.387-.836,1.015-.179,2.064-.363,3.1-.525a3.11,3.11,0,0,1,1.866.1,1.256,1.256,0,0,1,.642.825.777.777,0,0,1-.132.667.079.079,0,1,0,.123.1.931.931,0,0,0,.163-.8,1.419,1.419,0,0,0-.726-.932,3.233,3.233,0,0,0-1.96-.112c-1.042.162-2.092.347-3.108.526-1.76.31-3.579.63-5.378.835a30.376,30.376,0,0,1-5.455.178,23.955,23.955,0,0,1-5.291-.965c-.074-.022-.2-.054-.358-.094a17.16,17.16,0,0,1-1.666-.489c-.86-.318-1-.553-1.007-.665a.079.079,0,0,0-.157.009,62.63,62.63,0,0,1-1.964,18.639.079.079,0,0,0,.056.1Z" transform="translate(-134.555 -37.218)" fill="#fff"/>
      <path id="Trazado_155398" data-name="Trazado 155398" d="M196.437,34.339c.626,0,1.273-.029,1.945-.088a41.732,41.732,0,0,0,6.039-1.076l.23-.056a29.35,29.35,0,0,1,3.987-.772,10.541,10.541,0,0,1,1.975-.022,7.257,7.257,0,0,1,1.91.422.079.079,0,0,0,.055-.147,7.412,7.412,0,0,0-1.951-.431,10.7,10.7,0,0,0-2,.023,29.468,29.468,0,0,0-4.009.775l-.23.056a41.585,41.585,0,0,1-6.016,1.072,17.661,17.661,0,0,1-5.99-.4.079.079,0,0,0-.039.152A16.341,16.341,0,0,0,196.437,34.339Z" transform="translate(-141.616 -26.05)" fill="#fff"/>
      <path id="Trazado_155399" data-name="Trazado 155399" d="M172.688,272.117a18.761,18.761,0,0,0,15.261-9.776A16.254,16.254,0,0,0,189,259.847l2.125.654a12.4,12.4,0,0,1-.859,2.249c-1.664,3.464-6.216,9.825-17.422,11-.3.031-.595.066-.9.09l.6-1.363Z" transform="translate(-116.255 -210.656)" fill="#e8e6d9"/>
      <path id="Trazado_155400" data-name="Trazado 155400" d="M188.237,259.873l8.383-9.717-.938-4.127,7.445,2.32A15.407,15.407,0,0,1,202,250.956a17.769,17.769,0,0,1-13.758,8.916" transform="translate(-131.348 -199.453)" fill="#e8e6d9"/>
      <path id="Trazado_155401" data-name="Trazado 155401" d="M274.761,260.8c.328.642.684,1.283,1.068,1.914a26.662,26.662,0,0,0,4.74,5.865,17.719,17.719,0,0,0,10.058,4.268c.345.033.689.051,1.034.062l.249.526.554,1.171c-.332-.025-.649-.062-.969-.1-11.762-1.252-16.166-8.232-17.6-11.521a11.4,11.4,0,0,1-.615-1.716Z" transform="translate(-236.783 -211.433)" fill="#e8e6d9"/>
      <path id="Trazado_155402" data-name="Trazado 155402" d="M284.948,246.5a30.1,30.1,0,0,1-3.66-4.687c-.433-.679-.842-1.375-1.212-2.073l7.5-4.531v5.558l7.926,10.37c-.183-.011-.366-.022-.549-.04a16.362,16.362,0,0,1-10.008-4.6" transform="translate(-241.112 -190.683)" fill="#e8e6d9"/>
      <path id="Trazado_155403" data-name="Trazado 155403" d="M34.3,543.55l.167.982c-5.764.7-11.552,1.252-17.341,1.775l0-1c5.732-.516,11.465-1.061,17.172-1.755" transform="translate(69.701 -440.652)" fill="#c1413c"/>
      <path id="Trazado_155404" data-name="Trazado 155404" d="M243.761,333.224c.32.034.638.071.969.1.309-.024.6-.059.9-.09,1.934,7.849,4.215,15.719,5.967,23.589a6.929,6.929,0,0,1,.242,2.433,6.349,6.349,0,0,1-.795,2.073l-4.1,7.76a39.015,39.015,0,0,1-3.862-14.3c-1.67,6.321-4.631,8.447-4.631,8.447-2.514-7.9-4.08-7.352-1.9-12.109,1.589-3.474,5.316-13.009,7.211-17.9" transform="translate(-189.05 -270.142)" fill="#c1413c"/>
      <path id="Trazado_155405" data-name="Trazado 155405" d="M185.357,260.52a30.094,30.094,0,0,0,3.66,4.687,16.362,16.362,0,0,0,10.008,4.6c.183.018.366.028.549.04q.662.041,1.322.027l.24-.005c.312-.011.624-.028.934-.057a17.768,17.768,0,0,0,13.758-8.916,15.427,15.427,0,0,0,1.132-2.608l.961.3a16.237,16.237,0,0,1-1.047,2.494,18.762,18.762,0,0,1-15.261,9.776c-.079,0-.158.011-.237.015-.289.013-.579.017-.87.016-.149,0-.3-.005-.448-.01-.345-.011-.689-.029-1.034-.062a17.722,17.722,0,0,1-10.058-4.268,26.674,26.674,0,0,1-4.74-5.865c-.384-.631-.74-1.272-1.068-1.914l.987-.314c.37.7.778,1.393,1.212,2.073" transform="translate(-145.18 -209.39)" fill="#c1413c"/>
      <path id="Trazado_155406" data-name="Trazado 155406" d="M270.62,324.676c.079,0,.158-.01.237-.015l-.155.354-.6,1.363-.553-1.171-.249-.526c.149,0,.3.009.448.01.29,0,.58,0,.87-.016" transform="translate(-214.424 -263.201)" fill="#2c3254"/>
      <path id="Trazado_155407" data-name="Trazado 155407" d="M518.516,512h.034l-.034.005Z" transform="translate(-509.295 -415.071)" fill="#2c3254"/>
      <path id="Trazado_155408" data-name="Trazado 155408" d="M21.721,307.3c1.2-2.711.623-16.267-.207-28.693,1.381-1.626,2.769-2.819,4.012-3.1,2.777-1.115,9.435-2.263,15.548-3.149,1.435,3.289,5.838,10.269,17.6,11.521-1.9,4.894-5.622,14.429-7.211,17.9-2.176,4.756-.61,4.212,1.9,12.109,0,0,2.961-2.126,4.631-8.447a39.015,39.015,0,0,0,3.862,14.3l4.1-7.76a6.349,6.349,0,0,0,.795-2.073,6.929,6.929,0,0,0-.242-2.433c-1.752-7.871-4.033-15.741-5.967-23.589,11.206-1.171,15.758-7.531,17.422-11,4.478.8,9.045,1.681,11.612,2.357h0c.546.144,1,.278,1.347.4,9.319,3.17,11.543,15.646,17.04,48.047-5.707.693-11.439,1.239-17.172,1.755l0,1c5.789-.523,11.577-1.075,17.341-1.775q.263,1.55.536,3.159l-6.389.59-11.5,1.061L90.743,345.6,90.7,360.924,88.533,512.1H71.282s-7.494-126.651-12.7-126.651S43.825,512.1,43.825,512.1H25.978l-.82-151.178.209-48.657a18.772,18.772,0,0,1-11.069,5.3c3.2-1.006,5.747-6.467,7.423-10.264" transform="translate(-3.963 -220.804)" fill="#2c3254"/>
      <path id="Trazado_155409" data-name="Trazado 155409" d="M11.538,568.539l4.749,49.226a38.949,38.949,0,0,1,3.334,7.369c1.742,5.431,1.21,12.974-1.4,12.83-3.366-.186-.227-12.9-4.311-13.413-2.452-.31,1.447,5.589-1.585,5.967s-3.8-9.79-3.8-9.79L0,585.709.043,569.6Z" transform="translate(86.779 -460.91)" fill="#f59489"/>
      <path id="Trazado_155410" data-name="Trazado 155410" d="M467.8,162.412c1.316-8.969,6.241-46.922,6.241-46.922s-2.668-7.6-2.232-10.428,1.935-5.323,2.564-5.643c1.706-.865,7.653-.508,8.767.63.954.974,3.979,5.951,3.046,8.411s-2.96,7.45-2.96,7.45.992,10.565,1.763,22.1c.83,12.426,1.4,25.982.208,28.693-1.676,3.8-4.221,9.258-7.422,10.264a3.418,3.418,0,0,1-1.081.162h-.034a4.38,4.38,0,0,1-2.778-1.253c-5.051-4.452-7.4-4.5-6.082-13.469" transform="translate(-467.44 -80.209)" fill="#f59489"/>
      <path id="Trazado_155411" data-name="Trazado 155411" d="M487.333,122.886c1.4.069,2.8.123,4.192.207.288.017.585.054.873.044.422-.015.508-.011.742-.4.287-.477.074-.67-.137-1.16-.253-.588.612-1.1.867-.507.512,1.191.952,2.5-.675,2.975a5.814,5.814,0,0,1-1.919.042l-.624-.031c1.086,1.415.991,3.455.706,5.286-.1.637-1.067.366-.969-.267.282-1.812.417-4.044-1.325-5.1l-1.735-.086c-.643-.032-.647-1.036,0-1" transform="translate(-479.09 -97.936)" fill="#f3786a"/>
      <path id="Trazado_155412" data-name="Trazado 155412" d="M108.028,363.483q.125,16.078.909,32.138c.031.646-.973.645-1,0q-.784-16.059-.909-32.138a.5.5,0,0,1,1,0" transform="translate(-21.784 -294.28)" fill="#192045"/>
      <path id="Trazado_155413" data-name="Trazado 155413" d="M46.809,1538.75H58.984s17.063,5.023,17.063,11.3c0,3.277-4,3.392-17.191,3.392s-12.047-.627-12.047-14.69" transform="translate(22.51 -1247.452)" fill="#1f1f1f"/>
      <path id="Trazado_155414" data-name="Trazado 155414" d="M397.51,1538.75H385.335s-17.063,5.023-17.063,11.3c0,3.277,3.494,3.392,16.689,3.392s12.549-.627,12.549-14.69" transform="translate(-359.818 -1247.452)" fill="#1f1f1f"/>
      <path id="Trazado_155415" data-name="Trazado 155415" d="M532.478,457.836a10.532,10.532,0,0,0,2.635,3.4c.492.421-.221,1.129-.71.71a11.235,11.235,0,0,1-2.792-3.6c-.284-.578.582-1.088.867-.507" transform="translate(-528.492 -370.957)" fill="#f3786a"/>
      <path id="Trazado_155416" data-name="Trazado 155416" d="M35.138,830.241l-3.3.873a.5.5,0,0,1-.267-.969l3.3-.873a.5.5,0,0,1,.267.969" transform="translate(66.011 -672.269)" fill="#f3786a"/>
      <path id="Trazado_155417" data-name="Trazado 155417" d="M187.676,736.7c-18.034-.911-36.169-.638-54.219-.379a.5.5,0,0,1,0-1c18.05-.259,36.185-.532,54.219.379.643.032.647,1.037,0,1" transform="translate(-105.918 -595.917)" fill="#192045"/>
      <path id="Trazado_155418" data-name="Trazado 155418" d="M430.229,350.268l-2.184,19.317c-.072.635-1.077.642-1,0l2.184-19.317c.072-.635,1.077-.642,1,0" transform="translate(-403.661 -283.571)" fill="#192045"/>
      <path id="Trazado_155419" data-name="Trazado 155419" d="M268.571,480.872a95.589,95.589,0,0,0,24.034,36.222c.471.444-.24,1.154-.71.71A96.7,96.7,0,0,1,267.6,481.139c-.226-.607.745-.868.969-.267" transform="translate(-236 -389.563)" fill="#192045"/>
      <path id="Trazado_155420" data-name="Trazado 155420" d="M260.052,494.705a54.327,54.327,0,0,0,16.668,14.352c.565.315.059,1.183-.507.867a55.5,55.5,0,0,1-17.028-14.713c-.394-.512.478-1.013.867-.507" transform="translate(-218.599 -400.883)" fill="#192045"/>
      <path id="Trazado_155421" data-name="Trazado 155421" d="M184.09,860.373a28.478,28.478,0,0,0,8.068,5.094c.588.245.33,1.217-.267.969a29.949,29.949,0,0,1-8.511-5.352c-.483-.432.229-1.14.71-.71" transform="translate(-119.761 -697.389)" fill="#192045"/>
      <path id="Trazado_155422" data-name="Trazado 155422" d="M160.25,888.967a164.861,164.861,0,0,0,12.113,23.439c.343.55-.526,1.055-.867.507a166.436,166.436,0,0,1-12.215-23.678c-.249-.6.722-.855.969-.267" transform="translate(-95.174 -720.41)" fill="#192045"/>
      <path id="Trazado_155423" data-name="Trazado 155423" d="M145.505,1122.148a4.772,4.772,0,0,1-1.578,4.772c-.494.411-1.208-.3-.71-.71a3.768,3.768,0,0,0,1.319-3.794c-.144-.629.825-.9.969-.267" transform="translate(-65.298 -909.424)" fill="#192045"/>
      <path id="Trazado_155424" data-name="Trazado 155424" d="M410.288,1120.5a25.19,25.19,0,0,1-4.049-4.667c-.362-.537.508-1.041.867-.507a24.128,24.128,0,0,0,3.892,4.464c.482.433-.231,1.142-.71.71" transform="translate(-380.632 -904.003)" fill="#192045"/>
      <path id="Trazado_155425" data-name="Trazado 155425" d="M361.336,1202.008q-2.751,17.148-5.085,34.36c-.086.638-1.054.366-.969-.267q2.334-17.21,5.085-34.359c.1-.637,1.07-.367.969.267" transform="translate(-321.186 -973.947)" fill="#192045"/>
      <path id="Trazado_155426" data-name="Trazado 155426" d="M272.319,355.522a82.489,82.489,0,0,1-1.165,14.463c-.108.636-1.076.366-.968-.267a80.918,80.918,0,0,0,1.129-14.2.5.5,0,0,1,1,0" transform="translate(-216.055 -287.826)" fill="#b92a24"/>
      <rect id="Rect치ngulo_41376" data-name="Rect치ngulo 41376" width="107.414" height="305.989" fill="none"/>
    </g>
  </g>
</svg>
