<svg xmlns="http://www.w3.org/2000/svg" xmlns:xlink="http://www.w3.org/1999/xlink" width="1328" height="891.981" viewBox="0 0 1328 891.981">
  <defs>
    <clipPath id="clip-path">
      <rect id="Rectángulo_41253" data-name="Rectángulo 41253" width="1328" height="639" rx="13" fill="#6b8dfc"/>
    </clipPath>
  </defs>
  <g id="Grupo_166663" data-name="Grupo 166663" transform="translate(-136 -6875)">
    <path id="Trazado_153803" data-name="Trazado 153803" d="M13.923,0H1314.077C1321.767,0,1328,8.455,1328,18.886V873.1c0,10.43-6.233,18.885-13.923,18.885H13.923C6.233,891.981,0,883.526,0,873.1V18.886C0,8.455,6.233,0,13.923,0Z" transform="translate(136 6875)" fill="#ffdfe0"/>
    <g id="Enmascarar_grupo_164" data-name="Enmascarar grupo 164" transform="translate(136 7127.604)" clip-path="url(#clip-path)">
      <g id="Grupo_160414" data-name="Grupo 160414" transform="translate(705.768 71.552)">
        <g id="Grupo_82657" data-name="Grupo 82657" transform="translate(0 26.816)" style="isolation: isolate">
          <path id="Trazado_115694" data-name="Trazado 115694" d="M245.564,598.206c56.062,55.756,114,109.465,173.039,162.224-25.529-56.1-53.049-111.3-77.286-167.98C313.844,528.189,281.9,440.6,316.543,373.192c78.938-153.64,278.484-2.884,351.919,74.451,7.82,8.245,15.29,16.851,22.853,25.356-26.239-62.451-49.86-126.621-43.623-194.094,8.576-92.772,96.078-115.029,171.41-71.917C900,253.266,964.971,333.348,1019.218,406.08c46.078,61.773-59.355,120.582-105.073,59.692a809.994,809.994,0,0,0-82.138-93.383q6.545,11.655,13.23,23.264c29.474,51.176,58.587,102.555,82.6,156.422,45.986,103.131,114,245.914,56.144,354.4-29.16,54.67-97.533,60.223-149.011,37.977-69.2-29.9-117.128-95.917-163.334-151.785-48.231-58.334-90.714-120.277-135.362-181.145-18.653-25.435-37.293-51.232-58.657-74.62-.489-.543-1-1.04-1.489-1.572l.535,1.64c11.857,35.829,27.1,70.21,42.541,104.681,28.718,64.136,65.767,131.643,76.286,201.422,9.3,61.705-16.407,130.863-92.762,126.384-71.783-4.207-129.311-71.408-177.3-116.285-58.11-54.354-115.185-109.782-172.27-165.153C93.551,630.2,186.674,539.657,245.564,598.206Z" transform="translate(-122.309 -174.503)" fill="#ff898d"/>
          <path id="Trazado_115695" data-name="Trazado 115695" d="M520.232,991.3c28.171,0,52.083-9.613,69.479-28.025,24.18-25.593,34.628-67.281,27.961-111.512-8.692-57.667-34.571-112.9-59.588-166.307-5.993-12.791-11.927-25.458-17.535-37.989-5.318-11.886-10.915-24.372-16.465-37.287q5.1,6.9,10.088,13.73l3.3,4.512c11.6,15.811,23.051,31.689,34.489,47.568,32.127,44.56,65.348,90.646,101.279,134.1,5.248,6.345,10.519,12.825,15.848,19.373,41.2,50.644,87.9,108.039,151.827,135.658,56.993,24.6,131.638,17.711,164.056-43.1,58.261-109.239-4.643-249.8-50.582-352.439l-5.213-11.671c-13.509-30.321-28.659-59.918-44.729-89.379q5.586,7.074,10.961,14.25c28.264,37.638,77.763,37.072,109.309,14.77,26.088-18.446,40.726-52.736,14.592-87.773C981.4,332.14,916.646,253.9,835.672,207.576c-44.938-25.707-94.124-29.88-131.6-11.162-33,16.478-53.351,49.083-57.3,91.822-4.631,50.124,6.5,98.1,22.644,143.868C609.666,375.364,499.159,294.9,410.5,307.089c-40.726,5.621-72.248,29.642-93.693,71.386-35.28,68.649-7.447,154.115,24.435,228.656,15.173,35.489,31.86,70.888,48,105.133l5.713,12.113c-48.022-43.768-90.982-84.539-130.4-123.738v.011c-19.49-19.4-44.252-26.521-69.653-20.108-27.892,7.057-51.734,30.049-59.321,57.238-6.958,24.937.152,49.3,20.037,68.581l6.493,6.288c54.049,52.431,109.937,106.649,165.929,159,6.9,6.458,13.986,13.368,21.294,20.493C392.806,934.5,446.9,987.221,512.7,991.077,515.24,991.236,517.753,991.3,520.232,991.3ZM486.848,534.84a11.231,11.231,0,0,0-5.632,1.459c-4.678,2.692-7.168,7.815-5.492,12.836l.547,1.651c12.427,37.57,28.636,73.772,42.937,105.71,5.667,12.655,11.659,25.435,17.7,38.328,24.342,51.978,49.523,105.721,57.737,160.222,5.574,37-2.885,72.618-22.073,92.93-14.231,15.064-33.872,21.884-58.459,20.527-56.97-3.348-105.492-50.622-148.3-92.342-7.424-7.227-14.626-14.25-21.632-20.81C288.338,803.136,232.52,749,178.541,696.634l-6.481-6.288c-17.594-17.055-17.326-34.777-14.021-46.641,5.387-19.305,22.958-36.269,42.716-41.269,12.043-3.054,29.975-3.076,47.149,14.013v.011c50.931,50.633,107.68,103.833,173.5,162.631a11.88,11.88,0,0,0,14.65.86,11.111,11.111,0,0,0,3.863-13.763c-9.646-21.205-19.583-42.275-29.521-63.345-16.046-34.065-32.651-69.282-47.661-104.4-29.87-69.825-56.2-149.365-25.111-209.86,18.071-35.2,42.983-54.523,76.158-59.092,82.65-11.377,198.882,75.163,256.795,136.167,6.179,6.492,12.125,13.232,18.082,19.972l4.5,5.1a11.847,11.847,0,0,0,14.894,2.251,11.139,11.139,0,0,0,4.689-13.911c-24.983-59.488-48.871-123.07-42.8-188.824,3.258-35.229,18.734-60.721,44.752-73.715,30.347-15.155,71.154-11.208,109.169,10.529,77.286,44.231,140.167,120.333,196.6,195.994,17.826,23.908,6.819,44.718-9.437,56.208-22.015,15.551-56.411,17.383-76.821-9.817a825.742,825.742,0,0,0-83.291-94.706,11.88,11.88,0,0,0-15.208-1.086,11.122,11.122,0,0,0-3.258,14.488q6.58,11.705,13.3,23.365c29.835,51.82,58.576,102.7,82.069,155.393l5.225,11.694c44.077,98.472,104.421,233.338,51.268,333.009-25.82,48.416-86.933,53.143-133.954,32.843C791.688,919.1,748.809,866.4,707.35,815.43c-5.364-6.582-10.682-13.119-15.976-19.509-35.443-42.875-68.431-88.644-100.348-132.909q-17.21-23.886-34.594-47.715l-3.3-4.5c-17.512-23.9-35.618-48.6-56.132-71.069l-1.035-1.1A12.883,12.883,0,0,0,486.848,534.84Zm-230.626,73.7h0Z" transform="translate(-132.979 -184.841)" fill="#ff898d"/>
          <path id="Trazado_115696" data-name="Trazado 115696" d="M160.091,228.517c42.867,83.736,67.058,181.9,29.393,271.9-5.562,13.311-28.078,7.487-22.434-6.017C202.4,409.9,180.314,318.688,140,239.928,133.34,226.945,153.412,215.466,160.091,228.517Z" transform="translate(645.813 206.145)" fill="#ff898d"/>
          <path id="Trazado_115697" data-name="Trazado 115697" d="M151.171,300.211c.2-.022.384-.079.57-.113.326-.611.617-1.278.721-1.459l.058-.068c.023-.09-.012-.023.023-.158,1.5-5.055,2.571-10.167,3.712-15.313q3.944-17.9,7.9-35.795c1.28-5.791,8.576-9.7,14.312-7.894a11.537,11.537,0,0,1,8.134,13.911q-4.468,20.238-8.948,40.488c-2.479,11.23-6.446,25.967-20.293,28.217-5.981.973-12.823-1.527-14.312-7.906C141.769,308.66,144.747,301.252,151.171,300.211Z" transform="translate(619.395 373.161)" fill="#ff898d"/>
          <path id="Trazado_115698" data-name="Trazado 115698" d="M223.292,203.033c13.207-6.854,24.971,12.667,11.741,19.531-18.269,9.477-23.842,28.772-24.564,47.726-.838,21.522,1.652,43.644,5.248,64.838a421.836,421.836,0,0,0,40.389,121.487c6.644,12.995-13.416,24.462-20.1,11.411a443.391,443.391,0,0,1-45.171-143.077C185.359,284.19,178.8,226.115,223.292,203.033Z" transform="translate(34.975 -12.102)" fill="#ff898d"/>
        </g>
        <g id="Grupo_82660" data-name="Grupo 82660" transform="translate(27.594 0)">
          <g id="Grupo_82659" data-name="Grupo 82659">
            <g id="Grupo_82658" data-name="Grupo 82658">
              <path id="Trazado_115699" data-name="Trazado 115699" d="M243.186,595.839c56.062,55.756,114,109.465,173.051,162.212-25.53-56.084-53.06-111.3-77.3-167.969-27.473-64.261-59.4-151.853-24.773-219.258,78.939-153.64,278.485-2.9,351.919,74.451,7.831,8.233,15.29,16.84,22.853,25.356-26.228-62.451-49.849-126.622-43.623-194.094,8.576-92.772,96.078-115.029,171.41-71.929,80.905,46.29,145.869,126.373,200.128,199.1,46.078,61.773-59.367,120.582-105.085,59.692A810.892,810.892,0,0,0,829.64,370.01q6.545,11.654,13.218,23.275c29.474,51.175,58.587,102.555,82.6,156.41,46,103.143,114,245.914,56.144,354.406-29.16,54.67-97.521,60.224-149.011,37.978-69.2-29.9-117.128-95.916-163.334-151.785-48.231-58.334-90.7-120.277-135.35-181.145-18.664-25.435-37.305-51.232-58.657-74.631-.489-.532-1.012-1.029-1.5-1.572l.535,1.651c11.857,35.828,27.112,70.209,42.541,104.681C545.559,703.4,582.6,770.91,593.115,840.7c9.309,61.7-16.407,130.862-92.762,126.384-71.771-4.207-129.3-71.408-177.286-116.285-58.122-54.353-115.2-109.793-172.283-165.164C91.185,627.833,184.307,537.289,243.186,595.839Z" transform="translate(-119.936 -172.134)" fill="#ffdfe0"/>
              <path id="Trazado_115700" data-name="Trazado 115700" d="M517.867,988.922c28.171,0,52.071-9.6,69.467-28.014,24.18-25.593,34.629-67.28,27.961-111.523-8.68-57.656-34.559-112.892-59.588-166.307-5.981-12.791-11.915-25.446-17.535-37.977-5.318-11.886-10.915-24.372-16.465-37.287,3.4,4.592,6.761,9.184,10.089,13.73l3.3,4.5c11.6,15.811,23.051,31.7,34.5,47.568,32.115,44.571,65.336,90.657,101.268,134.1q7.872,9.534,15.848,19.385c41.2,50.633,87.9,108.029,151.827,135.658,57,24.6,131.638,17.7,164.056-43.112,58.261-109.228-4.643-249.793-50.57-352.439l-5.224-11.66c-13.509-30.321-28.659-59.918-44.717-89.379q5.568,7.074,10.961,14.238c28.252,37.65,77.752,37.084,109.3,14.782,26.088-18.446,40.726-52.736,14.592-87.773-57.913-77.64-122.667-155.879-203.63-202.214-44.95-25.7-94.124-29.868-131.615-11.151-33,16.478-53.339,49.072-57.3,91.811-4.631,50.124,6.5,98.11,22.655,143.869-59.762-56.729-170.258-137.2-258.912-125-40.726,5.62-72.26,29.642-93.7,71.385-35.269,68.649-7.435,154.1,24.436,228.656,15.174,35.478,31.859,70.888,48,105.122l5.713,12.112c-48.022-43.757-90.982-84.528-130.4-123.726h0c-19.49-19.4-44.252-26.51-69.653-20.1-27.892,7.057-51.734,30.049-59.309,57.237-6.97,24.937.14,49.287,20.025,68.569l6.493,6.3c54.049,52.431,109.937,106.637,165.929,159,6.9,6.458,13.987,13.368,21.306,20.493,43.46,42.354,97.556,95.079,163.358,98.936C512.875,988.854,515.377,988.922,517.867,988.922ZM484.484,532.458a11.213,11.213,0,0,0-5.632,1.47c-4.69,2.692-7.18,7.8-5.5,12.836l.547,1.651c12.427,37.559,28.636,73.772,42.936,105.71,5.667,12.644,11.66,25.424,17.7,38.328,24.354,51.979,49.534,105.721,57.749,160.211,5.574,37-2.886,72.618-22.085,92.942-14.219,15.053-33.873,21.884-58.459,20.526-56.97-3.348-105.492-50.621-148.289-92.342-7.424-7.238-14.638-14.261-21.643-20.809-55.841-52.216-111.659-106.355-165.638-158.718l-6.482-6.3c-17.582-17.044-17.326-34.766-14.01-46.641,5.388-19.294,22.946-36.27,42.716-41.257,12.032-3.053,29.963-3.076,47.137,14.013h0c50.931,50.633,107.679,103.833,173.5,162.642a11.882,11.882,0,0,0,14.65.859,11.1,11.1,0,0,0,3.863-13.764c-9.646-21.205-19.583-42.275-29.509-63.356-16.058-34.053-32.651-69.271-47.673-104.387C330.5,526.25,304.161,446.71,335.252,386.2c18.082-35.184,42.995-54.512,76.157-59.092,82.65-11.366,198.894,75.174,256.807,136.167,6.167,6.5,12.113,13.243,18.071,19.973l4.515,5.112a11.828,11.828,0,0,0,14.882,2.251,11.154,11.154,0,0,0,4.7-13.922c-24.994-59.477-48.883-123.07-42.809-188.813,3.258-35.24,18.734-60.732,44.752-73.727,30.358-15.143,71.154-11.2,109.169,10.541,77.3,44.22,140.167,120.333,196.6,195.994,17.838,23.908,6.819,44.706-9.437,56.2-22.015,15.562-56.411,17.394-76.821-9.806a823.7,823.7,0,0,0-83.29-94.706,11.865,11.865,0,0,0-15.2-1.086,11.1,11.1,0,0,0-3.258,14.477q6.58,11.722,13.288,23.377c29.846,51.82,58.576,102.7,82.08,155.393l5.225,11.694c44.065,98.472,104.41,233.338,51.256,333-25.82,48.427-86.932,53.155-133.953,32.854-58.68-25.345-101.559-78.059-143.018-129.019q-8.046-9.89-15.965-19.52c-35.455-42.863-68.443-88.633-100.36-132.9-11.473-15.924-22.958-31.859-34.594-47.726l-3.3-4.49c-17.512-23.9-35.618-48.608-56.12-71.069l-1.047-1.1A12.867,12.867,0,0,0,484.484,532.458ZM253.858,606.174h0Z" transform="translate(-130.608 -182.469)" fill="#fc5f65"/>
            </g>
            <path id="Trazado_115701" data-name="Trazado 115701" d="M157.716,226.148c42.879,83.736,67.058,181.891,29.4,271.9-5.574,13.3-28.089,7.487-22.446-6.017,35.362-84.516,13.277-175.716-27.054-254.476C130.976,224.565,151.037,213.1,157.716,226.148Z" transform="translate(648.183 208.515)" fill="#fc5f65"/>
            <path id="Trazado_115702" data-name="Trazado 115702" d="M148.8,297.84c.2-.023.384-.079.57-.113.326-.622.628-1.278.733-1.459l.047-.068c.023-.091-.012-.034.023-.17,1.5-5.044,2.583-10.167,3.712-15.3q3.962-17.9,7.9-35.794c1.28-5.79,8.576-9.7,14.324-7.894a11.534,11.534,0,0,1,8.122,13.911l-8.936,40.477c-2.49,11.242-6.458,25.978-20.3,28.228-5.981.962-12.823-1.526-14.312-7.905C139.4,306.288,142.387,298.88,148.8,297.84Z" transform="translate(621.762 375.533)" fill="#fc5f65"/>
            <path id="Trazado_115703" data-name="Trazado 115703" d="M220.921,200.662c13.207-6.854,24.982,12.667,11.741,19.531-18.269,9.477-23.831,28.771-24.564,47.715-.838,21.522,1.652,43.655,5.248,64.849a421.83,421.83,0,0,0,40.389,121.487c6.656,12.994-13.416,24.462-20.1,11.411a443.848,443.848,0,0,1-45.171-143.077C182.987,281.808,176.425,223.733,220.921,200.662Z" transform="translate(37.342 -9.73)" fill="#fc5f65"/>
          </g>
        </g>
      </g>
    </g>
  </g>
</svg>
