<svg xmlns="http://www.w3.org/2000/svg" xmlns:xlink="http://www.w3.org/1999/xlink" width="153" height="177" viewBox="0 0 153 177">
  <defs>
    <clipPath id="clip-path">
      <rect id="Rectángulo_41363" data-name="Rectángulo 41363" width="153" height="177" fill="#fff" stroke="#707070" stroke-width="1"/>
    </clipPath>
    <clipPath id="clip-path-2">
      <rect id="Rectángulo_41375" data-name="Rectángulo 41375" width="78.609" height="268.875" fill="none"/>
    </clipPath>
  </defs>
  <g id="Enmascarar_grupo_207" data-name="Enmascarar grupo 207" clip-path="url(#clip-path)">
    <g id="Grupo_166329" data-name="Grupo 166329" transform="translate(37.195 4.684)">
      <path id="Trazado_155335" data-name="Trazado 155335" d="M157.663,703.031l-3,16.068-8.514-1.439.24-1.679,1.559-11.751Z" transform="translate(-130.163 -457.18)" fill="#9fb6c4"/>
      <g id="Grupo_166330" data-name="Grupo 166330">
        <g id="Grupo_166329-2" data-name="Grupo 166329" clip-path="url(#clip-path-2)">
          <path id="Trazado_155336" data-name="Trazado 155336" d="M98.023,734.35s2.958,4.716,9.433.16c0,0,18.946,6.875,19.186,9.273s-1.2,2.638-1.2,2.638l-28.059-.24Z" transform="translate(-82.115 -477.546)" fill="#37374f"/>
          <path id="Trazado_155337" data-name="Trazado 155337" d="M63.265,705.432l1.079,15.109-9.713-1.319.24-1.679-.959-10.073Z" transform="translate(-4.588 -458.741)" fill="#9fb6c4"/>
          <path id="Trazado_155338" data-name="Trazado 155338" d="M30.762,406.5c-1.06-.321-1.422-1.61-1.616-2.7a3.327,3.327,0,0,1-.388,1.724,1.147,1.147,0,0,1-1.541.424,1.647,1.647,0,0,1-.5-.9,62.163,62.163,0,0,1-2.552-19.263,1.448,1.448,0,0,1,.21-.866,1.467,1.467,0,0,1,.769-.422l6.43-1.97c.15,7.058,3.269,13.884,2.84,20.93-.527.161-.937-.456-1.143-.968l-2.239-5.547-.273,9.556" transform="translate(35.708 -248.76)" fill="#fca19f"/>
          <path id="Trazado_155339" data-name="Trazado 155339" d="M92.689,359.079l2.4,10.552-.16,116.874-14.869.48L75.581,381.3l-2.4-.16L62.151,486.826H46.483l2.4-59.956-.64-64.433,9.913-6.875Z" transform="translate(-32.733 -231.221)" fill="#37374f"/>
          <path id="Trazado_155340" data-name="Trazado 155340" d="M105,378.867l12.151-12.791,13.27.16" transform="translate(-88.536 -238.059)" fill="none" stroke="#b5afe2" stroke-linecap="round" stroke-linejoin="round" stroke-width="0.777"/>
          <path id="Trazado_155341" data-name="Trazado 155341" d="M46.483,388.438l.959-1.918.16-19.985,11.991.32,6.4,9.913" transform="translate(-3.634 -238.356)" fill="none" stroke="#b5afe2" stroke-linecap="round" stroke-linejoin="round" stroke-width="0.777"/>
          <path id="Trazado_155342" data-name="Trazado 155342" d="M104.557,83.643l-1.581,15.168s1.166,9.787,9.5,7.82,6.932-7.719,6.932-7.719l-1.018-2.488-.783-8.755Z" transform="translate(-76.903 -54.393)" fill="#fca19f"/>
          <path id="Trazado_155343" data-name="Trazado 155343" d="M106.566,87.113l.226-2.171,3.979.758,3.846,1.186,5.485,3.953.427,4.771c-2.77,1.535-13.1,1.535-13.964-8.5" transform="translate(-79.186 -55.238)" fill="#f97070"/>
          <path id="Trazado_155344" data-name="Trazado 155344" d="M172.944,421.264a67.322,67.322,0,0,1,.665-10.7,18.44,18.44,0,0,1-2.383,5.877c1.051-5.479,3.777-10.286,4.828-15.765.313-1.632-1.049-3.937-.736-5.569l6.071-1.657c.453-.123,1.021-.215,1.321.147a1.242,1.242,0,0,1,.215.629l2.7,18.254a3.926,3.926,0,0,1-.387,3.058c-1.74-2.161-.883-5.616-2.587-7.806q-.58,6.208-1.16,12.415a3.228,3.228,0,0,1-.958,2.431l-.9-2.638a3.315,3.315,0,0,1-2.262,2.926,41.874,41.874,0,0,1-1.169-10.351l-2.288,7.857c-.14.482-.513,1.087-.977.9" transform="translate(-167.021 -255.786)" fill="#fca19f"/>
          <path id="Trazado_155345" data-name="Trazado 155345" d="M112.771,25.961c.379,6.745-.535,20.307-7.243,21.109-7.058.845-11.079-2.539-13.015-8.962,0,0-3.343,1.788-3.791-3.026-.2-2.123,2.314-1.346,2.314-1.346S84.5,17.017,95.225,14s17.026,2.722,17.546,11.956" transform="translate(-65.257 -8.582)" fill="#fca19f"/>
          <path id="Trazado_155346" data-name="Trazado 155346" d="M124.043,52.812a2.018,2.018,0,0,0,.645.194.548.548,0,0,0,.544-.33,1.072,1.072,0,0,0-.307-1.047,2.584,2.584,0,0,0-1.826-.644,5.505,5.505,0,0,0-1.925.132,2.456,2.456,0,0,0-1.528,1.271.464.464,0,0,0-.06.266.3.3,0,0,0,.246.244.625.625,0,0,0,.314-.077,5.059,5.059,0,0,1,3.9-.009" transform="translate(-88.488 -33.14)" fill="#37374f"/>
          <path id="Trazado_155347" data-name="Trazado 155347" d="M93.857,52.049a1.709,1.709,0,0,1-.56.249.462.462,0,0,1-.5-.282,1.186,1.186,0,0,1,.211-1.068,2.236,2.236,0,0,1,1.579-.8,4.356,4.356,0,0,1,1.712-.035,2.141,2.141,0,0,1,1.427,1.133.5.5,0,0,1,.069.26.293.293,0,0,1-.2.264.494.494,0,0,1-.283-.049,4.057,4.057,0,0,0-3.45.329" transform="translate(-51.615 -32.542)" fill="#37374f"/>
          <path id="Trazado_155348" data-name="Trazado 155348" d="M106.74,73.266a1.3,1.3,0,0,1,.9-.365c.148-.023.3-.046.435-.082a2.026,2.026,0,0,0,.98-.587.635.635,0,0,0,.141-.215.729.729,0,0,0-.092-.557,9.563,9.563,0,0,1-1.34-4.384l-.282-.01a9.771,9.771,0,0,0,1.368,4.517.5.5,0,0,1,.08.339.381.381,0,0,1-.084.119,1.739,1.739,0,0,1-.842.505c-.13.034-.269.055-.408.077a1.513,1.513,0,0,0-1.084.476Z" transform="translate(-67.861 -43.613)" fill="#37374f"/>
          <path id="Trazado_155349" data-name="Trazado 155349" d="M99.761,60.765c-.052-1.141-.569-2.045-1.155-2.019s-1.019.974-.968,2.115.569,2.045,1.155,2.018,1.02-.973.968-2.115" transform="translate(-55.298 -38.202)" fill="#37374f"/>
          <path id="Trazado_155350" data-name="Trazado 155350" d="M125.558,63.126c-.052-1.141-.569-2.045-1.155-2.019s-1.019.973-.968,2.115.569,2.045,1.155,2.018,1.019-.973.968-2.115" transform="translate(-90.117 -39.737)" fill="#37374f"/>
          <path id="Trazado_155351" data-name="Trazado 155351" d="M109.563,88.158a18.889,18.889,0,0,1-8.594.613s1.9,3.175,4.679,2.83,3.915-3.443,3.915-3.443" transform="translate(-66.262 -57.329)" fill="#fff"/>
          <path id="Trazado_155352" data-name="Trazado 155352" d="M143.243,50.985l2.357.626,1.291-11.888h-4.823l-1.427,1.766s.518,8.938,2.6,9.5" transform="translate(-117.464 -25.832)" fill="#945661"/>
          <path id="Trazado_155353" data-name="Trazado 155353" d="M91.064,31.237s12.761-5.9,24-3.12l-.225-3.209s-9.034-4.582-24.27,3.207Z" transform="translate(-68.129 -15.327)" fill="#37374f"/>
          <path id="Trazado_155354" data-name="Trazado 155354" d="M99.994,30.871s3.813,3.507,3.978,3.907-12.2,2.088-17.879,1.388c0,0-3.816-1.586-5.077-2.938s14.2-4.012,14.2-4.012Z" transform="translate(-53.671 -18.999)" fill="#37374f"/>
          <path id="Trazado_155355" data-name="Trazado 155355" d="M83.912,13.436l-5.646-2.67a1.925,1.925,0,0,1-.488-3.149A28.545,28.545,0,0,1,95.373.1c13.011-.91,23.212,4.278,11.847,9.477s-8.29.489-8.29.489Z" transform="translate(-60.507 0)" fill="#37374f"/>
          <path id="Trazado_155356" data-name="Trazado 155356" d="M91.212,28.581a31.648,31.648,0,0,1,24.27-3.207" transform="translate(-68.77 -15.793)" fill="none" stroke="#fff" stroke-linecap="round" stroke-linejoin="round" stroke-width="0.389"/>
          <path id="Trazado_155357" data-name="Trazado 155357" d="M110.116,34.235s-7.851-2.352-19.616,1.828" transform="translate(-63.154 -21.834)" fill="none" stroke="#fff" stroke-linecap="round" stroke-linejoin="round" stroke-width="0.389"/>
          <path id="Trazado_155358" data-name="Trazado 155358" d="M53.022,121.019a22.409,22.409,0,0,0,9.753,7.834l6.4-6.875,2.878,2.079,15.278,6.331a4.291,4.291,0,0,1,2.639,3.691L92.513,174.1l3.837,40.93L89.2,216.509l-1.259-6.655s-6.935.7-10.772-1.219c0,0-16.628,5.436-32.616,3.2l.32,10.233L34,222.385l-6.715-41.25,3.267-44.777a5.875,5.875,0,0,1,3.361-4.889l15.436-7.252Z" transform="translate(-27.281 -78.698)" fill="#37374f"/>
          <path id="Trazado_155359" data-name="Trazado 155359" d="M108.936,128.853a78.6,78.6,0,0,1-9.753-7.834l-2.638,2.558,21.824,44.447-.4-44.128-2.638-1.919Z" transform="translate(-73.522 -78.698)" fill="#fff"/>
          <path id="Trazado_155360" data-name="Trazado 155360" d="M101.99,132.678l5.2,9.753-3.357,7.315,4.077.6-7.554,26.741L77.568,155.5l3-3.6-5.756-1.439-2.038-16.788" transform="translate(-54.745 -86.28)" fill="none" stroke="#b5afe2" stroke-linecap="round" stroke-linejoin="round" stroke-width="0.777"/>
          <line id="Línea_519" data-name="Línea 519" x2="4.277" y2="39.131" transform="translate(45.607 90.805)" fill="none" stroke="#b5afe2" stroke-linecap="round" stroke-linejoin="round" stroke-width="0.777"/>
          <path id="Trazado_155361" data-name="Trazado 155361" d="M172.669,156.223a24.062,24.062,0,0,1,12.311,19.186" transform="translate(-166.753 -101.591)" fill="none" stroke="#b5afe2" stroke-linecap="round" stroke-linejoin="round" stroke-width="0.777"/>
          <path id="Trazado_155362" data-name="Trazado 155362" d="M51.472,152.566a56.118,56.118,0,0,0-2.238,16.148" transform="translate(9.923 -99.213)" fill="none" stroke="#b5afe2" stroke-linecap="round" stroke-linejoin="round" stroke-width="0.777"/>
          <rect id="Rectángulo_41373" data-name="Rectángulo 41373" width="14.469" height="2.718" transform="translate(17.188 107.633)" fill="none" stroke="#b5afe2" stroke-linecap="round" stroke-linejoin="round" stroke-width="0.777"/>
          <rect id="Rectángulo_41374" data-name="Rectángulo 41374" width="7.754" height="2.718" transform="translate(52.362 107.633)" fill="none" stroke="#b5afe2" stroke-linecap="round" stroke-linejoin="round" stroke-width="0.777"/>
          <path id="Trazado_155363" data-name="Trazado 155363" d="M100.51,282.392a1.239,1.239,0,1,0-1.239,1.239A1.239,1.239,0,0,0,100.51,282.392Z" transform="translate(-56.183 -182.833)" fill="none" stroke="#b5afe2" stroke-linecap="round" stroke-linejoin="round" stroke-width="0.777"/>
          <path id="Trazado_155364" data-name="Trazado 155364" d="M97.538,306.166A1.239,1.239,0,1,0,96.3,307.4,1.239,1.239,0,0,0,97.538,306.166Z" transform="translate(-52.171 -198.293)" fill="none" stroke="#b5afe2" stroke-linecap="round" stroke-linejoin="round" stroke-width="0.777"/>
          <path id="Trazado_155365" data-name="Trazado 155365" d="M95.481,327.2a1.239,1.239,0,1,0-1.239,1.239A1.239,1.239,0,0,0,95.481,327.2Z" transform="translate(-49.395 -211.97)" fill="none" stroke="#b5afe2" stroke-linecap="round" stroke-linejoin="round" stroke-width="0.777"/>
          <path id="Trazado_155366" data-name="Trazado 155366" d="M99.45,143.8l3.252.748-.84,3.917,6.8,17.028.2,17.347s-8.114-15.669-8.114-16.148S99.3,149.183,99.3,149.183l-2.757-3.957Z" transform="translate(-64.009 -93.512)" fill="#2773bf"/>
          <path id="Trazado_155367" data-name="Trazado 155367" d="M96.325,148.639a.12.12,0,0,1-.054-.228l9.353-4.636a.11.11,0,0,1,.077-.009l9.353,1.879a.118.118,0,0,1,.094.14.122.122,0,0,1-.141.094l-9.313-1.87-9.316,4.619a.122.122,0,0,1-.054.012" transform="translate(-70.185 -93.488)" fill="#37374f"/>
          <path id="Trazado_155368" data-name="Trazado 155368" d="M92.61,373.6,80.7,372.478s-25.182,5.2-32.616,2.878" transform="translate(-30.815 -242.222)" fill="none" stroke="#b5afe2" stroke-linecap="round" stroke-linejoin="round" stroke-width="0.777"/>
          <line id="Línea_520" data-name="Línea 520" x2="1.918" y2="103.364" transform="translate(57.238 151.601)" fill="none" stroke="#b5afe2" stroke-linecap="round" stroke-linejoin="round" stroke-width="0.777"/>
          <line id="Línea_521" data-name="Línea 521" x1="6.395" y2="105.523" transform="translate(23.823 149.762)" fill="none" stroke="#b5afe2" stroke-linecap="round" stroke-linejoin="round" stroke-width="0.777"/>
          <path id="Trazado_155369" data-name="Trazado 155369" d="M.639,734.35s2.958,4.716,9.433.16c0,0,18.946,6.875,19.186,9.273s-1.2,2.638-1.2,2.638L0,746.181Z" transform="translate(49.324 -477.546)" fill="#37374f"/>
          <path id="Trazado_155370" data-name="Trazado 155370" d="M175.542,391.138l.362,2.174,11.231-.362v-2.536Z" transform="translate(-169.914 -253.885)" fill="#f2b84b"/>
          <path id="Trazado_155371" data-name="Trazado 155371" d="M175.283,379.224l.408,2.4,11.956-.589V378.5Z" transform="translate(-170.334 -246.137)" fill="#f2b84b"/>
          <path id="Trazado_155372" data-name="Trazado 155372" d="M175.857,293.123l1.679.08V282.89L174.5,251.554l3.358-21.265" transform="translate(-160.268 -149.756)" fill="none" stroke="#b5afe2" stroke-linecap="round" stroke-linejoin="round" stroke-width="0.777"/>
          <path id="Trazado_155373" data-name="Trazado 155373" d="M28.246,375.271l6.929-.747-.408-3.6-6.793.883Z" transform="translate(33.652 -241.211)" fill="#f2b84b"/>
          <path id="Trazado_155374" data-name="Trazado 155374" d="M29.5,362.434l6.725-.861-.408-3.6-6.544.792Z" transform="translate(32.153 -232.789)" fill="#f2b84b"/>
          <path id="Trazado_155375" data-name="Trazado 155375" d="M49.413,274.011,47.054,234.52V209.258" transform="translate(12.742 -136.08)" fill="none" stroke="#b5afe2" stroke-linecap="round" stroke-linejoin="round" stroke-width="0.777"/>
          <path id="Trazado_155376" data-name="Trazado 155376" d="M114.629,28.035l4.488-.126-.028-1.008-5.5.154a1.009,1.009,0,0,0,1.036.98" transform="translate(-80.231 -17.494)" fill="#f2b84b"/>
          <path id="Trazado_155377" data-name="Trazado 155377" d="M114.155,30.587l3.62-.1-.028-1.008-4.628.13a1.008,1.008,0,0,0,1.036.98" transform="translate(-78.724 -19.169)" fill="#e09a28"/>
          <path id="Trazado_155378" data-name="Trazado 155378" d="M100.755,27.449l-4.488.126-.028-1.008,5.5-.154a1.009,1.009,0,0,1-.98,1.036" transform="translate(-56.781 -17.176)" fill="#f2b84b"/>
          <path id="Trazado_155379" data-name="Trazado 155379" d="M102.7,30.118l-3.62.1-.028-1.008,4.628-.13a1.009,1.009,0,0,1-.98,1.036" transform="translate(-59.704 -18.912)" fill="#e09a28"/>
          <path id="Trazado_155380" data-name="Trazado 155380" d="M108.54,26.99a1.435,1.435,0,1,1,1.475,1.395,1.435,1.435,0,0,1-1.475-1.395" transform="translate(-70.757 -16.592)" fill="#f2b84b"/>
          <path id="Trazado_155381" data-name="Trazado 155381" d="M203.268,210.013l4.475.363.081-1.005-5.48-.445a1.009,1.009,0,0,0,.924,1.087" transform="translate(-199.974 -135.864)" fill="#f2b84b"/>
          <path id="Trazado_155382" data-name="Trazado 155382" d="M203.077,212.827l3.61.293.081-1.005-4.615-.375a1.009,1.009,0,0,0,.924,1.087" transform="translate(-198.851 -137.694)" fill="#e09a28"/>
          <path id="Trazado_155383" data-name="Trazado 155383" d="M189.433,211.706l-4.475-.363.082-1.005,5.48.445a1.008,1.008,0,0,1-1.087.924" transform="translate(-176.59 -136.782)" fill="#f2b84b"/>
          <path id="Trazado_155384" data-name="Trazado 155384" d="M191.651,214.184l-3.61-.293.081-1.005,4.615.375a1.008,1.008,0,0,1-1.087.924" transform="translate(-179.886 -138.439)" fill="#e09a28"/>
          <path id="Trazado_155385" data-name="Trazado 155385" d="M197.512,210.227a1.436,1.436,0,1,1,1.315,1.547,1.436,1.436,0,0,1-1.315-1.547" transform="translate(-190.838 -135.852)" fill="#f2b84b"/>
          <path id="Trazado_155386" data-name="Trazado 155386" d="M108.978,191.336l4.008-.679.2.408-4.144,1.155Z" transform="translate(-72.69 -123.984)" fill="#f2b84b"/>
        </g>
      </g>
    </g>
  </g>
</svg>
