<svg xmlns="http://www.w3.org/2000/svg" xmlns:xlink="http://www.w3.org/1999/xlink" width="1240" height="229" viewBox="0 0 1240 229">
  <defs>
    <clipPath id="clip-path">
      <rect id="Rectángulo_41345" data-name="Rectángulo 41345" width="1240" height="229" transform="translate(180 4247)" fill="#fff7da"/>
    </clipPath>
    <clipPath id="clip-path-2">
      <rect id="Rectángulo_41347" data-name="Rectángulo 41347" width="1240" height="229" transform="translate(180 2732)" fill="#fff7da"/>
    </clipPath>
    <clipPath id="clip-path-3">
      <rect id="Rectángulo_41346" data-name="Rectángulo 41346" width="1138.502" height="289.928" fill="none"/>
    </clipPath>
  </defs>
  <g id="Grupo_166708" data-name="Grupo 166708" transform="translate(-608 -8761)">
    <g id="Enmascarar_grupo_169" data-name="Enmascarar grupo 169" transform="translate(428 4514)" clip-path="url(#clip-path)">
      <g id="Grupo_166292" data-name="Grupo 166292" transform="translate(348 4193)">
        <g id="BACKGROUND" transform="translate(-170 38.046)">
          <g id="Grupo_166291" data-name="Grupo 166291" transform="translate(0 0)">
            <rect id="Rectángulo_41344" data-name="Rectángulo 41344" width="1246" height="261" transform="translate(0 -0.046)" fill="#c4d1ff"/>
          </g>
        </g>
      </g>
    </g>
    <g id="Enmascarar_grupo_170" data-name="Enmascarar grupo 170" transform="translate(428 6029)" clip-path="url(#clip-path-2)">
      <g id="Grupo_166294" data-name="Grupo 166294" transform="translate(231 2699)">
        <g id="Grupo_166293" data-name="Grupo 166293" clip-path="url(#clip-path-3)">
          <path id="Trazado_154650" data-name="Trazado 154650" d="M334.433,289.928V194.814a1,1,0,0,0-1-1H85.306a1,1,0,0,0-1,1v95.114Z" fill="#d9a389"/>
          <path id="Trazado_154651" data-name="Trazado 154651" d="M265.428,289.928l19.727-68.256a1.7,1.7,0,0,0-1.635-2.174H271.1a1.7,1.7,0,0,0-1.635,1.229l-20,69.2Z" fill="#8498d9"/>
          <path id="Trazado_154652" data-name="Trazado 154652" d="M142.415,289.928h20.171L132.132,228.56a1.7,1.7,0,0,0-1.524-.946H114.237a1.7,1.7,0,0,0-1.525,2.459Z" fill="#ffeae0"/>
          <path id="Trazado_154653" data-name="Trazado 154653" d="M125.583,289.928h16.832l-34.806-70.139a1.7,1.7,0,0,0-1.525-.946H93.052a1.7,1.7,0,0,0-1.524,2.459Z" fill="#8498d9"/>
          <path id="Trazado_154654" data-name="Trazado 154654" d="M162.588,289.928h13.255L151.662,241.2a1.341,1.341,0,0,0-1.2-.744H140.2a1.34,1.34,0,0,0-1.2,1.936Z" fill="#2b244a"/>
          <path id="Trazado_154655" data-name="Trazado 154655" d="M306.928,289.928l19.727-68.256a1.7,1.7,0,0,0-1.635-2.174H308.412a1.7,1.7,0,0,0-1.635,1.229l-20,69.2Z" fill="#ffeae0"/>
          <path id="Trazado_154656" data-name="Trazado 154656" d="M286.776,289.928l22.35-77.332a1.7,1.7,0,0,0-1.635-2.174h-17.8a1.7,1.7,0,0,0-1.635,1.229l-22.624,78.277Z" fill="#2b244a"/>
          <path id="Trazado_154657" data-name="Trazado 154657" d="M91.639,289.928V201.214a.852.852,0,0,1,.851-.851H326.249a.852.852,0,0,1,.851.851v88.714h1.7V201.214a2.555,2.555,0,0,0-2.552-2.552H92.49a2.555,2.555,0,0,0-2.553,2.552v88.714Z" fill="#2b244a"/>
          <path id="Trazado_154658" data-name="Trazado 154658" d="M241.829,193.8a50.855,50.855,0,0,0,10.217-14.314c3.372-6.795,5.938-15.6,4.918-24.27-.762-6.478-3.383-11.828-5.837-16.995-3.145-6.62-6.195-13.528-8.012-21.421S240.677,103.2,241,92.064H227.625c.322,11.134-.3,16.842-2.116,24.735s-4.867,14.8-8.012,21.421c-2.454,5.167-5.075,10.517-5.837,16.995-1.02,8.669,1.546,17.475,4.918,24.27A50.855,50.855,0,0,0,226.795,193.8Z" fill="#dec6bd"/>
          <path id="Trazado_154659" data-name="Trazado 154659" d="M219.054,138.842c5.372.075,10.162,3.174,15.523,3.391,5.222.212,9.685-3.305,14.848-3.391a.852.852,0,0,0,0-1.7c-5.172.087-9.666,3.6-14.848,3.392-5.349-.217-10.13-3.317-15.523-3.392a.852.852,0,0,0,0,1.7" fill="#2b244a"/>
          <path id="Trazado_154660" data-name="Trazado 154660" d="M190.463,194.665H140.928l-14.8-65.762a3.028,3.028,0,0,1,2.955-3.694h43.325a3.013,3.013,0,0,1,2.955,2.365Zm-48.174-1.7h46.046l-14.628-65.016a1.321,1.321,0,0,0-1.295-1.036H129.087a1.327,1.327,0,0,0-1.3,1.618Z" fill="#2b244a"/>
          <path id="Trazado_154661" data-name="Trazado 154661" d="M179.578,186.826H147.916a1.422,1.422,0,0,1-1.387-1.107l-11.642-51.044a1.424,1.424,0,0,1,1.388-1.74h31.661a1.425,1.425,0,0,1,1.388,1.107l11.642,51.044a1.424,1.424,0,0,1-1.388,1.74" fill="#dec6bd"/>
          <path id="Trazado_154662" data-name="Trazado 154662" d="M120.823,194.04q6.522-18.114,13.046-36.227c.371-1.032-1.272-1.477-1.641-.452q-6.523,18.113-13.046,36.227c-.372,1.032,1.272,1.476,1.641.452" fill="#2b244a"/>
          <path id="Trazado_154663" data-name="Trazado 154663" d="M149.467,111.882h-40.21l12.187-54.165a2.611,2.611,0,0,1,2.562-2.05h34.827a2.626,2.626,0,0,1,2.561,3.2Zm-38.022-1.751h36.622l11.62-51.645a.875.875,0,0,0-.854-1.068H124.006a.871.871,0,0,0-.854.683Z" fill="#2b244a"/>
          <path id="Trazado_154664" data-name="Trazado 154664" d="M119.542,103.48h24.209a1.75,1.75,0,0,0,1.708-1.366l8.08-35.909a1.751,1.751,0,0,0-1.708-2.135H127.622a1.752,1.752,0,0,0-1.709,1.366l-8.079,35.909a1.751,1.751,0,0,0,1.708,2.135" fill="#d9a389"/>
          <path id="Trazado_154665" data-name="Trazado 154665" d="M165.549,110.774q-4.9-13.619-9.809-27.238c-.379-1.052-2.071-.6-1.688.465q4.905,13.619,9.809,27.238c.379,1.052,2.071.6,1.688-.465" fill="#2b244a"/>
          <path id="Trazado_154666" data-name="Trazado 154666" d="M191.372,117.763H1.389A1.389,1.389,0,0,1,0,116.374V112.4a1.389,1.389,0,0,1,1.389-1.389H191.372a1.389,1.389,0,0,1,1.389,1.389v3.978a1.389,1.389,0,0,1-1.389,1.389" fill="#b06641"/>
          <path id="Trazado_154667" data-name="Trazado 154667" d="M91.992,111.007H75.806L63.458,44.782a2.065,2.065,0,0,1,2.03-2.443H77.474A2.064,2.064,0,0,1,79.5,44.025Z" fill="#2b244a"/>
          <path id="Trazado_154668" data-name="Trazado 154668" d="M75.807,111.007H59.621L49.8,58.31a2.064,2.064,0,0,1,2.029-2.443H63.811a2.064,2.064,0,0,1,2.029,1.686Z" fill="#d9a389"/>
          <path id="Trazado_154669" data-name="Trazado 154669" d="M38.271,111.007H22.084L12.26,58.31a2.064,2.064,0,0,1,2.028-2.443H26.274A2.063,2.063,0,0,1,28.3,57.553Z" fill="#d9a389"/>
          <path id="Trazado_154670" data-name="Trazado 154670" d="M59.621,111.007H50.2l-11.02-59.1a2.064,2.064,0,0,1,2.03-2.442h5.221a2.065,2.065,0,0,1,2.03,1.685Z" fill="#8498d9"/>
          <path id="Trazado_154671" data-name="Trazado 154671" d="M50.2,111.007H38.3L24.385,36.379a2.607,2.607,0,0,1,2.563-3.085h6.593A2.607,2.607,0,0,1,36.1,35.423Z" fill="#2b244a"/>
          <path id="Trazado_154672" data-name="Trazado 154672" d="M19.412,111.007H13.577V97.627a.809.809,0,0,1,.808-.809H18.6a.809.809,0,0,1,.809.809Z" fill="#b06641"/>
          <path id="Trazado_154673" data-name="Trazado 154673" d="M519.516,140.208H367.936a1.389,1.389,0,0,1-1.389-1.389v-2.632a1.389,1.389,0,0,1,1.389-1.389h151.58a1.389,1.389,0,0,1,1.389,1.389v2.632a1.389,1.389,0,0,1-1.389,1.389" fill="#b06641"/>
          <path id="Trazado_154674" data-name="Trazado 154674" d="M418.345,88.316S435.237,73.7,436.569,42.523c0,0-21.184,11.682-25.857,45.793Z" fill="#ccb16c"/>
          <path id="Trazado_154675" data-name="Trazado 154675" d="M404.2,88.316s-27.6-26.4-21.3-72.428c0,0,26.046,28.27,21.3,72.428" fill="#ccb16c"/>
          <path id="Trazado_154676" data-name="Trazado 154676" d="M405.572,88.316h-2.578l-3.529-42.9C399.055,22.924,405.572,0,405.572,0s10.981,46.962,0,88.316" fill="#ccb16c"/>
          <path id="Trazado_154677" data-name="Trazado 154677" d="M419.164,61.842c8.243-19.708,6.89-45.565,6.89-45.565a91.434,91.434,0,0,0-15.6,25.224l-4.881,46.815h5.14Z" fill="#ccb16c"/>
          <path id="Trazado_154678" data-name="Trazado 154678" d="M403.859,88.316,390.222,67.437s-7.7-11.519-21.409-14.478c0,0,5.619,26.128,29.178,35.357Z" fill="#ccb16c"/>
          <path id="Trazado_154679" data-name="Trazado 154679" d="M410.293,88.445a70.642,70.642,0,0,1,9.312-27.04.7.7,0,0,0-1.211-.707,72.342,72.342,0,0,0-9.5,27.747c-.113.893,1.289.884,1.4,0" fill="#2b244a"/>
          <path id="Trazado_154680" data-name="Trazado 154680" d="M406.083,60.744a67.587,67.587,0,0,1,4.569-19.2c.334-.838-1.021-1.2-1.352-.372a68.821,68.821,0,0,0-4.619,19.571c-.078.9,1.325.894,1.4,0" fill="#2b244a"/>
          <path id="Trazado_154681" data-name="Trazado 154681" d="M399.315,46.114a216.7,216.7,0,0,1,10.439,35.029c.184.883,1.535.509,1.352-.373a216.7,216.7,0,0,0-10.439-35.029c-.326-.83-1.682-.468-1.352.373" fill="#2b244a"/>
          <path id="Trazado_154682" data-name="Trazado 154682" d="M390.629,68.658A61.932,61.932,0,0,0,405.495,88.7c.671.6,1.666-.388.992-.991A60.934,60.934,0,0,1,391.839,67.95c-.379-.817-1.588-.106-1.21.708" fill="#2b244a"/>
          <path id="Trazado_154683" data-name="Trazado 154683" d="M415.038,134.888s5.3-3.427,7.944-13.24,2.8-33.332,2.8-33.332h-37.9s.156,23.52,2.8,33.332,7.943,13.24,7.943,13.24Z" fill="#dec6bd"/>
          <path id="Trazado_154684" data-name="Trazado 154684" d="M388.82,95.17H424.8a.7.7,0,0,0,0-1.4H388.82a.7.7,0,0,0,0,1.4" fill="#2b244a"/>
          <path id="Trazado_154685" data-name="Trazado 154685" d="M506.51,68.482a10.249,10.249,0,1,1-7.34-12.5,10.25,10.25,0,0,1,7.34,12.5" fill="#ccb16c"/>
          <path id="Trazado_154686" data-name="Trazado 154686" d="M482.045,42.32a9.038,9.038,0,1,0,9.309-8.758,9.038,9.038,0,0,0-9.309,8.758" fill="#ccb16c"/>
          <path id="Trazado_154687" data-name="Trazado 154687" d="M477.779,70.577a16.044,16.044,0,1,1-16.043-16.043,16.043,16.043,0,0,1,16.043,16.043" fill="#ccb16c"/>
          <path id="Trazado_154688" data-name="Trazado 154688" d="M449.941,60.814a62.219,62.219,0,0,1,18.02,18.137,80.878,80.878,0,0,1,9.321,18.63,37.252,37.252,0,0,1,1.826,6.976c.121.89,1.472.511,1.351-.373-.7-5.139-2.862-10.218-5.046-14.874a78.916,78.916,0,0,0-13.354-20.119,57.952,57.952,0,0,0-11.41-9.587c-.764-.485-1.468.727-.708,1.21" fill="#2b244a"/>
          <path id="Trazado_154689" data-name="Trazado 154689" d="M498.148,104.462c-.406,6.266-1.079,12.911-2.215,17.088-2.649,9.813-7.948,13.248-7.948,13.248h-16.4s-5.3-3.435-7.948-13.248c-1.136-4.177-1.808-10.822-2.215-17.088Z" fill="#dec6bd"/>
          <path id="Trazado_154690" data-name="Trazado 154690" d="M468.2,100.233a10.25,10.25,0,1,1-10.249-10.249A10.249,10.249,0,0,1,468.2,100.233" fill="#ccb16c"/>
          <path id="Trazado_154691" data-name="Trazado 154691" d="M451.32,106.909c2.26-5.417,6.017-10.805,11.966-12.423a15.025,15.025,0,0,1,9.7.718,10.772,10.772,0,0,1,5.673,6.884.7.7,0,0,0,1.352-.373,12.27,12.27,0,0,0-5.878-7.514,15.01,15.01,0,0,0-4.156-1.334,15.907,15.907,0,0,0-13.15,3.53,26.167,26.167,0,0,0-6.858,10.139c-.347.832,1.009,1.195,1.352.373" fill="#2b244a"/>
          <path id="Trazado_154692" data-name="Trazado 154692" d="M493.411,34.225c-7.894,15.692-12.994,33.347-13.056,51.005a63.935,63.935,0,0,0,.661,9.756c.134.889,1.485.511,1.352-.373a74.139,74.139,0,0,1-.066-18.885A115.45,115.45,0,0,1,487.969,50.7a126.113,126.113,0,0,1,6.652-15.771c.4-.8-.8-1.515-1.21-.708" fill="#2b244a"/>
          <path id="Trazado_154693" data-name="Trazado 154693" d="M481.849,81.275a33.894,33.894,0,0,1,4.923-8.572,32.687,32.687,0,0,1,9.494-7.726,56.944,56.944,0,0,1,8.685-3.847c.843-.3.48-1.655-.373-1.352-8.643,3.075-16.814,7.782-21.551,15.9A42.663,42.663,0,0,0,480.5,80.9c-.344.833,1.011,1.2,1.352.373" fill="#2b244a"/>
          <path id="Trazado_154694" data-name="Trazado 154694" d="M514.069,91.1a17.289,17.289,0,1,1-21.192-12.195A17.289,17.289,0,0,1,514.069,91.1" fill="#ccb16c"/>
          <path id="Trazado_154695" data-name="Trazado 154695" d="M479.117,98.1a16.759,16.759,0,0,1,5.454-5.014,20.936,20.936,0,0,1,7.651-2.8A21.756,21.756,0,0,1,506.93,93.3a27.874,27.874,0,0,1,6.364,5.319c.6.673,1.593-.321.992-.991A27.05,27.05,0,0,0,501.02,89.3,22.56,22.56,0,0,0,484.5,91.5a18.585,18.585,0,0,0-6.591,5.9c-.475.771.737,1.476,1.21.708" fill="#2b244a"/>
          <path id="Trazado_154696" data-name="Trazado 154696" d="M379.087,134.8h-4.673V124.245a.809.809,0,0,1,.809-.809h3.055a.809.809,0,0,1,.809.809Z" fill="#b06641"/>
          <path id="Trazado_154697" data-name="Trazado 154697" d="M513.037,134.8h-4.673V124.245a.809.809,0,0,1,.809-.809h3.055a.809.809,0,0,1,.809.809Z" fill="#b06641"/>
          <path id="Trazado_154698" data-name="Trazado 154698" d="M852.959,256.186a10.963,10.963,0,0,1,10.267,6.875c1.3,2.99,1.564,6.271,2.009,9.465q.742,5.328,1.485,10.655.471,3.375.941,6.747h2.057q-.272-1.941-.542-3.883l-1.545-11.081a74.259,74.259,0,0,0-1.658-10.3c-1.163-4.043-3.609-7.756-7.579-9.461a14.238,14.238,0,0,0-5.435-1.073,1.028,1.028,0,0,0,0,2.054" fill="#2b244a"/>
          <path id="Trazado_154699" data-name="Trazado 154699" d="M697.79,289.928q1.214-8.7,2.426-17.4c.737-5.288,1.291-11.562,6.275-14.717a11.36,11.36,0,0,1,6-1.623,1.028,1.028,0,0,0,0-2.054,12.809,12.809,0,0,0-10.041,4.586c-3.673,4.551-3.859,10.7-4.631,16.245q-1.044,7.483-2.086,14.965Z" fill="#2b244a"/>
          <path id="Trazado_154700" data-name="Trazado 154700" d="M1090.7,256.186a10.964,10.964,0,0,1,10.267,6.875c1.3,2.99,1.563,6.271,2.008,9.465q.744,5.328,1.487,10.655.468,3.375.939,6.747h2.056q-.27-1.941-.541-3.883-.773-5.541-1.544-11.081c-.476-3.413-.7-6.98-1.659-10.3-1.163-4.043-3.609-7.756-7.579-9.461a14.233,14.233,0,0,0-5.434-1.073,1.028,1.028,0,0,0,0,2.054" fill="#2b244a"/>
          <path id="Trazado_154701" data-name="Trazado 154701" d="M935.533,289.928q1.213-8.7,2.426-17.4c.737-5.288,1.291-11.562,6.275-14.717a11.36,11.36,0,0,1,6-1.623,1.028,1.028,0,0,0,0-2.054,12.809,12.809,0,0,0-10.041,4.586c-3.674,4.551-3.859,10.7-4.631,16.245q-1.044,7.483-2.086,14.965Z" fill="#2b244a"/>
          <path id="Trazado_154702" data-name="Trazado 154702" d="M1133.4,256.441H679.032a5.106,5.106,0,1,1,0-10.211H1133.4a5.106,5.106,0,1,1,0,10.211" fill="#d9a389"/>
          <path id="Trazado_154703" data-name="Trazado 154703" d="M891.977,246.505a10.932,10.932,0,0,0,.149,9.663,1.027,1.027,0,1,0,1.773-1.037,8.741,8.741,0,0,1-.149-7.59,1.055,1.055,0,0,0-.368-1.4,1.035,1.035,0,0,0-1.405.368" fill="#2b244a"/>
          <path id="Trazado_154704" data-name="Trazado 154704" d="M1109.619,239.582c-1.961-2.911-2.472-8.691-2.472-8.691l-11.821,2.017-11.822-2.017s-.51,5.78-2.471,8.691c-1.388,2.059-3.96,3.842-3.96,6.648h36.505c0-2.806-2.572-4.589-3.959-6.648" fill="#2b244a"/>
          <path id="Trazado_154705" data-name="Trazado 154705" d="M1118.332,215.232c-2.681,16.38-14.309,28.112-25.973,26.2s-18.945-16.735-16.264-33.115,14.309-28.112,25.972-26.2,18.946,16.735,16.265,33.115" fill="#2b244a"/>
          <path id="Trazado_154706" data-name="Trazado 154706" d="M1102.624,204.37c-1,6.1-5.331,10.473-9.676,9.762s-7.058-6.235-6.059-12.337,5.33-10.473,9.676-9.762,7.058,6.235,6.059,12.337" fill="#8c75b5"/>
          <path id="Trazado_154707" data-name="Trazado 154707" d="M1096.091,225.7a4.97,4.97,0,1,1-4.1-5.708,4.971,4.971,0,0,1,4.1,5.708" fill="#8c75b5"/>
          <path id="Trazado_154708" data-name="Trazado 154708" d="M1082.549,237.139a19.053,19.053,0,0,0,12.633,5.106,19.673,19.673,0,0,0,12.907-4.919c1.005-.86-.453-2.307-1.453-1.453a16.977,16.977,0,0,1-22.636-.186c-.975-.887-2.432.561-1.451,1.452" fill="#8c75b5"/>
          <path id="Trazado_154709" data-name="Trazado 154709" d="M961.252,239.582c-1.962-2.911-2.473-8.691-2.473-8.691l-11.821,2.017-11.822-2.017s-.509,5.78-2.471,8.691c-1.388,2.059-3.959,3.842-3.959,6.648h36.505c0-2.806-2.573-4.589-3.959-6.648" fill="#2b244a"/>
          <path id="Trazado_154710" data-name="Trazado 154710" d="M969.965,215.232c-2.681,16.38-14.309,28.112-25.973,26.2S925.047,224.7,927.728,208.32s14.309-28.112,25.972-26.2,18.946,16.735,16.265,33.115" fill="#2b244a"/>
          <path id="Trazado_154711" data-name="Trazado 154711" d="M954.257,204.37c-1,6.1-5.331,10.473-9.676,9.762s-7.058-6.235-6.059-12.337,5.33-10.473,9.676-9.762,7.058,6.235,6.059,12.337" fill="#8c75b5"/>
          <path id="Trazado_154712" data-name="Trazado 154712" d="M947.724,225.7a4.97,4.97,0,1,1-4.1-5.708,4.971,4.971,0,0,1,4.1,5.708" fill="#8c75b5"/>
          <path id="Trazado_154713" data-name="Trazado 154713" d="M934.182,237.139a19.053,19.053,0,0,0,12.633,5.106,19.67,19.67,0,0,0,12.906-4.919c1.006-.86-.452-2.307-1.452-1.453a16.977,16.977,0,0,1-22.636-.186c-.976-.887-2.432.561-1.451,1.452" fill="#8c75b5"/>
          <path id="Trazado_154714" data-name="Trazado 154714" d="M1087.98,33.046H934.3a8.1,8.1,0,0,0-7.862,6.142L893.257,172.3a8.1,8.1,0,0,0,7.862,10.061H1054.8a8.1,8.1,0,0,0,7.861-6.142l33.18-133.108a8.1,8.1,0,0,0-7.862-10.061" fill="#dec6bd"/>
          <path id="Trazado_154715" data-name="Trazado 154715" d="M1088.7,43.276l-28.85,117.564H896.129L926.441,39.195a8.079,8.079,0,0,1,7.857-6.149h146.4a8.251,8.251,0,0,1,8.01,10.23" fill="#2b244a"/>
          <path id="Trazado_154716" data-name="Trazado 154716" d="M1048.307,182.349a8.83,8.83,0,0,0,8.729-6.432c.139-.518.26-1.041.389-1.561q1.125-4.515,2.251-9.029,4.294-17.232,8.59-34.464,5.309-21.293,10.615-42.585,4.263-17.1,8.525-34.2l2.193-8.8c.912-3.655,1.436-7.884-1.991-10.456a10.777,10.777,0,0,0-6.442-1.768.95.95,0,0,0,0,1.9c2.163.024,4.668.381,6.135,2.162a6.494,6.494,0,0,1,1.047,5.161c-.1.664-.285,1.319-.447,1.971l-1.917,7.692q-3.981,15.968-7.961,31.936l-10.314,41.378q-4.437,17.8-8.873,35.6l-2.721,10.915c-.43,1.724-.7,3.85-1.61,5.4a7.1,7.1,0,0,1-6.2,3.283.95.95,0,0,0,0,1.9" fill="#2b244a"/>
          <path id="Trazado_154717" data-name="Trazado 154717" d="M1001.539,168.843H978.97l31.159,77.387H1032.7Z" fill="#dec6bd"/>
          <path id="Trazado_154718" data-name="Trazado 154718" d="M985.88,184.15h20.457a.95.95,0,0,0,0-1.9H985.88a.95.95,0,0,0,0,1.9" fill="#2b244a"/>
          <path id="Trazado_154719" data-name="Trazado 154719" d="M1027.162,241.6H975.8a4.631,4.631,0,0,0-4.631,4.631h55.992Z" fill="#dec6bd"/>
          <path id="Trazado_154720" data-name="Trazado 154720" d="M557.623,289.928c-17.98-4.945-33.454-9.111-35.079-9.4a15.325,15.325,0,0,0-2.99,3.917c-.9,1.759-1.767,3.6-2.614,5.481Z" fill="#ccb16c"/>
          <path id="Trazado_154721" data-name="Trazado 154721" d="M608.911,153.746l-33.822-17.962,28.4-51.95,27.733,16.7Z" fill="#ffa58f"/>
          <path id="Trazado_154722" data-name="Trazado 154722" d="M590.318,107.949l31.347,15.377-1.839,10.085-34.58-16.4Z" fill="#2b244a"/>
          <path id="Trazado_154723" data-name="Trazado 154723" d="M796.8,268.156c10.175,2.067,49.451,8.581,49.768,13.63s-4.018,9.612-31.171,6.646-18.6-20.276-18.6-20.276" fill="#ffa58f"/>
          <path id="Trazado_154724" data-name="Trazado 154724" d="M825.844,289.928c-10.225-10.166-22.15-20.359-29.041-21.772-13.348-2.738-39.247,8.671-39.247,8.671l-8.448,13.1Z" fill="#ffa58f"/>
          <path id="Trazado_154725" data-name="Trazado 154725" d="M803.216,289.928h3.12l-1.738-1.513c-.992-.864-2.451.582-1.452,1.452l.07.061" fill="#2b244a"/>
          <path id="Trazado_154726" data-name="Trazado 154726" d="M812.945,278.361q5.758,5.538,11.518,11.077c.952.916,2.406-.534,1.452-1.452L814.4,276.909c-.953-.916-2.407.534-1.452,1.452" fill="#2b244a"/>
          <path id="Trazado_154727" data-name="Trazado 154727" d="M626.809,261.539c9.533,4.528,30.244,20.9,52.793,28.389h39.266c7.214-3.285,14.03-8.907,20.092-17.665,32.26-46.6,45.362-80.473,53.81-93.608,6.163-2.3,19.317-6.71,32.784-12.324,15.188-6.333,4.307-17.162,4.307-17.162s5.277-4.787,3.138-9.792c-.64-1.5-2.945-3.342-7.274-2.938,3.366-.742,18.759-6.651,19.282-6.846,4.906-1.825,5.875-9.127-1.952-8.956-6.2.136-24.122,2.636-41.569,6.909,5.767-11.016,8.589-19.75,2.317-17.291-6.395,2.508-27.194,21.324-37.864,31.211-.206.169-.432.336-.624.506-1.575,1.4-3.525,3.258-5.739,5.447l-.087.083h0c-17.706,17.525-59.65,66.016-73.013,79.581-15.06,15.288-30.69-12.938-41.46-28.8-6.828-10.054-22.088-31.443-22.088-31.443s-14.375,86.024,3.879,94.7" fill="#ffa58f"/>
          <path id="Trazado_154728" data-name="Trazado 154728" d="M622.929,209.456l22.088-11.169-18.7-35.38Z" fill="#2b244a"/>
          <path id="Trazado_154729" data-name="Trazado 154729" d="M618.349,289.928c2.661-36.8,8.688-121.763,8.688-136.433,0-18.825-14.033-38.676-40.046-37.307s-44.77,36.965-57.5,69.293C517.09,216.97,500.4,276.37,500.4,276.37s7.051,6.149,30.457,13.558Z" fill="#2b244a"/>
          <path id="Trazado_154730" data-name="Trazado 154730" d="M540.969,235.505l12.774-4.121c1.252-.4.717-2.387-.546-1.98l-12.774,4.121c-1.253.4-.717,2.387.546,1.98" fill="#8c75b5"/>
          <path id="Trazado_154731" data-name="Trazado 154731" d="M583.169,289.928H749.427c4.07-6.248,7.383-11.477,8.129-13.1-11.826-3.548-84.862-28.219-105.736-36.866a119.46,119.46,0,0,1-13.991-6.372,36.373,36.373,0,0,1-10.5-9.05,44.965,44.965,0,0,1-6.247-10.964,2.726,2.726,0,0,1-.547.27c-30.525,7.42-44.749,7.86-71.19,16.789,0,19.96,8.262,37.885,13.721,43.793a80.069,80.069,0,0,0,20.1,15.5" fill="#ffa58f"/>
          <path id="Trazado_154732" data-name="Trazado 154732" d="M791.524,147.56a34.38,34.38,0,0,0,11-18.106c.3-1.286-1.677-1.834-1.98-.546a32.517,32.517,0,0,1-10.473,17.2c-1,.862.454,2.309,1.452,1.452" fill="#2b244a"/>
          <path id="Trazado_154733" data-name="Trazado 154733" d="M621.524,214.145c.537,8.754,7.526,14.751,14.682,18.73a235.605,235.605,0,0,0,25.766,11.93c16.882,6.869,34.235,12.487,51.472,18.38,8.432,2.883,16.859,5.783,25.3,8.642,1.255.425,1.793-1.558.546-1.981q-22.168-7.508-44.306-15.107c-17.8-6.082-35.552-12.474-52.412-20.869-8.1-4.034-18.364-9.462-18.993-19.725-.081-1.313-2.135-1.322-2.054,0" fill="#2b244a"/>
          <path id="Trazado_154734" data-name="Trazado 154734" d="M545.566,167.015q-2.274,26.345-4.61,52.682-.646,7.408-1.287,14.818c-.114,1.317,1.94,1.309,2.053,0q2.276-26.343,4.61-52.682.648-7.408,1.288-14.818c.113-1.317-1.941-1.309-2.054,0" fill="#8c75b5"/>
          <path id="Trazado_154735" data-name="Trazado 154735" d="M542.957,216.85c20.788-5.8,41.923-10.315,63.013-14.849q8.618-1.853,17.233-3.705c1.291-.28.744-2.26-.546-1.981-21.095,4.567-42.239,8.937-63.2,14.1-5.7,1.406-11.389,2.875-17.047,4.452a1.028,1.028,0,0,0,.546,1.98" fill="#8c75b5"/>
          <path id="Trazado_154736" data-name="Trazado 154736" d="M597.822,99.356a75.624,75.624,0,0,0,35,14.092c15.172,2.052,19.787-9.772,18.981-14.918a330.836,330.836,0,0,0-10.078-39.383c-5.116-15.545-11.09-22.611-30.767-24s-36.583,5.7-35.845,26.118,17.006,33.85,22.71,38.093" fill="#ffa58f"/>
          <path id="Trazado_154737" data-name="Trazado 154737" d="M644.087,68.666s5.946,4.7,8.98,7.545c1.731,1.625,1.453,3.062.568,4.042a60.217,60.217,0,0,1-5.04,4.6l-7.589-4.958Z" fill="#ffa58f"/>
          <path id="Trazado_154738" data-name="Trazado 154738" d="M641.821,70.766a2.513,2.513,0,0,0-2.349-.528,2.375,2.375,0,0,0-1.428,2.235,8.227,8.227,0,0,0,.527,2.892,5.247,5.247,0,0,0,1.908,2.817c1.654,1,3.138-.293,3.33-1.932a7.279,7.279,0,0,0-1.988-5.484" fill="#2b244a"/>
          <path id="Trazado_154739" data-name="Trazado 154739" d="M644.288,65.314c-.052,3.562-3.47,2.061-6.743,4.241-3.009,2-5.334,2.4-5.913.542-.7-2.249,1.652-5.925,6.362-7.463,4.411-1.439,6.332.082,6.294,2.68" fill="#2b244a"/>
          <path id="Trazado_154740" data-name="Trazado 154740" d="M829.1,148.455c-4.958,1.684-10.1,3.716-14.256,6.975a6.215,6.215,0,0,0-2.513,6.229,6.475,6.475,0,0,0,3.856,4.631,15.457,15.457,0,0,0,6.8,1.058c1.312-.084,1.322-2.138,0-2.053a12.784,12.784,0,0,1-6.381-1.058,4.229,4.229,0,0,1-1.881-5.647,8.946,8.946,0,0,1,3.162-2.785,40.072,40.072,0,0,1,3.6-2.038,63.587,63.587,0,0,1,8.163-3.332c1.244-.423.71-2.407-.546-1.98" fill="#2b244a"/>
          <path id="Trazado_154741" data-name="Trazado 154741" d="M825.452,135.448a80.419,80.419,0,0,0-14.537,7.042c-2.158,1.274-4.794,2.636-6.068,4.886a6.276,6.276,0,0,0,1.655,7.763c2.17,1.766,5.706,2.152,8.4,1.983,1.312-.081,1.322-2.136,0-2.053a12.427,12.427,0,0,1-6.6-1.175,4.162,4.162,0,0,1-.964-6.456,22.848,22.848,0,0,1,5.314-3.586q3.261-1.884,6.652-3.533a58.255,58.255,0,0,1,6.69-2.891c1.243-.425.709-2.41-.546-1.98" fill="#2b244a"/>
          <path id="Trazado_154742" data-name="Trazado 154742" d="M632.257,29.907c-.244-3.343-2.414-7.36-11.153-8.072C605.7,20.58,589.387,38,589.387,38c-14.3,3.194-20.337,17.958-17.113,30.662,4.791,18.885,21.7,27.607,21.7,27.607l-1.364,7.382c9.835-2.835,17.03-12.252,17.77-17.5s6.417-5.733,6.417-5.733,4.771-5.029,1.495-8.985c-2.677-3.233-3.393-6.477-2.36-9.147,4.406.1,11.048-.133,13.586-2.23a4.573,4.573,0,0,0,1.759-4.554c5.991-.89,6.412-.88,8.725-1.137,6.772-7.516,2.9-18.8-7.745-24.457" fill="#2b244a"/>
          <path id="Trazado_154743" data-name="Trazado 154743" d="M624.934,87.033A10.453,10.453,0,1,1,614.482,76.58a10.453,10.453,0,0,1,10.452,10.453" fill="#ffa58f"/>
          <path id="Trazado_154744" data-name="Trazado 154744" d="M649.412,87.033c-4.251.637-8.358,1.232-8.933,1.355A17.338,17.338,0,0,0,650.671,92.7c-.3-1.667-.761-3.572-1.259-5.664" fill="#fff"/>
          <path id="Trazado_154745" data-name="Trazado 154745" d="M614.761,106.3a26.832,26.832,0,0,0,9.9,6.415,1.036,1.036,0,0,0,1.263-.718,1.05,1.05,0,0,0-.717-1.263,24.5,24.5,0,0,1-8.995-5.886c-.923-.949-2.375.5-1.452,1.452" fill="#37374c"/>
          <path id="Trazado_154746" data-name="Trazado 154746" d="M611.316,89.919a5.191,5.191,0,0,1,4.158-7.456,1.055,1.055,0,0,0,1.027-1.027,1.035,1.035,0,0,0-1.027-1.027,7.232,7.232,0,0,0-5.931,10.546,1.037,1.037,0,0,0,1.4.369,1.048,1.048,0,0,0,.368-1.4" fill="#37374c"/>
          <path id="Trazado_154747" data-name="Trazado 154747" d="M626.01,164.961c-.825,14.7-1.982,29.379-2.807,44.079-.074,1.321,1.98,1.316,2.054,0,.825-14.7,1.982-29.379,2.807-44.079.074-1.32-1.98-1.316-2.054,0" fill="#8c75b5"/>
          <path id="Trazado_154748" data-name="Trazado 154748" d="M586.015,118.345a54.713,54.713,0,0,1,32.211,14.008c.977.888,2.433-.56,1.453-1.452a56.994,56.994,0,0,0-33.664-14.61c-1.319-.092-1.313,1.962,0,2.054" fill="#8c75b5"/>
          <path id="Trazado_154749" data-name="Trazado 154749" d="M575.332,76.31c2.415,2.407,5.008,4.873,8.407,5.746a8.779,8.779,0,0,0,8.749-2.454c2.23-2.278,4.182-6.464,7.837-6.541,1.851-.039,3.558.968,5.426.952a8.723,8.723,0,0,0,4.445-1.354c3.352-2.075,4.85-5.741,6.16-9.282.46-1.242-1.525-1.777-1.98-.546-1.35,3.649-3.117,7.959-7.333,8.963-2.144.511-3.97-.593-6.065-.764a7.261,7.261,0,0,0-5.065,1.714c-2.86,2.236-4.46,6.624-8.279,7.456-4.388.956-8.022-2.525-10.85-5.342a1.027,1.027,0,0,0-1.452,1.452" fill="#8c75b5"/>
          <path id="Trazado_154750" data-name="Trazado 154750" d="M601.309,48.8a14.1,14.1,0,0,0,12.4,3.218c1.951-.445,4.085-1.372,5.167-3.152,1.319-2.171.6-4.736-.2-6.949l-1.508,1.16A8.488,8.488,0,0,0,629.584,40.4a1.028,1.028,0,0,0-1.773-1.037,6.446,6.446,0,0,1-9.6,1.938,1.036,1.036,0,0,0-1.508,1.16c.634,1.758,1.535,4.115.126,5.737a7.392,7.392,0,0,1-4.48,1.993,11.973,11.973,0,0,1-9.584-2.845c-.988-.871-2.446.576-1.452,1.452" fill="#8c75b5"/>
          <path id="Trazado_154751" data-name="Trazado 154751" d="M624.176,83.441a12.429,12.429,0,1,1-12.429-12.429,12.429,12.429,0,0,1,12.429,12.429" fill="#ffeae0"/>
          <path id="Trazado_154752" data-name="Trazado 154752" d="M592.818,34.321q6.578,25.265,15.639,49.786c.454,1.23,2.44.7,1.98-.545Q601.386,59.073,594.8,33.775a1.028,1.028,0,0,0-1.98.546" fill="#ffeae0"/>
          <path id="Trazado_154753" data-name="Trazado 154753" d="M597.278,30.856Q604,56.668,613.26,81.737c.454,1.229,2.44.7,1.98-.546q-9.246-25.02-15.982-50.881a1.028,1.028,0,0,0-1.98.546" fill="#ffeae0"/>
          <path id="Trazado_154754" data-name="Trazado 154754" d="M616.108,81.2l-9.287,3.069L601.943,69.5a.827.827,0,0,1,.526-1.045l7.716-2.55a.828.828,0,0,1,1.045.526Z" fill="#ffeae0"/>
          <path id="Trazado_154755" data-name="Trazado 154755" d="M604.875,74.668a13.5,13.5,0,0,1,3.057-1.593,14.424,14.424,0,0,1,1.73-.5c.274-.06.549-.113.826-.157.256-.04.474-.064.8-.092a1.053,1.053,0,0,0,1.027-1.026,1.035,1.035,0,0,0-1.027-1.027,15.414,15.414,0,0,0-7.449,2.621,1.052,1.052,0,0,0-.369,1.405,1.036,1.036,0,0,0,1.405.368" fill="#2b244a"/>
          <path id="Trazado_154756" data-name="Trazado 154756" d="M511.551,289.928c-11.41-24.805-21.45-46.38-27.931-57.924-21.9-39.019-32.858-53.394-48.26-53.394-10.953,0-15.4,4.792-22.59,25.328-3.591,10.26-6.041,46.209-7.481,85.99Z" fill="#8498d9"/>
          <path id="Trazado_154757" data-name="Trazado 154757" d="M466.891,226.909c5.988,11.883,11.555,23.972,17.036,36.1,4.059,8.976,8.171,17.934,12.207,26.923h2.207c-3.094-6.871-6.228-13.725-9.32-20.6-5.433-12.07-10.883-24.135-16.68-36.035-11.436-23.474-24.314-46.409-40.807-66.744q-3.087-3.807-6.34-7.476c-.878-.991-2.326.466-1.452,1.452,17.585,19.861,31.251,42.767,43.149,66.381" fill="#2b244a"/>
          <path id="Trazado_154758" data-name="Trazado 154758" d="M683.767,79.926h81.51a5.831,5.831,0,0,0,5.814-5.814V55.148a5.831,5.831,0,0,0-5.814-5.814h-81.51a5.832,5.832,0,0,0-5.815,5.814V74.112a5.832,5.832,0,0,0,5.815,5.814" fill="#ffeae0"/>
          <path id="Trazado_154759" data-name="Trazado 154759" d="M677.952,67.986v16.2A2.054,2.054,0,0,0,680.74,86.1l16.134-6.177Z" fill="#ffeae0"/>
          <path id="Trazado_154760" data-name="Trazado 154760" d="M742.951,62.734a1.9,1.9,0,0,1,0,3.791,1.9,1.9,0,0,1,0-3.791" fill="#2b244a"/>
          <path id="Trazado_154761" data-name="Trazado 154761" d="M724.521,62.734a1.9,1.9,0,0,1,0,3.791,1.9,1.9,0,0,1,0-3.791" fill="#2b244a"/>
          <path id="Trazado_154762" data-name="Trazado 154762" d="M706.091,62.734a1.9,1.9,0,0,1,0,3.791,1.9,1.9,0,0,1,0-3.791" fill="#2b244a"/>
          <path id="Trazado_154763" data-name="Trazado 154763" d="M889.524,168.9h6.928s10.989,23.929,13.922,23.929c2.173,0,.539-23.929.539-23.929H1075.29a2.929,2.929,0,0,0,2.91-3.271l-13.665-116.67a2.93,2.93,0,0,0-2.91-2.59H875.859a2.931,2.931,0,0,0-2.911,3.271l13.666,116.671a2.93,2.93,0,0,0,2.91,2.589" fill="#ffc37a"/>
          <path id="Trazado_154764" data-name="Trazado 154764" d="M1015.4,168.9H894.958s11.078-38.607,19.544-53.082A44.172,44.172,0,0,1,936.144,97.76c17.076-6.162,36.98-7.367,54.99-6.072,8.41.6,17.133,1.835,24.857,5.313,9.538,4.3,15.564,11.745,19.242,21.892,5.725,15.8,6.55,29.105,7.523,50Z" fill="#ffeae0"/>
          <path id="Trazado_154765" data-name="Trazado 154765" d="M954.45,93.4a39.549,39.549,0,0,0-9.411,13.776c-.225.578.423,1.026.926.925,2-.4,3.942-.981,5.891-1.565a18.006,18.006,0,0,1,2.9-.829c.7-.082.861.224,1.255.716q.4.5.8,1.009c2.217,2.79,4.384,5.649,6.855,8.222.672.7,1.735-.365,1.064-1.063-2.737-2.851-5.106-6.043-7.573-9.124-.521-.651-1.039-1.323-1.951-1.341a10.545,10.545,0,0,0-2.954.721c-2.217.655-4.419,1.346-6.688,1.8l.925.926a37.8,37.8,0,0,1,9.024-13.112c.691-.681-.374-1.745-1.064-1.064" fill="#2b244a"/>
          <path id="Trazado_154766" data-name="Trazado 154766" d="M981.322,91.976a133.193,133.193,0,0,1,6.848,15.792q.462-.462.925-.925c-2.652-.534-5.21-1.4-7.81-2.128a3.67,3.67,0,0,0-2.906-.063,10.777,10.777,0,0,0-1.947,1.314c-3.935,3.264-8.256,6-12.069,9.429-.722.648.345,1.71,1.064,1.064,3.545-3.185,7.5-5.81,11.234-8.755a17.781,17.781,0,0,1,1.943-1.452,3.271,3.271,0,0,1,.729-.4,5.507,5.507,0,0,1,2.2.5c2.38.691,4.735,1.454,7.167,1.944.506.1,1.149-.347.926-.926a136.419,136.419,0,0,0-7-16.152c-.462-.851-1.761-.092-1.3.76" fill="#2b244a"/>
          <path id="Trazado_154767" data-name="Trazado 154767" d="M965.079,95.82q-1.659,28.23-1.441,56.531.054,7.951.262,15.9a.752.752,0,0,0,1.5,0q-.739-28.269.4-56.549.313-7.944.78-15.882c.057-.967-1.448-.964-1.505,0" fill="#2b244a"/>
          <path id="Trazado_154768" data-name="Trazado 154768" d="M944.815,39.082a12.267,12.267,0,0,0-7.03,3.132,10.84,10.84,0,0,0-3.355,6.131,7.074,7.074,0,0,0,.354,3.965c1.114,2.607,4.1,4.2,6.91,5.6Z" fill="#2b244a"/>
          <path id="Trazado_154769" data-name="Trazado 154769" d="M978.459,46.924c-2.449-13.281-12.822-15.671-24.884-11.81S938.8,44.432,937.823,55.23a226.961,226.961,0,0,0-.668,26.924c.23,3.441,4.791,10.373,13.952,6.765a47.352,47.352,0,0,0,19.542-14.05c2.949-3.6,10.259-14.664,7.81-27.945" fill="#e0785e"/>
          <path id="Trazado_154770" data-name="Trazado 154770" d="M955.161,83.592l-.179,9.789s5.7,23.355,9.932,23.354c3.044,0,13.979-25.409,13.979-25.409l-3.657-28.539Z" fill="#e0785e"/>
          <path id="Trazado_154771" data-name="Trazado 154771" d="M943.9,58.887c-.888,1.927-2.386.285-4.7.681-2.121.365-3.483.021-3.35-1.132.161-1.394,2.33-2.827,5.266-2.527,2.748.281,3.427,1.573,2.779,2.978" fill="#2b244a"/>
          <path id="Trazado_154772" data-name="Trazado 154772" d="M947.46,58.885c.638,2.023,2.331.583,4.571,1.268,2.059.63,3.453.461,3.466-.7.016-1.4-1.954-3.1-4.9-3.171-2.762-.069-3.6,1.127-3.133,2.6" fill="#2b244a"/>
          <path id="Trazado_154773" data-name="Trazado 154773" d="M943.3,63.534a13.631,13.631,0,0,1-.658,2.647c-.3.85-.749,1.636-1.074,2.477a3.424,3.424,0,0,0-.141,2.35,2.319,2.319,0,0,0,1.6,1.558c.941.224,1.343-1.227.4-1.451a.957.957,0,0,1-.648-.941,3.917,3.917,0,0,1,.578-1.856,15.245,15.245,0,0,0,1.393-4.384.778.778,0,0,0-.525-.926.759.759,0,0,0-.926.526" fill="#2b244a"/>
          <path id="Trazado_154774" data-name="Trazado 154774" d="M980.247,52.563c.576-3.005.777-6.262-.619-9.081a7.969,7.969,0,0,0-2.387-2.944c-.58-.422-1.271-.677-1.445-1.436a11.5,11.5,0,0,1,.019-2.147c-.063-2.421-.974-5.284-3.346-6.377a4.969,4.969,0,0,0-4.274.1A10.467,10.467,0,0,0,954.313,31.7c-3.651-2.3-8.362.317-10.887,3.224a46.852,46.852,0,0,0-3.173,5.165c-.044.029-.4.628-.442.668-1.931,1.884-2.151,2.778-1.161,5.538,1.032,2.875,4.813,2.868,7.256,2.214,1.534-.412,2.8-1.32,4.278-1.827,1.119-.384,1.379.415,1.945,1.164a4.763,4.763,0,0,0,1.291,1.184c2.374,1.48,5.084.778,7.407-.4a4.526,4.526,0,0,1,3.241,1.076,3.975,3.975,0,0,1,1.019,3.954c-.579,3.094-2.794,7.021-1.752,10.309A13.86,13.86,0,0,0,964,68.411c.993,2.445,4.655,4.75,7.384,4.748.966,0,4.237-6.9,5.274-8.827a78.2,78.2,0,0,0,3.593-11.769" fill="#2b244a"/>
          <path id="Trazado_154775" data-name="Trazado 154775" d="M976.654,64.332l.449,13.019s-9.151-.767-11.089-6.072,10.64-6.947,10.64-6.947" fill="#2b244a"/>
          <path id="Trazado_154776" data-name="Trazado 154776" d="M959.908,63.1a7,7,0,1,0,9.458-2.918,7,7,0,0,0-9.458,2.918" fill="#e0785e"/>
          <path id="Trazado_154777" data-name="Trazado 154777" d="M963.654,58.562s-4.68,16.309-9.074,20.544c-5.493,5.294-14.473,4.293-17.515.9,0,0-1.967,4.768.152,9.078s8.614,5.384,14.906,3.093c8.7-3.168,10.905-11.7,12.69-17.784s4.407-16.7,4.407-16.7Z" fill="#2b244a"/>
          <path id="Trazado_154778" data-name="Trazado 154778" d="M928.591,139.336q-.634,14.7-.862,29.419a.753.753,0,0,0,1.505,0q.247-14.714.862-29.419c.041-.968-1.463-.966-1.505,0" fill="#2b244a"/>
          <path id="Trazado_154779" data-name="Trazado 154779" d="M974.655,139.092c6.539.033,13.086-.072,19.62.258.968.049.965-1.455,0-1.5-6.534-.331-13.081-.226-19.62-.259a.753.753,0,0,0,0,1.5" fill="#2b244a"/>
          <path id="Trazado_154780" data-name="Trazado 154780" d="M973.9,138.34c.047,2.911.073,5.822.12,8.732.047,2.935.194,6.046,2.339,8.288a11.072,11.072,0,0,0,7,2.973,11.262,11.262,0,0,0,8.2-1.97c.758-.6-.313-1.659-1.065-1.064-2.039,1.612-4.916,1.8-7.406,1.5-2.3-.279-4.821-1.181-6.2-3.154-1.574-2.249-1.342-5.267-1.378-7.881-.034-2.475-.06-4.95-.1-7.425a.752.752,0,0,0-1.5,0" fill="#2b244a"/>
          <path id="Trazado_154781" data-name="Trazado 154781" d="M993.522,138.6a36.192,36.192,0,0,1-.176,8.732c-.338,2.608-.833,6.063-2.851,7.968-.705.667.36,1.729,1.064,1.064,2.178-2.057,2.808-5.563,3.206-8.39a37.246,37.246,0,0,0,.262-9.374c-.11-.951-1.616-.962-1.505,0" fill="#2b244a"/>
          <path id="Trazado_154782" data-name="Trazado 154782" d="M950.657,64.328c.017-.015.139-.116.052-.046s.018-.012.034-.023c.068-.047.137-.092.209-.132s.147-.075.219-.113c.092-.049-.126.046-.028.011.043-.016.085-.033.129-.048a3.78,3.78,0,0,1,.479-.122c.1-.021.006-.013-.036,0a.522.522,0,0,1,.137-.014c.083-.006.165-.01.248-.01s.148,0,.221.008c.046,0,.091.009.137.012.106.008-.14-.026-.036,0a4.166,4.166,0,0,1,.481.118c.043.014.086.031.129.046.093.033.016-.008-.028-.013a.765.765,0,0,1,.221.111c.072.04.142.084.21.13l.09.064c-.072-.057-.087-.068-.044-.033.021.018.042.035.063.054a.752.752,0,0,0,1.064-1.064,3.868,3.868,0,0,0-5.015,0,.757.757,0,0,0,0,1.064.772.772,0,0,0,1.064,0" fill="#2b244a"/>
          <path id="Trazado_154783" data-name="Trazado 154783" d="M938.228,63.86c.017-.015.139-.116.052-.046s.018-.012.034-.023c.068-.047.137-.092.209-.132s.147-.075.219-.113c.092-.049-.126.046-.028.011.043-.016.085-.033.129-.048a3.774,3.774,0,0,1,.479-.122c.1-.021.006-.013-.036,0a.568.568,0,0,1,.137-.013c.083-.006.165-.01.248-.01s.148,0,.221.008c.046,0,.091.009.137.012.106.008-.14-.026-.036,0a4.166,4.166,0,0,1,.481.118c.043.014.086.031.129.046.093.033.016-.008-.028-.012a.738.738,0,0,1,.221.11c.072.04.142.084.21.13l.09.064c-.072-.057-.087-.068-.044-.033.021.018.042.035.063.054a.752.752,0,0,0,1.064-1.064,3.868,3.868,0,0,0-5.015,0,.757.757,0,0,0,0,1.064.772.772,0,0,0,1.064,0" fill="#2b244a"/>
          <path id="Trazado_154784" data-name="Trazado 154784" d="M950.436,74.629c-1.322,5.285-7.956,5.194-9.645-.148Z" fill="#fff"/>
          <path id="Trazado_154785" data-name="Trazado 154785" d="M1005.9,118.828a9.132,9.132,0,0,1-4,7.569c-.8.535-.05,1.838.759,1.3a10.694,10.694,0,0,0,4.745-8.869.753.753,0,0,0-1.505,0" fill="#8498d9"/>
          <path id="Trazado_154786" data-name="Trazado 154786" d="M998.05,107.819a9.136,9.136,0,0,1,1.873-8.354c.634-.725-.434-1.786-1.073-1.054a10.692,10.692,0,0,0-2.252,9.8.753.753,0,0,0,1.452-.395" fill="#8498d9"/>
          <path id="Trazado_154787" data-name="Trazado 154787" d="M943.859,141.987a9.135,9.135,0,0,1-4.275-7.417c-.024-.964-1.528-1.022-1.5-.05a10.691,10.691,0,0,0,4.977,8.74.753.753,0,0,0,.8-1.273" fill="#8498d9"/>
          <path id="Trazado_154788" data-name="Trazado 154788" d="M914.492,151.29a9.131,9.131,0,0,1,5.706,6.382c.222.938,1.706.685,1.483-.26a10.692,10.692,0,0,0-6.666-7.533.753.753,0,0,0-.523,1.411" fill="#8498d9"/>
          <path id="Trazado_154789" data-name="Trazado 154789" d="M1032.5,145.51a9.135,9.135,0,0,1-8.005-3.035c-.629-.73-1.83.177-1.2.913a10.69,10.69,0,0,0,9.387,3.615.753.753,0,0,0-.186-1.493" fill="#8498d9"/>
          <path id="Trazado_154790" data-name="Trazado 154790" d="M984.955,123.826a9.135,9.135,0,0,1-8.005-3.035c-.629-.73-1.83.177-1.2.914a10.69,10.69,0,0,0,9.386,3.614.753.753,0,0,0-.185-1.493" fill="#8498d9"/>
          <path id="Trazado_154791" data-name="Trazado 154791" d="M1023.976,120.821a9.13,9.13,0,0,1,7.886,3.331c.6.753,1.836-.11,1.229-.869a10.688,10.688,0,0,0-9.245-3.961.753.753,0,0,0,.13,1.5" fill="#8498d9"/>
          <path id="Trazado_154792" data-name="Trazado 154792" d="M1006.072,160.088a9.132,9.132,0,0,0-7.886,3.33c-.6.754-1.836-.109-1.229-.868a10.69,10.69,0,0,1,9.245-3.961.753.753,0,0,1-.13,1.5" fill="#8498d9"/>
          <path id="Trazado_154793" data-name="Trazado 154793" d="M953.112,117.5a9.133,9.133,0,0,1,2.216,8.269c-.225.938,1.213,1.382,1.44.436a10.691,10.691,0,0,0-2.553-9.728.753.753,0,0,0-1.1,1.023" fill="#8498d9"/>
          <path id="Trazado_154794" data-name="Trazado 154794" d="M946.343,160.489a9.134,9.134,0,0,1,8.43,1.494c.753.6,1.765-.514,1-1.12a10.69,10.69,0,0,0-9.894-1.807.753.753,0,0,0,.46,1.433" fill="#8498d9"/>
          <path id="Trazado_154795" data-name="Trazado 154795" d="M930.492,116.258a9.136,9.136,0,0,1-7.515,4.1c-.964,0-1.057,1.5-.085,1.5a10.69,10.69,0,0,0,8.854-4.771.753.753,0,0,0-1.254-.831" fill="#8498d9"/>
          <path id="Trazado_154796" data-name="Trazado 154796" d="M966,52.62a4.81,4.81,0,0,0,8.52.526l-1.029.27a3.315,3.315,0,0,0,4.99-2.066c.153-.947-1.3-1.355-1.451-.4a1.808,1.808,0,0,1-2.78,1.167.762.762,0,0,0-1.029.269,3.405,3.405,0,0,1-3.18,1.576,3.467,3.467,0,0,1-2.742-2.1c-.393-.883-1.69-.119-1.3.759" fill="#8c75b5"/>
          <path id="Trazado_154797" data-name="Trazado 154797" d="M952.254,45.714a11.143,11.143,0,0,1,1.539-3.995A8.13,8.13,0,0,1,955.168,40c.642-.574,1.336-.37,2.117-.261,2.911.4,5.255-1.643,7.177-3.552a.753.753,0,0,0-1.064-1.064,13.4,13.4,0,0,1-3.417,2.7A4.4,4.4,0,0,1,958,38.3a10.311,10.311,0,0,0-2.527-.14c-1.361.311-2.342,1.772-3.033,2.883a12.292,12.292,0,0,0-1.637,4.268c-.173.947,1.277,1.353,1.451.4" fill="#8c75b5"/>
          <path id="Trazado_154798" data-name="Trazado 154798" d="M967.009,43.76a8.354,8.354,0,0,1,6.479-3.183.753.753,0,0,0,0-1.505,9.785,9.785,0,0,0-7.543,3.624.777.777,0,0,0,0,1.064.757.757,0,0,0,1.064,0" fill="#8c75b5"/>
          <path id="Trazado_154799" data-name="Trazado 154799" d="M1010.119,140.189q.726,14.2.851,28.414a.752.752,0,0,0,1.5,0q-.125-14.214-.85-28.414c-.05-.964-1.555-.969-1.505,0" fill="#2b244a"/>
          <path id="Trazado_154800" data-name="Trazado 154800" d="M1060.37,54.719a4.514,4.514,0,1,1-4.514-4.514,4.514,4.514,0,0,1,4.514,4.514" fill="#fff"/>
          <path id="Trazado_154801" data-name="Trazado 154801" d="M1045.324,54.719a4.514,4.514,0,1,1-4.514-4.514,4.515,4.515,0,0,1,4.514,4.514" fill="#fff"/>
          <path id="Trazado_154802" data-name="Trazado 154802" d="M911.951,88.231H855.34a5.831,5.831,0,0,0-5.814,5.814V104.83a5.832,5.832,0,0,0,5.814,5.815h56.611a5.832,5.832,0,0,0,5.814-5.815V94.045a5.831,5.831,0,0,0-5.814-5.814" fill="#ffeae0"/>
          <path id="Trazado_154803" data-name="Trazado 154803" d="M917.766,96.98V85.111a1.5,1.5,0,0,0-2.043-1.4L903.9,88.231Z" fill="#ffeae0"/>
          <path id="Trazado_154804" data-name="Trazado 154804" d="M870.17,98.049a1.39,1.39,0,0,0,0,2.778,1.39,1.39,0,0,0,0-2.778" fill="#2b244a"/>
          <path id="Trazado_154805" data-name="Trazado 154805" d="M883.673,98.049a1.39,1.39,0,0,0,0,2.778,1.39,1.39,0,0,0,0-2.778" fill="#2b244a"/>
          <path id="Trazado_154806" data-name="Trazado 154806" d="M897.176,98.049a1.39,1.39,0,0,0,0,2.778,1.39,1.39,0,0,0,0-2.778" fill="#2b244a"/>
        </g>
      </g>
    </g>
  </g>
</svg>
