<svg xmlns="http://www.w3.org/2000/svg" xmlns:xlink="http://www.w3.org/1999/xlink" width="339.395" height="281.43" viewBox="0 0 339.395 281.43">
  <defs>
    <clipPath id="clip-path">
      <rect id="Rect치ngulo_41292" data-name="Rect치ngulo 41292" width="231.294" height="240.724" fill="none"/>
    </clipPath>
  </defs>
  <g id="Grupo_166047" data-name="Grupo 166047" transform="translate(-1029 -1063)">
    <g id="Grupo_166019" data-name="Grupo 166019" transform="translate(569 -539)">
      <g id="Grupo_166184" data-name="Grupo 166184" transform="translate(460 1602)">
        <rect id="Rect치ngulo_41001" data-name="Rect치ngulo 41001" width="339.395" height="161.069" rx="9" transform="translate(0 120.362)" fill="#6b8dfc"/>
        <g id="Grupo_166183" data-name="Grupo 166183" transform="translate(54 0)">
          <g id="Grupo_166183-2" data-name="Grupo 166183" clip-path="url(#clip-path)">
            <path id="Trazado_153981" data-name="Trazado 153981" d="M149.325,195.072c-10.985.028-21.97.083-32.956.078q-28.968-.011-57.935-.078c-1.036-1.164-.775-2.606-.779-3.958-.025-11.579-.009-23.16-.016-34.739a10.63,10.63,0,0,0-.33-3.6,3.118,3.118,0,0,0-5.979,0,10.826,10.826,0,0,0-.33,3.6c-.006,11.579.009,23.16-.016,34.739,0,1.353.257,2.794-.779,3.958-7.643.028-15.287.024-22.929.112-1.472.018-1.9-.463-1.893-1.917.056-16.133-.607-32.3.222-48.389C26.826,121.2,44.3,101.6,67.474,96.68a9.642,9.642,0,0,1,3.8-.5c.781.581.759,1.5.955,2.321,2.43,10.033,8.148,17.46,17.353,22.133a6.083,6.083,0,0,1,2.147,1.381,2.568,2.568,0,0,1,.314.753c.178,6.492.737,12.917,3.042,19.067,7.523,20.071,21.762,31.988,42.865,35.435,7.361,1.2,6.488,1.173,6.52-5.768.023-5.264,0-10.53.006-15.794a15.236,15.236,0,0,1,.285-3.6c1.15-4.766,5.037-7.774,9.518-7.358a8.933,8.933,0,0,1,8.082,9.152c.045,4.513.128,8.935,2.327,13.09a19.924,19.924,0,0,0,13.7,10.425c1.313.315,2.777.171,3.884,1.182.023,4.908,0,9.815.1,14.72.032,1.518-.534,1.878-1.94,1.863-7.628-.081-15.256-.081-22.884-.109-1.036-1.164-.776-2.606-.779-3.958-.025-11.579-.009-23.16-.016-34.739a10.594,10.594,0,0,0-.332-3.6,3.117,3.117,0,0,0-5.978,0,10.826,10.826,0,0,0-.33,3.6c-.006,11.579.009,23.16-.016,34.739,0,1.353.257,2.794-.779,3.958" transform="translate(11.767 45.535)" fill="#769eb5"/>
            <path id="Trazado_153982" data-name="Trazado 153982" d="M161.173,178.582c-11.87-.373-20.56-9.4-20.579-21.365,0-2.912.418-5.92-1.56-8.461a8.085,8.085,0,0,0-9.156-2.978,8.586,8.586,0,0,0-5.787,8.325c-.048,7.257-.1,14.516.035,21.772.041,2.211-.669,2.863-2.78,2.69-12.225-1.01-23.135-5.111-32.48-13.293A54.014,54.014,0,0,1,71.708,136.54a46.429,46.429,0,0,1-1.256-14.085c1.012-.716,1.984-.146,2.946.119,18.473,5.089,35.906-5.009,40.747-23.606a5.386,5.386,0,0,1,1.178-2.813,49.961,49.961,0,0,1,27.327,12.167,52.6,52.6,0,0,1,17.84,31.487,34.919,34.919,0,0,1,.694,5.888c.053,10.962,0,21.923-.012,32.885" transform="translate(32.871 45.553)" fill="#a1bccc"/>
            <path id="Trazado_153983" data-name="Trazado 153983" d="M124.783,129.868c-1.26,13.312-13.525,26.019-26.627,28a40.372,40.372,0,0,1-18.244-1.7c-.034-.137-.065-.274-.088-.413a4.173,4.173,0,0,1-.7-2.95c-.013-6.82-.035-13.64.009-20.459.021-3.179.349-3.468,3.507-3.814,8.083-.886,15.594-3.27,21.838-8.445-10.293,2.808-20.491,2.435-30.345-2.439a6.129,6.129,0,0,1-2.474-1.805c-4.849-3.4-9.5-7.018-12.948-11.954a40.984,40.984,0,0,1-7.778-24.615c.029-1.978,0-3.958,0-5.938a4.873,4.873,0,0,1-.806-3.413c0-5.728-.047-11.458.015-17.184-.1-5.774.731-11.3,3.959-16.3A25.87,25.87,0,0,1,67.968,25.5c1.29-.429,2.632-.962,3.875.174a7.645,7.645,0,0,1,.468,4.012,19.1,19.1,0,0,0,1,7.528c-.28,1-1.164,1.172-1.981,1.407-.659.192-1.34.3-2,.5-5.495,1.595-6.014,2.463-4.829,8.084-.37.737-1.115.718-1.767.861a3.224,3.224,0,0,0-2.716,2.75c-.26,1.546.628,2.594,1.759,3.5.776.62,2.01.684,2.306,1.9-.078,1.982-.166,3.969-.062,5.948.079,1.488-.65,3.289.88,4.351,2.083,1.446,4.006,3.363,6.864,3.179a6.71,6.71,0,0,0,4.067-1.4,11.034,11.034,0,0,1,1.021-.788c2.368-1.574,5.1-1.26,6.707.765a4.729,4.729,0,0,1-.569,6.555c-3.976,3.459-8.523,5.425-13.964,4.445-.907-.164-2.053-.921-2.688-.28-.811.821.156,1.92.456,2.849a36.131,36.131,0,0,0,6.466,11.1c1.166,1.481,2.569,2.785,3.351,4.552-.791,5.805,1.737,7.594,6.833,5.048.305-.152-.079.08.254-.018,2.365.559,4.413,1.894,6.677,2.725,11.513,4.228,22.634,3.173,33.494-2.215,1.379-.684,1.385-.671,2.443-.159a36.857,36.857,0,0,1-11.852,11.606,2.894,2.894,0,0,0-1.608,2.881c.094,3.27.116,6.548,0,9.817-.065,1.733.556,2.194,2.208,2.171,3.246-.046,6.52-.323,9.722.531" transform="translate(23.411 11.841)" fill="#f5b88c"/>
            <path id="Trazado_153984" data-name="Trazado 153984" d="M72.113,93.9c-2.214-3.045-4.824-5.773-6.834-8.991a37.241,37.241,0,0,1-4.157-9.4c-.141-.485-.546-.995-.191-1.456.512-.663,1.139-.077,1.63.1,5.543,1.994,10.413.385,14.966-2.8,2.532-1.773,3.062-4.653,1.347-6.694-1.64-1.951-4.193-1.886-6.564.167a7.422,7.422,0,0,1-8.749.643c-1.225-.768-2.185-1.957-3.68-2.317a.98.98,0,0,1-.613-.709c.176-3.385-.773-6.829.484-10.16,1.152-.818,2.362-.228,3.485-.019,7.536,1.406,13.315-2.187,18.772-6.613a2.853,2.853,0,0,0,.486-4.18A3.306,3.306,0,0,0,78.1,40.5c-1.968.872-3.621,2.308-5.509,3.344a11.944,11.944,0,0,1-9.676,1.262c-1.058-.33-2.194-.548-2.71-1.735a4.86,4.86,0,0,1,1.37-7.549c2.4-1.172,5.034-1.54,7.571-2.237,1.657-.41,3.385-.024,5.04-.464a33.213,33.213,0,0,1,10.306,3.061,13.244,13.244,0,0,0,4.256,1.76c1.592.828,3.818.69,4.485,2.942-.857,3.114.644,4.971,3.149,6.569,3.345,2.134,6.648,4.166,10.667,4.872A19.733,19.733,0,0,0,117.6,50.932a4.028,4.028,0,0,0,2.588-2.694c.65-2.274-1.37-4.286-3.985-3.911-1.693.242-3.276,1.058-4.992,1.192-3.351.262-6.484-.214-8.8-3.036.264-1.31,1.389-1.1,2.255-1.214a25.8,25.8,0,0,0,14.424-6.25c1.574-1.424,2.667-.933,3.794.594a37.3,37.3,0,0,1,7.151,16.961c.352,5.518.125,11.035.138,16.552a3.429,3.429,0,0,1-.781,2.4c.424,9.911-1.444,19.215-7.22,27.481-2.537,1.046-5.044,2.174-7.616,3.123-12.244,4.516-23.972,2.934-35.291-3.139.147-1.768,1.193-2.106,2.673-1.639a12.4,12.4,0,0,1,2.785,1.326,5.819,5.819,0,0,0,6.764-.035c2.374-1.55,4.531-2.026,6.851.368a3.129,3.129,0,0,0,4.62-.274,3.379,3.379,0,0,0,.029-4.7,32.1,32.1,0,0,0-4.158-4.216,3.543,3.543,0,0,0-4.541-.4c-4.13,2.846-8.084,3.057-12.271.068-1.85-1.322-3.693-.584-5.364.892-1.429,1.26-2.311,3.285-4.538,3.513" transform="translate(27.558 15.692)" fill="#f8ccad"/>
            <path id="Trazado_153985" data-name="Trazado 153985" d="M76.384,36.96c-7.782.881-13.192,5.305-17.217,11.725a24.983,24.983,0,0,0-3.491,14.587c-.709.252-.9-.34-1.077-.76a10.257,10.257,0,0,0-6.085-5.852,1.569,1.569,0,0,1-1.061-1.027C44.625,50.525,41.7,45.5,40.466,39.645,36.987,23.173,48.194,4.639,63.9,1.123c1.831-.492,2.076.94,2.188,2.072.676,6.89,4.149,12.111,9.4,16.317a3.826,3.826,0,0,1,1.482,2.063,131.131,131.131,0,0,1,.164,13.284,2.646,2.646,0,0,1-.759,2.1" transform="translate(18.61 0.485)" fill="#656b76"/>
            <path id="Trazado_153986" data-name="Trazado 153986" d="M148.464,107.647c.236,2.066-1.024,5.127.493,6.86,1.382,1.58,4.325,1.786,6.585,2.588.808.287,1.651.489,2.439.825a4.068,4.068,0,0,1,2.571,5.431c-.766,2.557-1.567,5.112-2.521,7.6-.594,1.55-.555,2.66.819,3.814,1.643,1.379,3.065,3.024,4.59,4.547a4.309,4.309,0,0,1,.976,5.416c-1.309,2.622-2.565,5.272-3.951,7.852-1.257,2.34-3.527,3.062-5.639,1.95-2.023-1.067-2.657-3.2-1.756-5.549.754-1.972,2.948-3.79,2.254-5.78-.618-1.768-2.623-3.135-4.2-4.455-2.623-2.194-3.268-4.648-1.789-7.787.729-1.546,1.042-3.286,1.683-4.881.522-1.3.11-1.817-1.149-2.177-2.144-.613-4.243-1.382-6.362-2.084a4.389,4.389,0,0,1-3.307-4.654c.043-2.591.009-5.182.009-7.774,0-4.124,0-4.124-4.234-4.125-1.2,0-2.409-.016-3.612,0a4.274,4.274,0,0,1-4.462-3.2c-.638-1.876-1.328-3.742-1.83-5.656-.437-1.668-1.2-1.813-2.544-.974a12.642,12.642,0,0,1-2.554,1.222,3.858,3.858,0,0,1-5.027-1.945,3.769,3.769,0,0,1,1.276-5.233,94.991,94.991,0,0,1,9.446-4.726c2.075-.89,4.2.368,5.1,2.726a51.321,51.321,0,0,1,2.173,6.626c.511,2.225,1.517,3.174,3.872,2.9a44.176,44.176,0,0,1,5.928-.038c3.194.062,4.667,1.57,4.726,4.822.032,1.813.006,3.627.006,5.845" transform="translate(53.914 40.02)" fill="#656b76"/>
            <path id="Trazado_153987" data-name="Trazado 153987" d="M33.438,112.234c-.156,9.036.428,8.265-8.143,11.133-3.357,1.123-3.363,1.138-2.255,4.437,2.81,8.371,3.26,7.021-3.171,13.264-1.752,1.7-2.349,3.079-.873,5.173a12.822,12.822,0,0,1,1.568,3.253,3.822,3.822,0,0,1-1.99,5.017,3.63,3.63,0,0,1-5.188-1.326,100.567,100.567,0,0,1-4.636-9.233c-.767-1.671-.138-3.214,1.1-4.483,1.564-1.6,3.089-3.257,4.758-4.744a2.773,2.773,0,0,0,.9-3.574c-.9-2.231-1.583-4.555-2.33-6.85-1.228-3.764-.393-5.45,3.292-6.711,2.274-.778,4.525-1.637,6.833-2.295a2.034,2.034,0,0,0,1.714-2.382c-.085-3.711-.059-7.426-.019-11.14.034-3.248,1.526-4.735,4.729-4.813.945-.024,1.893,0,2.838,0,5.983,0,5.983,0,7.9-5.817,2.509-7.63,3.416-8.014,10.547-4.448,1.536.769,3.089,1.514,4.582,2.362,2.308,1.313,3.039,3.566,1.928,5.672-1.078,2.044-3.185,2.709-5.526,1.74-4.01-1.658-4.007-1.656-5.449,2.662-.383,1.144-.748,2.295-1.193,3.413a4.023,4.023,0,0,1-3.75,2.693c-.514.031-1.033-.013-1.546.022-2.2.153-5.226-.986-6.381.48-1.078,1.369-.23,4.271-.23,6.5" transform="translate(3.932 40.039)" fill="#656b76"/>
            <path id="Trazado_153988" data-name="Trazado 153988" d="M68.694,21.338C62.512,17.132,58.53,11.551,57.863,3.892c-.1-1.07-.326-2.068-1.626-2.284A16.954,16.954,0,0,1,63.208.225c8.824-.049,17.673-.675,26.47.4a34.841,34.841,0,0,1,13.642,4.11c-1.441,7.476-.49,15.035-.764,22.551a10.124,10.124,0,0,1-.283,2.81c-.7,1.584-2.123,1.853-3.595,1.816a12.567,12.567,0,0,1-5.176-.987c-.9-1-.728-2.252-.741-3.44-.04-3.189.009-6.378-.028-9.568a4.709,4.709,0,0,0-1-3.384,3.217,3.217,0,0,0-5.595,1.876c-.3,2.4-.075,4.822-.145,7.232-.035,1.282.17,2.6-.462,3.808a1.761,1.761,0,0,1-2.1.451c-2.29-.816-4.867-.967-6.717-2.834-.786-1.987-.327-4.068-.439-6.106a12.549,12.549,0,0,0-.249-3.065,3.133,3.133,0,0,0-3.435-2.47c-1.777.127-2.681,1.275-3.046,2.971-.354,1.636.43,3.469-.848,4.94" transform="translate(26.276 0)" fill="#7b818d"/>
            <path id="Trazado_153989" data-name="Trazado 153989" d="M81.939,22.686c1.586.181,3.169.408,4.761.526,1.268.1,2.563.115,3.5-1.023.65-.131.9.379,1.186.781a3.342,3.342,0,0,0,3.788,1.5,3.432,3.432,0,0,0,2.559-2.919,4.587,4.587,0,0,1,.555-1.707c6.927-5.474,16.165-2.685,20.17,2.237,3.479,4.277,7.615,6.8,13.2,6.745.8-.007,2.022-.187,1.994,1.3l-5.81,20.058a1.786,1.786,0,0,1-.483.575c-3.182,1.219-5.847,3-7.167,6.368-.173.438-.443,1.516-1.353.56a84.268,84.268,0,0,1-.508-9c-.326-5.926-2.7-11.122-5.98-15.984-1.1-1.636-1.887-1.917-3.621-.641-7.239,5.329-15.253,7.2-24.057,4.768-1.315-.363-2.714-.641-3.294-2.165-.54-3.379-.248-6.773-.2-10.162a2.265,2.265,0,0,1,.763-1.82" transform="translate(37.873 7.981)" fill="#656b76"/>
            <path id="Trazado_153990" data-name="Trazado 153990" d="M128.391,35.433c-.593-.878-1.511-.671-2.339-.662-5.539.059-9.734-2.314-13.11-6.7A14.571,14.571,0,0,0,95.49,24.282c-.773.365-1.536.752-2.305,1.127a3.308,3.308,0,0,1-.826-2.635q-.086-7.253,0-14.508a3.184,3.184,0,0,1,.857-2.617c1.659,1.074,3.334,2.125,4.972,3.229a8.927,8.927,0,0,0,9.313.861c6.617-3.258,14.765-1.172,19.005,6.734a23.82,23.82,0,0,1,1.884,18.961" transform="translate(43.133 2.676)" fill="#7b828d"/>
            <path id="Trazado_153991" data-name="Trazado 153991" d="M68.623,86.639c3.507,1.374,6.821,3.257,10.532,4.087a42,42,0,0,0,24.576-1.45c-1.174,2.091-1.824,2.729-6.554,5.475a40.667,40.667,0,0,1-18.09,5.282c-1.815.115-2.326.64-2.309,2.413.07,8.035.019,16.07.01,24.106-10.131-3.279-19.36-15.107-20.189-25.878,3.108-1.023,6.321-.587,9.474-.513,2.126.049,2.588-.684,2.521-2.645-.123-3.621.006-7.251.029-10.876" transform="translate(26.445 41.045)" fill="#f2a168"/>
            <path id="Trazado_153992" data-name="Trazado 153992" d="M11.27,38.144c0-10.1.015-20.19-.012-30.286-.006-1.957.484-3.578,2.348-4.51a4.043,4.043,0,0,1,5.885,3.6c.132,2.062.038,4.14.038,6.21q0,26.919,0,53.839c0,.777.04,1.558-.022,2.329a4.122,4.122,0,0,1-4.171,4.056A4.061,4.061,0,0,1,11.3,69.2c-.094-3.363-.029-6.729-.031-10.094q0-10.485,0-20.967" transform="translate(5.257 1.371)" fill="#545a63"/>
            <path id="Trazado_153993" data-name="Trazado 153993" d="M149,38.275c0,10.1.025,20.19-.012,30.286-.015,3.835-3.181,5.986-6.148,4.258a4.168,4.168,0,0,1-2.1-3.886q.007-30.8.021-61.6a4.086,4.086,0,0,1,4.05-4.429c2.434-.037,4.161,1.758,4.171,4.573.038,10.268.016,20.535.016,30.8" transform="translate(65.762 1.373)" fill="#545a63"/>
            <path id="Trazado_153994" data-name="Trazado 153994" d="M146.521,165.62c-1.586-1.353-2.932-2.413-4.173-3.581a4.222,4.222,0,0,1-.635-6.025c1.541-2.281,3.027-4.6,4.591-6.868.635-.92.622-1.463-.5-1.917a19.212,19.212,0,0,1-2.971-1.531,4.019,4.019,0,0,1-1.623-5.367,3.855,3.855,0,0,1,5.2-1.973c2.973,1.331,5.906,2.78,8.745,4.374,2.3,1.288,2.763,3.646,1.3,6.013-1.632,2.632-3.312,5.247-5.153,7.731-1.015,1.371-.781,2.2.381,3.236a55.646,55.646,0,0,1,4.193,4.2c2.224,2.458,1.8,5.3-1.083,6.882-2.631,1.444-5.328,2.779-8.055,4.031a3.955,3.955,0,0,1-5.487-1.764c-1.095-2.122-.342-4.328,1.954-5.659.877-.507,1.787-.959,3.325-1.78" transform="translate(65.758 65.369)" fill="#656b76"/>
            <path id="Trazado_153995" data-name="Trazado 153995" d="M16.638,165.718c1.5.812,2.591,1.31,3.584,1.963a3.982,3.982,0,0,1,1.392,5.443c-1.158,1.956-2.943,2.762-5.052,1.83-2.984-1.319-5.928-2.766-8.767-4.374-2.581-1.463-2.886-4.311-.829-6.594,1.444-1.6,2.983-3.116,4.56-4.582a1.691,1.691,0,0,0,.276-2.635c-1.79-2.533-3.489-5.133-5.156-7.752-1.783-2.806-1.188-5.112,1.723-6.661,2.5-1.331,5.041-2.61,7.609-3.814,2.411-1.132,4.636-.4,5.712,1.752,1.067,2.125.285,4.29-2.041,5.647-3.692,2.156-3.692,2.156-1.3,5.758.905,1.365,1.833,2.718,2.71,4.1,1.657,2.609,1.5,4.2-.69,6.446-1.081,1.105-2.264,2.113-3.73,3.472" transform="translate(2.624 65.384)" fill="#656b76"/>
            <path id="Trazado_153996" data-name="Trazado 153996" d="M42.241,177.9q-.007-20.3-.01-40.6c0-3.261,1.544-5.02,4.254-4.944,2.581.072,4,1.791,4,4.944q.009,20.3-.01,40.6h-8.23" transform="translate(19.731 62.705)" fill="#608da8"/>
            <path id="Trazado_153997" data-name="Trazado 153997" d="M109.8,177.9q-.007-20.3-.01-40.6c0-3.261,1.544-5.02,4.254-4.944,2.581.072,4,1.791,4,4.944q.009,20.3-.01,40.6H109.8" transform="translate(51.296 62.705)" fill="#608da8"/>
            <path id="Trazado_153998" data-name="Trazado 153998" d="M152.007,34.622c0-5.086-.012-10.172,0-15.256.01-3.3,1.479-5.164,4.058-5.208s4.186,1.854,4.19,5.076q.026,15.645,0,31.289c0,3.223-1.607,5.123-4.189,5.081-2.566-.043-4.051-1.92-4.06-5.208-.016-5.257,0-10.515,0-15.774" transform="translate(71.022 6.707)" fill="#545a63"/>
            <path id="Trazado_153999" data-name="Trazado 153999" d="M30.786,34.9c0,5.26.021,10.517-.009,15.775-.016,3.057-1.58,4.9-4.082,4.928s-4.152-1.819-4.161-4.844q-.033-15.9,0-31.806c.007-2.995,1.69-4.85,4.205-4.794,2.417.052,4.011,1.847,4.032,4.71.04,5.344.013,10.689.013,16.031" transform="translate(10.521 6.707)" fill="#545a63"/>
            <path id="Trazado_154000" data-name="Trazado 154000" d="M129.489,32.816c0-4.567-.019-9.134.007-13.7.016-3.076,1.544-4.909,4.044-4.958,2.584-.052,4.2,1.848,4.2,5.062q.026,13.573,0,27.145c-.006,3.23-1.595,5.124-4.177,5.089s-4.06-1.913-4.072-5.193c-.016-4.482,0-8.962,0-13.444" transform="translate(60.499 6.707)" fill="#545a63"/>
            <path id="Trazado_154001" data-name="Trazado 154001" d="M.007,32.538c0-4.482-.021-8.962.007-13.444.018-3.065,1.561-4.9,4.064-4.937s4.168,1.807,4.177,4.825q.042,13.83,0,27.662c-.009,3-1.686,4.857-4.193,4.81S.032,49.585.015,46.5C-.012,41.844.007,37.192.007,32.538" transform="translate(0 6.707)" fill="#545a63"/>
            <path id="Trazado_154002" data-name="Trazado 154002" d="M107.125,47.1c1.566-3.776,3.9-6.71,8.177-7.5.855.814.7,1.891.717,2.9.037,2.749.07,5.5,0,8.247a12.283,12.283,0,0,0,4.321,10.045c.732.644,1.8,1.135,1.637,2.418-4.119,4.209-9.223,5.586-14.925,5.249q-.013-9.851-.025-19.7a1.353,1.353,0,0,1,.1-1.665" transform="translate(49.896 18.76)" fill="#f2a168"/>
            <path id="Trazado_154003" data-name="Trazado 154003" d="M47.149,38.082c4.107,1.063,6.688,3.783,8.222,7.64q.024,10.71.053,21.421c-5.686.27-10.808-1.067-14.919-5.28-.169-1.173.766-1.671,1.454-2.259a12.49,12.49,0,0,0,4.507-10.534c-.1-2.672-.031-5.351-.013-8.026a4.46,4.46,0,0,1,.637-2.973Z" transform="translate(18.916 18.036)" fill="#f2a168"/>
            <path id="Trazado_154004" data-name="Trazado 154004" d="M95.588,6.915q-.015,9.881-.032,19.761c.158,2.455-.582,4.464-3.15,5.1-2.534.625-4.144-.732-5.1-3.012-.01-7.065.028-14.132-.066-21.2a7.465,7.465,0,0,1,1.593-4.239c4.386-.895,5.71-.192,6.754,3.589" transform="translate(40.762 1.411)" fill="#545a63"/>
            <path id="Trazado_154005" data-name="Trazado 154005" d="M119.278,63.274c-2.866-2.455-5.737-4.916-6.459-8.928-.462-2.558-.135-5.145-.2-7.719-.056-2.321-.018-4.645-.021-6.966l.515-.192c8.962.1,13.422,5.787,11.368,14.562a18.128,18.128,0,0,1-5.207,9.243" transform="translate(52.596 18.698)" fill="#f5b88d"/>
            <path id="Trazado_154006" data-name="Trazado 154006" d="M48.906,38.086c.025,4.46.192,8.924.032,13.376-.141,3.933-2.3,6.89-5.319,9.245-.465.364-1.067.554-1.3,1.172A18.652,18.652,0,0,1,36.6,48.757c-.16-5.219,3.728-11.329,12.3-10.671" transform="translate(17.101 18.02)" fill="#f5b88d"/>
            <path id="Trazado_154007" data-name="Trazado 154007" d="M68.1,76.245c1.429-1.368,2.9-2.7,4.28-4.113,1.73-1.77,3.781-2.4,5.794-.931,4.069,2.961,7.879,2.8,11.9-.055,1.827-1.3,3.783-.875,5.4.712,1.291,1.269,2.61,2.516,3.821,3.86a4.191,4.191,0,0,1,.043,6.034,3.915,3.915,0,0,1-5.775-.113c-1.6-1.8-3.033-1.95-4.789-.578-3.532,2.762-6.887,1.779-10.2-.416-1.356-.9-2.527-1.02-3.326.7-1.872,1.49-3.874,2.355-6.055.724-2.079-1.555-1.846-3.667-1.095-5.821" transform="translate(31.568 33.342)" fill="#f05574"/>
            <path id="Trazado_154008" data-name="Trazado 154008" d="M64.73,17.3c.012-1.633-.051-3.269.054-4.9a4.105,4.105,0,0,1,8.2.035c.114,2.831.041,5.67.048,8.5,1.159,1.811.741,3.846.784,5.805.044,1.984.048,3.969,0,5.952-.075,2.831.067,5.665-.053,8.495-.075,1.792-.421,3.452-2.465,4.051a5.487,5.487,0,0,1-4.832-.006,6,6,0,0,1-1.733-4.9c.1-2.309.022-4.625.021-6.938Q64.74,25.355,64.73,17.3" transform="translate(30.24 4.036)" fill="#545a63"/>
            <path id="Trazado_154009" data-name="Trazado 154009" d="M61.463,41.411c5.05,2.557,9.767,1.873,14.229-1.45.9-.666,1.834-1.278,2.785-1.863,2.236-1.376,4.626-1.023,5.95.844,1.375,1.939.926,4.228-1.193,5.88-6.6,5.142-13.72,8.142-22.226,5.494-.377-.19-.745-.4-1.131-.567-2.682-1.183-3.982-2.975-3.48-5.04.641-2.648,2.559-3.465,5.066-3.3" transform="translate(26.301 17.653)" fill="#656b76"/>
            <path id="Trazado_154010" data-name="Trazado 154010" d="M120.03,53.712l-.1,1.665a40.748,40.748,0,0,0-6.993-15.832c-1.108-1.509-1.59-1.671-3.015-.361a25.107,25.107,0,0,1-15.1,6.324c-.591.056-1.21-.066-1.714.377-.607.541-1.2.13-1.586-.214a7.044,7.044,0,0,0-8.173-1.152c-.763-1.9-2.97-1.418-4.185-2.57,2.632-1.942,3.2-4.642,2.937-7.724-.092-1.07-.232-2.264.725-3.139,10.137,3.648,19.414,2.2,27.647-4.874,1.253-1.076,1.61-.479,2.295.457,4.871,6.664,7.851,13.918,7.2,22.38-.117,1.544.029,3.108.053,4.663" transform="translate(36.991 12.145)" fill="#f5b88c"/>
            <path id="Trazado_154011" data-name="Trazado 154011" d="M84.575,39.193c-.015,1.9-.107,3.793-.026,5.684.116,2.712-1.017,4.449-3.636,5.179a5.524,5.524,0,0,1-3.959-1.687c-1.287-.777-1.453-2.053-1.464-3.378-.028-3.188-.078-6.377.022-9.565-.129-3-.05-5.992-.045-8.988a4.143,4.143,0,0,1,.786-2.9c.006-3.443-.01-6.885.025-10.327.031-3.015,1.643-4.76,4.251-4.685,2.486.071,3.97,1.773,4,4.685.038,4.474.029,8.949.041,13.423q0,6.283.01,12.564" transform="translate(35.247 4.036)" fill="#545a63"/>
            <path id="Trazado_154012" data-name="Trazado 154012" d="M82.183,39.017c2.512-2.194,4.035-2.312,6.773-.536.99.643,1.991,1.27,2.986,1.9a11.74,11.74,0,0,0,12.106,1.606c3.05-1.2,5.251-.413,6.2,2.1.854,2.258-.348,4.452-3.165,5.591a19.715,19.715,0,0,1-18.668-1.63c-1.387-.855-2.711-1.81-4.055-2.729-2.8-1.917-3.188-3.051-2.177-6.3" transform="translate(38.162 17.647)" fill="#656b76"/>
            <path id="Trazado_154013" data-name="Trazado 154013" d="M96.873,65.465a18.607,18.607,0,0,1-10.944-4.523,4.192,4.192,0,1,1,5.345-6.458C95.9,57.8,98.038,57.8,102.4,54.51a4.19,4.19,0,1,1,5.408,6.4,18.592,18.592,0,0,1-10.931,4.554" transform="translate(39.445 25.367)" fill="#f5b88d"/>
            <path id="Trazado_154014" data-name="Trazado 154014" d="M80.835,53.562c3.452-.078,5.482,2.62,4.573,5.438a10.055,10.055,0,0,1-1.115,2.321c-1.442,2.25-2.122,4.157.436,6.381,1.624,1.413,1.231,3.674-.286,5.356a4.032,4.032,0,0,1-5.593.3,49.425,49.425,0,0,1-4.723-4.744,3.8,3.8,0,0,1-.54-4.352c1.384-2.865,2.814-5.708,4.245-8.549a3.706,3.706,0,0,1,3-2.15" transform="translate(34.174 25.374)" fill="#f5b88d"/>
            <path id="Trazado_154015" data-name="Trazado 154015" d="M79.117,27.763c.022,3,.079,6,.048,9a8.65,8.65,0,0,0,.7,3.748C76.319,39.448,72.9,37.96,69.2,37.394a5.916,5.916,0,0,0,1.747-4.664c-.084-2.494.026-4.993.056-7.491,3.138-.57,5.712.691,8.109,2.525" transform="translate(32.335 11.891)" fill="#f5b88c"/>
            <path id="Trazado_154016" data-name="Trazado 154016" d="M66.178,47.932a4.136,4.136,0,1,1-4.236,3.942,4.109,4.109,0,0,1,4.236-3.942" transform="translate(28.94 22.707)" fill="#666c76"/>
            <path id="Trazado_154017" data-name="Trazado 154017" d="M94.237,56.2a4.133,4.133,0,1,1,4.08-4.1,4.109,4.109,0,0,1-4.08,4.1" transform="translate(42.093 22.707)" fill="#666c76"/>
            <path id="Trazado_154018" data-name="Trazado 154018" d="M61.755,16.934c0,1.463.088,2.934-.021,4.389a3.953,3.953,0,0,1-4.1,3.782,3.9,3.9,0,0,1-4.1-3.768c-.125-3.008-.125-6.028,0-9.036a3.9,3.9,0,0,1,4.085-3.782,3.947,3.947,0,0,1,4.107,3.768c.113,1.542.022,3.1.022,4.647" transform="translate(24.973 4.036)" fill="#545a63"/>
            <path id="Trazado_154019" data-name="Trazado 154019" d="M78.564,31.624c-2.719-.8-5.276-2.1-8.109-2.525q-.037-6.073-.069-12.148a43.12,43.12,0,0,0,8.227,2.588q-.024,6.042-.048,12.085" transform="translate(32.887 8.031)" fill="#656b76"/>
          </g>
        </g>
      </g>
    </g>
  </g>
</svg>
