<svg xmlns="http://www.w3.org/2000/svg" xmlns:xlink="http://www.w3.org/1999/xlink" width="1030" height="229" viewBox="0 0 1030 229">
  <defs>
    <clipPath id="clip-path">
      <path id="Trazado_155674" data-name="Trazado 155674" d="M0,0H1030V229H0Z" transform="translate(180 8821)" fill="#e8e8e8"/>
    </clipPath>
    <clipPath id="clip-path-2">
      <rect id="Rectángulo_41398" data-name="Rectángulo 41398" width="765.67" height="459.148" fill="none"/>
    </clipPath>
  </defs>
  <g id="Grupo_166709" data-name="Grupo 166709" transform="translate(-180 -8821)">
    <path id="Trazado_151368" data-name="Trazado 151368" d="M0,0H1030V229H0Z" transform="translate(180 8821)" fill="#c4d1ff"/>
    <g id="Enmascarar_grupo_209" data-name="Enmascarar grupo 209" clip-path="url(#clip-path)">
      <g id="Grupo_166347" data-name="Grupo 166347" transform="translate(-1639.864 14914.56)" opacity="0.457">
        <path id="Unión_28" data-name="Unión 28" d="M297.927,677.457c-51.627-3.241-94.07-47.543-128.178-83.132-5.733-5.987-11.293-11.794-16.707-17.22-43.931-43.99-87.78-89.548-130.187-133.6l-5.094-5.284c-15.6-16.2-21.18-36.673-15.721-57.626C7.993,357.746,26.7,338.426,48.583,332.5c19.929-5.388,39.356.6,54.648,16.9v-.009c30.931,32.937,64.637,67.2,102.314,103.973l-4.482-10.178C188.4,414.4,175.309,384.658,163.4,354.837c-11.957-29.939-23.188-61.976-28.6-93.379-5.977-34.681-5.021-68.643,9.429-98.753,16.825-35.076,41.557-55.26,73.511-59.984C287.3,92.477,374,160.092,420.883,207.768,408.221,169.309,399.484,129,403.118,86.88c3.095-35.912,19.062-63.309,44.953-77.155C477.477-6,516.067-2.5,551.326,19.1,614.857,58.029,665.663,123.771,711.1,189.01c20.5,29.441,9.02,58.253-11.448,73.753-24.75,18.74-63.587,19.215-85.763-12.411q-4.217-6.03-8.6-11.974c12.608,24.756,24.495,49.625,35.094,75.1l4.09,9.807c36.043,86.241,85.4,204.354,39.686,296.144-25.435,51.1-84,56.885-128.717,36.216-50.157-23.207-86.794-71.434-119.121-113.989-4.181-5.5-8.317-10.947-12.435-16.278C395.7,488.868,369.63,450.143,344.424,412.7q-13.462-20.014-27.06-39.97l-2.593-3.792q-3.916-5.731-7.915-11.536c4.354,10.852,8.746,21.343,12.918,31.331,4.4,10.529,9.056,21.173,13.758,31.921,19.627,44.873,39.932,91.286,46.752,139.742,5.231,37.166-2.967,72.195-21.938,93.7-13.649,15.471-32.41,23.549-54.512,23.549C301.889,677.647,299.918,677.591,297.927,677.457Z" transform="translate(2214 -6260.107)" fill="#7b9aff" stroke="rgba(0,0,0,0)" stroke-miterlimit="10" stroke-width="1"/>
        <path id="Trazado_115699" data-name="Trazado 115699" d="M219.153,529.971c43.986,46.85,89.441,91.98,135.774,136.3C334.9,619.148,313.3,572.754,294.28,525.134c-21.555-54-46.606-127.6-19.437-184.236,61.935-129.1,218.5-2.433,276.112,62.559,6.144,6.918,12,14.15,17.93,21.306-20.578-52.476-39.111-106.4-34.226-163.092,6.728-77.954,75.382-96.656,134.486-60.44,63.477,38.9,114.447,106.187,157.018,167.3,36.153,51.906-46.579,101.322-82.448,50.157a669.392,669.392,0,0,0-64.436-78.476q5.135,9.793,10.371,19.557c23.125,43,45.967,86.174,64.81,131.427C790.549,577.867,843.9,697.833,798.51,789,775.632,834.934,722,839.6,681.6,820.908c-54.293-25.126-91.9-80.6-128.151-127.541C515.606,644.35,482.283,592.3,447.253,541.157c-14.644-21.372-29.269-43.049-46.022-62.711-.383-.447-.794-.865-1.178-1.321l.42,1.387c9.3,30.106,21.271,58.995,33.377,87.96,22.541,53.882,51.6,110.606,59.853,169.25,7.3,51.849-12.873,109.96-72.78,106.2-56.311-3.535-101.447-60-139.1-97.711-45.6-45.672-90.382-92.255-135.171-138.783C99.895,556.856,172.958,480.774,219.153,529.971Z" transform="translate(2113.197 -6456.585)" fill="#a6bbff"/>
        <path id="Trazado_115700" data-name="Trazado 115700" d="M434.448,860.108c22.1,0,40.855-8.068,54.5-23.539,18.971-21.505,27.169-56.534,21.938-93.71-6.81-48.447-27.115-94.86-46.752-139.743-4.692-10.748-9.349-21.382-13.758-31.911-4.172-9.988-8.563-20.479-12.918-31.332,2.666,3.858,5.3,7.717,7.915,11.537l2.593,3.782c9.1,13.286,18.086,26.637,27.069,39.97,25.2,37.452,51.262,76.177,79.454,112.678,4.117,5.341,8.253,10.786,12.434,16.288,32.328,42.545,68.964,90.773,119.122,113.989,44.725,20.669,103.282,14.872,128.716-36.225,45.712-91.781-3.643-209.894-39.677-296.144l-4.1-9.8c-10.6-25.478-22.486-50.347-35.085-75.1q4.368,5.944,8.6,11.964c22.166,31.636,61,31.161,85.753,12.421,20.468-15.5,31.953-44.313,11.449-73.753-45.438-65.238-96.243-130.98-159.766-169.915-35.267-21.591-73.848-25.1-103.264-9.37-25.891,13.846-41.849,41.234-44.953,77.146-3.634,42.118,5.1,82.439,17.775,120.889-46.889-47.668-133.583-115.282-203.14-105.037-31.953,4.723-56.694,24.907-73.52,59.983C247.166,402.859,269,474.664,294.009,537.308c11.905,29.811,25,59.565,37.659,88.331l4.482,10.178c-37.677-36.767-71.383-71.026-102.314-103.964h0c-15.292-16.3-34.719-22.275-54.649-16.887-21.884,5.93-40.59,25.25-46.533,48.095-5.469,20.954.11,41.414,15.712,57.617l5.095,5.293c42.406,44.056,86.255,89.6,130.186,133.6,5.414,5.426,10.974,11.233,16.716,17.219,34.1,35.589,76.542,79.892,128.169,83.133C430.531,860.051,432.494,860.108,434.448,860.108ZM408.255,476.555a8.347,8.347,0,0,0-4.419,1.235,9.389,9.389,0,0,0-4.318,10.786l.429,1.387c9.75,31.56,22.467,61.989,33.687,88.825,4.446,10.624,9.148,21.363,13.886,32.206,19.108,43.676,38.864,88.835,45.31,134.62,4.373,31.094-2.264,61.019-17.328,78.1-11.156,12.648-26.576,18.388-45.866,17.248-44.7-2.813-82.768-42.536-116.346-77.592-5.825-6.082-11.485-11.983-16.981-17.486C252.5,702.005,208.7,656.514,166.352,612.515l-5.085-5.293c-13.794-14.321-13.594-29.213-10.992-39.191,4.227-16.212,18-30.476,33.514-34.667,9.44-2.566,23.508-2.585,36.984,11.774h0c39.96,42.545,84.484,87.248,136.13,136.664a8.846,8.846,0,0,0,11.494.722,9.718,9.718,0,0,0,3.031-11.565c-7.568-17.818-15.365-35.523-23.152-53.236-12.6-28.614-25.617-58.206-37.4-87.713-23.426-58.672-44.1-125.507-19.7-176.348,14.187-29.564,33.733-45.8,59.752-49.653,64.847-9.55,156.05,63.167,201.488,114.417,4.839,5.464,9.5,11.128,14.178,16.782l3.542,4.3a8.847,8.847,0,0,0,11.677,1.891,9.713,9.713,0,0,0,3.688-11.7c-19.61-49.977-38.353-103.412-33.588-158.654,2.556-29.612,14.7-51.031,35.112-61.951,23.819-12.724,55.827-9.408,85.653,8.857,60.647,37.157,109.974,101.113,154.252,164.688,14,20.089,5.35,37.565-7.4,47.221-17.273,13.076-44.26,14.616-60.273-8.239A679.978,679.978,0,0,0,693.9,342.039a8.849,8.849,0,0,0-11.923-.912,9.746,9.746,0,0,0-2.556,12.164q5.163,9.85,10.426,19.643c23.417,43.543,45.958,86.3,64.4,130.572l4.1,9.826c34.573,82.743,81.919,196.067,40.215,279.808-20.258,40.692-68.206,44.664-105.1,27.607-46.04-21.3-79.682-65.59-112.21-108.411q-6.313-8.31-12.526-16.4c-27.818-36.017-53.7-74.475-78.742-111.671q-13.5-20.07-27.142-40.1l-2.593-3.773c-13.74-20.08-27.945-40.844-44.031-59.717l-.822-.922A9.772,9.772,0,0,0,408.255,476.555ZM227.309,538.5h0Z" transform="translate(2105.041 -6465.109)" fill="#3c3fa7"/>
        <path id="Trazado_115701" data-name="Trazado 115701" d="M153.1,225.229c33.642,70.361,52.613,152.838,23.07,228.473-4.373,11.176-22.039,6.291-17.611-5.056C186.3,377.63,168.977,301,137.334,234.818,132.121,223.9,147.86,214.263,153.1,225.229Z" transform="translate(2714.85 -6142.634)" fill="#3c3fa7"/>
        <path id="Trazado_115702" data-name="Trazado 115702" d="M146.987,288.057c.155-.019.3-.066.447-.1.256-.523.493-1.074.575-1.226l.037-.057c.018-.076-.009-.029.018-.142,1.178-4.238,2.027-8.543,2.912-12.858q3.109-15.038,6.2-30.077c1-4.865,6.728-8.154,11.238-6.633,4.921,1.653,7.45,6.472,6.372,11.689l-7.011,34.011c-1.954,9.446-5.067,21.829-15.931,23.719-4.693.808-10.061-1.283-11.229-6.642C139.61,295.156,141.956,288.932,146.987,288.057Z" transform="translate(2693.238 -6004.881)" fill="#3c3fa7"/>
        <path id="Trazado_115703" data-name="Trazado 115703" d="M213.086,200.432c10.362-5.759,19.6,10.643,9.212,16.412-14.333,7.964-18.7,24.176-19.272,40.093-.657,18.084,1.3,36.682,4.117,54.49A372.139,372.139,0,0,0,238.831,413.51c5.222,10.919-10.526,20.555-15.767,9.589a392.177,392.177,0,0,1-35.441-120.223C183.324,268.617,178.175,219.819,213.086,200.432Z" transform="translate(2225.194 -6322.637)" fill="#3c3fa7"/>
      </g>
      <g id="Grupo_166348" data-name="Grupo 166348" transform="translate(-2420.864 14602.56)" opacity="0.457">
        <path id="Unión_28-2" data-name="Unión 28" d="M297.927,677.457c-51.627-3.241-94.07-47.543-128.178-83.132-5.733-5.987-11.293-11.794-16.707-17.22-43.931-43.99-87.78-89.548-130.187-133.6l-5.094-5.284c-15.6-16.2-21.18-36.673-15.721-57.626C7.993,357.746,26.7,338.426,48.583,332.5c19.929-5.388,39.356.6,54.648,16.9v-.009c30.931,32.937,64.637,67.2,102.314,103.973l-4.482-10.178C188.4,414.4,175.309,384.658,163.4,354.837c-11.957-29.939-23.188-61.976-28.6-93.379-5.977-34.681-5.021-68.643,9.429-98.753,16.825-35.076,41.557-55.26,73.511-59.984C287.3,92.477,374,160.092,420.883,207.768,408.221,169.309,399.484,129,403.118,86.88c3.095-35.912,19.062-63.309,44.953-77.155C477.477-6,516.067-2.5,551.326,19.1,614.857,58.029,665.663,123.771,711.1,189.01c20.5,29.441,9.02,58.253-11.448,73.753-24.75,18.74-63.587,19.215-85.763-12.411q-4.217-6.03-8.6-11.974c12.608,24.756,24.495,49.625,35.094,75.1l4.09,9.807c36.043,86.241,85.4,204.354,39.686,296.144-25.435,51.1-84,56.885-128.717,36.216-50.157-23.207-86.794-71.434-119.121-113.989-4.181-5.5-8.317-10.947-12.435-16.278C395.7,488.868,369.63,450.143,344.424,412.7q-13.462-20.014-27.06-39.97l-2.593-3.792q-3.916-5.731-7.915-11.536c4.354,10.852,8.746,21.343,12.918,31.331,4.4,10.529,9.056,21.173,13.758,31.921,19.627,44.873,39.932,91.286,46.752,139.742,5.231,37.166-2.967,72.195-21.938,93.7-13.649,15.471-32.41,23.549-54.512,23.549C301.889,677.647,299.918,677.591,297.927,677.457Z" transform="translate(2214 -6260.107)" fill="#7b9aff" stroke="rgba(0,0,0,0)" stroke-miterlimit="10" stroke-width="1"/>
        <path id="Trazado_115699-2" data-name="Trazado 115699" d="M219.153,529.971c43.986,46.85,89.441,91.98,135.774,136.3C334.9,619.148,313.3,572.754,294.28,525.134c-21.555-54-46.606-127.6-19.437-184.236,61.935-129.1,218.5-2.433,276.112,62.559,6.144,6.918,12,14.15,17.93,21.306-20.578-52.476-39.111-106.4-34.226-163.092,6.728-77.954,75.382-96.656,134.486-60.44,63.477,38.9,114.447,106.187,157.018,167.3,36.153,51.906-46.579,101.322-82.448,50.157a669.392,669.392,0,0,0-64.436-78.476q5.135,9.793,10.371,19.557c23.125,43,45.967,86.174,64.81,131.427C790.549,577.867,843.9,697.833,798.51,789,775.632,834.934,722,839.6,681.6,820.908c-54.293-25.126-91.9-80.6-128.151-127.541C515.606,644.35,482.283,592.3,447.253,541.157c-14.644-21.372-29.269-43.049-46.022-62.711-.383-.447-.794-.865-1.178-1.321l.42,1.387c9.3,30.106,21.271,58.995,33.377,87.96,22.541,53.882,51.6,110.606,59.853,169.25,7.3,51.849-12.873,109.96-72.78,106.2-56.311-3.535-101.447-60-139.1-97.711-45.6-45.672-90.382-92.255-135.171-138.783C99.895,556.856,172.958,480.774,219.153,529.971Z" transform="translate(2113.197 -6456.585)" fill="#a6bbff"/>
        <path id="Trazado_115700-2" data-name="Trazado 115700" d="M434.448,860.108c22.1,0,40.855-8.068,54.5-23.539,18.971-21.505,27.169-56.534,21.938-93.71-6.81-48.447-27.115-94.86-46.752-139.743-4.692-10.748-9.349-21.382-13.758-31.911-4.172-9.988-8.563-20.479-12.918-31.332,2.666,3.858,5.3,7.717,7.915,11.537l2.593,3.782c9.1,13.286,18.086,26.637,27.069,39.97,25.2,37.452,51.262,76.177,79.454,112.678,4.117,5.341,8.253,10.786,12.434,16.288,32.328,42.545,68.964,90.773,119.122,113.989,44.725,20.669,103.282,14.872,128.716-36.225,45.712-91.781-3.643-209.894-39.677-296.144l-4.1-9.8c-10.6-25.478-22.486-50.347-35.085-75.1q4.368,5.944,8.6,11.964c22.166,31.636,61,31.161,85.753,12.421,20.468-15.5,31.953-44.313,11.449-73.753-45.438-65.238-96.243-130.98-159.766-169.915-35.267-21.591-73.848-25.1-103.264-9.37-25.891,13.846-41.849,41.234-44.953,77.146-3.634,42.118,5.1,82.439,17.775,120.889-46.889-47.668-133.583-115.282-203.14-105.037-31.953,4.723-56.694,24.907-73.52,59.983C247.166,402.859,269,474.664,294.009,537.308c11.905,29.811,25,59.565,37.659,88.331l4.482,10.178c-37.677-36.767-71.383-71.026-102.314-103.964h0c-15.292-16.3-34.719-22.275-54.649-16.887-21.884,5.93-40.59,25.25-46.533,48.095-5.469,20.954.11,41.414,15.712,57.617l5.095,5.293c42.406,44.056,86.255,89.6,130.186,133.6,5.414,5.426,10.974,11.233,16.716,17.219,34.1,35.589,76.542,79.892,128.169,83.133C430.531,860.051,432.494,860.108,434.448,860.108ZM408.255,476.555a8.347,8.347,0,0,0-4.419,1.235,9.389,9.389,0,0,0-4.318,10.786l.429,1.387c9.75,31.56,22.467,61.989,33.687,88.825,4.446,10.624,9.148,21.363,13.886,32.206,19.108,43.676,38.864,88.835,45.31,134.62,4.373,31.094-2.264,61.019-17.328,78.1-11.156,12.648-26.576,18.388-45.866,17.248-44.7-2.813-82.768-42.536-116.346-77.592-5.825-6.082-11.485-11.983-16.981-17.486C252.5,702.005,208.7,656.514,166.352,612.515l-5.085-5.293c-13.794-14.321-13.594-29.213-10.992-39.191,4.227-16.212,18-30.476,33.514-34.667,9.44-2.566,23.508-2.585,36.984,11.774h0c39.96,42.545,84.484,87.248,136.13,136.664a8.846,8.846,0,0,0,11.494.722,9.718,9.718,0,0,0,3.031-11.565c-7.568-17.818-15.365-35.523-23.152-53.236-12.6-28.614-25.617-58.206-37.4-87.713-23.426-58.672-44.1-125.507-19.7-176.348,14.187-29.564,33.733-45.8,59.752-49.653,64.847-9.55,156.05,63.167,201.488,114.417,4.839,5.464,9.5,11.128,14.178,16.782l3.542,4.3a8.847,8.847,0,0,0,11.677,1.891,9.713,9.713,0,0,0,3.688-11.7c-19.61-49.977-38.353-103.412-33.588-158.654,2.556-29.612,14.7-51.031,35.112-61.951,23.819-12.724,55.827-9.408,85.653,8.857,60.647,37.157,109.974,101.113,154.252,164.688,14,20.089,5.35,37.565-7.4,47.221-17.273,13.076-44.26,14.616-60.273-8.239A679.978,679.978,0,0,0,693.9,342.039a8.849,8.849,0,0,0-11.923-.912,9.746,9.746,0,0,0-2.556,12.164q5.163,9.85,10.426,19.643c23.417,43.543,45.958,86.3,64.4,130.572l4.1,9.826c34.573,82.743,81.919,196.067,40.215,279.808-20.258,40.692-68.206,44.664-105.1,27.607-46.04-21.3-79.682-65.59-112.21-108.411q-6.313-8.31-12.526-16.4c-27.818-36.017-53.7-74.475-78.742-111.671q-13.5-20.07-27.142-40.1l-2.593-3.773c-13.74-20.08-27.945-40.844-44.031-59.717l-.822-.922A9.772,9.772,0,0,0,408.255,476.555ZM227.309,538.5h0Z" transform="translate(2105.041 -6465.109)" fill="#3c3fa7"/>
        <path id="Trazado_115701-2" data-name="Trazado 115701" d="M153.1,225.229c33.642,70.361,52.613,152.838,23.07,228.473-4.373,11.176-22.039,6.291-17.611-5.056C186.3,377.63,168.977,301,137.334,234.818,132.121,223.9,147.86,214.263,153.1,225.229Z" transform="translate(2714.85 -6142.634)" fill="#3c3fa7"/>
        <path id="Trazado_115702-2" data-name="Trazado 115702" d="M146.987,288.057c.155-.019.3-.066.447-.1.256-.523.493-1.074.575-1.226l.037-.057c.018-.076-.009-.029.018-.142,1.178-4.238,2.027-8.543,2.912-12.858q3.109-15.038,6.2-30.077c1-4.865,6.728-8.154,11.238-6.633,4.921,1.653,7.45,6.472,6.372,11.689l-7.011,34.011c-1.954,9.446-5.067,21.829-15.931,23.719-4.693.808-10.061-1.283-11.229-6.642C139.61,295.156,141.956,288.932,146.987,288.057Z" transform="translate(2693.238 -6004.881)" fill="#3c3fa7"/>
        <path id="Trazado_115703-2" data-name="Trazado 115703" d="M213.086,200.432c10.362-5.759,19.6,10.643,9.212,16.412-14.333,7.964-18.7,24.176-19.272,40.093-.657,18.084,1.3,36.682,4.117,54.49A372.139,372.139,0,0,0,238.831,413.51c5.222,10.919-10.526,20.555-15.767,9.589a392.177,392.177,0,0,1-35.441-120.223C183.324,268.617,178.175,219.819,213.086,200.432Z" transform="translate(2225.194 -6322.637)" fill="#3c3fa7"/>
      </g>
      <g id="Grupo_166346" data-name="Grupo 166346" transform="translate(254 8843)">
        <g id="Grupo_166346-2" data-name="Grupo 166346" clip-path="url(#clip-path-2)">
          <path id="Trazado_155535" data-name="Trazado 155535" d="M262.378,180.388s7.567,10.107,14.773,12.268,20.029-30.733,20.029-33.126-16.486-14.038-21.2-16.72-7.327-4.121-8.635,0-4.972,37.578-4.972,37.578" transform="translate(-26.647 -14.242)" fill="#f9b3a2"/>
          <rect id="Rectángulo_41392" data-name="Rectángulo 41392" width="78.255" height="1.571" transform="translate(231.412 193.334) rotate(-64.93)" fill="#2f3f4f"/>
          <path id="Trazado_155536" data-name="Trazado 155536" d="M323.588,499.158H276.157a7.5,7.5,0,0,1-7.064-4.977,6.409,6.409,0,0,1-.3-.988l-.331-21.776-.031-1.57-1.005-66.46,34.117-.549-2.7,67.009s-.063,1.382-.063,1.57h.016c.376,0,4.083,2.747,8.7,6.327.44.33.88.691,1.335,1.037.424.329.847.659,1.271,1,.471.361.958.738,1.445,1.13.659.534,1.334,1.067,2.01,1.6l1.46,1.178c6.091,4.883,11.665,9.577,12.136,10.488.015.031.031.048.031.063.015.031.015.063.031.094a3.751,3.751,0,0,1-3.627,4.82" transform="translate(-27.159 -40.911)" fill="#f9b3a2"/>
          <path id="Trazado_155537" data-name="Trazado 155537" d="M269.288,504.51a7.5,7.5,0,0,0,7.064,4.976h47.431a3.75,3.75,0,0,0,3.627-4.819c-.016-.031-.016-.063-.031-.094,0-.016-.016-.031-.031-.063Z" transform="translate(-27.348 -51.237)" fill="#2f3f4f"/>
          <path id="Trazado_155538" data-name="Trazado 155538" d="M298.957,477.42s-.063,1.382-.063,1.57H268.577l-.031-1.57Z" transform="translate(-27.273 -48.486)" fill="#2f3f4f"/>
          <rect id="Rectángulo_41393" data-name="Rectángulo 41393" width="1.57" height="24.235" transform="translate(244.273 430.096)" fill="#2f3f4f"/>
          <path id="Trazado_155539" data-name="Trazado 155539" d="M318.482,492.7a42.424,42.424,0,0,0-4.413,1.665c-8.933,3.987-10.99,10.723-11.006,10.786l-1.507-.424c.078-.314,2.229-7.489,11.885-11.806,1.208-.534,2.4-1.005,3.58-1.4Z" transform="translate(-30.625 -49.918)" fill="#2f3f4f"/>
          <path id="Trazado_155540" data-name="Trazado 155540" d="M168.067,77.189l-3.118-.356c.069-.636,1.527-15.677-14.842-17.543-16.719-1.915-20.785,11.2-20.953,11.757l-3.008-.895c.046-.163,5.053-16.185,24.316-13.982,10.172,1.16,14.433,6.843,16.216,11.407a22.07,22.07,0,0,1,1.389,9.612" transform="translate(-12.811 -5.683)" fill="#f57c64"/>
          <path id="Trazado_155541" data-name="Trazado 155541" d="M77.506,192.249l-21.583,5.83a9.918,9.918,0,0,0-7.163,7.762L38.37,261.761a9.917,9.917,0,0,0,7.963,11.566l32.748,6s6.406-46.476,6.144-48.068-7.719-39.01-7.719-39.01" transform="translate(-3.88 -19.524)" fill="#ffcfa6"/>
          <path id="Trazado_155542" data-name="Trazado 155542" d="M177.544,77.645,143.035,277.462,69.982,264.839l-1.084-.188c-.157-.031-.3-.063-.456-.094A10.956,10.956,0,0,1,59.965,252l26.282-152.1a37.4,37.4,0,0,1,18.133-26.047c.581-.33,1.163-.643,1.759-.942a37.283,37.283,0,0,1,23.393-3.549Z" transform="translate(-6.074 -6.988)" fill="#f57c64"/>
          <path id="Trazado_155543" data-name="Trazado 155543" d="M107.116,73.367,70.958,265.3l-1.084-.189c-.156-.031-.3-.063-.455-.094l35.938-190.71c.58-.33,1.162-.644,1.758-.942" transform="translate(-7.05 -7.451)" fill="#2f3f4f"/>
          <path id="Trazado_155544" data-name="Trazado 155544" d="M134.014,75.978s15.379,34.729,15.322,36.028-24.754,17.583-24.754,17.583-34.462,29.339-50.008,36.8c-17.4,8.354-29.026-15.813-29.026-15.813s33.66-40.874,50.545-55.1a95.661,95.661,0,0,1,20.581-12.968c.484-.239.977-.465,1.444-.673a103.083,103.083,0,0,1,15.9-5.856" transform="translate(-4.626 -7.716)" fill="#f9b3a2"/>
          <path id="Trazado_155545" data-name="Trazado 155545" d="M21.068,104.179s3.363,7.893,7.765,17.782c.211.472.421.943.649,1.429.652,1.476,1.322,2.983,2.026,4.517.21.472.436.942.648,1.429,5.719,12.589,12.115,26.006,15.182,30.127,9.089,12.2,21.5,10.163,25.221,8.278,7.953-4,3.587-26.8,3.587-26.8l-14.09-25.677-.769-1.373L58.91,109.54l-.771-1.388L48.962,91.427,26.7,95.167Z" transform="translate(-2.14 -9.285)" fill="#f9b3a2"/>
          <path id="Trazado_155546" data-name="Trazado 155546" d="M41.273,77.262s-1.632,22.577-2.025,22.608-19.767.235-19.767.235S10.406,85.819,8.538,81.548c-3.3-7.5-3.47-11.759-2.685-16.485.111-.722.268-1.445.424-2.214.063-.377.142-.738.22-1.13.063-.3.141-.581.22-.848a10.1,10.1,0,0,1,.738-1.853,11.4,11.4,0,0,1,1.7-2.512,11.151,11.151,0,0,1,1.13-1.146,5.35,5.35,0,0,1,.472-.393,10.452,10.452,0,0,1,1.256-.942,23.21,23.21,0,0,1,3.061-1.774,2.111,2.111,0,0,1,.377-.141,5.478,5.478,0,0,1,.895-.345,4.287,4.287,0,0,1,.643-.173c.314-.078.643-.141.973-.189a11.327,11.327,0,0,1,3.784.064c4,.769,5.872,4,7.788,6.939,1.8,2.8,3.564,5.589,5.322,8.416,2.151,3.47,4.3,6.94,6.421,10.441" transform="translate(-0.555 -5.207)" fill="#f9b3a2"/>
          <path id="Trazado_155547" data-name="Trazado 155547" d="M27.368,66.977a.852.852,0,0,1-.393.094A.765.765,0,0,1,26.3,66.7L17.57,51.779a4.325,4.325,0,0,1,.644-.173,9.652,9.652,0,0,1,.973-.189L27.65,65.894a.793.793,0,0,1-.282,1.084" transform="translate(-1.784 -5.222)" fill="#2f3f4f"/>
          <path id="Trazado_155548" data-name="Trazado 155548" d="M20.613,69.582a.749.749,0,0,1-.393.11.776.776,0,0,1-.675-.393l-8.2-14.02a10.428,10.428,0,0,1,1.256-.942L20.9,68.514a.774.774,0,0,1-.282,1.067" transform="translate(-1.153 -5.518)" fill="#2f3f4f"/>
          <path id="Trazado_155549" data-name="Trazado 155549" d="M14.034,72.469a.9.9,0,0,1-.393.094.762.762,0,0,1-.675-.377L6.859,61.747A10.134,10.134,0,0,1,7.6,59.894l6.72,11.492a.793.793,0,0,1-.283,1.084" transform="translate(-0.697 -6.083)" fill="#2f3f4f"/>
          <path id="Trazado_155550" data-name="Trazado 155550" d="M10.37,93.777.692,80.19a3.728,3.728,0,0,1,.873-5.2L33.321,52.37a3.728,3.728,0,0,1,5.2.873L48.2,66.83a3.727,3.727,0,0,1-.873,5.2L15.57,94.651a3.729,3.729,0,0,1-5.2-.874" transform="translate(0 -5.248)" fill="#2f3f4f"/>
          <path id="Trazado_155551" data-name="Trazado 155551" d="M57.175,91.991a22.665,22.665,0,0,0-.025-3.172c-.557-6.928-6.707-14.641-7.868-21.483-.292-1.72-.427-3.548-1.354-5s-3.02-2.286-4.33-1.173a3.78,3.78,0,0,0-.934,1.387c-1.789,4.04-.807,8.71-.821,13.142-.015,4.482-1.088,8.889-1.637,13.34s-.523,9.182,1.492,13.127a4.568,4.568,0,0,0,1.129,1.531,4.811,4.811,0,0,0,2.057.816c2.973.633,6.223,1.8,7.366-1.831,1.26-4,4.675-6.523,4.923-10.684" transform="translate(-4.052 -6.16)" fill="#f9b3a2"/>
          <path id="Trazado_155552" data-name="Trazado 155552" d="M269.466,503.149H215.755a7.556,7.556,0,0,1-7.364-5.967l-2.182-17.4-.486-3.893L202,446.189l34.337-4.083s1.947,33.127,2.04,33.364a3.06,3.06,0,0,0,.268.188h.015c.094.063.22.142.361.236,1.067.643,3.391,2.072,6.327,3.893,3.407,2.088,7.615,4.694,11.744,7.3.534.345,1.051.691,1.586,1.021.455.283.895.565,1.334.848,6.845,4.365,12.733,8.352,13.047,9.278.015.031.015.063.031.094a3.751,3.751,0,0,1-3.627,4.82" transform="translate(-20.515 -44.899)" fill="#f9b3a2"/>
          <path id="Trazado_155553" data-name="Trazado 155553" d="M269.887,506.968H216.176A7.556,7.556,0,0,1,208.812,501l-2.182-17.4-.486-3.893h33.3c.91.549,2.747,1.679,5.118,3.14.015,0,0,.015,0,.015.376.22.785.471,1.208.738.2.126.424.267.644.393.439.267.88.55,1.35.832,1.632,1.005,3.391,2.088,5.2,3.219.439.282.895.565,1.35.847,1.052.659,2.135,1.335,3.2,2.01.534.345,1.051.691,1.586,1.021.455.283.895.565,1.334.848,6.845,4.365,12.733,8.352,13.047,9.278.015.031.015.063.031.094a3.751,3.751,0,0,1-3.627,4.82" transform="translate(-20.936 -48.719)" fill="#f57c64"/>
          <path id="Trazado_155554" data-name="Trazado 155554" d="M228.957,479.023s8.5-6.476,11.415-6.084,8.407,13.345,8.407,13.345l-17.074,1.57Z" transform="translate(-23.252 -48.029)" fill="#f57c64"/>
          <path id="Trazado_155555" data-name="Trazado 155555" d="M251.82,485.316l-1.429,1.869-.22.3-2.685,3.533a.83.83,0,0,1-.628.3.82.82,0,0,1-.487-.156.78.78,0,0,1-.141-1.1l1.8-2.37,1.617-2.151.817-1.052c.439.267.88.549,1.35.832" transform="translate(-24.99 -49.203)" fill="#fff"/>
          <path id="Trazado_155556" data-name="Trazado 155556" d="M259.143,489.84l-4.02,5.291a.8.8,0,0,1-.628.314.844.844,0,0,1-.471-.157.8.8,0,0,1-.157-1.115l3.925-5.181c.439.283.895.565,1.35.848" transform="translate(-25.766 -49.661)" fill="#fff"/>
          <path id="Trazado_155557" data-name="Trazado 155557" d="M66.753,499.578,31.894,458.716a7.555,7.555,0,0,1-.24-9.474l11.818-12.95,2.646-2.9L66.3,411.285l25.39,23.474S67.754,457.74,67.635,457.964a2.877,2.877,0,0,0,.031.325l.01.012c.013.112.035.259.055.428.2,1.23.624,3.925,1.145,7.341.623,3.947,1.37,8.839,2.067,13.672.084.63.157,1.248.253,1.869.08.529.151,1.048.221,1.565,1.122,8.04,1.909,15.108,1.408,15.948-.013.032-.037.052-.051.084a3.75,3.75,0,0,1-6.02.369" transform="translate(-3.057 -41.769)" fill="#f9b3a2"/>
          <path id="Trazado_155558" data-name="Trazado 155558" d="M66.753,502.078,31.894,461.216a7.555,7.555,0,0,1-.24-9.474l11.818-12.95,2.646-2.9,21.612,25.334c.173,1.049.506,3.18.933,5.932.01.013-.013.011-.013.011.078.43.152.9.224,1.4.037.236.072.495.119.744.082.508.152,1.025.243,1.568.3,1.894.613,3.934.924,6.042.07.518.151,1.048.231,1.578.181,1.228.371,2.49.55,3.741.084.63.157,1.248.253,1.869.08.529.151,1.048.221,1.565,1.122,8.04,1.909,15.108,1.408,15.948-.013.032-.037.052-.051.084a3.75,3.75,0,0,1-6.02.369" transform="translate(-3.057 -44.268)" fill="#f57c64"/>
          <path id="Trazado_155559" data-name="Trazado 155559" d="M62.177,453.25s10.445,2.266,12.036,4.736-4.7,15.057-4.7,15.057L57.242,461.072Z" transform="translate(-5.813 -46.031)" fill="#f57c64"/>
          <path id="Trazado_155560" data-name="Trazado 155560" d="M72.759,474.659l-2.349.126-.37.026-4.429.25a.826.826,0,0,1-.635-.284.817.817,0,0,1-.2-.472.778.778,0,0,1,.744-.821l2.976-.165,2.686-.165,1.33-.062c.083.508.153,1.026.243,1.568" transform="translate(-6.579 -48.046)" fill="#fff"/>
          <path id="Trazado_155561" data-name="Trazado 155561" d="M74.1,483.139l-6.634.376a.8.8,0,0,1-.646-.274.853.853,0,0,1-.187-.461.8.8,0,0,1,.747-.843l6.489-.376c.07.518.15,1.048.231,1.578" transform="translate(-6.767 -48.906)" fill="#fff"/>
          <path id="Trazado_155562" data-name="Trazado 155562" d="M165.083,277.55s-3.486,10.974-8.038,25.215c-5.48,17.019-12.529,38.733-17.082,51.983-8.368,24.336-58.483,69.207-58.483,69.207L46.4,390.325s43.568-38.356,45.515-50.759c1.555-9.8,9.044-73.179,11.665-88.188,2.654-15.15,8.588-34.179,11.65-43.521,1.177-3.579,1.931-5.73,1.931-5.73s26.722-12.5,30.38-12.5c2.748,0,9.4,8.588,12.623,12.953,1.084,1.491,1.774,2.481,1.774,2.481l.314,7.332Z" transform="translate(-4.713 -19.258)" fill="#ffe7cf"/>
          <path id="Trazado_155563" data-name="Trazado 155563" d="M232.119,434.311H185.8s-16.752-113.56-18.055-126.387c-.126-1.208-.3-2.575-.5-4.05-2.089-14.1-8.134-39-13.11-52.721-3.579-9.892-5.589-28.386-6.547-40.052-.518-6.249-.738-10.55-.738-10.55l23.519,3.14,49.487,6.61.424,7.818Z" transform="translate(-14.914 -20.367)" fill="#ffe7cf"/>
          <path id="Trazado_155564" data-name="Trazado 155564" d="M178.963,253.538a20.757,20.757,0,0,1-3.393-.29.785.785,0,0,1-.634-.91.777.777,0,0,1,.909-.636c1.836.323,7.235.72,8.02-1.634.907-2.723,2.941-24.793,3.888-36.082a.8.8,0,0,1,.847-.715.782.782,0,0,1,.716.847c-.111,1.34-2.769,32.867-3.961,36.447-.816,2.446-3.89,2.974-6.392,2.974" transform="translate(-17.765 -21.659)" fill="#2f3f4f"/>
          <path id="Trazado_155565" data-name="Trazado 155565" d="M170.546,304.343l-.071,0a.785.785,0,0,1-.712-.852l8.046-90.865a.785.785,0,1,1,1.563.137l-8.046,90.866a.784.784,0,0,1-.78.716" transform="translate(-17.24 -21.521)" fill="#2f3f4f"/>
          <path id="Trazado_155566" data-name="Trazado 155566" d="M217.86,217.009l-47.823-4.616-24.869-2.4-22.153-2.136c1.177-3.579,2.224-7.107,2.224-7.107s26.429-11.121,30.087-11.121c2.747,0,9.4,8.587,12.623,12.952l49.487,6.61Z" transform="translate(-12.493 -19.258)" fill="#a66353"/>
          <rect id="Rectángulo_41394" data-name="Rectángulo 41394" width="16.764" height="1.57" transform="translate(192.822 200.638) rotate(-83.726)" fill="#ffe7cf"/>
          <rect id="Rectángulo_41395" data-name="Rectángulo 41395" width="16.764" height="1.57" transform="translate(124.828 195.38) rotate(-83.726)" fill="#ffe7cf"/>
          <path id="Trazado_155567" data-name="Trazado 155567" d="M226.175,178.021c-1.146,7.128-1.994,11.947-2.26,12.905a7.623,7.623,0,0,1-4.836,4.914,10.34,10.34,0,0,1-2.1.581l-81.328-7.458-6.688-.612-4.177-.377s-6.311-1.507-6.311-14.585c0-3.234,1.727-11.383,4.332-21.792,6.046-24.32,16.847-61.043,21.557-76.854,1.429-4.8,2.292-7.677,2.292-7.677a.05.05,0,0,0,.031-.015c.063-.016.22-.048.471-.111.142-.031.283-.062.409-.093l1.051-.236c.409-.078.864-.173,1.382-.282q1.837-.353,3.438-.613a143.106,143.106,0,0,1,36.2-1.177,95.132,95.132,0,0,1,26.3,6.264c2.449.958,4.711,1.995,6.751,3.03a49.36,49.36,0,0,1,12.749,8.761c4.161,4.381-4.789,67.527-9.263,95.426" transform="translate(-12.032 -6.49)" fill="#2f3f4f"/>
          <path id="Trazado_155568" data-name="Trazado 155568" d="M229.417,11.3A7.016,7.016,0,1,1,222.4,4.284a7.016,7.016,0,0,1,7.016,7.016" transform="translate(-21.874 -0.435)" fill="#a66353"/>
          <path id="Trazado_155569" data-name="Trazado 155569" d="M218.424,11.3a7.016,7.016,0,1,1-7.016-7.016,7.016,7.016,0,0,1,7.016,7.016" transform="translate(-20.758 -0.435)" fill="#a66353"/>
          <path id="Trazado_155570" data-name="Trazado 155570" d="M191,39.042a6.49,6.49,0,0,0,.6.549,2.488,2.488,0,0,0,.3.268,3.218,3.218,0,0,0,.345.3,18.209,18.209,0,0,0,6.139,3.281,17.53,17.53,0,0,0,3.046.643,17.953,17.953,0,0,0,19.343-12.575,18.6,18.6,0,0,0,.77-4.443v-.126a17.915,17.915,0,0,0-1.052-6.72l.015-.015a18.921,18.921,0,0,0-.958-2.167s-.047-.093-.141-.251a17.92,17.92,0,0,0-32.94,3.281c-2.009,6.595,1.068,14.4,4.538,17.977" transform="translate(-18.872 -0.847)" fill="#f9b3a2"/>
          <path id="Trazado_155571" data-name="Trazado 155571" d="M221.9,26.692s.932,13.158-.783,20.661c-2.122,9.29-11.813,9.37-19.8,4.226s-10.7-14.365-10.7-14.365,15.635-7.239,17.633-7.22,13.65-3.3,13.65-3.3" transform="translate(-19.359 -2.711)" fill="#f9b3a2"/>
          <path id="Trazado_155572" data-name="Trazado 155572" d="M215.232,47.633a12.664,12.664,0,0,1-5.555-1.731.785.785,0,0,1,.807-1.347,11.247,11.247,0,0,0,4.748,1.508,10.425,10.425,0,0,0,3.895-.739.785.785,0,0,1,.651,1.429,11.834,11.834,0,0,1-4.546.88" transform="translate(-21.256 -4.514)" fill="#2f3f4f"/>
          <path id="Trazado_155573" data-name="Trazado 155573" d="M208.6,50.349l-.126,5.417-.015.565v.016l-.094,4.914-.016.55-.219,9.718-11.665,2.1-13.016-3.783L191.717,36.6l10,11.037Z" transform="translate(-18.63 -3.717)" fill="#f9b3a2"/>
          <path id="Trazado_155574" data-name="Trazado 155574" d="M210.28,57.426l-.016.565v.015l-.093,4.914a17.049,17.049,0,0,1-2.465-1.208c-3.125-1.932-6.249-7.96-6.437-8.338a31.01,31.01,0,0,0,3.392,1.837c1.7.754,4.946,1.962,5.621,2.214" transform="translate(-20.44 -5.421)" fill="#2f3f4f"/>
          <path id="Trazado_155575" data-name="Trazado 155575" d="M189.662,38.543a6.622,6.622,0,0,0,.6.55,2.481,2.481,0,0,0,.3.267c.26-.854.792-5.554,2.788-7.208,1.861-1.543,6.244-.748,6.411-1.627.753-4.161-.526-9.89,1.831-12.177s11.352-2.935,14.318-2.417a5.12,5.12,0,0,1,3.47,1.821c-2.166-4.02-5.371-7.542-10.081-8.972a18.641,18.641,0,0,0-22.858,12.253c-2.01,6.595-.244,13.93,3.225,17.51" transform="translate(-18.848 -0.815)" fill="#a66353"/>
          <path id="Trazado_155576" data-name="Trazado 155576" d="M187.912,32.35c0,3.5,2.207,6.346,4.927,6.346s4.928-2.841,4.928-6.346S195.56,26,192.839,26s-4.927,2.842-4.927,6.347" transform="translate(-19.084 -2.641)" fill="#f9b3a2"/>
          <path id="Trazado_155577" data-name="Trazado 155577" d="M184.909,64.006a16.372,16.372,0,0,0,11.734,7.771c8.575,1.472,11.157-5.29,11.157-5.29s2.03,11.766,2.03,12.354-4.411,5.594-12.46,5.2-15.506-1.766-17.566-3.435-3.337-9.616-2.846-10.009,7.953-6.593,7.953-6.593" transform="translate(-17.961 -6.5)" fill="#2f3f4f"/>
          <path id="Trazado_155578" data-name="Trazado 155578" d="M243.384,81.1s10.833,7.1,23.916,27.773c11.2,17.69,14.131,26.037,14.131,26.037l-20.411,46.054-27.475-32.578Z" transform="translate(-23.718 -8.236)" fill="#2f3f4f"/>
          <path id="Trazado_155579" data-name="Trazado 155579" d="M158.9,64.856s-4.726,26.534-4.726,33c0,1.978-1.3,6.516-3.109,11.869-2.277,6.689-5.322,14.649-7.615,20.427-1.853,4.694-3.187,7.944-3.187,7.944l-21.164,13.6L102.36,162.433,81.949,111.407s12.1-16.045,27.208-28.26a83.074,83.074,0,0,1,29.611-14.915c1.46-.408,2.873-.769,4.207-1.084.157-.031.314-.078.471-.11s.283-.063.409-.094c.361-.078.722-.157,1.067-.22.471-.11.926-.2,1.366-.3q1.838-.352,3.438-.612a72.59,72.59,0,0,1,9.169-.958" transform="translate(-8.323 -6.587)" fill="#2f3f4f"/>
          <path id="Trazado_155580" data-name="Trazado 155580" d="M81.891,146.066a.784.784,0,0,1-.684-.4l-9.381-16.639a.785.785,0,0,1,1.367-.771l9.381,16.639a.784.784,0,0,1-.3,1.069.77.77,0,0,1-.385.1" transform="translate(-7.284 -12.985)" fill="#2f3f4f"/>
          <path id="Trazado_155581" data-name="Trazado 155581" d="M41.532,105.374a.783.783,0,0,1-.7-.438c-.106-.213-2.569-5.265-2.569-9.844a34.486,34.486,0,0,1,1.975-10.007.785.785,0,0,1,1.475.537,33.53,33.53,0,0,0-1.88,9.47c0,4.217,2.383,9.1,2.405,9.15a.785.785,0,0,1-.7,1.132" transform="translate(-3.886 -8.589)" fill="#2f3f4f"/>
          <path id="Trazado_155582" data-name="Trazado 155582" d="M186.526,216.336a.573.573,0,0,1-.067,0L167.294,214.7a.785.785,0,0,1-.714-.849l.727-8.5a.8.8,0,0,1,.85-.715l19.162,1.636a.785.785,0,0,1,.714.848l-.725,8.5a.782.782,0,0,1-.276.534.79.79,0,0,1-.506.185M168.211,213.2l17.6,1.5.591-6.938-17.6-1.5Z" transform="translate(-16.917 -20.782)" fill="#fff"/>
          <path id="Trazado_155583" data-name="Trazado 155583" d="M124.683,160.387a.785.785,0,0,1-.52-1.373l8.626-7.635a.785.785,0,1,1,1.039,1.176l-8.626,7.635a.783.783,0,0,1-.519.2" transform="translate(-12.583 -15.354)" fill="#0f0a1c"/>
          <path id="Trazado_155584" data-name="Trazado 155584" d="M242.847,160.159a.758.758,0,0,1-.253-.042.785.785,0,0,1-.491-1l12.56-36.9a.786.786,0,0,1,1.488.507l-12.56,36.9a.788.788,0,0,1-.744.532" transform="translate(-24.583 -12.359)" fill="#0f0a1c"/>
          <path id="Trazado_155585" data-name="Trazado 155585" d="M150.287,109.937a173.822,173.822,0,0,1-2.026,25.906,187.023,187.023,0,0,1-17.1,53.428c-20.771,42.61-51.214,69.459-51.638,69.82a3.139,3.139,0,1,1-4.113-4.742c.393-.345,28.967-25.576,49.063-65.69a181.765,181.765,0,0,0,17.569-53.774c.235-1.523.439-3.046.627-4.522,3.11-24.665,0-44.133-2.794-55.312-.675-2.7-1.334-4.914-1.884-6.61,1.46-.409,2.873-.769,4.207-1.084.157-.031.314-.078.471-.11s.283-.063.409-.094l1.052-.236.015.016c2.34,7.3,6.171,22.388,6.139,43" transform="translate(-7.548 -6.796)" fill="#ffcfa6"/>
          <path id="Trazado_155586" data-name="Trazado 155586" d="M237.193,178.8c-1.146,7.128-1.994,11.947-2.26,12.905a7.623,7.623,0,0,1-4.836,4.914c.832-15.324,2.747-57.227.393-86.76-1.947-24.524-3.014-34.352-3.533-38.277,2.449.958,4.711,1.995,6.751,3.03.739,6.3,1.617,16.862,3.046,34.745,1.728,21.619,1.194,49.707.44,69.442" transform="translate(-23.049 -7.27)" fill="#ffcfa6"/>
          <path id="Trazado_155587" data-name="Trazado 155587" d="M419.332,499.158H362.481a7.5,7.5,0,0,1-7.065-4.977,6.61,6.61,0,0,1-.3-.988l-1.271-21.776-.094-1.57-6.673-66.46,34.1-.549,3.987,67.009s-.062,1.382-.062,1.57v.063c.031.063,3.579,2.04,8.509,4.819.816.472,1.68.958,2.575,1.445,1.412.817,2.888,1.649,4.4,2.512.456.267.926.534,1.381.8l1.978,1.131c.518.3,1.052.612,1.57.91,8.6,4.961,16.768,9.907,17.38,11.084.015.031.031.048.031.063.015.031.015.063.031.094a3.75,3.75,0,0,1-3.626,4.82" transform="translate(-35.249 -40.911)" fill="#f9b3a2"/>
          <path id="Trazado_155588" data-name="Trazado 155588" d="M356.359,504.51a7.5,7.5,0,0,0,7.065,4.976h56.851a3.749,3.749,0,0,0,3.626-4.819c-.014-.031-.014-.063-.031-.094,0-.016-.016-.031-.031-.063Z" transform="translate(-36.191 -51.237)" fill="#2f3f4f"/>
          <path id="Trazado_155589" data-name="Trazado 155589" d="M354.507,477.424l.094,1.57H385.86c0-.189.031-.707.063-1.57Z" transform="translate(-36.003 -48.486)" fill="#2f3f4f"/>
          <rect id="Rectángulo_41396" data-name="Rectángulo 41396" width="1.57" height="24.608" transform="translate(333.336 429.722)" fill="#2f3f4f"/>
          <path id="Trazado_155590" data-name="Trazado 155590" d="M365.647,78.635a37.755,37.755,0,0,1,15.366,21.324c3.925,14.522,10.6,63.194,7.795,74.4-2.892,11.562-25.008,17.7-31.929-2.508s-12.616-39.31-12.2-41.273,20.966-51.939,20.966-51.939" transform="translate(-35.003 -7.986)" fill="#f9b3a2"/>
          <path id="Trazado_155591" data-name="Trazado 155591" d="M351.646,168.94H286.1s-5.5-33.159-5.5-51.026c0-17.851-1.747-31.454,8.458-40.326,5.056-4.4,16.018-8.078,22.832-10.732.5-.188,1.005-.376,1.491-.565,6.281-2.355,11.179-3.72,11.179-3.72s7.3,0,20.614,4.976a42.034,42.034,0,0,1,11.226,7c.518.439,1.052.895,1.57,1.367,5.652,5.118,10.5,11.727,10.944,18.055.784,11.195-17.271,74.969-17.271,74.969" transform="translate(-28.486 -6.355)" fill="#f9b3a2"/>
          <path id="Trazado_155592" data-name="Trazado 155592" d="M329.342,43.358a6.33,6.33,0,0,0,.583.537,2.25,2.25,0,0,0,.292.261,3,3,0,0,0,.337.292,17.768,17.768,0,0,0,6,3.208,17.128,17.128,0,0,0,2.977.629,17.553,17.553,0,0,0,18.91-12.3,18.125,18.125,0,0,0,.751-4.343v-.123a17.509,17.509,0,0,0-1.027-6.569l.013-.015a18.534,18.534,0,0,0-.934-2.119s-.047-.093-.139-.246a17.519,17.519,0,0,0-32.2,3.208c-1.966,6.447,1.043,14.076,4.436,17.575" transform="translate(-32.933 -1.355)" fill="#f9b3a2"/>
          <path id="Trazado_155593" data-name="Trazado 155593" d="M359.557,31.284s.911,12.864-.765,20.2c-2.075,9.082-11.549,9.16-19.353,4.132s-10.466-14.044-10.466-14.044,15.285-7.077,17.239-7.058,13.345-3.229,13.345-3.229" transform="translate(-33.41 -3.177)" fill="#f9b3a2"/>
          <path id="Trazado_155594" data-name="Trazado 155594" d="M346.547,54.413l-.123,5.3-.015.553v.015l-.092,4.8-.015.537-.215,9.5-11.4,2.057-12.725-3.7,8.089-32.51,9.778,10.79Z" transform="translate(-32.697 -4.161)" fill="#f9b3a2"/>
          <path id="Trazado_155595" data-name="Trazado 155595" d="M348.194,61.331l-.015.553V61.9l-.093,4.8a16.657,16.657,0,0,1-2.41-1.182c-3.055-1.888-6.109-7.782-6.293-8.151a30.152,30.152,0,0,0,3.315,1.8c1.658.737,4.835,1.919,5.495,2.164" transform="translate(-34.467 -5.826)" fill="#2f3f4f"/>
          <path id="Trazado_155596" data-name="Trazado 155596" d="M356.459,48.942l-9.741-.2s.345,2.531,4.392,3.141a4.82,4.82,0,0,0,5.348-2.937" transform="translate(-35.212 -4.95)" fill="#fff"/>
          <path id="Trazado_155597" data-name="Trazado 155597" d="M328.036,42.871a6.572,6.572,0,0,0,.583.537,2.368,2.368,0,0,0,.292.261c.254-.834.774-5.429,2.726-7.046,1.819-1.508,5.725-8.434,5.888-9.293.737-4.068-.134-1.968,2.171-4.2s11.1-2.871,14-2.364a5,5,0,0,1,3.392,1.781c-2.118-3.93-5.25-7.374-9.855-8.771a18.225,18.225,0,0,0-22.348,11.979c-1.965,6.446-.239,13.619,3.154,17.118" transform="translate(-32.91 -1.324)" fill="#2f3f4f"/>
          <path id="Trazado_155598" data-name="Trazado 155598" d="M326.326,36.816c0,3.427,2.157,6.2,4.817,6.2s4.817-2.778,4.817-6.2-2.157-6.2-4.817-6.2-4.817,2.778-4.817,6.2" transform="translate(-33.141 -3.109)" fill="#f9b3a2"/>
          <path id="Trazado_155599" data-name="Trazado 155599" d="M351.934,20.319a33.882,33.882,0,0,1-.288,6.044,6.462,6.462,0,0,1-1.7,3.7H336.84l1.152-8.115s4.228-2.3,6.751-2.622,7.191.991,7.191.991" transform="translate(-34.209 -1.958)" fill="#2f3f4f"/>
          <path id="Trazado_155600" data-name="Trazado 155600" d="M352.928,20.366a11.373,11.373,0,0,1,2.494,4.988,12.173,12.173,0,0,1,0,4.79h7.419s.831-4.47-1.535-7.859-8.378-1.919-8.378-1.919" transform="translate(-35.843 -2.036)" fill="#2f3f4f"/>
          <path id="Trazado_155601" data-name="Trazado 155601" d="M332.382,14.237S331.359,4.49,324.324,1.42,308.782.261,305.808,7.137c-2.171,5.02-4.381,10.361-8.858,12.536s-6.139,4.146-6.651,7.829l-.511,3.683,19.826,1.151a15.943,15.943,0,0,0,5.068-7.978c1.387-5.713-1.742-7.894,3.118-12.371S329.952,15.2,329.952,15.2Z" transform="translate(-29.43 0)" fill="#2f3f4f"/>
          <path id="Trazado_155602" data-name="Trazado 155602" d="M332.576,41.939a1.427,1.427,0,1,1-1.428-1.427,1.427,1.427,0,0,1,1.428,1.427" transform="translate(-33.486 -4.114)" fill="#fff"/>
          <path id="Trazado_155603" data-name="Trazado 155603" d="M280.62,126.271s12.6,4.207,23.4-3.839c7.919-5.9,16.981-17.467,16.981-17.467l18.874,16.486L357.4,104.965s7.143,11.367,8.282,19.814-14.016,48.475-14.016,48.475l-35.479,13.157-33.012-13.157Z" transform="translate(-28.499 -10.66)" fill="#ffeae6"/>
          <path id="Trazado_155604" data-name="Trazado 155604" d="M375.386,431.817H258.341s2.088-177.9,6.406-202.6c2.653-15.167,8.148-29.909,11.994-39.016,2.4-5.73,4.161-9.231,4.161-9.231h68.5a99.844,99.844,0,0,1,5.228,9.231c5.228,10.268,12.592,28.088,13.549,48.279,1.146,23.927,7.206,193.333,7.206,193.333" transform="translate(-26.237 -18.379)" fill="#4663ab"/>
          <path id="Trazado_155605" data-name="Trazado 155605" d="M316.432,207.917c-.17-.378-.484-1.083,35.072-93.864l1.466.562c-9.6,25.054-34.614,90.607-35.046,93.044l-.658-.116Z" transform="translate(-32.134 -11.583)" fill="#2f3f4f"/>
          <path id="Trazado_155606" data-name="Trazado 155606" d="M356.711,190.205h-77.89c2.4-5.73,4.161-9.231,4.161-9.231h68.5a99.69,99.69,0,0,1,5.228,9.231" transform="translate(-28.316 -18.379)" fill="#2f3f4f"/>
          <path id="Trazado_155607" data-name="Trazado 155607" d="M299.685,180.974l-.424,9.232-.189,3.957-1.57-.063.189-3.894.424-9.232Z" transform="translate(-30.214 -18.379)" fill="#4663ab"/>
          <path id="Trazado_155608" data-name="Trazado 155608" d="M359.431,194.1l-1.57.063-.189-3.957-.424-9.231h1.57l.424,9.231Z" transform="translate(-36.281 -18.379)" fill="#4663ab"/>
          <path id="Trazado_155609" data-name="Trazado 155609" d="M325.977,103.64l-1.539.376-9-36.738c.5-.189,1.005-.377,1.491-.565Z" transform="translate(-32.036 -6.775)" fill="#ffeae6"/>
          <path id="Trazado_155610" data-name="Trazado 155610" d="M366.554,77.271v26.518h-1.57V75.9c.517.439,1.051.895,1.57,1.366" transform="translate(-37.067 -7.709)" fill="#ffe7cf"/>
          <path id="Trazado_155611" data-name="Trazado 155611" d="M311.906,93.763s25.414,74.431,25.458,74.54c.474,1.19-5.073,6.144-5.889,6.973-5.056,5.131-12.982,11.562-20.741,9.654-6.5-1.6-9.939-8.839-12.813-14.212-7.739-14.473-11.151-26.079-16.094-41.692-.41-1.295-.818-2.59-1.207-3.891l11.266-18.37Z" transform="translate(-28.499 -9.522)" fill="#f9b3a2"/>
          <path id="Trazado_155612" data-name="Trazado 155612" d="M363.1,102.78s-1.523,6.171-3.988,15.15c-.769,2.8-1.617,5.841-2.559,9.075-6.484,22.514-16.532,53.255-24.272,58-14.1,8.635-25.466-4.318-25.466-4.318l14.224-46.9,6.171-16.093,3.392-8.807,5.651-14.743Z" transform="translate(-31.16 -9.561)" fill="#f9b3a2"/>
          <path id="Trazado_155613" data-name="Trazado 155613" d="M350.023,123.589l7.765,45.886,18.729,1.019s-1.1-27.476-1.434-29.438,2.415-24.139,2.415-24.139-4.056-21.261-4.318-26.233a30.306,30.306,0,0,0-2.393-9.123,47.967,47.967,0,0,0-2.95-6.962c-1.378-2.363-3.309-3.508-5.831-4.446a37.479,37.479,0,0,0-11.36-2.318C347.32,67.7,341.519,80.086,341,82.048s9.028,41.54,9.028,41.54" transform="translate(-34.629 -6.889)" fill="#f9b3a2"/>
          <path id="Trazado_155614" data-name="Trazado 155614" d="M363.571,120.272l-2.81,9-1.9-.6-29.344-9.31,3.391-8.808L361.42,119.6Z" transform="translate(-33.465 -11.228)" fill="#a66353"/>
          <path id="Trazado_155615" data-name="Trazado 155615" d="M349.642,118.548a6.574,6.574,0,1,0-6.575,6.575,6.575,6.575,0,0,0,6.575-6.575" transform="translate(-34.174 -11.372)" fill="#fff"/>
          <path id="Trazado_155616" data-name="Trazado 155616" d="M334.265,105.7l-1.466-.562,3.3-8.59c.293-.765,1.177-4.419,2.114-8.289,1.348-5.566,2.873-11.874,3.741-14.321,1.6-4.521,6.574-6.313,6.784-6.386a.785.785,0,0,1,.521,1.481c-.044.015-4.477,1.626-5.825,5.43-.841,2.371-2.424,8.911-3.7,14.165-1.144,4.727-1.86,7.665-2.174,8.483Z" transform="translate(-33.798 -6.856)" fill="#2f3f4f"/>
          <path id="Trazado_155617" data-name="Trazado 155617" d="M387.55,158.094a.785.785,0,0,1-.772-.65l-12.5-71.652a.784.784,0,1,1,1.545-.27l12.505,71.652a.785.785,0,0,1-.774.92" transform="translate(-38.009 -8.62)" fill="#2f3f4f"/>
          <path id="Trazado_155618" data-name="Trazado 155618" d="M313.531,159.182a.807.807,0,0,1-.283-.052.788.788,0,0,1-.451-1.015L323.78,129.59a.786.786,0,1,1,1.466.564l-10.983,28.525a.784.784,0,0,1-.732.5" transform="translate(-31.762 -13.11)" fill="#2f3f4f"/>
          <path id="Trazado_155619" data-name="Trazado 155619" d="M356.2,145.711a.767.767,0,0,1-.267-.047.785.785,0,0,1-.471-1.006c.109-.3,10.983-30.35,11.814-33.928.509-2.19.19-6.647-.147-11.363-.2-2.84-.412-5.778-.461-8.462-.131-7.089-.744-14.95-.75-15.029a.784.784,0,0,1,.721-.844.808.808,0,0,1,.844.721c.006.079.625,7.985.756,15.122.048,2.643.256,5.56.458,8.38.345,4.839.672,9.408.111,11.83-.853,3.667-11.417,32.868-11.868,34.108a.785.785,0,0,1-.738.518" transform="translate(-36.095 -7.62)" fill="#2f3f4f"/>
          <path id="Trazado_155620" data-name="Trazado 155620" d="M361.025,94.941l-1.568-.078s.686-13.843.872-16.916a7.725,7.725,0,0,1,3.2-5.48.785.785,0,0,1,.881,1.3,6.224,6.224,0,0,0-2.515,4.274c-.186,3.071-.871,16.9-.871,16.9" transform="translate(-36.506 -7.346)" fill="#2f3f4f"/>
          <path id="Trazado_155621" data-name="Trazado 155621" d="M352.6,94.146a.643.643,0,0,1-.072,0,.784.784,0,0,1-.712-.851c.05-.563,1.243-13.849,2.233-17.5a10.832,10.832,0,0,1,4.316-5.957.785.785,0,0,1,.832,1.331,9.4,9.4,0,0,0-3.633,5.034c-.952,3.524-2.172,17.1-2.183,17.234a.785.785,0,0,1-.781.715" transform="translate(-35.729 -7.08)" fill="#2f3f4f"/>
          <path id="Trazado_155622" data-name="Trazado 155622" d="M345.607,93.261c-.026,0-.052,0-.078,0a.787.787,0,0,1-.705-.858c.011-.1,1-10.1,1.873-14.911a16.9,16.9,0,0,1,4.656-8.55.785.785,0,0,1,1.068,1.151,15.557,15.557,0,0,0-4.178,7.681c-.868,4.751-1.846,14.682-1.855,14.782a.786.786,0,0,1-.781.709" transform="translate(-35.019 -6.98)" fill="#2f3f4f"/>
          <path id="Trazado_155623" data-name="Trazado 155623" d="M320.426,109.312a.789.789,0,0,1-.744-.531L316.4,99.17a.786.786,0,0,1,1.487-.508l3.283,9.612a.786.786,0,0,1-.491,1,.773.773,0,0,1-.253.042" transform="translate(-32.129 -9.966)" fill="#2f3f4f"/>
          <path id="Trazado_155624" data-name="Trazado 155624" d="M411.943,492.066v13.581h-1.57V491.155c.518.3,1.052.613,1.57.911" transform="translate(-41.677 -49.881)" fill="#2f3f4f"/>
          <path id="Trazado_155625" data-name="Trazado 155625" d="M333.335,436.081a.785.785,0,0,1-.785-.777l-1.688-170.741a.785.785,0,0,1,.777-.792.74.74,0,0,1,.793.777l1.688,170.741a.786.786,0,0,1-.778.792Z" transform="translate(-33.602 -26.788)" fill="#2f3f4f"/>
          <path id="Trazado_155626" data-name="Trazado 155626" d="M316.265,219.111v20.583a7.7,7.7,0,0,1-7.693,7.709H260.231a7.712,7.712,0,0,1-7.71-7.709V219.111a7.712,7.712,0,0,1,7.71-7.709h48.341a7.7,7.7,0,0,1,7.693,7.709" transform="translate(-25.646 -21.47)" fill="#2f3f4f"/>
          <rect id="Rectángulo_41397" data-name="Rectángulo 41397" width="1.57" height="36.001" transform="translate(280.98 189.932)" fill="#0f0a1c"/>
          <path id="Trazado_155627" data-name="Trazado 155627" d="M308.195,223.318a.778.778,0,0,1-.785.785H252.522v-1.57H307.41a.788.788,0,0,1,.785.785" transform="translate(-25.646 -22.6)" fill="#0f0a1c"/>
          <path id="Trazado_155628" data-name="Trazado 155628" d="M571.68,116.22c-.376,2.873-32.453,80.338-32.453,80.338s-51.418-8.761-47.289-35.592c3.14-20.411,28.778-69.333,40.224-79.412a51.664,51.664,0,0,1,6.421-4.835c1.727-1.084,3.422-2.025,5.039-2.826a45.625,45.625,0,0,1,12.388-4.16s16.03,43.615,15.669,46.488" transform="translate(-49.936 -7.082)" fill="#ffcfa6"/>
          <path id="Trazado_155629" data-name="Trazado 155629" d="M540.206,218.945a2.358,2.358,0,0,1-2.061-1.212l-10.76-19.364a2.356,2.356,0,0,1,4.118-2.287l10.76,19.364a2.357,2.357,0,0,1-2.057,3.5" transform="translate(-53.53 -19.79)" fill="#2f3f4f"/>
          <path id="Trazado_155630" data-name="Trazado 155630" d="M796.409,31.274l11.67,17.785-3.138,9.233s-38.5,14.469-48.167,16.155-16.192-10.656-16.23-14.58,7.24-19.326,10.135-19.685,45.731-8.908,45.731-8.908" transform="translate(-75.208 -3.176)" fill="#f9b3a2"/>
          <path id="Trazado_155631" data-name="Trazado 155631" d="M571.452,452.521l-2.716,29.658-1.382,15.167a7.5,7.5,0,0,1-7.458,6.8h-20.19a5.235,5.235,0,0,1-5.118-6.437l1.366-12.953.267-2.575,4.113-39.094Z" transform="translate(-54.277 -44.999)" fill="#f9b3a2"/>
          <path id="Trazado_155632" data-name="Trazado 155632" d="M702.3,504.56H651.792a7.1,7.1,0,0,1-6.924-5.611l-2.052-16.358L638.859,451l32.289-3.839s1.831,31.153,1.919,31.374a2.627,2.627,0,0,0,.251.178h.015c.783.487,3.16,1.949,6.29,3.883,3.2,1.963,7.161,4.414,11.043,6.865.5.325.99.65,1.491.96.429.266.842.532,1.255.8,6.437,4.1,11.974,7.855,12.269,8.727.014.029.014.058.03.088a3.527,3.527,0,0,1-3.411,4.533" transform="translate(-64.881 -45.412)" fill="#f9b3a2"/>
          <path id="Trazado_155633" data-name="Trazado 155633" d="M656.969,247.494,667.3,442.628H623.75S608,335.833,606.771,323.775s-7.628-39.124-12.8-53.4-5.659-22.884-5.659-22.884Z" transform="translate(-59.748 -25.135)" fill="#2f3f4f"/>
          <path id="Trazado_155634" data-name="Trazado 155634" d="M605.982,246.13c-.236.989-3.928,39.376-3.928,39.376L575.229,441.269H529.71l10.571-141.382.665-8.785,4.267-57.034S574.49,245.644,576.7,246.13s29.528-.989,29.277,0" transform="translate(-53.796 -23.771)" fill="#2f3f4f"/>
          <path id="Trazado_155635" data-name="Trazado 155635" d="M543.726,249.467s20.218,32.952,53.47,34.148c32.751,1.178,55.254-33.363,55.254-33.363l-97.734-8.635Z" transform="translate(-55.22 -24.538)" fill="#fff"/>
          <path id="Trazado_155636" data-name="Trazado 155636" d="M763.388,71.376l-5.793,1.79-12.984,4.02-48.922,15.15S675.168,71.752,674.9,70.873c-.282-.88.3-13.973.3-13.973l37.728-10.048s19.923-4.3,35.78-7.1c2.5-.439,4.883-.832,7.081-1.162.377-.063.722-.125,1.083-.173,16.061-2.4,6.516,32.955,6.516,32.955" transform="translate(-68.534 -3.89)" fill="#f9b3a2"/>
          <path id="Trazado_155637" data-name="Trazado 155637" d="M765.483,73.2,752.5,77.218l4.1-37.43c2.5-.439,4.883-.832,7.082-1.162Z" transform="translate(-76.422 -3.923)" fill="#fff"/>
          <path id="Trazado_155638" data-name="Trazado 155638" d="M577.689,27.36a18.327,18.327,0,0,0,18.635,14.4,17.988,17.988,0,0,0,3.155-.4,18.382,18.382,0,0,0,6.527-2.836c.247-.167.475-.33.7-.511.228-.163.437-.338.642-.517,3.83-3.353,7.605-11.046,6.107-17.923a18.308,18.308,0,0,0-34.553-3.69l0,.018a18.22,18.22,0,0,0-1.623,6.746.458.458,0,0,0-.008.134,18.6,18.6,0,0,0,.414,4.586" transform="translate(-58.626 -0.523)" fill="#f9b3a2"/>
          <path id="Trazado_155639" data-name="Trazado 155639" d="M608.433,35.533s-3.543,9.169-12.092,13.745-18.4,3.692-19.784-5.949c-.074-.576-.148-1.181-.192-1.8-.029-.222-.044-.443-.059-.679-.029-.473-.044-.96-.058-1.462-.015-.384-.015-.767-.015-1.166a116.847,116.847,0,0,1,1.241-15.975s11.575,4.341,13.612,4.489,17.348,8.8,17.348,8.8" transform="translate(-58.521 -2.259)" fill="#f9b3a2"/>
          <path id="Trazado_155640" data-name="Trazado 155640" d="M588.957,65.447l11.806,7.424L614.2,65.417l-5.832-24.612-.074-.369-.163-.62-.177-.739-3,.975-6.614,2.1-7.191,2.3-.354,3.4-.34,3.248-.251,2.407-.252,2.318-.207,2.022Z" transform="translate(-59.813 -3.969)" fill="#f9b3a2"/>
          <path id="Trazado_155641" data-name="Trazado 155641" d="M579.081,15.878l.014.014a10.231,10.231,0,0,0,2.348,1.521,26.79,26.79,0,0,0,6.054,2.008h.014a5.337,5.337,0,0,1,4.282,3.986c.133.62.28,1.24.413,1.831.222.93.443,1.771.62,2.273a18.648,18.648,0,0,0,2.673,5.3,13.3,13.3,0,0,0,8.12,5,29.3,29.3,0,0,0,3.971.414,48.017,48.017,0,0,0,4.607-6.851,13.018,13.018,0,0,0,.664-1.374c.089-.221.177-.443.251-.65.089-.251.163-.487.222-.723a17.96,17.96,0,0,0,.429-1.993c.044-.178.074-.355.1-.517a3.619,3.619,0,0,0,.075-.679,3.55,3.55,0,0,0,.074-.678,18.841,18.841,0,0,0-.369-5.2,18.311,18.311,0,0,0-21.777-14,17.925,17.925,0,0,0-10.01,6.009,9.72,9.72,0,0,0-.708.871,4.889,4.889,0,0,0-.413.532c-.089.119-.163.236-.236.354-.044.075-.1.148-.148.222a4.584,4.584,0,0,1-.28.457c-.222.369-.428.753-.65,1.167-.118.206-.222.457-.34.694" transform="translate(-58.81 -0.523)" fill="#ffe7cf"/>
          <path id="Trazado_155642" data-name="Trazado 155642" d="M577.626,26.39s-5.33,6.189-5.44,6.763,5.034,2.909,5.034,2.909Z" transform="translate(-58.11 -2.68)" fill="#f9b3a2"/>
          <path id="Trazado_155643" data-name="Trazado 155643" d="M591.127,33.37a5.982,5.982,0,1,0,11.646-2.537,5.983,5.983,0,1,0-11.646,2.537" transform="translate(-60.017 -2.602)" fill="#f9b3a2"/>
          <path id="Trazado_155644" data-name="Trazado 155644" d="M589.844,59.156a8.263,8.263,0,0,0,.856-.3c4.237-1.653,7.161-6.555,7.339-6.865l-7.737,2.82-.252,2.318Z" transform="translate(-59.903 -5.281)" fill="#2f3f4f"/>
          <path id="Trazado_155645" data-name="Trazado 155645" d="M581.607,40.026a7.407,7.407,0,0,1-5.242,3.307c-.03-.221-.044-.443-.059-.679-.029-.473-.044-.96-.058-1.462-.015-.384-.015-.767-.015-1.166Z" transform="translate(-58.521 -4.065)" fill="#fff"/>
          <path id="Trazado_155646" data-name="Trazado 155646" d="M659.439,235.3H532.717l3.543-36.94,1.343-13.982,3.4-35.4L560.178,68.7l74.577-9.125,22.469,2.986Z" transform="translate(-54.102 -6.051)" fill="#ffcfa6"/>
          <path id="Trazado_155647" data-name="Trazado 155647" d="M589.318,210.345a17.145,17.145,0,0,1-13.991-7.267,26.541,26.541,0,0,1-4.294-13.349,2.355,2.355,0,1,1,4.7-.25,21.773,21.773,0,0,0,3.489,10.955,12.367,12.367,0,0,0,10.613,5.189,9.67,9.67,0,0,0,7.258-3.391c6.746-7.794,4.873-26.7,4.071-34.771a144.221,144.221,0,0,0-3.483-20.273c-6.568-26.6-13.823-43.215-13.894-43.379a2.356,2.356,0,1,1,4.312-1.9c.074.169,7.491,17.154,14.155,44.149a148.822,148.822,0,0,1,3.6,20.937c.934,9.41,2.877,28.993-5.2,38.318a14.334,14.334,0,0,1-10.607,5.013c-.243.011-.488.016-.731.016" transform="translate(-57.993 -10.207)" fill="#2f3f4f"/>
          <path id="Trazado_155648" data-name="Trazado 155648" d="M616.232,62.373,742.754,39.925,744.595,86.7l-89.13,55.254Z" transform="translate(-62.583 -4.055)" fill="#ffcfa6"/>
          <path id="Trazado_155649" data-name="Trazado 155649" d="M790.679,33.621s3-8.037,7.016-11.124,19.482-11.369,22.663-11.719a3.25,3.25,0,0,1,3.672,4.179c-.564,1.64-9.3,7.589-9.788,10.959s3.889,11.567-1.95,15.176-7.326,5.324-9.488,4.589-12.126-12.06-12.126-12.06" transform="translate(-80.3 -1.092)" fill="#f9b3a2"/>
          <path id="Trazado_155650" data-name="Trazado 155650" d="M846.624,25.085c-1.632,2.2-12.168,5.825-12.168,5.825a25.3,25.3,0,0,1,1.052,5.4,13.531,13.531,0,0,1,.093,1.617,19.112,19.112,0,0,1-.392,4.474,15.116,15.116,0,0,1-.535,1.821,10.673,10.673,0,0,1-3.03,4.428c-6.783,5.872-20.567,8.572-20.567,8.572l-6.312-10.409,10.284-19.845S839.857,20,843.609,19.433c3.737-.55,4.647,3.454,3.014,5.652" transform="translate(-81.73 -1.968)" fill="#f9b3a2"/>
          <path id="Trazado_155651" data-name="Trazado 155651" d="M702.748,508.566H652.239a7.081,7.081,0,0,1-6.585-4.5,6.831,6.831,0,0,1-.34-1.108L643.263,486.6H680.07c3.2,1.963,7.161,4.414,11.043,6.865,0,0,.015,0,.015.014.5.311.975.635,1.476.945.429.266.842.532,1.255.8,6.437,4.1,11.974,7.855,12.269,8.727.014.029.014.058.03.088,0,.014,0,.014.014.03a3.536,3.536,0,0,1-3.425,4.5" transform="translate(-65.328 -49.418)" fill="#a66353"/>
          <path id="Trazado_155652" data-name="Trazado 155652" d="M693.552,493.023c.044.147-.03.221-.177.236-.65.1-26.1-5.905-26.1-5.905.562-.414,1.122-.812,1.7-1.2.709-.5,1.418-.975,2.141-1.447a14.963,14.963,0,0,1,5.093-2.436h.015c.782.487,3.159,1.949,6.289,3.883,3.2,1.963,7.161,4.414,11.044,6.865" transform="translate(-67.767 -48.979)" fill="#a66353"/>
          <path id="Trazado_155653" data-name="Trazado 155653" d="M703.018,510.54H652.51a7.081,7.081,0,0,1-6.585-4.5h60.518a3.536,3.536,0,0,1-3.425,4.5" transform="translate(-65.599 -51.392)" fill="#ffe7cf"/>
          <path id="Trazado_155654" data-name="Trazado 155654" d="M568.736,486.6l-1.382,15.167a7.523,7.523,0,0,1-7.457,6.8H539.706a5.218,5.218,0,0,1-5.2-4.506,4.74,4.74,0,0,1,.079-1.931l1.366-12.953.267-2.575Z" transform="translate(-54.277 -49.418)" fill="#a66353"/>
          <path id="Trazado_155655" data-name="Trazado 155655" d="M566.765,506.03a7.489,7.489,0,0,1-6.86,4.506H539.714a5.218,5.218,0,0,1-5.2-4.506Z" transform="translate(-54.284 -51.391)" fill="#ffe7cf"/>
          <path id="Trazado_155656" data-name="Trazado 155656" d="M576.007,469.359H529.4a2.6,2.6,0,0,1-2.6-2.6V459.6a2.6,2.6,0,0,1,2.6-2.6h46.61a2.6,2.6,0,0,1,2.6,2.6v7.163a2.6,2.6,0,0,1-2.6,2.6" transform="translate(-53.5 -46.411)" fill="#ffeae6"/>
          <path id="Trazado_155657" data-name="Trazado 155657" d="M672.352,469.359H626.837a2.6,2.6,0,0,1-2.6-2.6V459.6a2.6,2.6,0,0,1,2.6-2.6h45.515a2.6,2.6,0,0,1,2.6,2.6v7.163a2.6,2.6,0,0,1-2.6,2.6" transform="translate(-63.396 -46.411)" fill="#ffeae6"/>
          <path id="Trazado_155658" data-name="Trazado 155658" d="M612.333,29.747,579.419,14.012a2.073,2.073,0,0,1-.976-2.762l1.6-3.345A2.07,2.07,0,0,1,582.8,6.93l32.914,15.734a2.07,2.07,0,0,1,.976,2.762l-1.6,3.345a2.07,2.07,0,0,1-2.761.976" transform="translate(-58.725 -0.683)" fill="#f57c64"/>
          <path id="Trazado_155659" data-name="Trazado 155659" d="M584.064,7.53s5.692-5.365,10.271-6.673,7.13,1.308,10.14,2.682S610.9,5.5,613.707,8.446s3.066,8.605,2.084,12.774-1.42,4.432-1.42,4.432Z" transform="translate(-59.316 -0.051)" fill="#f57c64"/>
          <path id="Trazado_155660" data-name="Trazado 155660" d="M614.943,22.94a.791.791,0,0,1-.339-.076L585.166,8.8a.785.785,0,0,1,.678-1.416l29.438,14.064a.785.785,0,0,1-.339,1.493" transform="translate(-59.383 -0.742)" fill="#2f3f4f"/>
          <path id="Trazado_155661" data-name="Trazado 155661" d="M548.64,74.363,545.8,100.456a2.349,2.349,0,0,1-2.34,2.1,1.382,1.382,0,0,1-.251-.015,2.348,2.348,0,0,1-2.089-2.591L543.6,77.189a57.579,57.579,0,0,1,5.039-2.827" transform="translate(-54.954 -7.552)" fill="#2f3f4f"/>
          <path id="Trazado_155662" data-name="Trazado 155662" d="M576.006,90.766a1.572,1.572,0,0,1-1.528-1.218c-.106-.459-2.643-11.222-11.223-10.929-8.684.3-11.257,8.217-11.363,8.555a1.57,1.57,0,0,1-3-.922c.031-.1,3.3-10.4,14.256-10.771.149,0,.3-.008.443-.008,8.61,0,12.885,8.7,13.948,13.375a1.57,1.57,0,0,1-1.179,1.879,1.586,1.586,0,0,1-.353.04" transform="translate(-55.737 -7.665)" fill="#2f3f4f"/>
          <path id="Trazado_155663" data-name="Trazado 155663" d="M588.844,185.54a16.071,16.071,0,0,1-1.445,1.476,18.389,18.389,0,0,1-12.45,4.819h-38.56a18.508,18.508,0,0,1-18.118-22.31l4.82-22.937,8.133-38.78.456-2.166,1.13-5.4a18.517,18.517,0,0,1,18.118-14.711h16.91a18.539,18.539,0,0,1,8.007,1.806,23.379,23.379,0,0,1,2.04,1.146,18.553,18.553,0,0,1,8.369,13.675l4.569,44.432,2.544,24.837a18.411,18.411,0,0,1-4.522,14.115" transform="translate(-52.594 -8.686)" fill="#fff"/>
          <path id="Trazado_155664" data-name="Trazado 155664" d="M574.95,198.738h-38.56a18.509,18.509,0,0,1-18.118-22.31l4.82-22.938h67.731l2.544,24.838a18.522,18.522,0,0,1-18.416,20.41" transform="translate(-52.594 -15.588)" fill="#ffe7cf"/>
          <path id="Trazado_155665" data-name="Trazado 155665" d="M595.4,185.744a16.071,16.071,0,0,1-1.445,1.476c-1.271-14.633-5.024-57.919-6.436-72.049-1.617-16.046-3.658-23.864-5.118-27.632a23.379,23.379,0,0,1,2.04,1.146c1.476,4.507,3.234,12.435,4.632,26.314,1.4,13.737,4.961,54.967,6.327,70.745" transform="translate(-59.147 -8.89)" fill="#2f3f4f"/>
          <path id="Trazado_155666" data-name="Trazado 155666" d="M582.8,108.88c-.047.142-5.18,14.617-25.7,14.617h-.565c-12.8-.156-20.064-7.6-23.8-13.424l.456-2.166c3.172,5.636,10.08,13.848,23.362,14.02h.549c19.359,0,24.022-13,24.21-13.549a.8.8,0,0,1,1-.5.788.788,0,0,1,.487,1" transform="translate(-54.103 -10.952)" fill="#2f3f4f"/>
          <path id="Trazado_155667" data-name="Trazado 155667" d="M830.883,35.689a.785.785,0,0,1-.245-1.531l5.561-1.832a.785.785,0,0,1,.491,1.491l-5.561,1.832a.778.778,0,0,1-.245.04" transform="translate(-84.303 -3.279)" fill="#2f3f4f"/>
          <path id="Trazado_155668" data-name="Trazado 155668" d="M838.264,39.841l-6.28,1.947a.618.618,0,0,1-.22.047.787.787,0,0,1-.235-1.538l6.641-2.073a13.54,13.54,0,0,1,.094,1.617" transform="translate(-84.392 -3.882)" fill="#2f3f4f"/>
          <path id="Trazado_155669" data-name="Trazado 155669" d="M837.753,45.005a14.936,14.936,0,0,1-.534,1.821L830.828,48.8a.607.607,0,0,1-.235.031.778.778,0,0,1-.235-1.523Z" transform="translate(-84.273 -4.571)" fill="#2f3f4f"/>
          <path id="Trazado_155670" data-name="Trazado 155670" d="M575.182,69.074s-2.646-7.162,8.41-9.027,34.541-5.137,38.072-4.09,4.613,8.6,4.613,8.6S621.685,69.949,615.1,70.2s-39.919-1.125-39.919-1.125" transform="translate(-58.386 -5.662)" fill="#ffcfa6"/>
          <path id="Trazado_155671" data-name="Trazado 155671" d="M672.239,138.564l-.061,0a.785.785,0,0,1-.724-.841c.093-1.207.04-30.262,0-45.457a.784.784,0,0,1,.783-.787h0a.785.785,0,0,1,.785.783c0,1.8.117,44.009,0,45.579a.785.785,0,0,1-.782.726" transform="translate(-68.191 -9.29)" fill="#2f3f4f"/>
          <path id="Trazado_155672" data-name="Trazado 155672" d="M576.142,68.417a.785.785,0,0,1-.074-1.566c.164-.016,16.366-1.561,24.042-2.433s23.968-3.308,24.132-3.333a.785.785,0,0,1,.233,1.553c-.164.024-16.49,2.465-24.187,3.34s-23.908,2.42-24.07,2.436a.722.722,0,0,1-.076,0" transform="translate(-58.432 -6.203)" fill="#2f3f4f"/>
          <path id="Trazado_155673" data-name="Trazado 155673" d="M605.549,312.013a.784.784,0,0,1-.783-.744l-1.089-21a.785.785,0,0,1,.742-.825h.041a.784.784,0,0,1,.783.745l1.089,21a.784.784,0,0,1-.742.825h-.041" transform="translate(-61.308 -29.395)" fill="#0f0a1c"/>
        </g>
      </g>
    </g>
  </g>
</svg>
