<svg xmlns="http://www.w3.org/2000/svg" xmlns:xlink="http://www.w3.org/1999/xlink" width="1240" height="510" viewBox="0 0 1240 510">
  <defs>
    <clipPath id="clip-path">
      <rect id="Rectángulo_41290" data-name="Rectángulo 41290" width="1240" height="510" rx="10" fill="#6b8dfc"/>
    </clipPath>
  </defs>
  <g id="Grupo_166178" data-name="Grupo 166178" transform="translate(-180 -2423)">
    <rect id="Rectángulo_38561" data-name="Rectángulo 38561" width="1240" height="510" rx="10" transform="translate(180 2423)" fill="#6b8dfc"/>
    <g id="Enmascarar_grupo_168" data-name="Enmascarar grupo 168" transform="translate(180 2423)" clip-path="url(#clip-path)">
      <g id="Grupo_166177" data-name="Grupo 166177" transform="translate(517.993 -105.587)">
        <path id="Unión_28" data-name="Unión 28" d="M323.686,764.853c-56.091-3.659-102.2-53.677-139.26-93.857-6.229-6.76-12.269-13.315-18.151-19.441C118.545,601.89,70.9,550.455,24.832,500.716L19.3,494.751c-16.951-18.294-23.011-41.4-17.08-65.061,6.467-25.793,26.79-47.6,50.566-54.3,21.652-6.083,42.759.675,59.373,19.076v-.01c33.605,37.187,70.225,75.865,111.161,117.386l-4.87-11.491c-13.757-32.487-27.981-66.069-40.915-99.737-12.991-33.8-25.193-69.971-31.073-105.425C139.965,256.033,141,217.69,156.7,183.7c18.28-39.6,45.15-62.389,79.866-67.722,75.571-11.566,169.77,64.771,220.7,118.6-13.757-43.42-23.25-88.933-19.3-136.484,3.362-40.545,20.71-71.476,48.84-87.109,31.948-17.757,73.875-13.8,112.182,10.589,69.025,43.947,124.223,118.17,173.589,191.825,22.278,33.239,9.8,65.769-12.438,83.267-26.89,21.158-69.085,21.694-93.178-14.012q-4.582-6.808-9.344-13.518c13.7,27.949,26.613,56.027,38.128,84.791l4.444,11.072c39.159,97.366,92.781,230.717,43.117,334.349-27.634,57.689-91.264,64.224-139.846,40.888-54.494-26.2-94.3-80.65-129.421-128.695-4.543-6.212-9.036-12.36-13.51-18.378-30.629-41.222-58.947-84.942-86.333-127.214q-14.625-22.6-29.4-45.126l-2.817-4.281q-4.254-6.47-8.6-13.025c4.731,12.252,9.5,24.1,14.035,35.373,4.781,11.887,9.839,23.9,14.948,36.039,21.324,50.662,43.384,103.063,50.794,157.77,5.683,41.961-3.223,81.508-23.835,105.788-14.829,17.467-35.213,26.587-59.225,26.587C327.991,765.068,325.849,765,323.686,764.853Z" transform="translate(0 25.44)" fill="#7b9aff" stroke="rgba(0,0,0,0)" stroke-miterlimit="10" stroke-width="1"/>
        <path id="Trazado_115699" data-name="Trazado 115699" d="M226.721,574.672C274.51,627.566,323.9,678.518,374.234,728.558,352.472,675.353,329,622.974,308.343,569.211c-23.418-60.962-50.636-144.059-21.117-208,67.29-145.754,237.388-2.747,299.985,70.629,6.675,7.81,13.033,15.975,19.481,24.055C584.335,396.646,564.2,335.769,569.506,271.76c7.31-88.01,81.9-109.125,146.114-68.237,68.966,43.914,124.343,119.886,170.594,188.884,39.279,58.6-50.606,114.393-89.577,56.628a750.511,750.511,0,0,0-70.007-88.6q5.579,11.056,11.268,22.08c25.125,48.549,49.941,97.291,70.414,148.382,39.209,97.849,97.175,233.292,47.858,336.215-24.857,51.864-83.13,57.132-127.021,36.028-58.987-28.368-99.843-90.993-139.23-143.994-41.113-55.34-77.317-114.1-115.376-171.847-15.91-24.13-31.8-48.6-50-70.8-.417-.5-.863-.976-1.28-1.491l.456,1.566c10.107,33.99,23.111,66.606,36.263,99.308,24.49,60.834,56.061,124.875,65.028,191.084,7.935,58.537-13.986,124.145-79.073,119.9-61.179-3.991-110.218-67.743-151.123-110.316-49.545-51.564-98.2-104.157-146.858-156.687C97.152,605.025,176.532,519.128,226.721,574.672Z" transform="translate(-98.139 -172.716)" fill="#a6bbff"/>
        <path id="Trazado_115700" data-name="Trazado 115700" d="M460.718,947.528c24.014,0,44.387-9.109,59.215-26.576,20.611-24.28,29.519-63.827,23.835-105.8-7.4-54.7-29.459-107.1-50.794-157.77-5.1-12.134-10.157-24.14-14.948-36.028-4.533-11.276-9.3-23.121-14.035-35.374,2.9,4.356,5.763,8.712,8.6,13.025l2.817,4.27c9.889,15,19.649,30.074,29.409,45.126,27.376,42.283,55.694,86,86.324,127.214,4.473,6.03,8.967,12.178,13.509,18.39C639.773,842.04,679.577,896.49,734.071,922.7c48.592,23.336,112.212,16.791,139.845-40.9,49.664-103.621-3.958-236.972-43.107-334.349l-4.453-11.062c-11.516-28.765-24.43-56.843-38.118-84.791q4.746,6.71,9.344,13.508c24.083,35.717,66.277,35.181,93.167,14.023,22.238-17.5,34.716-50.029,12.438-83.268-49.366-73.655-104.565-147.878-173.58-191.835-38.317-24.376-80.233-28.335-112.192-10.579-28.13,15.632-45.468,46.553-48.84,87.1-3.948,47.551,5.544,93.074,19.312,136.484-50.943-53.817-145.132-130.154-220.7-118.588-34.716,5.332-61.6,28.12-79.876,67.721-30.064,65.125-6.338,146.194,20.829,216.92,12.934,33.657,27.158,67.249,40.915,99.726l4.87,11.491c-40.935-41.51-77.555-80.189-111.16-117.375h0c-16.614-18.4-37.721-25.149-59.374-19.066-23.776,6.695-44.1,28.507-50.556,54.3-5.941,23.657.119,46.757,17.07,65.05l5.535,5.976c46.073,49.739,93.713,101.164,141.442,150.839,5.882,6.126,11.923,12.682,18.161,19.441,37.047,40.18,83.16,90.2,139.25,93.857C456.463,947.464,458.6,947.528,460.718,947.528ZM432.261,514.494a8.814,8.814,0,0,0-4.8,1.395,10.783,10.783,0,0,0-4.692,12.177l.466,1.566c10.593,35.631,24.41,69.986,36.6,100.284,4.831,11.995,9.939,24.119,15.087,36.361,20.76,49.311,42.224,100.295,49.227,151.987,4.751,35.105-2.46,68.891-18.826,88.171-12.121,14.28-28.874,20.76-49.832,19.473-48.563-3.176-89.924-48.023-126.406-87.6-6.328-6.867-12.478-13.529-18.449-19.741-47.6-49.536-95.181-100.9-141.195-150.571l-5.525-5.976c-14.987-16.169-14.769-32.981-11.942-44.247,4.593-18.3,19.56-34.408,36.412-39.14,10.256-2.9,25.541-2.918,40.181,13.293h0c43.415,48.034,91.789,98.5,147.9,154.294a9.342,9.342,0,0,0,12.488.815,11.241,11.241,0,0,0,3.293-13.057c-8.223-20.117-16.693-40.105-25.154-60.1-13.688-32.305-27.832-65.715-40.637-99.029-25.452-66.241-47.908-141.7-21.4-199.1,15.414-33.378,36.65-51.714,64.919-56.059C440.424,308.9,539.513,391,588.879,448.865c5.257,6.169,10.326,12.564,15.4,18.947l3.848,4.849a9.367,9.367,0,0,0,12.686,2.135,11.2,11.2,0,0,0,4.007-13.207c-21.306-56.424-41.669-116.753-36.492-179.121,2.777-33.432,15.969-57.615,38.148-69.943,25.878-14.366,60.653-10.622,93.058,10,65.891,41.951,119.482,114.157,167.589,185.934,15.205,22.681,5.812,42.411-8.044,53.312-18.766,14.763-48.086,16.5-65.484-9.3a762.379,762.379,0,0,0-71-89.845,9.354,9.354,0,0,0-12.954-1.03,11.291,11.291,0,0,0-2.777,13.733q5.609,11.121,11.327,22.177c25.442,49.16,49.931,97.43,69.967,147.417l4.454,11.094c37.563,93.418,89,221.361,43.692,315.905-22.01,45.942-74.1,50.426-114.185,31.168-50.021-24.044-86.571-74.052-121.912-122.4q-6.859-9.383-13.609-18.518c-30.223-40.663-58.343-84.083-85.55-126.077q-14.67-22.66-29.489-45.276l-2.817-4.26c-14.928-22.67-30.361-46.113-47.838-67.421l-.893-1.041A10.442,10.442,0,0,0,432.261,514.494ZM235.67,584.426h0Z" transform="translate(-107.087 -182.469)" fill="#3c3fa7"/>
        <path id="Trazado_115701" data-name="Trazado 115701" d="M154.554,225.853C191.1,305.291,211.716,398.408,179.619,483.8c-4.751,12.617-23.944,7.1-19.134-5.708,30.143-80.178,11.317-166.7-23.061-241.414C131.76,224.351,148.86,213.472,154.554,225.853Z" transform="translate(555.937 186.5)" fill="#3c3fa7"/>
        <path id="Trazado_115702" data-name="Trazado 115702" d="M147.557,294.7c.169-.021.327-.075.486-.107.278-.59.536-1.212.625-1.384l.04-.064c.02-.086-.01-.032.02-.161,1.28-4.785,2.2-9.645,3.164-14.516q3.377-16.978,6.735-33.957c1.091-5.493,7.31-9.206,12.21-7.489,5.346,1.867,8.094,7.306,6.923,13.2l-7.618,38.4c-2.123,10.665-5.5,24.645-17.308,26.779-5.1.912-10.931-1.448-12.2-7.5C139.543,302.711,142.092,295.683,147.557,294.7Z" transform="translate(532.81 344.113)" fill="#3c3fa7"/>
        <path id="Trazado_115703" data-name="Trazado 115703" d="M215.553,200.588c11.258-6.5,21.3,12.016,10.008,18.529-15.573,8.991-20.314,27.295-20.939,45.266-.714,20.417,1.408,41.414,4.473,61.52a432.21,432.21,0,0,0,34.428,115.251c5.674,12.327-11.436,23.207-17.13,10.826A455.847,455.847,0,0,1,187.89,316.247C183.218,277.569,177.624,222.475,215.553,200.588Z" transform="translate(28.117 -19.456)" fill="#3c3fa7"/>
      </g>
    </g>
  </g>
</svg>
