<svg xmlns="http://www.w3.org/2000/svg" width="101.809" height="206.097" viewBox="0 0 101.809 206.097">
  <g id="Grupo_166708" data-name="Grupo 166708" transform="translate(-1014.563 -136.053)">
    <g id="Grupo_81064" data-name="Grupo 81064" transform="matrix(-0.208, 0.978, -0.978, -0.208, 1116.757, 205.217)">
      <g id="Grupo_81059" data-name="Grupo 81059" transform="translate(0 0)">
        <g id="Grupo_81053" data-name="Grupo 81053" transform="translate(1.85 0)" style="mix-blend-mode: overlay;isolation: isolate">
          <path id="Trazado_114995" data-name="Trazado 114995" d="M39.977,41.98l6.4-26.093L0,0Z" transform="translate(0.78 0.78)" fill="#3c384f"/>
          <path id="Trazado_114996" data-name="Trazado 114996" d="M.781,0A.78.78,0,0,0,.216,1.318L40.192,43.3a.78.78,0,0,0,1.323-.352l6.4-26.094a.78.78,0,0,0-.5-.924L1.033.042A.77.77,0,0,0,.781,0ZM40.339,41.19,3.545,2.552,46.227,17.175Z" transform="translate(0 0)" fill="#3c384f"/>
          <path id="Trazado_114997" data-name="Trazado 114997" d="M44.779,38.059,0,0,62.043,25.413Z" transform="translate(0.78 0.78)" fill="#3c384f"/>
          <path id="Trazado_114998" data-name="Trazado 114998" d="M.781,0A.78.78,0,0,0,.275,1.375L45.053,39.433a.781.781,0,0,0,.967.035L63.284,26.822a.781.781,0,0,0-.165-1.351L1.076.059A.774.774,0,0,0,.781,0ZM45.595,37.845,5.02,3.361,61.237,26.387Z" transform="translate(0 0)" fill="#3c384f"/>
          <path id="Trazado_114999" data-name="Trazado 114999" d="M39.977,41.98,0,0,26.313,52.09Z" transform="translate(0.78 0.78)" fill="#3c384f"/>
          <path id="Trazado_115000" data-name="Trazado 115000" d="M.78,0a.78.78,0,0,0-.7,1.132L26.4,53.222a.781.781,0,0,0,1.161.275l13.664-10.11a.78.78,0,0,0,.1-1.165L1.345.242A.779.779,0,0,0,.78,0ZM27.373,51.692,3.859,5.145,39.582,42.659Z" transform="translate(0 0)" fill="#3c384f"/>
          <path id="Trazado_115001" data-name="Trazado 115001" d="M7.033,14.588Q3.748,7.788.1,1.172C-.381.292.966-.5,1.451.385Q5.094,7,8.38,13.8C8.816,14.7,7.471,15.492,7.033,14.588Z" transform="translate(16.934 27.912)" fill="#3c384f"/>
          <path id="Trazado_115002" data-name="Trazado 115002" d="M2.326,2.652a.794.794,0,0,1-.359.467.786.786,0,0,1-.6.079A.77.77,0,0,1,.9,2.839l-.8-1.663a.835.835,0,0,1-.079-.6A.794.794,0,0,1,.385.109.786.786,0,0,1,.986.03a.767.767,0,0,1,.467.359l.8,1.663A.835.835,0,0,1,2.326,2.652Z" transform="translate(20.234 29.039)" fill="#3c384f"/>
          <path id="Trazado_115003" data-name="Trazado 115003" d="M15.546,8.154Q7.941,4.867.4,1.426C-.508,1.009.284-.336,1.192.078Q8.728,3.52,16.333,6.806C17.253,7.2,16.459,8.549,15.546,8.154Z" transform="translate(35.448 17.765)" fill="#3c384f"/>
        </g>
        <g id="Grupo_81058" data-name="Grupo 81058" transform="translate(0 1.85)">
          <g id="Grupo_81057" data-name="Grupo 81057" transform="translate(0 0)">
            <g id="Grupo_81054" data-name="Grupo 81054" transform="translate(0 0)">
              <path id="Trazado_115004" data-name="Trazado 115004" d="M39.977,41.98l6.4-26.093L0,0Z" transform="translate(0.78 0.78)" fill="#fff"/>
              <path id="Trazado_115005" data-name="Trazado 115005" d="M.78,0A.781.781,0,0,0,.215,1.319L40.192,43.3a.78.78,0,0,0,1.323-.352l6.4-26.093a.78.78,0,0,0-.5-.924L1.034.042A.793.793,0,0,0,.78,0ZM40.339,41.19,3.545,2.552,46.227,17.175Z" transform="translate(0 0)"/>
            </g>
            <g id="Grupo_81055" data-name="Grupo 81055" transform="translate(0 0)">
              <path id="Trazado_115006" data-name="Trazado 115006" d="M44.779,38.059,0,0,62.043,25.413Z" transform="translate(0.78 0.78)" fill="#fff"/>
              <path id="Trazado_115007" data-name="Trazado 115007" d="M.781,0A.78.78,0,0,0,.275,1.375L45.054,39.434a.781.781,0,0,0,.966.034L63.283,26.823a.78.78,0,0,0-.165-1.351L1.076.059A.771.771,0,0,0,.781,0ZM45.594,37.845,5.021,3.361,61.237,26.388Z" transform="translate(0 0)"/>
            </g>
            <g id="Grupo_81056" data-name="Grupo 81056" transform="translate(0 0)">
              <path id="Trazado_115008" data-name="Trazado 115008" d="M39.977,41.98,0,0,26.313,52.09Z" transform="translate(0.78 0.78)" fill="#fff"/>
              <path id="Trazado_115009" data-name="Trazado 115009" d="M.78,0a.78.78,0,0,0-.7,1.132L26.4,53.222a.779.779,0,0,0,1.16.275L41.221,43.388a.781.781,0,0,0,.1-1.166L1.346.243A.78.78,0,0,0,.78,0ZM27.372,51.693,3.86,5.145,39.583,42.659Z" transform="translate(0 0)"/>
            </g>
            <path id="Trazado_115010" data-name="Trazado 115010" d="M7.033,14.588Q3.748,7.789.1,1.172C-.381.292.966-.5,1.451.385Q5.095,7,8.381,13.8C8.815,14.7,7.47,15.493,7.033,14.588Z" transform="translate(16.934 27.912)"/>
            <path id="Trazado_115011" data-name="Trazado 115011" d="M2.326,2.653a.8.8,0,0,1-.359.466.788.788,0,0,1-.6.079A.767.767,0,0,1,.9,2.839q-.4-.832-.8-1.663a.834.834,0,0,1-.079-.6A.8.8,0,0,1,.384.109.788.788,0,0,1,.986.03a.771.771,0,0,1,.466.359l.8,1.663A.841.841,0,0,1,2.326,2.653Z" transform="translate(20.234 29.039)"/>
            <path id="Trazado_115012" data-name="Trazado 115012" d="M15.546,8.153Q7.941,4.868.4,1.425C-.508,1.009.285-.336,1.192.079Q8.728,3.519,16.333,6.807C17.252,7.2,16.459,8.548,15.546,8.153Z" transform="translate(35.448 17.765)"/>
          </g>
        </g>
      </g>
      <g id="Grupo_81063" data-name="Grupo 81063" transform="translate(45.49 43.974)">
        <g id="Grupo_81060" data-name="Grupo 81060" transform="translate(0 0)">
          <path id="Trazado_115013" data-name="Trazado 115013" d="M.78,0A.781.781,0,0,0,.193,1.295,78.907,78.907,0,0,0,6.831,8.021a.78.78,0,1,0,1.043-1.16A77.286,77.286,0,0,1,1.368.267.78.78,0,0,0,.78,0ZM13.4,11.584a.78.78,0,0,0-.463,1.408c1.685,1.241,3.438,2.43,5.214,3.536a.78.78,0,1,0,.825-1.325c-1.741-1.085-3.463-2.251-5.115-3.467A.778.778,0,0,0,13.4,11.584Zm89.667,3.443a.773.773,0,0,0-.414.119q-.709.444-1.426.873a.78.78,0,0,0,.8,1.34q.732-.438,1.455-.891a.78.78,0,0,0-.416-1.441ZM26.78,19.569a.78.78,0,0,0-.334,1.485c2.369,1.121,4.816,2.138,7.273,3.021a.78.78,0,0,0,.528-1.468c-2.41-.868-4.81-1.865-7.133-2.963A.771.771,0,0,0,26.78,19.569Zm67.962,0a.782.782,0,0,0-.331.074,79.47,79.47,0,0,1-8.605,3.438.781.781,0,0,0,.494,1.481,81.026,81.026,0,0,0,8.775-3.506.781.781,0,0,0-.332-1.487ZM39.933,24.443a.78.78,0,0,0-.205,1.532,78.69,78.69,0,0,0,9.249,1.944.78.78,0,0,0,.228-1.544,77.255,77.255,0,0,1-9.066-1.9A.753.753,0,0,0,39.933,24.443Zm40.129.344a.752.752,0,0,0-.19.023c-2.491.622-5.04,1.13-7.575,1.509a.78.78,0,0,0,.231,1.543c2.584-.387,5.182-.9,7.722-1.539a.78.78,0,0,0-.188-1.537Zm-23.21,2.33a.78.78,0,0,0-.035,1.56c2.086.1,4.205.111,6.3.042a.78.78,0,1,0-.051-1.56c-2.056.067-4.133.053-6.179-.041Z" transform="translate(0 0)"/>
        </g>
      </g>
    </g>
    <g id="Grupo_88079" data-name="Grupo 88079" transform="translate(-43.94 8.512)">
      <path id="Trazado_120188" data-name="Trazado 120188" d="M1126.448,171.392a12.05,12.05,0,0,1-9.554-4.773.4.4,0,0,0-.529-.092,9.906,9.906,0,0,1-5.351,1.473,14.181,14.181,0,0,1-7.473-2.251,11.972,11.972,0,0,1-4.908-5.748,11.365,11.365,0,0,1,1.439-10.426,10.808,10.808,0,0,1,8.774-4.8c.28,0,.565.012.847.036h.033a.4.4,0,0,0,.39-.477,8.965,8.965,0,0,1,2.08-7.505,10.851,10.851,0,0,1,8.105-4.058,8.511,8.511,0,0,1,6.327,2.864.4.4,0,0,0,.291.127h.03a.4.4,0,0,0,.3-.173,12.016,12.016,0,0,1,9.8-5.213,10.576,10.576,0,0,1,8.781,4.539c3.807,5.3,3.611,12.065-.466,16.091a.4.4,0,0,0,.017.582,7.877,7.877,0,0,1,2.226,8.986,8.152,8.152,0,0,1-7.426,5.456,8.388,8.388,0,0,1-3.356-.734.4.4,0,0,0-.508.173,11.27,11.27,0,0,1-4.208,4.469A11.765,11.765,0,0,1,1126.448,171.392Z" transform="translate(-2.469 -2.436)" fill="#fff"/>
      <path id="Trazado_120189" data-name="Trazado 120189" d="M1143.174,148.853c4.289-4.235,4.368-11.236.51-16.607-4.953-6.894-14.807-5.823-19.233.682-7.023-7.538-18.913.546-17.194,9.048-8.055-.674-14.334,8.021-11.466,15.726,2.477,6.653,12.226,10.614,18.319,6.724a12.317,12.317,0,0,0,15.72,3.426,11.665,11.665,0,0,0,4.367-4.627C1143.176,167.135,1150.325,155.14,1143.174,148.853Zm-8.245,12.816c1.315-3.333,1.222-7.082-1.675-9.312-4.484-3.451-11.483-1.139-9.707,5.243,1.257,4.515,7.42,2.4,6.465-2.025-.235-1.089-1.9-.627-1.666.459q.225,3.315-2.625,1.884a3.668,3.668,0,0,1,.093-4.637c1.285-1.535,3.947-.926,5.428-.216,4.419,2.121,2.514,7.4.586,10.51-3.907,6.29-13.081,4.762-16.777-.769a.935.935,0,0,0-.169-.187.684.684,0,0,0-1.014-.122c-5.081,3.885-12.261.814-15.648-3.889-4.715-6.548,2.075-16.15,9.618-14.824a10.868,10.868,0,0,0,2.277,3.279c4.167,4.2,11.892.812,10.822-5.175-.9-5.027-7.611-3.759-8.009.839-.1,1.111,1.633,1.1,1.728,0,.275-3.176,3.679-2.956,4.614-.38,1.368,3.767-4.028,5.524-6.67,4.363-3.734-1.642-4.621-6.831-3.026-10.181,2.668-5.605,10.54-6.691,14.242-1.7a.91.91,0,0,0,.306.265.943.943,0,0,0,1.311-.464,10.053,10.053,0,0,1,17.191-.906c4.005,5.575,2.562,13.557-4.059,16.119-1.028.4-.581,2.069.459,1.667a12.571,12.571,0,0,0,2.825-1.525C1147.985,154.891,1142.159,164.833,1134.929,161.669Z" transform="translate(0 0)"/>
    </g>
  </g>
</svg>
