<svg xmlns="http://www.w3.org/2000/svg" width="117.322" height="111.587" viewBox="0 0 117.322 111.587">
  <g id="Grupo_89343" data-name="Grupo 89343" transform="translate(-1867.434 -1088.082) rotate(9)">
    <path id="Trazado_121575" data-name="Trazado 121575" d="M2132,832.585c-.434-.851-.879-1.7-1.321-2.541.439-.014.879-.018,1.317-.039.015,0,.024-.008.039-.01a.969.969,0,0,0,.961-1.279,400.775,400.775,0,0,0-20.68-42.55,1.993,1.993,0,0,0-.178-.259,1.053,1.053,0,0,0-.426-.632,27.325,27.325,0,0,0-26.515-2.928,33.459,33.459,0,0,0-4.885,1.994c-5.077,2.57-11.577,9.779-11.3,16.077-16.188-2.6-34.649,5.765-38.677,22.6a1.092,1.092,0,0,0,.51,1.159c.294.571.593,1.139.888,1.71a23.594,23.594,0,0,0-1.807,3.642.976.976,0,0,0-.24,1.184c7.5,15.512,16.886,30.081,24.375,45.588,0,0,0,0,0,0l.016.021a.783.783,0,0,0,1.208.281.971.971,0,0,0,.473-.531c5.468-14.138,22.845-25.658,38.278-21.588a1.129,1.129,0,0,0,1.423-1.31c4.685-15.049,22.369-20.2,36.28-16.8a1.03,1.03,0,0,0,1.137-1.548A8.662,8.662,0,0,0,2132,832.585Z" transform="translate(0 0)" fill="#fff"/>
    <g id="Grupo_89342" data-name="Grupo 89342" transform="translate(2029.58 780.191)">
      <path id="Trazado_121576" data-name="Trazado 121576" d="M2056.239,872.25c4.151-11.171,13.232-14.023,24.3-13.149,1.071.085,1.281-1.618.252-1.858-11.863-2.754-22.4,3.09-26.281,14.529C2054.135,872.879,2055.842,873.318,2056.239,872.25Z" transform="translate(-2045.04 -827.656)"/>
      <path id="Trazado_121577" data-name="Trazado 121577" d="M2068.548,889.407a.922.922,0,0,0,1.591.931c4.693-7.537,14.655-12.274,23.211-12.723,1.053-.055,1.4-1.724.26-1.929C2084.77,874.1,2072.5,881.508,2068.548,889.407Z" transform="translate(-2053.727 -839.402)"/>
      <path id="Trazado_121578" data-name="Trazado 121578" d="M2079.071,908.816c-.508,1.076,1.069,2.025,1.612.942,4.35-8.674,14.418-11.329,23.343-11.618,1.023-.032,1.343-1.681.252-1.857C2094.833,894.759,2083.249,899.967,2079.071,908.816Z" transform="translate(-2060.273 -852.172)"/>
      <path id="Trazado_121579" data-name="Trazado 121579" d="M2087.624,927.329a.989.989,0,0,0,1.707,1c4.926-8.479,13.033-11,22.227-12.174a.965.965,0,0,0,0-1.928A25.587,25.587,0,0,0,2087.624,927.329Z" transform="translate(-2065.568 -863.442)"/>
      <path id="Trazado_121580" data-name="Trazado 121580" d="M2119.542,938.091a50.285,50.285,0,0,1,12.677-6.482.934.934,0,0,0-.5-1.8c-4.866.675-9.295,3.781-13.112,6.69C2117.688,937.2,2118.567,938.793,2119.542,938.091Z" transform="translate(-2084.666 -873.163)"/>
      <path id="Trazado_121581" data-name="Trazado 121581" d="M2155.675,817.443c3.769-11.3,16.029-13.754,26.264-10.869a.974.974,0,0,0,.747-1.773c-10.209-6.549-25.784,1.365-28.892,12.124A.976.976,0,0,0,2155.675,817.443Z" transform="translate(-2106.744 -794.005)"/>
      <path id="Trazado_121582" data-name="Trazado 121582" d="M2165.556,835.262c-.661,1.078.979,2,1.674.979,5.273-7.753,14.115-9.832,22.951-9,1.192.113,1.337-1.686.272-2.013C2181.24,822.407,2170.457,827.249,2165.556,835.262Z" transform="translate(-2113.986 -807.677)"/>
      <path id="Trazado_121583" data-name="Trazado 121583" d="M2176.242,856.419c-.789,1.1,1,2.094,1.791,1.046,5.2-6.912,14.288-9.547,22.582-8.92,1.1.083,1.236-1.555.251-1.858C2192.156,844.01,2181.334,849.338,2176.242,856.419Z" transform="translate(-2120.6 -821.077)"/>
      <path id="Trazado_121584" data-name="Trazado 121584" d="M2185.589,875.621c-.791,1,.583,2.429,1.423,1.423,5.869-7.026,15.186-9.058,23.847-10.014a1,1,0,0,0,0-1.989C2201.987,864.214,2191.134,868.616,2185.589,875.621Z" transform="translate(-2126.383 -832.859)"/>
      <path id="Trazado_121585" data-name="Trazado 121585" d="M2193.611,893.837a.983.983,0,0,0,1.7.991c4.627-7.991,15.037-10.385,23.529-10.608,1.063-.028,1.362-1.677.257-1.906C2210.173,880.467,2197.959,885.679,2193.611,893.837Z" transform="translate(-2131.437 -843.424)"/>
      <path id="Trazado_121586" data-name="Trazado 121586" d="M2132,832.585c-.434-.851-.879-1.7-1.321-2.541.439-.014.879-.018,1.317-.039.015,0,.024-.008.039-.01a.969.969,0,0,0,.961-1.279,400.775,400.775,0,0,0-20.68-42.55,1.993,1.993,0,0,0-.178-.259,1.053,1.053,0,0,0-.426-.632,27.325,27.325,0,0,0-26.515-2.928,33.459,33.459,0,0,0-4.885,1.994c-5.077,2.57-11.577,9.779-11.3,16.077-16.188-2.6-34.649,5.765-38.677,22.6a1.092,1.092,0,0,0,.51,1.159c.294.571.593,1.139.888,1.71a23.594,23.594,0,0,0-1.807,3.642.976.976,0,0,0-.24,1.184c7.5,15.512,16.886,30.081,24.375,45.588,0,0,0,0,0,0l.016.021a.783.783,0,0,0,1.208.281.972.972,0,0,0,.473-.531c5.468-14.138,22.845-25.658,38.278-21.588a1.129,1.129,0,0,0,1.423-1.31c4.685-15.049,22.369-20.2,36.28-16.8a1.03,1.03,0,0,0,1.137-1.548A8.662,8.662,0,0,0,2132,832.585Zm-50.115-45.551c8.249-5.246,18.556-3.349,26.955.359a1.977,1.977,0,0,0,.219.677c7.075,13.1,13.814,26.376,20.953,39.435-14.789-2.969-33.172,1.694-38.106,16.728-6.971-14-13.371-28.269-20.337-42.266,0-.013.007-.023.005-.036C2071.27,795.775,2077.1,790.076,2081.885,787.033Zm-12.981,16.75c6.617,14.316,13.289,28.637,20.391,42.721-13.183-3.73-29.377,4.118-34.32,16.9-7.117-13.718-14.135-27.5-21.64-41.013a1.46,1.46,0,0,0-.212-.251C2039.995,808.027,2053.611,802.543,2068.9,803.783Zm24.728,48.115c-14.616-4.257-33.767,7.415-38.924,21.355-6.662-14.7-15.5-28.542-22.97-42.84a15.224,15.224,0,0,0,1.3-2.008c6.671,12.878,13.407,25.723,20.1,38.589a1.443,1.443,0,0,0,.889.764.919.919,0,0,0,1.6.01c8.31-14.384,19.448-20.282,35.969-17.5a1.567,1.567,0,0,0,1.759-1.637c3.63-7.572,7.592-13.467,15.959-16.5,6.082-2.2,12.451-1.979,18.781-2.04.544,1.147,1.094,2.289,1.686,3.414.011.02.021.041.032.062C2116.411,830.22,2096.816,837.422,2093.631,851.9Z" transform="translate(-2029.579 -780.191)"/>
    </g>
  </g>
</svg>
