<svg xmlns="http://www.w3.org/2000/svg" width="123.885" height="183.924" viewBox="0 0 123.885 183.924">
  <g id="Grupo_166709" data-name="Grupo 166709" transform="translate(-1268.948 -221.124)">
    <g id="Grupo_93341" data-name="Grupo 93341" transform="translate(1135.446 -941.851)">
      <path id="Trazado_126751" data-name="Trazado 126751" d="M255.083,1201.916a35.5,35.5,0,0,1-1.7,13.635c-5.31,15.6-27.2,17.046-43.847,14.26-6.792-1.134-13.544-2.557-20.248-4.015q-7.246-1.578-14.452-3.371c-6.524,2.693-13.1,5.234-19.863,7.3a1.165,1.165,0,0,1-1.232-1.867,59.163,59.163,0,0,0,5.734-9.6c-.7-.206-1.408-.4-2.107-.609-7.94-2.408-15.727-5.785-20.412-12.98-4.729-7.257-4.344-18.2-.44-25.7,4.541-8.721,15.008-11.648,24.073-12.361,14.2-1.116,28.843,1.3,42.7,4.153,12.862,2.645,25.961,6.1,37.878,11.721C249.469,1186.5,254.474,1192.552,255.083,1201.916Zm-12.156-21.553c4.452,2.221,7.529,5.39,11.027,8.787a.277.277,0,0,0,.458-.268c-1.327-8.011-15.694-13.109-22.7-13.24a.069.069,0,0,0-.035.128C235.3,1177.545,239.281,1178.545,242.928,1180.363Zm12.575,10.92a.192.192,0,0,0-.319.185c.263,1.069.6,2.113.847,3.187a12.467,12.467,0,0,0,.92,3.177.146.146,0,0,0,.264-.035C257.711,1195.823,257.129,1192.67,255.5,1191.283Zm-120.282-15.622c7.472-8.978,17.181-10.84,28.367-11.8.216-.019.3-.359.055-.4-9.778-1.8-24.984,1.322-28.651,12.075A.138.138,0,0,0,135.221,1175.661Zm74.48,57.107c-4.571-1.559-9.6-1.888-14.33-2.819-5.517-1.088-10.992-3.056-16.546-3.807-.169-.023-.292.193-.123.292,4.785,2.821,10.891,3.839,16.267,4.974,4.69.99,9.843,2.314,14.667,1.839A.245.245,0,0,0,209.7,1232.768Zm3.046.154a3.714,3.714,0,0,0-1.862.045.184.184,0,0,0-.037.288,2.948,2.948,0,0,0,1.669.423c.593.064,1.26.238,1.734-.207a.145.145,0,0,0,0-.2C213.833,1232.861,213.293,1232.952,212.747,1232.922Z" transform="translate(0)"/>
      <g id="Grupo_93340" data-name="Grupo 93340" transform="translate(139.472 1170.621)">
        <path id="Trazado_126757" data-name="Trazado 126757" d="M577.745,1266.554a5.341,5.341,0,0,0,1.211-2.473c.237-.782.64-1.911-.014-2.582a.169.169,0,0,0-.237,0c-.6.554-.539,1.566-.7,2.321a7.391,7.391,0,0,0-.4,2.7A.084.084,0,0,0,577.745,1266.554Z" transform="translate(-507.724 -1252.284)" fill="#fff"/>
        <path id="Trazado_126758" data-name="Trazado 126758" d="M590.007,1279.658a2.676,2.676,0,0,0,1.169-1.2,1.659,1.659,0,0,0,.082-1.643.162.162,0,0,0-.251-.033,3.691,3.691,0,0,0-.808,1.1c-.212.436-.51.814-.7,1.26A.377.377,0,0,0,590.007,1279.658Z" transform="translate(-517.58 -1264.962)" fill="#fff"/>
        <path id="Trazado_126759" data-name="Trazado 126759" d="M561.535,1270.985a.2.2,0,0,0,.2,0,1.856,1.856,0,0,0,.571-1.522,2.031,2.031,0,0,0-.493-1.754.258.258,0,0,0-.355,0,2.03,2.03,0,0,0-.493,1.754A1.855,1.855,0,0,0,561.535,1270.985Z" transform="translate(-493.95 -1257.416)" fill="#fff"/>
        <path id="Trazado_126760" data-name="Trazado 126760" d="M611.023,1481.38a.2.2,0,0,0-.362.047,5.359,5.359,0,0,0-.139,1.879,10.607,10.607,0,0,0,.151,2.152.5.5,0,0,0,.97-.132,20.041,20.041,0,0,0-.165-2.02A4.28,4.28,0,0,0,611.023,1481.38Z" transform="translate(-535.036 -1434.586)" fill="#fff"/>
        <path id="Trazado_126761" data-name="Trazado 126761" d="M621.194,1482.892a.084.084,0,0,0-.095.039,1.933,1.933,0,0,0,.04,1.326,2.135,2.135,0,0,0,.761,1.462.17.17,0,0,0,.229-.06c.389-.543.159-1.094-.048-1.661A1.741,1.741,0,0,0,621.194,1482.892Z" transform="translate(-543.73 -1435.916)" fill="#fff"/>
        <path id="Trazado_126762" data-name="Trazado 126762" d="M764.861,1452.151a4.875,4.875,0,0,0-1.852-.365c-.151,0-.273.215-.135.325a6.282,6.282,0,0,0,1.424.819,4.264,4.264,0,0,0,1.787.651.394.394,0,0,0,.336-.587C766.1,1452.5,765.391,1452.353,764.861,1452.151Z" transform="translate(-661.34 -1410.123)" fill="#fff"/>
        <path id="Trazado_126763" data-name="Trazado 126763" d="M764.149,1460.618a4.4,4.4,0,0,0-.742-.419c-.254-.093-.531-.085-.775-.173-.084-.03-.135.083-.082.14.119.13.159.319.29.446a4.151,4.151,0,0,0,.662.52c.242.157.726.53,1,.221C764.739,1461.1,764.345,1460.737,764.149,1460.618Z" transform="translate(-661.103 -1416.953)" fill="#fff"/>
        <path id="Trazado_126764" data-name="Trazado 126764" d="M287.113,1212.589a8.179,8.179,0,0,0-.2-4.432.567.567,0,0,0-1.109.151,11.24,11.24,0,0,0,1,4.322A.169.169,0,0,0,287.113,1212.589Z" transform="translate(-265.77 -1207.764)" fill="#fff"/>
        <path id="Trazado_126765" data-name="Trazado 126765" d="M301.7,1219.444a.247.247,0,0,0,.333.088c.806-.532.722-2.379.017-2.953a.2.2,0,0,0-.311.04A2.26,2.26,0,0,0,301.5,1218,2.73,2.73,0,0,0,301.7,1219.444Z" transform="translate(-278.78 -1215.029)" fill="#fff"/>
        <path id="Trazado_126766" data-name="Trazado 126766" d="M336.445,1423.483a3.519,3.519,0,0,0-1.743,1c-.491.444-1.2,1.034-1.176,1.753a.427.427,0,0,0,.535.408c.639-.19,1.011-.895,1.422-1.38a4.975,4.975,0,0,0,1.1-1.6A.145.145,0,0,0,336.445,1423.483Z" transform="translate(-305.345 -1386.652)" fill="#fff"/>
        <path id="Trazado_126767" data-name="Trazado 126767" d="M350.712,1427.339a3.417,3.417,0,0,0-.463.253,3.516,3.516,0,0,0-.453.529,1.893,1.893,0,0,0-.522,1.45.444.444,0,0,0,.545.31c.484-.187.613-.649.825-1.086a3.629,3.629,0,0,0,.237-.685c.056-.221,0-.412.032-.616C350.932,1427.385,350.822,1427.264,350.712,1427.339Z" transform="translate(-318.38 -1389.831)" fill="#fff"/>
        <path id="Trazado_126768" data-name="Trazado 126768" d="M169.687,1313.1c-.271-.039-1.221,0-1.221.445,0,1.2,2.493,1.157,3.129.676a.415.415,0,0,0,0-.7A3.963,3.963,0,0,0,169.687,1313.1Z" transform="translate(-168.466 -1295.106)" fill="#fff"/>
        <path id="Trazado_126769" data-name="Trazado 126769" d="M180.122,1297.983a.621.621,0,0,0-.1-.307,4.152,4.152,0,0,0-.5-.57,1.388,1.388,0,0,0-1.186-.417.161.161,0,0,0-.118.154,1.228,1.228,0,0,0,.624,1.144,2.948,2.948,0,0,0,.687.326c.145.05.32-.032.43-.008.133.03.279-.117.19-.247C180.093,1298.1,180.083,1298.072,180.122,1297.983Z" transform="translate(-176.547 -1281.494)" fill="#fff"/>
        <path id="Trazado_156142" data-name="Trazado 156142" d="M1.74-32.735v.094c0,.283.157,2.3.157,2.551v.409c.031.724.094,2.488.094,2.551l.567,7.056A2,2,0,0,0,4.669-18.5c.724,0,2.614-.441,2.614-1.512L6.5-26.53v-.063c0-.031.063-.22.063-.252a2.546,2.546,0,0,0,.031-.472c.031-.094,0-.882,0-.976l.157-.945V-29.3c0-.031-.063-.22-.063-.252a2.728,2.728,0,0,0,.063-.315V-31.16c0-.063.031-.22.031-.252a7.962,7.962,0,0,0-.094-1.512.532.532,0,0,1-.094-.189,1,1,0,0,1,.094-.283c0-.126.063-.5.063-.567,0-1.039.031-2.11.031-3.15a13,13,0,0,0-.22-1.543V-39c-.157-.85-1.008-.913-1.732-.913-.189,0-.283.063-.409.063-.378,0-.819-.189-1.228-.189,0,0-.126.063-.126.094-.031,0-.189.031-.189.031-.252.031-.819-.063-.85.346-.126.85-.063,1.732-.22,2.551v2.961C1.8-33.932,1.74-32.861,1.74-32.735Zm17.8,11.906c.346,0,.6,1.071.945,1.323a7.2,7.2,0,0,1,.756.472l1.008.472h.031l.063-.063h.031a.031.031,0,0,0-.031-.031c-.094-.094-.567-.441-.661-.5-.157-.157-.535-.5-.535-.535v-.063a5.327,5.327,0,0,0,2.331,1.008c.157,0,.315-.031.472-.031a.744.744,0,0,1,.378.031c.126,0,.6.031.693.031a3.009,3.009,0,0,0,1.669-.22v.094c0,.063-.063.063-.063.189v.031c.315.063.126-.346.378-.346.094,0,.094.063.157.063.535,0,.346-.472.724-.661.031-.031.346-.252.472-.189.094-.063.409-.409.5-.472.189-.189.346-.094.6-.252a10.7,10.7,0,0,0,1.827-4.126c0-.346-.094-.661-.094-.976,0-.063,0-.126.094-.157v-.189a3.587,3.587,0,0,0-.441-2.457l-.283-.409c-.283-.283-.724-.567-1.008-.882-2.2-2.709-9.89-3.118-6.741-6.52,1.228-1.323,2.677-.283,3.213.189v.189c0,.252-.063.5-.063.756A2.366,2.366,0,0,0,28.2-32.578c.346,0,1.354-.346,1.512-.724.094-.315.063-.409.346-.567l.346-.22c.157-.063.661-3.4-1.134-4.945a12.7,12.7,0,0,0-5.418-1.2h-.126c-.031,0-.315-.063-.346-.063a6.359,6.359,0,0,0-2.772.6c-.283.126-.567.378-.85.472a6.6,6.6,0,0,0-1.984,5.859,3.582,3.582,0,0,0,.378,1.732c.126.22.724,1.1.882,1.323a4.542,4.542,0,0,0,1.449,1.1,7.207,7.207,0,0,0,1.575.945c1.165.441,3.591.756,3.591,2.488,0,.346-.031.693-.031,1.071v.252l.031.031v.031a3.733,3.733,0,0,1-.157,1.008,2.238,2.238,0,0,1-1.606.661H23.6l.126-.126c-.315-.031-.189-.22-.346-.409a3.939,3.939,0,0,1,.094-.6c.031-.031.063-.126.094-.126v-.063c-.031-.031-.063-.315-.094-.378-.126.063-.031.315-.157.378a1.229,1.229,0,0,0-1.228-1.512,8.92,8.92,0,0,0-1.323-.189l-.094-.094a2.988,2.988,0,0,1-1.228.409c-.126,0-.252-.126-.441-.126h-.189c-.031.031-.063.126-.094.126,0,0-.157.157-.189.157,0,.063.094.346.094.378,0,.157-.031,1.1,0,1.2a5.981,5.981,0,0,0,.913,3.087Zm2.079-11.56.063-.094a2.768,2.768,0,0,1,.22.409.317.317,0,0,1,.031.094.11.11,0,0,1,.063-.031c.063,0,.063.126,0,.126s-.063-.031-.063-.063c-.157,0-.189-.031-.252-.157A2.565,2.565,0,0,1,21.615-32.389Zm6.709,1.89v-.031h.031l.441.409h-.126Zm-5.607,12v.094c.031,0,.22,0,.22-.094Zm1.575-9.827a.135.135,0,0,1,.126.126h-.126Zm-3.339,3.244c.063,0,.063.157,0,.157S20.891-25.081,20.954-25.081Zm4.473-12.5a.047.047,0,1,1,0,.094A.047.047,0,1,1,25.427-37.586ZM23.1-18.5c0,.031.063.063.094.063a.068.068,0,0,0,.063-.063Zm5.1-15.718c0,.031-.126.031-.126,0C28.041-34.279,28.2-34.279,28.2-34.216ZM21.867-22.4c.031,0,.031.126,0,.126C21.8-22.278,21.8-22.4,21.867-22.4Zm-.441-2.331c.094,0,.094.094,0,.094C21.395-24.64,21.395-24.735,21.426-24.735Zm-1.858,4.189v.063l.063.063v-.063Zm6.394-16.883c0,.063-.063.063-.063,0C25.9-37.46,25.994-37.46,25.962-37.429ZM18.434-24.735v.031H18.5v-.031Zm10.741,4.567-.094.031h.094Zm10.457,1.449.094.063a15.5,15.5,0,0,0,2.016.283s.661.063.945.063h.063c.094,0,.441-.063.472-.063.189-.031,1.039-.189,1.2-.252a.715.715,0,0,0,.126-.031c.126-.063,1.165-.378,1.26-.441a4.009,4.009,0,0,0,1.921-1.291c.063-.094.157-.378.189-.378A9.078,9.078,0,0,0,49.649-24.2c.189-.819.252-1.575.441-2.362v-.22c0-.063-.063-.472-.063-.535,0-.5.126-1.039.126-1.512,0-.157-.063-.22-.063-.378v-.22l.063-.063v-.063c0-.031-.126-.094-.126-.126s.094-.157.126-.157v-.535a7.987,7.987,0,0,0-.189-2.142l-.409-1.26c-.567-1.89-1.323-3.654-3.118-4.756a.462.462,0,0,1-.126-.063,5.95,5.95,0,0,0-1.575-.882c-.346-.126-.441-.063-.724-.252a11.025,11.025,0,0,0-2.9-.6,7.9,7.9,0,0,0-1.921.315h-.157a11.137,11.137,0,0,1-1.228.6,11.694,11.694,0,0,0-2.772,2.52l-.409.787c-.094.094-.661.913-.724,1.008a.462.462,0,0,0-.063.126,7.462,7.462,0,0,1-.283,1.134,5.477,5.477,0,0,0-.535,1.575,23.067,23.067,0,0,0-.315,3.244,17.783,17.783,0,0,0,.661,5.008C34.656-21.081,36.42-19.38,39.632-18.719Zm.283-4.6c-.094-.157-.283-.157-.409-.283-.094-.094-.567-.535-.661-.661,0-.094-.094-.189-.189-.126l.063-.063v-.031c0-.346-.441-.63-.441-.945v-.063l.063-.094.031-.031a.031.031,0,0,0-.031-.031,4.448,4.448,0,0,1-.283-1.2c0-.157.063-.252.063-.409v-.063l-.126-.126.063-.126v-.094c0-.126-.063-.157-.063-.315a.321.321,0,0,1,.252.157v-.063c0-.472-.157-.913-.157-1.386,0-.126.032-.535.032-.661,0,0,.063-.031.063-.063l-.063-.094a1.365,1.365,0,0,1,.126-.6c0-.22.063-1.2.094-1.386.031-.157.126-.756.126-.85.094-.441.283-1.008.409-1.449.189-.5,1.1-.661,1.165-1.228,0,.032.032.063.063.094a4.716,4.716,0,0,1,1.638-.661v-.063l-.094-.126h.031c.252,0,.283.252.6.252v-.063c-.063,0-.283-.031-.315-.126h.126c.441,0,.346.252.6.283v-.157c.472,0,.85.63,1.039.945.063.157.693,1.354.787,1.512a7.85,7.85,0,0,1,.756,2.142c.063,1.039.189,2.173.189,3.181,0,.472-.346,3.528-.6,3.528a.462.462,0,0,1-.126-.063l-.063.063c0,.031-.126.189-.126.22-.031.126-.252.63-.283.724-.724.472-1.2,1.386-2.079,1.386a2.809,2.809,0,0,1-.882-.094Zm-3.339.063a.146.146,0,0,1,.157.094c.157.22.535.756.535.756v.063C37.081-22.53,36.577-22.971,36.577-23.254Zm3.244-12.221h.031a3.236,3.236,0,0,1-.724.63C39.129-35.066,39.632-35.476,39.821-35.476Zm5.985,13.891c0-.063.315-.409.441-.409,0,.126-.157.5-.315.5H45.9c-.031,0-.063-.063-.094-.063Zm-8.473-.693H37.4s.063.031.063.063l.409.472h-.063C37.648-21.742,37.365-22.183,37.333-22.278Zm.378-8.379c0,.094,0,.283-.157.283C37.554-30.5,37.585-30.657,37.711-30.657Zm-.315-1.2h.094l-.031.252H37.4Zm.472,3.559c.031-.063.094-.063.157-.063,0,.063-.031.094-.094.126Zm2.362-7.465a.462.462,0,0,1,.126-.063h.063l-.157.126ZM41.365-22.75c-.063,0-.063.126,0,.126C41.4-22.624,41.4-22.75,41.365-22.75Zm-3.874-5.071h.094v.063h-.094Zm.157-4.63c-.031.063-.063.063-.063,0C37.554-32.483,37.648-32.483,37.648-32.452Zm-.315,1.1H37.4v.031h-.063Zm.252,1.134h.063v.031h-.063ZM46.5-22.53h.032v.063H46.5ZM37.743-36.452h.126l-.063.032ZM37.68-31.16h.063v.031H37.68ZM44.8-25.081c-.063-.031-.063.031,0,.031C44.83-25.05,44.83-25.081,44.8-25.081Zm1.543,2.929c0,.031-.031.031-.031,0S46.373-22.183,46.342-22.152Zm12.19-2.394c.189.283,1.134,1.8,1.323,2.079,0,.031.22.472.283.6,0,.031.094.252.094.283a11.537,11.537,0,0,0,1.354,2.047l.283.283c0,.031.031.252.063.252a17.358,17.358,0,0,0,3.685.5c.063,0,1.827-.252,1.827-.441a5.117,5.117,0,0,0-.724-1.8l-.283-.252a7.57,7.57,0,0,1-.346-.724c-.189-.283-.472-.567-.693-.85a23.593,23.593,0,0,1-1.449-2.8c-.063-.189-.409-.945-.5-1.134-.315-.535-.661-1.071-.976-1.543l-.031-.031.031-.031a6.578,6.578,0,0,0,2.488-1.732c.126-.22.094-.472.315-.63.032,0,.063-.063.063-.063a2.022,2.022,0,0,0,.441-.693c.157-.315.189-.6.315-.913v-.787a7.3,7.3,0,0,0-.945-3.937l-.85-1.165c-1.165-1.071-1.89-1.732-2.646-1.8l-1.669-.315c-.63.031-1.26-.063-1.921-.063-1.669,0-3.433.22-5.166.378H52.83l-.441.126v.126c0,.094.063.157.063.283v.031c-.032,0-.063.094-.063.126,0,.157-.031.945-.031,1.1,0,.094-.126.945-.126,1.039a39.788,39.788,0,0,0-.189,4.347c0,2.016.252,4.095.189,6.142l.378,3.78v.252l.22,2.425a1.222,1.222,0,0,0,.189.6c.661,1.008,1.008.882,2.173.882.661,0,2.362.189,2.362-.787,0-.346-.126-.63-.126-1.008-.063-.661-.126-1.354-.126-2.047-.031-.157,0-1.606,0-1.827-.031-.5-.157-1.291-.157-1.89v-.063a5.151,5.151,0,0,1,.063-.693h.063s.724,1.323,1.071,1.921A.976.976,0,0,1,58.531-24.546Zm-1.2-7.339H57.3a2.432,2.432,0,0,0-.472.063,5.83,5.83,0,0,1-.157-1.449l-.22-1.449v-.472c.22-.189.819-.063,1.1-.094.063,0,.346-.063.378-.063s.063-.063.063-.063h.031a.448.448,0,0,1,.063.189h.063c.063,0,.346-.063.378-.063h.063a1.313,1.313,0,0,1,.189.063c.031,0,.283-.063.315-.063s.22.063.252.063h.882a1.973,1.973,0,0,1,1.7,1.732c0,.945-1.323,1.26-2.016,1.26v.157c-.126,0-.157-.157-.22-.157a.11.11,0,0,0-.063.031s.063.031.063.063v.031c0,.126-.252.157-.315.157h-.157c.032-.031.094-.126.126-.126a.11.11,0,0,0-.031-.063h-.031a1.581,1.581,0,0,0-.378.063v.031c0,.063.126.126.189.157a.389.389,0,0,1-.252.126c-.063,0-.094-.283-.252-.283C58.185-31.979,57.744-31.6,57.335-31.885Zm1.827-5.2c-.031,0-.157.031-.189.031a2.432,2.432,0,0,1-.315-.031v-.063h.724c.094.031.346.063.346.157C59.539-36.988,59.287-37.082,59.161-37.082Zm3.433,1.732v-.063a.834.834,0,0,1,.283.6h-.032ZM59.98-36.925a.068.068,0,0,1,.063-.063h.031c.063,0,.22.031.22.063v.063A.932.932,0,0,1,59.98-36.925ZM57.02-29.743c0-.063.189-.063.189-.063,0,.063-.063.094-.126.157A.453.453,0,0,1,57.02-29.743Zm1.134-2.079a.448.448,0,0,1,.189.063.715.715,0,0,1-.126.031h-.063Zm6.142.252v.094H64.17C64.17-31.538,64.233-31.57,64.3-31.57Zm-4.756-3.906h.094a1.417,1.417,0,0,1-.252.063H59.35C59.35-35.507,59.508-35.476,59.539-35.476ZM57.618-29.9c-.032.094-.063.157-.157.157A.149.149,0,0,1,57.618-29.9ZM60.8-32.546c-.031,0-.031.094,0,.094A.047.047,0,1,0,60.8-32.546Zm2.268-4.536a.047.047,0,0,1,0,.094A.047.047,0,1,1,63.067-37.082Zm-.22,2.74c.032,0,.032.063,0,.094C62.815-34.247,62.815-34.373,62.847-34.342ZM59.1-35.476h.126v.063C59.161-35.413,59.13-35.413,59.1-35.476Zm-.756.063c0,.031-.094.031-.126,0C58.217-35.444,58.374-35.444,58.343-35.413Zm.252,3.591h.094l-.031.063Zm5.418.661c.032.031.032.126,0,.126C63.981-31,63.981-31.16,64.012-31.16Zm-1.165-6.174c.032,0,.032.063,0,.063S62.815-37.334,62.847-37.334Zm.22,3.843c.031,0,.031.063,0,.063S63.036-33.491,63.067-33.491Zm12.757,8.946c.189.283,1.134,1.8,1.323,2.079,0,.031.22.472.283.6,0,.031.094.252.094.283a11.538,11.538,0,0,0,1.354,2.047l.283.283c0,.031.032.252.063.252a17.358,17.358,0,0,0,3.685.5c.063,0,1.827-.252,1.827-.441a5.118,5.118,0,0,0-.724-1.8l-.283-.252a7.568,7.568,0,0,1-.346-.724c-.189-.283-.472-.567-.693-.85a23.592,23.592,0,0,1-1.449-2.8c-.063-.189-.409-.945-.5-1.134-.315-.535-.661-1.071-.976-1.543l-.031-.031.031-.031a6.578,6.578,0,0,0,2.488-1.732c.126-.22.094-.472.315-.63.032,0,.063-.063.063-.063a2.022,2.022,0,0,0,.441-.693c.157-.315.189-.6.315-.913v-.787a7.3,7.3,0,0,0-.945-3.937l-.85-1.165c-1.165-1.071-1.89-1.732-2.646-1.8l-1.669-.315c-.63.031-1.26-.063-1.921-.063-1.669,0-3.433.22-5.166.378h-.063l-.441.126v.126c0,.094.063.157.063.283v.031c-.032,0-.063.094-.063.126,0,.157-.031.945-.031,1.1,0,.094-.126.945-.126,1.039a39.789,39.789,0,0,0-.189,4.347c0,2.016.252,4.095.189,6.142l.378,3.78v.252l.22,2.425a1.222,1.222,0,0,0,.189.6c.661,1.008,1.008.882,2.173.882.661,0,2.362.189,2.362-.787,0-.346-.126-.63-.126-1.008-.063-.661-.126-1.354-.126-2.047-.032-.157,0-1.606,0-1.827-.032-.5-.157-1.291-.157-1.89v-.063a5.151,5.151,0,0,1,.063-.693h.063s.724,1.323,1.071,1.921A.976.976,0,0,1,75.824-24.546Zm-1.2-7.339H74.6a2.432,2.432,0,0,0-.472.063,5.831,5.831,0,0,1-.157-1.449l-.22-1.449v-.472c.22-.189.819-.063,1.1-.094.063,0,.346-.063.378-.063s.063-.063.063-.063h.031a.448.448,0,0,1,.063.189h.063c.063,0,.346-.063.378-.063h.063a1.313,1.313,0,0,1,.189.063c.032,0,.283-.063.315-.063s.22.063.252.063h.882a1.973,1.973,0,0,1,1.7,1.732c0,.945-1.323,1.26-2.016,1.26v.157c-.126,0-.157-.157-.22-.157a.11.11,0,0,0-.063.031s.063.031.063.063v.031c0,.126-.252.157-.315.157h-.157c.031-.031.094-.126.126-.126a.11.11,0,0,0-.032-.063H76.58a1.581,1.581,0,0,0-.378.063v.031c0,.063.126.126.189.157a.389.389,0,0,1-.252.126c-.063,0-.094-.283-.252-.283C75.478-31.979,75.037-31.6,74.627-31.885Zm1.827-5.2c-.032,0-.157.031-.189.031a2.433,2.433,0,0,1-.315-.031v-.063h.724c.094.031.346.063.346.157C76.832-36.988,76.58-37.082,76.454-37.082Zm3.433,1.732v-.063a.834.834,0,0,1,.283.6h-.031Zm-2.614-1.575a.068.068,0,0,1,.063-.063h.031c.063,0,.22.031.22.063v.063A.932.932,0,0,1,77.273-36.925Zm-2.961,7.182c0-.063.189-.063.189-.063,0,.063-.063.094-.126.157A.453.453,0,0,1,74.312-29.743Zm1.134-2.079a.448.448,0,0,1,.189.063.715.715,0,0,1-.126.031h-.063Zm6.142.252v.094h-.126C81.462-31.538,81.525-31.57,81.588-31.57Zm-4.756-3.906h.094a1.417,1.417,0,0,1-.252.063h-.031C76.643-35.507,76.8-35.476,76.832-35.476ZM74.911-29.9c-.031.094-.063.157-.157.157A.149.149,0,0,1,74.911-29.9Zm3.181-2.646c-.032,0-.032.094,0,.094A.047.047,0,1,0,78.092-32.546Zm2.268-4.536a.047.047,0,1,1,0,.094A.047.047,0,1,1,80.36-37.082Zm-.22,2.74c.031,0,.031.063,0,.094C80.108-34.247,80.108-34.373,80.139-34.342Zm-3.748-1.134h.126v.063C76.454-35.413,76.423-35.413,76.391-35.476Zm-.756.063c0,.031-.094.031-.126,0C75.509-35.444,75.667-35.444,75.635-35.413Zm.252,3.591h.094l-.032.063Zm5.418.661c.031.031.031.126,0,.126C81.273-31,81.273-31.16,81.3-31.16Zm-1.165-6.174c.031,0,.031.063,0,.063S80.108-37.334,80.139-37.334Zm.22,3.843c.032,0,.032.063,0,.063S80.328-33.491,80.36-33.491ZM91.227-18.656a4.589,4.589,0,0,0,1.732.189,8.23,8.23,0,0,0,1.008.189c0-.094-.094-.126-.189-.189.126-.157.535-.126.535-.346-.126,0-.283-.063-.283-.189,0-.031.063-.094.094-.126v-.063a1.277,1.277,0,0,1-.157-.283v-.189c.032-.283.063-.882.063-.882l.126-.094v-.535h-.063c0-.315.063-.157.126-.409-.032.031-.095.031-.095.063h-.063c-.032,0-.378-2.047-.378-2.236v-.157c0-.031.094-.126.094-.126.032,0-.031-.126-.031-.126a2.847,2.847,0,0,1-.063-.913v-.567c.126-.031.094-.535.189-.693.189-.724.22-1.386.409-2.079a6.855,6.855,0,0,1,1.1-1.543c.063-.157.063-.346.22-.441,0-.031.032-.031.032-.063.441-.756.913-1.606,1.417-2.331.032-.346.441-.787.6-1.071.441-.945.913-1.921,1.26-2.9a8.407,8.407,0,0,0,.85-2.74c0-.283-.031-.472-.346-.472h-.031c-.094,0-.346.031-.441.031a.031.031,0,0,1-.032-.031c-.157-.441-.567-.22-.913-.5H96.8c-1.323.409-1.921.189-2.646,1.323a13.21,13.21,0,0,1-.756,1.323L91.888-34.4l-.315.945-.063.063-.756-1.921a18.046,18.046,0,0,1-1.7-3.055c-.031-1.039-1.291-1.638-2.2-1.669-.157,0-1.543-.063-1.732-.063H84.77a5.8,5.8,0,0,0-.787.157c-.315.094-.819.031-.819.5,0,.283.661,1.134.819,1.449a11.412,11.412,0,0,1,.63,1.417,6.232,6.232,0,0,0,.693,1.228c.535,1.1.976,2.362,1.606,3.465.378.661.882,1.2,1.26,1.827a5.163,5.163,0,0,0,1.039,1.512v1.827l.094.094a.11.11,0,0,0,.063-.031v.157h-.126v.126c0,.094.063.567.063.661.031,0,.126.126.126.157s-.063.094-.063.126v.346c0,1.827.378,3.528.409,5.355.189.882.661.945,1.512.945C91.29-18.719,91.321-18.719,91.227-18.656Zm.976-4.536a.341.341,0,0,1,.032-.189l-.094-.063v-2.268l.063-.094.032.094s.063.441.063.63v.5c0,.031.063.252.063.315,0,0-.032.094-.063.094v.031c0,.283.157.661.126.945a.588.588,0,0,1-.126.094l-.032.031C92.2-23.065,92.2-23.16,92.2-23.191ZM91.227-19.6v-.063l.126-.189h.031c.094,0,.189.22.189.315l.441.157v.031c0,.094-.126.094-.157.094A.726.726,0,0,1,91.227-19.6Zm3.055-.031c0,.126.031.283.22.283,0-.126-.157-.252-.22-.378Zm-1.543.378v-.031c0-.031.032-.063.032-.094h.094c0,.031.094.126.094.126-.031.063-.063.063-.094.063C92.77-19.191,92.739-19.223,92.739-19.254Zm5.449-19.623a.031.031,0,0,1,.031.031.182.182,0,0,1-.189.189C98.03-38.752,98.062-38.878,98.188-38.878ZM93.967-24.735v.031l.063.063.094-.189v-.094C94.093-24.924,94-24.8,93.967-24.735Zm-1.8,1.827c.031,0,.157.031.157.094a.031.031,0,0,1-.031.031s-.032.063-.063.063C92.172-22.75,92.172-22.845,92.172-22.908ZM91.7-32.893c.094,0,.157.063.157.189C91.762-32.7,91.7-32.767,91.7-32.893Zm.472,13.2c.063,0,.126.094.126.157,0,0-.032.063-.063.063C92.172-19.506,92.172-19.632,92.172-19.7Zm.787-.441.063-.063h.063l.063.063-.063.031a.031.031,0,0,1-.031.031Zm1.165-3.685a.079.079,0,0,0,0,.157C94.156-23.664,94.156-23.821,94.125-23.821Zm-1.512,3.685.063-.063.094.094-.032.031C92.676-20.073,92.613-20.073,92.613-20.136Zm1.134-.189a.164.164,0,0,1,.126-.063v.126A.164.164,0,0,1,93.747-20.325Zm.378-4.252c-.063-.031-.063.189,0,.189A.2.2,0,0,0,94.125-24.577Zm0,.6a.063.063,0,1,0,0,.126C94.156-23.853,94.156-23.979,94.125-23.979Zm-.346.346c-.031,0-.031.126,0,.126A.063.063,0,1,0,93.778-23.632Zm-2.74,3.307.094-.063.031.063-.031.063Zm1.26,1.039.063-.094.063.094-.063.031Zm1.921-.85c-.032-.031-.032.189,0,.189C94.251-19.979,94.251-20.136,94.219-20.136Zm-.063-5.67v.441A1.038,1.038,0,0,0,94.156-25.806Zm-.063-.283c0,.063.031.126.063.126v-.126Zm-4.725,0h.063v.063h-.063Zm4.5.472c-.063,0-.063.094,0,.063C93.9-25.554,93.9-25.617,93.873-25.617Zm-1.134,6.079c0,.031-.063.031-.063,0C92.644-19.6,92.739-19.6,92.739-19.538Zm.126-.85c.032.031.032.063,0,.063C92.8-20.325,92.8-20.388,92.865-20.388Zm-3.5-5.449h.063v.031h-.063Zm4.756.724c-.063,0-.063.063,0,.031C94.156-25.081,94.156-25.113,94.125-25.113ZM91.29-20.451c0,.031-.063.031-.063,0S91.321-20.483,91.29-20.451Zm2.929-2.866c-.032,0-.032.063,0,.063C94.251-23.286,94.251-23.317,94.219-23.317ZM94.156-21.9v.063C94.188-21.837,94.188-21.868,94.156-21.9Z" transform="translate(-0.572 46.906) rotate(11)" fill="#fff"/>
      </g>
    </g>
    <g id="Grupo_89341" data-name="Grupo 89341" transform="matrix(0.809, -0.588, 0.588, 0.809, 829.66, -877.619)">
      <path id="Trazado_121566" data-name="Trazado 121566" d="M-311.875,1266.486c-3.456-3.094-10.1-2.718-14.4-2.823-5.554-.137-12.69-.929-17.864,1.365-1.774.786-3.777,1.857-4,4.022-.236,2.331-.214,5.083,2.095,6.193-.716,8.6,2.238,14.873,9.151,19.812,4.58,3.27-.143,6.7-2.815,8.813a20.65,20.65,0,0,0-3.779,4.145,16.9,16.9,0,0,0-2.7,12.74c-3.054,2.692-3.474,8.089.668,9.871,4.449,1.915,10.119,1.793,14.831,1.878,4.968.09,12.919.781,17.177-2.382,2.53-1.879,1.648-6.567-.444-8.625a20.762,20.762,0,0,0-1.829-12.8,17.419,17.419,0,0,0-3.555-4.746c-2.435-2.393-7.606-5.333-2.843-8.892,6.69-5,9.738-10.816,9.189-19.244C-309.624,1274.574-309.2,1268.885-311.875,1266.486Z" transform="translate(0 -0.398)" fill="#fff"/>
      <g id="Grupo_89340" data-name="Grupo 89340" transform="translate(-348.549 1262.914)">
        <path id="Trazado_121567" data-name="Trazado 121567" d="M-326.272,1263.663c-5.554-.137-12.69-.929-17.864,1.365-1.774.786-3.777,1.857-4,4.022-.236,2.331-.214,5.083,2.095,6.193-.716,8.6,2.238,14.873,9.151,19.812,4.58,3.27-.143,6.7-2.815,8.813a20.663,20.663,0,0,0-3.779,4.145,16.9,16.9,0,0,0-2.7,12.74c-3.054,2.692-3.474,8.089.668,9.871,4.449,1.915,10.119,1.793,14.831,1.878,4.968.09,12.919.781,17.177-2.382,2.53-1.879,1.648-6.567-.444-8.625a20.762,20.762,0,0,0-1.829-12.8,17.421,17.421,0,0,0-3.555-4.746c-2.435-2.393-7.606-5.333-2.843-8.892,6.69-5,9.738-10.816,9.189-19.244,3.366-1.236,3.794-6.925,1.115-9.323C-315.331,1263.392-321.974,1263.769-326.272,1263.663Zm11.116,65.367c-1.314.976-4.166,1.066-5.7,1.243a84.255,84.255,0,0,1-10.907.362,64.122,64.122,0,0,1-8.578-.551c-1.165-.177-2.33-.508-3.479-.765-1.924-.431-2.706-1.45-2.865-2.679l.394.139a6.066,6.066,0,0,0,2.027.43.15.15,0,0,0,.075-.277,5.914,5.914,0,0,0-1.666-.8c-.283-.1-.568-.215-.854-.326a6.194,6.194,0,0,1,.159-.987,10.9,10.9,0,0,0,6.52,1.615.17.17,0,0,0,.045-.332c-1.2-.364-2.44-.528-3.65-.844-.947-.247-1.822-.751-2.741-1.057.116-.363.255-.722.408-1.075,3.2,2.5,8.887,2.9,12.584,2.487.151-.017.218-.265.039-.292-4.408-.65-8.363-.866-12.368-2.754q.14-.292.286-.569c8.987,3.893,20.631,2.674,30.052.671C-313.652,1324.039-313.316,1327.664-315.155,1329.03Zm-11.119-31.98c-1.422,3.534,3.524,6.466,5.582,8.253,4.514,3.917,5.565,10.13,4.992,15.773-9.8,1.274-18.918,2.188-28.664-.056a16.955,16.955,0,0,1,5.427-15.285c2.695-2.521,6.479-4.179,6.182-8.43-.221-3.15-5.2-5.3-7.162-7.194-4.093-3.97-3.975-9.691-4.549-14.954,4.2-.168,8.43-.852,12.642-1.018,5.235-.207,12.283-.913,17.185,1.44-.515,4.979-.556,9.936-3.968,13.959C-320.961,1292.314-324.871,1293.562-326.275,1297.05Zm12.659-22.964a.938.938,0,0,0-.142.092c-4.663-2.329-10.983-1.874-16-1.792-4.492.073-11.22-.39-15.543,1.629a5.013,5.013,0,0,1-.447-.522,22.541,22.541,0,0,1,5.332-1.88c2.2-.43,4.454-.356,6.676-.6.2-.021.278-.333.05-.372-3.55-.623-9.383-.25-12.367,2.393a3.691,3.691,0,0,1-.344-.88,9.067,9.067,0,0,1,3.509-1.979c1.331-.394,2.72-.467,4.06-.792a.156.156,0,0,0,0-.3c-2.1-.466-5.878.229-7.686,2.066a4.039,4.039,0,0,1,.333-1.444c2.408-1.521,5.646-1.974,8.339-2.263.163-.017.233-.28.042-.311a12.417,12.417,0,0,0-7.864,1.653,6.722,6.722,0,0,1,3.286-2.454,23.615,23.615,0,0,1,6.749-.8c2.79-.081,5.6-.1,8.386-.071a61.161,61.161,0,0,1,9.866.812,12.939,12.939,0,0,1,3.484,1.069C-312.006,1268.26-311.528,1273.244-313.615,1274.086Z" transform="translate(348.549 -1263.312)"/>
        <path id="Trazado_121568" data-name="Trazado 121568" d="M-299.836,1352.4c-3.216-.974-6.9-.935-10.218-.9-2.579.028-6.879-.152-9.017,1.64-3.343,2.8,3.011,6.747,5.925,8.832a7.222,7.222,0,0,1,2.682,3.606c1.04,3.62-1.947,6.327-4.483,8.238a17.578,17.578,0,0,0-6.859,10.949,5.059,5.059,0,0,0,.831,3.822c1.236,1.345,3.19,1.372,4.9,1.539a87.585,87.585,0,0,0,13.69.053c3.034-.183,5.687-.213,6.246-3.809.717-4.608-2.557-9.344-5.982-11.977-3.04-2.337-5.427-5.414-3.6-9.427,1.006-2.206,3.787-3.59,5.484-5.235C-298.012,1357.58-295.523,1353.706-299.836,1352.4Zm-.671,6.311c-2.935,3.114-7.373,4.942-6.685,10a8.335,8.335,0,0,0,3.451,5.641c2.765,2.213,4.7,3.958,5.955,7.377.792,2.16,1.714,6.579-1.515,7.13a49.036,49.036,0,0,1-5.566.469,64.339,64.339,0,0,1-13.829-.336c-3.721-.617-2.109-5.676-1.1-7.821a18.354,18.354,0,0,1,4.868-6.281c2.878-2.382,5.283-4.184,5.388-8.188a5.75,5.75,0,0,0-2.331-4.524c-1.925-2.238-4.827-3.468-6.6-5.916-2.724-3.771,7.778-3.75,9.574-3.777a44.544,44.544,0,0,1,6.858.393,15.267,15.267,0,0,1,2.274.5C-296.468,1354.374-299.393,1357.53-300.507,1358.71Z" transform="translate(327.571 -1332.548)"/>
        <path id="Trazado_121569" data-name="Trazado 121569" d="M-273.525,1552.808a.169.169,0,0,0,0,.291.822.822,0,0,0,.822-.026.141.141,0,0,0,0-.238A.823.823,0,0,0-273.525,1552.808Z" transform="translate(289.633 -1490.744)"/>
        <path id="Trazado_121570" data-name="Trazado 121570" d="M-304.778,1557.4a.214.214,0,0,0,0,.427.737.737,0,0,0,.463-.072.106.106,0,0,0,.037-.142C-304.4,1557.41-304.545,1557.4-304.778,1557.4Z" transform="translate(314.3 -1494.43)"/>
        <path id="Trazado_121571" data-name="Trazado 121571" d="M-274.289,1297.408a.194.194,0,0,0,0,.372,1.229,1.229,0,0,0,.851.005.163.163,0,0,0,.033-.254A.867.867,0,0,0-274.289,1297.408Z" transform="translate(290.277 -1289.984)"/>
        <path id="Trazado_121572" data-name="Trazado 121572" d="M-172.647,1265.376c-.539-1.262-2.079-3.239-3.618-2.143a.132.132,0,0,0,0,.226,12.834,12.834,0,0,1,1.55.692,3.92,3.92,0,0,1,1.311,2.172,26.076,26.076,0,0,1,.444,3.909.187.187,0,0,0,.311.082C-171.633,1269.078-172.077,1266.712-172.647,1265.376Z" transform="translate(213.154 -1262.914)"/>
        <path id="Trazado_121573" data-name="Trazado 121573" d="M-335.595,1445.524a21.263,21.263,0,0,1,2.471-4.114c.986-1.164,2.355-1.7,3.439-2.7a.171.171,0,0,0-.12-.289c-1.526-.091-2.964,1.349-3.927,2.379a7.465,7.465,0,0,0-2.217,4.627A.191.191,0,0,0-335.595,1445.524Z" transform="translate(338.643 -1400.891)"/>
        <path id="Trazado_121574" data-name="Trazado 121574" d="M-192.524,1455.006a.273.273,0,0,0-.33.427,13.649,13.649,0,0,1,2.973,5.333,22.462,22.462,0,0,1,.359,6.273.17.17,0,0,0,.332.045C-187.951,1463.339-188.661,1457.072-192.524,1455.006Z" transform="translate(226.199 -1413.901)"/>
      </g>
    </g>
  </g>
</svg>
