<svg xmlns="http://www.w3.org/2000/svg" width="272.42" height="141.542" viewBox="0 0 272.42 141.542">
  <g id="Grupo_166710" data-name="Grupo 166710" transform="translate(-1102.548 -417.485)">
    <g id="Grupo_89334" data-name="Grupo 89334" transform="translate(971.939 302.878)">
      <g id="Grupo_81065" data-name="Grupo 81065" style="mix-blend-mode: overlay;isolation: isolate">
        <path id="Trazado_115015" data-name="Trazado 115015" d="M201.459,222.3c-4.818,4.93-9.8,9.679-14.871,14.344,2.194-4.96,4.559-9.841,6.642-14.853,2.361-5.682,5.106-13.427,2.129-19.387-6.784-13.585-23.933-.255-30.244,6.583-.672.729-1.314,1.49-1.964,2.242,2.255-5.522,4.285-11.2,3.749-17.162-.737-8.2-8.257-10.171-14.731-6.359-6.952,4.092-12.536,11.173-17.2,17.6-3.96,5.462,5.1,10.662,9.03,5.278a71.032,71.032,0,0,1,7.059-8.257q-.562,1.03-1.137,2.057a153.28,153.28,0,0,0-7.1,13.831c-3.952,9.119-9.8,21.744-4.825,31.336,2.506,4.834,8.382,5.325,12.806,3.358,5.947-2.644,10.066-8.481,14.037-13.421,4.145-5.158,7.8-10.635,11.633-16.017a77.947,77.947,0,0,1,5.041-6.6c.042-.048.086-.092.128-.139l-.046.145c-1.019,3.168-2.329,6.208-3.656,9.256-2.468,5.671-5.652,11.64-6.556,17.81-.8,5.456,1.41,11.571,7.972,11.175,6.169-.372,11.113-6.314,15.237-10.282,4.994-4.806,9.9-9.707,14.8-14.6C214.523,225.134,206.52,217.128,201.459,222.3Z" fill="#3c384f"/>
        <path id="Trazado_115016" data-name="Trazado 115016" d="M178.771,256.149a7.839,7.839,0,0,1-5.971-2.478c-2.078-2.263-2.976-5.949-2.4-9.86.747-5.1,2.971-9.983,5.121-14.705.515-1.131,1.025-2.251,1.507-3.359.457-1.051.938-2.155,1.415-3.3q-.438.61-.867,1.214l-.284.4c-1,1.4-1.981,2.8-2.964,4.206-2.761,3.94-5.616,8.015-8.7,11.857-.451.561-.9,1.134-1.362,1.713-3.541,4.478-7.554,9.553-13.048,11.995-4.9,2.175-11.313,1.566-14.1-3.811-5.007-9.659.4-22.088,4.347-31.163l.448-1.032c1.161-2.681,2.463-5.3,3.844-7.9q-.48.625-.942,1.26a6.656,6.656,0,0,1-9.394,1.306,5.277,5.277,0,0,1-1.254-7.761c4.977-6.865,10.542-13.783,17.5-17.879,3.862-2.273,8.089-2.642,11.31-.987,2.836,1.457,4.585,4.34,4.924,8.119A30.627,30.627,0,0,1,165.95,206.7c5.135-5.017,14.632-12.132,22.251-11.054,3.5.5,6.209,2.621,8.052,6.312,3.032,6.07.64,13.627-2.1,20.218-1.3,3.138-2.738,6.268-4.125,9.3l-.491,1.071c4.127-3.87,7.819-7.475,11.207-10.941h0a6.009,6.009,0,0,1,5.986-1.778,7.368,7.368,0,0,1,5.1,5.061,6.063,6.063,0,0,1-1.722,6.064l-.558.556c-4.645,4.636-9.448,9.43-14.26,14.059-.593.571-1.2,1.182-1.83,1.812-3.736,3.745-8.385,8.407-14.04,8.748C179.2,256.143,178.984,256.149,178.771,256.149Zm2.869-40.361a.944.944,0,0,1,.484.129.973.973,0,0,1,.472,1.135l-.047.146c-1.068,3.322-2.461,6.523-3.69,9.347-.487,1.119-1,2.249-1.521,3.389-2.092,4.6-4.256,9.348-4.962,14.167-.479,3.272.248,6.421,1.9,8.217a6,6,0,0,0,5.024,1.815c4.9-.3,9.066-4.476,12.745-8.165.638-.639,1.257-1.26,1.859-1.84,4.8-4.617,9.6-9.4,14.235-14.034l.557-.556a4.067,4.067,0,0,0,1.205-4.124,5.383,5.383,0,0,0-3.671-3.649A4.007,4.007,0,0,0,202.175,223h0c-4.377,4.477-9.254,9.181-14.911,14.38a1,1,0,0,1-1.591-1.141c.829-1.875,1.683-3.738,2.537-5.6,1.379-3.012,2.806-6.126,4.1-9.231,2.567-6.174,4.83-13.207,2.158-18.556-1.553-3.112-3.694-4.821-6.545-5.225-7.1-1.006-17.092,6.646-22.069,12.04-.531.574-1.042,1.17-1.554,1.766l-.387.451a1,1,0,0,1-1.683-1.031c2.147-5.26,4.2-10.882,3.678-16.7-.28-3.115-1.61-5.369-3.846-6.518-2.608-1.34-6.115-.991-9.382.931-6.642,3.911-12.046,10.64-16.9,17.33a3.316,3.316,0,0,0,.811,4.97,4.627,4.627,0,0,0,6.6-.868,72.419,72.419,0,0,1,7.158-8.374,1,1,0,0,1,1.587,1.185q-.565,1.035-1.143,2.066a152.988,152.988,0,0,0-7.053,13.74l-.449,1.034c-3.788,8.707-8.974,20.632-4.406,29.445,2.219,4.281,7.471,4.7,11.512,2.9,5.043-2.241,8.728-6.9,12.291-11.408.461-.582.918-1.16,1.373-1.725,3.046-3.791,5.881-7.838,8.624-11.752q1.479-2.112,2.973-4.219l.284-.4a74.4,74.4,0,0,1,4.824-6.284l.089-.1A1.092,1.092,0,0,1,181.64,215.788Zm19.82,6.517h0Z" fill="#3c384f"/>
        <path id="Trazado_115017" data-name="Trazado 115017" d="M142.792,223.274c-3.684,7.4-5.763,16.084-2.526,24.042.478,1.177,2.413.662,1.928-.532-3.038-7.472-1.14-15.537,2.325-22.5C145.091,223.135,143.366,222.12,142.792,223.274Z" fill="#3c384f"/>
        <path id="Trazado_115018" data-name="Trazado 115018" d="M145.829,244.381c-.017,0-.033-.007-.049-.01-.028-.054-.053-.113-.062-.129l-.005-.006c0-.008,0,0,0-.014-.129-.447-.221-.9-.319-1.354q-.339-1.582-.679-3.165a1.007,1.007,0,0,0-1.23-.7,1.023,1.023,0,0,0-.7,1.23q.384,1.789.769,3.58c.213.993.554,2.3,1.744,2.495a1.024,1.024,0,0,0,1.23-.7A1.011,1.011,0,0,0,145.829,244.381Z" fill="#3c384f"/>
        <path id="Trazado_115019" data-name="Trazado 115019" d="M189.856,201.723c-1.135-.606-2.146,1.12-1.009,1.727,1.57.838,2.049,2.544,2.111,4.22a28.922,28.922,0,0,1-.451,5.733,38.049,38.049,0,0,1-3.471,10.742c-.571,1.149,1.153,2.163,1.727,1.009a40.021,40.021,0,0,0,3.882-12.651C193.116,208.9,193.68,203.764,189.856,201.723Z" fill="#3c384f"/>
      </g>
      <g id="Grupo_81068" data-name="Grupo 81068">
        <g id="Grupo_81067" data-name="Grupo 81067">
          <g id="Grupo_81066" data-name="Grupo 81066">
            <path id="Trazado_115020" data-name="Trazado 115020" d="M199.088,219.934c-4.818,4.93-9.8,9.679-14.872,14.343,2.194-4.959,4.56-9.841,6.643-14.852,2.361-5.682,5.105-13.427,2.129-19.387-6.784-13.585-23.933-.256-30.244,6.583-.673.728-1.314,1.489-1.964,2.242,2.254-5.522,4.284-11.2,3.749-17.162-.737-8.2-8.257-10.171-14.731-6.36-6.953,4.093-12.536,11.174-17.2,17.6-3.96,5.462,5.1,10.662,9.031,5.278a71.117,71.117,0,0,1,7.058-8.258q-.562,1.03-1.136,2.058a153.4,153.4,0,0,0-7.1,13.83c-3.953,9.12-9.8,21.744-4.825,31.337,2.506,4.834,8.381,5.325,12.806,3.358,5.947-2.644,10.066-8.481,14.037-13.421,4.145-5.158,7.8-10.635,11.632-16.017a78.554,78.554,0,0,1,5.041-6.6c.042-.047.087-.091.129-.139l-.046.146c-1.019,3.168-2.33,6.208-3.656,9.256-2.469,5.67-5.652,11.639-6.556,17.81-.8,5.456,1.41,11.571,7.972,11.175,6.168-.372,11.112-6.314,15.236-10.282,4.995-4.806,9.9-9.708,14.806-14.6C212.151,222.763,204.148,214.757,199.088,219.934Z" fill="#6b8dff"/>
            <path id="Trazado_115021" data-name="Trazado 115021" d="M176.4,253.777a7.836,7.836,0,0,1-5.97-2.477c-2.078-2.263-2.976-5.949-2.4-9.861.746-5.1,2.97-9.982,5.121-14.705.514-1.131,1.024-2.25,1.507-3.358.457-1.051.938-2.155,1.415-3.3-.292.406-.581.812-.867,1.214l-.284.4c-1,1.4-1.981,2.8-2.965,4.206-2.76,3.941-5.615,8.016-8.7,11.857q-.677.843-1.362,1.714c-3.541,4.477-7.554,9.552-13.048,11.995-4.9,2.175-11.313,1.565-14.1-3.812-5.007-9.658.4-22.087,4.346-31.163l.449-1.031c1.161-2.681,2.463-5.3,3.843-7.9q-.479.625-.942,1.259a6.654,6.654,0,0,1-9.393,1.307,5.277,5.277,0,0,1-1.254-7.761c4.977-6.865,10.542-13.783,17.5-17.88,3.863-2.272,8.089-2.641,11.311-.986,2.836,1.457,4.584,4.339,4.924,8.118a30.609,30.609,0,0,1-1.947,12.721c5.136-5.016,14.632-12.131,22.251-11.053,3.5.5,6.21,2.621,8.053,6.312,3.031,6.07.639,13.626-2.1,20.218-1.3,3.137-2.738,6.268-4.125,9.295l-.491,1.071c4.127-3.869,7.819-7.474,11.207-10.94h0a6.008,6.008,0,0,1,5.986-1.777,7.365,7.365,0,0,1,5.1,5.061,6.058,6.058,0,0,1-1.721,6.063l-.558.557c-4.645,4.636-9.448,9.429-14.26,14.059-.593.571-1.2,1.182-1.831,1.812-3.735,3.745-8.384,8.407-14.039,8.748C176.828,253.771,176.613,253.777,176.4,253.777Zm2.869-40.361a.943.943,0,0,1,.484.13.972.972,0,0,1,.473,1.135l-.047.146c-1.068,3.321-2.461,6.523-3.69,9.347-.487,1.118-1,2.248-1.521,3.389-2.093,4.6-4.257,9.348-4.963,14.166-.479,3.272.248,6.421,1.9,8.218a6.005,6.005,0,0,0,5.024,1.815c4.9-.3,9.066-4.476,12.744-8.165.638-.64,1.258-1.261,1.86-1.84,4.8-4.617,9.6-9.4,14.235-14.034l.557-.557a4.065,4.065,0,0,0,1.2-4.124,5.38,5.38,0,0,0-3.671-3.648,4.005,4.005,0,0,0-4.051,1.239h0c-4.377,4.477-9.254,9.181-14.911,14.381a1,1,0,0,1-1.591-1.141c.829-1.875,1.683-3.738,2.536-5.6,1.38-3.011,2.806-6.125,4.1-9.23,2.566-6.174,4.83-13.207,2.158-18.557-1.554-3.111-3.7-4.82-6.545-5.225-7.1-1.005-17.093,6.647-22.07,12.04-.53.575-1.041,1.171-1.553,1.766l-.388.452a1,1,0,0,1-1.683-1.032c2.148-5.259,4.2-10.882,3.679-16.7-.28-3.116-1.61-5.37-3.846-6.519-2.609-1.339-6.115-.99-9.382.932-6.643,3.91-12.046,10.64-16.9,17.33a3.314,3.314,0,0,0,.811,4.969,4.626,4.626,0,0,0,6.6-.867,72.237,72.237,0,0,1,7.158-8.374,1,1,0,0,1,1.586,1.184q-.565,1.036-1.142,2.067a153,153,0,0,0-7.054,13.74l-.449,1.034c-3.787,8.707-8.973,20.632-4.4,29.444,2.219,4.282,7.471,4.7,11.512,2.9,5.043-2.241,8.728-6.9,12.291-11.408q.691-.875,1.372-1.726c3.047-3.79,5.882-7.837,8.625-11.751.986-1.408,1.973-2.817,2.973-4.22l.284-.4a74.44,74.44,0,0,1,4.823-6.284l.09-.1A1.091,1.091,0,0,1,179.268,213.416Zm19.82,6.518h0Z"/>
          </g>
          <path id="Trazado_115022" data-name="Trazado 115022" d="M140.421,220.9c-3.685,7.4-5.763,16.083-2.527,24.042.479,1.176,2.414.662,1.929-.532-3.039-7.473-1.141-15.537,2.325-22.5C142.719,220.763,140.995,219.749,140.421,220.9Z"/>
          <path id="Trazado_115023" data-name="Trazado 115023" d="M143.458,242.01c-.017,0-.033-.007-.049-.01-.028-.055-.054-.113-.063-.129l0-.006c0-.008,0,0,0-.015-.129-.446-.222-.9-.319-1.353q-.34-1.582-.679-3.165a1.008,1.008,0,0,0-1.231-.7,1.023,1.023,0,0,0-.7,1.23l.768,3.579c.214.994.555,2.3,1.745,2.5a1.025,1.025,0,0,0,1.23-.7A1.012,1.012,0,0,0,143.458,242.01Z"/>
          <path id="Trazado_115024" data-name="Trazado 115024" d="M187.485,199.352c-1.135-.606-2.147,1.12-1.009,1.727,1.57.838,2.048,2.544,2.111,4.219a28.932,28.932,0,0,1-.451,5.734,38.049,38.049,0,0,1-3.471,10.742c-.572,1.149,1.153,2.163,1.727,1.009a40.062,40.062,0,0,0,3.882-12.651C190.745,206.527,191.309,201.392,187.485,199.352Z"/>
        </g>
      </g>
    </g>
    <g id="Grupo_166581" data-name="Grupo 166581">
      <g id="Grupo_166576" data-name="Grupo 166576">
        <g id="Grupo_89337" data-name="Grupo 89337" transform="translate(1781.438 19.975)">
          <path id="Trazado_121549" data-name="Trazado 121549" d="M-408.318,452.113c-8.264-.829-21.96.294-28.308-6.173-5.209-5.305,3.448-16.019,5.736-20.98a1.055,1.055,0,0,0-1.3-1.629c-6.812,3.405-13.339,7.328-20.284,10.479-3.5,1.588-7.4,3.116-11.324,3.087-5.9-.044-2.923-8.958-2.083-11.984,0,0,0-.009,0-.014a.763.763,0,0,0-.017-.562.962.962,0,0,0-.77-.642.945.945,0,0,0-.955.234c-2.633,2.689-5.789,5.9-9.958,4.9-3.43-.822-5.7-4.684-7.259-7.443-3.2-5.645-4.572-12.015-6.184-18.2a.977.977,0,0,0-.34-.516c-.238-.938-1.713-1.239-2-.1-1.642,6.545-3.582,14.816-11.063,17.078-10.725,3.243-23.275-9.158-30.76-14.543a.949.949,0,0,0-.484-.176c-.826-.3-1.852.46-1.293,1.413,3.54,6.038,9.741,14.055,7.6,21.459-1.539,5.33-10.01,6.73-14.579,8.058a1.022,1.022,0,0,0,.51,1.978.907.907,0,0,0,.138.1c5.988,2.584,12.246,7.805,6.646,14.081-2.313,2.592-6.584,4.227-9.7,5.654-4.977,2.272-10.385,3.582-15.684,4.918-.018,0-.029.017-.046.022a.777.777,0,0,0-.237.115.726.726,0,0,0-.106.067.928.928,0,0,0-.1.12c-.521.625-.212,1.847.778,1.73l.022,0c7.484,1.329,18.261,2.436,22.928,9.084,4.031,5.739-1.975,13.04-4.592,17.979-.009.017-.008.035-.017.053a.8.8,0,0,0-.005.823,1.006,1.006,0,0,0,1.677.368l.013-.015c4.918-2.967,11.353-8.288,17.488-6.569,7.379,2.064,10.031,14.719,12.8,20.337.493,1,1.9.467,2.012-.457,2.293-4.457,5.291-15.164,11.161-15.655,4.574-.383,7.227,11.667,7.872,14.793a1.04,1.04,0,0,0,1.826.326c5.72-4.365,10.929-10.234,18.882-8.858,9.462,1.637,18.3,9.632,26.114,14.533a.965.965,0,0,0,.706.129c.605.118,1.356-.277,1.287-.96-.8-7.923-7.211-15-4.874-23.37,1.834-6.569,12.014-5.159,17.133-5.117,1.283.01,1.61-1.967.307-2.218l-.044-.008c-3.76-2.05-12.6-5.272-11.673-10.559.693-3.973,6.689-6.422,9.936-7.893,7.132-3.233,14.833-4.575,22.21-7.067l.262-.006A1.1,1.1,0,0,0-408.318,452.113Z" transform="translate(-2.647 -0.894)" fill="#fff"/>
          <g id="Grupo_89336" data-name="Grupo 89336" transform="translate(-568.739 397.511)">
            <path id="Trazado_121556" data-name="Trazado 121556" d="M-401.637,455.639c-8.622-.888-22.91.315-29.533-6.606-5.434-5.677,3.6-17.142,5.984-22.451a1.119,1.119,0,0,0-1.355-1.743c-7.107,3.644-13.916,7.842-21.162,11.213-3.654,1.7-7.725,3.335-11.814,3.3-6.153-.047-3.05-9.586-2.173-12.824,0-.005,0-.009,0-.015a.836.836,0,0,0-.017-.6,1.011,1.011,0,0,0-.8-.687.968.968,0,0,0-1,.251c-2.747,2.877-6.04,6.311-10.389,5.24-3.578-.88-5.942-5.013-7.573-7.965-3.335-6.04-4.77-12.857-6.452-19.478a1.047,1.047,0,0,0-.355-.553,1.07,1.07,0,0,0-2.086-.1c-1.713,7-3.737,15.854-11.541,18.275-11.189,3.47-24.281-9.8-32.09-15.563a.974.974,0,0,0-.505-.188,1.064,1.064,0,0,0-1.349,1.512c3.693,6.461,10.162,15.04,7.933,22.963-1.605,5.7-10.443,7.2-15.21,8.622a1.093,1.093,0,0,0,.531,2.117.952.952,0,0,0,.144.1c6.247,2.765,12.775,8.352,6.934,15.069-2.413,2.774-6.869,4.523-10.123,6.05-5.192,2.432-10.834,3.833-16.362,5.263-.019.005-.03.019-.048.024a.8.8,0,0,0-.247.123.753.753,0,0,0-.111.072.976.976,0,0,0-.108.129c-.544.669-.221,1.977.811,1.851l.023,0c7.808,1.422,19.051,2.607,23.92,9.721,4.2,6.142-2.06,13.954-4.791,19.24-.009.019-.008.037-.017.057a.878.878,0,0,0-.005.881,1.039,1.039,0,0,0,1.749.393l.014-.016c5.131-3.175,11.844-8.869,18.244-7.03,7.7,2.208,10.465,15.751,13.349,21.762.514,1.071,1.983.5,2.1-.489,2.392-4.769,5.52-16.228,11.644-16.752,4.772-.409,7.539,12.485,8.212,15.83a1.075,1.075,0,0,0,1.905.349c5.967-4.671,11.4-10.952,19.7-9.479,9.871,1.752,19.093,10.307,27.244,15.551a.987.987,0,0,0,.737.138,1.067,1.067,0,0,0,1.342-1.027c-.831-8.479-7.523-16.051-5.085-25.009,1.913-7.03,12.533-5.521,17.874-5.475,1.339.011,1.68-2.1.32-2.374l-.046-.008c-3.923-2.194-13.142-5.641-12.178-11.3.723-4.252,6.978-6.872,10.366-8.447,7.44-3.459,15.474-4.9,23.17-7.563l.273-.007A1.174,1.174,0,0,0-401.637,455.639Zm-30.26,10.383c-3.227,2-7.068,5.4-6.377,9.637.619,3.806,3.868,6.74,7.5,8.856-4.883-.021-9.918,1.093-12.434,5.03-4.649,7.271-.713,17.19,2.885,24.933-7.492-6.209-16.812-13.463-26.236-14.332-7.678-.71-13.855,4.04-18.726,9.526-.685-5.956-3.553-13.9-9.09-15.634-6.381-2-11.5,8.682-13.766,15.392-2.273-7.669-6.43-16.984-13.673-19.867-4.678-1.862-10.166.8-14.749,3.9,2.614-4.6,4.171-10.109,2.061-14.68-3.311-7.175-12.1-9.877-20.083-11.121a69.18,69.18,0,0,0,12.073-4.515c4.058-1.933,8.474-4.251,10.719-8.309,3.782-6.836-1.03-12.383-6.94-15.179,5.284-1.151,11.152-3.374,13.165-8.423,2.313-5.8-.083-12.4-3.359-18.11,7.9,6.618,18.107,12.638,27.742,10.364,6.347-1.5,9.765-7.812,11.57-14.023,1.235,6.909,4.394,14.243,8.506,19.162,5.07,6.064,11.073,5.9,16.051,1.68-1.327,6.387-.186,12.724,8.443,11.576,9.263-1.232,18.349-6.9,26.486-12.106-3.881,6.02-7.309,14.1-4.128,19.974,3.423,6.319,13.55,7.943,22.27,8.269A71.3,71.3,0,0,0-431.9,466.021Z" transform="translate(562.772 -401.828)"/>
            <path id="Trazado_121557" data-name="Trazado 121557" d="M-423.644,454.739a.206.206,0,0,0-.2-.343c-1.975.523-3.794,1.383-5.811,1.794-2.361.48-4.788.119-7.164.332-.1.009-.163.152-.056.2C-432.964,458.551-426.633,458.071-423.644,454.739Z" transform="translate(490.223 -432.129)"/>
            <path id="Trazado_121558" data-name="Trazado 121558" d="M-403.255,451.008A1.5,1.5,0,0,0-402.2,449.8a.194.194,0,0,0-.242-.184,2.169,2.169,0,0,0-1.227.98C-403.861,450.874-403.5,451.111-403.255,451.008Z" transform="translate(471.079 -429.376)"/>
            <path id="Trazado_121559" data-name="Trazado 121559" d="M-260.487,514.042c-2.756-1.169-5.129-1.31-7.1-3.923-1.954-2.592-1.9-5.845-2.1-8.922a.329.329,0,0,0-.643-.088c-1.4,3.391-.318,7.4,1.839,10.24,1.682,2.213,5.252,4.191,8,2.916A.13.13,0,0,0-260.487,514.042Z" transform="translate(394.54 -458.932)"/>
            <path id="Trazado_121560" data-name="Trazado 121560" d="M-358.946,628.545c-5.151-1.033-13.32,1.422-15.349,6.805-.03.082.082.133.138.08a24.443,24.443,0,0,1,7.654-4.845c2.4-.973,5.062-1.056,7.557-1.63A.214.214,0,0,0-358.946,628.545Z" transform="translate(454.118 -532.398)"/>
            <path id="Trazado_121561" data-name="Trazado 121561" d="M-502.36,565.9c-.128-.046-.194.144-.089.213a13.815,13.815,0,0,1,5.531,6.417c1.1,2.657.415,4.96-.172,7.6-.057.256.271.5.468.273C-492.326,575.481-497.267,567.762-502.36,565.9Z" transform="translate(528.026 -496.41)"/>
          </g>
        </g>
      </g>
      <path id="Trazado_156143" data-name="Trazado 156143" d="M1.986-26.813c0,1.564.137,3.127.137,4.691,0,1.936-.082,3.984.082,5.92A1.768,1.768,0,0,0,2.673-15.2a2.813,2.813,0,0,1,.687.261,5.477,5.477,0,0,0,1.7.3c.66,0,2.035-.112,2.035-1.266a1.15,1.15,0,0,0-.055-.447c.055-2.867-.275-5.7-.275-8.526a.512.512,0,0,1,.055-.261.677.677,0,0,0,.385,0c.027,0,.275-.037.3-.037s.082.037.11.037H9.19a1.554,1.554,0,0,1,.165-.037c.027,0,.247-.149.275-.149.357-.074.77-.074,1.155-.149.247-.037.467-.335.742-.41.027,0,.412-.149.467-.149a14.93,14.93,0,0,0,1.292-1.005,5.037,5.037,0,0,0,.742-.782l-.055-.074c-.137.149-.192.186-.357.186,0-.223.6-.931.715-1.3a10.207,10.207,0,0,0,.55-3.313c0-4.1-1.98-7.185-4.949-8.079a10.112,10.112,0,0,0-3-.372c-.852,0-2.007.037-2.777.074-.055,0-.577.149-.632.149a5.982,5.982,0,0,1-1.155,0,.668.668,0,0,1-.385.074c0,.149.137.261.137.447,0,.223-.192.186-.275.335a20.863,20.863,0,0,0-.055,2.234v1.526a27.751,27.751,0,0,1,.192,3.016c.027.112.137,1.005.137,1.117v.372C2.123-29.866,1.986-28.376,1.986-26.813ZM6.412-32.7c0-.484.055-.931.055-1.415s-.055-.968-.055-1.489c.44,0,.825.223,1.21.223a3.331,3.331,0,0,1,1.045.223c.385.186.467.335.825.372,1.4.6,2.337,4.207-2.8,4.691A20.949,20.949,0,0,1,6.412-32.7ZM4.79-16.426a3.915,3.915,0,0,1,.247-1.154h.027c.137,0,.11.372.192.447v.3c0,.261,0,.633-.247.633C4.873-16.2,4.79-16.24,4.79-16.426Zm5.829-16.381h.055s.027.3.027.447v.112a1.388,1.388,0,0,1-.027.372h-.055Zm.412.447v-.074c0-.074.055-.372.055-.41a1.159,1.159,0,0,1,.055.335,1.5,1.5,0,0,1-.055.3A.171.171,0,0,1,11.032-32.36Zm1.787-5.845v-.074c.082.074.165.112.165.261C12.9-38.019,12.874-38.131,12.819-38.205Zm-1.9,4.542v-.074c.082.037.082.112.082.186v.037C10.922-33.514,10.922-33.589,10.922-33.663Zm1.677-4.8c.027,0,.027-.037.027-.037.027,0,.055.037.055.037s.082.074.082.112h-.027C12.709-38.354,12.626-38.466,12.6-38.466Zm-3.107-.447c0,.074-.027.074-.027,0C9.464-38.95,9.519-38.95,9.492-38.913Zm7.259,22.338c.027.186.357.931.385,1.08.027.037.11.186.137.186a13.007,13.007,0,0,0,3.9,1.154c.88,0,1.485-.633,2.337-.633.082,0,.715.037.77.037h.137a2.222,2.222,0,0,0,1.457-1.191,3.435,3.435,0,0,0,.055-.894c0-1.675-.412-3.2-1.595-3.872a8.373,8.373,0,0,1-.962-.074,17.608,17.608,0,0,0-1.925.074,7.715,7.715,0,0,1-.962.149c0-.074.027-.3.027-.372,0,0-.027-.074-.055-.074v-.447l.055-.112-.11-.074s-.055-.6-.055-.856v-.074c0-.112.11-.037.11-.149,0-.261-.165-.6-.165-.856v-.037c.027-.037.027-.335.11-.372l-.055-.037s-.027-.447-.055-.67v-.037c.027-.149.055-.484.055-.521,0,0,.027-.074.055-.074a.447.447,0,0,0,.11.3c.33-.633.192-2.606.357-2.867,0-.112-.027-.745-.027-.856-.027-.037-.055-.372-.082-.41v-.074a.362.362,0,0,1,.11-.074v-1.415a1.1,1.1,0,0,1-.027-.149v-.037c0-.67.11-1.34.137-2.01.055-1.6.055-3.2.055-4.765v-1.005a2.079,2.079,0,0,0-2.227-1.787h-.467c-.027,0-.33.149-.357.149-.165.074-1.045.335-1.1.484a8.38,8.38,0,0,0-.137,2.01v1.117c0,3.2-.22,6.366-.22,9.531,0,1.229.055,2.457.055,3.649,0,.819-.055,1.564-.055,2.308v.41A26.973,26.973,0,0,0,16.751-16.575Zm3.822-4.281c0,.037.027.074.055.074h.055c.027,0,.082-.037.082-.074v-1.08C20.545-21.936,20.793-20.93,20.573-20.856Zm-2.282-3.76.055-.074a9.154,9.154,0,0,1,.137,1.3h-.055Zm-.027-.558v-.074c0-.037.027-.261.027-.3a2.5,2.5,0,0,1,.082.633h-.082S18.263-25.1,18.263-25.175Zm4.922,7.967h.385v.112c-.055,0-.275-.037-.3-.037S23.185-17.208,23.185-17.208Zm-2.5-7.036-.11.484a.525.525,0,0,0,.137-.372C20.71-24.169,20.71-24.244,20.683-24.244Zm.027.558v.6A1.094,1.094,0,0,0,20.71-23.686Zm-2.447-2.681a1.426,1.426,0,0,1,0,.484C18.236-25.808,18.236-26.478,18.263-26.366Zm2.42,1.229c-.055,0-.055.186,0,.186C20.71-24.951,20.71-25.137,20.683-25.137Zm-3.107,3.2c.027,0,.027.186,0,.186C17.521-21.75,17.521-21.936,17.576-21.936Zm.467-16.195c.055,0,.055.149,0,.149S17.988-38.131,18.043-38.131ZM20.71-22.755v.186c.027,0,.055-.037.055-.037l.027-.037-.027-.037C20.765-22.718,20.738-22.755,20.71-22.755ZM19.5-16.314c.055,0,.055.186,0,.186C19.473-16.128,19.473-16.314,19.5-16.314Zm.962-7.446c-.027,0-.027.186,0,.149S20.49-23.76,20.463-23.76Zm-3.684,6.552c.027,0,.027.112,0,.149C16.751-17.059,16.751-17.245,16.778-17.208Zm2.53.894v.112h-.055Zm1.4-6.031v.074A.037.037,0,1,0,20.71-22.345Zm-.192.484c-.027,0-.027.112,0,.112A.086.086,0,0,0,20.518-21.861Zm-2.035,3.5v.149C18.456-18.213,18.456-18.4,18.483-18.362Zm-.192-4.393h.055v.074Zm.137,4.281a.019.019,0,1,1,0,.037C18.373-18.436,18.373-18.511,18.428-18.473Zm-.165,2.383c.027,0,.027.074,0,.074C18.236-15.979,18.236-16.091,18.263-16.091Zm2.2-8.228c-.027,0-.027.074,0,.074S20.49-24.318,20.463-24.318Zm.687,2.867c-.027-.037-.027.037,0,.037A.019.019,0,1,0,21.15-21.452Zm10.641,6.627c.027,0,.192.037.247.037l-.055.112a.67.67,0,0,0,.357.112c.825,0,3.025-.335,3.877-.335.137,0,.055.223.22.223H37.9c.33,0,.33-.261.467-.484.247-.372.55-.521.55-1.08,0-.186-.055-.41-.055-.633,0-.335.192-.67.192-1.08A2.215,2.215,0,0,0,37.263-20.3c-.275,0-2.887-.074-3.162-.074h-.055a2.994,2.994,0,0,0-.962.149c-.055-.149-.082-.149-.137-.149h-.082c-.055,0-.247.074-.3.074l-.055-.074A4.125,4.125,0,0,1,32.4-21c-.055-.894-.11-2.494-.11-3.388,0-.074,0-.112.082-.112.3-.186.8-.074,1.045-.112.357,0,3.849,0,4.014-.3l.275-.67c0-.037.275-1.154.275-1.378a5.265,5.265,0,0,0-.715-2.718c-.11-.186-.412-.67-.6-.745a19.144,19.144,0,0,0-2.53-.074c-.6,0-1.237.074-1.842.074,0-.894-.11-2.569-.11-3.462,0-.372.247-.447.495-.447.22,0,.412.112.66.112a14.8,14.8,0,0,0,3.464-.41h.962c.082-.186.055-.074.192-.112A1.618,1.618,0,0,0,39-35.9c.11-.3.137-.261.137-.521a7.53,7.53,0,0,0-.88-3.537.148.148,0,0,0-.027-.074l-.028-.037A2.727,2.727,0,0,0,37.18-40.4H32.341v-.074h.22v-.149a27.593,27.593,0,0,0-3.9.558c-.357.074-.275.186-.522.335-.027,0-.11.074-.137.074a3.867,3.867,0,0,0-.137,1.266c0,.223-.082,1.861-.11,2.085v.633c0,.223-.027,3.09-.027,3.351-.027.856-.027,4.765,0,5.622a11.852,11.852,0,0,0-.082,1.973c0,1.564,0,3.239.137,4.765,0,.261.22,2.271.247,2.532.137,1.378.082,2.42,1.32,2.681ZM34.156-30.35A15.244,15.244,0,0,1,36-30.424c.247,0,1.017.149,1.072.633l-.055.037c-.137,0-.412-.223-.495-.223l-.66-.223c-.055,0-1.65-.037-1.677-.037C34.183-30.275,34.156-30.312,34.156-30.35Zm4.317,12.137h.055s.082.261.11.335c0,.037.055.186.055.223.027,0,.055-.074.055-.074v-.037c0-.558-.495-.745-.495-1.266.165,0,.247.335.357.447.192.261.3.223.3.707v.3a.274.274,0,0,1-.192.149C38.528-17.431,38.473-17.989,38.473-18.213Zm-5.747-22.45c-.055,0-.055.149,0,.149C32.753-40.513,32.753-40.662,32.726-40.662ZM36.08-29.9q-.041.056-.082,0C36-29.977,36.08-29.977,36.08-29.9Zm1.292,9.382c.028-.037-.055-.037-.055,0C37.345-20.447,37.373-20.447,37.373-20.521Zm-1.375,0c.027-.037-.055-.037-.055,0C35.97-20.447,36-20.447,36-20.521Zm-3.767,5.733h.137l-.082.037ZM51.2-20.558c.385,1.564.577,4.542,1.54,5.622a1.325,1.325,0,0,0,.962.3c.137,0,.247-.112.412-.112.357,0,.77.074,1.155.074H55.3c.165-.037.522-.112.55-.112l.11-.149.632-.223c-.055,0-.275-.037-.275-.186l.027-.037a5.924,5.924,0,0,0,.385-.484,1.846,1.846,0,0,1-.22-.261,1.81,1.81,0,0,1,.082-.372v-.037a3.845,3.845,0,0,0-.44-1.452c.082-.074.055-.223.055-.3a7.64,7.64,0,0,0-.247-1.08c-.3-1.154-.577-2.345-.907-3.537-.137-.521-.412-1.154-.522-1.713a54.323,54.323,0,0,0-1.567-6.4,5.244,5.244,0,0,1-.22-1.154c0-.037-.027-.074-.027-.112-.082-.261-.33-1.415-.385-1.638V-34l.082-.149.027-.037c0-.261-.22-.484-.165-.745L51.7-37.423a7.745,7.745,0,0,0-.495-1.564c-.247-.112-.33-.67-.55-.782a4.852,4.852,0,0,0-2.007-.558,3.964,3.964,0,0,0-.935.074c-1.127.186-1.072.633-1.485,1.9-.44,1.415-.742,2.867-1.155,4.281-.082.335-.11.186-.165.558l-1.677,6.478a2.549,2.549,0,0,1-.082.447c-.522,2.122-.935,4.207-1.485,6.292-.357,1.34-1.155,3.165-1.155,4.542a.976.976,0,0,0,1.045.968c.165,0,.357-.186.55-.186.385,0,.8.112,1.21.112H43.7c.192-.186.467-.112.66-.3.44-.41.3-1.266.33-1.861a27.154,27.154,0,0,1,1.017-3.2,7.919,7.919,0,0,0,.962-.074l.192-.037h.055c.055,0,.275.037.33.037.165,0,.935.037,1.127.037a16.041,16.041,0,0,0,2.31-.149c.165-.037.3-.149.467-.149ZM47.079-25.77c.055-.3.385-1.675.467-1.973L47.6-28c.028-.186.44-1.6.467-1.787A11.376,11.376,0,0,1,48.7-32.36l.687,3.723.522,1.824c.027.3.22.633.22.931,0,.037,0,.112-.055.112-1.017,0-1.98.112-3,.112Zm.467-9.866c.055,0,.055.149,0,.149S47.491-35.636,47.546-35.636ZM52.028-28.3q-.041.056-.082,0C51.946-28.376,52.028-28.376,52.028-28.3Zm2.75,11.876h.055v.074Zm7.341,1.787c.082,0,.467-.037.55-.037a2.027,2.027,0,0,0,.22.074c.027.037.137.223.137.223l.907-.074v-.074h-.742V-14.6h.11a6.586,6.586,0,0,0,.852-.074c.027.149.082.149.165.149.192,0,.082-.112.192-.223a3.464,3.464,0,0,1,.742-.372s.082.112.11.112.137-.149.165-.149.165-.149.192-.149c.907-.521,1.072-.447,1.677-1.34l.412-.707c.11-.223.165-.819.412-.819.137,0,.137.074.192.074.192,0,.44-1.489.522-1.75.028-.223.247-.372.247-.6a4.861,4.861,0,0,0,0-.633c0-.037.082-.3.082-.335a.554.554,0,0,0-.082-.186c-.165-.335-.3-.782-.467-1.117-.082-.149-.44-.41-.467-.558s-.247-.67-.357-.707h-.275c-.22-.037-.3-.186-.55-.186a1.317,1.317,0,0,0-.907.186c-.11.037-.3.261-.385.261h-.055c.055-.037.055-.074.055-.149-.357,0-1.017.707-1.265,1.08a27.154,27.154,0,0,1-1.787,3.165c-.247,0-.935-.968-.935-1.266,0-.112.055-.223.055-.335a4.462,4.462,0,0,0-.44-1.378l-.027-.037c0-.037-.028-.037-.028-.074-.11.037-.11.149-.11.261,0,.223.055.372.055.6v.223a4.255,4.255,0,0,1-.33-1.6c0-.112.027-.484.027-.558a.95.95,0,0,0,.22-.558V-24.5l-.082-.112a.661.661,0,0,0,.11-.186v-.037c0-.223-.11-.447-.11-.707,0-.149.082-.223.082-.41v-.261a.767.767,0,0,0-.165.558c0,.335.055.67.055,1.005,0,.112.027.558-.11.67l-.055-.074c0-.037-.055-.558-.055-.745v-1.266c.082,0,.082-.186.082-.223,0-.447-.082-.894-.082-1.34,0-.782.082-1.377.055-2.2a15.035,15.035,0,0,0,.165-3.016,10.682,10.682,0,0,1,.687-2.978c0,.037.055.149.082.149,0,0,.027.037.055.037,0-.558.687-.558.935-.558.825,0,.66.074.8,1.005.357,2.271.962,3.016,2.64,3.016.3,0,.6-.261.825-.261h.027a.47.47,0,0,0,.027.112h.055c.11-.149.192-.372.385-.372a.194.194,0,0,1,.11.074c.027,0,.11.074.165.074a5.524,5.524,0,0,1,.467-1.787,3.785,3.785,0,0,0,.11-.931v-.261l-.275-.894c.027-.372-.44-1.861-.852-1.638a5.325,5.325,0,0,0-4.812-2.42h-.687l-1.347.67s-.3.261-.357.3c-.275.223-.742.186-.88.335A11.285,11.285,0,0,0,57.2-34.259,10.01,10.01,0,0,0,57.06-32.7a41.84,41.84,0,0,0-.412,5.547,25.225,25.225,0,0,0,.412,5.212c.055.41.22.745.3,1.154a12.578,12.578,0,0,0,3.272,5.622c.165.149.275.335.467.41l.935.3c.027,0,.165.037.192.037C62.229-14.564,62.119-14.564,62.119-14.639Zm-1.292-4.654c0-.037-.027-.112-.027-.149L60.5-20c.082-.186-.11-.186-.11-.335l.027-.037s.055-.037.055-.074a.636.636,0,0,1-.055-.149c-.027,0-.055.037-.055.037v.112a9.306,9.306,0,0,1-.742-3.165c0-.112,0-.186.055-.223a12.715,12.715,0,0,1-.192-2.494v-.037l.028-.037.055.112c.055.3.22,1.75.275,2.085a1.061,1.061,0,0,0,.082.372v-.112c0-.931-.247-1.861-.247-2.867V-27a20.437,20.437,0,0,1,.3,2.569c.027,0,.027.037.055.037.055,0,.027-.186.11-.186h.082A18.9,18.9,0,0,0,60.3-22.42a23.039,23.039,0,0,0,.632,2.643c-.082.223.247.41.165.6a5.653,5.653,0,0,0,.6,1.005l.082-.149c.082.149.66.149.99.335.192.037.412.149.632.186a1.472,1.472,0,0,1-.962.149c-.3,0-.6,0-.77-.3C61.542-18.175,60.964-19.106,60.827-19.292Zm-.33-3.425h.055c0-1.117-.165-2.271-.165-3.388a1.412,1.412,0,0,1,.082-.67c0-.037.027-.037.027-.037v.037a4.336,4.336,0,0,1,.055,1.191l.082.074c0,.112.027.633.027.707.11.856.165,1.75.33,2.606a3.859,3.859,0,0,1,.247.819c0,.186-.137.112-.192.112v.335l-.22-.3A2.561,2.561,0,0,1,60.5-22.718Zm2.392,7.93.027-.112c.247,0,.55-.112.742-.112.11,0,.137.037.22.223a6.122,6.122,0,0,1-.852.037S62.889-14.713,62.889-14.788Zm-1.952-5.584v-.149a.856.856,0,0,1,.275.558v.112C60.992-19.814,60.937-20.186,60.937-20.372Zm3.877-2.606a1.3,1.3,0,0,1-.357.633c-.027,0-.027.037-.055.037v-.037C64.4-22.606,64.649-22.978,64.814-22.978ZM59.974-25.4v-.223c.082.074.082.335.082.447v.335A1.5,1.5,0,0,1,59.974-25.4Zm1.567,6.813c.11,0,.3,0,.3.186C61.734-18.4,61.542-18.362,61.542-18.585Zm2.86-1.489c0,.112-.055.3-.165.335v-.037A.376.376,0,0,1,64.4-20.074Zm.467,1.9h.082c-.055.074-.11.186-.192.186C64.759-18.1,64.814-18.175,64.869-18.175Zm-.495.372a.159.159,0,0,1-.165.149v-.037C64.209-17.8,64.319-17.8,64.374-17.8Zm-4.619,1.526c.082,0,.137.112.137.186h-.027C59.782-16.091,59.754-16.165,59.754-16.277Zm1.457-7.148v.447l.027-.074c0-.074.027-.335.027-.372Zm1.622,8.972c.055-.037-.385-.037-.33,0A.5.5,0,0,0,62.834-14.453Zm1.21-3.276v.037a.106.106,0,0,1-.11.112h-.055A.6.6,0,0,1,64.044-17.729Zm1.375-5.808v.112h-.11A.106.106,0,0,1,65.419-23.537ZM64.374-14.75c.027,0,.027.149,0,.149C64.291-14.6,64.291-14.75,64.374-14.75Zm-3.162-8.191c-.082,0-.082.149,0,.149C61.239-22.792,61.239-22.941,61.212-22.941Zm-1.732-3.984c0-.037,0-.112.028-.112v.41A1.094,1.094,0,0,1,59.479-26.925Zm5.967-12.733c.082,0,.082.149,0,.149C65.419-39.508,65.419-39.657,65.446-39.657Zm-3.987,5.994c-.055,0-.055.112,0,.112S61.514-33.663,61.459-33.663Zm-.577,13.03c.055,0,.055.112,0,.112S60.827-20.633,60.882-20.633Zm.11,1.34c-.055,0-.055.112,0,.112S61.047-19.292,60.992-19.292Zm.77,1.229a.148.148,0,0,0,.028.074s.027.037.055.037h.027l-.082-.149Zm-1.842-8.079a.213.213,0,0,1,.055-.112v.186S59.919-26.105,59.919-26.143Zm1.21,4.728c-.027,0-.027.112,0,.112A.056.056,0,1,0,61.129-21.414Zm.082-2.42a.056.056,0,1,0,0,.112C61.239-23.723,61.239-23.834,61.212-23.834ZM62.779-20.6c-.055,0-.055.112,0,.074C62.806-20.521,62.806-20.6,62.779-20.6Zm-1.732,1.861c.028,0,.028.074,0,.074C60.992-18.622,60.992-18.771,61.047-18.734Zm2.42.633c0,.074-.055.074-.055,0A.027.027,0,1,1,63.466-18.1ZM67.1-32.844v.074h-.055Zm-7.121,7c.055,0,.055.037,0,.037C59.947-25.77,59.947-25.845,59.974-25.845ZM75.1-14.825c.027,0,.192.037.247.037l-.055.112a.67.67,0,0,0,.357.112c.825,0,3.025-.335,3.877-.335.137,0,.055.223.22.223H81.2c.33,0,.33-.261.467-.484.247-.372.55-.521.55-1.08,0-.186-.055-.41-.055-.633,0-.335.192-.67.192-1.08A2.215,2.215,0,0,0,80.569-20.3c-.275,0-2.887-.074-3.162-.074h-.055a2.994,2.994,0,0,0-.962.149c-.055-.149-.082-.149-.137-.149h-.082c-.055,0-.247.074-.3.074l-.055-.074A4.125,4.125,0,0,1,75.7-21c-.055-.894-.11-2.494-.11-3.388,0-.074,0-.112.082-.112.3-.186.8-.074,1.045-.112.357,0,3.849,0,4.014-.3l.275-.67c0-.037.275-1.154.275-1.378a5.265,5.265,0,0,0-.715-2.718c-.11-.186-.412-.67-.6-.745a19.144,19.144,0,0,0-2.53-.074c-.6,0-1.237.074-1.842.074,0-.894-.11-2.569-.11-3.462,0-.372.247-.447.495-.447.22,0,.412.112.66.112a14.8,14.8,0,0,0,3.464-.41h.962c.082-.186.055-.074.192-.112A1.618,1.618,0,0,0,82.3-35.9c.11-.3.137-.261.137-.521a7.53,7.53,0,0,0-.88-3.537.148.148,0,0,0-.027-.074l-.027-.037a2.727,2.727,0,0,0-1.017-.335H75.647v-.074h.22v-.149a27.593,27.593,0,0,0-3.9.558c-.357.074-.275.186-.522.335-.027,0-.11.074-.137.074a3.867,3.867,0,0,0-.137,1.266c0,.223-.082,1.861-.11,2.085v.633c0,.223-.027,3.09-.027,3.351-.027.856-.027,4.765,0,5.622a11.852,11.852,0,0,0-.082,1.973c0,1.564,0,3.239.137,4.765,0,.261.22,2.271.247,2.532.137,1.378.082,2.42,1.32,2.681ZM77.462-30.35a15.244,15.244,0,0,1,1.842-.074c.247,0,1.017.149,1.072.633l-.055.037c-.137,0-.412-.223-.495-.223l-.66-.223c-.055,0-1.65-.037-1.677-.037C77.489-30.275,77.462-30.312,77.462-30.35Zm4.317,12.137h.055s.082.261.11.335c0,.037.055.186.055.223.027,0,.055-.074.055-.074v-.037c0-.558-.495-.745-.495-1.266.165,0,.247.335.357.447.192.261.3.223.3.707v.3a.274.274,0,0,1-.192.149C81.834-17.431,81.779-17.989,81.779-18.213Zm-5.747-22.45c-.055,0-.055.149,0,.149C76.059-40.513,76.059-40.662,76.032-40.662ZM79.386-29.9q-.041.056-.082,0C79.3-29.977,79.386-29.977,79.386-29.9Zm1.292,9.382c.027-.037-.055-.037-.055,0C80.651-20.447,80.679-20.447,80.679-20.521Zm-1.375,0c.028-.037-.055-.037-.055,0C79.277-20.447,79.3-20.447,79.3-20.521Zm-3.767,5.733h.137l-.082.037Z" transform="translate(1241.191 494.759) rotate(17)"/>
    </g>
  </g>
</svg>
