<svg xmlns="http://www.w3.org/2000/svg" xmlns:xlink="http://www.w3.org/1999/xlink" width="562.208" height="469.527" viewBox="0 0 562.208 469.527">
  <defs>
    <clipPath id="clip-path">
      <rect id="Rectángulo_40251" data-name="Rectángulo 40251" width="532.65" height="30.892" fill="none"/>
    </clipPath>
    <clipPath id="clip-path-2">
      <rect id="Rectángulo_40250" data-name="Rectángulo 40250" width="532.65" height="30.893" fill="none"/>
    </clipPath>
    <linearGradient id="linear-gradient" x1="-0.055" y1="-0.897" x2="-0.053" y2="-0.897" gradientUnits="objectBoundingBox">
      <stop offset="0" stop-color="#fff"/>
      <stop offset="1" stop-color="#deaf99"/>
    </linearGradient>
    <clipPath id="clip-path-3">
      <rect id="Rectángulo_40271" data-name="Rectángulo 40271" width="553.24" height="78.739" fill="none"/>
    </clipPath>
    <clipPath id="clip-path-4">
      <rect id="Rectángulo_40253" data-name="Rectángulo 40253" width="268.907" height="78.739" fill="none"/>
    </clipPath>
    <clipPath id="clip-path-5">
      <rect id="Rectángulo_40254" data-name="Rectángulo 40254" width="184.675" height="56.079" fill="none"/>
    </clipPath>
    <clipPath id="clip-path-6">
      <rect id="Rectángulo_40255" data-name="Rectángulo 40255" width="241.855" height="78.739" fill="none"/>
    </clipPath>
    <clipPath id="clip-path-7">
      <rect id="Rectángulo_40256" data-name="Rectángulo 40256" width="248.918" height="78.739" fill="none"/>
    </clipPath>
    <clipPath id="clip-path-8">
      <rect id="Rectángulo_40257" data-name="Rectángulo 40257" width="280.152" height="78.739" fill="none"/>
    </clipPath>
    <clipPath id="clip-path-9">
      <rect id="Rectángulo_40258" data-name="Rectángulo 40258" width="135.887" height="49.565" fill="none"/>
    </clipPath>
    <clipPath id="clip-path-10">
      <rect id="Rectángulo_40259" data-name="Rectángulo 40259" width="44.43" height="15.56" fill="none"/>
    </clipPath>
    <clipPath id="clip-path-11">
      <rect id="Rectángulo_40260" data-name="Rectángulo 40260" width="25.764" height="8.545" fill="none"/>
    </clipPath>
    <clipPath id="clip-path-12">
      <rect id="Rectángulo_40261" data-name="Rectángulo 40261" width="96.474" height="27.785" fill="none"/>
    </clipPath>
    <clipPath id="clip-path-13">
      <rect id="Rectángulo_40262" data-name="Rectángulo 40262" width="74.55" height="17.755" fill="none"/>
    </clipPath>
    <clipPath id="clip-path-14">
      <rect id="Rectángulo_40263" data-name="Rectángulo 40263" width="175.672" height="42.585" fill="none"/>
    </clipPath>
    <clipPath id="clip-path-15">
      <rect id="Rectángulo_40264" data-name="Rectángulo 40264" width="93.441" height="32.865" fill="none"/>
    </clipPath>
    <clipPath id="clip-path-16">
      <rect id="Rectángulo_40265" data-name="Rectángulo 40265" width="13.783" height="5.399" fill="none"/>
    </clipPath>
    <clipPath id="clip-path-17">
      <rect id="Rectángulo_40266" data-name="Rectángulo 40266" width="258.819" height="65.866" fill="none"/>
    </clipPath>
    <clipPath id="clip-path-18">
      <rect id="Rectángulo_40267" data-name="Rectángulo 40267" width="262.283" height="78.739" fill="none"/>
    </clipPath>
    <clipPath id="clip-path-19">
      <rect id="Rectángulo_40268" data-name="Rectángulo 40268" width="316.862" height="78.739" fill="none"/>
    </clipPath>
    <clipPath id="clip-path-20">
      <rect id="Rectángulo_40269" data-name="Rectángulo 40269" width="191.02" height="61.721" fill="none"/>
    </clipPath>
    <clipPath id="clip-path-21">
      <rect id="Rectángulo_40270" data-name="Rectángulo 40270" width="308.13" height="78.739" fill="none"/>
    </clipPath>
    <clipPath id="clip-path-22">
      <rect id="Rectángulo_41303" data-name="Rectángulo 41303" width="187.301" height="358.163" fill="none"/>
    </clipPath>
    <clipPath id="clip-path-23">
      <path id="Trazado_154105" data-name="Trazado 154105" d="M22.544,761.978c4.113,2.678,8.88,3.037,6.573,10.23-.932,2.907-3.618,4.8-5.718,7.012-2.956,3.124-3.483,4.416-5.983,7.916-6.49,9.085-18.888,5.108-11.428-.152,6.966-4.883,8.055-12.28,6.923-19.684-.9-5.89-5.542-10.585-9.394-15.131,3.754-1.791,6.97-4.693,10.382-7.813a108.459,108.459,0,0,0,8.643,17.622" transform="translate(-3.519 -744.356)" fill="none"/>
    </clipPath>
    <clipPath id="clip-path-24">
      <path id="Trazado_154107" data-name="Trazado 154107" d="M300.724,765.434c1.118,7,.835,12.62,2.352,18.906,1.97,8.163,8.8,10.845,5.4,15.478-1.025,1.395-6.762,1.447-8.016,1.252-9.948-1.548-12.4,2.4-18.082,2.4-4.114,0-6.246-1.1-6.059-2.949.251-2.487,11.4-4.476,14.8-9.418,3.649-5.3-.39-16.868-4.7-27.14Z" transform="translate(-276.304 -763.966)" fill="none"/>
    </clipPath>
    <clipPath id="clip-path-26">
      <path id="Trazado_154163" data-name="Trazado 154163" d="M83.685,138.634l.653,7a10.925,10.925,0,0,1,8.129,11.49c-.224,1.95-.99,3.891-.629,5.82.753,4.17,7.282,6.945,6.68,11.393a8.6,8.6,0,0,0,.324-2.944,5.533,5.533,0,0,1,2.052-5c2.58-1.933,3.737-4.45,6.017-7.341,6.56-8.319,11.207-18.48,26.3-20.062l21.634,1.632c32.356,7.824,22.31,7.9,41.156,32.27,12.724,21.04,39.56,27.25,26.8,57.527l2.439,6.111a84.808,84.808,0,0,1-8.484,4.275c-1.182-2.2-2.363-4.4-3.952-6.987A24.948,24.948,0,0,1,194.048,216c-.893-3.464-1.114-7.318-3.421-10.051-11.646-8.064-12.968-8.152-17.32-23.385-2.7,8.482-3.054,17.694-1.88,27.252-10.846-.38-20.2-7.26-29.039-12.651a51.536,51.536,0,0,1-12.516,16.881,100.223,100.223,0,0,1-6.539-21.453,18.276,18.276,0,0,1-5.852-8.206c-13.516,4.478-14.056,19.334-33.054,19.21-8.455-8.909-18.093-23.563-18.134-36.576v-.169a20.841,20.841,0,0,1,7.744-16.6L72.8,139.5c3.434-.114,6.845-.867,10.392-.867q.245,0,.491,0" transform="translate(-66.292 -138.629)" fill="none"/>
    </clipPath>
    <clipPath id="clip-path-28">
      <rect id="Rectángulo_41311" data-name="Rectángulo 41311" width="184.528" height="348.213" fill="none"/>
    </clipPath>
    <clipPath id="clip-path-29">
      <path id="Trazado_154195" data-name="Trazado 154195" d="M54.636,768.984c-2.436-1.662-4.967-.223-3.488,2.642a21.4,21.4,0,0,0,10.085,10.643c10.1,3.067,10.162,8.306,17.073,14.077,10.041,5.079,10.331-5.831,10.933-12.706a134.693,134.693,0,0,1,11.918-21.975c-4.678-.24-9.336-.855-14.109-.859-6.071,18.2-18.168,17.6-32.412,8.178" transform="translate(-50.708 -760.806)" fill="none"/>
    </clipPath>
    <clipPath id="clip-path-30">
      <path id="Trazado_154197" data-name="Trazado 154197" d="M356.723,766.681c4.79,7.917,10.144,14.946,7.827,19.271-2.979,5.56-10.066,8.7-19.548,10.247-2.918.434-3.8,3.21-.766,4.308a21.4,21.4,0,0,0,14.63.964c6.305-3.059,10.012-2.411,14.421-1.763a36.875,36.875,0,0,0,7.671.5c10.819-3.091,3.624-11.3-.6-16.751-3.893-6.9-6.376-13.716-9.182-22.653-3.6,3-10.944,2.636-14.449,5.875" transform="translate(-342.346 -760.806)" fill="none"/>
    </clipPath>
  </defs>
  <g id="Grupo_166708" data-name="Grupo 166708" transform="translate(-536 -4053)">
    <g id="Grupo_166231" data-name="Grupo 166231" transform="translate(0 72)">
      <g id="Grupo_166223" data-name="Grupo 166223" transform="translate(-2304 11684.82)">
        <path id="Trazado_154262" data-name="Trazado 154262" d="M0,0H532.65V390.788H0Z" transform="translate(2840.544 -7703.82)" fill="#fdf2ef"/>
        <g id="Grupo_164086" data-name="Grupo 164086" transform="translate(2840.544 -7761.387)">
          <g id="Grupo_166224" data-name="Grupo 166224">
            <g id="Grupo_164084" data-name="Grupo 164084" transform="translate(0 417.803)" style="mix-blend-mode: multiply;isolation: isolate">
              <g id="Grupo_164083" data-name="Grupo 164083">
                <g id="Grupo_164082" data-name="Grupo 164082" clip-path="url(#clip-path)">
                  <g id="Grupo_164081" data-name="Grupo 164081" transform="translate(0)">
                    <g id="Grupo_164080" data-name="Grupo 164080" clip-path="url(#clip-path-2)">
                      <rect id="Rectángulo_40249" data-name="Rectángulo 40249" width="533.517" height="67.157" transform="translate(530.171 67.144) rotate(-176.088)" fill="url(#linear-gradient)"/>
                    </g>
                  </g>
                </g>
              </g>
            </g>
          </g>
        </g>
        <path id="Trazado_146340" data-name="Trazado 146340" d="M531.048,552.3l31.16,78.739H0V552.3Z" transform="translate(2840 -7865.334)" fill="#e1ae86"/>
        <g id="Grupo_166222" data-name="Grupo 166222" transform="translate(2840 -7319.878)">
          <g id="Grupo_164142" data-name="Grupo 164142" transform="translate(0 6.846)">
            <g id="Grupo_164141" data-name="Grupo 164141" clip-path="url(#clip-path-3)">
              <g id="Grupo_164089" data-name="Grupo 164089" transform="translate(283.825)" style="mix-blend-mode: screen;isolation: isolate">
                <g id="Grupo_164088" data-name="Grupo 164088">
                  <g id="Grupo_164087" data-name="Grupo 164087" clip-path="url(#clip-path-4)">
                    <path id="Trazado_146341" data-name="Trazado 146341" d="M11.672,552.3H19.55c79.81,23.686,159.794,48.126,239.037,73.041-59.483-22.2-118.233-46.66-175.455-73.041h5.42c62.556,28.7,126.909,55.081,192.028,78.739H269.213c-85.318-26.9-171.546-53.263-257.541-78.739" transform="translate(-11.672 -552.302)" fill="#e1ae86"/>
                  </g>
                </g>
              </g>
              <g id="Grupo_164092" data-name="Grupo 164092" transform="translate(368.565)" style="mix-blend-mode: screen;isolation: isolate">
                <g id="Grupo_164091" data-name="Grupo 164091" transform="translate(0)">
                  <g id="Grupo_164090" data-name="Grupo 164090" clip-path="url(#clip-path-5)">
                    <path id="Trazado_146342" data-name="Trazado 146342" d="M18.755,552.3,194.669,605.72l1.053,2.661L11.046,552.3Z" transform="translate(-11.047 -552.302)" fill="#e1ae86"/>
                  </g>
                </g>
              </g>
              <g id="Grupo_164095" data-name="Grupo 164095" transform="translate(249.11)" style="mix-blend-mode: screen;isolation: isolate">
                <g id="Grupo_164094" data-name="Grupo 164094">
                  <g id="Grupo_164093" data-name="Grupo 164093" clip-path="url(#clip-path-6)">
                    <path id="Trazado_146343" data-name="Trazado 146343" d="M90.543,553.324q-1.37-.5-2.784-1.022h6.547c77.2,28.22,156.234,54.664,235.307,78.739h-7.685c-77.785-23.819-155.488-49.913-231.385-77.717" transform="translate(-87.758 -552.302)" fill="#e1ae86"/>
                  </g>
                </g>
              </g>
              <g id="Grupo_164098" data-name="Grupo 164098" transform="translate(173.097)" style="mix-blend-mode: screen;isolation: isolate">
                <g id="Grupo_164097" data-name="Grupo 164097">
                  <g id="Grupo_164096" data-name="Grupo 164096" clip-path="url(#clip-path-7)">
                    <path id="Trazado_146344" data-name="Trazado 146344" d="M172.695,552.3h6.385c79.652,29.869,161.829,54.8,242.533,78.739h-7.867C333.44,607.18,251.79,582.232,172.695,552.3" transform="translate(-172.695 -552.302)" fill="#e1ae86"/>
                  </g>
                </g>
              </g>
              <g id="Grupo_164101" data-name="Grupo 164101" transform="translate(195.072)" style="mix-blend-mode: screen;isolation: isolate">
                <g id="Grupo_164100" data-name="Grupo 164100">
                  <g id="Grupo_164099" data-name="Grupo 164099" clip-path="url(#clip-path-8)">
                    <path id="Trazado_146345" data-name="Trazado 146345" d="M107.15,552.3h7.609c64.836,19.934,130.033,39.438,194.821,58.27,24.1,7.006,50.427,14.649,77.722,20.469H376.975c-23.889-5.5-46.884-12.176-68.153-18.359-67.07-19.5-134.579-39.713-201.671-60.38" transform="translate(-107.15 -552.302)" fill="#e1ae86"/>
                  </g>
                </g>
              </g>
              <g id="Grupo_164104" data-name="Grupo 164104" transform="translate(414.775)" style="mix-blend-mode: screen;isolation: isolate">
                <g id="Grupo_164103" data-name="Grupo 164103">
                  <g id="Grupo_164102" data-name="Grupo 164102" clip-path="url(#clip-path-9)">
                    <path id="Trazado_146346" data-name="Trazado 146346" d="M14.222,552.3h6.563L149,599.07l1.107,2.8Z" transform="translate(-14.222 -552.302)" fill="#e1ae86"/>
                  </g>
                </g>
              </g>
              <g id="Grupo_164107" data-name="Grupo 164107" transform="translate(492.775)" style="mix-blend-mode: screen;isolation: isolate">
                <g id="Grupo_164106" data-name="Grupo 164106">
                  <g id="Grupo_164105" data-name="Grupo 164105" clip-path="url(#clip-path-10)">
                    <path id="Trazado_146347" data-name="Trazado 146347" d="M74.136,565.1l1.093,2.763L30.8,552.3h6.8Z" transform="translate(-30.799 -552.302)" fill="#e1ae86"/>
                  </g>
                </g>
              </g>
              <g id="Grupo_164110" data-name="Grupo 164110" transform="translate(508.664)" style="mix-blend-mode: screen;isolation: isolate">
                <g id="Grupo_164109" data-name="Grupo 164109" transform="translate(0)">
                  <g id="Grupo_164108" data-name="Grupo 164108" clip-path="url(#clip-path-11)">
                    <path id="Trazado_146348" data-name="Trazado 146348" d="M59.984,560.846q-12.82-4.4-25.765-8.545h7.287q8.725,2.847,17.4,5.808Z" transform="translate(-34.219 -552.302)" fill="#e1ae86"/>
                  </g>
                </g>
              </g>
              <g id="Grupo_164113" data-name="Grupo 164113" transform="translate(445.569)" style="mix-blend-mode: screen;isolation: isolate">
                <g id="Grupo_164112" data-name="Grupo 164112" transform="translate(0)">
                  <g id="Grupo_164111" data-name="Grupo 164111" clip-path="url(#clip-path-12)">
                    <path id="Trazado_146349" data-name="Trazado 146349" d="M121.313,580.087Q73.269,565.718,24.84,552.3h8.352q43.631,12.164,87.072,25.135Z" transform="translate(-24.839 -552.302)" fill="#e1ae86"/>
                  </g>
                </g>
              </g>
              <g id="Grupo_164116" data-name="Grupo 164116" transform="translate(0 60.984)" style="mix-blend-mode: screen;isolation: isolate">
                <g id="Grupo_164115" data-name="Grupo 164115">
                  <g id="Grupo_164114" data-name="Grupo 164114" clip-path="url(#clip-path-13)">
                    <path id="Trazado_146350" data-name="Trazado 146350" d="M600.716,627.424q37.326,8.6,74.55,17.755H665.88q-32.526-7.943-65.164-15.465Z" transform="translate(-600.716 -627.424)" fill="#e1ae86"/>
                  </g>
                </g>
              </g>
              <g id="Grupo_164119" data-name="Grupo 164119" transform="translate(0 36.154)" style="mix-blend-mode: screen;isolation: isolate">
                <g id="Grupo_164118" data-name="Grupo 164118">
                  <g id="Grupo_164117" data-name="Grupo 164117" clip-path="url(#clip-path-14)">
                    <path id="Trazado_146351" data-name="Trazado 146351" d="M476.15,596.838l175.672,42.585h-9.476l-166.2-40.288Z" transform="translate(-476.151 -596.838)" fill="#e1ae86"/>
                  </g>
                </g>
              </g>
              <g id="Grupo_164122" data-name="Grupo 164122" transform="translate(0 45.874)" style="mix-blend-mode: screen;isolation: isolate">
                <g id="Grupo_164121" data-name="Grupo 164121">
                  <g id="Grupo_164120" data-name="Grupo 164120" clip-path="url(#clip-path-15)">
                    <path id="Trazado_146352" data-name="Trazado 146352" d="M577.444,611.216v-2.4c30.811,11.779,62.13,22.579,93.442,32.865h-7.153c-28.918-9.565-57.813-19.6-86.29-30.461" transform="translate(-577.444 -608.812)" fill="#e1ae86"/>
                  </g>
                </g>
              </g>
              <g id="Grupo_164125" data-name="Grupo 164125" transform="translate(0 73.34)" style="mix-blend-mode: screen;isolation: isolate">
                <g id="Grupo_164124" data-name="Grupo 164124">
                  <g id="Grupo_164123" data-name="Grupo 164123" clip-path="url(#clip-path-16)">
                    <path id="Trazado_146353" data-name="Trazado 146353" d="M675.57,645.065v-2.419l13.784,5.4h-6.177Z" transform="translate(-675.571 -642.646)" fill="#e1ae86"/>
                  </g>
                </g>
              </g>
              <g id="Grupo_164128" data-name="Grupo 164128" transform="translate(0 12.873)" style="mix-blend-mode: screen;isolation: isolate">
                <g id="Grupo_164127" data-name="Grupo 164127">
                  <g id="Grupo_164126" data-name="Grupo 164126" clip-path="url(#clip-path-17)">
                    <path id="Trazado_146354" data-name="Trazado 146354" d="M373.726,568.159c85.718,23.017,172.349,45.064,258.819,65.866h-9.512c-83.305-20.119-166.732-41.383-249.307-63.549Z" transform="translate(-373.726 -568.159)" fill="#e1ae86"/>
                  </g>
                </g>
              </g>
              <g id="Grupo_164131" data-name="Grupo 164131" transform="translate(75.189)" style="mix-blend-mode: screen;isolation: isolate">
                <g id="Grupo_164130" data-name="Grupo 164130">
                  <g id="Grupo_164129" data-name="Grupo 164129" clip-path="url(#clip-path-18)">
                    <path id="Trazado_146355" data-name="Trazado 146355" d="M276.837,552.3h7.016c84.442,28.521,170.855,54.055,255.268,78.739h-7.973c-84.2-24.637-170.272-50.174-254.311-78.739" transform="translate(-276.837 -552.302)" fill="#e1ae86"/>
                  </g>
                </g>
              </g>
              <g id="Grupo_164134" data-name="Grupo 164134" transform="translate(11.29)" style="mix-blend-mode: screen;isolation: isolate">
                <g id="Grupo_164133" data-name="Grupo 164133">
                  <g id="Grupo_164132" data-name="Grupo 164132" clip-path="url(#clip-path-19)">
                    <path id="Trazado_146356" data-name="Trazado 146356" d="M540.413,631.041c-84.391-24.85-168.786-51.214-252.094-78.739h14.174c98.954,29.307,200.205,57.83,302.688,78.739h-11.03c-98.5-20.6-195.794-48.025-290.964-76.2,81.084,26.624,163.145,52.128,245.165,76.2Z" transform="translate(-288.319 -552.302)" fill="#e1ae86"/>
                  </g>
                </g>
              </g>
              <g id="Grupo_164137" data-name="Grupo 164137" transform="translate(0 17.018)" style="mix-blend-mode: screen;isolation: isolate">
                <g id="Grupo_164136" data-name="Grupo 164136">
                  <g id="Grupo_164135" data-name="Grupo 164135" clip-path="url(#clip-path-20)">
                    <path id="Trazado_146357" data-name="Trazado 146357" d="M457.243,575.635v-2.37c63.456,21.475,127.679,41.884,191.021,61.722H640.77c-60.9-19.095-122.558-38.731-183.527-59.352" transform="translate(-457.243 -573.265)" fill="#e1ae86"/>
                  </g>
                </g>
              </g>
              <g id="Grupo_164140" data-name="Grupo 164140" transform="translate(85.476)" style="mix-blend-mode: screen;isolation: isolate">
                <g id="Grupo_164139" data-name="Grupo 164139">
                  <g id="Grupo_164138" data-name="Grupo 164138" clip-path="url(#clip-path-21)">
                    <path id="Trazado_146358" data-name="Trazado 146358" d="M207.69,552.3h8.688l246.244,65.577c17.445,4.646,35.192,9.371,53.2,13.161H505.436c-14.7-3.362-29.208-7.224-43.515-11.035Z" transform="translate(-207.69 -552.302)" fill="#e1ae86"/>
                  </g>
                </g>
              </g>
            </g>
          </g>
          <path id="Trazado_146359" data-name="Trazado 146359" d="M496.711,568.14c14.618.608,32.755,3.575,36.731,16.233,2.784,8.86-3.759,18.367-12.592,23.026s-19.416,5.592-29.623,6.351a2344.11,2344.11,0,0,1-282.821,3.914c-24.872-1.159-49.8-2.724-74.229-7.106-7.223-1.3-14.991-3.172-19.434-8.453-34.772-41.33,138.281-39.878,152.226-39.948,76.632-.392,153.211,2.8,229.742,5.982" transform="translate(-61.292 -547.304)" fill="#fff"/>
          <path id="Trazado_146360" data-name="Trazado 146360" d="M318.847,615.943c57.613,0,115.914-2.164,173.284-6.432,10.8-.8,19.655-1.728,27.01-5.608,6.253-3.3,11.805-10.285,9.778-16.737-2.3-7.335-12.761-11.44-31.08-12.2l-.327-.014c-70.867-2.948-144.147-6-216.219-6q-6.436,0-12.876.032c-.521,0-1.263,0-2.206,0-29.835.023-56.312,1.074-78.7,3.125-55.941,5.125-67,14.754-69.157,18.656-.5.9-2.016,3.647,2.72,9.276,3.082,3.664,9.378,5.222,15.721,6.36,24.933,4.473,50.93,5.962,73.341,7.006,36.029,1.678,72.6,2.53,108.7,2.53Z" transform="translate(-62.705 -548.59)" fill="#407971"/>
          <path id="Trazado_146361" data-name="Trazado 146361" d="M294.939,577.85c62.661,2.463,123.741-.941,186.4,1.522,6.947.273,14.318.669,20.013,4.256s8.505,11.595,3.8,16.2c-2.215,2.168-5.52,3.111-8.706,3.791-8.7,1.857-17.665,2.413-26.587,2.908a2210.742,2210.742,0,0,1-263.92-1.136c-8.577-.55-35.13-.778-33.375-12.659,1.466-9.923,26.79-13.646,35.459-13.973,29.854-1.129,57.821-2.051,86.911-.908" transform="translate(-85.347 -550.166)" fill="#66948d"/>
        </g>
      </g>
      <g id="Grupo_166212" data-name="Grupo 166212" transform="translate(624.699 4056.896)">
        <g id="Grupo_166201" data-name="Grupo 166201" transform="translate(0)">
          <g id="Grupo_166200" data-name="Grupo 166200" clip-path="url(#clip-path-22)">
            <path id="Trazado_154102" data-name="Trazado 154102" d="M13.9,744.357a108.442,108.442,0,0,0,8.643,17.622c4.113,2.677,8.88,3.036,6.573,10.229-.932,2.907-3.618,4.8-5.718,7.013-2.956,3.123-3.484,4.416-5.983,7.916-6.489,9.086-18.888,5.108-11.428-.151,6.966-4.883,8.055-12.28,6.923-19.685-.9-5.89-5.542-10.585-9.394-15.13,3.755-1.791,6.97-4.693,10.383-7.813" transform="translate(156.124 -436.361)" fill="#f08a73"/>
            <path id="Trazado_154103" data-name="Trazado 154103" d="M300.724,765.434c1.118,7,.835,12.62,2.351,18.906,1.97,8.163,8.8,10.845,5.4,15.478-1.025,1.4-6.762,1.447-8.015,1.252-9.948-1.547-12.4,2.4-18.082,2.4-4.114,0-6.246-1.1-6.059-2.949.251-2.487,11.4-4.476,14.8-9.418,3.649-5.3-.39-16.868-4.7-27.14Z" transform="translate(-236.433 -447.856)" fill="#f08a73"/>
          </g>
        </g>
        <g id="Grupo_166203" data-name="Grupo 166203" transform="translate(159.643 307.995)">
          <g id="Grupo_166202" data-name="Grupo 166202" clip-path="url(#clip-path-23)">
            <path id="Trazado_154104" data-name="Trazado 154104" d="M20.047,787a16.035,16.035,0,0,1-5.412,13.75c2.075-3.306.173-9.868-4.327-7.359-2.772,4.7.82,9.673-6.232,15.924-4.7,2.884-6.2,8.448.2,10.19,8.911.465,12.917-9.691,18.294-15.206,7.251-5.895,8.93-15.056-2.521-17.3" transform="translate(-0.666 -769.357)" fill="#7576bd"/>
          </g>
        </g>
        <g id="Grupo_166205" data-name="Grupo 166205" transform="translate(39.87 316.109)">
          <g id="Grupo_166204" data-name="Grupo 166204" clip-path="url(#clip-path-24)">
            <path id="Trazado_154106" data-name="Trazado 154106" d="M306.652,824.2a28.753,28.753,0,0,1-14.67,4.2c2.987-1.107,5.1-6.121,1.081-7.79-3.783-1.572-6.394,8.458-16.255,9.468-4.258.068-4.9,4.349-1.521,6.447,8.123,5.9,17.661.019,26.059-1.838,8.035.885,10.944-2.585,5.306-10.484" transform="translate(-275.161 -797.071)" fill="#7576bd"/>
          </g>
        </g>
        <g id="Grupo_166207" data-name="Grupo 166207" transform="translate(0)">
          <g id="Grupo_166206" data-name="Grupo 166206" clip-path="url(#clip-path-22)">
            <path id="Trazado_154108" data-name="Trazado 154108" d="M172.917,513.324c5.1-2.947,9.816-8.77,7.676-14.259-7.245-22.1-18.4-39.362-30.041-57.582a43.724,43.724,0,0,1-5.96-16.872c-3.262-21.058-1.734-42.5-4.27-58.868-2.223-14.354-11.228-26.339-21.689-35.936l-43.14,3.906c.532,2.806-.476,13.7-.3,16.5-18.8,26.057-27.194,48.81-37.246,80.815a22.6,22.6,0,0,0-.437,11.558c7.072,32.7,1.72,51.705,6.325,72.993,9.879,10.7,28.631-2.238,45.652,12.018-11.744-20-9.1-43.277-14.235-56.389-5.584-14.255-5.607-15.957-7.892-30.195,8.765-19.3,19.159-37.433,32.663-52.394,14.48,48.22,35.61,87.437,43.176,138.707,3.079-13.367,20.344-9.838,29.721-14" transform="translate(-9.115 -193.341)" fill="#ffad61"/>
            <path id="Trazado_154109" data-name="Trazado 154109" d="M241.7,454.8l.5-.106c-1.642-7.85-4.324-9.315-7.719-11.171-.463-.253-.942-.514-1.437-.8l-.259.446c.5.29.981.553,1.448.809,3.407,1.862,5.869,3.207,7.462,10.824" transform="translate(-151.23 -259.534)" fill="#bf5300"/>
            <rect id="Rectángulo_41304" data-name="Rectángulo 41304" width="13.795" height="0.516" transform="translate(119.859 260.693) rotate(-130.74)" fill="#bf5300"/>
            <rect id="Rectángulo_41305" data-name="Rectángulo 41305" width="8.442" height="0.516" transform="translate(136.199 246.317) rotate(-93.905)" fill="#bf5300"/>
            <path id="Trazado_154110" data-name="Trazado 154110" d="M318.169,587.193a1.108,1.108,0,0,0,.324-.048,1.33,1.33,0,0,0,.843-1.314,3.344,3.344,0,0,0-.426-1.378l-2.472-5.135-.465.224,2.473,5.135a2.912,2.912,0,0,1,.374,1.164.822.822,0,0,1-.477.811,1.361,1.361,0,0,1-.912-.217,30.781,30.781,0,0,1-4.042-2.448l-.3.419a31.221,31.221,0,0,0,4.11,2.49,2.216,2.216,0,0,0,.97.3" transform="translate(-261.584 -339.611)" fill="#bf5300"/>
            <path id="Trazado_154111" data-name="Trazado 154111" d="M373.263,620.71l.5-.133c-.264-.991-.512-1.943-.753-2.868a85.151,85.151,0,0,0-4.381-13.588l-.473.206a84.718,84.718,0,0,1,4.355,13.513c.24.926.489,1.879.752,2.871" transform="translate(-338.794 -354.151)" fill="#bf5300"/>
            <path id="Trazado_154112" data-name="Trazado 154112" d="M294.111,707.048l.466-.223a113.532,113.532,0,0,1-6.713-17.657l-.5.142a113.959,113.959,0,0,0,6.743,17.738" transform="translate(-226.182 -404.008)" fill="#bf5300"/>
            <rect id="Rectángulo_41306" data-name="Rectángulo 41306" width="20.982" height="0.516" transform="matrix(-0.437, -0.899, 0.899, -0.437, 140.806, 315.162)" fill="#bf5300"/>
            <path id="Trazado_154113" data-name="Trazado 154113" d="M193.739,347.994c8.076,0,16.86-2.771,24.927-5.316,2.648-.835,5.149-1.624,7.505-2.274l-.137-.5c-2.366.652-4.871,1.442-7.524,2.279-11.987,3.782-25.575,8.069-35.9,2.917l-.231.461a25.118,25.118,0,0,0,11.357,2.43" transform="translate(-114.335 -199.262)" fill="#bf5300"/>
            <path id="Trazado_154114" data-name="Trazado 154114" d="M228.578,288.509c1.658,3.037,3.571,5.934,5.216,8.949-13.324,3.711-29.929,9.4-43.157,3.831l-2.651-8.3L200.364,274.5Z" transform="translate(-124.276 -160.92)" fill="#f08a73"/>
            <rect id="Rectángulo_41307" data-name="Rectángulo 41307" width="5.932" height="0.516" transform="translate(77.862 123.666) rotate(-101.328)" fill="#c92e16"/>
            <rect id="Rectángulo_41308" data-name="Rectángulo 41308" width="1.587" height="0.516" transform="matrix(-0.448, -0.894, 0.894, -0.448, 82.171, 142.112)" fill="#c92e16"/>
            <path id="Trazado_154115" data-name="Trazado 154115" d="M36.6,373.287c4.03,2.592,8.059,5.184,12.121,7.976a37.867,37.867,0,0,1,3.556,7.779c.391,2.164.825,4.079,1.3,5.965.346,1.377-.36,2-.944,1.733-1.148-.524-1.136-2.935-2.027-4.888.281,1.48.36,1.9.918,4.009a.96.96,0,0,1-.192.955.714.714,0,0,1-.793.04,1.865,1.865,0,0,1-.592-.594,11.38,11.38,0,0,1-1.851-4.217c-1.3-3.011-3.985-4.529-7.073-5.286a5.37,5.37,0,0,0,.6,4.614,12.436,12.436,0,0,1,2.392,3.158c.22.466.211.829-.164,1.125-.431.294-1-.072-1.384-.42a40.346,40.346,0,0,0-3.372-2.8,20.5,20.5,0,0,1-7.292-14.9Z" transform="translate(120.481 -218.83)" fill="#f08a73"/>
            <path id="Trazado_154116" data-name="Trazado 154116" d="M29.108,396.827c2.272-.016,7.916,14.21,3.731,10Z" transform="translate(140.915 -232.63)" fill="#f08a73"/>
            <path id="Trazado_154117" data-name="Trazado 154117" d="M42.535,410.005a.247.247,0,0,0,.077-.012.255.255,0,0,0,.166-.319,19.792,19.792,0,0,0-4.649-8.31.255.255,0,1,0-.381.339,19.106,19.106,0,0,1,4.544,8.124.254.254,0,0,0,.243.178" transform="translate(128.918 -235.24)" fill="#c92e16"/>
            <path id="Trazado_154118" data-name="Trazado 154118" d="M36.441,407.181a.26.26,0,0,0,.074-.011.254.254,0,0,0,.169-.318,52.264,52.264,0,0,0-3.448-8.715.255.255,0,0,0-.449.241A51.741,51.741,0,0,1,36.2,407a.254.254,0,0,0,.243.18" transform="translate(137.05 -233.319)" fill="#c92e16"/>
            <path id="Trazado_154119" data-name="Trazado 154119" d="M421.208,101.346a12.836,12.836,0,0,1-.108-2.808c5.84-5.84,1.585-8.9,2.335-15.651a1.305,1.305,0,0,0-.459-1.207c-2.107-1.012-2.375,3.668-2.089,5.482-.344,3.437-1.785,3.5-2.726.418,1.112-1.112-.9-3.061-1.54-4.387-.472-1.424,4.378-6.259,3.13-8.342-1.72-.445-5.157,5.527-6.123,6.72-1.754-.747-2.548-.021-2.15,1.766-1.212-1.116-2.451.677-2.519,1.884-1.686-.51-1.43,2.437-1.905,3.455-1.41,5.333,6.9,7.774,5.584,13.366Z" transform="translate(-405.295 -43.866)" fill="#f08a73"/>
            <path id="Trazado_154120" data-name="Trazado 154120" d="M428.166,92.72a.258.258,0,0,0,.194-.429,4.89,4.89,0,0,0-2.565-1.521.258.258,0,0,0-.114.5,4.366,4.366,0,0,1,2.292,1.359.257.257,0,0,0,.194.087" transform="translate(-417.176 -53.208)" fill="#c92e16"/>
            <path id="Trazado_154121" data-name="Trazado 154121" d="M431.314,100.784a2.014,2.014,0,0,0,.4-.039c.463-.093.924-.458.866-.95a1.114,1.114,0,0,0-.255-.529l-1.413-1.884a8.433,8.433,0,0,0-3.408-2.243.258.258,0,0,0-.173.486,7.9,7.9,0,0,1,3.183,2.084l1.4,1.867a.681.681,0,0,1,.156.28c.02.168-.224.337-.455.384a2.063,2.063,0,0,1-1.5-.379,5.54,5.54,0,0,1-1.173-1.165.234.234,0,0,0-.054-.051,12.471,12.471,0,0,0-4.2-1.8.258.258,0,1,0-.094.507,11.9,11.9,0,0,1,3.97,1.7,5.921,5.921,0,0,0,1.265,1.242,2.694,2.694,0,0,0,1.49.5" transform="translate(-420.878 -55.764)" fill="#c92e16"/>
            <path id="Trazado_154122" data-name="Trazado 154122" d="M430.968,106.308a.257.257,0,0,0,.253-.214,5.209,5.209,0,0,1,.622-1.6c.3.07.578.135.867.185a4.671,4.671,0,0,0,1.128.76,2.017,2.017,0,0,0,1.477.112.791.791,0,0,0,.592-.833.881.881,0,0,0-.24-.415,16.306,16.306,0,0,0-1.155-1.158.258.258,0,0,0-.347.383,15.606,15.606,0,0,1,1.118,1.12.514.514,0,0,1,.117.169c.015.077-.108.195-.257.247a1.5,1.5,0,0,1-1.1-.1,4.4,4.4,0,0,1-1.056-.727.252.252,0,0,0-.126-.059c-.323-.053-.644-.129-.985-.21l-.077-.019a.257.257,0,0,0-.25.077,5.062,5.062,0,0,0-.839,1.973.258.258,0,0,0,.21.3.268.268,0,0,0,.045,0" transform="translate(-426.835 -60.429)" fill="#c92e16"/>
            <path id="Trazado_154123" data-name="Trazado 154123" d="M429.042,113.353a.257.257,0,0,0,.187-.081,21.393,21.393,0,0,1,3.088-2.7.258.258,0,0,0-.3-.42,21.968,21.968,0,0,0-3.161,2.765.258.258,0,0,0,.187.435" transform="translate(-422.543 -64.545)" fill="#c92e16"/>
            <path id="Trazado_154124" data-name="Trazado 154124" d="M421.477,119.527a.271.271,0,0,0,.065-.008.258.258,0,0,0,.185-.315,8.233,8.233,0,0,1,.291-5.028.258.258,0,0,0-.481-.187,8.75,8.75,0,0,0-.309,5.346.258.258,0,0,0,.25.193" transform="translate(-408.912 -66.727)" fill="#c92e16"/>
            <path id="Trazado_154125" data-name="Trazado 154125" d="M422.906,104.681h.012a.258.258,0,0,0,.257-.259.243.243,0,0,0-.259-.257h-.009a1.962,1.962,0,0,1-1.34-.535.258.258,0,0,0-.356.374,2.485,2.485,0,0,0,1.7.677" transform="translate(-410.127 -60.709)" fill="#c92e16"/>
            <path id="Trazado_154126" data-name="Trazado 154126" d="M207.037,73.488a6.662,6.662,0,0,1,9.171.594c3.117-.617.727-3.862-1.127-4.777-3.1-2.3-.589-5.218,2.709-3.94a16.683,16.683,0,0,1,8.473,6.147,9.418,9.418,0,0,0-7.115-12.988c-7.915.118-14.116-.115-10.8-10.092,4.057-15.462-8.241-29.565-22.8-33.562-7.4-2.95-14.123.773-20.4,4.406-14.9,7.052-23.306-14.306-32.539-4.781,5.814-1.127,8.287,12.014,11.476,16.207a7.9,7.9,0,0,1-7.6-5.547c-2.846,7.306,2.608,15.974,10.425,16.572a5.978,5.978,0,0,1-7.48-1.5,11.247,11.247,0,0,0,5.638,12.463l-4.1-.039a22.85,22.85,0,0,0,23.975,12.692Z" transform="translate(-94.629 -7.037)" fill="#a35d53"/>
            <path id="Trazado_154127" data-name="Trazado 154127" d="M150.154,90.207a8.248,8.248,0,0,0-2.348-7.275,7.187,7.187,0,0,0-6.469-2.189c-.7.133-1.414.289-2.133.446-3.284.717-6.68,1.457-8.455-.044-1-.845-1.433-2.336-1.327-4.558.049-1.019.127-2.072.2-3.09.428-5.728.871-11.651-3.4-16.235l-.378.352c4.115,4.419,3.681,10.227,3.26,15.845-.076,1.022-.155,2.078-.2,3.1-.115,2.394.378,4.022,1.508,4.977,1.968,1.666,5.491.9,8.9.154.715-.156,1.427-.311,2.12-.443a6.67,6.67,0,0,1,6.006,2.045,7.727,7.727,0,0,1,2.208,6.812Z" transform="translate(-15.064 -33.568)" fill="#a35d53"/>
            <path id="Trazado_154128" data-name="Trazado 154128" d="M309.482,14.7a7.707,7.707,0,0,0,4.18-1.376l-.278-.434c-5.612,3.595-9.367-.948-13.343-5.759-4.01-4.851-8.156-9.867-14.265-5.393l.305.416c5.715-4.189,9.527.424,13.561,5.306,2.955,3.575,5.984,7.24,9.839,7.24" transform="translate(-244.609 0)" fill="#a35d53"/>
            <path id="Trazado_154129" data-name="Trazado 154129" d="M185.987,61.429a.255.255,0,0,0,.076-.012.258.258,0,0,0,.171-.322,22.153,22.153,0,0,0-5.183-8.819.258.258,0,1,0-.372.357,21.628,21.628,0,0,1,5.061,8.613.259.259,0,0,0,.247.182" transform="translate(-73.675 -30.599)" fill="#803226"/>
            <path id="Trazado_154130" data-name="Trazado 154130" d="M177.267,101.755a.258.258,0,0,0,0-.516c-2.522-.01-5.123-.155-6.776-1.773-1.6-1.562-1.73-3.989-1.669-5.3a26.5,26.5,0,0,1,.437-3.293c.147-.84.3-1.708.386-2.574a17.633,17.633,0,0,0-2.553-10.987.258.258,0,0,0-.438.272,17.117,17.117,0,0,1,2.479,10.664c-.084.847-.235,1.705-.381,2.536a26.787,26.787,0,0,0-.444,3.358,7.327,7.327,0,0,0,1.823,5.689c1.791,1.753,4.507,1.91,7.135,1.92Z" transform="translate(-59.165 -45.253)" fill="#803226"/>
            <path id="Trazado_154131" data-name="Trazado 154131" d="M144.091,139.7a.259.259,0,0,0,.252-.313,8.585,8.585,0,0,0-6.726-6.463.258.258,0,0,0-.091.508,8.057,8.057,0,0,1,6.313,6.065.258.258,0,0,0,.252.2" transform="translate(-13.865 -77.922)" fill="#803226"/>
            <path id="Trazado_154132" data-name="Trazado 154132" d="M194.618,126.3a.258.258,0,0,0,.13-.481,11.042,11.042,0,0,1-5.358-9.578.258.258,0,0,0-.252-.264.265.265,0,0,0-.264.252,11.573,11.573,0,0,0,5.615,10.037.258.258,0,0,0,.13.035" transform="translate(-85.724 -67.99)" fill="#803226"/>
            <path id="Trazado_154133" data-name="Trazado 154133" d="M195.455,142.938a.258.258,0,0,0,.139-.475,26.848,26.848,0,0,0-3.2-1.669c-.808-.375-1.642-.763-2.426-1.2-1.5-.846-3.418-2.295-4.016-4.394a.258.258,0,1,0-.5.141,8.36,8.36,0,0,0,4.259,4.7c.8.451,1.645.843,2.461,1.222a26.473,26.473,0,0,1,3.144,1.635.255.255,0,0,0,.139.041" transform="translate(-85.143 -79.145)" fill="#803226"/>
            <path id="Trazado_154134" data-name="Trazado 154134" d="M225.908,134.037a.258.258,0,0,0,.174-.448,19.944,19.944,0,0,1-4.149-5.36.258.258,0,0,0-.456.242,20.454,20.454,0,0,0,4.257,5.5.256.256,0,0,0,.174.068" transform="translate(-130.495 -75.091)" fill="#803226"/>
            <path id="Trazado_154135" data-name="Trazado 154135" d="M166.259,154.269a.258.258,0,0,0,.188-.434,16,16,0,0,0-3.194-2.854,5.519,5.519,0,0,0-4.237-.826.258.258,0,0,0,.129.5,5.085,5.085,0,0,1,3.838.765,15.612,15.612,0,0,1,3.088,2.767.256.256,0,0,0,.189.082" transform="translate(-44.933 -87.944)" fill="#803226"/>
            <path id="Trazado_154136" data-name="Trazado 154136" d="M228.951,52.992a.257.257,0,0,0,.1-.021,28.706,28.706,0,0,0,8.814-5.929.258.258,0,1,0-.362-.367,28.2,28.2,0,0,1-8.654,5.821.258.258,0,0,0,.1.495" transform="translate(-145.269 -27.319)" fill="#803226"/>
            <path id="Trazado_154137" data-name="Trazado 154137" d="M281.115,40.532a17.49,17.49,0,0,0,10.76-3.721.258.258,0,0,0-.32-.405A16.772,16.772,0,0,1,268.7,34.479c-.528-.585-1.026-1.221-1.508-1.837a20.226,20.226,0,0,0-2.747-3.056c-1.51-1.279-4.05-2.388-6.246-1.308a.258.258,0,0,0,.228.463c1.972-.97,4.294.06,5.684,1.238a19.9,19.9,0,0,1,2.675,2.981c.487.623.991,1.266,1.531,1.865A17.462,17.462,0,0,0,279.7,40.473c.469.04.941.059,1.411.059" transform="translate(-211.449 -16.321)" fill="#803226"/>
            <path id="Trazado_154138" data-name="Trazado 154138" d="M275.051,35.695a14.171,14.171,0,0,0,10.478-4.58.258.258,0,0,0-.385-.343,13.629,13.629,0,0,1-14.285,3.716.258.258,0,0,0-.168.488,13.338,13.338,0,0,0,4.36.72" transform="translate(-210.226 -17.988)" fill="#803226"/>
            <path id="Trazado_154139" data-name="Trazado 154139" d="M288.659,89.922a14.857,14.857,0,0,0,3.194-.343.258.258,0,1,0-.111-.5,15.244,15.244,0,0,1-13.971-4.219c-.3-.31-.585-.633-.871-.957a16.087,16.087,0,0,0-1.784-1.812,4.882,4.882,0,0,0-3.707-1.236.258.258,0,0,0,.083.51,4.37,4.37,0,0,1,3.3,1.125,15.634,15.634,0,0,1,1.725,1.755c.291.329.583.657.886.973a15.814,15.814,0,0,0,11.26,4.708" transform="translate(-216.967 -47.371)" fill="#803226"/>
            <path id="Trazado_154140" data-name="Trazado 154140" d="M306.395,105.3a9.553,9.553,0,0,0,6.052-2.1.258.258,0,0,0-.329-.4,9.167,9.167,0,0,1-10.289.753.258.258,0,1,0-.267.441,9.353,9.353,0,0,0,4.833,1.305" transform="translate(-249.967 -60.231)" fill="#803226"/>
            <path id="Trazado_154141" data-name="Trazado 154141" d="M275.435,66.815a15.677,15.677,0,0,0,4.634-.7.258.258,0,1,0-.152-.493,15.166,15.166,0,0,1-17.465-6.641.258.258,0,1,0-.441.267,15.661,15.661,0,0,0,13.424,7.565" transform="translate(-201.348 -34.505)" fill="#803226"/>
            <path id="Trazado_154142" data-name="Trazado 154142" d="M336.673,63.272a.258.258,0,0,0,.045-.512,10.739,10.739,0,0,1-7.735-5.97.258.258,0,0,0-.469.216,11.262,11.262,0,0,0,8.113,6.262.246.246,0,0,0,.046,0" transform="translate(-285.551 -33.204)" fill="#803226"/>
            <path id="Trazado_154143" data-name="Trazado 154143" d="M281.115,116.974a7.061,7.061,0,0,0,3.75-1.163A19.245,19.245,0,0,0,288,113.026c.626-.644,1.273-1.309,1.961-1.893,2.056-1.746,4.324-2.371,6.07-1.671a.258.258,0,0,0,.192-.479c-1.923-.772-4.391-.115-6.6,1.757-.707.6-1.363,1.274-2,1.927a18.766,18.766,0,0,1-3.051,2.713c-1.82,1.193-4.492,1.623-6.075.137a.258.258,0,0,0-.353.377,4.229,4.229,0,0,0,2.961,1.082" transform="translate(-224.145 -63.702)" fill="#803226"/>
            <path id="Trazado_154144" data-name="Trazado 154144" d="M286.084,126.24h.014a6.453,6.453,0,0,0,5.866-5.134.258.258,0,0,0-.206-.3.261.261,0,0,0-.3.206,6,6,0,0,1-5.387,4.714.258.258,0,0,0,.014.516" transform="translate(-222.935 -70.816)" fill="#803226"/>
            <path id="Trazado_154145" data-name="Trazado 154145" d="M154.851,140.62c32.355,7.824,22.31,7.9,41.155,32.27,12.724,21.04,39.56,27.25,26.8,57.527l2.439,6.111a84.848,84.848,0,0,1-8.484,4.275c-1.182-2.2-2.363-4.4-3.952-6.987A24.949,24.949,0,0,1,194.048,216c-.893-3.464-1.114-7.318-3.421-10.051-11.645-8.064-12.968-8.152-17.32-23.385-2.7,8.481-3.054,17.695-1.88,27.252-10.846-.38-20.2-7.26-29.039-12.651a51.523,51.523,0,0,1-12.516,16.881,100.209,100.209,0,0,1-6.539-21.453,18.268,18.268,0,0,1-5.852-8.206c-13.516,4.478-14.056,19.334-33.055,19.211-12.508-13.179-27.6-38.937-10.389-53.343L72.8,139.5c3.592-.118,7.159-.937,10.882-.861l.654,7a10.925,10.925,0,0,1,8.129,11.49c-.224,1.95-.99,3.891-.629,5.82.822,4.55,8.52,7.439,6.329,12.653a11.088,11.088,0,0,0,.676-4.2,5.533,5.533,0,0,1,2.052-5c2.58-1.933,3.738-4.45,6.017-7.34,6.561-8.319,11.207-18.48,26.3-20.062Z" transform="translate(-66.292 -81.268)" fill="#f7d4bc"/>
          </g>
        </g>
        <g id="Grupo_166209" data-name="Grupo 166209" transform="translate(0 57.361)">
          <g id="Grupo_166208" data-name="Grupo 166208" clip-path="url(#clip-path-26)">
            <path id="Trazado_154146" data-name="Trazado 154146" d="M159.391,151.47c.974-1.528,3.58-.581,3.015,1.271-.978,3.206-1.624,6.135,1.3,8.6,3.234,2.726,7.128.766,9.639-1.921,1.385-1.482,3.522.707,2.21,2.21-7.733,10.02-22.3.939-16.162-10.157" transform="translate(-54.005 -145.71)" fill="#7576bd"/>
            <path id="Trazado_154147" data-name="Trazado 154147" d="M94.563,199.5c1.844-2.062,5.034.809,3.19,2.872-3.594,4.019-1.97,9.679,2.257,12.563a2.18,2.18,0,0,1,.61,3.343c-3.525,3.671-1.469,9.294,3.059,11.069,5.182,2.032,9.852-1.4,11.391-6.331.817-2.613,5.019-1.721,4.193.923-4.775,17.606-30.981,10.041-23.2-6.78-4.962-4.675-6.482-12.092-1.5-17.659" transform="translate(30.07 -173.896)" fill="#7576bd"/>
            <path id="Trazado_154148" data-name="Trazado 154148" d="M77.355,292.948c4.687-12.864,19.136,3.463,8.861,8.659-5.03,2.385-10.125-3.865-8.861-8.659m5.081,3.968c3.385,3.042,3.484-3.572.83-4.364-2.23-.133-2.173,3.2-.83,4.364" transform="translate(65.549 -226.263)" fill="#7576bd"/>
            <path id="Trazado_154149" data-name="Trazado 154149" d="M117.906,303.927c12.51-3.09,20.423,20.323,6.935,22.84-2.706.505-2.9-3.786-.224-4.286,6.774-1.264,1.333-16.133-5.354-14.481-2.668.659-4.039-3.41-1.356-4.073" transform="translate(7.241 -235.366)" fill="#7576bd"/>
            <path id="Trazado_154150" data-name="Trazado 154150" d="M57.348,341.931c3.165-9.544,14.852-3.811,14.786,4.387-.022,2.75-4.308,2.993-4.286.225-3.153-11.771-10.988-1.683-3.7,4.743,1.736,1.589,5.306,3.136,6.978.763,1.59-2.256,4.764.638,3.19,2.872-7.383,8.148-20.371-4.093-16.969-12.99" transform="translate(89.058 -254.897)" fill="#7576bd"/>
            <path id="Trazado_154151" data-name="Trazado 154151" d="M208.917,197.053c1.641-11.824,17.056-15.019,18.258-1.85.154,1.689-.1,3.688.82,5.2,3.09,3.787,8.057,8.225,4.615,13.464-4.452,6.676-14.831,2.994-16.732-3.958-3.114-3.928-8.054-6.95-6.961-12.858m6.815,6.507a14.033,14.033,0,0,1,4.364,5.355c4.064,8.4,15.07,3,5.15-5.019-4.441-4.4-.533-13.254-7.529-12.736-5.336.4-6.218,8.957-1.984,12.4" transform="translate(-132.857 -166.786)" fill="#7576bd"/>
            <path id="Trazado_154152" data-name="Trazado 154152" d="M304.961,151.4c1.5,4.4,9.07,4.134,12.429,2.352,5.333-2.83,4.035-10.613-.653-13.289-2.391-1.365-.439-5.189,1.97-3.814,7.318,4.177,9.09,15.521,1.452,20.448-5.7,3.677-16.788,2.931-19.271-4.341-.894-2.618,3.181-3.97,4.073-1.356" transform="translate(-262.253 -137.299)" fill="#7576bd"/>
            <path id="Trazado_154153" data-name="Trazado 154153" d="M368.076,272.338a7.3,7.3,0,0,1,5.343-4.948c5.586-1.492,9.742,2.641,9.221,6.782-.966,9.245-16.4,7.647-14.564-1.834m7.366,3.844c2.566,0,4.346-3.3,1.606-4.648-4.274-2.1-7.344,4.659-1.606,4.648" transform="translate(-347.622 -213.929)" fill="#7576bd"/>
            <path id="Trazado_154154" data-name="Trazado 154154" d="M291.743,213.625c3.431-1.519,7.028-.223,10.042,1.593-.447-4.323,3.7-7.41,7.826-6.509,8.74,1.664,13.162,15.655,4.22,20.061,4.41,5.54,2.1,16.176-5.73,17.066-2.746.312-2.961-3.975-.225-4.286,5.143-.585,4.967-9.524.89-11.4a2.17,2.17,0,0,1,.307-3.944c2.635-.919,5.332-2.266,5.43-5.394.812-3.709-6.331-11.8-8.4-5.986a6.519,6.519,0,0,1-.72,3.071c-3.52,5.463-12.333-5.67-14.027,2.783a6.885,6.885,0,0,0,5.941,7.594c2.721.467,1.8,4.66-.923,4.192-8.813-.873-13.361-14.615-4.634-18.84" transform="translate(-250.205 -179.62)" fill="#7576bd"/>
            <path id="Trazado_154155" data-name="Trazado 154155" d="M245.6,260.237c8.689-3.118,13.587,6.563,12.561,13.865-.384,2.732-4.576,1.8-4.193-.923,1.648-15.078-17.722-9.07-6.165,1.274,2.274,1.512.334,5.346-1.969,3.814-6.37-4.24-9.149-14.83-.234-18.03" transform="translate(-170.276 -209.567)" fill="#7576bd"/>
            <path id="Trazado_154156" data-name="Trazado 154156" d="M187.475,270.039c2.253-6.351,12.737-6.061,14.343.625.641,2.67-3.428,4.042-4.073,1.356-.8-3.313-6.57-3.052-6.459.643.1,3.471,5.757,4.735,8.413,5.012,2.739.286,1.8,4.477-.923,4.193-5.818-.607-13.8-4.79-11.3-11.829" transform="translate(-91.963 -212.979)" fill="#7576bd"/>
            <path id="Trazado_154157" data-name="Trazado 154157" d="M170.225,197.851a4.842,4.842,0,0,1,2.071-.942c5.744-2.152,11.133,4.952,12.361,10.191,1.924,10.262-7.568,8.532-11.939,2.336-2.591-3.673-6.688-8.3-2.492-11.585m4.065,7.234a14.986,14.986,0,0,0,4.09,4,1.384,1.384,0,0,0,2.1-1.288c-.7-7.371-11.721-9.636-6.191-2.714" transform="translate(-67.299 -172.562)" fill="#7576bd"/>
            <path id="Trazado_154158" data-name="Trazado 154158" d="M215.867,142.7c4.854,9.9,12.169,5.435,7.284.366-2.368-1.4-.419-5.224,1.969-3.814,4.324,2.554,5.564,9.685.908,12.647-5.91,3.758-10.864-2.5-13.748-6.841-1.531-2.306,2.059-4.659,3.587-2.357" transform="translate(-129.369 -138.814)" fill="#7576bd"/>
            <path id="Trazado_154159" data-name="Trazado 154159" d="M159.215,265.5c4.855-19.1,18.894-6.562,7.928,6.042-1.768,2.13-4.952-.749-3.189-2.872a14.961,14.961,0,0,0,2.68-4.873c.23-.717.818-3.755-.24-3.754-1.465,0-2.875,6.086-3.364,7.426-.944,2.586-4.751.6-3.814-1.969" transform="translate(-49.747 -207.255)" fill="#7576bd"/>
            <path id="Trazado_154160" data-name="Trazado 154160" d="M413.919,195.781c4.612,2.507,11.481-.613,9.66-6.418-1.075-4.161-5.469-4.217-8.4-6.294-2.923-2.6-.443-6.018,1.872-7.939,4.394-2.737,1.685-10.516-3.142-10.5-2.666.676-4.035-3.394-1.356-4.073,8.522-1.9,14.936,11.157,8.4,16.894-.457.417-2.945,2.234-2.935,2.421,6.207,1.968,11.9,6.908,9.688,14.174-2.159,6.449-8.873,7.926-14.706,5.925-2.58-.885-1.694-5.09.923-4.193" transform="translate(-410.993 -151.376)" fill="#7576bd"/>
            <path id="Trazado_154161" data-name="Trazado 154161" d="M386.8,132.216c1.5-2.286,5.333-.345,3.814,1.969-3.721,4.815,3.711,14.408,7.606,7.431.833-2.606,5.035-1.715,4.192.923-5.955,13.593-22.178.494-15.612-10.323" transform="translate(-374.635 -134.27)" fill="#7576bd"/>
            <path id="Trazado_154162" data-name="Trazado 154162" d="M374.976,199.775c-.26-4.475-7.335-8.939-2.8-13.525,4.552-6.075,17.726,4.319,12.186,7.94,5.862,1.568,3.761,16.224-2.252,17.369-7.971,1.727-7.763-6.33-7.136-11.783m.28-9.113c.857,2.676,3.278,4.463,3.827,7.307.345,1.792-1.512,10.265,1.673,9.517,3.459-1.893,3.1-7.48,1.675-10.625a1.737,1.737,0,0,1,1.036-2.5c-2.592-.2-2.178-4.966-5.886-5.507-1.608-.381-2.848.169-2.325,1.8" transform="translate(-353.908 -165.452)" fill="#7576bd"/>
          </g>
        </g>
        <g id="Grupo_166211" data-name="Grupo 166211" transform="translate(0)">
          <g id="Grupo_166210" data-name="Grupo 166210" clip-path="url(#clip-path-22)">
            <path id="Trazado_154164" data-name="Trazado 154164" d="M185.628,227.692a.258.258,0,0,0,.255-.219c.128-.843.245-1.695.364-2.55a49.834,49.834,0,0,1,1.984-9.652c.422-.239.732-.3.858-.167.576.609-.6,4.007-1.195,4.879a.258.258,0,0,0,.329.375l.132-.066a.258.258,0,0,0,.132-.3c.612-1.153,1.8-4.366.977-5.24-.329-.347-.86-.3-1.577.125a.256.256,0,0,0-.11.134,49.71,49.71,0,0,0-2.041,9.842c-.117.853-.235,1.7-.362,2.543a.257.257,0,0,0,.216.294l.039,0" transform="translate(-79.145 -125.756)" fill="#82302a"/>
            <path id="Trazado_154165" data-name="Trazado 154165" d="M183.072,233.612a.256.256,0,0,0,.235-.151,32.907,32.907,0,0,1,5.1-7.96.258.258,0,0,0-.39-.338,33.4,33.4,0,0,0-5.179,8.085.258.258,0,0,0,.235.365" transform="translate(-76.812 -131.944)" fill="#82302a"/>
            <path id="Trazado_154166" data-name="Trazado 154166" d="M257.138,249.461a.258.258,0,0,0,.15-.468,23.831,23.831,0,0,1-8.426-11.049.258.258,0,1,0-.484.178,24.356,24.356,0,0,0,8.609,11.291.261.261,0,0,0,.15.048" transform="translate(-172.862 -139.39)" fill="#82302a"/>
            <path id="Trazado_154167" data-name="Trazado 154167" d="M305.693,273.681a.258.258,0,0,0,.119-.487l-3.922-2.04a.258.258,0,0,0-.238.458l3.922,2.039a.252.252,0,0,0,.119.029" transform="translate(-243.409 -158.941)" fill="#82302a"/>
            <path id="Trazado_154168" data-name="Trazado 154168" d="M322.515,229.379h.015a.258.258,0,0,0,.242-.273,24.6,24.6,0,0,1,3.156-13.469.258.258,0,1,0-.448-.256,25.117,25.117,0,0,0-3.223,13.756.258.258,0,0,0,.257.243" transform="translate(-271.987 -126.186)" fill="#82302a"/>
            <path id="Trazado_154169" data-name="Trazado 154169" d="M328.7,205.462a.258.258,0,0,0,.258-.251,21.731,21.731,0,0,0-2.589-10.87.258.258,0,0,0-.455.245,21.2,21.2,0,0,1,2.527,10.612.258.258,0,0,0,.251.265Z" transform="translate(-276.514 -113.848)" fill="#82302a"/>
            <path id="Trazado_154170" data-name="Trazado 154170" d="M329.909,215.877a.258.258,0,0,0,.228-.379,12.685,12.685,0,0,0-4.6-4.869.258.258,0,0,0-.268.441,12.174,12.174,0,0,1,4.413,4.672.258.258,0,0,0,.228.137" transform="translate(-277.402 -123.454)" fill="#82302a"/>
            <path id="Trazado_154171" data-name="Trazado 154171" d="M383.729,235.362a.259.259,0,0,0,.219-.121,18.616,18.616,0,0,1,5.848-5.84.258.258,0,0,0-.274-.437,19.142,19.142,0,0,0-6.012,6,.258.258,0,0,0,.082.355.253.253,0,0,0,.137.04" transform="translate(-361.286 -134.202)" fill="#82302a"/>
            <path id="Trazado_154172" data-name="Trazado 154172" d="M410.843,161.239a.253.253,0,0,0,.076-.011,39.274,39.274,0,0,0,8.552-3.8.258.258,0,1,0-.264-.443,38.737,38.737,0,0,1-8.44,3.747.258.258,0,0,0,.076.5" transform="translate(-402.186 -92.008)" fill="#82302a"/>
            <path id="Trazado_154173" data-name="Trazado 154173" d="M112.152,258.285a.258.258,0,0,0,.209-.409l-7.667-10.6a.258.258,0,1,0-.418.3l7.667,10.6a.257.257,0,0,0,.209.107" transform="translate(31.765 -144.895)" fill="#82302a"/>
            <path id="Trazado_154174" data-name="Trazado 154174" d="M134.306,315.885a.258.258,0,0,0,.213-.4l-4.613-6.766a.258.258,0,1,0-.426.29l4.613,6.766a.257.257,0,0,0,.213.113" transform="translate(-0.82 -180.911)" fill="#82302a"/>
            <path id="Trazado_154175" data-name="Trazado 154175" d="M76,364.689a.251.251,0,0,0,.124-.032l8.251-4.524a.258.258,0,0,0-.248-.453L75.872,364.2a.258.258,0,0,0,.124.484" transform="translate(71.457 -210.836)" fill="#82302a"/>
            <path id="Trazado_154176" data-name="Trazado 154176" d="M378.367,237.128a1.539,1.539,0,0,0,.247-.021c1.648-.27,3.833-3.279,4.563-10.869a.258.258,0,0,0-.233-.281.263.263,0,0,0-.282.232c-.75,7.805-2.95,10.215-4.132,10.409a.835.835,0,0,1-.944-.547c-.41-.917-.051-3.064,2.621-5.219a.258.258,0,1,0-.324-.4c-2.715,2.189-3.338,4.557-2.769,5.831a1.35,1.35,0,0,0,1.252.867" transform="translate(-351.837 -132.462)" fill="#82302a"/>
            <path id="Trazado_154177" data-name="Trazado 154177" d="M228.618,46.27a18.817,18.817,0,0,1,.177,15.4,66.067,66.067,0,0,0,2.422,7.271c-2.9.7-3.815,1.241-4.222,3.283a14.218,14.218,0,0,1-1.2,3.369c-1.541,3.193-1.182,7.282-5.963,5.435a19.888,19.888,0,0,1-5.645-3.551,1.824,1.824,0,0,0-1.684-.59c-.806.441-.9,2.224-.9,4.522,0,3.144,1.341,4.848,4.292,5.877-2.234,10.672-12.242,18.19-15.409,28.623-2.717-9.98-5.434-21.387-7.82-31.01,6.824-1.755,5.981-6.061,6.9-15.517,2.387-.482,6.075-2.414,7.327-4.95-5.212-6.268,1.44-14.645,3.406-8.307.207.667.124,3.106,1.123,2.9.688-.247,1.13-2.294,1.358-2.989,1.194-3.638,2.686-2.291,4.923-3.712,5.471-6.509,2.455-3.005,10.92-6.055" transform="translate(-123.635 -27.125)" fill="#f08a73"/>
            <path id="Trazado_154178" data-name="Trazado 154178" d="M248.447,73.911a5.615,5.615,0,0,0-1.836-4.5l-.343.386a5.088,5.088,0,0,1,1.664,4.081Z" transform="translate(-163.059 -40.689)" fill="#c92e16"/>
            <path id="Trazado_154179" data-name="Trazado 154179" d="M249.67,79.6l.4-.332a6.11,6.11,0,0,1-1.4-4.409l-.514-.043A6.631,6.631,0,0,0,249.67,79.6" transform="translate(-165.434 -43.861)" fill="#c92e16"/>
            <path id="Trazado_154180" data-name="Trazado 154180" d="M246.078,91.782a2.991,2.991,0,0,0,.939-.144l-.163-.489a2.485,2.485,0,0,1-2.714-.784l-.433.28a2.8,2.8,0,0,0,2.372,1.138" transform="translate(-160.556 -52.974)" fill="#c92e16"/>
            <path id="Trazado_154181" data-name="Trazado 154181" d="M243.107,104.369l.387-.341a7.472,7.472,0,0,1-1.8-5.5l-.514-.046a8,8,0,0,0,1.926,5.882" transform="translate(-155.975 -57.736)" fill="#c92e16"/>
            <path id="Trazado_154182" data-name="Trazado 154182" d="M208.442,79.264a3.3,3.3,0,0,1-1.35,3.208l-2.782-2.7Z" transform="translate(-105.73 -46.467)" fill="#fff"/>
            <path id="Trazado_154183" data-name="Trazado 154183" d="M206.19,107.76l-.241.03a.851.851,0,0,0-.723-.833c-1.011-.27-2.249-.492-2.249-.492s.06,3.739,2.279,3.966c0,0,.377-.828.563-1.356s.372-1.316.372-1.316" transform="translate(-102.876 -62.413)" fill="#e86756"/>
            <path id="Trazado_154184" data-name="Trazado 154184" d="M206.842,108.161a.258.258,0,0,0,.123-.485,6.571,6.571,0,0,1-2.675-2.728.258.258,0,0,0-.475.2,7.131,7.131,0,0,0,2.9,2.978.254.254,0,0,0,.123.031" transform="translate(-104.124 -61.432)" fill="#c92e16"/>
            <path id="Trazado_154185" data-name="Trazado 154185" d="M202.529,78.439a.258.258,0,0,0,.017-.516.855.855,0,0,1-.773-.65,1.281,1.281,0,0,1,.356-1.346.258.258,0,0,0-.319-.405,1.782,1.782,0,0,0-.53,1.9,1.365,1.365,0,0,0,1.232,1.012h.018" transform="translate(-98.735 -44.241)" fill="#c92e16"/>
            <path id="Trazado_154186" data-name="Trazado 154186" d="M206.7,79.569s.345,1.529-1.459,3.043l-1.123-1.172s1.146-1.965,2.033-2.008.549.137.549.137" transform="translate(-103.921 -46.561)" fill="#5e2d48"/>
            <path id="Trazado_154187" data-name="Trazado 154187" d="M205.131,69.873a.258.258,0,0,0,.173-.449c-1.626-1.471-3.778-1.727-7.2-.859a.258.258,0,0,0,.127.5c3.232-.821,5.243-.6,6.724.741a.257.257,0,0,0,.173.067" transform="translate(-99.979 -39.903)" fill="#a35d53"/>
            <path id="Trazado_154188" data-name="Trazado 154188" d="M200.149,101.6a.261.261,0,0,0,.056-.006l1.08-.24a.258.258,0,0,0-.112-.5l-1.079.24a.258.258,0,0,0,.056.51" transform="translate(-96.895 -59.116)" fill="#c92e16"/>
            <path id="Trazado_154189" data-name="Trazado 154189" d="M207,80.19a.258.258,0,0,0,.022-.515,1.231,1.231,0,0,1-.982-.717.255.255,0,0,0-.1-.118,4.038,4.038,0,0,0-3.275-.023,8.935,8.935,0,0,1-1.329.29.258.258,0,0,0,.055.513,9.461,9.461,0,0,0,1.408-.3,3.73,3.73,0,0,1,2.808-.073,1.747,1.747,0,0,0,1.374.947H207" transform="translate(-103.169 -46.003)" fill="#8c3420"/>
            <path id="Trazado_154190" data-name="Trazado 154190" d="M236.75,154.041a14.914,14.914,0,0,0,2.685-.245l-.093-.507a14.364,14.364,0,0,1-5.248-.012l-.095.508a14.962,14.962,0,0,0,2.75.256" transform="translate(-148.958 -89.855)" fill="#c92e16"/>
            <path id="Trazado_154191" data-name="Trazado 154191" d="M273.876,149.525l.039-.514a13.367,13.367,0,0,1-5.4-1.613l-.249.452a13.881,13.881,0,0,0,5.612,1.675" transform="translate(-197.616 -86.408)" fill="#c92e16"/>
          </g>
        </g>
      </g>
      <g id="Grupo_166221" data-name="Grupo 166221" transform="translate(800 4066.981)">
        <g id="Grupo_166214" data-name="Grupo 166214">
          <g id="Grupo_166213" data-name="Grupo 166213" clip-path="url(#clip-path-28)">
            <path id="Trazado_154192" data-name="Trazado 154192" d="M87.048,760.806c-6.072,18.2-18.168,17.6-32.412,8.178-2.436-1.662-4.967-.223-3.488,2.642a21.4,21.4,0,0,0,10.085,10.642c10.1,3.068,10.162,8.307,17.073,14.077,10.041,5.079,10.331-5.831,10.933-12.706a134.677,134.677,0,0,1,11.918-21.975c-4.678-.24-9.337-.855-14.109-.859" transform="translate(-30.4 -456.107)" fill="#ffa994"/>
            <path id="Trazado_154193" data-name="Trazado 154193" d="M356.723,766.681c4.79,7.917,10.144,14.946,7.827,19.271-2.979,5.561-10.066,8.7-19.548,10.247-2.917.434-3.8,3.21-.766,4.308a21.4,21.4,0,0,0,14.63.964c9.5-4.608,13.1-.8,22.092-1.26,10.82-3.091,3.624-11.3-.6-16.751-3.893-6.9-6.376-13.715-9.182-22.652-3.6,3-10.944,2.636-14.449,5.875" transform="translate(-205.238 -456.107)" fill="#ffa994"/>
          </g>
        </g>
        <g id="Grupo_166216" data-name="Grupo 166216" transform="translate(20.308 304.699)">
          <g id="Grupo_166215" data-name="Grupo 166215" clip-path="url(#clip-path-29)">
            <path id="Trazado_154194" data-name="Trazado 154194" d="M69.582,783.182c2.225-1.045,4.685-2.116,7.062-1.489s4.061,3.879,2.336,5.63c9.539,0,6.975,3.439,8.266,5.2,2.1,7.144-.2,19.933-9.928,17.094-2.411-1.081-3.734-3.628-5.158-5.854a33.764,33.764,0,0,0-11.889-11.213c-5.52-3-13.2-5.411-14.626-12.336-.366-1.963.349-4.457,2.3-4.9,7.313.868,12.886,2.868,21.642,7.874" transform="translate(-47.617 -769.5)" fill="#5e2d48"/>
          </g>
        </g>
        <g id="Grupo_166218" data-name="Grupo 166218" transform="translate(137.108 304.699)">
          <g id="Grupo_166217" data-name="Grupo 166217" clip-path="url(#clip-path-30)">
            <path id="Trazado_154196" data-name="Trazado 154196" d="M360.672,817.434c.863-2.006,1.863-4.164,3.8-5.164s5.109.491,5.066,2.674c3.321-7.665,8.231-5.073,10.19-2.822,5.293,3.741,11.541,11.708,5.958,17.6-6.714,4.254-16.807,2.3-24.581,3.658-5.6.38-24.245,1.857-21.67-7.393,6.273-4.053,12.2-4.077,21.233-8.554" transform="translate(-340.458 -790.187)" fill="#5e2d48"/>
          </g>
        </g>
        <g id="Grupo_166220" data-name="Grupo 166220">
          <g id="Grupo_166219" data-name="Grupo 166219" clip-path="url(#clip-path-28)">
            <path id="Trazado_154198" data-name="Trazado 154198" d="M191.56,393.923c-24.426,44.047-42.822,91.434-52.633,140.095,10.773,1.416,21.547,2.832,32.629,1.892,5.112-4.951.735-14.955,5.778-19.975,2.423-2.412,6.284-2.781,8.9-4.983,6.291-5.3,1.9-17.3,9.659-21.79A192.423,192.423,0,0,0,226.527,541c10.477.8,21.067.1,31.028-4.717,2.987-10.666-10.547-16.323-13.965-24.935-2.834-17.105-3.652-22.741-14.678-35.16,4.614-28.714,29.535-53.509,31.493-82.525l-37.347-10.524Z" transform="translate(-83.287 -229.694)" fill="#7576bd"/>
            <path id="Trazado_154199" data-name="Trazado 154199" d="M270.666,521.12a.25.25,0,0,1-.228-.148c-9.92-22.262-5.608-32.493,3.839-54.912,2.932-6.958,6.255-14.844,9.877-24.7a5.24,5.24,0,0,0-2.481-5.16.25.25,0,0,1,.25-.432,5.682,5.682,0,0,1,2.712,5.719c-3.639,9.911-6.964,17.8-9.9,24.765-9.672,22.95-13.674,32.45-3.843,54.515a.25.25,0,0,1-.127.33.246.246,0,0,1-.1.022" transform="translate(-158.739 -261.225)" fill="#373382"/>
            <path id="Trazado_154200" data-name="Trazado 154200" d="M349.742,602.459a.25.25,0,0,1-.205-.107c-2.129-3.061-4.414-6.071-6.791-8.947a.25.25,0,1,1,.385-.318c2.385,2.887,4.679,5.908,6.817,8.98a.25.25,0,0,1-.205.392" transform="translate(-205.443 -355.504)" fill="#373382"/>
            <path id="Trazado_154201" data-name="Trazado 154201" d="M359.214,598.888a.25.25,0,0,1-.249-.235l-.382-6.594a.25.25,0,1,1,.5-.029l.382,6.595a.249.249,0,0,1-.235.264h-.015" transform="translate(-214.971 -354.783)" fill="#373382"/>
            <path id="Trazado_154202" data-name="Trazado 154202" d="M384.038,694.479a.248.248,0,0,1-.187-.085,37.079,37.079,0,0,0-8.629-7.2.249.249,0,1,1,.258-.427,37.548,37.548,0,0,1,8.746,7.294.25.25,0,0,1-.187.415" transform="translate(-224.874 -411.7)" fill="#373382"/>
            <path id="Trazado_154203" data-name="Trazado 154203" d="M226.157,689.767a.243.243,0,0,1-.042,0,.251.251,0,0,1-.205-.288l1.881-11.215a.25.25,0,0,1,.493.083L226.4,689.559a.249.249,0,0,1-.246.208" transform="translate(-135.432 -406.496)" fill="#373382"/>
            <path id="Trazado_154204" data-name="Trazado 154204" d="M262.352,657.457a.25.25,0,0,1-.249-.237l-.34-6.458A.25.25,0,0,1,262,650.5a.245.245,0,0,1,.263.236l.34,6.458a.25.25,0,0,1-.237.262h-.013" transform="translate(-156.928 -389.977)" fill="#373382"/>
            <path id="Trazado_154205" data-name="Trazado 154205" d="M158.9,691.179h-.016a.25.25,0,0,1-.233-.265,237.437,237.437,0,0,1,4.577-33.858.25.25,0,0,1,.489.1,236.972,236.972,0,0,0-4.567,33.787.25.25,0,0,1-.249.234" transform="translate(-95.111 -393.789)" fill="#373382"/>
            <path id="Trazado_154206" data-name="Trazado 154206" d="M334.484,729.733a.25.25,0,0,1-.189-.086,134.429,134.429,0,0,0-15.2-15,.25.25,0,0,1,.322-.383,135.03,135.03,0,0,1,15.26,15.055.25.25,0,0,1-.189.413" transform="translate(-191.243 -428.17)" fill="#373382"/>
            <path id="Trazado_154207" data-name="Trazado 154207" d="M205.65,25.208c-1.51.777-3.887,1.424-4.951-.313a1.547,1.547,0,0,1,.821-2.214c.715.04,1.11-.692.5-1.19-4.393,1.988-9.082-1.031-6.353-2.564,13.83-7.767,2.773-8.349,16.637-16.135,8.992-3.995,26.833-5.219,29.714,6.826,6.261,2.621,1.944,18.53-3.632,20.981Z" transform="translate(-116.817 0)" fill="#a35d53"/>
            <path id="Trazado_154208" data-name="Trazado 154208" d="M245.9,32.068c-3.463,2.209-7.151.755-10.109-1.774a33.348,33.348,0,0,1-10.485.2c-2.432,2.725-2.391,7.017-3.209,10.548a15.587,15.587,0,0,0-2.116,8.279c.422,10.493,1.962,19.213,14.744,13.707.858,1.98,1.717,3.96,2.671,6.06a106.254,106.254,0,0,1,16.347-3.853c-2.511-2.35-6.862-5.4-5-11.2,7.329-3.527,3.3-12.425-1.22-8.614-.3.553-.578,1.549-1.386,1.393-1.4-1.28-.121-4.048.294-5.659-1.288-3.121-1.762-5.23-.532-9.084" transform="translate(-131.879 -18.161)" fill="#ffa38c"/>
            <path id="Trazado_154209" data-name="Trazado 154209" d="M289.157,74.015a.245.245,0,0,1-.107-.024.25.25,0,0,1-.118-.333,6.514,6.514,0,0,1,2.835-2.944.25.25,0,1,1,.232.442,6.013,6.013,0,0,0-2.616,2.717.25.25,0,0,1-.225.142" transform="translate(-173.202 -42.376)" fill="#e04216"/>
            <path id="Trazado_154210" data-name="Trazado 154210" d="M288.34,79.579a.25.25,0,0,1-.084-.485,3.364,3.364,0,0,0,2.159-3.2.25.25,0,1,1,.5-.02,3.829,3.829,0,0,1-2.491,3.687.254.254,0,0,1-.084.014" transform="translate(-172.712 -45.345)" fill="#e04216"/>
            <path id="Trazado_154211" data-name="Trazado 154211" d="M256.9,99.851a.25.25,0,0,1-.083-.485,16.954,16.954,0,0,0,9.035-7.632.25.25,0,1,1,.437.243,17.46,17.46,0,0,1-9.3,7.86.253.253,0,0,1-.083.014" transform="translate(-153.863 -54.918)" fill="#e04216"/>
            <path id="Trazado_154212" data-name="Trazado 154212" d="M285.8,90.108a2.175,2.175,0,0,1-1.33-.442.25.25,0,1,1,.306-.395,1.727,1.727,0,0,0,1.946.067.25.25,0,0,1,.278.415,2.156,2.156,0,0,1-1.2.354" transform="translate(-170.481 -53.487)" fill="#e04216"/>
            <path id="Trazado_154213" data-name="Trazado 154213" d="M234.681,64.04a.25.25,0,0,1-.173-.07,5.163,5.163,0,0,1-1.319-2.092.25.25,0,0,1,.08-.273c2.493-2.023,4.711-4.434,4.067-8.338a.25.25,0,1,1,.493-.081c.674,4.09-1.672,6.693-4.109,8.7a4.662,4.662,0,0,0,1.134,1.728.25.25,0,0,1-.173.43" transform="translate(-139.79 -31.76)" fill="#e04216"/>
            <path id="Trazado_154214" data-name="Trazado 154214" d="M241.7,79.664a.249.249,0,0,1-.2-.1l-.89-1.142a.25.25,0,0,1,.394-.308l.89,1.142a.25.25,0,0,1-.2.4" transform="translate(-144.216 -46.775)" fill="#e04216"/>
            <path id="Trazado_154215" data-name="Trazado 154215" d="M230.8,86.128s1.389-1.427,2.782.722a5.046,5.046,0,0,1,5.264,1.409,5.122,5.122,0,0,1-6.021,2.536c-3.764-1.015-2.024-4.666-2.024-4.666" transform="translate(-138.124 -51.356)" fill="#fa8973"/>
            <path id="Trazado_154216" data-name="Trazado 154216" d="M239.033,89.4a.247.247,0,0,0-.06-.465,39.743,39.743,0,0,0-4.762-.6,1.76,1.76,0,0,1-1.148-.425,8.224,8.224,0,0,0-1.838-.939.248.248,0,0,0-.362.243c.262,3.075,4.014,4.221,8.171,2.184" transform="translate(-138.403 -52.122)" fill="#fff"/>
            <path id="Trazado_154217" data-name="Trazado 154217" d="M233.209,45.128a.249.249,0,0,1-.164-.061,5.173,5.173,0,0,0-4.666-1.055.25.25,0,1,1-.134-.481,5.608,5.608,0,0,1,5.128,1.159.25.25,0,0,1-.164.438" transform="translate(-136.724 -25.979)" fill="#a35d53"/>
            <path id="Trazado_154218" data-name="Trazado 154218" d="M260.806,52.84a.248.248,0,0,1-.2-.1c-2.838-3.787-5.145-3.7-8.342-3.13a.25.25,0,1,1-.087-.492c3.274-.582,5.825-.684,8.828,3.323a.25.25,0,0,1-.2.4" transform="translate(-151.058 -29.268)" fill="#a35d53"/>
            <path id="Trazado_154219" data-name="Trazado 154219" d="M227.742,52.809s.428,4.828,5.849,2.041c0,0-.9-2.531-2.66-2.995a3.637,3.637,0,0,0-3.189.954" transform="translate(-136.532 -31.032)" fill="#fff"/>
            <path id="Trazado_154220" data-name="Trazado 154220" d="M231.717,53.3a1.731,1.731,0,0,1,2.2-1.14,1.876,1.876,0,0,1,.708,2.465,1.731,1.731,0,0,1-2.2,1.139,1.876,1.876,0,0,1-.708-2.464" transform="translate(-138.807 -31.201)" fill="#472136"/>
            <path id="Trazado_154221" data-name="Trazado 154221" d="M232.891,54.983a.249.249,0,0,1-.234-.163c-.69-1.875-1.777-3.083-2.98-3.314a3,3,0,0,0-2.773,1.218.25.25,0,1,1-.372-.334,3.47,3.47,0,0,1,3.238-1.375c1.38.265,2.6,1.589,3.355,3.632a.249.249,0,0,1-.234.336" transform="translate(-135.769 -30.553)" fill="#8c3420"/>
            <path id="Trazado_154222" data-name="Trazado 154222" d="M233.715,52.755a.125.125,0,0,1-.115-.078,3.831,3.831,0,0,0-2.282-2.431,4.4,4.4,0,0,0-3.282.573.125.125,0,0,1-.137-.209,4.589,4.589,0,0,1,3.491-.6,4.065,4.065,0,0,1,2.441,2.576.125.125,0,0,1-.068.163.121.121,0,0,1-.047.009" transform="translate(-136.592 -29.892)" fill="#e04216"/>
            <path id="Trazado_154223" data-name="Trazado 154223" d="M252.543,59.559s.484,5.21,6.607,2.2c0,0-1.015-2.731-3.005-3.232a4.221,4.221,0,0,0-3.6,1.029" transform="translate(-151.401 -35.028)" fill="#fff"/>
            <path id="Trazado_154224" data-name="Trazado 154224" d="M256.982,60.058a1.813,1.813,0,1,1,.787,2.667,1.982,1.982,0,0,1-.787-2.667" transform="translate(-153.937 -35.184)" fill="#472136"/>
            <path id="Trazado_154225" data-name="Trazado 154225" d="M258.409,61.914a.25.25,0,0,1-.233-.16c-.775-2.013-2-3.32-3.358-3.586a3.483,3.483,0,0,0-3.2,1.318.25.25,0,1,1-.364-.342,3.955,3.955,0,0,1,3.661-1.466c1.531.3,2.89,1.72,3.728,3.9a.249.249,0,0,1-.233.34" transform="translate(-150.587 -34.542)" fill="#8c3420"/>
            <path id="Trazado_154226" data-name="Trazado 154226" d="M259.453,59.99a.126.126,0,0,1-.114-.073c-.857-1.874-1.963-2.988-3.286-3.31a4.611,4.611,0,0,0-3.533.846.125.125,0,1,1-.154-.2,4.787,4.787,0,0,1,3.744-.893c1.4.34,2.566,1.5,3.457,3.449a.125.125,0,0,1-.114.177" transform="translate(-151.266 -33.728)" fill="#e04216"/>
            <path id="Trazado_154227" data-name="Trazado 154227" d="M230.717,86.584s-.537-.583-.781-.234.419.958.419.958a1.42,1.42,0,0,1,.006-.6c.083-.2.357-.122.357-.122" transform="translate(-137.815 -51.701)" fill="#c23725"/>
            <path id="Trazado_154228" data-name="Trazado 154228" d="M249.709,91.543s1.118-.3,1.183.23-1.142.6-1.142.6a.767.767,0,0,0,.329-.47c.043-.273-.37-.357-.37-.357" transform="translate(-149.702 -54.83)" fill="#c23725"/>
            <path id="Trazado_154229" data-name="Trazado 154229" d="M193.042,19.772a7.661,7.661,0,0,1-2.544-.494.25.25,0,1,1,.166-.471c4.2,1.483,5.8-.833,8.009-4.04,2.556-3.7,5.736-8.311,14.162-9.768a.25.25,0,1,1,.085.492c-8.219,1.421-11.333,5.934-13.836,9.56-1.776,2.573-3.258,4.72-6.042,4.72" transform="translate(-114.104 -2.995)" fill="#a35d53"/>
            <path id="Trazado_154230" data-name="Trazado 154230" d="M312.876,42.184a.25.25,0,0,1-.187-.415,13.2,13.2,0,0,0,3.286-8.211c.129-3.375-.035-6.842-3.489-8.891a.25.25,0,1,1,.255-.43c3.689,2.189,3.862,5.969,3.733,9.34a13.7,13.7,0,0,1-3.41,8.522.25.25,0,0,1-.187.084" transform="translate(-187.263 -14.509)" fill="#a35d53"/>
            <path id="Trazado_154231" data-name="Trazado 154231" d="M285.472,27.564a.25.25,0,0,1-.161-.44,15.443,15.443,0,0,1,9.843-3.611.256.256,0,0,1,.265.25.25.25,0,0,1-.249.25h-.016a14.939,14.939,0,0,0-9.52,3.493.249.249,0,0,1-.161.059" transform="translate(-170.992 -14.096)" fill="#7d3328"/>
            <path id="Trazado_154232" data-name="Trazado 154232" d="M216.809,37.353h-.022a.25.25,0,0,1-.227-.27,7.636,7.636,0,0,1,5.809-6.651.25.25,0,0,1,.109.487,7.221,7.221,0,0,0-5.421,6.206.249.249,0,0,1-.248.228" transform="translate(-129.828 -18.24)" fill="#7d3328"/>
            <path id="Trazado_154233" data-name="Trazado 154233" d="M251.025,25.1a.25.25,0,0,1-.172-.068,5.541,5.541,0,0,0-3.086-1.462.25.25,0,0,1-.216-.28.253.253,0,0,1,.28-.216,6.052,6.052,0,0,1,3.366,1.595.25.25,0,0,1-.172.431" transform="translate(-148.407 -13.831)" fill="#7d3328"/>
            <path id="Trazado_154234" data-name="Trazado 154234" d="M197.394,31.913a4.447,4.447,0,0,1-1.448-.24.25.25,0,1,1,.162-.473c2.185.749,4.63-.664,6.082-2.4a23.279,23.279,0,0,0,2.116-3.182,27.147,27.147,0,0,1,1.856-2.868c1.431-1.849,3.877-3.625,6.442-3.072a.25.25,0,0,1-.105.488c-2.342-.507-4.6,1.16-5.941,2.889a26.67,26.67,0,0,0-1.821,2.816,23.665,23.665,0,0,1-2.163,3.249,7.274,7.274,0,0,1-5.179,2.789" transform="translate(-117.369 -11.738)" fill="#7d3328"/>
            <path id="Trazado_154235" data-name="Trazado 154235" d="M288.49,60.178a.252.252,0,0,1-.129-.036,7.4,7.4,0,0,1-2.5-2.5.25.25,0,1,1,.428-.258,6.9,6.9,0,0,0,2.329,2.329.25.25,0,0,1-.129.463" transform="translate(-171.355 -34.33)" fill="#7d3328"/>
            <path id="Trazado_154236" data-name="Trazado 154236" d="M298.825,55.141a.247.247,0,0,1-.146-.047,6.1,6.1,0,0,1-2.316-6.184.25.25,0,1,1,.486.114,5.585,5.585,0,0,0,2.122,5.665.25.25,0,0,1-.146.453" transform="translate(-177.584 -29.206)" fill="#7d3328"/>
            <path id="Trazado_154237" data-name="Trazado 154237" d="M304.428,58a.25.25,0,0,1-.125-.466A6.014,6.014,0,0,0,307.2,51.71a.25.25,0,1,1,.5-.063,6.527,6.527,0,0,1-3.139,6.323.252.252,0,0,1-.125.033" transform="translate(-182.356 -30.832)" fill="#7d3328"/>
            <path id="Trazado_154238" data-name="Trazado 154238" d="M286.661,15.148a.25.25,0,0,1-.232-.158,6.294,6.294,0,0,0-5.22-3.89.249.249,0,0,1-.228-.27.253.253,0,0,1,.27-.228,6.8,6.8,0,0,1,5.643,4.205.249.249,0,0,1-.232.341" transform="translate(-168.449 -6.355)" fill="#7d3328"/>
            <path id="Trazado_154239" data-name="Trazado 154239" d="M253.067,12.9a.249.249,0,0,1-.189-.086,11.375,11.375,0,0,0-10.492-3.672.25.25,0,0,1-.091-.491,11.887,11.887,0,0,1,10.96,3.836.249.249,0,0,1-.189.413" transform="translate(-145.135 -5.076)" fill="#7d3328"/>
            <path id="Trazado_154240" data-name="Trazado 154240" d="M16.387,93.574c-1.906-.449-6.42-.232-10.088-.7C4.284,92.615.62,89.644.445,88.358c-.5-3.716-.783-7.01.305-8.661,1.124-1.7,3.243-2.878,7.408-3.435,4,2.05,7.217,5.635,10.9,8.253Z" transform="translate(0 -45.719)" fill="#ffa38c"/>
            <path id="Trazado_154241" data-name="Trazado 154241" d="M14.149,82.748a.257.257,0,0,1-.055-.006L6.27,80.98a.25.25,0,1,1,.109-.487L14.2,82.255a.25.25,0,0,1-.054.493" transform="translate(-3.642 -48.252)" fill="#e04216"/>
            <path id="Trazado_154242" data-name="Trazado 154242" d="M3.38,88.155a.25.25,0,0,1-.076-.012L.845,87.369A.25.25,0,1,1,1,86.892l2.459.775a.25.25,0,0,1-.074.488" transform="translate(-0.402 -52.085)" fill="#e04216"/>
            <path id="Trazado_154243" data-name="Trazado 154243" d="M2.836,94.475a.245.245,0,0,1-.1-.023l-2.1-.975a.25.25,0,1,1,.211-.453l2.1.975a.25.25,0,0,1-.106.476" transform="translate(-0.293 -55.754)" fill="#e04216"/>
            <path id="Trazado_154244" data-name="Trazado 154244" d="M3.022,102.639a.243.243,0,0,1-.115-.028l-1.875-.978a.25.25,0,0,1,.231-.443l1.874.978a.25.25,0,0,1-.116.471" transform="translate(-0.539 -60.647)" fill="#e04216"/>
            <path id="Trazado_154245" data-name="Trazado 154245" d="M18.414,299.508c-3.773-1.681-7.605-1.289-11.768-.326a11,11,0,0,0-1.486,3.5c-1.28.385-3.19,1.579-1.4,3.6-.957.88.1,2.163,1.01,3.318-.2,1.624,1.509.94,1.853,3.4,1.756.941,4.723.036,4.984-.469,3.174-.495,10.693-4.694,10.595-8.513Z" transform="translate(-1.818 -178.864)" fill="#ffa38c"/>
            <path id="Trazado_154246" data-name="Trazado 154246" d="M7.966,310.441a1.008,1.008,0,0,1-.574-.165,1.141,1.141,0,0,1-.4-1.162,2.825,2.825,0,0,1,.481-.991.25.25,0,0,1,.416.277,2.4,2.4,0,0,0-.408.812.651.651,0,0,0,.2.651.867.867,0,0,0,.773-.04,5.1,5.1,0,0,0,2.1-2.59.249.249,0,0,1,.229-.138,10.191,10.191,0,0,0,1.451-.112l.445-.053a.254.254,0,0,1,.227.1,6.252,6.252,0,0,0,6.167,2.279.25.25,0,1,1,.1.488,6.767,6.767,0,0,1-6.58-2.35l-.3.036a12.214,12.214,0,0,1-1.363.116,5.274,5.274,0,0,1-2.274,2.683,1.678,1.678,0,0,1-.687.163" transform="translate(-4.174 -184.005)" fill="#e04216"/>
            <path id="Trazado_154247" data-name="Trazado 154247" d="M7.618,314.731a13.074,13.074,0,0,1-1.825-.127.25.25,0,1,1,.07-.495,12.775,12.775,0,0,0,4.914-.273,2.16,2.16,0,0,0,.763-.311.671.671,0,0,0,.3-.566c-.036-.35-.5-.572-.926-.583a4.279,4.279,0,0,0-.553.028,3.2,3.2,0,0,1-1.045-.026.25.25,0,0,1,.117-.485,2.8,2.8,0,0,0,.885.014,5.34,5.34,0,0,1,.61-.03,1.347,1.347,0,0,1,1.409,1.031,1.158,1.158,0,0,1-.5,1.017,2.611,2.611,0,0,1-.938.4,13.247,13.247,0,0,1-3.282.411" transform="translate(-3.344 -186.971)" fill="#e04216"/>
            <path id="Trazado_154248" data-name="Trazado 154248" d="M9.26,320c-.141,0-.279,0-.415,0a.249.249,0,0,1-.245-.254.257.257,0,0,1,.254-.245,9.332,9.332,0,0,0,5.025-1.024,1.6,1.6,0,0,0,.8-.9.7.7,0,0,0-.128-.565.391.391,0,0,0-.3-.166.25.25,0,0,1,0-.5h0a.876.876,0,0,1,.693.357,1.187,1.187,0,0,1,.219.993,2.051,2.051,0,0,1-1.023,1.2A9.264,9.264,0,0,1,9.26,320" transform="translate(-5.156 -189.65)" fill="#e04216"/>
            <path id="Trazado_154249" data-name="Trazado 154249" d="M13.026,326.31a.25.25,0,0,1-.016-.5,8.626,8.626,0,0,0,3.7-1.149,1.524,1.524,0,0,0,.754-.934.664.664,0,0,0-.182-.546.371.371,0,0,0-.314-.125.25.25,0,0,1-.072-.494.853.853,0,0,1,.743.269,1.17,1.17,0,0,1,.318.978,1.984,1.984,0,0,1-.97,1.268,9.064,9.064,0,0,1-3.948,1.232h-.017" transform="translate(-7.66 -193.372)" fill="#e04216"/>
            <path id="Trazado_154250" data-name="Trazado 154250" d="M24.06,330.265a.25.25,0,0,1-.093-.482c.307-.122.681-.588.644-.8a.636.636,0,0,0-.572-.509.25.25,0,0,1-.238-.261.245.245,0,0,1,.261-.238,1.129,1.129,0,0,1,1.042.926c.089.528-.507,1.173-.952,1.35a.251.251,0,0,1-.093.018" transform="translate(-14.269 -196.62)" fill="#e04216"/>
            <path id="Trazado_154251" data-name="Trazado 154251" d="M126.082,104.218c-4.679-.426-9.273,1.3-13.958,1.65-5.594.423-11.122-1.109-16.632-2.162-8.107-1.55-16.421-2.088-24.367-4.323-8.364-2.282-17.1-7.11-25.91-4.865-7.717-3.346-9.663,4.039-8.04,9.995,2.638,6.34,10.942,5.926,16.168,8.887,4.623,2.64,7.384,7.906,12.185,10.207,5.38,2.578,12.149.86,17.376,3.737,4.546,2.5,7.169,8.108,12.049,9.875C84.1,148.269,68.9,153.805,56.522,163.115c-4.019,3.023-7.81,6.489-12.435,8.467-13.038,4.146-1.572,14.992,7.457,12.852,7.708-.976,14.415-6.121,22.214-6.677,11.146.658,15.926.94,25.432-5.9,3.955-2.323,8.68-4.2,13.143-1.443,5.28,6.963,10.775,14.484,11.31,23.207.415,8.541-4.19,20.109,4.049,26.157,9.5,5.847,19.136-4.884,28.516-5.924,11.209-1.222,20.9,8.376,32.157,9.022,29.692,1.115,9.546-33.925-4.564-54.134-9.8-25.87-18.529-85.819-57.719-64.525" transform="translate(-21.969 -56.162)" fill="#f7d4bc"/>
            <path id="Trazado_154252" data-name="Trazado 154252" d="M226.453,225.251a.248.248,0,0,1-.173-.07L211.129,210.6a24.3,24.3,0,0,0-6.112-4.743c-3.4-1.624-7.347-1.8-11.161-1.96-3.9-.169-7.937-.344-11.5-2.046a.25.25,0,1,1,.215-.451c3.473,1.658,7.456,1.83,11.308,2s7.859.34,11.354,2.009a24.661,24.661,0,0,1,6.243,4.834l15.151,14.584a.25.25,0,0,1-.173.43" transform="translate(-109.237 -120.723)" fill="#d67f5a"/>
            <path id="Trazado_154253" data-name="Trazado 154253" d="M275.672,224.254a.25.25,0,0,1-.169-.066,40.636,40.636,0,0,0-17.015-9.361.25.25,0,1,1,.129-.482,41.137,41.137,0,0,1,17.225,9.476.25.25,0,0,1-.169.433" transform="translate(-154.853 -128.496)" fill="#d67f5a"/>
            <path id="Trazado_154254" data-name="Trazado 154254" d="M381.9,268.355a.249.249,0,0,1-.188-.085l-9.22-10.507a.25.25,0,1,1,.375-.329l9.221,10.507a.25.25,0,0,1-.188.414" transform="translate(-223.275 -154.282)" fill="#d67f5a"/>
            <path id="Trazado_154255" data-name="Trazado 154255" d="M211.723,257.477a.25.25,0,0,1-.224-.139,98.447,98.447,0,0,0-17.641-24.947.25.25,0,0,1,.358-.348,98.959,98.959,0,0,1,17.731,25.073.25.25,0,0,1-.223.361" transform="translate(-116.176 -139.065)" fill="#d67f5a"/>
            <path id="Trazado_154256" data-name="Trazado 154256" d="M208.843,270.715a.249.249,0,0,1-.221-.134,15.557,15.557,0,0,0-11.388-8.063.25.25,0,0,1,.071-.495,16.063,16.063,0,0,1,11.76,8.327.25.25,0,0,1-.221.365" transform="translate(-118.114 -157.083)" fill="#d67f5a"/>
            <path id="Trazado_154257" data-name="Trazado 154257" d="M111.174,296.221h-.018l-8.147-.585a.25.25,0,0,1,.036-.5l8.147.586a.25.25,0,0,1-.018.5" transform="translate(-61.615 -176.935)" fill="#d67f5a"/>
            <path id="Trazado_154258" data-name="Trazado 154258" d="M144.819,164.877a.251.251,0,0,1-.16-.058L138.04,159.3a.25.25,0,0,1,.32-.384l6.62,5.518a.25.25,0,0,1-.16.442" transform="translate(-82.702 -95.237)" fill="#d67f5a"/>
            <path id="Trazado_154259" data-name="Trazado 154259" d="M259.744,332.217a.249.249,0,0,1-.244-.306l3.936-16.995a.25.25,0,0,1,.487.113l-3.936,16.995a.25.25,0,0,1-.243.193" transform="translate(-155.568 -188.678)" fill="#d67f5a"/>
            <path id="Trazado_154260" data-name="Trazado 154260" d="M261.219,118.284a.25.25,0,0,1-.043-.5l12.323-2.162a.25.25,0,1,1,.086.492l-12.323,2.163a.263.263,0,0,1-.043,0" transform="translate(-156.452 -69.316)" fill="#d67f5a"/>
            <path id="Trazado_154261" data-name="Trazado 154261" d="M283.972,126.541a.244.244,0,0,1-.045,0l-10.373-1.874a.25.25,0,1,1,.089-.492l10.373,1.874a.25.25,0,0,1-.044.5" transform="translate(-163.874 -74.439)" fill="#d67f5a"/>
          </g>
        </g>
      </g>
    </g>
    <path id="Trazado_156191" data-name="Trazado 156191" d="M50.578,15,52.555,3.625l3.266.008a4.473,4.473,0,0,1,2.066.52,3.905,3.905,0,0,1,1.488,1.426,4.883,4.883,0,0,1,.688,2.094,6.911,6.911,0,0,1-.016,1.391l-.055.414a6.5,6.5,0,0,1-1.965,4.012A5.558,5.558,0,0,1,54.094,15Zm3.938-9.477L53.2,13.117l.953.008a3.127,3.127,0,0,0,2.535-1.156,5.976,5.976,0,0,0,1.1-3.492l.016-.25A3.151,3.151,0,0,0,57.3,6.25a1.879,1.879,0,0,0-1.539-.719ZM65.492,15a2.281,2.281,0,0,1-.086-.766,2.863,2.863,0,0,1-2.156.922,2.594,2.594,0,0,1-1.84-.723,2.186,2.186,0,0,1-.684-1.746,2.527,2.527,0,0,1,1.16-2.121,5.266,5.266,0,0,1,2.965-.738l1.031.016.109-.508a1.764,1.764,0,0,0,.023-.492.846.846,0,0,0-.277-.574.955.955,0,0,0-.629-.215,1.345,1.345,0,0,0-.875.254,1.231,1.231,0,0,0-.461.777l-2.211.008a2.457,2.457,0,0,1,1.113-1.965,4.312,4.312,0,0,1,2.613-.738,3.117,3.117,0,0,1,2.25.855,2.5,2.5,0,0,1,.68,2.121l-.648,4.047-.039.5a2.412,2.412,0,0,0,.133.938L67.656,15Zm-1.7-1.555a2.017,2.017,0,0,0,1.664-.828l.273-1.461-.766-.008a2.139,2.139,0,0,0-1.758.742,1.292,1.292,0,0,0-.242.633.75.75,0,0,0,.176.668A.891.891,0,0,0,63.8,13.445Zm8.688-6.906-.187,1a3.042,3.042,0,0,1,2.461-1.148,2.028,2.028,0,0,1,1.766.875,3.526,3.526,0,0,1,.414,2.359L76.047,15h-2.2l.906-5.4a2.528,2.528,0,0,0,.016-.555.9.9,0,0,0-1-.82,1.9,1.9,0,0,0-1.555.8L71.156,15h-2.2l1.469-8.453Zm8.992,6.8a1.447,1.447,0,0,0,1.016-.332,1.632,1.632,0,0,0,.531-.926l2.07-.008a3.037,3.037,0,0,1-.559,1.6,3.394,3.394,0,0,1-1.344,1.109,3.847,3.847,0,0,1-1.77.375A3.123,3.123,0,0,1,78.984,14.1a3.965,3.965,0,0,1-.867-2.766l.023-.43.008-.086a5.284,5.284,0,0,1,1.391-3.27,3.761,3.761,0,0,1,2.914-1.16,3.047,3.047,0,0,1,2.27.934A3.3,3.3,0,0,1,85.547,9.7H83.492a1.73,1.73,0,0,0-.3-1.07,1.128,1.128,0,0,0-.891-.422q-1.578-.047-1.914,2.3a7.782,7.782,0,0,0-.086,1.438Q80.383,13.32,81.477,13.344ZM88.273,15H86.055l1.469-8.453h2.219ZM87.781,4.4a1.1,1.1,0,0,1,.344-.867,1.323,1.323,0,0,1,1.734-.039,1.1,1.1,0,0,1,.383.828,1.132,1.132,0,0,1-.324.844,1.215,1.215,0,0,1-.887.375,1.235,1.235,0,0,1-.863-.3A1.091,1.091,0,0,1,87.781,4.4Zm5.844,2.141-.187,1A3.042,3.042,0,0,1,95.9,6.391a2.028,2.028,0,0,1,1.766.875,3.526,3.526,0,0,1,.414,2.359L97.188,15h-2.2l.906-5.4a2.528,2.528,0,0,0,.016-.555.9.9,0,0,0-1-.82,1.9,1.9,0,0,0-1.555.8L92.3,15h-2.2l1.469-8.453Zm5.711,4.227a5.849,5.849,0,0,1,1.277-3.184,3.242,3.242,0,0,1,2.629-1.2,2.37,2.37,0,0,1,2.016.977l.289-.82,2.023.008-1.383,8.164a3.983,3.983,0,0,1-1.437,2.672,4.471,4.471,0,0,1-3,.953,4.168,4.168,0,0,1-1.672-.379,3.575,3.575,0,0,1-1.312-1l1.094-1.344a2.349,2.349,0,0,0,1.844.961,2.166,2.166,0,0,0,1.469-.449A2.4,2.4,0,0,0,104,14.773l.125-.508a2.749,2.749,0,0,1-2.07.891,2.428,2.428,0,0,1-1.961-.918,3.947,3.947,0,0,1-.8-2.348A7.89,7.89,0,0,1,99.336,10.766Zm2.164.927a2.02,2.02,0,0,0,.309,1.178,1.08,1.08,0,0,0,.895.466,1.972,1.972,0,0,0,1.594-.767l.656-3.583a1.3,1.3,0,0,0-1.242-.767,1.728,1.728,0,0,0-1.43.681,3.561,3.561,0,0,0-.734,1.87A8.213,8.213,0,0,0,101.5,11.693ZM114.125,15h-2.219l1.469-8.453h2.219Zm-.492-10.6a1.1,1.1,0,0,1,.344-.867,1.323,1.323,0,0,1,1.734-.039,1.1,1.1,0,0,1,.383.828,1.132,1.132,0,0,1-.324.844,1.215,1.215,0,0,1-.887.375,1.235,1.235,0,0,1-.863-.3A1.091,1.091,0,0,1,113.633,4.4Zm5.844,2.141-.187,1a3.042,3.042,0,0,1,2.461-1.148,2.028,2.028,0,0,1,1.766.875,3.526,3.526,0,0,1,.414,2.359L123.039,15h-2.2l.906-5.4a2.528,2.528,0,0,0,.016-.555.9.9,0,0,0-1-.82,1.9,1.9,0,0,0-1.555.8L118.148,15h-2.2l1.469-8.453Zm13.7-2.07-.367,2.078h1.406L133.93,8.2h-1.406l-.719,4.234a1.077,1.077,0,0,0,.063.609q.109.211.531.227.125.008.672-.039l-.156,1.727a3.706,3.706,0,0,1-1.266.18,1.985,1.985,0,0,1-1.617-.68,2.456,2.456,0,0,1-.437-1.8L130.32,8.2h-1.2l.289-1.656h1.2l.359-2.078Zm4.211,3.016a2.946,2.946,0,0,1,2.289-1.094,2.143,2.143,0,0,1,1.848.9,3.548,3.548,0,0,1,.441,2.379L141.078,15h-2.2l.9-5.358a2.6,2.6,0,0,0,.016-.563.885.885,0,0,0-.984-.868,1.9,1.9,0,0,0-1.562.766L136.18,15h-2.2l2.078-12h2.211Zm9.422,7.672a3.677,3.677,0,0,1-1.965-.543,3.292,3.292,0,0,1-1.277-1.469,4.093,4.093,0,0,1-.328-2.059l.023-.312a5.465,5.465,0,0,1,.719-2.266,4.341,4.341,0,0,1,1.547-1.59,3.827,3.827,0,0,1,2.094-.527,2.924,2.924,0,0,1,2.473,1.2,4.117,4.117,0,0,1,.637,2.962l-.125.962h-5.18a1.814,1.814,0,0,0,.4,1.313,1.521,1.521,0,0,0,1.172.508,2.7,2.7,0,0,0,2.109-.937l1.008,1.25a3.135,3.135,0,0,1-1.375,1.121A4.5,4.5,0,0,1,146.813,15.156Zm.7-6.945a1.565,1.565,0,0,0-1.082.383,3.363,3.363,0,0,0-.848,1.383h3.031l.047-.2a2.071,2.071,0,0,0,.008-.594,1.134,1.134,0,0,0-.383-.707A1.2,1.2,0,0,0,147.516,8.211Zm11.891-1.828a2.4,2.4,0,0,1,1.906.945L162.141,3h2.211l-2.078,12H160.3l.125-.906a2.736,2.736,0,0,1-2.2,1.07,2.433,2.433,0,0,1-1.383-.414,2.607,2.607,0,0,1-.918-1.168,4.7,4.7,0,0,1-.355-1.7,6.4,6.4,0,0,1,.023-.953l.047-.352a6.767,6.767,0,0,1,.723-2.281,3.766,3.766,0,0,1,1.313-1.461A3.094,3.094,0,0,1,159.406,6.383Zm-1.6,4.547a6.326,6.326,0,0,0-.039,1q.078,1.375,1.109,1.4a1.885,1.885,0,0,0,1.617-.875l.6-3.359a1.248,1.248,0,0,0-1.219-.875,1.606,1.606,0,0,0-1.34.621A4.176,4.176,0,0,0,157.8,10.93ZM166.359,15h-2.219l1.469-8.453h2.219Zm-.492-10.6a1.1,1.1,0,0,1,.344-.867,1.323,1.323,0,0,1,1.734-.039,1.1,1.1,0,0,1,.383.828,1.132,1.132,0,0,1-.324.844,1.215,1.215,0,0,1-.887.375,1.235,1.235,0,0,1-.863-.3A1.091,1.091,0,0,1,165.867,4.4Zm7.258,8.219q.125-.625-.867-.906l-.711-.18q-2.523-.7-2.453-2.453a2.428,2.428,0,0,1,1.059-1.949,3.942,3.942,0,0,1,2.457-.738,3.536,3.536,0,0,1,2.313.758,2.5,2.5,0,0,1,.9,1.977l-2.187-.008a.963.963,0,0,0-1.078-1.1,1.552,1.552,0,0,0-.895.258,1.061,1.061,0,0,0-.465.7q-.117.625.945.883l.313.07a6.285,6.285,0,0,1,1.648.59,2.488,2.488,0,0,1,.879.824,2.04,2.04,0,0,1,.285,1.18,2.251,2.251,0,0,1-.52,1.406,3.18,3.18,0,0,1-1.359.93,4.736,4.736,0,0,1-1.816.3,3.568,3.568,0,0,1-2.344-.809,2.607,2.607,0,0,1-.953-2.051l2.078.016a1.142,1.142,0,0,0,1.3,1.227,1.845,1.845,0,0,0,1-.25A.987.987,0,0,0,173.125,12.617Zm6.859.727A1.447,1.447,0,0,0,181,13.012a1.632,1.632,0,0,0,.531-.926l2.07-.008a3.036,3.036,0,0,1-.559,1.6,3.394,3.394,0,0,1-1.344,1.109,3.847,3.847,0,0,1-1.77.375,3.123,3.123,0,0,1-2.437-1.062,3.965,3.965,0,0,1-.867-2.766l.023-.43.008-.086a5.284,5.284,0,0,1,1.391-3.27,3.761,3.761,0,0,1,2.914-1.16,3.047,3.047,0,0,1,2.27.934,3.3,3.3,0,0,1,.824,2.379H182a1.73,1.73,0,0,0-.3-1.07,1.128,1.128,0,0,0-.891-.422q-1.578-.047-1.914,2.3a7.783,7.783,0,0,0-.086,1.438Q178.891,13.32,179.984,13.344Zm9.3-6.953a3.39,3.39,0,0,1,1.926.574A3.234,3.234,0,0,1,192.4,8.5a4.761,4.761,0,0,1,.27,2.176,5.143,5.143,0,0,1-1.4,3.262,3.96,3.96,0,0,1-3.02,1.215,3.38,3.38,0,0,1-1.906-.566,3.222,3.222,0,0,1-1.187-1.527,4.657,4.657,0,0,1-.273-2.156A5.3,5.3,0,0,1,186.3,7.578,3.878,3.878,0,0,1,189.289,6.391Zm-2.227,5.315a1.951,1.951,0,0,0,.352,1.182,1.168,1.168,0,0,0,.945.449,1.712,1.712,0,0,0,1.594-.932,4.646,4.646,0,0,0,.539-2.531,2.122,2.122,0,0,0-.363-1.2,1.149,1.149,0,0,0-.949-.464,1.715,1.715,0,0,0-1.574.924A4.6,4.6,0,0,0,187.063,11.706Zm10.766,4.271h-1.734l6.2-12.352h1.742ZM208.367,15V3.625h3.719a4.317,4.317,0,0,1,2.785.766,2.759,2.759,0,0,1,.934,2.266,2.31,2.31,0,0,1-.453,1.41,2.937,2.937,0,0,1-1.234.949,2.638,2.638,0,0,1,1.457.98,2.814,2.814,0,0,1,.535,1.723,3.042,3.042,0,0,1-.992,2.406,4.1,4.1,0,0,1-2.8.875Zm1.5-5.32v4.094h2.477A2.385,2.385,0,0,0,214,13.23a1.907,1.907,0,0,0,.605-1.5q0-2.055-2.234-2.055Zm0-1.2h2.266a2.375,2.375,0,0,0,1.574-.493,1.654,1.654,0,0,0,.59-1.339,1.626,1.626,0,0,0-.547-1.366,2.686,2.686,0,0,0-1.664-.427h-2.219ZM223.32,15a3.036,3.036,0,0,1-.2-.891,3.225,3.225,0,0,1-2.406,1.047,2.984,2.984,0,0,1-2.051-.707,2.287,2.287,0,0,1-.8-1.793,2.39,2.39,0,0,1,1-2.051,4.733,4.733,0,0,1,2.824-.73h1.406V9.211A1.623,1.623,0,0,0,222.641,8a1.821,1.821,0,0,0-1.336-.449,2.107,2.107,0,0,0-1.3.391,1.151,1.151,0,0,0-.523.945h-1.453a2,2,0,0,1,.449-1.223,3.066,3.066,0,0,1,1.219-.934,4.1,4.1,0,0,1,1.691-.344,3.342,3.342,0,0,1,2.289.73,2.635,2.635,0,0,1,.859,2.012v3.891a4.757,4.757,0,0,0,.3,1.852V15Zm-2.4-1.1a2.54,2.54,0,0,0,1.289-.352,2.127,2.127,0,0,0,.883-.914V10.9h-1.133q-2.656,0-2.656,1.555a1.316,1.316,0,0,0,.453,1.063A1.742,1.742,0,0,0,220.922,13.9Zm7.453,1.1H226.93V6.547h1.445ZM226.813,4.3a.863.863,0,0,1,.215-.594.807.807,0,0,1,.637-.242.819.819,0,0,1,.641.242.854.854,0,0,1,.219.594.826.826,0,0,1-.219.586.834.834,0,0,1-.641.234.821.821,0,0,1-.637-.234A.834.834,0,0,1,226.813,4.3ZM232.258,15h-1.445V3h1.445Zm7.531,0a3.036,3.036,0,0,1-.2-.891,3.225,3.225,0,0,1-2.406,1.047,2.984,2.984,0,0,1-2.051-.707,2.287,2.287,0,0,1-.8-1.793,2.39,2.39,0,0,1,1-2.051,4.733,4.733,0,0,1,2.824-.73h1.406V9.211A1.623,1.623,0,0,0,239.109,8a1.821,1.821,0,0,0-1.336-.449,2.107,2.107,0,0,0-1.3.391,1.151,1.151,0,0,0-.523.945H234.5a2,2,0,0,1,.449-1.223,3.066,3.066,0,0,1,1.219-.934,4.1,4.1,0,0,1,1.691-.344,3.342,3.342,0,0,1,2.289.73,2.635,2.635,0,0,1,.859,2.012v3.891a4.757,4.757,0,0,0,.3,1.852V15Zm-2.4-1.1a2.54,2.54,0,0,0,1.289-.352,2.127,2.127,0,0,0,.883-.914V10.9H238.43q-2.656,0-2.656,1.555a1.316,1.316,0,0,0,.453,1.063A1.742,1.742,0,0,0,237.391,13.9Zm7.25-7.352.047,1.063a3.08,3.08,0,0,1,2.531-1.219q2.68,0,2.7,3.023V15h-1.445V9.406a1.946,1.946,0,0,0-.418-1.352,1.675,1.675,0,0,0-1.277-.437,2.086,2.086,0,0,0-1.234.375,2.546,2.546,0,0,0-.828.984V15h-1.445V6.547ZM251.75,10.7a4.952,4.952,0,0,1,.922-3.129,3.137,3.137,0,0,1,4.766-.168V3h1.445V15h-1.328l-.07-.906a2.943,2.943,0,0,1-2.414,1.063,2.887,2.887,0,0,1-2.395-1.2,5.008,5.008,0,0,1-.926-3.141Zm1.445.164a3.749,3.749,0,0,0,.594,2.25,1.919,1.919,0,0,0,1.641.813,2.109,2.109,0,0,0,2.008-1.234V8.813a2.125,2.125,0,0,0-1.992-1.2,1.929,1.929,0,0,0-1.656.82A4.128,4.128,0,0,0,253.2,10.867Zm7.547-.172a4.993,4.993,0,0,1,.488-2.234A3.643,3.643,0,0,1,262.59,6.93a3.7,3.7,0,0,1,1.988-.539,3.565,3.565,0,0,1,2.793,1.2,4.6,4.6,0,0,1,1.066,3.18v.1a5.036,5.036,0,0,1-.473,2.215,3.589,3.589,0,0,1-1.352,1.527,3.743,3.743,0,0,1-2.02.547,3.556,3.556,0,0,1-2.785-1.2,4.575,4.575,0,0,1-1.066-3.164Zm1.453.172a3.616,3.616,0,0,0,.652,2.258,2.211,2.211,0,0,0,3.5-.012,3.955,3.955,0,0,0,.648-2.418,3.61,3.61,0,0,0-.66-2.254,2.1,2.1,0,0,0-1.754-.863,2.075,2.075,0,0,0-1.727.852A3.925,3.925,0,0,0,262.2,10.867Zm15.523,4.289a3.693,3.693,0,0,1-2.8-1.129,4.19,4.19,0,0,1-1.078-3.02v-.266a5.073,5.073,0,0,1,.48-2.246,3.748,3.748,0,0,1,1.344-1.547,3.378,3.378,0,0,1,1.871-.559A3.166,3.166,0,0,1,280.1,7.477a4.7,4.7,0,0,1,.914,3.109v.6h-5.727a3,3,0,0,0,.73,2.02,2.3,2.3,0,0,0,1.777.77,2.517,2.517,0,0,0,1.3-.312,3.259,3.259,0,0,0,.93-.828l.883.688A3.55,3.55,0,0,1,277.719,15.156Zm-.18-7.578a1.928,1.928,0,0,0-1.469.637A3.1,3.1,0,0,0,275.336,10h4.234V9.891a2.753,2.753,0,0,0-.594-1.707A1.815,1.815,0,0,0,277.539,7.578Zm6.516-1.031.047,1.063a3.08,3.08,0,0,1,2.531-1.219q2.68,0,2.7,3.023V15h-1.445V9.406a1.946,1.946,0,0,0-.418-1.352,1.675,1.675,0,0,0-1.277-.437,2.086,2.086,0,0,0-1.234.375,2.546,2.546,0,0,0-.828.984V15h-1.445V6.547ZM297.047,15H295.6V3h1.445Zm7.531,0a3.036,3.036,0,0,1-.2-.891,3.225,3.225,0,0,1-2.406,1.047,2.984,2.984,0,0,1-2.051-.707,2.288,2.288,0,0,1-.8-1.793,2.39,2.39,0,0,1,1-2.051,4.733,4.733,0,0,1,2.824-.73h1.406V9.211A1.623,1.623,0,0,0,303.9,8a1.821,1.821,0,0,0-1.336-.449,2.108,2.108,0,0,0-1.3.391,1.151,1.151,0,0,0-.523.945h-1.453a2,2,0,0,1,.449-1.223,3.066,3.066,0,0,1,1.219-.934,4.1,4.1,0,0,1,1.691-.344,3.342,3.342,0,0,1,2.289.73,2.635,2.635,0,0,1,.859,2.012v3.891a4.757,4.757,0,0,0,.3,1.852V15Zm-2.4-1.1a2.54,2.54,0,0,0,1.289-.352,2.126,2.126,0,0,0,.883-.914V10.9h-1.133q-2.656,0-2.656,1.555a1.316,1.316,0,0,0,.453,1.063A1.742,1.742,0,0,0,302.18,13.9Zm9.492-3.2a4.952,4.952,0,0,1,.922-3.129,3.137,3.137,0,0,1,4.766-.168V3H318.8V15h-1.328l-.07-.906a2.943,2.943,0,0,1-2.414,1.063,2.887,2.887,0,0,1-2.395-1.2,5.008,5.008,0,0,1-.926-3.141Zm1.445.164a3.749,3.749,0,0,0,.594,2.25,1.92,1.92,0,0,0,1.641.813,2.109,2.109,0,0,0,2.008-1.234V8.813a2.125,2.125,0,0,0-1.992-1.2,1.929,1.929,0,0,0-1.656.82A4.128,4.128,0,0,0,313.117,10.867Zm9.5,4.133h-1.445V6.547h1.445ZM321.055,4.3a.863.863,0,0,1,.215-.594.807.807,0,0,1,.637-.242.819.819,0,0,1,.641.242.854.854,0,0,1,.219.594.826.826,0,0,1-.219.586.834.834,0,0,1-.641.234.821.821,0,0,1-.637-.234A.834.834,0,0,1,321.055,4.3Zm8.8,8.453a1.064,1.064,0,0,0-.441-.91,4.249,4.249,0,0,0-1.539-.559,7.276,7.276,0,0,1-1.742-.562,2.478,2.478,0,0,1-.953-.781,1.869,1.869,0,0,1-.309-1.078,2.193,2.193,0,0,1,.879-1.758,3.432,3.432,0,0,1,2.246-.719,3.532,3.532,0,0,1,2.332.742,2.357,2.357,0,0,1,.895,1.9h-1.453a1.3,1.3,0,0,0-.5-1.023,1.888,1.888,0,0,0-1.27-.43,1.976,1.976,0,0,0-1.234.344,1.082,1.082,0,0,0-.445.9.877.877,0,0,0,.414.789,5.1,5.1,0,0,0,1.5.508,7.8,7.8,0,0,1,1.754.578,2.559,2.559,0,0,1,1,.809,1.988,1.988,0,0,1,.324,1.152,2.163,2.163,0,0,1-.906,1.816,3.8,3.8,0,0,1-2.352.684,4.257,4.257,0,0,1-1.8-.359,2.922,2.922,0,0,1-1.223-1,2.42,2.42,0,0,1-.441-1.395h1.445a1.5,1.5,0,0,0,.582,1.152,2.258,2.258,0,0,0,1.434.426,2.331,2.331,0,0,0,1.316-.332A1.02,1.02,0,0,0,329.852,12.758Zm6.719,1.219a2.082,2.082,0,0,0,1.352-.469,1.649,1.649,0,0,0,.641-1.172h1.367a2.621,2.621,0,0,1-.5,1.383,3.293,3.293,0,0,1-1.23,1.047,3.55,3.55,0,0,1-1.629.391A3.482,3.482,0,0,1,333.824,14a4.59,4.59,0,0,1-1.02-3.152v-.242a5.089,5.089,0,0,1,.453-2.2,3.451,3.451,0,0,1,1.3-1.492,3.7,3.7,0,0,1,2-.531,3.39,3.39,0,0,1,2.363.852,3.043,3.043,0,0,1,1,2.211h-1.367a1.992,1.992,0,0,0-.621-1.348,1.932,1.932,0,0,0-1.379-.527,2.023,2.023,0,0,0-1.707.793,3.724,3.724,0,0,0-.605,2.293v.273a3.65,3.65,0,0,0,.6,2.25A2.033,2.033,0,0,0,336.57,13.977Zm4.6-3.281a4.993,4.993,0,0,1,.488-2.234A3.643,3.643,0,0,1,343.02,6.93a3.7,3.7,0,0,1,1.988-.539,3.565,3.565,0,0,1,2.793,1.2,4.6,4.6,0,0,1,1.066,3.18v.1a5.036,5.036,0,0,1-.473,2.215,3.589,3.589,0,0,1-1.352,1.527,3.743,3.743,0,0,1-2.02.547,3.556,3.556,0,0,1-2.785-1.2,4.575,4.575,0,0,1-1.066-3.164Zm1.453.172a3.616,3.616,0,0,0,.652,2.258,2.211,2.211,0,0,0,3.5-.012,3.955,3.955,0,0,0,.648-2.418,3.61,3.61,0,0,0-.66-2.254,2.1,2.1,0,0,0-1.754-.863,2.075,2.075,0,0,0-1.727.852A3.925,3.925,0,0,0,342.625,10.867Z" transform="translate(617 4069.896)" fill="#777"/>
  </g>
</svg>
