<svg xmlns="http://www.w3.org/2000/svg" xmlns:xlink="http://www.w3.org/1999/xlink" width="295" height="205.938" viewBox="0 0 295 205.938">
  <defs>
    <clipPath id="clip-path">
      <rect id="Rect치ngulo_41153" data-name="Rect치ngulo 41153" width="180" height="179.877" fill="none"/>
    </clipPath>
  </defs>
  <g id="Grupo_165937" data-name="Grupo 165937" transform="translate(-1088 -2468.062)">
    <rect id="Rect치ngulo_41008" data-name="Rect치ngulo 41008" width="295" height="140" rx="9" transform="translate(1088 2534)" fill="#ffbfc1"/>
    <g id="Grupo_165936" data-name="Grupo 165936" transform="translate(1146 2468.062)">
      <g id="Grupo_165936-2" data-name="Grupo 165936" clip-path="url(#clip-path)">
        <path id="Trazado_151483" data-name="Trazado 151483" d="M12.029,130.4A86.522,86.522,0,0,1,.053,85.263c1.3-2.455,3.458-4.2,5.284-6.2A120.084,120.084,0,0,1,19.163,66.318,124.483,124.483,0,0,1,77.619,41.35a132.778,132.778,0,0,1,23.716-1.276,7.436,7.436,0,0,1,3.264.724c.843,1.462.507,3.043.361,4.566A71.049,71.049,0,0,1,97.7,70c-2.2,4.481-4.218,9.047-6.382,13.542a8.878,8.878,0,0,1-1.2,2.108c-1.866,1.108-4.02,1.266-6.064,1.736-5.585,1.289-11.2,2.446-16.767,3.816-7.812,1.925-14.932,5.528-21.828,9.584a86.356,86.356,0,0,0-8.822,6.092,135.087,135.087,0,0,0-15.559,13.913c-2.42,2.581-4.8,5.208-7.045,7.957-.538.661-.884,1.653-2,1.646" transform="translate(0.005 4.408)" fill="#163c64"/>
        <path id="Trazado_151484" data-name="Trazado 151484" d="M81.048,89.936q1.594-3.572,3.187-7.145c2.8-6.241,6.166-12.233,8.259-18.785a58.49,58.49,0,0,0,3.163-18.624c-.409-2.968-.165-5.959-.424-8.947A83.807,83.807,0,0,0,88.53,10.1a74.264,74.264,0,0,0-3.721-7.543C84.373,1.8,83.635.983,84.5.027c4.567.553,9.162.8,13.7,1.717a92.128,92.128,0,0,1,36.82,16.222c1.541,2.495,1.482,5.39,1.912,8.131a131.6,131.6,0,0,1,1.579,25.929,148.5,148.5,0,0,1-13.625,57.179c-1.85,3.968-3.922,7.8-6.033,11.628a7.441,7.441,0,0,1-1.4,1.975c-.806.577-1.422-.033-2.043-.376a89.594,89.594,0,0,1-17.412-12.841c-6.062-5.6-11-12.214-16.46-18.358-.316-.355-.748-.707-.485-1.3" transform="translate(8.921 0.003)" fill="#1f5388"/>
        <path id="Trazado_151485" data-name="Trazado 151485" d="M10.84,123.787a162.4,162.4,0,0,1,16.556-17.4c2.518-2.211,5.041-4.415,7.755-6.389,1.986,1.553,3.283,3.724,4.919,5.585a86.2,86.2,0,0,0,18.444,15.676,86.739,86.739,0,0,0,27.02,11.56,10.45,10.45,0,0,1,2.379,1.025A122.539,122.539,0,0,0,106.3,142.15c10.535,3.916,21.568,5.649,32.569,7.54,1.246.214,2.832-.105,3.521,1.511a88.542,88.542,0,0,1-38.546,16.384C78,171.707,54.548,165.816,33.685,150A85.536,85.536,0,0,1,10.84,123.787" transform="translate(1.194 11.018)" fill="#fec139"/>
        <path id="Trazado_151486" data-name="Trazado 151486" d="M91.694.03c-.3,1.064.518,1.739.939,2.518A83.726,83.726,0,0,1,103.2,43.455c0,.643.278,1.381-.349,1.928a106.742,106.742,0,0,0-26.3.813,123.282,123.282,0,0,0-54.3,21.61c-1.624,1.147-3.233,2.317-4.849,3.476-1.377-1.482-1.046-3.423-1.232-5.159A90.263,90.263,0,0,1,17.886,37.1c.384-1.763,1.032-3.452,1.386-5.221A79.071,79.071,0,0,1,32.258,19.06,85.334,85.334,0,0,1,49.318,8.4,91.763,91.763,0,0,1,74.929.7C80.509-.142,86.1-.006,91.694.03" transform="translate(1.728 0)" fill="#fff"/>
        <path id="Trazado_151487" data-name="Trazado 151487" d="M113.434,121.061A143.68,143.68,0,0,0,131.41,75.034a144.95,144.95,0,0,0,2.578-40.727,153.644,153.644,0,0,0-2.548-18.12A70.414,70.414,0,0,1,143.4,26.574a87.987,87.987,0,0,1,15.24,22.015,90.22,90.22,0,0,1,8.1,26.723,94.462,94.462,0,0,1,.6,18.065A69.808,69.808,0,0,1,163.34,114.4c-3.081,4.625-7.41,7.99-11.615,11.476a51.09,51.09,0,0,1-8.735,6.014,2.231,2.231,0,0,1-.854.014,94.273,94.273,0,0,1-27.092-9.422c-.644-.337-1.424-.554-1.611-1.423" transform="translate(12.499 1.783)" fill="#fed45d"/>
        <path id="Trazado_151488" data-name="Trazado 151488" d="M146.05,120.153l.707.009a46.092,46.092,0,0,1,12.3,1.527,87.991,87.991,0,0,1-24.28,27.292c-1.867-1.173-4.044-1.1-6.1-1.407-16.511-2.439-32.447-6.674-47.2-14.722a3.694,3.694,0,0,1-1.543-1.017c.746-.762,1.632-.434,2.471-.28a90.764,90.764,0,0,0,18.431,1.585,89.439,89.439,0,0,0,43.826-12.453,4.089,4.089,0,0,1,1.39-.534" transform="translate(8.807 13.239)" fill="#f2f2f2"/>
        <path id="Trazado_151489" data-name="Trazado 151489" d="M21,28.715c.9.9.081,1.808-.125,2.594A96.6,96.6,0,0,0,18.3,47.015a89.954,89.954,0,0,0,.829,21.1C12.185,73.641,6.134,80.087.057,86.507A78,78,0,0,1,3.536,61.37a90.85,90.85,0,0,1,16.14-31.09c.421-.537.881-1.045,1.323-1.565" transform="translate(0 3.164)" fill="#f2f2f2"/>
        <path id="Trazado_151490" data-name="Trazado 151490" d="M152.421,123.4a72.159,72.159,0,0,1-12.3-1.525,110.255,110.255,0,0,0,17.1-13.876c1.078-1.1,1.7-2.626,3.17-3.342a78.879,78.879,0,0,1-6.931,16.775c-.344.658-.7,1.312-1.046,1.968" transform="translate(15.44 11.531)" fill="#fec139"/>
        <path id="Trazado_151491" data-name="Trazado 151491" d="M150.394,124.466c-2.337,2.124-5.207,3.375-8,4.687a88.416,88.416,0,0,1-23.524,7.5,89.521,89.521,0,0,1-21.7,1.065c-4.333-.355-8.58-1.22-12.9-1.574l-2.077-.839c-7.992-3.876-14.8-9.4-21.441-15.2a122.556,122.556,0,0,1-17.873-19.842c-.941-1.278-2.156-2.444-2.379-4.151A77.514,77.514,0,0,1,65.65,85.5c6.634-1.42,13.238-2.984,19.855-4.485,6.551,7.49,12.548,15.487,20.2,21.975A95.673,95.673,0,0,0,149.908,124.2a1.827,1.827,0,0,1,.486.266" transform="translate(4.463 8.926)" fill="#fff"/>
        <path id="Trazado_151492" data-name="Trazado 151492" d="M41.363,94.618a129.062,129.062,0,0,0,16.814,20.213,126.228,126.228,0,0,0,23.667,18.132c.423.25.808.563,1.211.846a83.991,83.991,0,0,1-24.919-10.136A85.871,85.871,0,0,1,39.26,108.639c-2.372-2.495-4.837-4.971-6.522-8.049a56.629,56.629,0,0,1,8.625-5.972" transform="translate(3.607 10.425)" fill="#fed45d"/>
      </g>
    </g>
  </g>
</svg>
