<svg id="Grupo_166182" data-name="Grupo 166182" xmlns="http://www.w3.org/2000/svg" xmlns:xlink="http://www.w3.org/1999/xlink" width="339.395" height="275" viewBox="0 0 339.395 275">
  <defs>
    <clipPath id="clip-path">
      <rect id="Rect치ngulo_41291" data-name="Rect치ngulo 41291" width="163.016" height="254.345" fill="none"/>
    </clipPath>
  </defs>
  <g id="Grupo_166021" data-name="Grupo 166021" transform="translate(0 0)">
    <g id="Grupo_166019" data-name="Grupo 166019">
      <rect id="Rect치ngulo_41001" data-name="Rect치ngulo 41001" width="339.395" height="161.069" rx="9" transform="translate(0 113.931)" fill="#6b8dfc"/>
      <g id="Grupo_166180" data-name="Grupo 166180" transform="translate(88)">
        <g id="Grupo_166180-2" data-name="Grupo 166180" clip-path="url(#clip-path)">
          <path id="Trazado_153970" data-name="Trazado 153970" d="M113.274,205.4c.531,2.659-.927,3.689-3.231,4.432-8.084,2.607-16.435,3.6-24.832,4.19a230.231,230.231,0,0,1-39.268-.472,93.947,93.947,0,0,1-19.731-3.831c-2.347-.762-3.428-1.885-3.011-4.325-1.462-3.191-.909-6.6-.577-9.818.537-5.191.42-10.395.746-15.584q1.275-20.33,4.236-40.454a420.548,420.548,0,0,1,14.66-64.617c.9-2.884,1.254-6.064,3.621-8.336a48.933,48.933,0,0,1,13.881-.08A7.181,7.181,0,0,0,65.4,68.279a49.031,49.031,0,0,1,5.861,0,6.873,6.873,0,0,0,5.393-1.75,49.074,49.074,0,0,1,13.877.037c1.2.749,1.443,2.061,1.854,3.257a379.017,379.017,0,0,1,14.351,56.815c2.5,14.047,4.4,28.175,5.588,42.384.6,7.13,1.218,14.274,1.218,21.455,0,3.915.658,7.822.465,11.757-.054,1.106.045,2.237-.735,3.17" transform="translate(13.298 39.706)" fill="#2472b1"/>
          <path id="Trazado_153971" data-name="Trazado 153971" d="M16.292,6.66c1.524-1.412,3.579-1.4,5.409-1.92C27.155,3.19,32.653,1.8,38.134.348c1.2-.488,1.534.315,1.687,1.218C42.3,16.02,51.381,26.2,61.677,35.621a125.255,125.255,0,0,0,11.018,9.05A207.854,207.854,0,0,0,96.416,59.637c5.069,2.794,10.2,5.445,15.5,7.775,1.127.495,2.47.821,2.988,2.2-3.038,8.084-5.826,16.252-8.17,24.568a2.8,2.8,0,0,1-2.319.825c-7.458.062-14.915.1-22.373-.014a4.475,4.475,0,0,1-1.489-.29,7.561,7.561,0,0,0-5.861-1.809,36.61,36.61,0,0,1-5.334,0,7.556,7.556,0,0,0-5.876,1.793c-1.916.594-3.886.344-5.834.355q-8.423.046-16.844,0c-1.248-.008-2.589.2-3.6-.869Q31.732,78.061,26.265,61.952a3.544,3.544,0,0,0-1.826-2c-1.552-.868-3.074-1.788-4.608-2.687a5.459,5.459,0,0,1-.786-3.683c.344-8.829-.834-17.54-1.791-26.287-.639-5.839-1.019-11.725-1.283-17.606a6.747,6.747,0,0,1,.323-3.033" transform="translate(9.531 0.121)" fill="#2472b1"/>
          <path id="Trazado_153972" data-name="Trazado 153972" d="M87.637,205.387c-.177-7.066-.069-14.154-.6-21.193-.887-11.826-1.833-23.642-3.357-35.425A464.512,464.512,0,0,0,73.283,94.1c-2.322-9.154-5.227-18.134-8.169-27.1a2.524,2.524,0,0,1,2.036-.831q4.163-.175,8.328,0a2.466,2.466,0,0,1,2.028.845c15.807,24.874,26.015,51.962,31.785,80.8a264.984,264.984,0,0,1,4.974,48.25c.027,1.82-.7,2.512-2.218,3.119-7.87,3.145-16.13,4.707-24.41,6.2" transform="translate(38.935 39.721)" fill="#1c598a"/>
          <path id="Trazado_153973" data-name="Trazado 153973" d="M55.31,67.006c-6.763,19.185-11.452,38.919-15.169,58.879-1.595,8.564-2.825,17.211-3.8,25.89-1.091,9.7-2.058,19.385-2.569,29.137-.427,8.155-.911,16.3-.967,24.47-8.36-1.527-16.71-3.087-24.644-6.307-1.32-.536-2-1.143-1.978-2.764.67-45.219,11.44-87.619,34.982-126.48.574-.945,1.176-1.873,1.764-2.81A2.188,2.188,0,0,1,44.7,66.2a80.388,80.388,0,0,1,8.829,0,2.239,2.239,0,0,1,1.782.812" transform="translate(3.696 39.72)" fill="#1c598a"/>
          <path id="Trazado_153974" data-name="Trazado 153974" d="M93.736,69.6A267.736,267.736,0,0,1,66.858,55.563C62,52.609,57.284,49.424,52.525,46.311A6.889,6.889,0,0,1,51.344,45c1.016-2.374,3.343-3.444,5.141-4.986,7.453-6.4,14.37-13.241,19.773-21.53A44.359,44.359,0,0,0,82.9,2.3c.182-.972-.043-2.487,1.82-1.958,7.186,1.7,14.313,3.619,21.355,5.846a4.485,4.485,0,0,1,.721,3.415c-1.475,17.424-3.237,34.794-10.029,51.174a6.587,6.587,0,0,1-.369,1.212,41.3,41.3,0,0,1-2.657,7.61" transform="translate(30.701 0.138)" fill="#1c598a"/>
          <path id="Trazado_153975" data-name="Trazado 153975" d="M97.58.474c-1.01.112-1.047.825-1.166,1.648-1.192,8.148-5.1,15.057-9.976,21.481-6.305,8.311-14.107,15.1-22.229,21.537-3.523-1.62-6.149-4.464-9.062-6.872a83.987,83.987,0,0,1-18.183-20.53,39.342,39.342,0,0,1-5.983-15.6C30.872,1.314,30.837.6,29.829.469c1.08-.959,2.141-.208,3.1.16A84.087,84.087,0,0,0,66.877,6.171,95.278,95.278,0,0,0,94.5.728C95.457.394,96.471-.5,97.58.474" transform="translate(17.836 0)" fill="#16456b"/>
          <path id="Trazado_153976" data-name="Trazado 153976" d="M25.823,4.235c1.027,2.765.427,5.7.855,8.552.749,5.005.444,10.17,1.229,15.166,1.4,8.938,1.537,17.9,1.454,26.891Q15.188,47.014,1.013,39.186C.34,38.815-.38,38.568.232,37.5,7.25,25.242,15.281,13.77,25.823,4.235" transform="translate(0 2.546)" fill="#1c598a"/>
          <path id="Trazado_153977" data-name="Trazado 153977" d="M42.364,71.325l-12.382.016c-3.929-2.482-1.115-6.334-1.879-9.468A2.3,2.3,0,0,1,30.1,58.889l26.523.07a2.2,2.2,0,0,1,.818,1.793,84.659,84.659,0,0,1,0,8.662,2.274,2.274,0,0,1-.8,1.808l-14.281.1" transform="translate(16.642 35.4)" fill="#615657"/>
          <path id="Trazado_153978" data-name="Trazado 153978" d="M83.182,71.329,70.79,71.314l-14.268-.1a2.554,2.554,0,0,1-.818-2.061c-.107-2.716-.112-5.433,0-8.148a2.469,2.469,0,0,1,.841-2.048q13.231-.031,26.46-.062a2.346,2.346,0,0,1,2.108,2.688c-.038,2.294-.051,4.594.013,6.89a2.5,2.5,0,0,1-1.946,2.855" transform="translate(33.259 35.404)" fill="#615657"/>
          <path id="Trazado_153979" data-name="Trazado 153979" d="M115.111,37.248a139.94,139.94,0,0,0-12.629-18.565A76.327,76.327,0,0,0,89.231,3.948a177.691,177.691,0,0,1-2.657,26.76c-1.154,6.914-2.33,13.845-4.744,20.512-.989,2.732-2.629,5.4-2.274,8.528a5.215,5.215,0,0,1,2.562-2.312q9.731-5.469,19.441-10.977c4.263-2.314,8.515-4.65,12.8-6.923,1.075-.57,1.472-1.006.753-2.286" transform="translate(47.54 2.373)" fill="#2472b1"/>
          <path id="Trazado_153980" data-name="Trazado 153980" d="M62.392,59.721q-.012,6.129-.026,12.258c-.348,1.644-1.446,2.11-3.009,2.086q-5.235-.082-10.473,0c-1.561.024-2.661-.44-3.011-2.086q-.014-6.132-.026-12.261c.369-1.585,1.413-2.115,2.972-2.091q5.3.084,10.6,0c1.561-.024,2.6.5,2.971,2.091" transform="translate(27.415 34.642)" fill="#feb559"/>
        </g>
      </g>
    </g>
  </g>
</svg>
