<svg xmlns="http://www.w3.org/2000/svg" xmlns:xlink="http://www.w3.org/1999/xlink" width="820" height="229" viewBox="0 0 820 229">
  <defs>
    <clipPath id="clip-path">
      <path id="Trazado_154984" data-name="Trazado 154984" d="M0,0H820V229H0Z" transform="translate(285 3875)" fill="#e8e8e8"/>
    </clipPath>
    <clipPath id="clip-path-2">
      <rect id="Rectángulo_41351" data-name="Rectángulo 41351" width="641.945" height="401.556" fill="none"/>
    </clipPath>
  </defs>
  <g id="Grupo_166754" data-name="Grupo 166754" transform="translate(-285 -3875)">
    <path id="Trazado_151368" data-name="Trazado 151368" d="M0,0H820V229H0Z" transform="translate(285 3875)" fill="#ffbfc1"/>
    <g id="Enmascarar_grupo_202" data-name="Enmascarar grupo 202" clip-path="url(#clip-path)">
      <g id="Grupo_166296" data-name="Grupo 166296" transform="translate(352 3893.944)">
        <g id="Grupo_166296-2" data-name="Grupo 166296" clip-path="url(#clip-path-2)">
          <path id="Trazado_154807" data-name="Trazado 154807" d="M570.424,325.015h45.45a.5.5,0,0,0,0-1h-45.45a.5.5,0,0,0,0,1" fill="#2b244a"/>
          <path id="Trazado_154808" data-name="Trazado 154808" d="M33.412,325.015q89.78.249,179.56.3,89.4.054,178.792-.085,50.448-.08,100.895-.219a.5.5,0,0,0,0-1q-89.88.249-179.76.3-89.368.054-178.736-.085-50.376-.08-100.751-.219a.5.5,0,0,0,0,1" fill="#2b244a"/>
          <path id="Trazado_154809" data-name="Trazado 154809" d="M624.66,108.408c-8.808-4.761-21.468-2.82-30.469.793-9.659,3.877-17.964,10.551-25.251,17.983-12.673,12.929-22.811,28.71-27.2,46.275-1.666,6.673-2.482,13.752-.715,20.4s6.5,12.793,13.079,14.808c7.456,2.284,15.426-1,22.21-4.841a125.838,125.838,0,0,0,52.69-58.285c3.708-8.42,7.671-19.366,3.69-28.356a17.971,17.971,0,0,0-8.037-8.775" fill="#ccb16c"/>
          <path id="Trazado_154810" data-name="Trazado 154810" d="M590.555,212.685A111.107,111.107,0,0,0,567.1,224.372c-6.583,4.387-15.614,10.663-18.78,18.233-2.394,5.724,1.172,10.116,6.421,12.125,10.644,4.075,22.6.925,33.295-3.012a239.2,239.2,0,0,0,32.5-14.806c6.215-3.414,12.33-7.143,17.488-12.009,4.369-4.122,5.913-9.728.131-13.45-6.59-4.242-16.069-4.017-23.606-3.542a85.764,85.764,0,0,0-24,4.774" fill="#ccb16c"/>
          <path id="Trazado_154811" data-name="Trazado 154811" d="M478.759,143.122a10.242,10.242,0,0,0-9.005,5.1c-1.877,3.086-2.375,6.8-2.6,10.407-1.167,18.866,4.753,36.208,13.579,52.923,3.887,7.361,8.536,14.464,14.836,19.9,3.33,2.875,7.784,5.359,11.959,3.972,4.644-1.544,6.574-7.017,7.3-11.857,2.653-17.684-2.044-35.716-9.354-51.749-4.977-10.917-13.73-28.851-26.715-28.7" fill="#ccb16c"/>
          <path id="Trazado_154812" data-name="Trazado 154812" d="M620.595,106.776a263.27,263.27,0,0,0-30.443,30.7,273.3,273.3,0,0,0-25.025,35.047,277.524,277.524,0,0,0-19.262,38.539,273.25,273.25,0,0,0-13.072,41.223,264.619,264.619,0,0,0-6.279,42.446q-.174,2.682-.293,5.367c-.029.643.971.642,1,0a262.493,262.493,0,0,1,5.472-42.753,272.38,272.38,0,0,1,12.162-41.019,275.725,275.725,0,0,1,18.487-38.8,272.572,272.572,0,0,1,24.391-35.557,263.756,263.756,0,0,1,29.632-31.059q1.95-1.736,3.937-3.43c.49-.419-.22-1.123-.707-.707" fill="#2b244a"/>
          <path id="Trazado_154813" data-name="Trazado 154813" d="M530.076,271.351a134.478,134.478,0,0,1,15.845-18.106,121.357,121.357,0,0,1,18.357-14.356,129.908,129.908,0,0,1,21.227-10.871,162.365,162.365,0,0,1,24.359-7.561,224.067,224.067,0,0,1,27.878-4.476q1.86-.186,3.723-.348c.636-.055.642-1.056,0-1a237.63,237.63,0,0,0-28.6,4.138,168.117,168.117,0,0,0-25.012,7.257,133.733,133.733,0,0,0-21.813,10.586,122.689,122.689,0,0,0-18.812,14.05,132.8,132.8,0,0,0-16.186,17.73q-.928,1.216-1.832,2.452c-.381.52.486,1.02.863.505" fill="#2b244a"/>
          <path id="Trazado_154814" data-name="Trazado 154814" d="M475.889,144.219q6.717,14.5,12.6,29.368,5.821,14.743,10.779,29.81,4.947,15.04,9,30.355t7.2,30.858q3.162,15.645,5.381,31.462.282,2.013.549,4.028c.083.628,1.084.637,1,0q-2.1-15.828-5.126-31.511-3.027-15.631-6.984-31.063-3.969-15.476-8.855-30.7T490.762,176.68q-5.736-14.814-12.318-29.281-.838-1.845-1.692-3.685c-.27-.583-1.132-.076-.863.5" fill="#2b244a"/>
          <path id="Trazado_154815" data-name="Trazado 154815" d="M491.378,300.086q.612,10.005,1.223,20.01c1.011,16.558,2.236,33.848,10.553,48.043,4.676,7.982,11.581,13.949,21.943,13.846h12.624c10.362.1,17.267-5.864,21.943-13.846,8.317-14.2,9.542-31.485,10.553-48.043q.612-10.005,1.223-20.01Z" fill="#dec6bd"/>
          <path id="Trazado_154816" data-name="Trazado 154816" d="M492.617,310.733h77.667a.5.5,0,0,0,0-1H492.617a.5.5,0,0,0,0,1" fill="#2b244a"/>
          <path id="Trazado_154817" data-name="Trazado 154817" d="M394.165,174.541,342.111,399.854h4.18L402.9,177.533Z" fill="#d9a389"/>
          <path id="Trazado_154818" data-name="Trazado 154818" d="M445.351,174.541,497.4,399.854h-4.18L436.612,177.533Z" fill="#d9a389"/>
          <rect id="Rectángulo_41348" data-name="Rectángulo 41348" width="132.754" height="5.668" transform="translate(353.092 359.04)" fill="#d9a389"/>
          <path id="Trazado_154819" data-name="Trazado 154819" d="M284.5,247.978l28.389,153.578h-3.333l-36.34-153.578Z" fill="#2b244a"/>
          <path id="Trazado_154820" data-name="Trazado 154820" d="M324.275,247.978l28.389,153.578h-3.333L312.99,247.978Z" fill="#2b244a"/>
          <path id="Trazado_154821" data-name="Trazado 154821" d="M225.681,247.978,197.292,401.556h3.333l36.34-153.578Z" fill="#2b244a"/>
          <path id="Trazado_154822" data-name="Trazado 154822" d="M225.177,261.877l40.357,24.445,11.5,6.966a.5.5,0,0,0,.505-.863L237.182,267.98l-11.5-6.966a.5.5,0,0,0-.505.863" fill="#2b244a"/>
          <path id="Trazado_154823" data-name="Trazado 154823" d="M277.035,259.864l-22.211,13.453L232,287.145l-12.279,7.437a.5.5,0,0,0,.5.864l22.211-13.453,22.829-13.828,12.279-7.438a.5.5,0,0,0-.505-.863" fill="#2b244a"/>
          <path id="Trazado_154824" data-name="Trazado 154824" d="M212.329,150.537s-18.206,69.855-5.045,92.967,77.116,16,89.947,8S269.4,168.837,269.4,168.837Z" fill="#2b244a"/>
          <path id="Trazado_154825" data-name="Trazado 154825" d="M216.45,191.471c.48,8.734,1.657,18,6.138,25.689,3.279,5.628,8.979,9.584,15,11.8a39.44,39.44,0,0,0,13.53,2.316.5.5,0,0,0,0-1,35.626,35.626,0,0,1-21.048-6.436,24.581,24.581,0,0,1-6.12-6.373,37.126,37.126,0,0,1-4.532-11.275,79.612,79.612,0,0,1-1.97-14.723c-.035-.64-1.035-.644-1,0" fill="#8c75b5"/>
          <path id="Trazado_154826" data-name="Trazado 154826" d="M334.366,117.709,358.9,139.253l-7.056,34.324s-29.309,3.447-43.127-28.082,25.65-27.786,25.65-27.786" fill="#e0785e"/>
          <path id="Trazado_154827" data-name="Trazado 154827" d="M413.907,346.71c-.981-3.47-2.376-6.83-3.637-10.2l-15.384-41.183L379.5,254.139q-3.858-10.329-7.717-20.659a186.668,186.668,0,0,0-7.506-18.1c-5.211-10.446-12.9-20.377-23.953-25.007a33.1,33.1,0,0,0-4.11-1.411.46.46,0,0,0-.559.565,5.1,5.1,0,0,0-.817.191c-6.929,2.249-13.578,5.138-16.706,12.181s-2.387,15.233-6.8,21.774c-2.562,3.8,1.533,7.406,5.092,6.695q6.693,18.588,13.388,37.176,7.389,20.514,14.776,41.03l7.389,20.515c2.242,6.226,4.362,12.514,6.8,18.666,3.774,9.511,9.255,19.722,19.662,23.049.2.066.414.121.621.181.707,2.222,2.121,5.688,4.214,6.339,3.126.972,15.951,1.568,23.508-2.829,3.415-1.987,3.222-5.542,1.989-8.842a20.87,20.87,0,0,0,5.73-9.332c.848-3.148.272-6.516-.6-9.609" fill="#8498d9"/>
          <path id="Trazado_154828" data-name="Trazado 154828" d="M343.755,192.936c-4.94-5.619-21.688-4-31.468-4-.293-.49,1.792-21.589.6-27H249.573c-1.606-1.033-5.932-2.277-6.9.033-4.679,11.141-8.737,31.607-11.1,42.327-2.186,9.906.166,19.463,8.068,25.4,7.739,5.813,17.633,7.322,27.013,8.281,1.363.14,2.8.312,4.268.488-.169.223-.344.428-.509.663-2.57,22.511-7.743,49.388-14.493,71.207-4.148,13.408-8.936,28.462-5.777,42.59a26.209,26.209,0,0,0,9.5,15.157c-.526,3.441-.092,7.669,4.773,8.743,8.538,1.883,22.66-.705,24.785-3.291a6.228,6.228,0,0,0,.962-3.984,18.9,18.9,0,0,0,3.139-.948c5.678-2.335,8.108-8.293,9.57-13.805,4.381-16.51,8.2-31.906,11.655-48.6,3.468-16.756,6.911-34.783,12.171-51.039,4.634-14.321,10.622-29.91,6.976-45.141q-.36-1.508-.828-2.986,3.216-1.692,6.425-3.376c-1.217-2.619,6.439-8.5,4.491-10.717" fill="#8498d9"/>
          <path id="Trazado_154829" data-name="Trazado 154829" d="M327.059,257.122a112.906,112.906,0,0,0,4.152-17.069c.5-2.964.9-5.946,1.176-8.939a61.984,61.984,0,0,0,.374-7.41,35.908,35.908,0,0,0-2.6-12.663,26.615,26.615,0,0,0-3.623-6.31,16.2,16.2,0,0,0-3.745-3.641,62.4,62.4,0,0,0-14.542-6.635c-.613-.2-.875.763-.266.964a66.75,66.75,0,0,1,13.446,6,13.927,13.927,0,0,1,3.357,2.783,23.908,23.908,0,0,1,3.9,5.953,34.1,34.1,0,0,1,3.036,12.615,50.528,50.528,0,0,1-.182,6.533c-.226,2.961-.576,5.912-1.03,8.846a114.273,114.273,0,0,1-4.416,18.707c-.2.612.761.874.964.266" fill="#2b244a"/>
          <path id="Trazado_154830" data-name="Trazado 154830" d="M336.506,118.954,330,104.476c-1.976-4.395-3.9-8.821-6.079-13.111C315.774,75.3,304.265,69.641,286.677,70.9c-7.45.535-23,2.524-33.8,5.508-6.836,1.887-12.939,6.344-17.121,10.055-13.542,12.016-31.688,32.274-31.688,32.274,4.121,5,9.272,11.6,13.924,16.193,2.34,2.308,5.134,4.073,7.06,6.791a49.364,49.364,0,0,1,2.593,4.241,6.2,6.2,0,0,0,3.372,3.121,19.815,19.815,0,0,0,3.178.658q1.589.257,3.188.434c.658.072,1.318.112,1.977.163-.547,4.4-.964,7.417-1.783,12.292,4.437.947,21.132,3.24,31.848,3.981,20.877,1.444,41.66-3.09,41.7-3.558.573-7.341,1.249-16.271,1.822-23.612.679-.8,19-16.31,23.565-20.491" fill="#ffeae0"/>
          <path id="Trazado_154831" data-name="Trazado 154831" d="M258,111.118q-5.355,6.9-10.71,13.806c-.39.5.313,1.215.707.707l10.709-13.806c.39-.5-.313-1.215-.706-.707" fill="#2b244a"/>
          <path id="Trazado_154832" data-name="Trazado 154832" d="M286.173,73.345c.319,5.29.451,10.592.518,15.891.08,6.378.052,12.758-.044,19.135q-.154,10.209-.547,20.412c-.247,6.46-.563,12.919-.983,19.371-.353,5.44-.771,10.878-1.361,16.3q-.1.875-.2,1.746c-.074.638.926.633,1,0,.617-5.264,1.046-10.549,1.411-15.836.44-6.364.77-12.735,1.033-19.108q.42-10.2.6-20.41c.116-6.464.164-12.93.108-19.4-.047-5.452-.158-10.9-.442-16.35q-.047-.877-.1-1.754c-.039-.64-1.039-.644-1,0" fill="#2b244a"/>
          <path id="Trazado_154833" data-name="Trazado 154833" d="M209.249,113.6l18.975,19.566c.448.463,1.155-.245.707-.708l-18.975-19.565c-.449-.463-1.155.245-.707.707" fill="#2b244a"/>
          <path id="Trazado_154834" data-name="Trazado 154834" d="M272.488,73.286q.854,4.342,1.6,8.7c.108.633,1.072.365.964-.266q-.746-4.362-1.6-8.705c-.124-.631-1.088-.364-.964.266" fill="#2b244a"/>
          <path id="Trazado_154835" data-name="Trazado 154835" d="M274.7,82.341q6.137-1.578,12.217-3.365a.5.5,0,0,0-.266-.964q-6.079,1.787-12.217,3.365a.5.5,0,0,0,.266.964" fill="#2b244a"/>
          <path id="Trazado_154836" data-name="Trazado 154836" d="M298.359,71.1q-.129,4.908-.138,9.818a.5.5,0,0,0,1,0q.009-4.91.138-9.818a.5.5,0,0,0-1,0" fill="#2b244a"/>
          <path id="Trazado_154837" data-name="Trazado 154837" d="M298.854,80.5q-6.224-1.189-12.4-2.59c-.627-.142-.894.822-.266.964q6.18,1.4,12.4,2.591c.629.121.9-.844.266-.965" fill="#2b244a"/>
          <path id="Trazado_154838" data-name="Trazado 154838" d="M295.356,142.584c-.5-3.846-9.269-14.41-13.238-18.394-3.806-3.821-8.723-6.028-12.545-6.308-6.21-.455-13.222,1.818-18.894,3.4-7.227,2.021-14.361,4.354-21.461,6.78-3.386,1.157-8.668,2.771-12.125,4.041-1.665-1.069-9.4-9.422-11.822-11.984-.906,1.184-6.22,7.65-7.081,8.869-4.04,5.719-8.316,12.118-9.514,19.143A20.442,20.442,0,0,0,210.9,171.924c1.823-.187,22.341-9.5,31.117-14.524a259.173,259.173,0,0,1,25.906-12.96c.091,1.811.493,3.623,1.63,4.465,2.689,1.99,6.078.645,8.821-1.184s2.635-4.087,2.635-4.087c4.3.107,3.96-3.012,3.96-3.012,6.542,5.647,10.885,5.808,10.382,1.962" fill="#e0785e"/>
          <path id="Trazado_154839" data-name="Trazado 154839" d="M424.273,116.977c.393-6.655-4.04-13.462-11.03-13.913-4.664-.3-9.034,2.525-12.994,4.616-4.374,2.31-8.683,4.74-13.028,7.1-6.334,3.446-38.5,18.851-41.807,21.879-5.6,5.124-12.013,11.907-13.015,19.782-.944,7.425,3.883,13.763,10.8,16.038,8.28,2.722,16.611-.89,23.888-4.728,16.137-8.51,30.162-20.18,43.886-32.07,5.75-4.982,12.811-10.462,13.3-18.708" fill="#e0785e"/>
          <path id="Trazado_154840" data-name="Trazado 154840" d="M275.85,218.106a88.164,88.164,0,0,0-5.943,20.466c-.1.629.861.9.964.266a87.225,87.225,0,0,1,5.842-20.227c.25-.586-.611-1.1-.863-.5" fill="#2b244a"/>
          <path id="Trazado_154841" data-name="Trazado 154841" d="M379.72,371.733c8.12,1.412,16.917,1.154,24.453-2.492a24.278,24.278,0,0,0,4.661-2.941c.5-.4-.211-1.107-.708-.707-5.651,4.549-13.312,6.047-20.408,5.929a50.131,50.131,0,0,1-7.732-.753c-.63-.11-.9.854-.266.964" fill="#2b244a"/>
          <path id="Trazado_154842" data-name="Trazado 154842" d="M275.733,135.25a23.384,23.384,0,0,1,4.773,8.414.5.5,0,0,0,.964-.266,24.564,24.564,0,0,0-5.03-8.855c-.412-.5-1.116.215-.707.707" fill="#2b244a"/>
          <path id="Trazado_154843" data-name="Trazado 154843" d="M279.566,132.044a16.265,16.265,0,0,1,4.773,8.414c.126.63,1.09.363.964-.266a17.2,17.2,0,0,0-5.03-8.855c-.459-.452-1.166.254-.707.707" fill="#2b244a"/>
          <path id="Trazado_154844" data-name="Trazado 154844" d="M268.17,145.555a63.54,63.54,0,0,1,5.681-3.594.5.5,0,0,0-.5-.864,63.651,63.651,0,0,0-5.682,3.6.513.513,0,0,0-.179.684.5.5,0,0,0,.684.179" fill="#2b244a"/>
          <path id="Trazado_154845" data-name="Trazado 154845" d="M405.044,105.947s5.058-10.774,11.407-22.278c5.748-10.415,6.9-11.509,8.943-10.916,2.985.865-.223,11.972-1.2,14.687,0,0,6.948-5.383,12.291-7.749,5.373-2.379,12.188-4.948,13.5-3.5,2.264,2.49-.623,4.416-.623,4.416s3.914.225,4.639,2.023a4.166,4.166,0,0,1-1.289,4.423c-.426.252-10.942,5.4-10.942,5.4s11.4-2.635,12.154-2.523a2.478,2.478,0,0,1,2.411,2.1C456.6,94.565,444.28,102,440.8,104.539s-14.232,16.57-22.593,24.564c0,0-11.043-16.567-13.165-23.156" fill="#e0785e"/>
          <path id="Trazado_154846" data-name="Trazado 154846" d="M448.952,80.48c-4.83,4.062-9.5,8.31-14.33,12.372-.493.415.217,1.119.707.707,4.83-4.062,9.5-8.309,14.33-12.372.493-.415-.217-1.119-.707-.707" fill="#2b244a"/>
          <path id="Trazado_154847" data-name="Trazado 154847" d="M430.021,88.665a28.728,28.728,0,0,1,7.551,12.291c.187.614,1.153.352.964-.266a29.758,29.758,0,0,0-7.808-12.732c-.464-.447-1.172.26-.707.707" fill="#2b244a"/>
          <path id="Trazado_154848" data-name="Trazado 154848" d="M423.521,88.923a28.908,28.908,0,0,1-1.231,16.833c-.232.6.734.861.964.266a29.847,29.847,0,0,0,1.231-17.365c-.143-.627-1.107-.362-.964.266" fill="#2b244a"/>
          <path id="Trazado_154849" data-name="Trazado 154849" d="M436.489,96.692a67.635,67.635,0,0,1,6.444-3.83c.571-.3.066-1.161-.505-.863a67.43,67.43,0,0,0-6.444,3.83c-.531.357-.031,1.223.505.863" fill="#2b244a"/>
          <path id="Trazado_154850" data-name="Trazado 154850" d="M199.021,139.685q8.8-3.717,17.707-7.179c.593-.231.335-1.2-.266-.964q-9.027,3.51-17.946,7.28c-.591.249-.081,1.111.5.863" fill="#2b244a"/>
          <path id="Trazado_154851" data-name="Trazado 154851" d="M293.639,70.751c-1.406,2.875-4.863,9.24-7.02,8.542-1.1-.37-7.423-4.635-10.488-7.267,4.217-.539,7.951-.937,10.679-1.138a62.237,62.237,0,0,1,6.829-.137" fill="#e0785e"/>
          <path id="Trazado_154852" data-name="Trazado 154852" d="M294.007,64.543l-.926,7.011-16.95.472L278.148,58Z" fill="#e0785e"/>
          <path id="Trazado_154853" data-name="Trazado 154853" d="M259.848,368.823a74.538,74.538,0,0,0,23.123,2.113,63.588,63.588,0,0,0,6.8-.735c.634-.1.365-1.067-.265-.964a74.552,74.552,0,0,1-23.79-.2,57.173,57.173,0,0,1-5.6-1.178.5.5,0,0,0-.266.964" fill="#2b244a"/>
          <path id="Trazado_154854" data-name="Trazado 154854" d="M286.207,39.647a9.234,9.234,0,1,0,9.234-9.234,9.235,9.235,0,0,0-9.234,9.234" fill="#2b244a"/>
          <path id="Trazado_154855" data-name="Trazado 154855" d="M280.861,61.762A36.84,36.84,0,0,0,297.9,68.624c7.388,1,9.636-4.758,9.243-7.264a161.065,161.065,0,0,0-4.907-19.177c-2.491-7.57-5.4-11.011-14.982-11.688S269.443,33.271,269.8,43.213s8.282,16.483,11.059,18.549" fill="#e0785e"/>
          <path id="Trazado_154856" data-name="Trazado 154856" d="M298.7,27.917a7.126,7.126,0,0,0-3.644.99,13.87,13.87,0,0,0-9.06-3.1c-5.049,0-9.348,2.323-11.051,5.587l-.019.013a.6.6,0,0,0-.1.1,9.031,9.031,0,0,0-8.289,5.178,10.111,10.111,0,0,0,1.555,10.673,10.607,10.607,0,0,0,1.58,1.483,35.857,35.857,0,0,0,4.263,8.45,17.38,17.38,0,0,0,3.355,3.5c.915.7,3.458,2.585,4.853,1.875a7.729,7.729,0,0,0,4.14-5.138,15.616,15.616,0,0,0,.489-10.011c4.544.771,9.434-2.743,11.212-7.2.235.023.473.036.715.036a6.5,6.5,0,0,0,6.749-6.221,6.5,6.5,0,0,0-6.749-6.22" fill="#2b244a"/>
          <path id="Trazado_154857" data-name="Trazado 154857" d="M269.621,48.046a4.323,4.323,0,0,0,2.854,2.865,5.09,5.09,0,0,0,4.551-1.021c.586-.431,1.311-1.069,2.09-.794.391.138.734.4,1.121.562a4.236,4.236,0,0,0,1.043.275,4.677,4.677,0,0,0,3.921-1.3c.458-.452-.249-1.159-.708-.707a3.667,3.667,0,0,1-3.6.909,18.007,18.007,0,0,0-1.788-.771,2.493,2.493,0,0,0-1.646.325c-.557.3-1.024.737-1.557,1.074a3.981,3.981,0,0,1-2.185.635,3.313,3.313,0,0,1-3.135-2.318c-.188-.614-1.154-.352-.964.266" fill="#8c75b5"/>
          <path id="Trazado_154858" data-name="Trazado 154858" d="M274.6,34.328a4.362,4.362,0,0,0,6.535,3.313,4.822,4.822,0,0,0,.819-.639c.287-.271.592-.682,1-.748.426-.069.98.274,1.422.337a3.871,3.871,0,0,0,1.075-.006c1.844-.259,3.181-1.609,4.349-2.949.421-.484-.284-1.194-.707-.707-1,1.145-2.129,2.4-3.706,2.661a2.84,2.84,0,0,1-1.143-.037,6.351,6.351,0,0,0-1.078-.3,2.051,2.051,0,0,0-1.527.661,4.856,4.856,0,0,1-1.552,1.13,3.424,3.424,0,0,1-1.99.133,3.384,3.384,0,0,1-2.5-2.846c-.077-.631-1.078-.638-1,0" fill="#8c75b5"/>
          <path id="Trazado_154859" data-name="Trazado 154859" d="M292.89,38.614a4.516,4.516,0,0,0,4.8,1.949c.625-.151.36-1.115-.266-.964a3.5,3.5,0,0,1-3.676-1.49c-.343-.542-1.208-.041-.863.5" fill="#8c75b5"/>
          <path id="Trazado_154860" data-name="Trazado 154860" d="M277.727,60.921l-.651,4.53s9.288.887,8.945-8.059-8.294,3.529-8.294,3.529" fill="#2b244a"/>
          <path id="Trazado_154861" data-name="Trazado 154861" d="M303.389,46.818s2.9,2.287,4.373,3.674c.843.791.707,1.491.276,1.968a29.282,29.282,0,0,1-2.454,2.24l-3.7-2.414Z" fill="#e0785e"/>
          <path id="Trazado_154862" data-name="Trazado 154862" d="M293.005,52.863a5.676,5.676,0,1,1-5.675-5.675,5.675,5.675,0,0,1,5.675,5.675" fill="#e0785e"/>
          <path id="Trazado_154863" data-name="Trazado 154863" d="M300.6,47.746a1.222,1.222,0,0,0-1.125-.329,1.155,1.155,0,0,0-.763,1.042,4,4,0,0,0,.166,1.421,2.559,2.559,0,0,0,.84,1.428,1.072,1.072,0,0,0,1.678-.835,3.544,3.544,0,0,0-.8-2.727" fill="#2b244a"/>
          <path id="Trazado_154864" data-name="Trazado 154864" d="M301.963,45.173c-.135,1.729-1.75.894-3.408,1.852-1.524.881-2.666,1-2.891.08-.271-1.114.987-2.828,3.324-3.429,2.187-.563,3.074.236,2.975,1.5" fill="#2b244a"/>
          <path id="Trazado_154865" data-name="Trazado 154865" d="M306.061,56.079c-2.147.7-4.4,1.431-4.686,1.547a8.481,8.481,0,0,0,5.3,1.235c-.173-.82-.381-1.755-.612-2.782" fill="#fff"/>
          <path id="Trazado_154866" data-name="Trazado 154866" d="M287.257,65.557a42.273,42.273,0,0,0,5.605,2.738.5.5,0,0,0,.615-.349.513.513,0,0,0-.349-.615,40.551,40.551,0,0,1-5.366-2.637.5.5,0,0,0-.505.863" fill="#2b244a"/>
          <path id="Trazado_154867" data-name="Trazado 154867" d="M286.063,49.981a3.944,3.944,0,0,0-1.646,2.808,3.878,3.878,0,0,0,1.131,3.081.5.5,0,0,0,.707-.707,2.863,2.863,0,0,1,.313-4.319.513.513,0,0,0,.179-.684.5.5,0,0,0-.684-.179" fill="#2b244a"/>
          <path id="Trazado_154868" data-name="Trazado 154868" d="M383.281,377.323s-1.79,10.034.469,24.233h60.835s.346-11.7-6.939-15.409c-3.8-1.936-17.934-6.23-19.707-8.229a24.608,24.608,0,0,1-4.962-5.164c-3.926-5.972-8.888-3.845-10.832,1.372a37.148,37.148,0,0,1-18.864,3.2" fill="#f5e3d9"/>
          <path id="Trazado_154869" data-name="Trazado 154869" d="M383.541,396.661h60.115a.484.484,0,0,0,0-.967H383.541a.484.484,0,0,0,0,.967" fill="#2e1616"/>
          <path id="Trazado_154870" data-name="Trazado 154870" d="M424.094,396.207a19.577,19.577,0,0,1,2.168-6.8,11.45,11.45,0,0,1,5.584-4.647c.577-.218.327-1.154-.258-.934a12.6,12.6,0,0,0-5.964,4.781,19.326,19.326,0,0,0-2.464,7.345c-.113.609.82.87.934.257" fill="#2e1616"/>
          <path id="Trazado_154871" data-name="Trazado 154871" d="M401.9,374.775a32.106,32.106,0,0,0,7.319,7.481,46.93,46.93,0,0,0,9.972,5.191c2.033.829,4.087,1.6,6.126,2.416.579.23.831-.706.258-.934-6.722-2.675-13.732-5.03-19.034-10.175a31.987,31.987,0,0,1-3.8-4.468c-.358-.5-1.2-.021-.836.489" fill="#2e1616"/>
          <path id="Trazado_154872" data-name="Trazado 154872" d="M419.115,386.848c.714-.928,1.535-1.849,2.342-2.726s1.656-1.773,2.558-2.582c.464-.416-.222-1.1-.685-.684-.922.826-1.778,1.73-2.614,2.642s-1.673,1.868-2.437,2.861a.488.488,0,0,0,.174.663.5.5,0,0,0,.662-.174" fill="#2e1616"/>
          <path id="Trazado_154873" data-name="Trazado 154873" d="M413.711,384.024a30.99,30.99,0,0,1,2.373-2.7,21.8,21.8,0,0,1,2.591-2.156.5.5,0,0,0,.173-.662.487.487,0,0,0-.662-.174,23.454,23.454,0,0,0-2.735,2.257,30.4,30.4,0,0,0-2.425,2.746.5.5,0,0,0,0,.685.488.488,0,0,0,.685,0" fill="#2e1616"/>
          <path id="Trazado_154874" data-name="Trazado 154874" d="M408,380.259a28.211,28.211,0,0,1,3.2-2.483,22.613,22.613,0,0,1,3.512-2.047.489.489,0,0,0,.174-.663.5.5,0,0,0-.662-.173,22.911,22.911,0,0,0-3.6,2.106,29.7,29.7,0,0,0-3.315,2.576c-.46.422.226,1.1.685.684" fill="#2e1616"/>
          <path id="Trazado_154875" data-name="Trazado 154875" d="M261.646,375.576a84.031,84.031,0,0,0,.029,25.98h60.834s.346-11.7-6.938-15.409c-3.8-1.936-17.934-6.23-19.707-8.23a24.618,24.618,0,0,1-4.962-5.163c-3.926-5.972-8.888-3.846-10.832,1.371a50.156,50.156,0,0,1-18.424,1.451" fill="#f5e3d9"/>
          <path id="Trazado_154876" data-name="Trazado 154876" d="M261.466,396.661H321.58a.484.484,0,0,0,0-.967H261.466a.484.484,0,0,0,0,.967" fill="#2e1616"/>
          <path id="Trazado_154877" data-name="Trazado 154877" d="M302.019,396.207a19.576,19.576,0,0,1,2.168-6.8,11.45,11.45,0,0,1,5.584-4.647c.577-.218.327-1.154-.257-.934a12.6,12.6,0,0,0-5.965,4.781,19.327,19.327,0,0,0-2.464,7.345c-.113.609.82.87.934.257" fill="#2e1616"/>
          <path id="Trazado_154878" data-name="Trazado 154878" d="M279.823,374.775a32.106,32.106,0,0,0,7.319,7.481,46.93,46.93,0,0,0,9.972,5.191c2.033.829,4.087,1.6,6.126,2.416.579.23.831-.706.258-.934-6.722-2.675-13.732-5.03-19.034-10.175a31.987,31.987,0,0,1-3.8-4.468c-.358-.5-1.2-.021-.836.489" fill="#2e1616"/>
          <path id="Trazado_154879" data-name="Trazado 154879" d="M297.04,386.848c.714-.928,1.535-1.849,2.342-2.726s1.656-1.773,2.558-2.582c.464-.416-.222-1.1-.685-.684-.922.826-1.778,1.73-2.614,2.642s-1.673,1.868-2.437,2.861a.488.488,0,0,0,.174.663.5.5,0,0,0,.662-.174" fill="#2e1616"/>
          <path id="Trazado_154880" data-name="Trazado 154880" d="M291.636,384.024a30.844,30.844,0,0,1,2.374-2.7,21.708,21.708,0,0,1,2.59-2.156.5.5,0,0,0,.173-.662.488.488,0,0,0-.662-.174,23.451,23.451,0,0,0-2.735,2.257,30.555,30.555,0,0,0-2.425,2.746.5.5,0,0,0,0,.685.488.488,0,0,0,.685,0" fill="#2e1616"/>
          <path id="Trazado_154881" data-name="Trazado 154881" d="M285.927,380.259a28.214,28.214,0,0,1,3.2-2.483,22.614,22.614,0,0,1,3.512-2.047.489.489,0,0,0,.174-.663.5.5,0,0,0-.662-.173,22.864,22.864,0,0,0-3.6,2.106,29.7,29.7,0,0,0-3.315,2.576c-.46.422.226,1.1.685.684" fill="#2e1616"/>
          <path id="Trazado_154882" data-name="Trazado 154882" d="M189.806,176.243,137.752,401.556h4.18l56.613-222.321Z" fill="#d9a389"/>
          <path id="Trazado_154883" data-name="Trazado 154883" d="M240.992,176.243l52.054,225.313h-4.18L232.253,179.235Z" fill="#d9a389"/>
          <path id="Trazado_154884" data-name="Trazado 154884" d="M237.155,197.059h8.05a.5.5,0,0,0,0-1h-8.05a.5.5,0,0,0,0,1" fill="#2b244a"/>
          <path id="Trazado_154885" data-name="Trazado 154885" d="M185.735,197.059h8.05a.5.5,0,0,0,0-1h-8.05a.5.5,0,0,0,0,1" fill="#2b244a"/>
          <path id="Trazado_154886" data-name="Trazado 154886" d="M475.349,174.628H149.442a2.485,2.485,0,0,1-2.486-2.485v-.7a2.487,2.487,0,0,1,2.486-2.487H475.349a2.487,2.487,0,0,1,2.486,2.487v.7a2.485,2.485,0,0,1-2.486,2.485" fill="#d9a389"/>
          <rect id="Rectángulo_41349" data-name="Rectángulo 41349" width="265.004" height="21.34" transform="translate(185.249 174.629)" fill="#d9a389"/>
          <path id="Trazado_154887" data-name="Trazado 154887" d="M245.705,196.559v-21.77a.5.5,0,0,0-1,0v21.77a.5.5,0,0,0,1,0" fill="#2b244a"/>
          <path id="Trazado_154888" data-name="Trazado 154888" d="M441.942,197.059h8.05a.5.5,0,0,0,0-1h-8.05a.5.5,0,0,0,0,1" fill="#2b244a"/>
          <path id="Trazado_154889" data-name="Trazado 154889" d="M390.521,197.059h8.05a.5.5,0,0,0,0-1h-8.05a.5.5,0,0,0,0,1" fill="#2b244a"/>
          <path id="Trazado_154890" data-name="Trazado 154890" d="M185.774,175.128H449.739a.5.5,0,0,0,0-1H185.774a.5.5,0,0,0,0,1" fill="#2b244a"/>
          <rect id="Rectángulo_41350" data-name="Rectángulo 41350" width="132.754" height="5.668" transform="translate(149.022 360.742)" fill="#d9a389"/>
          <path id="Trazado_154891" data-name="Trazado 154891" d="M271.575,169.74a4.253,4.253,0,0,1-.073,3.7.512.512,0,0,0,.18.684.505.505,0,0,0,.684-.18,5.322,5.322,0,0,0,.072-4.705.5.5,0,0,0-.684-.179.511.511,0,0,0-.179.684" fill="#2b244a"/>
          <path id="Trazado_154892" data-name="Trazado 154892" d="M390.481,100.1h-79.4a2.281,2.281,0,0,0-2.115,1.427l-27.22,67.432h84.319L392.6,103.236a2.28,2.28,0,0,0-2.115-3.134" fill="#2b244a"/>
          <path id="Trazado_154893" data-name="Trazado 154893" d="M302.6,165.243H250.065a2.44,2.44,0,0,0-2.44,2.44v1.278H302.6Z" fill="#2b244a"/>
          <path id="Trazado_154894" data-name="Trazado 154894" d="M287.365,166.82l10.314-25.6,10.876-26.992q1.388-3.441,2.774-6.883.664-1.65,1.33-3.3A5.346,5.346,0,0,1,315.293,101c.58-.279.073-1.142-.505-.864a5.929,5.929,0,0,0-2.518,2.344,22.4,22.4,0,0,0-1.216,2.892l-2.507,6.221L303.225,124.8q-5.571,13.824-11.141,27.648-2.843,7.051-5.683,14.1c-.241.6.726.856.964.266" fill="#8c75b5"/>
          <path id="Trazado_154895" data-name="Trazado 154895" d="M283.924,165.337a3.365,3.365,0,0,1,.586.135,2.228,2.228,0,0,1,.482.209,3.309,3.309,0,0,1,.923.71c.07.074.137.15.2.229l.048.058c-.022-.028-.023-.028,0,0l.088.123a3.948,3.948,0,0,1,.3.516,2.734,2.734,0,0,1,.17.473c.025.092.045.185.061.28,0,.023.008.047.011.07q-.009-.071,0-.015c.005.054.009.109.012.164a.511.511,0,0,0,.5.5.5.5,0,0,0,.5-.5,4.366,4.366,0,0,0-3.609-3.915.516.516,0,0,0-.615.349.5.5,0,0,0,.349.615" fill="#8c75b5"/>
          <path id="Trazado_154896" data-name="Trazado 154896" d="M340.516,141.942a5.3,5.3,0,0,1-4.492-2.1,5.98,5.98,0,0,1-.476-5.481c1.4-4,5.791-7.246,9.8-7.246a5.3,5.3,0,0,1,4.493,2.095,5.98,5.98,0,0,1,.476,5.481c-1.4,4-5.791,7.246-9.8,7.246m4.829-13.822c-3.615,0-7.586,2.95-8.853,6.576a4.938,4.938,0,0,0,.347,4.572,4.33,4.33,0,0,0,3.677,1.674c3.616,0,7.587-2.95,8.853-6.576a4.936,4.936,0,0,0-.347-4.572,4.329,4.329,0,0,0-3.677-1.674" fill="#8c75b5"/>
          <path id="Trazado_154897" data-name="Trazado 154897" d="M85.788,35.571V153.793a.5.5,0,0,0,1,0V35.571a.5.5,0,0,0-1,0" fill="#2b244a"/>
          <path id="Trazado_154898" data-name="Trazado 154898" d="M56.788,35.571V153.793a.5.5,0,0,0,1,0V35.571a.5.5,0,0,0-1,0" fill="#2b244a"/>
          <path id="Trazado_154899" data-name="Trazado 154899" d="M28.288,35.571V153.793a.5.5,0,0,0,1,0V35.571a.5.5,0,0,0-1,0" fill="#2b244a"/>
          <path id="Trazado_154900" data-name="Trazado 154900" d="M143.4,35.571V153.793a.5.5,0,0,0,1,0V35.571a.5.5,0,0,0-1,0" fill="#2b244a"/>
          <path id="Trazado_154901" data-name="Trazado 154901" d="M114.9,35.571V153.793a.5.5,0,0,0,1,0V35.571a.5.5,0,0,0-1,0" fill="#2b244a"/>
          <path id="Trazado_154902" data-name="Trazado 154902" d="M165.01,153.293H10.029c-1.96,0-3.924.162-5.708-.858a6.735,6.735,0,0,1-3.311-6.007q0-1.179,0-2.358V48.3c0-1.869-.02-3.74,0-5.609a6.638,6.638,0,0,1,6.557-6.618c.289,0,.579,0,.869,0H164.58a7.142,7.142,0,0,1,4.053,1.09,6.769,6.769,0,0,1,2.933,5.819V145.036c0,.546.005,1.093,0,1.639a6.64,6.64,0,0,1-6.556,6.618.5.5,0,0,0,0,1,7.654,7.654,0,0,0,7.556-7.56c.006-.459,0-.918,0-1.377V49.838q0-3.446,0-6.891a7.709,7.709,0,0,0-7.823-7.876c-1.644,0-3.287,0-4.931,0H8.339c-.414,0-.833-.012-1.247.015A7.646,7.646,0,0,0,.01,42.638c-.023,1.722,0,3.447,0,5.17v96.321c0,.78,0,1.56,0,2.34A7.754,7.754,0,0,0,2.8,152.6c2.078,1.683,4.384,1.7,6.846,1.7H165.01a.5.5,0,0,0,0-1" fill="#2b244a"/>
          <path id="Trazado_154903" data-name="Trazado 154903" d="M172.066,94.182H.51a.5.5,0,0,0,0,1H172.066a.5.5,0,0,0,0-1" fill="#2b244a"/>
          <path id="Trazado_154904" data-name="Trazado 154904" d="M172.066,64.626H.51a.5.5,0,0,0,0,1H172.066a.5.5,0,0,0,0-1" fill="#2b244a"/>
          <path id="Trazado_154905" data-name="Trazado 154905" d="M172.066,123.737H.51a.5.5,0,0,0,0,1H172.066a.5.5,0,0,0,0-1" fill="#2b244a"/>
          <path id="Trazado_154906" data-name="Trazado 154906" d="M67.288,76.46h-48a1,1,0,0,1-1-1V41.238a1,1,0,0,1,1-1h48a1,1,0,0,1,1,1V75.46a1,1,0,0,1-1,1" fill="#ccb16c"/>
          <path id="Trazado_154907" data-name="Trazado 154907" d="M30.245,50.667a13.832,13.832,0,0,1,2.914-1.574c.387-.149,1.093-.47,1.4-.052.237.325.151.878.239,1.261.388,1.685,2.325,2.357,3.866,2.086,2.161-.38,3.691-2.257,5.828-2.666a1.818,1.818,0,0,1,.812-.053c.186.083.279.375.4.529a1.568,1.568,0,0,0,.835.559,3.909,3.909,0,0,0,2.376-.349,15.6,15.6,0,0,1,7.757-.953c.63.086.9-.877.266-.965a16.474,16.474,0,0,0-6.895.472,11.843,11.843,0,0,1-2.853.869c-.506.012-.641-.205-.9-.592a1.238,1.238,0,0,0-1.008-.575c-2.289-.16-3.989,1.762-5.986,2.512A3.022,3.022,0,0,1,36.426,51c-.858-.617-.532-1.511-.931-2.343-.457-.953-1.536-.911-2.4-.608A14.053,14.053,0,0,0,29.74,49.8c-.524.364-.025,1.232.505.863" fill="#2b244a"/>
          <path id="Trazado_154908" data-name="Trazado 154908" d="M30.128,66.736a16.7,16.7,0,0,1,5.465-2.858,4.051,4.051,0,0,1,.714-.2c.339-.033.327-.013.3.288-.03.392-.289.767-.332,1.17A1.791,1.791,0,0,0,37.332,66.9a4.3,4.3,0,0,0,2.927-.072L43.738,66c.241-.057,1.012-.349,1.238-.1.079.085.027.423.062.549a.909.909,0,0,0,.319.478,1.629,1.629,0,0,0,1.076.217c.618-.01,1.236-.027,1.854-.04l8.038-.173a.5.5,0,0,0,0-1l-7.42.16-1.854.04a3.641,3.641,0,0,1-.866.018c-.291-.078-.15-.087-.225-.419-.172-.771-.954-.954-1.646-.868a31.525,31.525,0,0,0-3.361.781c-.93.223-2.759,1.011-3.513.109-.535-.638.383-1.579.2-2.333-.237-.962-1.281-.794-2.006-.589a17.948,17.948,0,0,0-6.211,3.2c-.5.4.207,1.1.707.707" fill="#2b244a"/>
          <path id="Trazado_154909" data-name="Trazado 154909" d="M29.778,56.4c-.251.747-.94,1.85-.147,2.517a2.6,2.6,0,0,0,2.2.157c2.682-.618,5.342-1.347,8.01-2.021l-.615-.615A1.7,1.7,0,0,0,40.7,58.554a4.82,4.82,0,0,0,2.034-.3,11.056,11.056,0,0,1,2.242-.381,41.671,41.671,0,0,1,4.343.043l4.8.173c.644.024.643-.976,0-1-2.507-.09-5.018-.234-7.527-.256a16.138,16.138,0,0,0-3.342.265c-.6.121-1.18.36-1.784.457-.519.083-1.543-.085-1.273-.845a.5.5,0,0,0-.615-.615l-6.212,1.568a13.594,13.594,0,0,1-2.519.568c-.3.015-.5.057-.578-.218-.09-.324.374-1.034.477-1.341.206-.612-.76-.874-.964-.266" fill="#2b244a"/>
          <path id="Trazado_154910" data-name="Trazado 154910" d="M108.177,107.348H82.622a1,1,0,0,1-1-1V61.126a1,1,0,0,1,1-1h25.555a1,1,0,0,1,1,1v45.222a1,1,0,0,1-1,1" fill="#ffeae0"/>
          <path id="Trazado_154911" data-name="Trazado 154911" d="M101.621,91.4H89.288a1,1,0,0,1-1-1V68.9a1,1,0,0,1,1-1h12.333a1,1,0,0,1,1,1V90.4a1,1,0,0,1-1,1" fill="#ccb16c"/>
          <path id="Trazado_154912" data-name="Trazado 154912" d="M94.31,97.87a5.5,5.5,0,0,1,1.354-.576,5.284,5.284,0,0,1,.727-.145c.123-.015.547-.107.645,0,.157.176-.352.922-.406,1.114a.852.852,0,0,0,.459,1.1,2.2,2.2,0,0,0,1.282-.118,14.3,14.3,0,0,0,1.35-.474,9.365,9.365,0,0,1,2.794-.807c.639-.04.644-1.04,0-1a9.632,9.632,0,0,0-2.926.79c-.466.183-.934.368-1.415.507q-.206.06-.414.108l-.139.03c-.128-.011-.152.015-.072.077.051.158.124-.139.151-.193.058-.122.125-.238.18-.361a1.186,1.186,0,0,0-1.072-1.805,6.073,6.073,0,0,0-3,.888.5.5,0,0,0,.5.863" fill="#2b244a"/>
          <path id="Trazado_154913" data-name="Trazado 154913" d="M160.843,113.126H132.621a1,1,0,0,1-1-1V74.459a1,1,0,0,1,1-1h28.222a1,1,0,0,1,1,1v37.667a1,1,0,0,1-1,1" fill="#ffeae0"/>
          <path id="Trazado_154914" data-name="Trazado 154914" d="M149.135,99.9h6a1,1,0,0,1,1,1v6a1,1,0,0,1-1,1h-6a1,1,0,0,1-1-1v-6a1,1,0,0,1,1-1" fill="#d9a389"/>
          <path id="Trazado_154915" data-name="Trazado 154915" d="M138.354,82.555a20.9,20.9,0,0,1,2.945-1.092,9.575,9.575,0,0,1,2.65-.525c1.011.012,1.238.727,1.444,1.573a3.132,3.132,0,0,0,.9,1.756c1.119.947,2.76.489,4.022.156l5.954-1.568a.5.5,0,0,0-.266-.964l-6.072,1.6a5.63,5.63,0,0,1-2.29.31c-.9-.145-1.113-.861-1.3-1.639a3.076,3.076,0,0,0-.867-1.73,2.668,2.668,0,0,0-2.1-.45,19.226,19.226,0,0,0-5.517,1.711c-.584.267-.077,1.129.505.863" fill="#2b244a"/>
          <path id="Trazado_154916" data-name="Trazado 154916" d="M138.455,97.535a2.5,2.5,0,0,1,3.2-.254,4.076,4.076,0,0,0,1.677.965,1.479,1.479,0,0,0,1.6-.706c.28-.576-.583-1.084-.863-.5-.23.473-.875.151-1.177-.058a6.068,6.068,0,0,0-1.674-1.02,3.532,3.532,0,0,0-3.472.87.5.5,0,0,0,.707.707" fill="#2b244a"/>
          <path id="Trazado_154917" data-name="Trazado 154917" d="M138.354,91.161a6.886,6.886,0,0,1,2.914-1.212c.538-.013.4.3.3.7a1.459,1.459,0,0,0-.042.881c.314.852,1.313.515,1.944.3a16.211,16.211,0,0,0,2.806-1.3c.107-.062.422-.287.548-.225-.07-.034-.158.243-.191.382a.967.967,0,0,0,.2.862c.476.529,1.295.355,1.881.164,1.054-.344,2.1-.707,3.153-1.059a4.8,4.8,0,0,1,3.332-.335c.6.237.858-.73.265-.964a4.572,4.572,0,0,0-3.01.058c-1.121.33-2.223.737-3.33,1.109-.2.066-1.295.588-1.492.369-.044-.049.156-.449.168-.519a1.021,1.021,0,0,0-.008-.412c-.2-.8-1.147-.721-1.732-.451A29.5,29.5,0,0,1,143.1,90.9c-.057.019-.693.2-.63.28-.05-.064.125-.474.143-.554a1.511,1.511,0,0,0-.04-1.017c-.793-1.675-3.785.129-4.726.691a.5.5,0,0,0,.505.863" fill="#2b244a"/>
          <path id="Trazado_154918" data-name="Trazado 154918" d="M67.288,160.015H22.177a1,1,0,0,1-1-1V107.126a1,1,0,0,1,1-1H67.288a1,1,0,0,1,1,1v51.889a1,1,0,0,1-1,1" fill="#ffeae0"/>
          <path id="Trazado_154919" data-name="Trazado 154919" d="M30.029,120.944a63.7,63.7,0,0,1,6.645-3.42q.888-.392,1.788-.755c.285-.114.57-.229.857-.337.221-.083.544-.267.672-.05s-.184.67-.282.884q-.2.444-.406.888-.432.945-.863,1.888a.515.515,0,0,0,.078.606,2.268,2.268,0,0,0,2.166.324c.976-.258,1.934-.628,2.893-.944,2.057-.679,4.106-1.4,6.178-2.029a8.854,8.854,0,0,1,2.961-.5,9.878,9.878,0,0,1,2.968.948c1.935.713,3.86.03,5.666-.728.584-.246.327-1.214-.266-.965a13.329,13.329,0,0,1-2.8.936,4.761,4.761,0,0,1-2.815-.4,8.034,8.034,0,0,0-2.424-.761,7.947,7.947,0,0,0-2.679.264c-1.919.477-3.793,1.2-5.669,1.817l-2.774.915c-.661.217-2.056.957-2.7.42l.078.606q.559-1.222,1.118-2.443a4.543,4.543,0,0,0,.654-1.8c-.043-1.647-2.054-.826-2.878-.494a64.207,64.207,0,0,0-8.673,4.276.5.5,0,0,0,.5.863" fill="#2b244a"/>
          <path id="Trazado_154920" data-name="Trazado 154920" d="M29.909,130.688q2.812-1.166,5.721-2.073c1.489-.462,3.526-1.311,5.064-.6.761.352,1.055,1.138,1.548,1.759a2.627,2.627,0,0,0,1.911,1,6.552,6.552,0,0,0,2.464-.439q1.53-.492,3.059-.987l6.943-2.241c.61-.2.349-1.163-.266-.965l-6.119,1.975-3.059.988a9.368,9.368,0,0,1-2.738.679c-1.033.005-1.433-.659-1.952-1.431A3.329,3.329,0,0,0,40.845,127c-1.514-.553-3.226-.027-4.7.409a65.787,65.787,0,0,0-6.5,2.311c-.586.243-.329,1.21.266.964" fill="#2b244a"/>
          <path id="Trazado_154921" data-name="Trazado 154921" d="M54.479,138.538l6.84-1.126c.633-.1.365-1.069-.266-.965l-6.84,1.127c-.633.1-.365,1.068.266.964" fill="#2b244a"/>
          <path id="Trazado_154922" data-name="Trazado 154922" d="M46.3,150.011H33.921a1,1,0,0,1-1-1V136.636a1,1,0,0,1,1-1H46.3a1,1,0,0,1,1,1v12.375a1,1,0,0,1-1,1" fill="#d9a389"/>
          <path id="Trazado_154923" data-name="Trazado 154923" d="M398.062,154.847h0a1.681,1.681,0,0,1-1.681-1.681V124.709a1.681,1.681,0,1,1,3.362,0v28.457a1.681,1.681,0,0,1-1.681,1.681" fill="#ffeae0"/>
          <path id="Trazado_154924" data-name="Trazado 154924" d="M403.995,149.7h0a1.681,1.681,0,0,1-1.449-1.884l4.221-32.3a1.681,1.681,0,0,1,3.333.436l-4.221,32.3a1.68,1.68,0,0,1-1.884,1.449" fill="#ffeae0"/>
          <path id="Trazado_154925" data-name="Trazado 154925" d="M406.832,152.738h0a1.681,1.681,0,0,1-1.278-2l6.144-27.786a1.681,1.681,0,0,1,3.282.725l-6.144,27.787a1.682,1.682,0,0,1-2,1.278" fill="#ffeae0"/>
          <path id="Trazado_154926" data-name="Trazado 154926" d="M393.848,141.555l1.657,27.406h14.8l1.657-27.406a.775.775,0,0,0-.774-.822H394.622a.775.775,0,0,0-.774.822" fill="#2b244a"/>
          <path id="Trazado_154928" data-name="Trazado 154928" d="M158.628,401.553c2.342-.03,3.936-1.978,4.959-3.88a35.2,35.2,0,0,0,3.133-10.068c.484-2.525.843-5.073,1.145-7.626.074-.638-.927-.632-1,0a79.993,79.993,0,0,1-2.143,11.871c-.7,2.551-1.582,5.464-3.463,7.421a3.729,3.729,0,0,1-2.631,1.282.5.5,0,0,0,0,1" fill="#2b244a"/>
          <path id="Trazado_154929" data-name="Trazado 154929" d="M158.628,400.553H123.32a.5.5,0,0,0,0,1h35.308a.5.5,0,0,0,0-1" fill="#2b244a"/>
          <path id="Trazado_154930" data-name="Trazado 154930" d="M174.089,316.45H107.858a.5.5,0,0,0,0,1h66.231a.5.5,0,0,0,0-1" fill="#2b244a"/>
          <path id="Trazado_154931" data-name="Trazado 154931" d="M107.358,316.95q1.271,12.631,2.67,25.25c.835,7.583,1.685,15.164,2.5,22.749q.8,7.514,1.559,15.03c.064.634,1.064.641,1,0q-1.271-12.631-2.67-25.25c-.835-7.583-1.685-15.164-2.5-22.749q-.8-7.514-1.559-15.03c-.064-.634-1.064-.641-1,0" fill="#2b244a"/>
          <path id="Trazado_154932" data-name="Trazado 154932" d="M123.32,400.553c-2.106-.027-3.438-2.067-4.285-3.747a36.253,36.253,0,0,1-2.863-9.568c-.457-2.4-.8-4.828-1.089-7.259-.074-.631-1.075-.639-1,0a78.856,78.856,0,0,0,2.323,12.651c.761,2.64,1.76,5.681,3.837,7.6a4.6,4.6,0,0,0,3.077,1.318.5.5,0,0,0,0-1" fill="#2b244a"/>
          <path id="Trazado_154934" data-name="Trazado 154934" d="M123.5,316.95q1.058,16.119,2.114,32.238,1.132,17.259,2.264,34.519.567,8.634,1.132,17.268c.042.639,1.043.643,1,0q-1.056-16.119-2.114-32.238-1.131-17.259-2.263-34.519-.567-8.634-1.133-17.268c-.042-.639-1.042-.644-1,0" fill="#2b244a"/>
          <path id="Trazado_154935" data-name="Trazado 154935" d="M157.442,316.95q-1.058,16.119-2.114,32.238-1.133,17.259-2.264,34.519-.565,8.634-1.132,17.268c-.043.642.958.64,1,0q1.056-16.119,2.114-32.238,1.131-17.259,2.264-34.519.565-8.634,1.132-17.268c.042-.643-.958-.64-1,0" fill="#2b244a"/>
          <path id="Trazado_154936" data-name="Trazado 154936" d="M116.185,390.171h49.6a.5.5,0,0,0,0-1h-49.6a.5.5,0,0,0,0,1" fill="#2b244a"/>
          <path id="Trazado_154937" data-name="Trazado 154937" d="M510.478,91.452H402.772s-7.3,15.9-9.252,15.9c-1.445,0-.359-15.9-.359-15.9h-6.147a1.946,1.946,0,0,1-1.933-2.174l9.082-77.541a1.947,1.947,0,0,1,1.934-1.721H519.56a1.947,1.947,0,0,1,1.934,2.174l-9.082,77.541a1.947,1.947,0,0,1-1.934,1.721" fill="#fc5f65"/>
          <path id="Trazado_154938" data-name="Trazado 154938" d="M515.589,17.086a3,3,0,1,1-3-3,3,3,0,0,1,3,3" fill="#fff"/>
          <path id="Trazado_154939" data-name="Trazado 154939" d="M505.589,17.086a3,3,0,1,1-3-3,3,3,0,0,1,3,3" fill="#fff"/>
          <path id="Trazado_154940" data-name="Trazado 154940" d="M437.9,23.712a17.007,17.007,0,0,0-4.821,12.48c.081,1.975.49,4.072-.387,5.844-.778,1.573-1.61,1.7-3.172,4.174a8.961,8.961,0,0,0-.688,7.29,5.581,5.581,0,0,0,3.613,3.379c1.435.612,16.951,2.792,17.492-5.438S452,38.455,451.806,36.463Z" fill="#2b244a"/>
          <path id="Trazado_154941" data-name="Trazado 154941" d="M439.947,46.471a4.872,4.872,0,0,1-.159-3.872,21.178,21.178,0,0,0,.864-3.978,23.961,23.961,0,0,0-.259-4.048,4.083,4.083,0,0,1,1-3.6c.481-.429-.228-1.134-.708-.707-2.318,2.066-.869,5.489-1.015,8.12-.155,2.806-2.21,5.888-.583,8.587a.5.5,0,0,0,.863-.505" fill="#8c75b5"/>
          <path id="Trazado_154942" data-name="Trazado 154942" d="M478.358,35.748c-.658-.608-1.437-1.085-2.034-1.752-1.766-1.972-1.511-4.953-2.019-7.551a12.1,12.1,0,0,0-2.523-5.347c-1.436-1.745-3.33-3.049-4.92-4.655s-2.923-3.709-2.762-5.963c0,0-4.959-1.734-5.335,3.517a30.442,30.442,0,0,0,.514,5.651,36.317,36.317,0,0,0-4.59.351c-1.046,3.859-2.087,8.006-.759,11.777.7,1.983,2.016,3.724,2.54,5.76.592,2.3-.242,5.353-.04,7.717.333,3.917,2.666,6.25,6.092,6.793,6.661,1.055,16.441-2.187,18.869-6.259,1.878-3.477-.389-7.6-3.033-10.039" fill="#2b244a"/>
          <path id="Trazado_154943" data-name="Trazado 154943" d="M422.746,91.452s-.79-28.485,4.273-38.254,29.4-13.862,29.4-13.862,19.344-2.9,29.521,4.361c8.921,6.362,10.632,15.264,12.494,29.314,1.529,11.537,2.535,18.441,2.535,18.441Z" fill="#ffc37a"/>
          <path id="Trazado_154944" data-name="Trazado 154944" d="M395.313,74.016l6.681,9.944L416.24,73.011l-9.308-11.23Z" fill="#ffa58f"/>
          <path id="Trazado_154945" data-name="Trazado 154945" d="M400.294,82.658l15.947-9.647,15.947,18.358H405.849Z" fill="#ffc37a"/>
          <path id="Trazado_154946" data-name="Trazado 154946" d="M452.932,43.133q.481,18.317,2.17,36.574.48,5.178,1.058,10.346c.07.632,1.071.639,1,0q-2.033-18.21-2.859-36.527-.234-5.195-.369-10.393a.5.5,0,0,0-1,0" fill="#2b244a"/>
          <path id="Trazado_154947" data-name="Trazado 154947" d="M446.722,41.358c-.285,2.443-.558,4.888-.84,7.332a5.276,5.276,0,0,0-.082,1.594,1.093,1.093,0,0,0,1.24.931c.725-.118,1.3-.848,1.8-1.33q.865-.837,1.691-1.713a53.487,53.487,0,0,0,3.579-4.232c.39-.512-.478-1.01-.864-.5a51.1,51.1,0,0,1-3.6,4.217q-.89.935-1.824,1.823c-.131.125-.792.887-1,.744-.173-.12-.039-.7-.019-.874.31-2.662.605-5.325.916-7.987.075-.638-.926-.633-1,0" fill="#2b244a"/>
          <path id="Trazado_154948" data-name="Trazado 154948" d="M463.537,38.813c.321,2.733.689,5.461,1.034,8.19q.115.914.229,1.828c.026.212.054.424.077.637.046.44.1.88-.48.726a7.893,7.893,0,0,1-2.173-1.407q-1.145-.822-2.269-1.672c-1.7-1.281-3.372-2.6-4.979-3.993-.484-.42-1.2.285-.707.707,1.55,1.344,3.162,2.615,4.794,3.857q1.279.972,2.583,1.913a10.066,10.066,0,0,0,2.321,1.507c.812.281,1.712.107,1.9-.836a6.066,6.066,0,0,0-.124-1.872c-.2-1.587-.4-3.172-.6-4.758-.2-1.608-.416-3.216-.605-4.827-.074-.632-1.075-.639-1,0" fill="#2b244a"/>
          <path id="Trazado_154949" data-name="Trazado 154949" d="M437.857,66.46c-.675,2.4-1.366,4.8-2.022,7.211a18.531,18.531,0,0,0-.879,7.013,7.827,7.827,0,0,0,7.265,6.524c.644.024.643-.976,0-1a6.921,6.921,0,0,1-4.335-1.964,6.186,6.186,0,0,1-2.007-4.729,22.814,22.814,0,0,1,1.143-6.379q.9-3.206,1.8-6.41a.5.5,0,0,0-.964-.266" fill="#2b244a"/>
          <path id="Trazado_154950" data-name="Trazado 154950" d="M464.143,87.657a11.351,11.351,0,0,0,14.109-6.512c.249-.592-.718-.851-.964-.266a10.492,10.492,0,0,1-12.879,5.814c-.614-.2-.877.766-.266.964" fill="#2b244a"/>
          <path id="Trazado_154951" data-name="Trazado 154951" d="M477.323,70.031q-.193,10.524.229,21.054c.026.642,1.026.645,1,0q-.422-10.518-.229-21.054a.5.5,0,0,0-1,0" fill="#2b244a"/>
          <path id="Trazado_154952" data-name="Trazado 154952" d="M439.971,86.649v4a.5.5,0,0,0,1,0v-4a.5.5,0,0,0-1,0" fill="#2b244a"/>
          <path id="Trazado_154953" data-name="Trazado 154953" d="M422.732,81.6q3.9,4.963,7.857,9.879c.4.5,1.107-.211.707-.708q-3.958-4.916-7.857-9.878c-.4-.506-1.1.206-.707.707" fill="#2b244a"/>
          <path id="Trazado_154954" data-name="Trazado 154954" d="M405.408,89.626q8-4.929,16.121-9.645a.5.5,0,0,0-.505-.864Q412.9,83.832,404.9,88.763c-.547.337-.045,1.2.5.863" fill="#2b244a"/>
          <path id="Trazado_154955" data-name="Trazado 154955" d="M402.353,58.673a30.062,30.062,0,0,0-8.708-2.44c-1.319-.172-2.635-.375-3.959-.515-2.732-.289-6.282-.518-6.685.716-.881,2.705,4.549,4.033,4.549,4.033-7.584-.17-13.02.232-13.943,1.849-.449.786-.413,1.858.736,2.114a2.771,2.771,0,0,0-1.484.675c-.707.62-1.162,2.647,2.374,3.129,0,0-2.038.7-2.1,1.864-.074,1.432,1.119,2.072,3.47,2.257,2.463.194,18.318,2.482,20.834,2.2,10.794-1.21,11.315-9.368,11.315-9.368-.823-2.938-2.648-4.765-6.4-6.514" fill="#ffa58f"/>
          <path id="Trazado_154956" data-name="Trazado 154956" d="M374.343,64.93l11.853.03a.5.5,0,0,0,0-1l-11.853-.03a.5.5,0,0,0,0,1" fill="#2b244a"/>
          <path id="Trazado_154957" data-name="Trazado 154957" d="M375.055,68.767l11.853.03a.5.5,0,0,0,0-1l-11.853-.03a.5.5,0,0,0,0,1" fill="#2b244a"/>
          <path id="Trazado_154958" data-name="Trazado 154958" d="M387.315,61.078a11.516,11.516,0,0,0,7.866,5.518c.629.111.9-.853.266-.965a10.56,10.56,0,0,1-7.27-5.058.5.5,0,0,0-.862.5" fill="#2b244a"/>
          <path id="Trazado_154959" data-name="Trazado 154959" d="M461.692,38.861,453.3,45.482l-4.01-4.251-2.918-11.984,10.078-5.955Z" fill="#ffa58f"/>
          <path id="Trazado_154960" data-name="Trazado 154960" d="M462.975,9.007c-1.766-8.342-9.087-9.432-16.636-6.8s-9.173,6.127-9.608,12.958.24,13.417.87,15.708c1.263,4.6,4.13,8,9.853,5.571,5.874-2.493,8.062-6.519,10.479-9.629,1.8-2.318,6.808-9.471,5.042-17.813" fill="#ffa58f"/>
          <path id="Trazado_154961" data-name="Trazado 154961" d="M438.919,20.984a.948.948,0,0,0-.781-.458.892.892,0,0,0-.767.638,3.1,3.1,0,0,0-.142,1.1,1.976,1.976,0,0,0,.361,1.228A.828.828,0,0,0,439,23.176a2.738,2.738,0,0,0-.085-2.192" fill="#2b244a"/>
          <path id="Trazado_154962" data-name="Trazado 154962" d="M445.377,20.984a.948.948,0,0,0-.781-.458.892.892,0,0,0-.767.638,3.1,3.1,0,0,0-.142,1.1,1.976,1.976,0,0,0,.361,1.228.828.828,0,0,0,1.414-.311,2.738,2.738,0,0,0-.085-2.192" fill="#2b244a"/>
          <path id="Trazado_154963" data-name="Trazado 154963" d="M463.475,7.95c-2.2-8.242-10.653-9.47-18.059-6.439-6.156,2.52-9.464,6.07-8.465,11.159a7.518,7.518,0,0,1,4.537-2.407,5.775,5.775,0,0,0,2.268,3.71,8.154,8.154,0,0,0,2.134.792c2.87.729,3.754,1.478,5.39,3.74l0-.007a7.948,7.948,0,0,0,.98,1.708c1.378,1.842-2.314,8.867,6.86,11.02.568.134,6.227-6.081,6.806-6.11,2.667-3.188-.974-11.618-2.454-17.166" fill="#2b244a"/>
          <path id="Trazado_154964" data-name="Trazado 154964" d="M475.059,38.6c-2.441-1.8-3.05-4.834-3.96-7.563a24.053,24.053,0,0,0-1.824-4.376,16.853,16.853,0,0,0-3-3.626,14.591,14.591,0,0,1-3.016-3.609A19.457,19.457,0,0,1,462,14.576a11.974,11.974,0,0,0-4.171-6.847c-1.169-.959-2.515-1.674-3.664-2.653a10.041,10.041,0,0,1-3.007-4.27c-.214-.6-1.18-.342-.964.266a10.861,10.861,0,0,0,2.492,3.993,21.729,21.729,0,0,0,3.254,2.486,11.609,11.609,0,0,1,4.9,6.5,45.2,45.2,0,0,0,1.244,5.193,11.382,11.382,0,0,0,2.644,3.674,24.493,24.493,0,0,1,3.245,3.539,19.473,19.473,0,0,1,2.094,4.646c.542,1.613,1.01,3.268,1.677,4.835a8.311,8.311,0,0,0,2.809,3.526c.519.383,1.018-.485.505-.863" fill="#8c75b5"/>
          <path id="Trazado_154965" data-name="Trazado 154965" d="M455.592,20.917a4.137,4.137,0,1,1-5.065-2.926,4.135,4.135,0,0,1,5.065,2.926" fill="#ffa58f"/>
          <path id="Trazado_154966" data-name="Trazado 154966" d="M440.9,21.734q-.4.84-.793,1.681c-.264.562-.561,1.118-.79,1.695a1.009,1.009,0,0,0,.583,1.436,2.868,2.868,0,0,0,1.7-.19.515.515,0,0,0,.349-.615.5.5,0,0,0-.615-.349,2.941,2.941,0,0,1-.638.181,2.427,2.427,0,0,1-.308.023,1.587,1.587,0,0,1-.193-.008c-.03-.011-.036-.011-.019,0s.01.009-.039-.021a.824.824,0,0,0,.067.076c.019.008,0,0,0-.032l.023-.085a4.563,4.563,0,0,1,.26-.581l1.275-2.7a.514.514,0,0,0-.179-.684.5.5,0,0,0-.684.179" fill="#2b244a"/>
          <path id="Trazado_154967" data-name="Trazado 154967" d="M451.847,20.535a2.018,2.018,0,0,1,.258-.012c.035,0,.071.007.107.007s.028,0-.026-.006l.063.011a2.028,2.028,0,0,1,.23.056c.041.013.081.028.122.043-.067-.024-.021-.009.019.009a1.9,1.9,0,0,1,.207.115c.036.023.071.048.107.072-.071-.049.008.008.033.03a1.807,1.807,0,0,1,.152.151c.022.024.083.1.031.031.026.035.05.07.073.107s.039.063.056.095c.008.013.068.131.044.081s.02.053.024.065c.015.042.028.085.04.128s.022.087.03.131c0,.013.019.133.012.066s0,.075.005.09c0,.038,0,.075,0,.112s0,.09-.006.135c-.008.142.021-.095-.005.045-.014.073-.03.146-.051.218-.013.043-.028.085-.043.127-.047.132.045-.078-.02.045a2.569,2.569,0,0,1-.137.232.5.5,0,0,0,.18.684.513.513,0,0,0,.684-.18,2.371,2.371,0,0,0-2.191-3.688.512.512,0,0,0-.5.5.5.5,0,0,0,.5.5" fill="#2b244a"/>
          <path id="Trazado_154968" data-name="Trazado 154968" d="M448.6,37.055a15.22,15.22,0,0,0,3.354-2.314.5.5,0,1,0-.707-.707,14.181,14.181,0,0,1-3.152,2.158.5.5,0,1,0,.505.863" fill="#2b244a"/>
          <path id="Trazado_154969" data-name="Trazado 154969" d="M439.719,28.7l5.04-.891a2.62,2.62,0,0,1-5.04.891" fill="#ffeae0"/>
          <path id="Trazado_154970" data-name="Trazado 154970" d="M442.548,18.629c.338,1.3,1.452.441,2.843.944,1.278.462,2.163.4,2.208-.333.054-.884-1.135-2.015-2.993-2.154-1.74-.13-2.3.6-2.058,1.543" fill="#2b244a"/>
          <path id="Trazado_154971" data-name="Trazado 154971" d="M440.056,18.76c-.26,1.31-1.42.52-2.78,1.1a3.72,3.72,0,0,1-.68.24,2.075,2.075,0,0,1,.02-2.39,4.205,4.205,0,0,1,1.3-.37c1.73-.23,2.33.46,2.14,1.42" fill="#2b244a"/>
          <path id="Trazado_154972" data-name="Trazado 154972" d="M442.055,10.023a10.129,10.129,0,0,1,3.425-5.377,17.863,17.863,0,0,1,6.4-3.6c.61-.2.349-1.162-.266-.964a19.049,19.049,0,0,0-6.839,3.86,11.018,11.018,0,0,0-3.682,5.818c-.128.628.836.9.964.266" fill="#8c75b5"/>
          <path id="Trazado_154973" data-name="Trazado 154973" d="M445.1,4.1a11.046,11.046,0,0,0,3.6,7.224,29.725,29.725,0,0,0,4.084,2.4,10.8,10.8,0,0,1,3.3,3.141,13.131,13.131,0,0,1,1.785,4.294,17.274,17.274,0,0,0,1.487,4.451,17.938,17.938,0,0,0,2.64,3.126,6.84,6.84,0,0,1,1.749,3.2,18.666,18.666,0,0,0,1.052,3.505A8.129,8.129,0,0,0,467.68,38.8c.533.362,1.034-.5.505-.864-2.155-1.465-2.875-3.663-3.435-6.079a7.364,7.364,0,0,0-1.328-2.979c-.852-1.1-1.959-1.981-2.777-3.107-1.787-2.458-1.668-5.764-3.1-8.412a11.872,11.872,0,0,0-2.6-3.269,18.774,18.774,0,0,0-3.791-2.36,8.694,8.694,0,0,1-3.531-3.241A10.2,10.2,0,0,1,446.1,4.1c-.054-.637-1.055-.642-1,0" fill="#8c75b5"/>
          <path id="Trazado_154974" data-name="Trazado 154974" d="M417.5,34.745H383.777a5.832,5.832,0,0,0-5.815,5.815v3.267a5.832,5.832,0,0,0,5.815,5.815H417.5a5.832,5.832,0,0,0,5.814-5.815V40.56a5.832,5.832,0,0,0-5.814-5.815" fill="#ffeae0"/>
          <path id="Trazado_154975" data-name="Trazado 154975" d="M423.315,40.559V32.671a1,1,0,0,0-1.357-.934L414.1,34.744Z" fill="#ffeae0"/>
          <path id="Trazado_154976" data-name="Trazado 154976" d="M391.682,41.27a.924.924,0,0,0,0,1.846.924.924,0,0,0,0-1.846" fill="#2b244a"/>
          <path id="Trazado_154977" data-name="Trazado 154977" d="M400.657,41.27a.924.924,0,0,0,0,1.846.924.924,0,0,0,0-1.846" fill="#2b244a"/>
          <path id="Trazado_154978" data-name="Trazado 154978" d="M409.631,41.27a.924.924,0,0,0,0,1.846.924.924,0,0,0,0-1.846" fill="#2b244a"/>
          <path id="Trazado_154979" data-name="Trazado 154979" d="M320.375,38.853H354.1a5.832,5.832,0,0,0,5.815-5.814V29.771a5.832,5.832,0,0,0-5.815-5.815H320.375a5.832,5.832,0,0,0-5.815,5.815v3.268a5.832,5.832,0,0,0,5.815,5.814" fill="#ffeae0"/>
          <path id="Trazado_154980" data-name="Trazado 154980" d="M314.56,33.039v7.888a1,1,0,0,0,1.358.934l7.856-3.008Z" fill="#ffeae0"/>
          <path id="Trazado_154981" data-name="Trazado 154981" d="M346.193,32.328a.924.924,0,0,0,0-1.846.924.924,0,0,0,0,1.846" fill="#2b244a"/>
          <path id="Trazado_154982" data-name="Trazado 154982" d="M337.219,32.328a.924.924,0,0,0,0-1.846.924.924,0,0,0,0,1.846" fill="#2b244a"/>
          <path id="Trazado_154983" data-name="Trazado 154983" d="M328.244,32.328a.924.924,0,0,0,0-1.846.924.924,0,0,0,0,1.846" fill="#2b244a"/>
        </g>
      </g>
    </g>
  </g>
</svg>
