<svg xmlns="http://www.w3.org/2000/svg" xmlns:xlink="http://www.w3.org/1999/xlink" width="400" height="393.075" viewBox="0 0 400 393.075">
  <defs>
    <clipPath id="clip-path">
      <rect id="Rectángulo_36082" data-name="Rectángulo 36082" width="400" height="377" transform="translate(1020 1606)" fill="#fff" stroke="#707070" stroke-width="1"/>
    </clipPath>
  </defs>
  <g id="Grupo_157074" data-name="Grupo 157074" transform="translate(-285 -994)">
    <g id="Enmascarar_grupo_145" data-name="Enmascarar grupo 145" transform="translate(-735 -612)" clip-path="url(#clip-path)">
      <path id="Trazado_125318" data-name="Trazado 125318" d="M504.883,356.4c4.009-33.733,22.561-63.912,31.206-96.764,6.474-24.6,7.29-50.267,10.474-75.5s9.137-51,24.26-71.445c20.155-27.252,56.321-41.658,89.693-35.728s62.361,31.914,71.893,64.442c12.293,41.946-6.36,86.455-5.328,130.154.572,24.259,7.224,47.9,11.238,71.834s5.216,49.4-4.558,71.608c-13.065,29.688-44.156,48.511-76.069,54.314-31.752,5.773-64.953.116-96.453-4.958-25.336-4.082-42.263-33.911-50.169-55.943A114.631,114.631,0,0,1,504.883,356.4Z" transform="translate(920.764 1173.566) rotate(40)" fill="#e1e8ff"/>
    </g>
    <g id="Grupo_157023" data-name="Grupo 157023" transform="translate(133.183 -94.829)">
      <g id="Grupo_165920" data-name="Grupo 165920" transform="translate(151.817 1090.617)">
        <g id="Grupo_165921" data-name="Grupo 165921">
          <g id="Grupo_165922" data-name="Grupo 165922">
            <path id="Trazado_151373" data-name="Trazado 151373" d="M144.039,348.494s40.677,8.2,73.947-8.033l11.08-139.618L189.5,160.584l-39.148-8.317-21.561,78.5Z" transform="translate(14.783 17.477)" fill="#fafbfd"/>
            <path id="Trazado_151374" data-name="Trazado 151374" d="M153.629,152.267s5.662,139.385,4.177,208.388l-30.127-3.576a31.093,31.093,0,0,1-27.416-31.78l3.118-107.323,3.417-46.4a10.548,10.548,0,0,1,6.574-9.021,158.024,158.024,0,0,1,40.257-10.291" transform="translate(11.507 17.477)" fill="#fca428"/>
            <path id="Trazado_151375" data-name="Trazado 151375" d="M61.945,289.644,51.168,308.55s-21.179,1.328-40.683,10.535a2.636,2.636,0,0,0,1.887,4.905L26.912,319.6A230.326,230.326,0,0,0,1.658,331.809a3.294,3.294,0,0,0,2.827,5.93l23.5-9.127L6.04,340.733A3.64,3.64,0,0,0,9.381,347.2l21.251-10.257L14.069,348.579a4.211,4.211,0,0,0,4.75,6.954c6.518-4.3,22.939-14.356,33.6-14.072a50.975,50.975,0,0,1-7.03,8.37,4.75,4.75,0,0,0,5.956,7.368l12.518-8.652a12.321,12.321,0,0,0,4.874-6.865L72.9,326.561l18.15-17.17Z" transform="translate(0 33.246)" fill="#fc9753"/>
            <path id="Trazado_151376" data-name="Trazado 151376" d="M121.541,160.931S115.728,160.6,96.693,185C77.1,210.124,43.049,322.259,43.049,322.259l34.2,25.97L135.32,221.834Z" transform="translate(4.941 18.472)" fill="#fca428"/>
            <line id="Línea_475" data-name="Línea 475" y1="44.023" x2="20.225" transform="translate(113.668 254.168)" fill="none" stroke="#d3750d" stroke-linecap="round" stroke-linejoin="round" stroke-width="1.748"/>
            <path id="Trazado_151377" data-name="Trazado 151377" d="M209.775,162.723s29.988,9.349,41.275,119.982l-24.36,17.26Z" transform="translate(24.078 18.677)" fill="#fca428"/>
            <path id="Trazado_151378" data-name="Trazado 151378" d="M301.61,240.145s-10.945-8.43-.764-22.535l15.27-22.017a3.959,3.959,0,0,1,6.907,3.731l-4.709,13.033,28.96-19.607a4.291,4.291,0,0,1,5.232,6.8l-18.65,14.473.363,1.143,21.407-12.2a4.134,4.134,0,0,1,3.459,7.51l-20.673,13.242.3,1.453,20.171-8.636c4.994-2.4,6.55-.054,7.042,1.795.459,1.726-3.3,4.076-4.992,4.639L340.07,233.52l.227,1.348,19.349-7.427a2.979,2.979,0,0,1,.935,5.884l-22.076,9.4s-20.161,13.761-29.3,6Z" transform="translate(34.034 22.027)" fill="#fc9753"/>
            <path id="Trazado_151379" data-name="Trazado 151379" d="M316.215,210.25s6.372,11.377-1.408,21.5" transform="translate(36.134 24.133)" fill="none" stroke="#e07832" stroke-linecap="round" stroke-linejoin="round" stroke-width="1.6"/>
            <path id="Trazado_151380" data-name="Trazado 151380" d="M273.307,238.32l33.226-14.013L320.9,244.453,283.649,264.5Z" transform="translate(31.37 25.746)" fill="#fc9753"/>
            <path id="Trazado_151381" data-name="Trazado 151381" d="M215.213,258.585l83.993-33.963,16.809,36.4-73.308,48.425a25.525,25.525,0,0,1-34.053-7.207c-8.817-12.562-6.994-36.454,6.559-43.654" transform="translate(23.329 25.782)" fill="#fca428"/>
            <line id="Línea_476" data-name="Línea 476" x1="10.199" y2="4.124" transform="translate(260.457 271.382)" fill="none" stroke="#d3750d" stroke-linecap="round" stroke-linejoin="round" stroke-width="1.748"/>
            <path id="Trazado_151382" data-name="Trazado 151382" d="M183.251,160.325s9.711,11.387,13.682,60.547,5.3,133.21,5.3,133.21a35.941,35.941,0,0,0,28.73-36.306c-1.106-36.4-3.727-95.72-9.454-120.807l-5.336-27.233c-.294-1.289-1.547-5.161-1.547-5.161s-4.3-3.918-31.012-10.045Z" transform="translate(21.034 17.737)" fill="#fca428"/>
            <path id="Trazado_151383" data-name="Trazado 151383" d="M226.836,316.406s.259-69.8-8.094-120.564" transform="translate(25.107 22.479)" fill="none" stroke="#d3750d" stroke-linecap="round" stroke-linejoin="round" stroke-width="1.748"/>
            <path id="Trazado_151384" data-name="Trazado 151384" d="M145.861,109.064s-9.57,15.469,4.483,15a15.482,15.482,0,0,0,4.543-13.9Z" transform="translate(16.377 12.518)" fill="#793625"/>
            <path id="Trazado_151385" data-name="Trazado 151385" d="M227.383,73.271a24.669,24.669,0,0,0-2.921-9.214c-20.234-37.4-64.235-7.55-64.235-7.55l7.705,26.206c18.344-11.1,40.168-15.627,59.45-9.442" transform="translate(18.391 5.191)" fill="#793625"/>
            <path id="Trazado_151386" data-name="Trazado 151386" d="M167.139,80.3l8.6,34s53.8-15.451,50.852-43.442c-19.282-6.185-38.373-8.816-59.45,9.442" transform="translate(19.184 7.602)" fill="#6b2a1d"/>
            <path id="Trazado_151387" data-name="Trazado 151387" d="M190.159,107.191a11.032,11.032,0,1,0,7.89-13.458,11.031,11.031,0,0,0-7.89,13.458" transform="translate(21.785 10.717)" fill="#e8803a"/>
            <path id="Trazado_151388" data-name="Trazado 151388" d="M185.492,129.826l2.033,32.773a15.2,15.2,0,0,1-26.222,9.488l-13.171-13.933,3.918-57.188Z" transform="translate(17.003 11.589)" fill="#fc9753"/>
            <path id="Trazado_151389" data-name="Trazado 151389" d="M184.919,143.681s-21.445-.92-23.044-22.542l22.039,6.372Z" transform="translate(18.58 13.904)" fill="#2f1a2a"/>
            <path id="Trazado_151390" data-name="Trazado 151390" d="M208.216,64.374s7.03,44.736,1.533,58.825-17.712,22.711-36.621,18.531c0,0-22.056-1.712-26.052-33.735-6.019-48.211,39.367-69.835,61.14-43.62" transform="translate(16.819 6.097)" fill="#fc9753"/>
            <path id="Trazado_151391" data-name="Trazado 151391" d="M198.577,96.631a2.524,2.524,0,1,0,1.919-3.01,2.523,2.523,0,0,0-1.919,3.01" transform="translate(22.786 10.739)" fill="#171717"/>
            <path id="Trazado_151392" data-name="Trazado 151392" d="M179.441,96.264a2.524,2.524,0,1,0,1.919-3.01,2.524,2.524,0,0,0-1.919,3.01" transform="translate(20.589 10.697)" fill="#171717"/>
            <path id="Trazado_151393" data-name="Trazado 151393" d="M194.6,97.968l2.426,8.626-4.083,2.034" transform="translate(22.146 11.245)" fill="none" stroke="#2f1a2a" stroke-linecap="round" stroke-linejoin="round" stroke-width="0.983"/>
            <path id="Trazado_151394" data-name="Trazado 151394" d="M178.844,79.836s7.842-1.9,8.4,2.343c0,0,.319,2.879-6.543,4.361s-9.629,1.363-10.567-1.259,4.988-4.931,8.708-5.446" transform="translate(19.517 9.115)" fill="#221914"/>
            <path id="Trazado_151395" data-name="Trazado 151395" d="M205.088,79.315s-7.3-1.808-8.09,2.347c0,0-.482,2.843,5.925,4.226,4.664,1.007,6.327.1,6.683-1.8.421-2.259-1.772-4.348-4.518-4.771" transform="translate(22.611 9.059)" fill="#221914"/>
            <path id="Trazado_151396" data-name="Trazado 151396" d="M182.06,110.847l14.634,1.077s-.145,5.718-7.605,5.214-7.029-6.291-7.029-6.291" transform="translate(20.896 12.723)" fill="#fff"/>
            <path id="Trazado_151397" data-name="Trazado 151397" d="M159.52,105.149l2.153-16.285s12.9-4.1,15.98-28.475c0,0-5.413-11.212-21.948-6.083s-30.888,17.087-12.759,47.106Z" transform="translate(15.44 6.079)" fill="#793625"/>
            <path id="Trazado_151398" data-name="Trazado 151398" d="M133.752,107.562a13.386,13.386,0,1,0,9.576-16.332,13.387,13.387,0,0,0-9.576,16.332" transform="translate(15.302 10.421)" fill="#fc9753"/>
            <path id="Trazado_151399" data-name="Trazado 151399" d="M140.051,99.113s9.917-2.432,12.1,8.462" transform="translate(16.075 11.35)" fill="none" stroke="#2f1a2a" stroke-linecap="round" stroke-linejoin="round" stroke-width="0.983"/>
            <path id="Trazado_151400" data-name="Trazado 151400" d="M174.52,60.628a50.885,50.885,0,0,1,32.567,7.7l-3.422-14.472-21.417-2.964-20.435,7.693,5.042.477Z" transform="translate(18.573 5.841)" fill="#793625"/>
            <path id="Trazado_151401" data-name="Trazado 151401" d="M202.623,67.035s24.663.061,24.764,18.032a.31.31,0,0,0,.615.055c1.156-6.676-.085-24.945-27.307-22.814Z" transform="translate(23.036 7.132)" fill="#793625"/>
          </g>
        </g>
      </g>
    </g>
  </g>
</svg>
