<svg xmlns="http://www.w3.org/2000/svg" xmlns:xlink="http://www.w3.org/1999/xlink" width="145" height="145" viewBox="0 0 145 145">
  <defs>
    <clipPath id="clip-path">
      <rect id="Rectángulo_41283" data-name="Rectángulo 41283" width="69.738" height="94.147" fill="none"/>
    </clipPath>
  </defs>
  <g id="Grupo_166158" data-name="Grupo 166158" transform="translate(-570 -1354)">
    <circle id="Elipse_4879" data-name="Elipse 4879" cx="72.5" cy="72.5" r="72.5" transform="translate(570 1354)" fill="#fff"/>
    <g id="Grupo_166157" data-name="Grupo 166157" transform="translate(608 1379)">
      <g id="Grupo_166156" data-name="Grupo 166156" clip-path="url(#clip-path)">
        <path id="Trazado_153896" data-name="Trazado 153896" d="M59.376,36.438c1.091-.489,1.49-.412,2.229.487a34.857,34.857,0,1,1-39.675-9.99c.273-.107.544-.223.9-.37C20.6,24.407,18.42,22.3,16.239,20.2q-2.812-2.712-5.627-5.419c-1.536-1.486-1.741-2.533-.9-4.53,1.006-2.392,2.061-4.766,3-7.183A4.84,4.84,0,0,1,15.468,0h38.8A4.725,4.725,0,0,1,57,2.969c.974,2.469,2.054,4.9,3.084,7.344a3.5,3.5,0,0,1-.94,4.47Q53.553,20.171,47.96,25.553c-.328.315-.694.593-1.143.975a35.917,35.917,0,0,1,9.269,5.11c.387.3.77.6,1.147.917.889.739.975,1.141.5,2.231A1.256,1.256,0,0,1,56,35.275a6.2,6.2,0,0,1-1.2-.842,31.7,31.7,0,0,0-16.787-6.815,30.119,30.119,0,0,0-17.288,3.167C10.683,36.009,4.7,44.3,3.283,55.573A30.49,30.49,0,0,0,10.6,79.829,30.759,30.759,0,0,0,31.119,90.9,30.673,30.673,0,0,0,54.96,83.954,30.826,30.826,0,0,0,66.528,62.449a31.083,31.083,0,0,0-7.06-23.373,3.525,3.525,0,0,1-.655-1.1,1.108,1.108,0,0,1,.564-1.54" transform="translate(0)"/>
        <path id="Trazado_153897" data-name="Trazado 153897" d="M39.005,12.608c1.136-2.7,2.242-5.306,3.331-7.921a.628.628,0,0,1,.69-.43q5.648.018,11.3,0c.3,0,.518.038.65.356,1.1,2.641,2.217,5.278,3.361,7.993Z" transform="translate(-13.793 -1.505)" fill="#bceafe"/>
        <path id="Trazado_153898" data-name="Trazado 153898" d="M42.583,28.229l-3.369-6.655h19.06l-3.433,6.832c-.3.235-.641.133-.972.121-.947-.036-1.889-.151-2.83-.233a40.473,40.473,0,0,0-7.488.256c-.372.036-.743.08-.968-.321" transform="translate(-13.867 -7.629)" fill="#d6f2fe"/>
        <path id="Trazado_153899" data-name="Trazado 153899" d="M32.484,4.264C31.318,7.02,30.2,9.657,29.088,12.3a.522.522,0,0,1-.554.365c-3.114-.005-6.229,0-9.462,0,.972-2.314,1.9-4.531,2.834-6.748.142-.337.312-.664.434-1.009a.9.9,0,0,1,.975-.647c3,.014,6,.007,9.17.007" transform="translate(-6.744 -1.505)" fill="#d6f2fe"/>
        <path id="Trazado_153900" data-name="Trazado 153900" d="M68.281,4.267q4.589,0,9.183,0a.765.765,0,0,1,.778.518c1.091,2.583,2.185,5.164,3.337,7.882H77.388q-2.528,0-5.055,0c-.342,0-.637.017-.811-.4-1.072-2.6-2.171-5.182-3.257-7.772-.02-.049.007-.118.016-.224" transform="translate(-24.137 -1.508)" fill="#d6f2fe"/>
        <path id="Trazado_153901" data-name="Trazado 153901" d="M68,28.758q1.662-3.407,3.323-6.815c.111-.228.223-.418.528-.417,2.675.006,5.351,0,8.3,0l-8.778,8.362c-1.179.22-2.174-.381-3.223-.735-.137-.047-.183-.233-.147-.4" transform="translate(-24.041 -7.612)" fill="#bceafe"/>
        <path id="Trazado_153902" data-name="Trazado 153902" d="M30.006,29.872l-8.567-8.159c.209-.314.477-.188.694-.189,2.328-.011,4.657,0,6.985-.008.4,0,.745-.026.973.458,1.068,2.262,2.182,4.5,3.279,6.753.045.167,0,.356-.136.4-1.047.368-2.045.968-3.228.743" transform="translate(-7.581 -7.603)" fill="#bceafe"/>
        <path id="Trazado_153903" data-name="Trazado 153903" d="M44.426,31.708c.656.322,1.319.016,1.951-.054a35.718,35.718,0,0,1,8.415.017c.628.078,1.268.08,1.892.215-.557,1.149-1.128,2.29-1.661,3.45a.657.657,0,0,1-.788.414,31.947,31.947,0,0,0-7.3,0,.656.656,0,0,1-.782-.429c-.555-1.214-1.145-2.41-1.723-3.614" transform="translate(-15.71 -11.108)" fill="#bceafe"/>
        <path id="Trazado_153904" data-name="Trazado 153904" d="M66.883,32.715a12.547,12.547,0,0,0,3.371,1.133c-1.023,1.01-2.056,2.008-3.06,3.035-.361.369-.707.226-1.092.116s-.771-.184-1.268-.3l2.049-3.985" transform="translate(-22.926 -11.569)" fill="#91d6fd"/>
        <path id="Trazado_153905" data-name="Trazado 153905" d="M34.693,33.825c1.127-.364,2.361-.417,3.364-1.145l2.054,3.991c-.574.153-1.069.279-1.561.418a.757.757,0,0,1-.809-.257c-1.006-1.012-2.03-2.006-3.048-3.007" transform="translate(-12.268 -11.556)" fill="#91d6fd"/>
        <path id="Trazado_153906" data-name="Trazado 153906" d="M68.152,69.545a31.378,31.378,0,0,0-7.044-15.891c-.831-1.012-.852-1.348-.193-2.353l-1.648-1.653c-1.039.678-1.329.621-2.571-.363-7.876-6.238-16.8-8.529-26.628-6.576a32.094,32.094,0,0,0,10.179,63.324A31.346,31.346,0,0,0,61.068,94.649a31.235,31.235,0,0,0,7.084-25.1m-31.808,32.5c-15.074.3-27.972-12.734-27.871-27.959a27.954,27.954,0,1,1,27.871,27.959" transform="translate(-1.538 -14.863)" fill="#fedd55"/>
        <path id="Trazado_153907" data-name="Trazado 153907" d="M38.724,48.456a28.036,28.036,0,0,0-28,27.9c-.1,15.225,12.8,28.255,27.871,27.959a27.929,27.929,0,1,0,.125-55.857M54.542,88.619a19.917,19.917,0,0,1-28.017,3.774,19.629,19.629,0,0,1-7.676-13.038,2.612,2.612,0,0,0-1.311-1.75l0-2.341a3.065,3.065,0,0,0,1.429-2.481A20.035,20.035,0,0,1,56.6,67.476c3.527,7.376,2.86,14.581-2.061,21.143" transform="translate(-3.794 -17.135)" fill="#fecc00"/>
        <path id="Trazado_153908" data-name="Trazado 153908" d="M20.564,80.543c.967.056,1.377.642,1.517,1.535a19.809,19.809,0,1,0,.023-5.6c-.124.958-.486,1.636-1.543,1.728-1.211-.451-1.441-.865-1.174-2.37A22.039,22.039,0,0,1,31.053,59.475,22.557,22.557,0,1,1,19.4,82.989c-.27-1.57-.044-2.044,1.167-2.446" transform="translate(-6.82 -20.072)"/>
      </g>
    </g>
  </g>
</svg>
