<svg xmlns="http://www.w3.org/2000/svg" xmlns:xlink="http://www.w3.org/1999/xlink" width="145" height="145" viewBox="0 0 145 145">
  <defs>
    <clipPath id="clip-path">
      <rect id="Rectángulo_41281" data-name="Rectángulo 41281" width="88.008" height="88.001" fill="none"/>
    </clipPath>
  </defs>
  <g id="Grupo_166152" data-name="Grupo 166152" transform="translate(-885 -1000)">
    <circle id="Elipse_4877" data-name="Elipse 4877" cx="72.5" cy="72.5" r="72.5" transform="translate(885 1000)" fill="#fff"/>
    <g id="Grupo_166151" data-name="Grupo 166151" transform="translate(913 1028)">
      <g id="Grupo_166150" data-name="Grupo 166150" clip-path="url(#clip-path)">
        <path id="Trazado_153869" data-name="Trazado 153869" d="M87.993,20.565a1.43,1.43,0,0,0-1.6-1.49c-1.192-.017-2.386-.041-3.575.012-.595.027-.7-.177-.688-.718.037-1.527-.035-3.057.024-4.582a6.682,6.682,0,0,0-2.132-5.164,17.475,17.475,0,0,0-5.752-3.659C66.7,1.788,58.7.741,50.612.208A106.612,106.612,0,0,0,35.323.356,80.89,80.89,0,0,0,18.229,3.33,26.321,26.321,0,0,0,8.753,7.922a7.074,7.074,0,0,0-2.9,6.11c.085,1.461-.007,2.932.028,4.4.012.522-.141.671-.658.654-1.129-.039-2.26-.016-3.391-.011C.52,19.079.006,19.588,0,20.9Q0,24.291,0,27.682A43.732,43.732,0,0,0,5.517,49.143a2.718,2.718,0,0,1,.36,1.381c-.015,4.032-.008,8.065-.008,12.1,0,3.88.04,7.761-.017,11.64a6.824,6.824,0,0,0,2.1,5.085,15.9,15.9,0,0,0,4.583,3.135c5.915,2.824,12.262,4,18.7,4.772a106.583,106.583,0,0,0,18.751.574,84.849,84.849,0,0,0,19.747-3.139,26.518,26.518,0,0,0,9.486-4.575,7.458,7.458,0,0,0,2.949-6.185c-.08-7.76-.023-15.52-.04-23.279a3.253,3.253,0,0,1,.431-1.639A44.148,44.148,0,0,0,87.5,34.466c.726-4.619.448-9.264.5-13.9M5.869,41.687v.978A33.807,33.807,0,0,1,3.485,34.49c-.7-3.961-.524-7.959-.56-11.949,0-.462.16-.532.575-.547,2.369-.081,2.369-.093,2.369,2.22Zm77.57-2.462c-.354,1.157-.744,2.3-1.117,3.452l-.184-.008q0-10.062-.01-20.124c0-.455.151-.536.571-.551,2.373-.083,2.337-.095,2.38,2.308a47.591,47.591,0,0,1-1.641,14.924" transform="translate(0 0)"/>
        <path id="Trazado_153870" data-name="Trazado 153870" d="M37.325,68.712c4.632-.225,7.818-2.614,8.876-6.657a9.447,9.447,0,0,0,.289-2.445q-.014-4.169,0-8.337a4.405,4.405,0,1,1,8.8,0,19.337,19.337,0,0,0,.324,5.1A8.79,8.79,0,0,0,72.88,54.207c.022-1.069-.012-2.138.012-3.206a4.4,4.4,0,0,1,4.256-4.31,7.341,7.341,0,0,0,7.472-7.766c0-1.283.02-2.566-.01-3.848-.011-.488.088-.749.614-.923a26.193,26.193,0,0,0,8.03-4c.239.108.163.284.163.417q.006,11.91,0,23.82c0,.121-.019.243-.028.365A8.238,8.238,0,0,1,91.8,57.514,41.525,41.525,0,0,1,76.63,70.47c-.841.429-1.717.794-2.581,1.181a2.718,2.718,0,0,1-1.6.259,7.821,7.821,0,0,0-1.281-.033c-8.488,0-16.977-.082-25.464.055a11.944,11.944,0,0,1-5.99-1.546c-.566-.3-1.146-.577-1.7-.9-.3-.18-.684-.313-.692-.768" transform="translate(-14.216 -11.486)" fill="#fcb52f"/>
        <path id="Trazado_153871" data-name="Trazado 153871" d="M28.423,50.278c0-4.125.012-8.249-.013-12.374,0-.663.053-.9.819-.669a79.949,79.949,0,0,0,17,2.98,110.709,110.709,0,0,0,18.033-.056,80.525,80.525,0,0,0,13.181-2.1c.643-.163.92-.142.867.65-.074,1.126,0,2.26-.024,3.39a4.413,4.413,0,0,1-4.259,4.314c-4.543.188-7.451,3.227-7.477,7.773a17.384,17.384,0,0,1-.144,3.744,5.859,5.859,0,0,1-11.585-1.121,26.665,26.665,0,0,0-.153-4.478,7.318,7.318,0,0,0-14.5,1.241c-.04,2.9,0,5.8-.012,8.707a5.871,5.871,0,1,1-11.731,0q-.008-6,0-12.007" transform="translate(-10.82 -14.148)" fill="#fe421d"/>
        <path id="Trazado_153872" data-name="Trazado 153872" d="M39.287,24.742c-6.963-.586-13.788-1.761-20.17-4.786A12.532,12.532,0,0,1,15.5,17.494c-1.727-1.747-1.722-3.333.034-5.077A15.893,15.893,0,0,1,21,9.149,61.034,61.034,0,0,1,36.618,5.479,107.274,107.274,0,0,1,56.1,4.932a77.521,77.521,0,0,1,19.25,3.3c.347.112.684.257,1.025.386.258.125.292.364.111.513-.824.677-1.48,1.635-2.7,1.691A55.208,55.208,0,0,0,63.75,8.779c-2.82-.319-5.649-.514-8.483-.69-2.81-.174-5.618-.2-8.422-.131A97.15,97.15,0,0,0,28.926,9.8a22.347,22.347,0,0,0-5.964,2.042,7.766,7.766,0,0,0-1.509,1.031,2.629,2.629,0,0,0-.183,4.1,7.267,7.267,0,0,0,2.6,1.677,42.414,42.414,0,0,0,10.405,2.47c3.117.41,6.246.665,9.392.8,1.984.087,3.965.124,5.949.153a1.376,1.376,0,0,1,.875.206c.125.4-.209.482-.437.543a46.183,46.183,0,0,1-10.679,1.95c-.121,0,.036-.019-.085-.031" transform="translate(-5.414 -1.798)" fill="#f9dab6"/>
        <path id="Trazado_153873" data-name="Trazado 153873" d="M28.543,83.846A32.154,32.154,0,0,0,34.4,86.8c.319.137.766-.045,1.153-.045,9.257,0,18.514-.056,27.77.045a9.528,9.528,0,0,0,4.406-1.451,39.668,39.668,0,0,0,7.509-4.827,42.691,42.691,0,0,0,8.805-9.81c.184-.279.38-.549.57-.823q0,2.571,0,5.141a8.82,8.82,0,0,1-2.023,2.79A44.19,44.19,0,0,1,65.373,89.843a2.013,2.013,0,0,0-1.266,1.282c-4.752.01-9.506.028-14.259.028-5.027,0-10.055-.018-15.081-.028-.219-.825-.846-1.119-1.591-1.421a42.647,42.647,0,0,1-13.87-8.825,53.792,53.792,0,0,1-3.964-4.165,5.2,5.2,0,0,1-1.075-1.68q0-2.571,0-5.141c.479.044.6.474.8.786a46.888,46.888,0,0,0,4.977,6.3c.082.089.15.191.284.206a8.856,8.856,0,0,0,6.422,6.35c.583.156,1.194.212,1.791.315" transform="translate(-5.433 -26.62)" fill="#f19606"/>
        <path id="Trazado_153874" data-name="Trazado 153874" d="M20.31,61.943c-.767.051-1-.651-1.372-1.068a53.2,53.2,0,0,1-4.692-6.22q-.015-10.673-.03-21.348c0-1.088,0-2.177,0-3.423A22.25,22.25,0,0,0,19.7,33.015c.541.217.38.635.38,1q.011,12.049,0,24.1a19.4,19.4,0,0,0,.23,3.831" transform="translate(-5.414 -11.382)" fill="#fcb52f"/>
        <path id="Trazado_153875" data-name="Trazado 153875" d="M54.711,27.136a89.68,89.68,0,0,0,10.567-2.1,4.75,4.75,0,0,0,.659-.282.827.827,0,0,1,.743-.271c2.624-.017,5.243-.183,7.854-.394a58.705,58.705,0,0,0,15.005-2.7,10.448,10.448,0,0,0,2.837-1.462c2.043-1.535,2.01-3.651-.092-5.125a19.5,19.5,0,0,0-2.174-1.174c-.281-.148-.669-.191-.72-.615.815-.18,2.351-1.458,2.41-2.006a20.3,20.3,0,0,1,6.23,3.179,7.483,7.483,0,0,1,1.109,1.087,2.943,2.943,0,0,1-.118,4.339,13.2,13.2,0,0,1-4.273,2.932,51.077,51.077,0,0,1-14.3,3.98,103.32,103.32,0,0,1-18.9,1.088,51.16,51.16,0,0,1-6.836-.479" transform="translate(-20.838 -4.193)" fill="#f3bf8d"/>
        <path id="Trazado_153876" data-name="Trazado 153876" d="M84.462,87.755a42.458,42.458,0,0,1-16.8,13.4c-1.729.754-2.377,1.611-2.16,3.46.189,1.612-.4,2.075-2,2.075q-9.625,0-19.249,0-4.446,0-8.891,0c-1.665,0-2.084-.428-2.085-2.127A11.236,11.236,0,0,1,33.287,103c.1-.716-.241-1-.851-1.249A42.942,42.942,0,0,1,19.77,93.676a46.96,46.96,0,0,1-5.564-6.109c0,6.825.02,13.393-.017,19.96a4.228,4.228,0,0,0,1.379,3.253,16.364,16.364,0,0,0,5.477,3.242c6.835,2.7,14.017,3.7,21.284,4.175a103.894,103.894,0,0,0,23.746-1.073,50.882,50.882,0,0,0,12.906-3.618,14.153,14.153,0,0,0,4.423-2.881,4.014,4.014,0,0,0,1.218-2.952c-.027-6.384-.011-12.77-.02-19.155,0-.244.137-.537-.14-.763" transform="translate(-5.404 -33.352)" fill="#fcb52f"/>
        <path id="Trazado_153877" data-name="Trazado 153877" d="M62.366,111.869c-4.026.012-8.051.019-12.077.044-.425,0-.56-.11-.583-.557-.119-2.385-.134-2.387,2.226-2.384q7.045.013,14.09.031a.41.41,0,0,1-.167.478,13.5,13.5,0,0,1-3.49,2.387" transform="translate(-18.916 -41.504)" fill="#6cbac6"/>
        <path id="Trazado_153878" data-name="Trazado 153878" d="M14.246,78.2a44.862,44.862,0,0,0,4.14,4.721,41.552,41.552,0,0,0,5.416,4.6A42.867,42.867,0,0,0,33.929,92.9a1.1,1.1,0,0,1,.817,1.389c-.368.059-.807.129-.966.449-.411.825-.908.477-1.455.222A41.17,41.17,0,0,1,14.544,79.3a1.315,1.315,0,0,1-.3-1.1" transform="translate(-5.412 -29.782)" fill="#fcb52f"/>
        <path id="Trazado_153879" data-name="Trazado 153879" d="M94.755,94.288a1.082,1.082,0,0,1,.834-1.347,42.97,42.97,0,0,0,12.2-7.026,49.3,49.3,0,0,0,7.461-7.718,1.25,1.25,0,0,1-.25,1.023A41.083,41.083,0,0,1,96.842,95.107c-.43.2-.725.289-1-.235a1.371,1.371,0,0,0-1.09-.585" transform="translate(-36.081 -29.783)" fill="#fcb52f"/>
        <path id="Trazado_153880" data-name="Trazado 153880" d="M70.179,111.865c1.051-.788,2.105-1.571,3.151-2.366a5.274,5.274,0,0,0,.506-.5c3.172-.011,6.344-.015,9.515-.038.417,0,.569.105.6.556.141,2.384.156,2.388-2.24,2.382q-5.763-.012-11.527-.035" transform="translate(-26.729 -41.5)" fill="#56949e"/>
        <path id="Trazado_153881" data-name="Trazado 153881" d="M77.575,12.427a21.209,21.209,0,0,1,2.987,1.54c2.4,1.7,2.416,4.063-.021,5.717A19.709,19.709,0,0,1,73.384,22.3a97.726,97.726,0,0,1-18.076,1.826c-.4.01-.791.027-1.187.041-3.571-.032-7.142-.093-10.7-.4-5.169-.438-10.318-1-15.25-2.751a9.878,9.878,0,0,1-3.119-1.687c-1.825-1.537-1.821-3.549.033-5.049a14.17,14.17,0,0,1,5.37-2.431A76.654,76.654,0,0,1,46.1,9.667a122.912,122.912,0,0,1,18.934.378,58.251,58.251,0,0,1,12.544,2.382" transform="translate(-9.022 -3.604)"/>
        <path id="Trazado_153882" data-name="Trazado 153882" d="M66.092,22.457a92.027,92.027,0,0,1-12.43.555,90.768,90.768,0,0,1-19.534-2.006,17.479,17.479,0,0,1-4.637-1.643c-.336-.188-.854-.333-.857-.735,0-.458.532-.616.9-.811a19.723,19.723,0,0,1,5.281-1.735,102.535,102.535,0,0,1,25.14-1.747,82.41,82.41,0,0,1,15.692,1.891c.3.069.588.158.882.238.054.432-.307.565-.569.738a75.36,75.36,0,0,1-8.914,4.956c-.3.147-.65.146-.95.3" transform="translate(-10.905 -5.419)" fill="#6cbac6"/>
        <path id="Trazado_153883" data-name="Trazado 153883" d="M89.135,23.834c1.451-.749,2.922-1.462,4.346-2.257a42.977,42.977,0,0,0,6.087-3.736,16.273,16.273,0,0,1,3.608,1.239c.422.208,1.043.386,1.041.89,0,.441-.592.647-.99.854a19.681,19.681,0,0,1-4.819,1.636,55.951,55.951,0,0,1-9.273,1.373" transform="translate(-33.949 -6.795)" fill="#56949e"/>
      </g>
    </g>
  </g>
</svg>
