<svg xmlns="http://www.w3.org/2000/svg" xmlns:xlink="http://www.w3.org/1999/xlink" width="153" height="177" viewBox="0 0 153 177">
  <defs>
    <clipPath id="clip-path">
      <rect id="Rectángulo_41365" data-name="Rectángulo 41365" width="153" height="177" fill="#fff" stroke="#707070" stroke-width="1"/>
    </clipPath>
    <clipPath id="clip-path-2">
      <rect id="Rectángulo_41364" data-name="Rectángulo 41364" width="81.914" height="271.861" fill="none"/>
    </clipPath>
  </defs>
  <g id="Enmascarar_grupo_208" data-name="Enmascarar grupo 208" clip-path="url(#clip-path)">
    <g id="Grupo_166319" data-name="Grupo 166319" transform="translate(36 9.14)">
      <g id="Grupo_166318" data-name="Grupo 166318" clip-path="url(#clip-path-2)">
        <path id="Trazado_155237" data-name="Trazado 155237" d="M71.637,53.76,66.3,80.934S84.092,87.4,93.311,83.2c0,0,9.543-4.691,7.036-29.2Z" transform="translate(-43.279 -35.093)" fill="#9fb6c4"/>
        <path id="Trazado_155238" data-name="Trazado 155238" d="M138.359,684.213l14.23-1.031s-.825,16.7.412,17.736,5.981,5.156,8.249,5.774,10.311.206,10.724,4.537a37.143,37.143,0,0,1,.206,6.393H150.526a1.325,1.325,0,0,0-1.237-1.237c-1.237-.206-1.444,1.443-1.444,1.443h-7.012l1.031-14.848Z" transform="translate(-90.318 -445.968)" fill="#3e3e56"/>
        <path id="Trazado_155239" data-name="Trazado 155239" d="M145.486,775.016H152.5s.206-1.65,1.444-1.444a1.325,1.325,0,0,1,1.237,1.237h21.654a30.066,30.066,0,0,0-.027-4.021H145.78Z" transform="translate(-94.97 -503.155)" fill="#242638"/>
        <path id="Trazado_155240" data-name="Trazado 155240" d="M178.128,712.163a18.173,18.173,0,0,1-3,2.413,15.423,15.423,0,0,0,2.012-2.965,14.4,14.4,0,0,1-3.527,1.679l2.173-2.832a14.337,14.337,0,0,1-4.049,1.592,12.317,12.317,0,0,1,2.72-2.613,20.855,20.855,0,0,1-4.249.851l2.757-1.957a26.66,26.66,0,0,1-3.919.256,26.176,26.176,0,0,1,2.387-1.769,7.643,7.643,0,0,1-2.939.007,6.7,6.7,0,0,1,2.389-2.213l-2.973.1a11.738,11.738,0,0,1,2.989-2.033,11.615,11.615,0,0,1-3.268.147l2.975-2.292a15.791,15.791,0,0,1-3.488.409l3.718-2.521a10.432,10.432,0,0,1-3.634-.235q1.6-.944,3.271-1.745a.292.292,0,0,1,.137-.449,16.345,16.345,0,0,1-3.636.2,46.406,46.406,0,0,1,4.17-2.145q-2.168.051-4.335-.044a17.831,17.831,0,0,1,3.788-1,.309.309,0,0,1,.251.036c.066.058.033.2-.053.189a.939.939,0,0,1,1.085-.059,2.753,2.753,0,0,1,.808.826c1.026,1.4,2.1,2.969,1.947,4.7a1.718,1.718,0,0,1-1.55-.447,3.982,3.982,0,0,1-.914-1.4,12.212,12.212,0,0,1-.982-3.785,26.119,26.119,0,0,1-.639,6.044c-.16.6-.593,1.318-1.189,1.157a.925.925,0,0,1-.5-.4c-.62-.922-.254-2.167.211-3.176a20.646,20.646,0,0,1,1.86-3.226c-.641,2.02.152,4.178.815,6.191s1.167,4.345.055,6.148" transform="translate(-108.888 -452.375)" fill="none" stroke="#242638" stroke-linecap="round" stroke-linejoin="round" stroke-width="1.188"/>
        <path id="Trazado_155241" data-name="Trazado 155241" d="M148.887,740.036h-.018a6.923,6.923,0,0,0-.788-.024.227.227,0,0,1-.218-.193.208.208,0,0,1,.193-.219,6.994,6.994,0,0,1,.849.024.207.207,0,0,1-.018.412" transform="translate(-96.522 -482.793)" fill="#242638"/>
        <path id="Trazado_155242" data-name="Trazado 155242" d="M164.1,749.085a.2.2,0,0,1-.19-.127c-.229-.545-.481-1.075-.749-1.574a.206.206,0,1,1,.363-.2c.275.512.533,1.054.767,1.613a.2.2,0,0,1-.11.269.2.2,0,0,1-.08.016m-1.675-3.1a.206.206,0,0,1-.17-.089,14.245,14.245,0,0,0-1.072-1.368.207.207,0,0,1,.017-.292.2.2,0,0,1,.291.018,14.685,14.685,0,0,1,1.1,1.407.207.207,0,0,1-.052.287.2.2,0,0,1-.118.037m-2.35-2.621a.2.2,0,0,1-.134-.05,11.549,11.549,0,0,0-1.4-1.021.206.206,0,0,1,.217-.351,11.98,11.98,0,0,1,1.449,1.06.206.206,0,0,1-.134.362m-2.986-1.854a.208.208,0,0,1-.081-.016,11.125,11.125,0,0,0-1.64-.559.206.206,0,0,1-.149-.251.2.2,0,0,1,.251-.148,11.673,11.673,0,0,1,1.7.578.207.207,0,0,1-.081.4" transform="translate(-101.322 -483.403)" fill="#242638"/>
        <path id="Trazado_155243" data-name="Trazado 155243" d="M182.459,770.016a.206.206,0,0,1-.2-.148c-.077-.267-.157-.53-.24-.785a.207.207,0,0,1,.133-.259.209.209,0,0,1,.26.134c.083.258.164.524.243.794a.208.208,0,0,1-.141.256.227.227,0,0,1-.057.008" transform="translate(-118.813 -501.867)" fill="#242638"/>
        <path id="Trazado_155244" data-name="Trazado 155244" d="M31.681,684.213l14.23-1.031s-.825,16.7.412,17.736,5.981,5.156,8.249,5.774,10.311.206,10.724,4.537a37.144,37.144,0,0,1,.206,6.393H43.849a1.325,1.325,0,0,0-1.237-1.237c-1.237-.206-1.444,1.443-1.444,1.443H34.156l1.031-14.848Z" transform="translate(-20.681 -445.968)" fill="#3e3e56"/>
        <path id="Trazado_155245" data-name="Trazado 155245" d="M38.809,775.016h7.012s.206-1.65,1.444-1.444A1.325,1.325,0,0,1,48.5,774.81H70.156a30.065,30.065,0,0,0-.027-4.021H39.1Z" transform="translate(-25.334 -503.155)" fill="#242638"/>
        <path id="Trazado_155246" data-name="Trazado 155246" d="M71.45,712.163a18.174,18.174,0,0,1-3,2.413,15.423,15.423,0,0,0,2.012-2.965,14.4,14.4,0,0,1-3.527,1.679l2.173-2.832a14.337,14.337,0,0,1-4.049,1.592,12.317,12.317,0,0,1,2.72-2.613,20.855,20.855,0,0,1-4.249.851l2.757-1.957a26.661,26.661,0,0,1-3.919.256,26.176,26.176,0,0,1,2.387-1.769,7.643,7.643,0,0,1-2.939.007,6.7,6.7,0,0,1,2.389-2.213l-2.973.1a11.739,11.739,0,0,1,2.989-2.033,11.615,11.615,0,0,1-3.268.147l2.975-2.292a15.791,15.791,0,0,1-3.488.409l3.718-2.521a10.432,10.432,0,0,1-3.634-.235q1.6-.944,3.272-1.745a.292.292,0,0,1,.137-.449,16.345,16.345,0,0,1-3.636.2,46.407,46.407,0,0,1,4.17-2.145Q62.3,694.1,60.129,694a17.831,17.831,0,0,1,3.788-1,.309.309,0,0,1,.251.036c.066.058.034.2-.053.189a.939.939,0,0,1,1.085-.059,2.754,2.754,0,0,1,.808.826c1.026,1.4,2.1,2.969,1.947,4.7a1.718,1.718,0,0,1-1.55-.447,3.982,3.982,0,0,1-.914-1.4,12.212,12.212,0,0,1-.982-3.785,26.119,26.119,0,0,1-.639,6.044c-.16.6-.593,1.318-1.189,1.157a.925.925,0,0,1-.5-.4c-.62-.922-.254-2.167.211-3.176a20.647,20.647,0,0,1,1.86-3.226c-.641,2.02.152,4.178.815,6.191s1.167,4.345.055,6.148" transform="translate(-39.251 -452.375)" fill="none" stroke="#242638" stroke-linecap="round" stroke-linejoin="round" stroke-width="1.188"/>
        <path id="Trazado_155247" data-name="Trazado 155247" d="M42.21,740.036h-.018a6.922,6.922,0,0,0-.788-.024.227.227,0,0,1-.218-.193.208.208,0,0,1,.193-.219,6.994,6.994,0,0,1,.849.024.207.207,0,0,1-.018.412" transform="translate(-26.885 -482.793)" fill="#242638"/>
        <path id="Trazado_155248" data-name="Trazado 155248" d="M57.426,749.085a.2.2,0,0,1-.19-.127c-.229-.545-.481-1.075-.749-1.574a.206.206,0,0,1,.362-.2c.275.512.533,1.054.767,1.613a.2.2,0,0,1-.11.269.2.2,0,0,1-.08.016m-1.675-3.1a.206.206,0,0,1-.17-.089,14.193,14.193,0,0,0-1.072-1.368.206.206,0,1,1,.308-.274,14.741,14.741,0,0,1,1.1,1.407.207.207,0,0,1-.052.287.2.2,0,0,1-.117.037m-2.35-2.621a.2.2,0,0,1-.133-.05,11.577,11.577,0,0,0-1.4-1.021.206.206,0,1,1,.217-.351A12.064,12.064,0,0,1,53.535,743a.206.206,0,0,1-.134.362m-2.986-1.854a.21.21,0,0,1-.082-.016,11.111,11.111,0,0,0-1.64-.559.206.206,0,0,1-.149-.251.2.2,0,0,1,.251-.148,11.646,11.646,0,0,1,1.7.578.207.207,0,0,1-.081.4" transform="translate(-31.685 -483.403)" fill="#242638"/>
        <path id="Trazado_155249" data-name="Trazado 155249" d="M75.782,770.016a.206.206,0,0,1-.2-.148c-.077-.267-.157-.53-.24-.785a.207.207,0,0,1,.133-.259.209.209,0,0,1,.26.134c.083.258.164.524.243.794a.208.208,0,0,1-.141.256.227.227,0,0,1-.057.008" transform="translate(-49.176 -501.867)" fill="#242638"/>
        <path id="Trazado_155250" data-name="Trazado 155250" d="M82.875,410.595,85.786,522.93H66.134l-6.066-80.551H58.613L48.18,523.415H29.5l.728-112.577Z" transform="translate(-19.256 -268.028)" fill="#37374f"/>
        <path id="Trazado_155251" data-name="Trazado 155251" d="M113.349,446.636,114,417.116h6.146l-1.456,26.2-3.882,3.316" transform="translate(-73.992 -272.285)" fill="none" stroke="#f2f2f2" stroke-linecap="round" stroke-linejoin="round" stroke-width="1.048"/>
        <path id="Trazado_155252" data-name="Trazado 155252" d="M150.854,673.329H130.147l1.041,13.829h20.024Z" transform="translate(-84.958 -439.536)" fill="#ffff5c"/>
        <path id="Trazado_155253" data-name="Trazado 155253" d="M29.414,687.159H49.074l1.781-13.829H29.5Z" transform="translate(-19.201 -439.536)" fill="#ffff5c"/>
        <path id="Trazado_155254" data-name="Trazado 155254" d="M151.94,687.3H131.485l.317,4.206h20.248Z" transform="translate(-85.831 -448.659)" fill="#ccc"/>
        <path id="Trazado_155255" data-name="Trazado 155255" d="M29.731,691.51H49.946l.542-4.206H29.758Z" transform="translate(-19.408 -448.658)" fill="#ccc"/>
        <path id="Trazado_155256" data-name="Trazado 155256" d="M91.92,145.531l21.027.162-8.573,24.748Z" transform="translate(-60.004 -95)" fill="#f2f2f2"/>
        <path id="Trazado_155257" data-name="Trazado 155257" d="M98.737,89.63l-1.576,15.116s1.162,9.754,9.472,7.793,6.909-7.692,6.909-7.692l-1.014-2.48-.78-8.725Z" transform="translate(-63.425 -58.509)" fill="#fca19f"/>
        <path id="Trazado_155258" data-name="Trazado 155258" d="M100.915,93.1l.225-2.164,3.966.756,3.833,1.182,5.467,3.939.425,4.755c-2.76,1.53-13.05,1.53-13.915-8.468" transform="translate(-65.875 -59.359)" fill="#f97070"/>
        <path id="Trazado_155259" data-name="Trazado 155259" d="M113.626,31.645c.378,6.722-.533,20.237-7.218,21.036-7.034.841-11.04-2.53-12.97-8.932,0,0-3.332,1.782-3.778-3.016-.2-2.116,2.306-1.341,2.306-1.341s-6.515-16.661,4.174-19.663,16.967,2.713,17.485,11.914" transform="translate(-58.521 -12.355)" fill="#fca19f"/>
        <path id="Trazado_155260" data-name="Trazado 155260" d="M116.489,60.071a2.02,2.02,0,0,0,.643.193.546.546,0,0,0,.543-.33,1.069,1.069,0,0,0-.306-1.043,2.575,2.575,0,0,0-1.819-.642,5.491,5.491,0,0,0-1.918.131,2.448,2.448,0,0,0-1.522,1.266.461.461,0,0,0-.06.265.294.294,0,0,0,.245.243.623.623,0,0,0,.313-.077,5.041,5.041,0,0,1,3.882-.009" transform="translate(-73.142 -38.008)" fill="#37374f"/>
        <path id="Trazado_155261" data-name="Trazado 155261" d="M141.94,59.3a1.71,1.71,0,0,1-.558.248.461.461,0,0,1-.5-.281,1.181,1.181,0,0,1,.21-1.065,2.226,2.226,0,0,1,1.574-.8,4.343,4.343,0,0,1,1.706-.035,2.134,2.134,0,0,1,1.422,1.129.492.492,0,0,1,.069.259.291.291,0,0,1-.2.263.49.49,0,0,1-.282-.049,4.043,4.043,0,0,0-3.438.328" transform="translate(-91.928 -37.405)" fill="#37374f"/>
        <path id="Trazado_155262" data-name="Trazado 155262" d="M133.495,79.17a1.3,1.3,0,0,1,.9-.363c.148-.023.295-.046.433-.082a2.018,2.018,0,0,0,.977-.585.629.629,0,0,0,.14-.214.727.727,0,0,0-.091-.555A9.534,9.534,0,0,1,134.516,73l-.281-.01a9.736,9.736,0,0,0,1.364,4.5.5.5,0,0,1,.08.338.381.381,0,0,1-.083.118,1.734,1.734,0,0,1-.839.5c-.13.033-.268.054-.407.076a1.508,1.508,0,0,0-1.08.475Z" transform="translate(-86.995 -47.648)" fill="#37374f"/>
        <path id="Trazado_155263" data-name="Trazado 155263" d="M145.959,67.839c-.051-1.137-.567-2.038-1.151-2.012s-1.016.97-.965,2.108.567,2.038,1.151,2.012,1.016-.97.965-2.108" transform="translate(-93.896 -42.97)" fill="#37374f"/>
        <path id="Trazado_155264" data-name="Trazado 155264" d="M120.067,67.839c-.051-1.137-.567-2.038-1.151-2.012s-1.016.97-.965,2.108.567,2.038,1.151,2.012,1.016-.97.965-2.108" transform="translate(-76.994 -42.97)" fill="#37374f"/>
        <path id="Trazado_155265" data-name="Trazado 155265" d="M130.508,94.161a18.819,18.819,0,0,1-8.564.611s1.9,3.164,4.663,2.82,3.9-3.431,3.9-3.431" transform="translate(-79.603 -61.466)" fill="#fff"/>
        <path id="Trazado_155266" data-name="Trazado 155266" d="M20.787,411.293s1.7,12.738,1.092,16.5-2.426,5.095-2.669-6.187c0,0-1.7,8.977-1.334,12.5s-.97,3.639-1.82,2.669c0,0,.243,1.334-.849,1.334s-3.518-2.912-3.518-2.912-3.154-6.308-3.154-9.7,2.305-12.01,2.305-12.01Z" transform="translate(-5.571 -268.484)" fill="#fca19f"/>
        <path id="Trazado_155267" data-name="Trazado 155267" d="M187.243,411.293s-1.7,12.738-1.092,16.5,2.426,5.095,2.669-6.187c0,0,1.7,8.977,1.334,12.5s.97,3.639,1.82,2.669c0,0-.243,1.334.849,1.334s3.518-2.912,3.518-2.912,3.154-6.308,3.154-9.7-2.3-12.01-2.3-12.01Z" transform="translate(-121.43 -268.484)" fill="#fca19f"/>
        <path id="Trazado_155268" data-name="Trazado 155268" d="M71.869,179.376s-4.044-48.363-4.529-50.3-14.4-9.219-14.4-9.219l-.162-5.661s-1.436-.307-3.6-.76c-1.249,6.167-6.067,30.361-6.067,30.361l-8.074-33.217a55.348,55.348,0,0,0-5.716-.912c-2.265,0-2.265,10.028-2.265,10.028S9.11,126.646,8.14,127.616.376,172.906.052,174.847s.97,49.5.97,49.5c3.235.323,18.763.162,18.763.162l-.161-3.4C50.842,225.636,63.3,219,63.3,219l.97,5.823c5.985,1.456,13.264-2.265,13.264-2.265Z" transform="translate(0 -71.585)" fill="#37374f"/>
        <path id="Trazado_155269" data-name="Trazado 155269" d="M4.05,253.776c-.587,3.693-1.117,7.067-1.528,9.7A158.169,158.169,0,0,0,42.8,268.556a168.686,168.686,0,0,0,30.046-2.708c-.235-2.78-.521-6.132-.828-9.719A155.428,155.428,0,0,1,4.05,253.776" transform="translate(-1.646 -165.66)" fill="#ffff5c"/>
        <path id="Trazado_155270" data-name="Trazado 155270" d="M46.586,271.3a161.108,161.108,0,0,1-42.157-6l.374-2.373c.379.116,38.62,11.351,68.713,2.189l.243,2.639a93.3,93.3,0,0,1-27.172,3.55" transform="translate(-2.891 -171.631)" fill="#ccc"/>
        <path id="Trazado_155271" data-name="Trazado 155271" d="M132.749,121.307l2.588,12.859-5.257,3.64,2.669,3.073-7.521,8.9" transform="translate(-81.746 -79.187)" fill="none" stroke="#f2f2f2" stroke-linecap="round" stroke-linejoin="round" stroke-width="0.699"/>
        <path id="Trazado_155272" data-name="Trazado 155272" d="M56.516,403.683l.081-13.87a118.433,118.433,0,0,0,46.5-.647l.324,9.705s-4.206,6.066-24.02,6.308-22.887-1.5-22.887-1.5" transform="translate(-36.893 -254.04)" fill="#ffff5c"/>
        <path id="Trazado_155273" data-name="Trazado 155273" d="M77.322,405.609a113.662,113.662,0,0,1-20.981-1.971l.051-3.073c.282.06,29.562,5.977,46.766-2.548l.2,2.624c-7.786,3.857-17.47,4.968-26.04,4.968" transform="translate(-36.778 -259.818)" fill="#ccc"/>
        <path id="Trazado_155274" data-name="Trazado 155274" d="M19.954,345.552l.162-10.109L.382,335.361.436,338.6l.108,6.55Z" transform="translate(-0.249 -218.917)" fill="#ffff5c"/>
        <path id="Trazado_155275" data-name="Trazado 155275" d="M.436,344.375l19.518-.163.081,3.316-19.653.081Z" transform="translate(-0.25 -224.695)" fill="#ccc"/>
        <path id="Trazado_155276" data-name="Trazado 155276" d="M188.815,325.561l7.006-1,1.405,10.059-8.087.647Z" transform="translate(-123.255 -211.866)" fill="#ffff5c"/>
        <path id="Trazado_155277" data-name="Trazado 155277" d="M196.648,334.168l-7.309,1.031.091,2.487,7.521-1.243Z" transform="translate(-123.597 -218.138)" fill="#ccc"/>
        <path id="Trazado_155278" data-name="Trazado 155278" d="M56.288,297.935h0a.121.121,0,0,1-.12-.122l.323-43.672,5.5-26.873a.121.121,0,1,1,.238.048l-5.5,26.85-.321,43.649a.121.121,0,0,1-.121.12" transform="translate(-36.665 -148.292)" fill="#f2f2f2"/>
        <path id="Trazado_155279" data-name="Trazado 155279" d="M183.225,292.413l2.911-2.1-2.1-67.45" transform="translate(-119.606 -145.479)" fill="none" stroke="#f2f2f2" stroke-linecap="round" stroke-linejoin="round" stroke-width="0.699"/>
        <path id="Trazado_155280" data-name="Trazado 155280" d="M101.261,222.6a.121.121,0,0,1-.121-.118l-.324-13.1a.122.122,0,0,1,.034-.087l3.525-3.685V149.628l-6.048-1.114a.122.122,0,0,1-.1-.1l-.923-4.5-11.018-12.35a.121.121,0,0,1,.036-.189L91.61,128.7l-6.7-8.294a.122.122,0,0,1-.022-.109l2.24-8L83.245,110a.121.121,0,1,1,.124-.208l3.963,2.345a.121.121,0,0,1,.055.137L85.139,120.3l6.754,8.362a.121.121,0,0,1,.024.1.123.123,0,0,1-.064.083l-5.278,2.678L97.51,143.785a.121.121,0,0,1,.028.056l.914,4.449,6.066,1.117a.121.121,0,0,1,.1.119v56.127a.121.121,0,0,1-.034.084l-3.524,3.684.322,13.051a.121.121,0,0,1-.118.124Z" transform="translate(-54.302 -71.66)" fill="#f2f2f2"/>
        <path id="Trazado_155281" data-name="Trazado 155281" d="M23.442,161.37s14.8.728,17.064,19.329" transform="translate(-15.302 -105.339)" fill="none" stroke="#f2f2f2" stroke-linecap="round" stroke-linejoin="round" stroke-width="0.699"/>
        <path id="Trazado_155282" data-name="Trazado 155282" d="M188.313,165.562s-2.75,1.618-2.992,15.285" transform="translate(-120.974 -108.076)" fill="none" stroke="#f2f2f2" stroke-linecap="round" stroke-linejoin="round" stroke-width="0.699"/>
        <path id="Trazado_155283" data-name="Trazado 155283" d="M88.659,53.963s-.056,5.421,2.661,8.169l2.394.565,3.033-8.936Z" transform="translate(-57.875 -35.094)" fill="#fce6a3"/>
        <path id="Trazado_155284" data-name="Trazado 155284" d="M97.952,1.353h0A13.951,13.951,0,0,0,84,15.3v4.489h27.9V15.3A13.951,13.951,0,0,0,97.952,1.353" transform="translate(-54.834 -0.883)" fill="#e03d3d"/>
        <path id="Trazado_155285" data-name="Trazado 155285" d="M103.276,52.74H69.235a.785.785,0,0,1-.782-.782v-.093a.785.785,0,0,1,.782-.782h34.04a.785.785,0,0,1,.782.782v.093a.785.785,0,0,1-.782.782" transform="translate(-44.685 -33.345)" fill="#e03d3d"/>
        <path id="Trazado_155286" data-name="Trazado 155286" d="M116.823,17.009S117.491,1.6,110.03,1.3V.663s6.369-1.789,10.493.516c0,0,3.184,1.729,3.215,15.861Z" transform="translate(-71.825 0)" fill="#c42626"/>
        <line id="Línea_514" data-name="Línea 514" x2="27.968" transform="translate(29.086 17.737)" fill="none" stroke="#c42626" stroke-linecap="round" stroke-linejoin="round" stroke-width="0.699"/>
      </g>
    </g>
  </g>
</svg>
