<svg xmlns="http://www.w3.org/2000/svg" xmlns:xlink="http://www.w3.org/1999/xlink" width="145" height="145" viewBox="0 0 145 145">
  <defs>
    <clipPath id="clip-path">
      <rect id="Rectángulo_41319" data-name="Rectángulo 41319" width="93.825" height="93.825" fill="none"/>
    </clipPath>
  </defs>
  <g id="Grupo_166244" data-name="Grupo 166244" transform="translate(-1200 -2275)">
    <circle id="Elipse_4886" data-name="Elipse 4886" cx="72.5" cy="72.5" r="72.5" transform="translate(1200 2275)" fill="#fff"/>
    <g id="Grupo_166243" data-name="Grupo 166243" transform="translate(1226 2301)">
      <g id="Grupo_166242" data-name="Grupo 166242" clip-path="url(#clip-path)">
        <path id="Trazado_154351" data-name="Trazado 154351" d="M46.363,0h6.414c1.318.194,2.661.12,3.974.375a47.162,47.162,0,0,1,4.973,1.2,24.061,24.061,0,0,0,3.811.343A23.481,23.481,0,0,1,77.484,7.238a13.368,13.368,0,0,1,1.954,1.787,1.856,1.856,0,0,1,.055,2.494c-1.007.636-1.615.6-2.589-.359a20.622,20.622,0,0,0-3.82-3.121c-3.831-2.282-7.9-3.562-12.41-2.82a10.514,10.514,0,0,0-8.293,6.243,8.07,8.07,0,0,1,5.231-.358c2.869.768,6.1,3.875,5.888,7.6-.151,2.587-.067,5.19-.022,7.785a33.409,33.409,0,0,0,8.637,22.3,34.2,34.2,0,0,0,14.268,9.462.6.6,0,0,0,.086.029c.432.1.965.494,1.282.107.35-.428-.211-.816-.444-1.17a28.3,28.3,0,0,1-4.7-13.053c-.037-.4-.03-.793-.03-1.19,0-5.467-.01-10.933,0-16.4a23.1,23.1,0,0,0-2.266-10.735,1.607,1.607,0,1,1,2.807-1.479,20.781,20.781,0,0,1,2.323,6.9,43.13,43.13,0,0,1,.384,7.572c-.012,1.165.014,1.157,1.149,1.5a9.886,9.886,0,0,1,6.471,6.012,19.727,19.727,0,0,1,.373,2.137v2.932a9.227,9.227,0,0,1-6.042,7.613c-.636.26-.714.572-.488,1.189A27.546,27.546,0,0,0,90.5,56.161a3.369,3.369,0,0,1,.32,3.862A3.079,3.079,0,0,1,88.043,61.8c-.758-.015-.878.3-.715.957a20.7,20.7,0,0,0,1.648,4.353c1.556,3.065.581,5.953-2.451,7.548A78.048,78.048,0,0,1,69.165,81.4c-.649.162-.864.39-.6,1.07,1.255,3.238,1.205,6.629,1.119,10.023a1.357,1.357,0,0,1-1.148,1.334H30.786a1.728,1.728,0,0,1-1.142-1.793A26.822,26.822,0,0,1,30.8,82.669c.334-.971.335-.969-.638-1.247-.7-.2-1.42-.354-2.108-.593-.8-.28-1.508-.7-1.474-1.72.446-1.31,1-1.647,2.341-1.374.987.2,1.944.526,2.922.769a1.009,1.009,0,0,0,1.247-.459,19.509,19.509,0,0,1,3.433-3.914c.594-.528.321-.653-.218-.871a37.128,37.128,0,0,1-9.558-5.7A34.869,34.869,0,0,1,17.874,56.61a5.4,5.4,0,0,0-.484-.881,1.078,1.078,0,0,0-1.176-.287c-.446.093-.391.488-.4.816-.037,1.432,0,2.861-.154,4.3A21.429,21.429,0,0,1,13.543,68c-.137.273-.281.542-.4.821a2,2,0,0,0,.97,2.844A72.411,72.411,0,0,0,23,75.746c1.254.485,1.642,1.113,1.407,2.276a1.632,1.632,0,0,1-2.22.849,64.612,64.612,0,0,1-9.971-4.558,4.945,4.945,0,0,1-2.011-6.725A22.871,22.871,0,0,0,12.6,55.9c-.027-.67-.346-.869-.915-1.015a15.546,15.546,0,0,1-9.939-7.5A13.908,13.908,0,0,1,0,41.965V37.75a13.659,13.659,0,0,1,2.956-7.255,15.5,15.5,0,0,1,8.891-5.761,1.706,1.706,0,0,0,1.3-1.11A39.237,39.237,0,0,1,29.815,5.084,38.842,38.842,0,0,1,43.656.257c.9-.135,1.815-.065,2.707-.257"/>
        <path id="Trazado_154352" data-name="Trazado 154352" d="M94.923,65.484c1.16.837,2.308,1.692,3.487,2.5.333.229.344.364.146.7C94.988,74.734,87.07,80.648,80.187,82.34a27.316,27.316,0,0,0,.2-5.353,5.54,5.54,0,0,0-5.836-5.879c-2.564-.027-5.128.018-7.692-.014A6.433,6.433,0,0,0,63.1,72.28c-.253.1-.409-.064-.542-.229a28.509,28.509,0,0,1-4.412-7.519,4.607,4.607,0,0,1,.352-1.218,4.279,4.279,0,0,0-1.039-4.3c-.31-.319-.714-.591-.728-1.111.64-1.291.412-2.67.364-4.019-.03-.834-.741-1.021-1.4-1.192-.572-.181-.555-.667-.563-1.124a35.722,35.722,0,0,1,1.432-10.654,33.62,33.62,0,0,1,5.4-10.83,2.242,2.242,0,0,1,.928-.855,38.018,38.018,0,0,1,11.46-.678,44.477,44.477,0,0,1,6.394,1.068c.647.146.851.413.855,1.094.02,3.2-.147,6.405.131,9.606a36.426,36.426,0,0,0,3,11.618c.2.447.372.786-.143,1.156a1.09,1.09,0,0,0-.288.93c.009.824.03,1.649-.007,2.471a1.822,1.822,0,0,0,.6,1.46c.088.305-.165.432-.327.594-2.965,2.973-1.506,6.483,1.558,7.9a7.791,7.791,0,0,0,7.91-.57c.275-.177.513-.451.894-.386" transform="translate(-21.103 -10.872)" fill="#fed3bc"/>
        <path id="Trazado_154353" data-name="Trazado 154353" d="M111.568,14.331q.8,1.1,1.609,2.19a1.5,1.5,0,0,0-.443,2.159,21.156,21.156,0,0,1,2.274,10.062c-.014,5.158.049,10.317-.017,15.475A27.658,27.658,0,0,0,119.87,60.23c.262.393.9.783.491,1.334-.434.587-1.036.111-1.5-.059q-19.172-6.952-23-26.994a39.358,39.358,0,0,1-.423-7.757c.018-1.709-.1-3.426.024-5.126C95.728,17.8,92.215,14.664,89,14.1a8.212,8.212,0,0,0-4.859.749A10.461,10.461,0,0,1,88.2,9.693c3.423-2.225,7.158-2.408,11-1.521a20.018,20.018,0,0,1,10.115,5.747c.67.7,1.358,1.028,2.246.412" transform="translate(-32.215 -2.939)" fill="#c67464"/>
        <path id="Trazado_154354" data-name="Trazado 154354" d="M22.929,53.776c-.072,3.79-.072,7.572,1.092,11.243A28.207,28.207,0,0,0,42.063,83.826c1.5.552,2.129.126,2.343-1.48a2.73,2.73,0,0,1,2.58-2.42q4.3-.073,8.609-.006a2.605,2.605,0,0,1,2.567,2.3,20.881,20.881,0,0,1-.014,5.023A2.7,2.7,0,0,1,55.7,89.491,33.006,33.006,0,0,1,22.734,73.1c-.508-.9-.983-1.826-1.41-2.767a1.679,1.679,0,0,0-1.711-1.094A21.788,21.788,0,0,1,13.7,68.8,12.569,12.569,0,0,1,4.464,55.961,12.733,12.733,0,0,1,14.947,44.378a19.864,19.864,0,0,1,4.383-.15,4,4,0,0,1,3.6,4.052c0,.061,0,.122,0,.183v5.312" transform="translate(-1.703 -16.913)" fill="#53a2eb"/>
        <path id="Trazado_154355" data-name="Trazado 154355" d="M66.289,5.083A15.41,15.41,0,0,0,61.67,8.711a13.485,13.485,0,0,0-3.123,6.907c-.1.743-.4.917-1.1.946a39.644,39.644,0,0,0-13.17,2.818A13.051,13.051,0,0,0,37.42,25.7,11.646,11.646,0,0,1,33.988,29.8c-.415.306-.638.393-.967-.162a6.557,6.557,0,0,0-6.066-3.4c-1.024.009-1.044-.014-.6-.96A35.74,35.74,0,0,1,42.248,8.852,36.545,36.545,0,0,1,61.37,4.488a26.569,26.569,0,0,1,4.919.595" transform="translate(-9.985 -1.706)" fill="#ab6757"/>
        <path id="Trazado_154356" data-name="Trazado 154356" d="M34.63,113.117c-.728-.655-1.722-.651-2.558-1.037.143-1.079-.1-1.479-1.219-1.908a80.975,80.975,0,0,1-8.819-4c-1.623-.86-2.006-1.92-1.155-3.52a23.879,23.879,0,0,0,2.53-12.124c-.011-.407-.379-1.1.332-1.229s1.4-.191,1.875.76a35.31,35.31,0,0,0,19.139,17.354c.194.077.422.086.547.344a20.08,20.08,0,0,0-4.415,4.951c-.229.37-.458.38-.828.275-1.113-.315-2.237-.595-3.358-.881s-1.643-.033-2.072,1.016" transform="translate(-7.825 -34.159)" fill="#ab6757"/>
        <path id="Trazado_154357" data-name="Trazado 154357" d="M56.644,29.734a34.6,34.6,0,0,0-6.662,14.02,36.836,36.836,0,0,0-.853,8.567c.006.318,0,.623.411.691a3.345,3.345,0,0,0-.892,2.994,2.44,2.44,0,0,1-.16,1.342c-.344.338-.749.169-1.12.1a7.573,7.573,0,0,0-6.6,1.745c-.2.172-.411.384-.721.206a20.787,20.787,0,0,1-1.174-6.449c-.051-3.2-.01-6.409-.046-9.613a1,1,0,0,1,.627-.979,11.723,11.723,0,0,0,4.75-4.831,12.568,12.568,0,0,1,8.723-6.893,35.288,35.288,0,0,1,3.72-.9" transform="translate(-14.863 -11.384)" fill="#febe9c"/>
        <path id="Trazado_154358" data-name="Trazado 154358" d="M100.257,110.061a37.849,37.849,0,0,0,7.026-3.451,35.363,35.363,0,0,0,10.727-10.593c.351-.538.608-.715,1.208-.339a7.853,7.853,0,0,0,1.985.921,1.614,1.614,0,0,1,1.278,1.6,20.2,20.2,0,0,0,2.206,6.833c.817,1.587.489,2.649-1.066,3.484a76.821,76.821,0,0,1-17.791,6.805.961.961,0,0,1-1.254-.5,19.364,19.364,0,0,0-4.318-4.761" transform="translate(-38.383 -36.553)" fill="#ab6757"/>
        <path id="Trazado_154359" data-name="Trazado 154359" d="M82.812,128.119c3.817,1.41,8.035-.454,9.155-5.25a12.447,12.447,0,0,1,2.726,2.675,17.5,17.5,0,0,1,3.746,12.026c-.015.347-.034.565-.48.555-1.189-.027-2.38-.03-3.569,0-.494.012-.527-.234-.524-.618q.019-2.242,0-4.484c-.008-1.066-.532-1.689-1.376-1.676s-1.356.635-1.365,1.711c-.013,1.464-.023,2.929.007,4.392.01.5-.1.685-.643.678-2.348-.03-4.7-.014-7.047-.012-.337,0-.647.067-.643-.478.022-3.165.01-6.33.01-9.521" transform="translate(-31.7 -47.04)" fill="#acd7fe"/>
        <path id="Trazado_154360" data-name="Trazado 154360" d="M40.8,76.349a12.766,12.766,0,0,1,2.886-1.839,9.135,9.135,0,0,1,5.438-.185,2.224,2.224,0,0,0,2.188,1.055c.326.356.655.709.977,1.069a4.5,4.5,0,0,1,.842,4.726c-.094.285-.218.56-.329.84a5.311,5.311,0,0,1-2.728,2.408,8.5,8.5,0,0,1-4.243.729,23.519,23.519,0,0,1-5.033-8.8" transform="translate(-15.621 -28.331)" fill="#fe8d9d"/>
        <path id="Trazado_154361" data-name="Trazado 154361" d="M65.729,129.411a6.7,6.7,0,0,0,6.963,1.124v1.023c0,2.773-.013,5.546.012,8.318,0,.532-.089.74-.687.73-2.346-.038-4.692-.03-7.038,0-.526.006-.671-.16-.66-.671.03-1.462-.007-2.925.019-4.387A1.86,1.86,0,0,0,63.723,134a.73.73,0,0,1-.147-.686,13.324,13.324,0,0,1,1.559-3.687c.125-.207.3-.406.594-.214" transform="translate(-24.329 -49.514)" fill="#acd7fe"/>
        <path id="Trazado_154362" data-name="Trazado 154362" d="M112.043,82.907a8.064,8.064,0,0,1-9.964.544,4.754,4.754,0,0,1-.338-7.838c.093-.076.178-.161.268-.241,1.321.378,1.833.067,2.244-1.465a39.356,39.356,0,0,0,7.79,9" transform="translate(-38.223 -28.295)" fill="#fe8d9d"/>
        <path id="Trazado_154363" data-name="Trazado 154363" d="M61.67,126.967c-.519.106-.539.607-.726.957a9.759,9.759,0,0,0-1.28,3.631c-1.372-.41-2.124.127-2.139,1.556-.015,1.464-.027,2.929.008,4.393.012.53-.164.67-.671.654-1.1-.035-2.2-.022-3.294,0-.4.007-.595-.06-.61-.537a17.544,17.544,0,0,1,5.831-14.225c.158-.143.327-.275.5-.4.04-.03.11-.02.236-.038a7.416,7.416,0,0,0,2.146,4.017" transform="translate(-20.27 -47.071)" fill="#87c4fc"/>
        <path id="Trazado_154364" data-name="Trazado 154364" d="M139.064,66.991a24.829,24.829,0,0,1-.481-5.838c0-2.287.015-4.575-.009-6.862-.006-.526.1-.7.655-.551a7.029,7.029,0,0,1,4.9,6.494,6.893,6.893,0,0,1-4.705,6.7,2.885,2.885,0,0,1-.357.057" transform="translate(-53.052 -20.555)" fill="#febe9c"/>
        <path id="Trazado_154365" data-name="Trazado 154365" d="M48.958,90.123a14.417,14.417,0,0,1,2.653-.42,8.459,8.459,0,0,0,4.318-2.717,36.553,36.553,0,0,0,4.424,7.355,4.1,4.1,0,0,0,.384.368,5.455,5.455,0,0,0-1.432,1.857c-.247.761-.617.579-1.128.357a25.628,25.628,0,0,1-7.284-4.756,14.477,14.477,0,0,1-1.935-2.045" transform="translate(-18.743 -33.303)" fill="#febe9c"/>
        <path id="Trazado_154366" data-name="Trazado 154366" d="M74.348,123.119c.285.98-.31,1.407-1.05,1.752a3.851,3.851,0,0,1-5.31-3.062c-.05-.556.09-.648.643-.52a21.931,21.931,0,0,0,4.6.618c.891.013,1.45.18,1.121,1.212" transform="translate(-26.025 -46.416)" fill="#87c4fb"/>
        <path id="Trazado_154367" data-name="Trazado 154367" d="M82.835,123.106c-.272-.97.179-1.194,1.073-1.195a24.247,24.247,0,0,0,4.795-.627c.475-.1.512.058.481.444a3.876,3.876,0,0,1-5.1,3.249c-.83-.326-1.59-.752-1.25-1.872" transform="translate(-31.681 -46.422)" fill="#87c4fb"/>
        <path id="Trazado_154368" data-name="Trazado 154368" d="M92.177,24.476a48.167,48.167,0,0,0-6.8-1.062c1.826-1.738,5.145-1.249,6.8,1.062" transform="translate(-32.685 -8.565)" fill="#aa6656"/>
        <path id="Trazado_154369" data-name="Trazado 154369" d="M77.274,76.5a6.493,6.493,0,0,1-4.7-2.032,1.4,1.4,0,0,1-.121-2.1,1.364,1.364,0,0,1,2.025.123q2.809,2.556,5.667-.01a1.377,1.377,0,1,1,1.953,1.927A6.5,6.5,0,0,1,77.274,76.5" transform="translate(-27.577 -27.557)"/>
        <path id="Trazado_154370" data-name="Trazado 154370" d="M56.479,72.873c-1.237.4-1.733.16-2.188-1.055.009-.849.06-1.7.017-2.547a1.628,1.628,0,0,1,1.155-1.819c1.272.189,1.6.566,1.605,1.855,0,.67-.026,1.342.008,2.01a1.905,1.905,0,0,1-.6,1.556" transform="translate(-20.785 -25.823)" fill="#010101"/>
        <path id="Trazado_154371" data-name="Trazado 154371" d="M90.057,139.564a1.331,1.331,0,0,1-1.442,1.313,1.369,1.369,0,0,1-1.292-1.387,1.415,1.415,0,0,1,1.366-1.34,1.381,1.381,0,0,1,1.367,1.414" transform="translate(-33.431 -52.89)" fill="#020303"/>
      </g>
    </g>
  </g>
</svg>
