<svg id="Grupo_166179" data-name="Grupo 166179" xmlns="http://www.w3.org/2000/svg" xmlns:xlink="http://www.w3.org/1999/xlink" width="215.263" height="471.053" viewBox="0 0 215.263 471.053">
  <defs>
    <clipPath id="clip-path">
      <rect id="Rectángulo_40964" data-name="Rectángulo 40964" width="160.133" height="471.053" fill="none"/>
    </clipPath>
    <clipPath id="clip-path-2">
      <rect id="Rectángulo_38703" data-name="Rectángulo 38703" width="3.722" height="1.743" fill="none"/>
    </clipPath>
  </defs>
  <g id="Grupo_157493" data-name="Grupo 157493" transform="translate(0 0)">
    <path id="Trazado_114544" data-name="Trazado 114544" d="M156.894,466.879c-29.875-13.553-60.858-31.84-72.89-62.423-13.353-33.941.624-71.952.288-108.436-.267-28.9-9.608-56.814-16.957-84.762s-12.748-57.644-5.164-85.53C67.247,107.06,78.029,90.17,91.949,76.768c24.512-23.6,59.828-36.372,93.384-30.974s64.04,29.992,73.85,62.616c13.9,46.221-13.251,95.562-7.48,143.49,2.257,18.754,9.483,36.489,14.383,54.729a224.774,224.774,0,0,1,7.678,59.544c-.183,30.766-7.96,63.59-30.851,84.078C219.822,470.917,185.461,479.84,156.894,466.879Z" transform="translate(-58.504 -37.629)" fill="#ffdfe0"/>
    <g id="Grupo_165660" data-name="Grupo 165660" transform="translate(20.419)">
      <g id="Grupo_165662" data-name="Grupo 165662" clip-path="url(#clip-path)">
        <path id="Trazado_151051" data-name="Trazado 151051" d="M66.816,501.849H18.06a7.711,7.711,0,0,1-7.263-5.116,6.774,6.774,0,0,1-.307-1.017l-.339-22.384-.032-1.614L9.087,403.4l35.07-.564-2.776,68.881s-.065,1.42-.065,1.614h.017c.387,0,4.2,2.824,8.941,6.5.453.339.9.71,1.372,1.065.435.339.871.678,1.307,1.033.484.371.984.758,1.485,1.162.678.549,1.371,1.1,2.066,1.646l1.5,1.211C64.266,490.972,70,495.8,70.48,496.733c.016.032.032.049.032.065.016.032.016.065.032.1a3.855,3.855,0,0,1-3.728,4.955" transform="translate(-0.695 -30.799)" fill="#f9b3a2"/>
        <path id="Trazado_151052" data-name="Trazado 151052" d="M10.947,504.51a7.712,7.712,0,0,0,7.263,5.115H66.965a3.855,3.855,0,0,0,3.728-4.954c-.017-.032-.017-.065-.032-.1,0-.017-.017-.032-.032-.065Z" transform="translate(-0.837 -38.573)" fill="#2f3f4f"/>
        <path id="Trazado_151053" data-name="Trazado 151053" d="M41.466,477.42s-.065,1.42-.065,1.613H10.237L10.2,477.42Z" transform="translate(-0.78 -36.502)" fill="#2f3f4f"/>
        <rect id="Rectángulo_40962" data-name="Rectángulo 40962" width="1.613" height="24.912" transform="translate(12.508 442.112)" fill="#2f3f4f"/>
        <path id="Trazado_151054" data-name="Trazado 151054" d="M163.009,501.849H104.57a7.711,7.711,0,0,1-7.263-5.116A6.772,6.772,0,0,1,97,495.716l-1.307-22.384-.1-1.614L88.738,403.4l35.054-.564,4.1,68.881s-.065,1.42-.065,1.614v.065c.032.064,3.68,2.1,8.748,4.954.839.485,1.727.985,2.647,1.485,1.452.84,2.969,1.695,4.519,2.582.468.274.952.549,1.42.823q1.015.582,2.033,1.162c.533.307,1.081.63,1.614.936,8.844,5.1,17.236,10.184,17.866,11.394.016.032.032.049.032.065.016.032.016.065.031.1a3.854,3.854,0,0,1-3.727,4.955" transform="translate(-6.785 -30.799)" fill="#f9b3a2"/>
        <path id="Trazado_151055" data-name="Trazado 151055" d="M98.019,504.51a7.712,7.712,0,0,0,7.263,5.115h58.439a3.854,3.854,0,0,0,3.727-4.954c-.016-.032-.016-.065-.032-.1,0-.017-.016-.032-.032-.065Z" transform="translate(-7.494 -38.573)" fill="#2f3f4f"/>
        <path id="Trazado_151056" data-name="Trazado 151056" d="M96.166,477.423l.1,1.613H128.4c0-.193.031-.726.064-1.613Z" transform="translate(-7.353 -36.502)" fill="#2f3f4f"/>
        <rect id="Rectángulo_40963" data-name="Rectángulo 40963" width="1.613" height="25.296" transform="translate(104.06 441.727)" fill="#2f3f4f"/>
        <path id="Trazado_151057" data-name="Trazado 151057" d="M107.892,78.634a38.81,38.81,0,0,1,15.8,21.919c4.035,14.928,10.894,64.959,8.013,76.474-2.973,11.885-25.707,18.2-32.821-2.578S85.911,134.041,86.34,132.024s21.552-53.39,21.552-53.39" transform="translate(-6.6 -6.012)" fill="#f9b3a2"/>
        <path id="Trazado_151058" data-name="Trazado 151058" d="M95.293,171.912H27.919s-5.655-34.085-5.655-52.452c0-18.35-1.8-32.333,8.694-41.452,5.2-4.519,16.466-8.3,23.47-11.032.516-.193,1.033-.387,1.533-.581,6.456-2.421,11.492-3.824,11.492-3.824s7.5,0,21.19,5.116a43.208,43.208,0,0,1,11.54,7.2c.533.452,1.081.92,1.613,1.4,5.81,5.261,10.8,12.055,11.25,18.56.806,11.507-17.753,77.063-17.753,77.063" transform="translate(-1.693 -4.784)" fill="#f9b3a2"/>
        <path id="Trazado_151059" data-name="Trazado 151059" d="M71.142,44.2a6.752,6.752,0,0,0,.6.552,2.437,2.437,0,0,0,.3.268,3.167,3.167,0,0,0,.346.3,18.283,18.283,0,0,0,6.17,3.3,17.642,17.642,0,0,0,3.061.646,18.042,18.042,0,0,0,19.439-12.639,18.634,18.634,0,0,0,.773-4.464v-.127a18,18,0,0,0-1.057-6.753l.015-.016a19.056,19.056,0,0,0-.961-2.178s-.048-.1-.142-.253a18.009,18.009,0,0,0-33.1,3.3c-2.02,6.627,1.072,14.469,4.56,18.066" transform="translate(-5.042 -1.02)" fill="#f9b3a2"/>
        <path id="Trazado_151060" data-name="Trazado 151060" d="M102.07,31.284s.936,13.223-.786,20.764C99.151,61.384,89.412,61.464,81.39,56.3S70.632,41.859,70.632,41.859,86.344,34.584,88.353,34.6s13.717-3.319,13.717-3.319" transform="translate(-5.4 -2.392)" fill="#f9b3a2"/>
        <path id="Trazado_151061" data-name="Trazado 151061" d="M88.893,54.789l-.127,5.443-.016.568v.016l-.094,4.939-.016.552-.221,9.766L76.7,78.188l-13.08-3.8,8.315-33.418L81.982,52.059Z" transform="translate(-4.864 -3.132)" fill="#f9b3a2"/>
        <path id="Trazado_151062" data-name="Trazado 151062" d="M90.1,61.442l-.016.568v.016l-.1,4.939a17.169,17.169,0,0,1-2.477-1.215c-3.14-1.94-6.279-8-6.468-8.378a31,31,0,0,0,3.408,1.846c1.7.757,4.971,1.973,5.648,2.225" transform="translate(-6.196 -4.386)" fill="#2f3f4f"/>
        <path id="Trazado_151063" data-name="Trazado 151063" d="M98.39,48.947l-10.013-.21s.355,2.6,4.515,3.229a4.955,4.955,0,0,0,5.5-3.019" transform="translate(-6.757 -3.726)" fill="#fff"/>
        <path id="Trazado_151064" data-name="Trazado 151064" d="M69.806,43.7a6.753,6.753,0,0,0,.6.552,2.5,2.5,0,0,0,.3.268c.262-.857.8-5.581,2.8-7.243,1.87-1.55,5.885-8.669,6.052-9.552.757-4.182-.138-2.023,2.231-4.319s11.408-2.951,14.39-2.43a5.141,5.141,0,0,1,3.486,1.83c-2.177-4.04-5.4-7.58-10.13-9.016A18.734,18.734,0,0,0,66.565,26.107c-2.02,6.626-.246,14,3.242,17.6" transform="translate(-5.024 -0.997)" fill="#2f3f4f"/>
        <path id="Trazado_151065" data-name="Trazado 151065" d="M67.985,36.988c0,3.522,2.217,6.378,4.952,6.378s4.952-2.856,4.952-6.378-2.217-6.378-4.952-6.378-4.952,2.856-4.952,6.378" transform="translate(-5.198 -2.34)" fill="#f9b3a2"/>
        <path id="Trazado_151066" data-name="Trazado 151066" d="M94.016,20.348a34.828,34.828,0,0,1-.3,6.213,6.643,6.643,0,0,1-1.743,3.805H78.5l1.183-8.341s4.347-2.366,6.94-2.695,7.392,1.019,7.392,1.019" transform="translate(-6.002 -1.474)" fill="#2f3f4f"/>
        <path id="Trazado_151067" data-name="Trazado 151067" d="M94.588,20.375A11.691,11.691,0,0,1,97.152,25.5a12.513,12.513,0,0,1,0,4.923h7.627s.854-4.595-1.578-8.078-8.612-1.973-8.612-1.973" transform="translate(-7.232 -1.533)" fill="#2f3f4f"/>
        <path id="Trazado_151068" data-name="Trazado 151068" d="M75.231,14.634S74.179,4.615,66.948,1.459,50.972.268,47.915,7.337c-2.231,5.16-4.5,10.65-9.105,12.886s-6.311,4.262-6.837,8.048l-.526,3.786,20.381,1.183a16.388,16.388,0,0,0,5.21-8.2c1.426-5.873-1.791-8.114,3.206-12.716s12.491,3.3,12.491,3.3Z" transform="translate(-2.404 0)" fill="#2f3f4f"/>
        <path id="Trazado_151069" data-name="Trazado 151069" d="M74.315,41.979a1.467,1.467,0,1,1-1.468-1.467,1.467,1.467,0,0,1,1.468,1.467" transform="translate(-5.458 -3.097)" fill="#fff"/>
        <path id="Trazado_151070" data-name="Trazado 151070" d="M22.279,126.866s12.955,4.325,24.05-3.946c8.14-6.068,17.456-17.955,17.456-17.955l19.4,16.946L101.2,104.965s7.342,11.685,8.513,20.368-14.407,49.829-14.407,49.829L58.837,188.686,24.9,175.162Z" transform="translate(-1.703 -8.025)" fill="#ffeae6"/>
        <path id="Trazado_151071" data-name="Trazado 151071" d="M120.315,438.826H0s2.146-182.87,6.585-208.256c2.727-15.59,8.376-30.745,12.33-40.106,2.469-5.89,4.277-9.489,4.277-9.489H93.606a102.627,102.627,0,0,1,5.374,9.489c5.374,10.555,12.943,28.873,13.928,49.628,1.178,24.6,7.408,198.735,7.408,198.735" transform="translate(0 -13.837)" fill="#4663ab"/>
        <path id="Trazado_151072" data-name="Trazado 151072" d="M58.093,210.539c-.175-.389-.5-1.113,36.052-96.486l1.507.577c-9.87,25.754-35.581,93.138-36.025,95.644l-.676-.119Z" transform="translate(-4.44 -8.72)" fill="#2f3f4f"/>
        <path id="Trazado_151073" data-name="Trazado 151073" d="M100.546,190.463H20.48c2.47-5.89,4.277-9.489,4.277-9.489H95.172a102.467,102.467,0,0,1,5.374,9.489" transform="translate(-1.566 -13.837)" fill="#2f3f4f"/>
        <path id="Trazado_151074" data-name="Trazado 151074" d="M41.4,180.974l-.436,9.489-.194,4.067-1.613-.065.194-4,.436-9.489Z" transform="translate(-2.994 -13.837)" fill="#4663ab"/>
        <path id="Trazado_151075" data-name="Trazado 151075" d="M101.152,194.466l-1.613.065-.194-4.067-.436-9.489h1.613l.436,9.489Z" transform="translate(-7.562 -13.837)" fill="#4663ab"/>
        <path id="Trazado_151076" data-name="Trazado 151076" d="M67.93,104.672l-1.582.387L57.1,67.294c.516-.194,1.033-.388,1.533-.581Z" transform="translate(-4.366 -5.101)" fill="#ffeae6"/>
        <path id="Trazado_151077" data-name="Trazado 151077" d="M108.256,77.309v27.258h-1.614V75.905c.533.452,1.081.92,1.614,1.4" transform="translate(-8.154 -5.803)" fill="#ffe7cf"/>
        <path id="Trazado_151078" data-name="Trazado 151078" d="M54.439,93.762s26.124,76.51,26.17,76.623c.488,1.223-5.215,6.316-6.054,7.168-5.2,5.274-13.345,11.885-21.321,9.923-6.678-1.642-10.217-9.086-13.171-14.61-7.955-14.877-11.462-26.808-16.543-42.857-.421-1.331-.84-2.663-1.24-4L33.86,107.127Z" transform="translate(-1.703 -7.169)" fill="#f9b3a2"/>
        <path id="Trazado_151079" data-name="Trazado 151079" d="M106.334,103.02s-1.565,6.343-4.1,15.574c-.791,2.873-1.662,6-2.63,9.329-6.666,23.143-16.994,54.743-24.95,59.618-14.493,8.876-26.178-4.439-26.178-4.439L63.1,134.894l6.343-16.543,3.486-9.054,5.81-15.154Z" transform="translate(-3.706 -7.198)" fill="#f9b3a2"/>
        <path id="Trazado_151080" data-name="Trazado 151080" d="M91.935,125.146l7.982,47.168,19.252,1.047s-1.132-28.244-1.474-30.261,2.482-24.814,2.482-24.814-4.169-21.855-4.439-26.966a31.152,31.152,0,0,0-2.459-9.378,49.258,49.258,0,0,0-3.032-7.156c-1.417-2.43-3.4-3.607-5.994-4.572a38.526,38.526,0,0,0-11.677-2.383c-3.421-.133-9.384,12.594-9.922,14.611s9.28,42.7,9.28,42.7" transform="translate(-6.318 -5.186)" fill="#f9b3a2"/>
        <path id="Trazado_151081" data-name="Trazado 151081" d="M106.181,120.543l-2.889,9.247-1.952-.613-30.164-9.57,3.486-9.054,29.308,9.3Z" transform="translate(-5.442 -8.452)" fill="#a66353"/>
        <path id="Trazado_151082" data-name="Trazado 151082" d="M91.668,118.731a6.758,6.758,0,1,0-6.758,6.758,6.759,6.759,0,0,0,6.758-6.758" transform="translate(-5.975 -8.561)" fill="#fff"/>
        <path id="Trazado_151083" data-name="Trazado 151083" d="M75.965,106.765l-1.506-.578,3.388-8.83c.3-.787,1.21-4.543,2.173-8.521,1.385-5.721,2.953-12.206,3.846-14.721,1.649-4.647,6.758-6.489,6.974-6.565a.807.807,0,0,1,.537,1.522c-.046.016-4.6,1.672-5.987,5.582-.865,2.437-2.493,9.16-3.8,14.561-1.176,4.859-1.912,7.879-2.235,8.72Z" transform="translate(-5.693 -5.161)" fill="#2f3f4f"/>
        <path id="Trazado_151084" data-name="Trazado 151084" d="M129.58,160.14a.805.805,0,0,1-.792-.669L115.933,85.818a.806.806,0,1,1,1.588-.277l12.855,73.654a.806.806,0,0,1-.8.946" transform="translate(-8.863 -6.489)" fill="#2f3f4f"/>
        <path id="Trazado_151085" data-name="Trazado 151085" d="M55.212,160.023a.825.825,0,0,1-.29-.054.809.809,0,0,1-.464-1.044L65.748,129.6a.807.807,0,1,1,1.507.58L55.966,159.506a.807.807,0,0,1-.754.517" transform="translate(-4.16 -9.87)" fill="#2f3f4f"/>
        <path id="Trazado_151086" data-name="Trazado 151086" d="M97.88,147.686a.788.788,0,0,1-.274-.048.807.807,0,0,1-.484-1.034c.112-.311,11.289-31.2,12.144-34.876.524-2.252.2-6.832-.151-11.68-.208-2.919-.424-5.939-.474-8.7-.134-7.287-.765-15.368-.771-15.449a.806.806,0,0,1,.741-.867.831.831,0,0,1,.867.742c.006.081.643,8.208.777,15.544.049,2.717.263,5.715.471,8.614.355,4.974.691,9.671.114,12.16-.876,3.77-11.736,33.786-12.2,35.061a.807.807,0,0,1-.758.532" transform="translate(-7.422 -5.737)" fill="#2f3f4f"/>
        <path id="Trazado_151087" data-name="Trazado 151087" d="M102.728,95.573l-1.611-.08s.706-14.23.9-17.388a7.944,7.944,0,0,1,3.289-5.633.808.808,0,0,1,.907,1.336,6.4,6.4,0,0,0-2.585,4.393c-.191,3.157-.9,17.371-.9,17.372" transform="translate(-7.731 -5.53)" fill="#2f3f4f"/>
        <path id="Trazado_151088" data-name="Trazado 151088" d="M94.278,94.828a.658.658,0,0,1-.074,0,.806.806,0,0,1-.731-.875c.052-.579,1.278-14.236,2.3-17.992a11.134,11.134,0,0,1,4.437-6.123.807.807,0,0,1,.855,1.369,9.661,9.661,0,0,0-3.735,5.175C96.346,80,95.093,93.952,95.081,94.093a.807.807,0,0,1-.8.735" transform="translate(-7.146 -5.33)" fill="#2f3f4f"/>
        <path id="Trazado_151089" data-name="Trazado 151089" d="M87.288,93.946c-.027,0-.054,0-.08,0a.809.809,0,0,1-.725-.882c.011-.1,1.023-10.38,1.926-15.328a17.367,17.367,0,0,1,4.786-8.788.807.807,0,0,1,1.1,1.183A15.992,15.992,0,0,0,90,78.023c-.892,4.884-1.9,15.093-1.907,15.2a.808.808,0,0,1-.8.729" transform="translate(-6.612 -5.255)" fill="#2f3f4f"/>
        <path id="Trazado_151090" data-name="Trazado 151090" d="M62.2,109.625a.811.811,0,0,1-.765-.546L58.06,99.2a.808.808,0,0,1,1.528-.522l3.375,9.88a.808.808,0,0,1-.5,1.024.8.8,0,0,1-.26.043" transform="translate(-4.436 -7.503)" fill="#2f3f4f"/>
        <path id="Trazado_151091" data-name="Trazado 151091" d="M153.646,492.091v13.96h-1.613v-14.9c.532.307,1.081.63,1.613.936" transform="translate(-11.624 -37.552)" fill="#2f3f4f"/>
        <path id="Trazado_151092" data-name="Trazado 151092" d="M75.064,440.9a.807.807,0,0,1-.807-.8L72.521,264.585a.807.807,0,0,1,.8-.815.76.76,0,0,1,.815.8l1.735,175.511a.807.807,0,0,1-.8.815Z" transform="translate(-5.545 -20.167)" fill="#2f3f4f"/>
        <path id="Trazado_151093" data-name="Trazado 151093" d="M108.7,81a2.7,2.7,0,0,0,.7-.155c.112-.034.211-.085.317-.127a3.264,3.264,0,0,0,.3-.15,4.464,4.464,0,0,0,1.051-.809l.218-.228-.088-.208c-.868-2.046-1.758-4.084-2.753-6.082.61,2.147,1.324,4.253,2.061,6.35l.13-.435a4.456,4.456,0,0,0-1.1.734,3.194,3.194,0,0,0-.239.235c-.074.087-.154.164-.222.259A2.7,2.7,0,0,0,108.7,81" transform="translate(-20.444 -38.933)" fill="#af593c"/>
        <g id="Grupo_165663" data-name="Grupo 165663" transform="translate(86.547 40.346)" opacity="0.5">
          <g id="Grupo_161778" data-name="Grupo 161778" transform="translate(0)">
            <g id="Grupo_161777" data-name="Grupo 161777" clip-path="url(#clip-path-2)">
              <path id="Trazado_142708" data-name="Trazado 142708" d="M113.633,88.532,109.911,90l1.816.274Z" transform="translate(-109.911 -88.532)" fill="#af593c"/>
            </g>
          </g>
        </g>
        <path id="Trazado_151094" data-name="Trazado 151094" d="M100.544,71.813l-.108.429c-.041.133-.081.289-.146.467a6,6,0,0,1-.234.577,4.858,4.858,0,0,1-.351.622,3.552,3.552,0,0,1-.49.586,2.268,2.268,0,0,1-.627.434,1.441,1.441,0,0,1-.349.124c-.061.009-.12.028-.181.031l-.091,0-.046,0-.022,0h-.02c.013,0-.033,0,.029,0l-.237-.013c-.077-.005-.108-.023-.165-.03a1.475,1.475,0,0,1-.342-.121,2.314,2.314,0,0,1-.626-.435,3.6,3.6,0,0,1-.489-.585,5.733,5.733,0,0,1-.352-.622,6.1,6.1,0,0,1-.234-.577c-.065-.177-.106-.338-.146-.471-.069-.271-.108-.426-.108-.426l-.02.114a3.3,3.3,0,0,0-.049.327,3.594,3.594,0,0,0-.012.517,3.444,3.444,0,0,0,.083.675,3.387,3.387,0,0,0,.253.781,3.118,3.118,0,0,0,.5.8,2.619,2.619,0,0,0,.814.67,2.285,2.285,0,0,0,.535.207c.1.021.218.051.3.058l.236.02h.068l.036,0,.073-.006.145-.013a2.772,2.772,0,0,0,.283-.058,2.313,2.313,0,0,0,.527-.205,2.644,2.644,0,0,0,.814-.67,3.131,3.131,0,0,0,.5-.8,3.411,3.411,0,0,0,.254-.781,3.478,3.478,0,0,0,.083-.675,3.643,3.643,0,0,0-.012-.52c-.009-.141-.039-.249-.049-.324l-.02-.114" transform="translate(-4.523 -38.067)" fill="#1b262c"/>
        <path id="Trazado_151095" data-name="Trazado 151095" d="M139.064,74.619l-.108.429c-.041.133-.081.29-.146.468a5.871,5.871,0,0,1-.234.577,4.833,4.833,0,0,1-.351.622,3.556,3.556,0,0,1-.49.586,2.269,2.269,0,0,1-.627.434,1.458,1.458,0,0,1-.349.124c-.061.009-.12.028-.181.031l-.091,0-.046,0-.023,0h-.02c.013,0-.033,0,.029,0l-.237-.013c-.077-.006-.108-.023-.165-.03a1.476,1.476,0,0,1-.342-.121,2.314,2.314,0,0,1-.626-.435,3.586,3.586,0,0,1-.489-.586,3.08,3.08,0,0,1-.19-.313,3.179,3.179,0,0,1-.162-.309,6.053,6.053,0,0,1-.234-.577c-.065-.177-.106-.338-.146-.471-.069-.271-.108-.426-.108-.426l-.02.114c-.01.074-.039.186-.049.327a3.6,3.6,0,0,0-.012.517,3.436,3.436,0,0,0,.083.675,3.375,3.375,0,0,0,.253.781,3.118,3.118,0,0,0,.5.8,2.625,2.625,0,0,0,.814.67,2.273,2.273,0,0,0,.535.207,3,3,0,0,0,.3.058l.236.02h.068l.036,0,.073-.006.145-.013a2.671,2.671,0,0,0,.283-.058,2.314,2.314,0,0,0,.527-.205,2.642,2.642,0,0,0,.814-.67,3.152,3.152,0,0,0,.5-.8,3.428,3.428,0,0,0,.253-.781,3.476,3.476,0,0,0,.083-.675,3.647,3.647,0,0,0-.012-.52c-.009-.141-.039-.249-.049-.324l-.02-.114" transform="translate(-58.249 -39.765)" fill="#1b262c"/>
      </g>
    </g>
  </g>
</svg>
