<svg xmlns="http://www.w3.org/2000/svg" xmlns:xlink="http://www.w3.org/1999/xlink" width="145" height="145" viewBox="0 0 145 145">
  <defs>
    <clipPath id="clip-path">
      <rect id="Rectángulo_41316" data-name="Rectángulo 41316" width="73.516" height="103.162" fill="none"/>
    </clipPath>
  </defs>
  <g id="Grupo_166235" data-name="Grupo 166235" transform="translate(-1200 -1932)">
    <circle id="Elipse_4881" data-name="Elipse 4881" cx="72.5" cy="72.5" r="72.5" transform="translate(1200 1932)" fill="#fff"/>
    <g id="Grupo_166234" data-name="Grupo 166234" transform="translate(1236 1953)">
      <g id="Grupo_166233" data-name="Grupo 166233" clip-path="url(#clip-path)">
        <path id="Trazado_154268" data-name="Trazado 154268" d="M60.94,37.011c4.082.368,6.412,2.882,6.418,6.9q.018,10.482-.012,20.963a1.462,1.462,0,0,0,.778,1.449,7.053,7.053,0,0,1,3.483,5.586c.392,4.759.7,9.525,1.024,14.289.3,4.445.616,8.889.872,13.337.143,2.5-.979,3.63-3.459,3.63q-33.318,0-66.635,0c-2.42,0-3.562-1.31-3.393-3.708C.5,92.592.938,85.728,1.408,78.866c.17-2.487.292-4.983.6-7.455a6.934,6.934,0,0,1,3.464-5.137,1.271,1.271,0,0,0,.682-1.268Q6.126,54.738,6.141,44.47c0-4.359,1.672-6.471,5.971-7.481a8.319,8.319,0,0,1-1.541-6.645,7.553,7.553,0,0,1,1.888-3.763,2.129,2.129,0,0,0,.6-1.618c0-2.566-.084-5.141.088-7.7A18.413,18.413,0,0,1,31.058.1,34.9,34.9,0,0,1,38.634.31a10.143,10.143,0,0,1,6.032,3.579.9.9,0,0,0,1.237.292A10.681,10.681,0,0,1,60.462,14.2c.04,3.779.006,7.559.011,11.338a1.753,1.753,0,0,0,.26,1.209c2.568,3.321,2.478,6.726.208,10.261" transform="translate(0 0)"/>
        <path id="Trazado_154269" data-name="Trazado 154269" d="M67.069,45.287c-.111,2.072.259,5.072-.187,8.052a15.828,15.828,0,0,1-31.054,1.013,15.042,15.042,0,0,1-.4-3.173c-.009-4.242.006-8.484-.019-12.725,0-.756.067-.965.982-.841,6.849.929,12.919-.613,17.689-5.928.385-.43.588-.408,1-.061a17.863,17.863,0,0,0,10.256,3.932c1.729.146,1.732.123,1.732,1.864,0,2.317,0,4.633,0,7.867" transform="translate(-14.742 -13.058)" fill="#f8c0a7"/>
        <path id="Trazado_154270" data-name="Trazado 154270" d="M69.1,20.091c0,1.746-.029,3.492.013,5.237.018.756-.2.861-.842.54a5.852,5.852,0,0,0-2.262-.547c-.638-.041-.743-.3-.758-.857-.055-1.954-.693-2.527-2.684-2.594a16.945,16.945,0,0,1-9.656-3.183,8.773,8.773,0,0,1-.746-.6c-1.154-1.05-2.185-1.057-3.244.1a17.108,17.108,0,0,1-6.465,4.763,19.05,19.05,0,0,1-10.665.775,1.694,1.694,0,0,0-1.909.581c-.818,1.6-2.5.847-3.625,1.519-.256.152-.344-.159-.346-.376-.025-4.694-.289-9.436,2.346-13.667a16.027,16.027,0,0,1,12.38-7.908,31.367,31.367,0,0,1,8.188.036,8.031,8.031,0,0,1,5.509,3.516c.812,1.168,1.077,1.238,2.371.606A8.524,8.524,0,0,1,69.1,15.815q0,2.138,0,4.276" transform="translate(-10.782 -1.511)" fill="#414344"/>
        <path id="Trazado_154271" data-name="Trazado 154271" d="M102.917,141.365c0-1.531,0-3.063,0-4.594a7.221,7.221,0,0,1,.656-3.124,5.16,5.16,0,0,0-.334-5.275,1.739,1.739,0,0,1-.327-1.082c.006-4.381.013-8.762-.007-13.143,0-.637.065-.913.818-.692,1.5.441,3.037.745,4.537,1.179a5.185,5.185,0,0,1,4.055,4.688c.337,3.363.518,6.743.749,10.117q.584,8.525,1.139,17.051c.11,1.726.063,1.739-1.663,1.74-2.92,0-5.842-.025-8.761.017-.72.01-.893-.215-.878-.9.043-1.994.015-3.989.015-5.983" transform="translate(-42.845 -47.208)" fill="#70d5f8"/>
        <path id="Trazado_154272" data-name="Trazado 154272" d="M4.581,133.36q.457-6.823.913-13.646a5.55,5.55,0,0,1,3.956-5.048c1.6-.466,3.24-.817,4.851-1.256.588-.16.652.088.651.575-.011,4.489-.006,8.979-.008,13.468a1.192,1.192,0,0,1-.145.714,5.339,5.339,0,0,0-.021,6.273,1.37,1.37,0,0,1,.166.814c0,4.062-.008,8.124.014,12.186,0,.575-.107.8-.748.8q-4.7-.05-9.406,0c-.981.009-1.214-.453-1.15-1.334.325-4.511.622-9.025.929-13.538" transform="translate(-1.517 -47.2)" fill="#70d5f8"/>
        <path id="Trazado_154273" data-name="Trazado 154273" d="M97.752,81.689c0,3.495-.012,6.989.011,10.484,0,.687-.085.972-.881.714A34.039,34.039,0,0,0,93.365,92a.807.807,0,0,1-.776-.91c-.094-2.6-1.19-3.621-3.806-3.622-.927,0-1.855.03-2.781-.008a3.506,3.506,0,0,0-2.735.961c-.146.142-.271.385-.521.233-.168-.1-.134-.3-.1-.484a1.062,1.062,0,0,0-.616-1.237.952.952,0,0,0-1.241.3c-.309.379-.54.183-.8-.029a4.55,4.55,0,0,1-1.77-3.177c-.041-.424.019-.862-.048-1.28a2.167,2.167,0,0,1,1.16-2.336,17.438,17.438,0,0,0,7.427-11.66c.106-.584.289-.766.867-.776a4.189,4.189,0,0,0,1.67-.3,8.557,8.557,0,0,1,3.864-.543,4.249,4.249,0,0,1,4.586,4.6c.014,3.316,0,6.632,0,9.949" transform="translate(-32.534 -27.952)" fill="#528fda"/>
        <path id="Trazado_154274" data-name="Trazado 154274" d="M14.178,81.755c0-3.314-.007-6.628,0-9.942.009-2.962,1.763-4.613,4.737-4.726,1.408-.053,2.63.63,3.944.7,1.464.076,1.809.744,2.105,2.047A17.2,17.2,0,0,0,32.895,80.9a1.805,1.805,0,0,1,.943,1.787,5.277,5.277,0,0,1-1.739,4.4c-.337.285-.629.563-1.038.025a.871.871,0,0,0-1.167-.178,1.036,1.036,0,0,0-.576,1.054c.011.229.159.54-.152.659-.3.113-.39-.24-.587-.367-.029-.019-.052-.048-.079-.071-1.311-1.055-6.563-1.128-7.894-.106a3.051,3.051,0,0,0-1.26,2.693c.047.809-.245,1.124-1.022,1.265a28.785,28.785,0,0,0-3.31.826c-.7.214-.853.034-.848-.658.027-3.492.013-6.984.013-10.476" transform="translate(-5.898 -27.932)" fill="#528fda"/>
        <path id="Trazado_154275" data-name="Trazado 154275" d="M45.639,111.875a14.634,14.634,0,0,0,20.264-.024c-1.433,7.12-2.834,14.074-4.276,21.237-1.314-2.484-3.419-2.868-5.849-2.866-2.391,0-4.477.35-5.86,2.866-1.455-7.214-2.859-14.17-4.279-21.213" transform="translate(-19.003 -46.571)" fill="#70d5f8"/>
        <path id="Trazado_154276" data-name="Trazado 154276" d="M49.1,93.373a18.532,18.532,0,0,0,13.389-.238c0,.5-.006.9,0,1.308a6.5,6.5,0,0,0,2.79,5.381c.58.423.707.65.244,1.279a12.171,12.171,0,0,1-19.564-.05c-.21-.291-.7-.58-.06-1.006a6.9,6.9,0,0,0,3.141-6.288,2.7,2.7,0,0,1,.059-.385" transform="translate(-18.98 -38.779)" fill="#f8c0a7"/>
        <path id="Trazado_154277" data-name="Trazado 154277" d="M56.094,165q-3.743,0-7.485,0c-1.435,0-1.847-.413-1.848-1.822q0-3.849,0-7.7c0-1.407.414-1.816,1.851-1.816q7.645-.006,15.291,0c1.358,0,1.827.441,1.836,1.765q.025,3.9,0,7.805C65.73,164.558,65.259,165,63.9,165c-2.6.007-5.2,0-7.806,0" transform="translate(-19.469 -63.98)" fill="#528fda"/>
        <path id="Trazado_154278" data-name="Trazado 154278" d="M94.977,115.094c0,2.709-.022,5.419.016,8.128.01.667-.18.849-.836.826-1.46-.05-2.923-.04-4.384,0-.585.014-.8-.131-.8-.762.024-5.418.018-10.837.011-16.256,0-.982.433-1.436,1.433-1.4,1.068.036,2.139.029,3.208,0,.943-.024,1.366.385,1.359,1.34-.021,2.709-.008,5.419-.007,8.128" transform="translate(-37.046 -43.978)" fill="#f4c74c"/>
        <path id="Trazado_154279" data-name="Trazado 154279" d="M32.655,115.1c0,2.709-.022,5.419.017,8.128.009.671-.187.846-.839.824-1.46-.049-2.923-.04-4.384,0-.588.015-.8-.137-.8-.765q.035-8.128.011-16.256c0-.983.437-1.433,1.435-1.4,1.068.036,2.139.029,3.208,0,.944-.024,1.364.389,1.357,1.342-.021,2.709-.008,5.419-.007,8.128" transform="translate(-11.097 -43.978)" fill="#f4c74c"/>
        <path id="Trazado_154280" data-name="Trazado 154280" d="M42.064,145.946c-1.465.1-1.465.1-1.465-1.311,0-3.777,0-7.553-.005-11.329a2.09,2.09,0,0,1,.418-1.373,5.991,5.991,0,0,0,.016-5.678,1.7,1.7,0,0,1-.438-1.042q.02-8.6.009-17.189c.4-.067.343.211.381.4q2.347,11.6,4.7,23.209c.124.609.12.9-.686.92a3.166,3.166,0,0,0-2.928,2.891c-.147,3.48-.116,6.964,0,10.506" transform="translate(-16.9 -44.973)" fill="#6fd5f7"/>
        <path id="Trazado_154281" data-name="Trazado 154281" d="M81.67,107.971v9.182c0,2.032.007,4.064,0,6.1a8.073,8.073,0,0,1-.689,3.662A4.947,4.947,0,0,0,81.357,132a1.748,1.748,0,0,1,.316,1.088q-.008,6.043,0,12.086a.916.916,0,0,1-1.35.794c-.238-.123-.114-.269-.1-.433.273-3.307.12-6.621.089-9.93a3.327,3.327,0,0,0-3.125-3.1c-.4-.031-.751.079-.613-.6q2.4-11.712,4.745-23.434c.033-.164.1-.322.146-.483l.21-.021" transform="translate(-31.868 -44.956)" fill="#70d5f8"/>
        <path id="Trazado_154282" data-name="Trazado 154282" d="M26.661,157.506c0-1.853.034-3.707-.017-5.559-.02-.724.22-.9.906-.876,1.459.05,2.922.037,4.382,0,.549-.013.735.134.731.709q-.036,5.72,0,11.44c0,.571-.176.725-.728.712-1.5-.034-3-.053-4.49.006-.72.028-.807-.273-.8-.875.032-1.853.012-3.707.012-5.56" transform="translate(-11.093 -62.9)" fill="#f4c74c"/>
        <path id="Trazado_154283" data-name="Trazado 154283" d="M94.979,157.614c0,1.853-.025,3.707.014,5.559.013.619-.194.78-.786.765-1.5-.037-2.993-.032-4.49,0-.539.01-.745-.128-.741-.71q.035-5.719,0-11.44c0-.582.2-.719.742-.709,1.5.029,2.994.035,4.49,0,.593-.015.8.148.785.765-.038,1.924-.014,3.849-.014,5.773" transform="translate(-37.047 -62.903)" fill="#f4c74c"/>
        <path id="Trazado_154284" data-name="Trazado 154284" d="M93.342,50.479c0-1.744.015-3.488-.009-5.232-.008-.539.085-.73.709-.651a5.932,5.932,0,0,1,5.292,5.732,6.023,6.023,0,0,1-5.027,6.108c-.71.116-1.017,0-.985-.832.067-1.706.02-3.417.02-5.125" transform="translate(-38.856 -18.561)" fill="#f8c0a7"/>
        <path id="Trazado_154285" data-name="Trazado 154285" d="M27.479,50.479c0,1.743-.04,3.488.019,5.229.025.742-.272.807-.869.728A5.98,5.98,0,0,1,26.9,44.561c.683-.063.573.312.574.689q.005,2.615,0,5.229" transform="translate(-8.945 -18.551)" fill="#f8c0a7"/>
        <path id="Trazado_154286" data-name="Trazado 154286" d="M28.81,144.676c-.891,0-1.781.006-2.671,0a1.444,1.444,0,0,1-.725-.1c-1.116-.738-.559-1.881-.575-2.846-.013-.733.623-.92,1.311-.912,1.816.023,3.633.03,5.449,0,.966-.017,1.321.409,1.332,1.352.028,2.51.052,2.509-2.41,2.509H28.81" transform="translate(-10.29 -58.631)" fill="#f4c74c"/>
        <path id="Trazado_154287" data-name="Trazado 154287" d="M91.226,144.676c-.926,0-1.852-.019-2.778.005-.91.023-1.3-.428-1.293-1.3,0-.036,0-.071,0-.107-.065-2.391-.008-2.45,2.381-2.45,1.46,0,2.921.026,4.38-.009.931-.022,1.365.325,1.381,1.3.046,2.56.071,2.559-2.468,2.559h-1.6" transform="translate(-36.282 -58.631)" fill="#f4c74c"/>
        <path id="Trazado_154288" data-name="Trazado 154288" d="M56.344,148.765a2.406,2.406,0,0,1,2.144-1.679,33.142,33.142,0,0,1,3.414-.009,2.462,2.462,0,0,1,1.011.3c.506.261,1.135.65,1.02,1.213-.079.395-.809.164-1.243.169-2.063.022-4.126.01-6.347.01" transform="translate(-23.46 -61.222)" fill="#518fd9"/>
        <path id="Trazado_154289" data-name="Trazado 154289" d="M58.659,74.609a12.831,12.831,0,0,1-5.065-1.074c-.633-.294-1.15-.689-.846-1.464.32-.816.971-.814,1.681-.511A10.457,10.457,0,0,0,63,71.542c.665-.286,1.3-.278,1.607.479.3.737-.111,1.209-.776,1.509a13.116,13.116,0,0,1-5.173,1.079" transform="translate(-21.925 -29.716)" fill="#010100"/>
        <path id="Trazado_154290" data-name="Trazado 154290" d="M73.418,50.283a3.85,3.85,0,0,1,3.856,3.642c.007.657-.219,1.147-.887,1.248a1.022,1.022,0,0,1-1.232-1.024c-.118-1.039-.646-1.688-1.686-1.7-1.114-.017-1.627.716-1.763,1.76a.984.984,0,0,1-1.159.973c-.725-.086-.989-.623-.955-1.311a3.893,3.893,0,0,1,3.826-3.585" transform="translate(-28.975 -20.936)" fill="#010101"/>
        <path id="Trazado_154291" data-name="Trazado 154291" d="M47.091,50.283a3.851,3.851,0,0,1,3.785,3.6c.017.7-.217,1.216-.953,1.294a1.006,1.006,0,0,1-1.157-1c-.124-1.081-.659-1.754-1.761-1.74-1.057.015-1.557.725-1.688,1.722-.1.725-.518,1.121-1.231,1s-.94-.686-.884-1.367a3.894,3.894,0,0,1,3.89-3.516" transform="translate(-17.984 -20.936)" fill="#010101"/>
        <path id="Trazado_154292" data-name="Trazado 154292" d="M59.306,154.632a5.1,5.1,0,1,1,.04,10.209,5.1,5.1,0,1,1-.04-10.209" transform="translate(-22.56 -64.384)"/>
        <path id="Trazado_154293" data-name="Trazado 154293" d="M50.454,155.064c.559.006,1.175-.1,1.5.521a.942.942,0,0,1-.24,1.326,2.546,2.546,0,0,1-2.521.059.9.9,0,0,1-.385-1.274c.341-.749,1.019-.625,1.646-.632" transform="translate(-20.274 -64.563)" fill="#010203"/>
        <path id="Trazado_154294" data-name="Trazado 154294" d="M63.824,161.3a2.931,2.931,0,0,1-3.007,2.928,2.968,2.968,0,1,1,.08-5.934,2.931,2.931,0,0,1,2.927,3.006" transform="translate(-24.09 -65.909)" fill="#6fd5f8"/>
      </g>
    </g>
  </g>
</svg>
