<svg xmlns="http://www.w3.org/2000/svg" xmlns:xlink="http://www.w3.org/1999/xlink" width="145" height="145" viewBox="0 0 145 145">
  <defs>
    <clipPath id="clip-path">
      <rect id="Rectángulo_41318" data-name="Rectángulo 41318" width="101.129" height="82.184" fill="none"/>
    </clipPath>
  </defs>
  <g id="Grupo_166241" data-name="Grupo 166241" transform="translate(-885 -2275)">
    <circle id="Elipse_4885" data-name="Elipse 4885" cx="72.5" cy="72.5" r="72.5" transform="translate(885 2275)" fill="#fff"/>
    <g id="Grupo_166240" data-name="Grupo 166240" transform="translate(907 2306)">
      <g id="Grupo_166239" data-name="Grupo 166239" transform="translate(0 0)" clip-path="url(#clip-path)">
        <path id="Trazado_154335" data-name="Trazado 154335" d="M101.129,74.276a4.706,4.706,0,0,0-.509,1.548,9.281,9.281,0,0,1-8.664,6.332c-12.5.038-25.008.019-37.511.014a5.085,5.085,0,0,1-3.427-1.3c-.341-.3-.54-.323-.892-.014a5.644,5.644,0,0,1-3.914,1.325Q28,82.165,9.786,82.175A9.381,9.381,0,0,1,0,72.354Q0,43.134,0,13.914c0-3.242,1.754-5.031,4.981-5,.759.008.975-.17.965-.952-.038-3.237,1.746-4.989,4.984-4.992.625,0,1.25.009,1.875,0,1.017-.019,2.166.4,2.264-1.4.054-.984,1.1-1.53,2.144-1.541q4.492-.046,8.983,0A2.417,2.417,0,0,1,28.634,2.48c.031.69.029,1.38.041,2.07a1.683,1.683,0,0,1,.264,1.13q.009,5.925,0,11.848a3.229,3.229,0,0,1-.477,1.787,2.642,2.642,0,0,1-3.7.869,14.556,14.556,0,0,1-1.927-1.537c-.978-.858-1.213-.862-2.173-.025-.521.455-1.046.9-1.6,1.32a2.6,2.6,0,0,1-2.861.419,2.777,2.777,0,0,1-1.668-2.593c-.046-1.908-.012-3.818-.017-5.727,0-1.579-.016-3.159.006-4.739.01-.73-.229-1.106-1.02-1.071-.854.038-1.712-.013-2.566.017C9.67,6.292,9.253,6.727,9.2,8.014c-.012.3-.007.592-.007.889V70.317c0,2.461.2,2.668,2.621,2.668H46.371c2.07,0,2.3-.216,2.48-2.272.031-.361.016-.724.026-1.085a.9.9,0,0,0-.806-1.027c-1.092-.262-1.534-.837-1.52-1.761a1.633,1.633,0,0,1,1.482-1.694.953.953,0,0,0,.848-1.1q-.014-2.616,0-5.232a.954.954,0,0,0-.861-1.09,1.63,1.63,0,0,1-1.468-1.7c-.007-.922.432-1.487,1.533-1.75a.905.905,0,0,0,.794-1.037q0-2.666,0-5.332a.91.91,0,0,0-.806-1.029c-1.093-.268-1.534-.84-1.521-1.762s.443-1.427,1.579-1.717a.862.862,0,0,0,.746-.97q0-2.715,0-5.431a.876.876,0,0,0-.755-.97c-1.141-.3-1.56-.814-1.57-1.724-.009-.941.407-1.44,1.624-1.779a.828.828,0,0,0,.7-.91q.016-2.765,0-5.529c0-.555-.276-.792-.8-.932-1.092-.29-1.529-.848-1.513-1.771a1.632,1.632,0,0,1,1.486-1.689.953.953,0,0,0,.84-1.106c-.008-1.678-.012-3.357,0-5.036a.983.983,0,0,0-.848-1.114,1.6,1.6,0,0,1-1.291-1.651,1.6,1.6,0,0,1,1.325-1.72.969.969,0,0,0,.813-1.132,18.837,18.837,0,0,0-.066-2.07c-.181-1.207-.6-1.6-1.822-1.614-3.39-.026-6.78,0-10.17-.012a23.941,23.941,0,0,1-2.762-.046c-1.061-.126-1.542-.678-1.5-1.64.257-1.228.649-1.574,1.853-1.576,4.341-.007,8.682,0,13.024-.007a4.3,4.3,0,0,1,2.6.757.734.734,0,0,0,1.032.015,4.37,4.37,0,0,1,2.7-.773q18.352.011,36.7.007A4.4,4.4,0,0,1,95.18,7.739c-.015.906.137,1.239,1.137,1.184,2.522-.139,4.007,1.263,4.812,3.53V62.425a1.518,1.518,0,0,1-1.672,1.21,1.883,1.883,0,0,1-1.589-1.964c-.033-.46-.018-.921-.018-1.381q0-22.651,0-45.3a10.728,10.728,0,0,0-.054-1.576,1.281,1.281,0,0,0-1.043-1.164c-.827-.192-1.166.055-1.221.9-.026.394-.011.79-.011,1.184q0,28.375.016,56.75a5.2,5.2,0,0,1-2.621,4.946,6.082,6.082,0,0,1-2.978.535q-17.972,0-35.944,0a2.521,2.521,0,0,0-.3,0c-.4.048-.936-.179-1.117.352a1.287,1.287,0,0,0,.491,1.317,2.318,2.318,0,0,0,1.422.62,13.689,13.689,0,0,0,1.579.042c11.388.008,22.778-.013,34.165.007,2.246.178,4.3-.163,5.945-1.925a6.177,6.177,0,0,0,1.7-4.18c.041-1.247-.03-2.5.027-3.742.053-1.156.529-1.659,1.713-1.923a1.513,1.513,0,0,1,1.506,1.216Z" transform="translate(0 0)"/>
        <path id="Trazado_154336" data-name="Trazado 154336" d="M35.964,6.293a1.7,1.7,0,0,0,1.947,1.4c4.214-.027,8.427-.014,12.64-.009,1.416,0,1.912.481,1.934,1.872.014.921-.014,1.844.009,2.765.012.455-.035.7-.612.717a1.419,1.419,0,0,0-1.55,1.43c-.016.863.53,1.431,1.592,1.49.521.029.573.236.57.658-.014,2.14-.023,4.279.005,6.419.007.524-.151.654-.667.664-1.108.019-1.711.591-1.7,1.485s.6,1.422,1.74,1.442c.572.01.625.245.621.708-.017,2.173-.027,4.346.005,6.518.009.568-.171.706-.72.711a1.452,1.452,0,0,0-1.646,1.438,1.438,1.438,0,0,0,1.594,1.489c.6,0,.787.133.776.76q-.063,3.208,0,6.418c.012.625-.176.763-.774.761a1.465,1.465,0,1,0-.048,2.923c.636,0,.837.153.824.813-.043,2.106-.031,4.214-.006,6.32.006.544-.047.823-.722.811a1.435,1.435,0,0,0-1.641,1.436c-.012.9.589,1.466,1.7,1.487.514.009.675.137.668.662q-.041,3.308,0,6.617c.007.54-.177.643-.677.654-1.106.023-1.707.6-1.688,1.495.017.863.607,1.426,1.649,1.435.555.005.748.15.716.715-.046.787,0,1.579-.015,2.37-.023,1.4-.511,1.876-1.925,1.876q-11.653,0-23.306,0-6.468,0-12.937,0c-1.55,0-2.023-.459-2.023-1.971q0-31.7,0-63.4c0-1.521.472-1.984,2.011-1.988,1.02,0,2.044.045,3.061-.016.68-.041.879.138.871.847-.04,3.555,0,7.11-.029,10.665a2.6,2.6,0,0,0,1.445,2.681,2.516,2.516,0,0,0,2.972-.639c.627-.581,1.327-1.088,1.921-1.7.471-.485.778-.377,1.2.032.665.637,1.385,1.216,2.076,1.824a2.387,2.387,0,0,0,2.733.5,2.46,2.46,0,0,0,1.488-2.451q0-6.566.031-13.131h3.885" transform="translate(-3.404 -1.742)" fill="#f1f1f1"/>
        <path id="Trazado_154337" data-name="Trazado 154337" d="M107.419,75.534c-.3.012-.591.035-.886.035q-16.244,0-32.488,0c-1.621,0-2.062-.432-2.075-2.022,0-.461,0-.922,0-1.383,0-.8-.263-1.677,1.134-1.663.686.007,1.064-.725,1-1.473A1.306,1.306,0,0,0,72.782,67.7c-.727-.006-.841-.27-.828-.918.041-2.073.029-4.148.006-6.221-.006-.531.027-.833.709-.824a1.357,1.357,0,0,0,1.446-1.425,1.407,1.407,0,0,0-1.483-1.493c-.483-.028-.683-.112-.675-.655q.048-3.307,0-6.616c-.007-.526.157-.644.664-.669a1.461,1.461,0,1,0-.04-2.919c-.563-.022-.624-.244-.62-.71.019-2.172.027-4.345-.005-6.517-.009-.568.171-.7.716-.717A1.459,1.459,0,1,0,72.63,35.1c-.61-.017-.676-.253-.67-.764q.037-3.208,0-6.418c-.005-.5.046-.753.664-.769a1.459,1.459,0,1,0-.046-2.915c-.568-.022-.62-.251-.617-.714.019-2.106.028-4.214-.005-6.319-.009-.57.171-.7.717-.709,1.038-.012,1.632-.578,1.647-1.438.017-.9-.586-1.466-1.691-1.493-.494-.012-.693-.116-.671-.654.043-1.051-.017-2.107.027-3.159A1.428,1.428,0,0,1,73.55,8.219q16.934,0,33.868.027a1.285,1.285,0,0,1,.5,1.028c.027.362.025.723.025,1.085q0,31.531-.007,63.061c0,.733.187,1.54-.516,2.114" transform="translate(-19.922 -2.276)" fill="#fefefe"/>
        <path id="Trazado_154338" data-name="Trazado 154338" d="M4.1,47.863V18.535c0-1.785.759-2.414,2.54-2.168.359.049.437.19.424.5-.011.263,0,.526,0,.79V75.617c0,3.454,1.7,5.159,5.137,5.159q17.972,0,35.943,0a4.392,4.392,0,0,0,1.276-.059c.737-.229.842.051.776.695a2.461,2.461,0,0,1-2.287,2.307c-.294.026-.592.013-.889.013q-17.922,0-35.844,0C6.732,83.731,4.1,81.114,4.1,76.7q0-14.416,0-28.834" transform="translate(-1.135 -4.518)" fill="#cbac76"/>
        <path id="Trazado_154339" data-name="Trazado 154339" d="M121,75.532a4.611,4.611,0,0,0,.21-1.451q-.01-32.193,0-64.387A4.5,4.5,0,0,0,121,8.243c1.051-.012,2.1-.048,3.154-.027a1.476,1.476,0,0,1,1.588,1.611c.009.2,0,.394,0,.592V73.361c0,1.808-.395,2.21-2.182,2.206-.854,0-1.708-.022-2.562-.035" transform="translate(-33.502 -2.273)" fill="#e7e7e7"/>
        <path id="Trazado_154340" data-name="Trazado 154340" d="M134.373,67.96q0,1.957,0,3.913c-1.209.243-1.558.646-1.567,1.852s.013,2.429-.007,3.642a6.423,6.423,0,0,1-6.319,6.37c-.458.01-.917-.013-1.376-.021.035-.531.542-.685.822-1.019a7.205,7.205,0,0,0,1.5-2.355,5.036,5.036,0,0,0,2.435-4.718q-.052-28.965,0-57.931c0-.425-.5-1.19.482-1.3,1.4-.161,2.26.273,2.426,1.255a6.508,6.508,0,0,1,.029,1.083q0,23.586,0,47.173c0,1.408.3,1.8,1.568,2.057" transform="translate(-34.639 -4.529)" fill="#b4874d"/>
        <path id="Trazado_154341" data-name="Trazado 154341" d="M112.722,104.841c.388.265.1.533-.032.751a8.192,8.192,0,0,1-2.292,2.623q-10.02.013-20.042.026-7.8.007-15.6,0a2.485,2.485,0,0,1-2.762-2.542c0-.351-.031-.644.521-.526a8.038,8.038,0,0,0,1.666.112q17.921.009,35.841.013a6.944,6.944,0,0,0,2.7-.454" transform="translate(-19.934 -29.028)" fill="#cbac75"/>
        <path id="Trazado_154342" data-name="Trazado 154342" d="M32.479,17.92c-.836-.727-1.495-1.317-2.17-1.886a2.506,2.506,0,0,0-3.561.005c-.672.573-1.332,1.158-1.984,1.727-.257-.1-.181-.288-.181-.432,0-4.143.01-8.286-.018-12.429,0-.639.158-.83.81-.817,2.136.042,4.274.016,6.411.015.357,0,.706-.082.7.508-.019,4.367-.01,8.735-.01,13.309" transform="translate(-6.801 -1.132)" fill="#f6a974"/>
        <path id="Trazado_154343" data-name="Trazado 154343" d="M26,37.391a4.588,4.588,0,0,1,3.136,1.25c.756.733,1.535,1.448,2.226,2.24.521.6.828.647,1.426.031,2.636-2.715,5.326-5.377,8.017-8.039a4.442,4.442,0,0,1,7.554,2.589A4.04,4.04,0,0,1,47.2,39c-4.028,4.069-8.055,8.139-12.151,12.14a4.27,4.27,0,0,1-5.987-.046q-3.164-3.046-6.212-6.212a4.148,4.148,0,0,1-.814-4.841A4.35,4.35,0,0,1,26,37.391" transform="translate(-5.981 -8.733)"/>
        <path id="Trazado_154344" data-name="Trazado 154344" d="M35.915,67.207q4.688,0,9.375,0c1.179,0,1.832.516,1.858,1.435.028.964-.646,1.524-1.868,1.525q-9.474.005-18.948,0c-1.178,0-1.831-.516-1.858-1.436-.028-.965.644-1.521,1.868-1.524q4.786-.007,9.573,0" transform="translate(-6.776 -18.608)"/>
        <path id="Trazado_154345" data-name="Trazado 154345" d="M37.269,78.363c-1.842,0-3.684.006-5.525,0-1.146-.005-1.814-.563-1.813-1.484s.67-1.473,1.82-1.474q5.574-.009,11.148,0c1.146,0,1.816.563,1.814,1.482s-.674,1.472-1.821,1.476c-1.875.008-3.749,0-5.624,0" transform="translate(-8.288 -20.876)"/>
        <path id="Trazado_154346" data-name="Trazado 154346" d="M90.521,31.658a4.328,4.328,0,0,1,3.114,1.273c.689.659,1.383,1.318,2.02,2.025.508.564.907.626,1.439.026.61-.688,1.275-1.33,1.949-1.956a4.448,4.448,0,0,1,6.152.014,4.389,4.389,0,0,1,.222,6.139c-.673.764-1.408,1.477-2.151,2.174-.473.444-.457.785.009,1.218.675.626,1.323,1.282,1.955,1.952a4.417,4.417,0,0,1,.028,6.293,4.468,4.468,0,0,1-6.369-.069c-.592-.571-1.2-1.132-1.736-1.751s-.947-.677-1.508-.029A27.474,27.474,0,0,1,93.7,50.925a4.442,4.442,0,1,1-6.261-6.3c.662-.687,1.325-1.374,2.025-2.02.509-.471.485-.837-.01-1.3-.767-.72-1.529-1.452-2.221-2.242a4.2,4.2,0,0,1-.761-4.768,4.282,4.282,0,0,1,4.049-2.635" transform="translate(-23.824 -8.765)"/>
        <path id="Trazado_154347" data-name="Trazado 154347" d="M95.8,70.169q-4.688,0-9.376,0c-1.219,0-1.892-.565-1.861-1.53.029-.918.681-1.429,1.862-1.43q9.475-.005,18.949,0c1.181,0,1.834.512,1.863,1.43.03.965-.644,1.527-1.863,1.529q-4.787.008-9.573,0" transform="translate(-23.415 -18.608)"/>
        <path id="Trazado_154348" data-name="Trazado 154348" d="M97.336,78.363c-1.842,0-3.684.007-5.525,0-1.143-.006-1.8-.575-1.784-1.509.017-.893.661-1.446,1.744-1.448q5.624-.012,11.248,0c1.143,0,1.8.575,1.785,1.508-.017.892-.664,1.443-1.745,1.45-1.908.011-3.815,0-5.723,0" transform="translate(-24.927 -20.876)"/>
        <path id="Trazado_154349" data-name="Trazado 154349" d="M33.248,50.461a1.659,1.659,0,0,1-1.213-.552c-1.9-1.911-3.817-3.807-5.711-5.725a1.484,1.484,0,1,1,2.075-2.09c.9.868,1.769,1.764,2.655,2.644,1.56,1.551,2.778,1.56,4.317.023q4.188-4.18,8.364-8.372a1.71,1.71,0,0,1,1.832-.641,1.464,1.464,0,0,1,.452,2.539c-1.514,1.553-3.062,3.074-4.6,4.608q-3.416,3.419-6.83,6.838a1.811,1.811,0,0,1-1.345.727" transform="translate(-7.125 -9.877)" fill="#8fd298"/>
        <path id="Trazado_154350" data-name="Trazado 154350" d="M104.74,37.266a1.748,1.748,0,0,1-.573,1.277c-.675.673-1.361,1.336-2.018,2.026a3.418,3.418,0,0,0-.027,5.018c.608.646,1.255,1.255,1.877,1.889.884.9.973,1.717.273,2.4-.664.644-1.533.523-2.41-.343-.631-.624-1.243-1.268-1.888-1.878a3.4,3.4,0,0,0-4.87-.025c-.746.693-1.44,1.441-2.172,2.151-.816.792-1.7.858-2.331.195s-.563-1.458.21-2.258c.662-.686,1.352-1.344,2.018-2.026a3.439,3.439,0,0,0,.027-5.16c-.665-.683-1.355-1.341-2.019-2.025-.813-.837-.874-1.673-.195-2.33a1.525,1.525,0,0,1,2.26.21c.709.686,1.383,1.406,2.1,2.085a3.431,3.431,0,0,0,5.089-.041c.709-.686,1.394-1.395,2.1-2.084a1.5,1.5,0,0,1,2.551.925" transform="translate(-24.968 -9.901)" fill="#f39494"/>
      </g>
    </g>
  </g>
</svg>
