<svg xmlns="http://www.w3.org/2000/svg" xmlns:xlink="http://www.w3.org/1999/xlink" width="145" height="145" viewBox="0 0 145 145">
  <defs>
    <clipPath id="clip-path">
      <rect id="Rectángulo_41285" data-name="Rectángulo 41285" width="99.365" height="99.077" fill="none"/>
    </clipPath>
  </defs>
  <g id="Grupo_166164" data-name="Grupo 166164" transform="translate(-570 -1932)">
    <circle id="Elipse_4883" data-name="Elipse 4883" cx="72.5" cy="72.5" r="72.5" transform="translate(570 1932)" fill="#fff"/>
    <g id="Grupo_166163" data-name="Grupo 166163" transform="translate(593 1955)">
      <g id="Grupo_166162" data-name="Grupo 166162" clip-path="url(#clip-path)">
        <path id="Trazado_153919" data-name="Trazado 153919" d="M21.521,79.276a1.6,1.6,0,0,1-2.2-.561,28.118,28.118,0,0,0-9.981-8.367C3.544,67.191.707,62.174.192,55.711c-.015-.177.056-.4-.192-.488V50.954c.249-.643-.028-1.329.162-1.976A23.006,23.006,0,0,1,8.73,32.548a74.21,74.21,0,0,1,10.459-6.975,19.786,19.786,0,0,0,8.783-10.314A40.46,40.46,0,0,1,31.6,7.687C34.291,3.543,38.277,1.4,43.011.605a38.011,38.011,0,0,1,18.006,1.06A26.1,26.1,0,0,1,72.834,9.78c2.423,2.777,4.582,5.765,6.876,8.645a1.644,1.644,0,0,1,.053,2.278A1.16,1.16,0,0,1,77.991,21a5.279,5.279,0,0,1-1.372-1.356c-1.916-2.44-3.777-4.921-5.762-7.309A23.647,23.647,0,0,0,54.332,3.436c-1.488-.139-2.966-.135-4.45-.155a25.58,25.58,0,0,0-8.991,1.09,12.449,12.449,0,0,0-7.385,6.316c-1.111,2.122-2.022,4.331-2.948,6.535A24.463,24.463,0,0,1,27.238,23a25.951,25.951,0,0,1-6.83,5.5c-3.38,2.146-6.892,4.093-9.948,6.719a20.119,20.119,0,0,0-7.1,13.353,30.711,30.711,0,0,0,.388,9.441A12.9,12.9,0,0,0,9.61,66.77c1.79,1.159,3.654,2.2,5.446,3.355A27.029,27.029,0,0,1,21.95,77a1.419,1.419,0,0,1-.429,2.281" transform="translate(0 0)"/>
        <path id="Trazado_153920" data-name="Trazado 153920" d="M55.694,107.366a27.311,27.311,0,0,1-15.987-6.987,64.035,64.035,0,0,1-7.038-7.3,1.674,1.674,0,0,1-.24-2.264,1.537,1.537,0,0,1,2.421-.019c1.1,1.183,2.166,2.391,3.246,3.589a33.639,33.639,0,0,0,9.152,7.369,22.539,22.539,0,0,0,7.154,2.322,18.192,18.192,0,0,0,15.637-4.512C71.849,98,73.7,96.481,75.569,94.99a26.21,26.21,0,0,1,9.76-4.789,22.308,22.308,0,0,0,11.752-7.981A34.651,34.651,0,0,0,104.59,63.1a38.311,38.311,0,0,0-1.516-15.034,19.06,19.06,0,0,0-6.125-8.789c-1.771-1.511-3.633-2.909-5.415-4.408a4.394,4.394,0,0,1-.823-.818,1.37,1.37,0,0,1,.317-2.009A1.5,1.5,0,0,1,92.989,32c2.665,2.2,5.482,4.213,7.933,6.672a22.776,22.776,0,0,1,6.193,12.349,41.7,41.7,0,0,1-2.306,24.325c-2.89,6.814-7.187,12.438-13.824,16.031a22.476,22.476,0,0,1-5.492,2.1,22.881,22.881,0,0,0-9.121,4.9c-2.678,2.18-5.178,4.59-8.173,6.363a18.319,18.319,0,0,1-7.721,2.6c-.135.012-.251.03-.289.183H57.86c-.706-.257-1.455.038-2.166-.167" transform="translate(-8.573 -8.456)"/>
        <path id="Trazado_153921" data-name="Trazado 153921" d="M64.3,134.946a4.243,4.243,0,0,1,2.166.167H64.331a.314.314,0,0,0-.032-.167" transform="translate(-17.178 -36.036)" fill="#535353"/>
        <path id="Trazado_153922" data-name="Trazado 153922" d="M.163,66.826A3.533,3.533,0,0,1,0,68.8V66.862a.116.116,0,0,1,.163-.036" transform="translate(0 -17.848)" fill="#585858"/>
        <path id="Trazado_153923" data-name="Trazado 153923" d="M99.141,24.68c-.624,1.1-.545,1.631.419,2.424q2.771,2.277,5.563,4.528c4.623,3.719,6.865,8.688,7.581,14.449a40.757,40.757,0,0,1-.359,13.983c-1.747,7.858-5.269,14.666-11.833,19.623a20.436,20.436,0,0,1-7.558,3.576A26.332,26.332,0,0,0,82.4,88.951,62.61,62.61,0,0,1,74.768,94.9,17.249,17.249,0,0,1,62.45,96.883C66.341,95,69.384,91.964,72.7,89.3a24.151,24.151,0,0,1,9.194-4.823c6.864-1.748,11.8-6.055,15.54-11.9A36.977,36.977,0,0,0,102.7,58.305a42.166,42.166,0,0,0,.161-10.514,31.047,31.047,0,0,0-2.027-8.941,20.839,20.839,0,0,0-6.107-8.137c-2.4-2.019-4.98-3.822-7.23-6.009a71.448,71.448,0,0,1-6.515-7.809,64.3,64.3,0,0,0-6.114-7.131,23.177,23.177,0,0,0-7.5-4.895C67,4.723,66.5,4.7,66.553,4.1c8.367-.228,15.538,2.322,21.006,8.938,2.223,2.69,4.309,5.485,6.485,8.209.814,1.019,1.259,1.113,2.4.546a17.969,17.969,0,0,0,2.694,2.884" transform="translate(-16.684 -1.092)" fill="#e1e1e1"/>
        <path id="Trazado_153924" data-name="Trazado 153924" d="M50.925,4.093a.739.739,0,0,0,.5.413,24.94,24.94,0,0,1,10.387,7.636c3.09,3.583,5.779,7.482,8.889,11.043a37.344,37.344,0,0,0,4.664,4.2c2.713,2.216,5.565,4.258,7.687,7.135a23.666,23.666,0,0,1,3.94,9.455,40.068,40.068,0,0,1,.756,9.109,36.97,36.97,0,0,1-7.88,22.655,25.607,25.607,0,0,1-14.447,9.268,21.461,21.461,0,0,0-8.157,4.451c-3,2.363-5.724,5.09-9.09,6.986a2.723,2.723,0,0,1-1.353.431,22.085,22.085,0,0,1-10.656-4.442,53.282,53.282,0,0,1-8.755-8.585c-.865-1.012-1.382-1.079-2.5-.41a10.464,10.464,0,0,0-2.334-3.079c.793-1.042.763-1.439-.007-2.478A28,28,0,0,0,13.4,69.83a32.206,32.206,0,0,1-3.982-2.572,13.063,13.063,0,0,1-4.98-8.683A28.464,28.464,0,0,1,4.923,45.9a20.231,20.231,0,0,1,6.669-9.989A74.444,74.444,0,0,1,21.982,29a21.959,21.959,0,0,0,9.609-11.256c.735-1.889,1.609-3.726,2.47-5.563,2.114-4.5,5.815-6.845,10.6-7.671a27.307,27.307,0,0,1,6.269-.418" transform="translate(-1.056 -1.083)" fill="#eee"/>
        <path id="Trazado_153925" data-name="Trazado 153925" d="M92.939,63.688A20.107,20.107,0,1,1,72.91,43.558a20.108,20.108,0,0,1,20.029,20.13" transform="translate(-14.086 -11.637)"/>
        <path id="Trazado_153926" data-name="Trazado 153926" d="M59.85,74.512c-4.084-5.392-4.152-13.568-.162-19.44a17.2,17.2,0,0,1,23.7-4.7,2.47,2.47,0,0,1,.282.253,7.131,7.131,0,0,1,1.163,3.941,19.991,19.991,0,0,1-1.117,9.143A18.8,18.8,0,0,1,71.745,74.9a18.221,18.221,0,0,1-10.034.378,4.067,4.067,0,0,1-1.861-.762" transform="translate(-15.159 -12.699)" fill="#fbce3f"/>
        <path id="Trazado_153927" data-name="Trazado 153927" d="M60.984,75.639a22.7,22.7,0,0,0,6.645.994,18.429,18.429,0,0,0,11.29-4.152,17.66,17.66,0,0,0,6.5-10.548,18.531,18.531,0,0,0-.328-9.163c-.1-.337-.192-.679-.288-1.019A16.427,16.427,0,0,1,92.191,66.19,17.027,17.027,0,0,1,73.716,82.958a16.465,16.465,0,0,1-12.732-7.32" transform="translate(-16.292 -13.826)" fill="#eea235"/>
        <path id="Trazado_153928" data-name="Trazado 153928" d="M61.745,65.984a13.208,13.208,0,0,1,5.073-9.6,1.5,1.5,0,0,1,2.166-.02,1.461,1.461,0,0,1-.273,2.2,10.837,10.837,0,0,0-4.1,8.308,1.464,1.464,0,0,1-1.531,1.521c-.9-.064-1.4-.792-1.338-2.41" transform="translate(-16.494 -14.937)"/>
      </g>
    </g>
  </g>
</svg>
