<svg xmlns="http://www.w3.org/2000/svg" xmlns:xlink="http://www.w3.org/1999/xlink" width="153" height="177" viewBox="0 0 153 177">
  <defs>
    <clipPath id="clip-path">
      <rect id="Rectángulo_41357" data-name="Rectángulo 41357" width="153" height="177" transform="translate(825 5964)" fill="#fff" stroke="#707070" stroke-width="1"/>
    </clipPath>
    <clipPath id="clip-path-2">
      <rect id="Rectángulo_41379" data-name="Rectángulo 41379" width="128.784" height="325" fill="none"/>
    </clipPath>
  </defs>
  <g id="Enmascarar_grupo_204" data-name="Enmascarar grupo 204" transform="translate(-825 -5964)" clip-path="url(#clip-path)">
    <g id="Grupo_166332" data-name="Grupo 166332" transform="translate(837.108 5970)">
      <g id="Grupo_166332-2" data-name="Grupo 166332" clip-path="url(#clip-path-2)">
        <path id="Trazado_155427" data-name="Trazado 155427" d="M109.094,223.044l1.467,26.819,6.7,2.1s-8.8,20.324-16.133,19.7S95.685,241.9,95.685,241.9l-.21-15.3Z" transform="translate(-28.531 -129.472)" fill="#ffad95"/>
        <path id="Trazado_155428" data-name="Trazado 155428" d="M56.9,337.491l-1.877,14.544.469,9.383,3.753,136.05H80.825L88.8,378.306l33.778,114.47h24.4L113.2,352.973l-2.346-12.2Z" transform="translate(-41.272 -195.907)" fill="#d4dee8"/>
        <path id="Trazado_155429" data-name="Trazado 155429" d="M238,366.93s13.371-1.583,14.778-17.417" transform="translate(-223.84 -202.885)" fill="none" stroke="#242638" stroke-linecap="round" stroke-linejoin="round" stroke-width="1.677"/>
        <path id="Trazado_155430" data-name="Trazado 155430" d="M142.838,363.276s-6.685-.528-9.676-14.6" transform="translate(-69.918 -202.398)" fill="none" stroke="#242638" stroke-linecap="round" stroke-linejoin="round" stroke-width="1.677"/>
        <path id="Trazado_155431" data-name="Trazado 155431" d="M180.159,384.555l.235-36.3h5.278l.176,28.852L180.13,380.1" transform="translate(-132.631 -202.155)" fill="none" stroke="#242638" stroke-linecap="round" stroke-linejoin="round" stroke-width="1.677"/>
        <path id="Trazado_155432" data-name="Trazado 155432" d="M181.276,73.971,177.431,92.32s.193,12.115,10.637,10.76,9.45-8.565,9.45-8.565l-.931-3.172.146-10.8Z" transform="translate(-143.195 -42.939)" fill="#ffad95"/>
        <path id="Trazado_155433" data-name="Trazado 155433" d="M179.457,79.31l.8-4.03,4.77,1.428,4.553,1.935,6.209,5.524-.079,5.889c-3.6.725-13.977-.248-16.254-10.746" transform="translate(-142.292 -43.699)" fill="#eb957c"/>
        <path id="Trazado_155434" data-name="Trazado 155434" d="M185.244,21.471c-.386,8.3-3.213,24.764-11.516,24.9-8.737.143-13.227-4.5-14.785-12.6,0,0-4.313,1.765-4.255-4.178.026-2.621,3-1.354,3-1.354s-5.888-21.267,7.608-23.6,20.477,5.473,19.949,16.83" transform="translate(-121.382 -2.455)" fill="#ffad95"/>
        <path id="Trazado_155435" data-name="Trazado 155435" d="M192,44.955a2.486,2.486,0,0,0,.764.319.675.675,0,0,0,.708-.336,1.319,1.319,0,0,0-.244-1.319,3.177,3.177,0,0,0-2.152-1.017,6.774,6.774,0,0,0-2.37-.081,3.017,3.017,0,0,0-2.028,1.362.566.566,0,0,0-.107.318.362.362,0,0,0,.27.329.763.763,0,0,0,.394-.055,6.22,6.22,0,0,1,4.765.48" transform="translate(-143.052 -24.639)" fill="#37374f"/>
        <path id="Trazado_155436" data-name="Trazado 155436" d="M160.442,46.828a2.116,2.116,0,0,1-.716.234.57.57,0,0,1-.579-.408,1.459,1.459,0,0,1,.392-1.28,2.748,2.748,0,0,1,2.032-.778,5.352,5.352,0,0,1,2.1.172,2.633,2.633,0,0,1,1.6,1.565.615.615,0,0,1,.052.326.36.36,0,0,1-.282.3.6.6,0,0,1-.339-.1,4.987,4.987,0,0,0-4.26-.033" transform="translate(-103.296 -25.872)" fill="#37374f"/>
        <path id="Trazado_155437" data-name="Trazado 155437" d="M167.8,55.907c.081-1.4-.438-2.573-1.158-2.614s-1.369,1.062-1.45,2.464.438,2.573,1.158,2.614,1.369-1.062,1.45-2.464" transform="translate(-108.324 -30.935)" fill="#37374f"/>
        <path id="Trazado_155438" data-name="Trazado 155438" d="M194.345,55.605c.081-1.4-.438-2.573-1.158-2.614s-1.369,1.062-1.45,2.464.438,2.573,1.158,2.614,1.369-1.062,1.45-2.464" transform="translate(-146.004 -30.76)" fill="#37374f"/>
        <path id="Trazado_155439" data-name="Trazado 155439" d="M181.661,82.81a23.216,23.216,0,0,1-10.586-.334S173,86.6,176.44,86.526s5.221-3.717,5.221-3.717" transform="translate(-124.646 -47.876)" fill="#fff"/>
        <path id="Trazado_155440" data-name="Trazado 155440" d="M178.439,58.6a11.911,11.911,0,0,0,1.095,5.613.734.734,0,0,1,.049.558.627.627,0,0,1-.158.19,2.3,2.3,0,0,1-1.183.553c-.623.094-1.368-.034-1.791.433" transform="translate(-124.862 -34.013)" fill="none" stroke="#242638" stroke-linecap="round" stroke-linejoin="round" stroke-width="0.826"/>
        <path id="Trazado_155441" data-name="Trazado 155441" d="M157.885,110.658l-3.4,3.232s-24.862,13.408-24.9,15.067-6.627,29.9-6.627,29.9L142.911,162l-3.614,9.429.6,26.117-3.044,18.041s14.612,20.545,58.672,10.376L192.2,202.016l3.981-55.943,3.973-19.48-18.222-9.022-5.589-4.932-4.011,4.026Z" transform="translate(-122.954 -64.235)" fill="#e5649a"/>
        <path id="Trazado_155442" data-name="Trazado 155442" d="M204.545,43.837l-1.1-10.414,9.268-1.707-3.149,7.735c-.917.5-2.122,2.841-1.779,5.082Z" transform="translate(-169.283 -18.41)" fill="#fce6a3"/>
        <path id="Trazado_155443" data-name="Trazado 155443" d="M240.748,151.808s13.058-6.9,21.158,6.425" transform="translate(-234.12 -87.086)" fill="none" stroke="#242638" stroke-linecap="round" stroke-linejoin="round" stroke-width="1.677"/>
        <path id="Trazado_155444" data-name="Trazado 155444" d="M176.276,132.866l2.375,19.759,5.612-.48-2.228-20.626" transform="translate(-129.43 -76.344)" fill="none" stroke="#242638" stroke-linecap="round" stroke-linejoin="round" stroke-width="1.677"/>
        <path id="Trazado_155445" data-name="Trazado 155445" d="M142.173,18.363S140.339,4.37,151.049,1.008c9.859-3.094,20.473,1.671,21.415,13.011l4.9,6.18-.254,1.5s-9.312-10.017-21.53-3.871l-5.432-2.7Z" transform="translate(-108.178 -0.049)" fill="#37374f"/>
        <path id="Trazado_155446" data-name="Trazado 155446" d="M212.049,184.421l-11.089.865.528,6.036,11.532-.671Z" transform="translate(-168.542 -107.053)" fill="#fff"/>
        <path id="Trazado_155447" data-name="Trazado 155447" d="M185.467,135.358a.821.821,0,1,1,.673.946.821.821,0,0,1-.673-.946" transform="translate(-136.115 -78.175)" fill="#242638"/>
        <path id="Trazado_155448" data-name="Trazado 155448" d="M184.134,149.511a.821.821,0,1,1,.673.946.821.821,0,0,1-.673-.946" transform="translate(-134.224 -86.391)" fill="#242638"/>
        <path id="Trazado_155449" data-name="Trazado 155449" d="M182.667,165.388a.821.821,0,1,1,.673.946.821.821,0,0,1-.673-.946" transform="translate(-132.141 -95.607)" fill="#242638"/>
        <line id="Línea_522" data-name="Línea 522" x2="3.871" y2="137.575" transform="translate(16.448 163.517)" fill="none" stroke="#242638" stroke-linecap="round" stroke-linejoin="round" stroke-width="1.677"/>
        <path id="Trazado_155450" data-name="Trazado 155450" d="M227.346,729.052l-.539-10.842,9.286.442.1,11.331Z" transform="translate(-202.56 -416.907)" fill="#fac5c2"/>
        <path id="Trazado_155451" data-name="Trazado 155451" d="M166,734.323s-4.865,9.038-3.308,15.99l38.981.254s2.452-7.46-6.347-9.387-20.992-8.05-20.992-8.05-4.954,4.421-8.335,1.192" transform="translate(-141.328 -425.568)" fill="#242638"/>
        <path id="Trazado_155452" data-name="Trazado 155452" d="M162.836,768.665l38.982.254a8.207,8.207,0,0,0,.136-3.915l-39.535-.258a19.025,19.025,0,0,0,.418,3.919" transform="translate(-141.482 -443.919)" fill="#f7ead5"/>
        <path id="Trazado_155453" data-name="Trazado 155453" d="M204.081,734.3a5.4,5.4,0,0,1,1.283-1.762,5.586,5.586,0,0,1,2.931-1.012,23.678,23.678,0,0,1,2.731-.175,5.883,5.883,0,0,1,3.424.774.95.95,0,0,1,.511.887.882.882,0,0,1-.547.556,4.44,4.44,0,0,1-2.538.1q-3.077-.5-6.1-1.281a12.55,12.55,0,0,1,.365,3.341,6.77,6.77,0,0,1-.7,3.058,2.509,2.509,0,0,1-.893,1,1.332,1.332,0,0,1-1.3.065,1.405,1.405,0,0,1-.64-1.128,3.628,3.628,0,0,1,.214-1.325A18.926,18.926,0,0,1,204.081,734.3Z" transform="translate(-171.185 -424.533)" fill="none" stroke="#fff" stroke-linecap="round" stroke-linejoin="round" stroke-width="1.273"/>
        <path id="Trazado_155454" data-name="Trazado 155454" d="M65.783,722.635,61.033,706.8l12.139.176,3.694,16.009Z" transform="translate(26.313 -410.284)" fill="#fac5c2"/>
        <path id="Trazado_155455" data-name="Trazado 155455" d="M2.468,734.928s-3.636,8.433-2.08,15.385l38.982.254s2.452-7.46-6.347-9.387-20.992-8.05-20.992-8.05-6.183,5.025-9.563,1.8" transform="translate(89.1 -425.568)" fill="#242638"/>
        <path id="Trazado_155456" data-name="Trazado 155456" d="M.45,768.665l38.982.254A8.2,8.2,0,0,0,39.568,765L.033,764.746a19.025,19.025,0,0,0,.418,3.919" transform="translate(89.027 -443.919)" fill="#f7ead5"/>
        <path id="Trazado_155457" data-name="Trazado 155457" d="M41.7,734.3a5.4,5.4,0,0,1,1.283-1.762,5.586,5.586,0,0,1,2.931-1.012,23.69,23.69,0,0,1,2.731-.175,5.884,5.884,0,0,1,3.425.774.95.95,0,0,1,.51.887.884.884,0,0,1-.547.556,4.441,4.441,0,0,1-2.539.1q-3.077-.5-6.1-1.281a12.551,12.551,0,0,1,.364,3.341,6.759,6.759,0,0,1-.7,3.058,2.511,2.511,0,0,1-.893,1,1.332,1.332,0,0,1-1.3.065,1.4,1.4,0,0,1-.64-1.128,3.628,3.628,0,0,1,.214-1.325A18.891,18.891,0,0,1,41.7,734.3Z" transform="translate(59.324 -424.533)" fill="none" stroke="#fff" stroke-linecap="round" stroke-linejoin="round" stroke-width="1.273"/>
        <path id="Trazado_155458" data-name="Trazado 155458" d="M153.745,29.7c10.695-11.22,22.967-1.655,22.967-1.655" transform="translate(-112.427 -14.071)" fill="none" stroke="#242638" stroke-linecap="round" stroke-miterlimit="10" stroke-width="0.839"/>
        <path id="Trazado_155459" data-name="Trazado 155459" d="M82.231,185.013l10.057-1.362V121.527l5.445-3.163,4.926,27.049H130l-.157-21.214,5.971,3.038,1.1,58.091.314,19.172,23.257,106.544L91.346,310.1,89.774,190.042l-6.915.314Z" transform="translate(-66.203 -68.708)" fill="#37374f"/>
        <path id="Trazado_155460" data-name="Trazado 155460" d="M127.556,245.769h15.557l-1.885,27.5H129.442Z" transform="translate(-67.841 -142.664)" fill="#945661"/>
        <path id="Trazado_155461" data-name="Trazado 155461" d="M126.429,244.832h15.636a.747.747,0,0,1,0,1.493H126.429a.747.747,0,0,1,0-1.493" transform="translate(-66.754 -142.12)" fill="#e9cfb9"/>
        <path id="Trazado_155462" data-name="Trazado 155462" d="M78.673,245.769H94.23l-1.886,27.5H80.558Z" transform="translate(1.55 -142.664)" fill="#945661"/>
        <path id="Trazado_155463" data-name="Trazado 155463" d="M77.546,244.832H93.182a.747.747,0,0,1,0,1.493H77.546a.747.747,0,0,1,0-1.493" transform="translate(2.637 -142.12)" fill="#e9cfb9"/>
        <rect id="Rectángulo_41377" data-name="Rectángulo 41377" width="14.772" height="2.396" transform="translate(80.733 101.141)" fill="#e9cfb9"/>
        <path id="Trazado_155464" data-name="Trazado 155464" d="M112.032,295.4H64.47a1.467,1.467,0,0,1,0-2.933h47.562a1.467,1.467,0,1,1,0,2.933" transform="translate(-11.145 -169.771)" fill="#e9cfb9"/>
        <path id="Trazado_155465" data-name="Trazado 155465" d="M115.569,296.712l5.5,7.543h11.943l6.443-7.386Z" transform="translate(-59.154 -172.235)" fill="#e9cfb9"/>
        <path id="Trazado_155466" data-name="Trazado 155466" d="M67.623,296.712l5.5,7.543H85.066l6.443-7.386Z" transform="translate(8.906 -172.235)" fill="#e9cfb9"/>
        <path id="Trazado_155467" data-name="Trazado 155467" d="M133.3,226.291l16.972,2.828-1.257,20.743,33,1.572,10.686,7.229,3.771,1.257,6.915,1.572-1.257,1.886,2.2,1.257-5.343,2.828-11-2.2-8.171-7.229s-41.172,11-46.515,4.4,0-36.143,0-36.143" transform="translate(-130.473 -131.357)" fill="#ffad95"/>
        <path id="Trazado_155468" data-name="Trazado 155468" d="M247.422,208.463l3.3.314,1.886-18.071" transform="translate(-227.621 -110.701)" fill="none" stroke="#242638" stroke-linecap="round" stroke-linejoin="round" stroke-width="1.677"/>
        <path id="Trazado_155469" data-name="Trazado 155469" d="M166.886,121.658l13.2,7.752,4.924-4.924,8.8,3.248.524-4.191" transform="translate(-135.562 -70.62)" fill="none" stroke="#242638" stroke-linecap="round" stroke-linejoin="round" stroke-width="1.677"/>
        <rect id="Rectángulo_41378" data-name="Rectángulo 41378" width="9.429" height="5.029" transform="translate(33.315 80.162)" fill="#fff"/>
        <path id="Trazado_155470" data-name="Trazado 155470" d="M112.281,148.642c2,1.932,6.87,35.875,6.87,35.875l-12.572.786.943-26.715Z" transform="translate(-35.078 -86.284)" fill="#e5649a"/>
        <path id="Trazado_155471" data-name="Trazado 155471" d="M68.261,290.468l-7.245-6.21,5.355-2.615-1.89-4.249,1.575-3.268v-3.6l5.985,7.845-1.26,3.6-.63,3.922Z" transform="translate(31.146 -157.037)" fill="#ffad95"/>
      </g>
    </g>
  </g>
</svg>
