<svg id="Grupo_166335" data-name="Grupo 166335" xmlns="http://www.w3.org/2000/svg" xmlns:xlink="http://www.w3.org/1999/xlink" width="247.844" height="159.804" viewBox="0 0 247.844 159.804">
  <defs>
    <clipPath id="clip-path">
      <rect id="Rectángulo_41382" data-name="Rectángulo 41382" width="247.844" height="159.804" fill="none"/>
    </clipPath>
  </defs>
  <g id="Grupo_166334" data-name="Grupo 166334" transform="translate(0 0)" clip-path="url(#clip-path)">
    <path id="Trazado_155501" data-name="Trazado 155501" d="M227.808,154.466H3.537a3.538,3.538,0,0,1-3.513-3.949L16.523,9.664a3.538,3.538,0,0,1,3.513-3.126h224.27a3.537,3.537,0,0,1,3.513,3.949l-16.5,140.853a3.538,3.538,0,0,1-3.513,3.126" transform="translate(0 5.338)" fill="#ffc37a"/>
    <path id="Trazado_155502" data-name="Trazado 155502" d="M135.421,16.057a5.449,5.449,0,1,1-5.449-5.449,5.449,5.449,0,0,1,5.449,5.449" transform="translate(101.671 8.662)" fill="#fff"/>
    <path id="Trazado_155503" data-name="Trazado 155503" d="M125.421,16.057a5.449,5.449,0,1,1-5.449-5.449,5.449,5.449,0,0,1,5.449,5.449" transform="translate(93.506 8.662)" fill="#fff"/>
    <path id="Trazado_155504" data-name="Trazado 155504" d="M136.841,42.353a34.813,34.813,0,0,0-8.359-15.522,12.57,12.57,0,0,0-3-7.515c-2.314-2.821-5.462-4.5-8.425-6.514a13.2,13.2,0,0,1-3.884-4,28.367,28.367,0,0,0-2.866-4.274,12.477,12.477,0,0,0-7.537-3.8A14.068,14.068,0,0,0,93.6,2.5a6.015,6.015,0,0,0-.946.612A13.915,13.915,0,0,0,82.631.014C78.775.138,75.906,2.3,73.559,5.031a22.285,22.285,0,0,0-6.483,3.811,15.285,15.285,0,0,0-5.29,9.907,5.787,5.787,0,0,1-1.722,3.52c-.747.79-1.519,1.555-2.269,2.341a55.709,55.709,0,0,0-4.3,5c-2.465,3.3-4.365,7.246-4.122,11.466a31.147,31.147,0,0,0,1.931,7.865c.214.645.44,1.288.683,1.924a29.05,29.05,0,0,0-2.285,9.695c-.421,4.937.38,10.354,5.477,12.5a13.15,13.15,0,0,0,6.932.736c1.413-.2,2.928-.612,4.309-.036a6.033,6.033,0,0,1,2.271,1.918c1.282,1.618,2.2,3.5,3.646,5a7.22,7.22,0,0,0,5.816,2.254c6.018-.476,8.91-5.987,11.01-10.944a27.176,27.176,0,0,0,10.089-4.223c3.054,4.752,6.848,9.775,12.992,10.051a9.11,9.11,0,0,0,7.148-3.155,18.222,18.222,0,0,1,2.955-2.83c1.386-.908,3.021-.863,4.581-1.233,5.268-1.252,8.409-6.478,9.782-11.353a33.627,33.627,0,0,0,.129-16.884" transform="translate(40.298 0)" fill="#2b244a"/>
    <path id="Trazado_155505" data-name="Trazado 155505" d="M188.781,124.235H27.734C30.4,110.83,29,102.846,30.359,98.105c1.8-6.412-5.09-11.438-2.165-17.64a60.342,60.342,0,0,1,9.024-14.018C49.77,52,65.786,46.96,81.375,44.951c13.048-1.673,25.62-1.548,37.718-1.094,12.839.5,25.215,2.067,35.977,5.971,10.763,3.958,19.5,10.448,24.959,19.92,5.653,9.884,9.166,47.341,8.752,54.488" transform="translate(22.421 35.569)" fill="#ffeae0"/>
    <path id="Trazado_155506" data-name="Trazado 155506" d="M94.8,75.8q1.559,11.068,3.119,22.138c.162,1.153,1.913.663,1.751-.481q-1.559-11.071-3.119-22.139c-.162-1.152-1.913-.661-1.751.483" transform="translate(77.397 60.958)" fill="#2b244a"/>
    <path id="Trazado_155507" data-name="Trazado 155507" d="M14.523,80.243,19.1,114.037H51.462L38.022,56.053Z" transform="translate(11.858 45.767)" fill="#ffeae0"/>
    <path id="Trazado_155508" data-name="Trazado 155508" d="M31.031,66.185q4.529,14.482,9.057,28.966,1.668,5.332,3.337,10.665c.347,1.114,2.1.638,1.751-.481q-4.529-14.485-9.057-28.966-1.67-5.332-3.337-10.666c-.347-1.112-2.1-.638-1.751.483" transform="translate(25.299 53.128)" fill="#2b244a"/>
    <path id="Trazado_155509" data-name="Trazado 155509" d="M72.675,52.431q-.556,24.97-1.11,49.941l-.316,14.238a.909.909,0,0,0,1.816,0q.556-24.972,1.11-49.943.158-7.117.316-14.236a.909.909,0,0,0-1.816,0" transform="translate(58.174 42.094)" fill="#2b244a"/>
    <path id="Trazado_155510" data-name="Trazado 155510" d="M68.489,43.791q-2.659,5.548-4.859,11.3c-.7,1.824-1.417,3.655-2.014,5.515a5.465,5.465,0,0,0,.307,4.723c1.944,2.919,5.8,2.04,8.472.912,3.911-1.648,7.8-3.355,11.7-5.034,1.068-.461.144-2.025-.919-1.568l-9.738,4.192a16.325,16.325,0,0,1-4.9,1.688c-1.31.107-2.912-.365-3.361-1.747-.5-1.533.381-3.242.894-4.659q.853-2.368,1.775-4.71,1.937-4.921,4.216-9.695c.5-1.05-1.063-1.973-1.568-.917" transform="translate(49.994 35.374)" fill="#2b244a"/>
    <path id="Trazado_155511" data-name="Trazado 155511" d="M84.459,44.707q2.24,4.676,4.14,9.5.962,2.439,1.849,4.9c.5,1.4,1.413,3.148.894,4.661-1.168,3.41-6.013,1.028-8.063.145l-9.936-4.28c-1.063-.458-1.991,1.106-.917,1.568,3.9,1.678,7.782,3.386,11.693,5.035,2.676,1.128,6.532,2.005,8.474-.914a5.474,5.474,0,0,0,.309-4.721c-.592-1.862-1.317-3.693-2.018-5.515q-2.207-5.744-4.855-11.3c-.5-1.054-2.071-.133-1.568.917" transform="translate(58.745 35.374)" fill="#2b244a"/>
    <path id="Trazado_155512" data-name="Trazado 155512" d="M91.332,55.307S84.824,73.88,78.386,73.88c-5.27,0-12.946-18.855-12.946-18.855l1.671-25.3,23.233.523Z" transform="translate(53.431 24.27)" fill="#e0785e"/>
    <path id="Trazado_155513" data-name="Trazado 155513" d="M98.117,11.914C93.2,5.462,85.61,2.178,77.65,4.454c-15.328,4.38-19.8,25.513-16.89,39.434a53.648,53.648,0,0,0,12.06,24.15,12.84,12.84,0,0,0,19.771,0,53.648,53.648,0,0,0,12.06-24.15c1.07-5.121,2.625-19.965-6.534-31.974" transform="translate(48.928 3.048)" fill="#e0785e"/>
    <path id="Trazado_155514" data-name="Trazado 155514" d="M74.692,26.562a9.054,9.054,0,1,1-11.2-6.2,9.052,9.052,0,0,1,11.2,6.2" transform="translate(46.486 16.333)" fill="#e0785e"/>
    <path id="Trazado_155515" data-name="Trazado 155515" d="M111,36.254a2.748,2.748,0,0,0-1.8-.372c-.986-1.662-.768-4.95-1.949-6.458-1.444-1.844.08-4.22-.808-6.459s-1.8-4.968-2.825-7.164a31.941,31.941,0,0,0-3.533-6.156C97.538,6.656,90.6,3.5,86.9,2.781c-4.67-.91-10.879,2.111-15.246,3.878-2.589,1.05-3.517,3.1-6.074,4.24-1.152.512-2.4,3.108-3.433,3.876A1.8,1.8,0,0,0,61.1,14c-1.273-.218-2.163,21.191-.881,20.951a23.707,23.707,0,0,0,12.369-6.4,20.24,20.24,0,0,0,2-1.793c.621-.641,1.317-1.871,2.138-2.183a13.414,13.414,0,0,1,2.57-.274,19.3,19.3,0,0,0,2.445-.53,20.583,20.583,0,0,0,4.687-2.049A20.78,20.78,0,0,0,89.761,19.2a8.367,8.367,0,0,0,2.687,4.3,13.347,13.347,0,0,0,4.57,2.2,10.694,10.694,0,0,1,2.305.776c.5.311.405.191.233.732-.131.421-.287.828-.4,1.257a16.118,16.118,0,0,0,5.669,16.775c1.09.79,7.261-8.211,6.18-9" transform="translate(48.657 2.134)" fill="#2b244a"/>
    <path id="Trazado_155516" data-name="Trazado 155516" d="M74.045,20.745c.223,2.9,3.159,1.486,6.152,3.079,2.75,1.464,4.817,1.658,5.235.107.507-1.873-1.751-4.739-5.976-5.727-3.958-.925-5.575.425-5.411,2.541" transform="translate(60.448 14.622)" fill="#2b244a"/>
    <path id="Trazado_155517" data-name="Trazado 155517" d="M74.962,20.745c-.223,2.9-3.159,1.486-6.152,3.079-2.75,1.464-4.817,1.658-5.235.107-.507-1.873,1.751-4.739,5.976-5.727,3.958-.925,5.575.425,5.411,2.541" transform="translate(51.851 14.622)" fill="#2b244a"/>
    <path id="Trazado_155518" data-name="Trazado 155518" d="M79.526,23.411a2.118,2.118,0,0,0-1.746-1.035A2,2,0,0,0,76.053,23.8a6.928,6.928,0,0,0-.332,2.454,4.422,4.422,0,0,0,.8,2.757c1.064,1.233,2.592.583,3.173-.681a6.133,6.133,0,0,0-.163-4.915" transform="translate(61.824 18.27)" fill="#2b244a"/>
    <path id="Trazado_155519" data-name="Trazado 155519" d="M69.922,23.411a2.118,2.118,0,0,0-1.746-1.035A2,2,0,0,0,66.449,23.8a6.928,6.928,0,0,0-.332,2.454,4.422,4.422,0,0,0,.8,2.757c1.064,1.233,2.592.583,3.173-.681a6.133,6.133,0,0,0-.163-4.915" transform="translate(53.983 18.27)" fill="#2b244a"/>
    <path id="Trazado_155520" data-name="Trazado 155520" d="M59.509,24.049A40.963,40.963,0,0,0,63.1,40c.478,1.066,2.044.144,1.568-.917a38.729,38.729,0,0,1-3.346-15.033.909.909,0,0,0-1.816,0" transform="translate(48.589 18.92)" fill="#2b244a"/>
    <path id="Trazado_155521" data-name="Trazado 155521" d="M72.2,24.548q-.39,1.989-.777,3.98c-.253,1.29-.59,2.594-.723,3.9a2.482,2.482,0,0,0,1.346,2.748,4.986,4.986,0,0,0,3.2-.122.909.909,0,0,0-.483-1.751,5.373,5.373,0,0,1-1.321.263,2.12,2.12,0,0,1-.783-.093c-.074-.038-.071-.08-.036-.016-.073-.134-.007.025-.031-.045a1.661,1.661,0,0,1-.1-.523,6.749,6.749,0,0,1,.187-1.346q.638-3.259,1.273-6.514a.931.931,0,0,0-.634-1.117.916.916,0,0,0-1.117.634" transform="translate(57.709 19.502)" fill="#2b244a"/>
    <path id="Trazado_155522" data-name="Trazado 155522" d="M69.927,31.556a.632.632,0,0,0-.554.954c.912,1.557,2.076,3.037,3.786,3.413,3.615.8,5.613-1.677,6.581-3.3a.636.636,0,0,0-.563-.954c-3.371.011-6.4-.054-9.25-.111" transform="translate(56.57 25.765)" fill="#2b244a"/>
    <path id="Trazado_155523" data-name="Trazado 155523" d="M72.318,45.376c5.66.474,10.683-2.7,14.532-6.552a.909.909,0,0,0-1.286-1.284C82.03,41.072,77.52,44,72.318,43.559c-1.164-.1-1.159,1.72,0,1.816" transform="translate(58.335 30.432)" fill="#2b244a"/>
    <path id="Trazado_155524" data-name="Trazado 155524" d="M83.846,27.072c2.872,4.467,7.462,8.975,13.275,7.769.845-.174,1.628-.63,2.4-.035.461.358.8.872,1.253,1.246a5.489,5.489,0,0,0,2.836,1.181,5.927,5.927,0,0,0,5.549-2.361c.7-.939-.879-1.846-1.569-.917a4.151,4.151,0,0,1-5,1.124c-.912-.445-1.4-1.342-2.218-1.913a3.225,3.225,0,0,0-2.984-.271C92.139,34.367,88,30.184,85.414,26.155c-.629-.979-2.2-.071-1.568.917" transform="translate(68.339 21.012)" fill="#8c75b5"/>
    <path id="Trazado_155525" data-name="Trazado 155525" d="M73.982,1.467a7.542,7.542,0,0,0,.031,9.482,24.491,24.491,0,0,0,3.847,3.522A3.106,3.106,0,0,1,79.3,16.8a6.6,6.6,0,0,1-1.159,3.093.909.909,0,0,0,1.568.917c.894-1.573,1.824-3.459,1.2-5.3-.558-1.651-2.151-2.592-3.42-3.655a9.148,9.148,0,0,1-3.146-3.984,5.66,5.66,0,0,1,.917-5.121c.714-.91-.563-2.2-1.284-1.284" transform="translate(59.049 0.94)" fill="#8c75b5"/>
    <path id="Trazado_155526" data-name="Trazado 155526" d="M55.893,11.949c-.267,2.607-.378,5.431,1.37,7.586,1.787,2.2,4.6,2.163,7.033,1.124A32.794,32.794,0,0,1,68.214,18.8c.752-.209.963.347,1.415.888a10.63,10.63,0,0,0,1.382,1.419c1.7,1.4,4.434,1.964,6.023.065.747-.89-.532-2.182-1.284-1.284-1.586,1.895-3.862-.3-4.934-1.6-.63-.767-1.239-1.46-2.314-1.4a8.655,8.655,0,0,0-3.17,1.242c-1.906.983-4.579,2.4-6.423.532-1.727-1.751-1.43-4.487-1.2-6.716.12-1.163-1.7-1.153-1.816,0" transform="translate(45.511 9.048)" fill="#8c75b5"/>
    <path id="Trazado_155527" data-name="Trazado 155527" d="M81.711,18.549a14.417,14.417,0,0,0,5.217,4.55,7,7,0,0,0,6.318-.314,6.767,6.767,0,0,0,2.234-2.111c.125-.185.245-.521.445-.629.278-.149.768-.007,1.061,0a6.387,6.387,0,0,0,1.5-.16,6.306,6.306,0,0,0,4.53-4.044c.4-1.1-1.359-1.577-1.751-.481a4.489,4.489,0,0,1-4.278,2.868c-1-.022-1.793-.085-2.512.718A11.8,11.8,0,0,1,92.819,20.9c-3.789,2.8-7.524-.75-9.824-3.637-.728-.914-2.005.378-1.284,1.284" transform="translate(66.542 12.034)" fill="#8c75b5"/>
    <path id="Trazado_155528" data-name="Trazado 155528" d="M53.013,49.582c-.3-1.533-1.092-3.014-2.725-2.908A4.5,4.5,0,0,0,47.2,48.817c-1.651,2.436-4.944,11.615-4.855,11.856-2.218-5.945-4.592-11.535-6.812-17.48a71.477,71.477,0,0,0-4.727-11.015,3.88,3.88,0,0,0-2.8-2.127,2.993,2.993,0,0,0-2.712,1.709,7.455,7.455,0,0,0-.665,3.3,64.365,64.365,0,0,0,1.292,12.59,117.816,117.816,0,0,0-9.649-13.673c-1.112-1.326-2.785-2.752-4.363-2.04-1.279.578-1.777,2.245-1.6,3.638.908,7.215,4.748,14.519,7.457,21.006C14.888,52.668,8.323,45.564,7.15,45.1a3.359,3.359,0,0,0-3.542.5,3.918,3.918,0,0,0-.819,3.869c2.743,8.592,4.538,13.724,8.9,21.082,2.737,4.623,7.081,12.087,10.407,16.307,3.415,4.334,7.518,5.513,13.337,4.944,10.6-1.037,13.685-11.978,15.382-20.782.852-4.416,1.622-8.85,2.162-13.317a26.051,26.051,0,0,0,.04-8.127" transform="translate(2.121 24.531)" fill="#e0785e"/>
    <path id="Trazado_155529" data-name="Trazado 155529" d="M13.122,65.956l2.545,15.1s16.018-.269,30.621-7.88L41.245,55.055Z" transform="translate(10.714 44.952)" fill="#e0785e"/>
    <path id="Trazado_155530" data-name="Trazado 155530" d="M14.6,39.905q2.594,7.989,5.824,15.751c.441,1.064,2.2.6,1.751-.483q-3.226-7.755-5.824-15.751c-.36-1.106-2.113-.634-1.751.483" transform="translate(11.883 31.674)" fill="#37374c"/>
    <path id="Trazado_155531" data-name="Trazado 155531" d="M9.981,44.244q2.692,5.411,5.386,10.823c.52,1.046,2.087.127,1.568-.917q-2.692-5.411-5.386-10.823c-.52-1.046-2.087-.127-1.568.917" transform="translate(8.064 34.999)" fill="#37374c"/>
    <path id="Trazado_155532" data-name="Trazado 155532" d="M14.179,56.844a26.32,26.32,0,0,1,12.87-7.595.909.909,0,0,0-.483-1.751,28.068,28.068,0,0,0-13.671,8.062c-.8.854.485,2.142,1.284,1.284" transform="translate(10.324 38.757)" fill="#37374c"/>
    <path id="Trazado_155533" data-name="Trazado 155533" d="M21.457,62.12a25.571,25.571,0,0,1,4.26-13.357c.647-.977-.926-1.889-1.569-.917A27.371,27.371,0,0,0,19.64,62.12c-.035,1.17,1.782,1.168,1.816,0" transform="translate(16.036 38.727)" fill="#37374c"/>
    <path id="Trazado_155534" data-name="Trazado 155534" d="M16.444,81.985a52.129,52.129,0,0,0,32.808-6.717.908.908,0,0,0-.916-1.568,50.555,50.555,0,0,1-31.892,6.469c-1.157-.145-1.146,1.673,0,1.816" transform="translate(12.721 60.064)" fill="#2b244a"/>
  </g>
</svg>
