<svg id="Grupo_166175" data-name="Grupo 166175" xmlns="http://www.w3.org/2000/svg" xmlns:xlink="http://www.w3.org/1999/xlink" width="148.511" height="163.791" viewBox="0 0 148.511 163.791">
  <defs>
    <clipPath id="clip-path">
      <rect id="Rectángulo_41288" data-name="Rectángulo 41288" width="148.511" height="163.791" fill="none"/>
    </clipPath>
  </defs>
  <g id="Grupo_166174" data-name="Grupo 166174" clip-path="url(#clip-path)">
    <path id="Trazado_153948" data-name="Trazado 153948" d="M64.332,0a12.63,12.63,0,0,1,4,2.176A8.251,8.251,0,0,1,71,8.3q.031,21.67,0,43.342a4.565,4.565,0,0,1-3.573,4.685,4.5,4.5,0,0,1-5.434-2.242c-2.026-3.25-4.054-6.5-6-9.8a2.4,2.4,0,0,0-2.4-1.342q-22.392.065-44.783.022c-4.492,0-7.649-2.348-8.594-6.366a11.4,11.4,0,0,1-.206-2.536Q-.012,21.99,0,9.914C0,4.141,1.452,2.01,6.75,0Z" transform="translate(0)"/>
    <path id="Trazado_153949" data-name="Trazado 153949" d="M73.588,169.592c-5.277,0-10.554-.018-15.832,0a45.841,45.841,0,0,1-25.647-7.533Q18.115,152.992,4.119,143.92c-1.729-1.121-2.15-2.027-1.381-3.7,8.189-17.826,19.4-33.258,35.84-44.39,5.134-3.477,10.849-5.667,17.209-5.529a29.96,29.96,0,0,1,16.892,5.482c.663.465,1.105.711,1.931.156,11.167-7.493,22.478-7.476,33.827-.432,9.341,5.8,16.637,13.743,23.177,22.437A104.02,104.02,0,0,1,144.525,139.7c.949,2.233.724,3-1.252,4.267-9.667,6.209-19.325,12.437-29.024,18.6a44.811,44.811,0,0,1-24.349,7.02c-5.437.019-10.874,0-16.312,0" transform="translate(-0.152 -5.806)"/>
    <path id="Trazado_153950" data-name="Trazado 153950" d="M125.028,28.352c2.1-.168,4.24.372,6.316-.32.788.988,1.393,2.2,2.863,2.364,2.239.16,4.476.016,6.711.075,1.859.048,2.432.516,2.887,2.322a9.77,9.77,0,0,1,.252,2.377q.008,12.22-.007,24.441c0,1.609-.139,3.2-1.4,4.43a6.058,6.058,0,0,1-2.827.325c-12.517.008-25.036.031-37.553-.015-2.8-.01-5.57-.182-7.539,2.355a4.328,4.328,0,0,1-1.573.214,3.6,3.6,0,0,0-3.137,1.589,6.348,6.348,0,0,1-.813.982c-.771.7-1.172.569-1.383-.428a4.583,4.583,0,0,1-.056-.954c.009-11.651-.037-23.3.019-34.952.339-1.847,1.629-2.649,3.322-2.972a11.922,11.922,0,0,1,2.232-.086c8.892,0,17.784-.036,26.676.028,1.947.014,3.7-.164,5.013-1.774" transform="translate(-5.645 -1.803)" fill="#e9f8f9"/>
    <path id="Trazado_153951" data-name="Trazado 153951" d="M94.376,66.3c1.025-2.1,2.742-2.517,4.976-2.5,13.673.092,27.346.047,41.019.041.635,0,1.27-.064,1.9-.1a4.14,4.14,0,0,1,2.756-.53c2.441-.057,3.352-.921,3.451-3.368.061-1.487.019-2.976.019-4.465q0-10.126,0-20.252c-.006-3.135-.982-3.915-4.055-4.245-3.707-.4-7.417-.107-11.116-.394a2.564,2.564,0,0,1-2.3-2.613,2.636,2.636,0,0,1,2.994-2.238c3.837.037,7.675-.016,11.513.02a8.134,8.134,0,0,1,8.279,8.313q.056,13.112,0,26.222a8.078,8.078,0,0,1-8.312,8.429c-3.942.086-7.888.022-11.832.022-11.193,0-22.386.014-33.579-.022a2.142,2.142,0,0,0-2.163,1.18c-1.913,3.254-3.922,6.452-5.91,9.663-1.477,2.385-3.237,3.165-5.6,2.52-2.41-.658-3.6-2.334-3.6-5.147q-.007-21.186,0-42.372c0-5.345,3.467-8.807,8.79-8.811q14.952-.015,29.9,0c2.092,0,2.681.482,3.2,2.544-.424,1.743-1.576,2.282-3.3,2.275-9.943-.046-19.886-.026-29.828-.018-2.117,0-3.075.671-3.707,2.51a3.611,3.611,0,0,0-.137,1.727c-.01,8.687.047,17.374-.028,26.059-.042,4.9.231,9.778.418,14.813,1.523-2.159,2.712-4.4,4.107-6.516A8.082,8.082,0,0,1,94.376,66.3" transform="translate(-5.327 -1.649)"/>
    <path id="Trazado_153952" data-name="Trazado 153952" d="M60.164,41.608a7.861,7.861,0,0,1-.713-1.035A3.644,3.644,0,0,0,55.7,38.478c-15.193.045-30.385.026-45.578.024-.587,0-1.175.017-1.758-.03a3.225,3.225,0,0,1-3.207-3.3q-.051-13.353,0-26.706c.01-2.058,1.477-3.319,3.7-3.326Q17.89,5.1,26.925,5.129q16.31.02,32.621.051c1.248.624,1.407,1.8,1.445,2.988.069,2.182.024,4.365.025,6.548,0,8.2.019,16.4-.023,24.6,0,.807.36,1.866-.829,2.3" transform="translate(-0.33 -0.329)" fill="#e9f8f9"/>
    <path id="Trazado_153953" data-name="Trazado 153953" d="M63.9,41.608c.581-.514.33-1.2.331-1.806.016-10.281-.007-20.562.032-30.843a6.438,6.438,0,0,0-.981-3.779c1.063-.017,2.126-.06,3.189-.047a3.477,3.477,0,0,1,3.8,3.756c.04,2.553.01,5.109.01,7.663,0,11.651,0,23.3-.3,35.123L63.9,41.608" transform="translate(-4.071 -0.33)" fill="#c8eef1"/>
    <path id="Trazado_153954" data-name="Trazado 153954" d="M88.468,168.19c-10.974,0-21.949.141-32.92-.049a33.8,33.8,0,0,1-17.165-4.908c-8.706-5.322-17.225-10.952-26.264-16.736,2.754-.331,5.025-.646,7.3-.873a263.739,263.739,0,0,1,33.328-1.667c7.027.188,14.05.573,20.715,3.189a2.474,2.474,0,0,0,1.869-.022c6.718-2.637,13.8-3,20.878-3.166a226.742,226.742,0,0,1,29.028,1.324c.082.865-.59,1.191-1.156,1.555-9.3,5.986-18.585,12-27.946,17.892a24.862,24.862,0,0,1-7.67,3.462" transform="translate(-0.78 -9.256)" fill="#e659a9"/>
    <path id="Trazado_153955" data-name="Trazado 153955" d="M13.7,131.213C21.26,118.832,30.109,107.6,42.6,99.8,53.045,93.268,63.018,94,72.726,101.687c1.318,1.044,2.257,1,3.692-.2a23.468,23.468,0,0,1,11.51-5.458,24.451,24.451,0,0,1,6.853,3.952,89.66,89.66,0,0,1,13.089,12.322,124.787,124.787,0,0,1,11.47,15.284c.406.618,1.142,1.217.559,2.124-7.746-3.082-15.563-6.006-23.212-9.316a15,15,0,0,0-11.223-.7c-8.58,2.661-17.257,1.685-25.74-1.067-2.163-.7-3.056-.31-3.85,1.715-.413.866-1.229.73-1.948.736-3.031.031-6.064.08-9.092-.008A16.368,16.368,0,0,0,38,122.411c-7.175,2.965-14.388,5.837-21.6,8.712a8.357,8.357,0,0,1-1.649.59c-.432.074-.987.258-1.055-.5" transform="translate(-0.881 -6.134)" fill="#e659a9"/>
    <path id="Trazado_153956" data-name="Trazado 153956" d="M56.674,123.4a3.978,3.978,0,0,0,2.275,1.616c10.469,3.409,20.966,3.934,31.5.325a2.2,2.2,0,0,1,1.665-.01q16.034,6.46,32.086,12.877a9.447,9.447,0,0,1,.871.523,73.651,73.651,0,0,1-9.211-.443c-11.08-.618-22.152-.982-33.168.815a39.289,39.289,0,0,0-5.737,1.347,5.681,5.681,0,0,1-3.654-.022c-6.32-1.931-12.86-2.389-19.415-2.573-9.76-.273-19.491.307-29.279.991q5.276-2.117,10.551-4.234,6.727-2.7,13.451-5.415c2.066-.838,2.338-1.295,2.218-3.478a12.245,12.245,0,0,1,5.844-2.319" transform="translate(-1.583 -7.937)" fill="#fefefe"/>
    <path id="Trazado_153957" data-name="Trazado 153957" d="M125,129.719a3.075,3.075,0,0,0-.75-1.714,124.645,124.645,0,0,0-11.732-15.59c-4.5-4.962-9.183-9.7-14.781-13.44C96.2,97.947,94.6,97.013,93.03,96.037a20.855,20.855,0,0,1,14.005,1.448,51.13,51.13,0,0,1,14.741,10.272A113.219,113.219,0,0,1,143.1,135.933c.175.322.33.656.722,1.44L125,129.719" transform="translate(-5.984 -6.137)" fill="#df3d9b"/>
    <path id="Trazado_153958" data-name="Trazado 153958" d="M93.717,168.285c2.866-1.6,5.958-2.739,8.722-4.572,5.389-3.573,10.885-6.986,16.336-10.465q5.228-3.338,10.46-6.669a4.226,4.226,0,0,0,1.253-1.2l10.826,1.078c-.235.749-.8.88-1.213,1.147q-11.06,7.126-22.14,14.221a40.625,40.625,0,0,1-24.244,6.463" transform="translate(-6.028 -9.351)" fill="#df3d9b"/>
    <path id="Trazado_153959" data-name="Trazado 153959" d="M55.736,123.312l-5.844,2.319c-1.351-1.625-2.033-1.781-4.162-.926q-17.137,6.876-34.273,13.754c-.384.154-.769.305-1.423.564a42.1,42.1,0,0,1,3.432-6.092c.423.538.844.181,1.275.007q11.639-4.7,23.285-9.386a14.529,14.529,0,0,1,5.869-1.2c3.294.091,6.591.025,9.887.023a3.053,3.053,0,0,0,1.853-.3l.1,1.243" transform="translate(-0.645 -7.852)" fill="#df3d9b"/>
    <path id="Trazado_153960" data-name="Trazado 153960" d="M136.8,30.822c4.05-.013,8.1-.06,12.149-.027a3.313,3.313,0,0,1,3.534,3.5q.042,13.192,0,26.383a3.226,3.226,0,0,1-3.231,3.445c-1.161.078-2.335-.027-3.5-.05a11.975,11.975,0,0,0,.983-5.112c-.053-7.833-.022-15.669-.022-23.5,0-.32.007-.64,0-.959-.083-2.9-.6-3.354-3.422-3.437-2.161-.063-4.344.355-6.485-.244" transform="translate(-8.799 -1.98)" fill="#c8eef1"/>
    <path id="Trazado_153961" data-name="Trazado 153961" d="M94.7,66.807,88.264,77.5l-.336-.115v-7.1q0-17.481.007-34.963c0-.619-.178-1.283.264-1.847V69.978c1.565-2.446,3.552-3.779,6.5-3.171" transform="translate(-5.654 -2.153)" fill="#c8eef1"/>
    <path id="Trazado_153962" data-name="Trazado 153962" d="M120.77,51.239a2.46,2.46,0,0,1-2.437-2.449,2.4,2.4,0,0,1,4.788-.082,2.469,2.469,0,0,1-2.35,2.531" transform="translate(-7.611 -2.988)" fill="#030303"/>
    <path id="Trazado_153963" data-name="Trazado 153963" d="M108.316,46.465a2.4,2.4,0,0,1,2.437,2.416,2.517,2.517,0,0,1-2.38,2.358,2.407,2.407,0,0,1-2.389-2.463,2.308,2.308,0,0,1,2.333-2.311" transform="translate(-6.817 -2.989)" fill="#020202"/>
    <path id="Trazado_153964" data-name="Trazado 153964" d="M135.479,48.8a2.413,2.413,0,0,1-2.413,2.442,2.51,2.51,0,0,1-2.356-2.38,2.4,2.4,0,0,1,2.454-2.394,2.311,2.311,0,0,1,2.315,2.333" transform="translate(-8.408 -2.989)" fill="#020202"/>
    <path id="Trazado_153965" data-name="Trazado 153965" d="M25.287,20.859a2.4,2.4,0,1,1,.022,4.793,2.4,2.4,0,0,1-.022-4.793" transform="translate(-1.475 -1.342)" fill="#020202"/>
    <path id="Trazado_153966" data-name="Trazado 153966" d="M37.676,20.858a2.4,2.4,0,0,1,.01,4.793,2.4,2.4,0,1,1-.01-4.793" transform="translate(-2.269 -1.342)" fill="#020202"/>
    <path id="Trazado_153967" data-name="Trazado 153967" d="M50.053,25.651a2.394,2.394,0,1,1,.036-4.788,2.394,2.394,0,0,1-.036,4.788" transform="translate(-3.066 -1.342)" fill="#010101"/>
  </g>
</svg>
