<svg xmlns="http://www.w3.org/2000/svg" xmlns:xlink="http://www.w3.org/1999/xlink" width="1240" height="229" viewBox="0 0 1240 229">
  <defs>
    <clipPath id="clip-path">
      <rect id="Rectángulo_40943" data-name="Rectángulo 40943" width="1240" height="229" transform="translate(180 3958)" fill="#fff7da"/>
    </clipPath>
    <clipPath id="clip-path-2">
      <rect id="Rectángulo_40942" data-name="Rectángulo 40942" width="1238.94" height="534.573" fill="none"/>
    </clipPath>
  </defs>
  <g id="Grupo_166295" data-name="Grupo 166295" transform="translate(-180 -3958)">
    <path id="Trazado_150963" data-name="Trazado 150963" d="M0,0H1240V229H0Z" transform="translate(180 3958)" fill="#c4d1ff"/>
    <g id="Enmascarar_grupo_201" data-name="Enmascarar grupo 201" clip-path="url(#clip-path)">
      <g id="Grupo_165586" data-name="Grupo 165586" transform="translate(181 3740)" clip-path="url(#clip-path-2)">
        <path id="Trazado_150633" data-name="Trazado 150633" d="M1238.773,255.938l-1.979,155.921a1.124,1.124,0,0,1-1.125,1.11H1018.98a1.125,1.125,0,0,1-1.124-1.138l1.979-155.893Z" fill="#e0d0b6"/>
        <path id="Trazado_150634" data-name="Trazado 150634" d="M1061.328,338.258l-.949,74.71h-41.4a1.123,1.123,0,0,1-1.123-1.138l1.013-79.8Z" fill="#cfad7a"/>
        <path id="Trazado_150635" data-name="Trazado 150635" d="M1084.471,313.673l-.711,56.027-16.1,15.019.732-57.646h-49.462l.17-13.4Z" fill="#cfad7a"/>
        <path id="Trazado_150636" data-name="Trazado 150636" d="M1053.106,342.991a.952.952,0,0,1-1.068.922c-.2-.034-.415-.056-.617-.09q-16.31-2.344-32.642-4.676l.021-1.7q16.866,2.428,33.708,4.834a.63.63,0,0,1,.588.629.171.171,0,0,1,.01.079" fill="#e0d0b6"/>
        <path id="Trazado_150637" data-name="Trazado 150637" d="M1053.116,343.1l-.887,69.865h-1.686l.887-69.865a.848.848,0,0,1,1.666-.191.154.154,0,0,1,.01.078.361.361,0,0,1,.01.113" fill="#e0d0b6"/>
        <path id="Trazado_150638" data-name="Trazado 150638" d="M1084.463,314.314l-.027,2.147q-8.04,6.391-16.069,12.782l.027-2.147q8.023-6.392,16.069-12.782" fill="#e0d0b6"/>
        <path id="Trazado_150639" data-name="Trazado 150639" d="M1237.708,339.81l-.929,73.159H1054.151s-.389-23.348,3.358-32.51,11.317-20.066,25.953-28.014,39.978-16.266,62.542-22.662,51.836-9.859,63.77-9.511,20.35,4.148,27.934,19.538" fill="#fff0f0"/>
        <path id="Trazado_150640" data-name="Trazado 150640" d="M1195.935,387.738l4.176,20.1c.219,1.051,1.838.606,1.619-.445l-4.176-20.1c-.218-1.051-1.837-.606-1.619.445" fill="#c29e8c"/>
        <path id="Trazado_150641" data-name="Trazado 150641" d="M1108.864,412.969h-1.7c-.689-3.271-1.366-6.554-2.044-9.825-.223-1.057,1.39-1.5,1.613-.45.709,3.429,1.419,6.846,2.13,10.275" fill="#c29e8c"/>
        <path id="Trazado_150642" data-name="Trazado 150642" d="M1237.109,386.99l-.022,1.754q-18.5,5.379-36.986,10.769c-.215.067-.44.124-.655.191-1.038.3-1.456-1.315-.429-1.619.248-.067.485-.146.734-.213q18.684-5.43,37.358-10.882" fill="#c29e8c"/>
        <path id="Trazado_150643" data-name="Trazado 150643" d="M1139.683,350.422c-.138.213-.286.427-.424.641-3.277,4.9-7.384,9.634-12.5,12.635-2.729,1.6-6.063,2.979-7.095-.731-1.258-4.519-1.532-9.465-2.013-14.119-.339-3.35-.657-6.7-.884-10.05l1.592-.539c.451,7,1.126,14.029,2.264,20.92.166,1.045.184,3.192.87,4.058,1.051,1.327,3.8-.573,5.042-1.349,4.793-3,8.652-7.622,11.712-12.309a.818.818,0,0,1,.7-.394h.045a.436.436,0,0,1,.124.012.791.791,0,0,1,.569,1.225" fill="#c29e8c"/>
        <path id="Trazado_150644" data-name="Trazado 150644" d="M1168.212,355.042c-.889,4.4-7.173,3.564-10.436,2.979-6.405-1.169-12.661-4.193-18.516-6.958-.247-.124-.493-.237-.728-.349-.838-.382-.306-1.506.458-1.529a.442.442,0,0,1,.125.012.712.712,0,0,1,.28.078c4.022,1.9,8.136,3.665,12.309,5.216,3.515,1.293,7.254,2.485,11.056,2.271,3.06-.18,3.845-.944,3.98-3.62a46.955,46.955,0,0,0-.3-6.891c-.532-5.845-1.481-11.668-2.576-17.435-.2-1.057-.412-2.114-.635-3.159.552-.1,1.1-.214,1.645-.315.159.753.307,1.507.454,2.26.992,5.1,1.827,10.241,2.447,15.412.445,3.822,1.222,8.184.432,12.028" fill="#c29e8c"/>
        <path id="Trazado_150645" data-name="Trazado 150645" d="M1236.984,396.882l-.19,14.977a1.125,1.125,0,0,1-1.124,1.11h-92.531s-22.824-20.921-25.225-23.057-2.98-3.529-2.7-5.3c.367-2.294,1.89-3.575,4.188-3.114,2.22.449,12.544,7.172,13.191,7.588-.767-.7-13.037-11.781-14.549-13.928-1.557-2.215-2.466-5.025.677-7.3,1.72-1.242,3.837.2,4.225.5l.1-.007c.323-.395.945-1.345.945-1.345a.675.675,0,0,1-.089-.09c-.488-.529-2.913-3.384-1.261-6.06.884-1.427,3.071-1.933,4.795-1.382,2.329.753,17.187,15.131,17.187,15.131s-8.966-12.737-9.976-15.5-.441-5.1,1.439-6.251c2.617-1.584,5.584.282,6.577,1.754,1.125,1.653,13.678,18.785,13.678,18.785s3.587-9.792,5.707-13,5.542-.865,6.273,0,.29,7.262-.106,10.983,1.623,15.648,1.623,15.648l30.62,19.549h.012Z" fill="#f59c73"/>
        <path id="Trazado_150646" data-name="Trazado 150646" d="M1213.555,412.969h-3.114q-4.968-3.2-9.946-6.4l2.188-.585,10.872,6.981" fill="#b35546"/>
        <path id="Trazado_150647" data-name="Trazado 150647" d="M1119.378,337.923s1.776,8.291,7.095,11.577,13.526,3.978,22.753-.778,12.1-13.231,11.913-18.851l-3.244-13.634Z" fill="#f59c73"/>
        <path id="Trazado_150648" data-name="Trazado 150648" d="M1130.12,270.646h0a25.21,25.21,0,0,1,26.813,23.978l.95,19.48a25.99,25.99,0,0,1-24.322,27.118,25.211,25.211,0,0,1-26.814-23.978l-.949-19.48a25.989,25.989,0,0,1,24.322-27.118" fill="#f59c73"/>
        <path id="Trazado_150649" data-name="Trazado 150649" d="M1134.21,325.8a.505.505,0,0,0-.337-.124h-13.029a.517.517,0,0,0-.338.123.525.525,0,0,0-.065.048l-.008.008a.464.464,0,0,0-.14.532c2.369,6.98,11.454,6.572,14.113,0a.441.441,0,0,0-.2-.587" fill="#b35546"/>
        <path id="Trazado_150650" data-name="Trazado 150650" d="M1118.409,305.292a8.253,8.253,0,0,1-.14,3.292,2.007,2.007,0,0,1-3.863-.322,8.467,8.467,0,0,1,.05-3.172,2,2,0,0,1,3.953.2" fill="#2f2031"/>
        <path id="Trazado_150651" data-name="Trazado 150651" d="M1138.122,305.292a8.253,8.253,0,0,1-.14,3.292,2.007,2.007,0,0,1-3.863-.322,8.47,8.47,0,0,1,.05-3.172,2,2,0,0,1,3.953.2" fill="#2f2031"/>
        <path id="Trazado_150652" data-name="Trazado 150652" d="M1133.5,299.163c2.41-.573,4.365-.727,6.549.544,1.053.614,2.06-1.015,1.005-1.63-2.634-1.534-5.065-1.457-7.987-.763a.95.95,0,0,0,.433,1.849" fill="#3e2a43"/>
        <path id="Trazado_150653" data-name="Trazado 150653" d="M1119.45,299.163c-2.395-.573-4.347-.727-6.562.544a.947.947,0,0,1-.964-1.63c2.673-1.534,5.1-1.457,8.006-.763a.956.956,0,0,1-.48,1.849" fill="#3e2a43"/>
        <path id="Trazado_150654" data-name="Trazado 150654" d="M1112.184,283.089s-1.237,6.63,6.005,8.359,12.339-.231,16.868-2.767,12.758-8.508,14.862-8.186,3.438,1.614,2.794,6.918,4.652,26.632,4.652,26.632,4.581-27.324,5.143-35.28-2.105-12.38-8.708-13.375c0,0,1.437-4.194-1.3-6.874-1.89-1.854-4.4-2.985-15.045-2.357-11.221.663-26.327,7.647-31.855,13.959s-5.572,19.028.541,34.765c0,0,.916-13.348,6.039-21.794" fill="#3e2a43"/>
        <path id="Trazado_150655" data-name="Trazado 150655" d="M1163.167,306.243a8.313,8.313,0,0,1-8.29,8.186,8.062,8.062,0,0,1-8.082-8.186,8.312,8.312,0,0,1,8.29-8.186,8.062,8.062,0,0,1,8.082,8.186" fill="#f59c73"/>
        <path id="Trazado_150656" data-name="Trazado 150656" d="M1112.609,317.993a10.469,10.469,0,0,1-7.248-2.939,12.084,12.084,0,0,1-3.7-8.2c-.348-6.583,4.351-12.312,10.474-12.77a10.45,10.45,0,0,1,8.036,2.911,12.078,12.078,0,0,1,3.7,8.2,12.6,12.6,0,0,1-2.807,8.686,10.934,10.934,0,0,1-7.667,4.084c-.264.02-.527.029-.788.029m.294-22.253c-.225,0-.451.009-.677.025a9.4,9.4,0,0,0-6.587,3.509,10.828,10.828,0,0,0-2.412,7.463,10.381,10.381,0,0,0,3.177,7.044,9.007,9.007,0,0,0,6.9,2.5,9.391,9.391,0,0,0,6.586-3.509,10.824,10.824,0,0,0,2.412-7.462,10.378,10.378,0,0,0-3.177-7.045,9,9,0,0,0-6.227-2.526" fill="#ffd373"/>
        <path id="Trazado_150657" data-name="Trazado 150657" d="M1138.065,316.169a11.8,11.8,0,0,1-11.793-11.142,12.153,12.153,0,0,1,11.273-12.77,11.789,11.789,0,0,1,12.628,11.111,12.152,12.152,0,0,1-11.273,12.771c-.28.02-.559.03-.835.03m.3-22.255c-.241,0-.484.009-.728.025a10.443,10.443,0,0,0-9.685,10.972,10.135,10.135,0,0,0,10.85,9.546,10.444,10.444,0,0,0,9.685-10.972,10.125,10.125,0,0,0-10.122-9.571" fill="#ffd373"/>
        <path id="Trazado_150658" data-name="Trazado 150658" d="M1123.219,304.458l4.029-.28c1.069-.074,1.1-1.747.022-1.673l-4.03.28c-1.069.074-1.1,1.748-.021,1.673" fill="#ffd373"/>
        <path id="Trazado_150659" data-name="Trazado 150659" d="M1176.524,391.294l-20.62,21.675h15.335l14.329-15.905Z" fill="#b36152"/>
        <path id="Trazado_150660" data-name="Trazado 150660" d="M1177.172,408.989a10.3,10.3,0,0,1-.849,3.98h-18.986a10.146,10.146,0,0,1-.748-3.98,10.45,10.45,0,0,1,10.416-10.286,10.137,10.137,0,0,1,10.167,10.286" fill="#fff0f0"/>
        <path id="Trazado_150661" data-name="Trazado 150661" d="M1171.672,407.1l-.851.513-3.721,2.243q-1.881-3.12-3.761-6.239a.843.843,0,0,0-1.444.87q2.1,3.481,4.2,6.962a.765.765,0,0,0,.453.351c.024.01.045.021.068.028s.043,0,.065.006a.767.767,0,0,0,.571-.1l4.444-2.679.85-.513a.843.843,0,0,0-.87-1.444" fill="#c29e8c"/>
        <path id="Trazado_150662" data-name="Trazado 150662" d="M1149.832,301.928l5.357-3.774c.879-.619.062-2.07-.826-1.445l-5.357,3.774c-.878.619-.062,2.071.826,1.445" fill="#ffd373"/>
        <path id="Trazado_150663" data-name="Trazado 150663" d="M1137.959,382.129c-5.145-4.721-9.8-9-14.95-13.732.308-.36.985-1.394.985-1.394,5.211,4.8,9.949,9.134,15.172,13.935.8.741-.418,1.922-1.207,1.191" fill="#b35546"/>
        <path id="Trazado_150664" data-name="Trazado 150664" d="M1123.028,308.456c-.566,1.7-1.067,3.408-1.468,5.149a15,15,0,0,0-.779,4.319c.2,2.053,3.33,2.782,4.965,3.127,1.056.22,1.53-1.4.469-1.627-.888-.186-2.423-.379-3.046-1.069-.943-1.044-.416-2.337-.168-3.5a55.9,55.9,0,0,1,1.647-5.954c.345-1.037-1.276-1.479-1.62-.449" fill="#b35546"/>
        <path id="Trazado_150665" data-name="Trazado 150665" d="M1150.113,333.789a24.859,24.859,0,0,1-16.066,7.234l-.979.057a24.26,24.26,0,0,1-13.686-3.159s.2.922.657,2.271a26.021,26.021,0,0,0,11.445,2.63c.551,0,1.112-.022,1.664-.056l.978-.056a26.581,26.581,0,0,0,17.021-7.594c.791-.792-.34-1.98-1.034-1.327" fill="#b35546"/>
        <path id="Trazado_150666" data-name="Trazado 150666" d="M1238.773,255.938H1019.835l.171-13.368a5.621,5.621,0,0,1,5.62-5.549h207.693a5.622,5.622,0,0,1,5.621,5.692Z" fill="#fff0f0"/>
        <path id="Trazado_150667" data-name="Trazado 150667" d="M1061.782,246.479a4.11,4.11,0,1,1-4.11-4.11,4.11,4.11,0,0,1,4.11,4.11" fill="#ffb357"/>
        <path id="Trazado_150668" data-name="Trazado 150668" d="M1049.417,246.479a4.11,4.11,0,1,1-4.11-4.11,4.11,4.11,0,0,1,4.11,4.11" fill="#ffb357"/>
        <path id="Trazado_150669" data-name="Trazado 150669" d="M1037.051,246.479a4.11,4.11,0,1,1-4.11-4.11,4.11,4.11,0,0,1,4.11,4.11" fill="#ffb357"/>
        <path id="Trazado_150670" data-name="Trazado 150670" d="M1150.8,406.182a8.821,8.821,0,1,1,8.822-8.821,8.831,8.831,0,0,1-8.822,8.821m0-16.518a7.7,7.7,0,1,0,7.7,7.7,7.706,7.706,0,0,0-7.7-7.7" fill="#fff0f0"/>
        <path id="Trazado_150671" data-name="Trazado 150671" d="M1150.38,399.806h-1.289a2.445,2.445,0,0,1,0-4.89h1.289a2.445,2.445,0,0,1,0,4.89" fill="#fff0f0"/>
        <path id="Trazado_150672" data-name="Trazado 150672" d="M1154.485,395.636l-3.159,1.469a.331.331,0,0,0,0,.6l3.159,1.526a.331.331,0,0,0,.475-.3v-3a.331.331,0,0,0-.471-.3" fill="#fff0f0"/>
        <path id="Trazado_150673" data-name="Trazado 150673" d="M1135.874,393.533a8.259,8.259,0,1,1-11.146-3.491,8.259,8.259,0,0,1,11.146,3.491" fill="#f78b6a"/>
        <path id="Trazado_150674" data-name="Trazado 150674" d="M1134.4,395.879c-.645-.979-2.058-2.823-3.212-2.22l-7.173,3.752c-1.153.6-.445,2.816-.009,3.9.132.328.441.522.656.409l2.7-1.412c.194-.1.231-.413.083-.7l-.2-.389c-.148-.283-.111-.594.083-.7l2.894-1.513c.194-.1.471.045.619.328l.2.389c.148.283.426.43.619.329l2.7-1.413c.215-.113.232-.477.038-.772" fill="#fff0f0"/>
        <path id="Trazado_150675" data-name="Trazado 150675" d="M1106.31,406.182a8.821,8.821,0,1,1,8.82-8.821,8.832,8.832,0,0,1-8.82,8.821m0-16.518a7.7,7.7,0,1,0,7.7,7.7,7.708,7.708,0,0,0-7.7-7.7" fill="#fff"/>
        <path id="Trazado_150676" data-name="Trazado 150676" d="M1107.925,395.128a1.615,1.615,0,1,1-1.615-1.615,1.615,1.615,0,0,1,1.615,1.615" fill="#fff"/>
        <path id="Trazado_150677" data-name="Trazado 150677" d="M1109.905,401.209h-7.188a.793.793,0,0,1-.762-.98,4.461,4.461,0,0,1,8.725.079.773.773,0,0,1-.775.9" fill="#fff"/>
        <rect id="Rectángulo_40941" data-name="Rectángulo 40941" width="7.661" height="11.631" transform="translate(1085.428 390.001)" fill="#fff0f0"/>
        <path id="Trazado_150678" data-name="Trazado 150678" d="M1236.09,336.51a9.166,9.166,0,1,1-9.166-9.166,9.166,9.166,0,0,1,9.166,9.166" fill="#ffb357"/>
        <path id="Trazado_150679" data-name="Trazado 150679" d="M1213.522,318a6.073,6.073,0,1,1-6.073-6.074,6.074,6.074,0,0,1,6.073,6.074" fill="#ffb357"/>
        <path id="Trazado_150680" data-name="Trazado 150680" d="M849.854,369.78c-1.9,10.756-7.9,19.125-15.426,21.393a.642.642,0,0,0,0,1.22c7.531,2.263,13.529,10.614,15.426,21.365a.64.64,0,0,0,1.259,0c1.9-10.751,7.9-19.1,15.426-21.365a.642.642,0,0,0,0-1.22c-7.531-2.268-13.528-10.637-15.426-21.393a.64.64,0,0,0-1.259,0m0,0c-1.9,10.756-7.9,19.125-15.426,21.393a.642.642,0,0,0,0,1.22c7.531,2.263,13.529,10.614,15.426,21.365a.64.64,0,0,0,1.259,0c1.9-10.751,7.9-19.1,15.426-21.365a.642.642,0,0,0,0-1.22c-7.531-2.268-13.528-10.637-15.426-21.393a.64.64,0,0,0-1.259,0m0,0c-1.9,10.756-7.9,19.125-15.426,21.393a.642.642,0,0,0,0,1.22c7.531,2.263,13.529,10.614,15.426,21.365a.64.64,0,0,0,1.259,0c1.9-10.751,7.9-19.1,15.426-21.365a.642.642,0,0,0,0-1.22c-7.531-2.268-13.528-10.637-15.426-21.393a.64.64,0,0,0-1.259,0m0,0c-1.9,10.756-7.9,19.125-15.426,21.393a.642.642,0,0,0,0,1.22c7.531,2.263,13.529,10.614,15.426,21.365a.64.64,0,0,0,1.259,0c1.9-10.751,7.9-19.1,15.426-21.365a.642.642,0,0,0,0-1.22c-7.531-2.268-13.528-10.637-15.426-21.393a.64.64,0,0,0-1.259,0m0,0c-1.9,10.756-7.9,19.125-15.426,21.393a.642.642,0,0,0,0,1.22c7.531,2.263,13.529,10.614,15.426,21.365a.64.64,0,0,0,1.259,0c1.9-10.751,7.9-19.1,15.426-21.365a.642.642,0,0,0,0-1.22c-7.531-2.268-13.528-10.637-15.426-21.393a.64.64,0,0,0-1.259,0m0,0c-1.9,10.756-7.9,19.125-15.426,21.393a.642.642,0,0,0,0,1.22c7.531,2.263,13.529,10.614,15.426,21.365a.64.64,0,0,0,1.259,0c1.9-10.751,7.9-19.1,15.426-21.365a.642.642,0,0,0,0-1.22c-7.531-2.268-13.528-10.637-15.426-21.393a.64.64,0,0,0-1.259,0" fill="#ffb357"/>
        <path id="Trazado_150681" data-name="Trazado 150681" d="M896.349,416.034a7.973,7.973,0,1,1-7.973-7.973,7.973,7.973,0,0,1,7.973,7.973" fill="#ffb357"/>
        <path id="Trazado_150682" data-name="Trazado 150682" d="M51.022,360.774a7.884,7.884,0,1,0,7.884-7.884,7.884,7.884,0,0,0-7.884,7.884" fill="#ffb357"/>
        <path id="Trazado_150683" data-name="Trazado 150683" d="M5.9,331.773H70.888a7.143,7.143,0,0,0,7.017-6.59l3.265-43.7a5.839,5.839,0,0,0-5.888-6.268H10.312a7.164,7.164,0,0,0-7.036,6.609L.012,325.506A5.84,5.84,0,0,0,5.9,331.773" fill="#ffb357"/>
        <path id="Trazado_150684" data-name="Trazado 150684" d="M76.943,328.25v.013a7.134,7.134,0,0,1-1.222,1.524Q64.158,313.614,52.57,297.453c-.139-.2-.278-.391-.416-.592-.706-1,.932-1.94,1.637-.958.126.189.265.365.391.554q11.393,15.909,22.761,31.793" fill="#fff0f0"/>
        <path id="Trazado_150685" data-name="Trazado 150685" d="M27.226,298.259l-.264.34q-12.6,15.777-25.18,31.541a5.457,5.457,0,0,1-1.147-1.562q12.4-15.531,24.777-31.062c.164-.2.315-.391.479-.592.756-.945,2.091.4,1.335,1.335" fill="#fff0f0"/>
        <path id="Trazado_150686" data-name="Trazado 150686" d="M81.049,279.8q-13.434,8.332-26.868,16.652c-.541.328-1.083.668-1.612.995q-6.953,4.308-13.919,8.616a.118.118,0,0,1-.063.05c-.075.038-.138.063-.2.088a.992.992,0,0,1-.428.013.534.534,0,0,1-.126-.05.137.137,0,0,1-.088-.038.962.962,0,0,1-.076-1.663c.164-.1.34-.214.5-.314Q59.238,291.1,80.331,278.029a5.485,5.485,0,0,1,.718,1.776" fill="#fff0f0"/>
        <path id="Trazado_150687" data-name="Trazado 150687" d="M38.651,306.068a.116.116,0,0,1-.063.05,1.882,1.882,0,0,1-.2.088.5.5,0,0,1-.428.013.547.547,0,0,1-.126-.049.137.137,0,0,1-.088-.038c-.025,0-.05-.025-.075-.038q-5.347-3.741-10.707-7.495c-.517-.352-1.033-.717-1.55-1.083L3.268,282.023l.013-.19a6.56,6.56,0,0,1,.378-1.838q17.25,12.074,34.513,24.159c.152.1.3.214.454.315a1,1,0,0,1,.025,1.6" fill="#fff0f0"/>
        <path id="Trazado_150688" data-name="Trazado 150688" d="M452.663,30.018l-3.238,255.074a1.785,1.785,0,0,1-1.785,1.762H102.317a1.785,1.785,0,0,1-1.785-1.807L103.77,30.018Z" fill="#e0d0b6"/>
        <path id="Trazado_150689" data-name="Trazado 150689" d="M452.663,30.037h-348.9l.272-21.226A8.924,8.924,0,0,1,112.962,0H444a8.925,8.925,0,0,1,8.924,9.038Z" fill="#fff0f0"/>
        <path id="Trazado_150690" data-name="Trazado 150690" d="M168.2,15.019a6.526,6.526,0,1,1-6.526-6.526,6.526,6.526,0,0,1,6.526,6.526" fill="#ffb357"/>
        <path id="Trazado_150691" data-name="Trazado 150691" d="M148.57,15.019a6.526,6.526,0,1,1-6.526-6.526,6.526,6.526,0,0,1,6.526,6.526" fill="#ffb357"/>
        <path id="Trazado_150692" data-name="Trazado 150692" d="M128.935,15.019a6.526,6.526,0,1,1-6.526-6.526,6.526,6.526,0,0,1,6.526,6.526" fill="#ffb357"/>
        <path id="Trazado_150693" data-name="Trazado 150693" d="M132.689,217.193h-31.3l.025-2.014h31.3a1.007,1.007,0,0,1-.026,2.014" fill="#cfad7a"/>
        <path id="Trazado_150694" data-name="Trazado 150694" d="M112.823,151.317h-.04s19.25,4.995,33.43,25.456c0,0-19.3,8.66-44.1-16.534l.828-65.171s20.672-29.283,40.13-35.929c0,0-.431,33.975-23.469,64.023-1.515,1.974-3.091,3.907-4.807,5.821a.726.726,0,0,1,.163-.1.645.645,0,0,0,.142-.1s.021-.04.04-.02c2.9-1.833,22.28-13.151,52.511-8.539,0,0-10.015,22.656-50.149,30.289-1.514.282-3.068.564-4.682.806" fill="#cfad7a"/>
        <path id="Trazado_150695" data-name="Trazado 150695" d="M114.334,163.965s-.034,2.578-.082,6.485l-.457,35.969c-.049,3.806-2.549,8.76-12.376,8.76l.721-56.752Z" fill="#cfad7a"/>
        <path id="Trazado_150696" data-name="Trazado 150696" d="M114.8,128.983a.765.765,0,0,1,.163-.1,94.872,94.872,0,0,0-11.284,9.969c-.449.463-.9.947-1.307,1.41l.037-2.941c.266-.3.531-.583.817-.866a99.111,99.111,0,0,1,16.381-13.291c-1.516,1.973-3.091,3.907-4.807,5.82" fill="#e0d0b6"/>
        <path id="Trazado_150697" data-name="Trazado 150697" d="M117.5,150.511c-1.514.282-3.068.564-4.682.806h-.041a54.044,54.044,0,0,0-10.534-1.45l.026-2.034a57.968,57.968,0,0,1,15.231,2.678" fill="#e0d0b6"/>
        <path id="Trazado_150698" data-name="Trazado 150698" d="M114.251,170.449l-.03,2.336a64.55,64.55,0,0,1-12.146-9.324l.036-2.86a62.887,62.887,0,0,0,12.14,9.848" fill="#e0d0b6"/>
        <path id="Trazado_150699" data-name="Trazado 150699" d="M114.105,181.949l-.025,2.014H101.815l.025-2.014Z" fill="#e0d0b6"/>
        <path id="Trazado_150700" data-name="Trazado 150700" d="M296.139,59.133h43.749a1.758,1.758,0,0,1,1.762,1.785l-.789,62.115a1.812,1.812,0,0,1-1.807,1.785H295.3a1.757,1.757,0,0,1-1.762-1.785l.788-62.115a1.813,1.813,0,0,1,1.808-1.785" fill="#cfad7a"/>
        <path id="Trazado_150701" data-name="Trazado 150701" d="M335.2,102.46l-.026,2.053c-.648.392-1.313.767-2.013,1.106-4.582,2.339-9.973,3.82-14.121.125a10.675,10.675,0,0,1-2.241-3.409c-.837-1.606-1.893-4.159-3.614-5.034-1.117-.553-2.816-.3-4.032-.107a23.8,23.8,0,0,0-7.567,2.678A22.733,22.733,0,0,0,299.55,101l.027-2.124c.647-.374,1.33-.749,2.031-1.089,4.294-2.213,9.2-3.748,13.017-1.8,3.281,1.678,3.071,5.552,5.414,7.979,3.682,3.856,8.864,2.035,13.142-.321.7-.393,1.366-.785,2.014-1.178" fill="#e0d0b6"/>
        <path id="Trazado_150702" data-name="Trazado 150702" d="M335.442,64.69c-.018-.018-.035-.054-.052-.072a.135.135,0,0,0-.071-.035.847.847,0,0,0-.64-.268H301.015a.964.964,0,0,0-.646.25.247.247,0,0,1-.072.053c-.018.018-.018.054-.037.072a.926.926,0,0,0-.257.642l-.669,52.675a.939.939,0,0,0,.241.642c.018.018.018.036.053.054.018.017.036.035.053.053a.94.94,0,0,0,.64.25h33.664a.964.964,0,0,0,.646-.25.231.231,0,0,1,.072-.053c.018-.018.018-.036.036-.054a.886.886,0,0,0,.259-.642l.668-52.675a.892.892,0,0,0-.224-.642m-2.431,52.3H301.364l.643-50.657h31.647Z" fill="#e0d0b6"/>
        <path id="Trazado_150703" data-name="Trazado 150703" d="M357.523,80.685h31.5a1.759,1.759,0,0,1,1.763,1.785l-.573,45.109a1.813,1.813,0,0,1-1.808,1.785H356.9a1.757,1.757,0,0,1-1.762-1.785l.572-45.109a1.813,1.813,0,0,1,1.808-1.785" fill="#cfad7a"/>
        <path id="Trazado_150704" data-name="Trazado 150704" d="M375.361,124.611h-1.785a19.456,19.456,0,0,0-.51-2.017,13.223,13.223,0,0,0-2.808-5.123,13.63,13.63,0,0,0-8.638-4.391,15.11,15.11,0,0,0-2.015-.125l.023-1.767a12.514,12.514,0,0,1,2.016.072,15.593,15.593,0,0,1,9.9,4.944,15.106,15.106,0,0,1,3.364,6.39,19.227,19.227,0,0,1,.456,2.017" fill="#e0d0b6"/>
        <path id="Trazado_150705" data-name="Trazado 150705" d="M385.825,101.781l-.028,2.2c-.693-.2-1.388-.34-2.01-.518l-.427-.107c-2.17-.661-4.357-1.285-6.508-1.964-2.774-.874-5.617-1.856-7.679-3.98-3.488-3.606-2.3-6.961-.563-10.442.347-.66.7-1.339,1.043-2.017h1.838c-.383.66-.8,1.321-1.186,2.017a10.327,10.327,0,0,0-1.759,5.016c.116,4.926,5.627,6.711,9.485,7.907,1.618.5,3.7.857,5.784,1.375.676.142,1.352.321,2.01.517" fill="#e0d0b6"/>
        <path id="Trazado_150706" data-name="Trazado 150706" d="M385.784,85.324a.248.248,0,0,0-.052-.072c-.018-.017-.036-.035-.053-.053a.94.94,0,0,0-.64-.25H360.978a.929.929,0,0,0-.646.25c-.018.018-.054.036-.072.053s-.036.036-.036.054a.9.9,0,0,0-.276.642l-.478,37.645a.9.9,0,0,0,.242.643c.017.018.035.054.052.071s.054.036.071.054a.907.907,0,0,0,.64.25h24.061a.917.917,0,0,0,.628-.25.248.248,0,0,0,.072-.054.229.229,0,0,0,.054-.071.893.893,0,0,0,.258-.643l.478-37.645a.889.889,0,0,0-.242-.624m-2.24,37.27H361.5l.453-35.628H384Z" fill="#e0d0b6"/>
        <path id="Trazado_150707" data-name="Trazado 150707" d="M449.737,260.452l-.107,8.438s-6.058,12.386-26.57,17.964H393.616s15.137-19.978,56.121-26.4" fill="#cfad7a"/>
        <path id="Trazado_150708" data-name="Trazado 150708" d="M392.1,260.449s14.673,2.314,32.62-6.894c17.926-9.2,25.332-18.435,25.332-18.435l.106-8.366s-18.269-.929-33.244,7.127a91.266,91.266,0,0,0-24.73,19.984Z" fill="#cfad7a"/>
        <path id="Trazado_150709" data-name="Trazado 150709" d="M391.366,269.357s-13.782-12.665-17.606-28.718-.819-33.094-.819-33.094,18.776,22,19.241,46.32Z" fill="#cfad7a"/>
        <path id="Trazado_150710" data-name="Trazado 150710" d="M393.089,259.582a105.69,105.69,0,0,1,40.236-22.159,1,1,0,0,0-.511-1.942,108.115,108.115,0,0,0-41.131,22.677c-.981.863.429,2.283,1.406,1.424" fill="#e0d0b6"/>
        <path id="Trazado_150711" data-name="Trazado 150711" d="M391.914,259.543q-5.181-15.654-11.59-30.852c-.5-1.176-2.428-.575-1.926.616q7.206,17.068,12.823,34.734a24.4,24.4,0,0,0,.693-4.5" fill="#e0d0b6"/>
        <path id="Trazado_150712" data-name="Trazado 150712" d="M435.9,272.958a239.231,239.231,0,0,0-29.983,13.9h-4.108a240.849,240.849,0,0,1,33.572-15.829c1.213-.463,1.712,1.49.519,1.933" fill="#e0d0b6"/>
        <path id="Trazado_150713" data-name="Trazado 150713" d="M401.449,219.473s29.5-5.112,42.548-20.139c0,0-15.609-2.944-39.02,10.689Z" fill="#cfad7a"/>
        <path id="Trazado_150714" data-name="Trazado 150714" d="M405.939,212.5c-11.625,22.556-14.522,49.24-14.377,74.354h-2.014c-.14-25.476,2.882-52.5,14.672-75.361.6-1.168,2.317-.141,1.719,1.007" fill="#cfad7a"/>
        <path id="Trazado_150715" data-name="Trazado 150715" d="M363.87,286.854H112.813s.193-56.39,3.691-87.666c3.5-31.3,13.73-56.713,36.159-65.7,18.542-7.431,50.527-14.057,82.167-15.749,31.62-1.712,76.156,3.988,106.9,18.75,18.055,8.66,25.995,41.608,25.843,72.6-.207,38.527-3.706,77.758-3.706,77.758" fill="#694456"/>
        <path id="Trazado_150716" data-name="Trazado 150716" d="M310.327,260.915a408.383,408.383,0,0,0-41.655,25.939h-3.484c14.224-9.969,28.805-19.514,44.154-27.651,1.155-.6,2.14,1.108.985,1.712" fill="#2f2031"/>
        <path id="Trazado_150717" data-name="Trazado 150717" d="M187.516,261.469c-4.218,2.256-5.647,3.353-9.888,5.871l-.432-2.1c2.78-1.651,5.579-3.242,8.358-4.793,1.581.785,1.962,1.02,1.962,1.02" fill="#2f2031"/>
        <path id="Trazado_150718" data-name="Trazado 150718" d="M293.1,224.866l-.78,2.159c-.161,0-15.222-.018-39.231,6.507-7.335,1.994-14.641,4.307-22.107,7.107,0,0-.33-.226-2.309-1.414q11.869-4.47,23.519-7.633c24.433-6.666,40.243-6.726,40.908-6.726" fill="#2f2031"/>
        <path id="Trazado_150719" data-name="Trazado 150719" d="M177.922,266.652q-2.93-35.465-5.86-70.929c-.1-1.269-2.1-1.281-2,0q2.93,35.464,5.86,70.929c.105,1.269,2.1,1.282,2,0" fill="#2f2031"/>
        <path id="Trazado_150720" data-name="Trazado 150720" d="M310.509,195.564l-.417,32.855a1,1,0,0,0,2,0q.209-16.427.417-32.855a1,1,0,0,0-2,0" fill="#2f2031"/>
        <path id="Trazado_150721" data-name="Trazado 150721" d="M208.935,118l-.071,5.583s7.741,8,31.118,7.281c20.273-.62,26.726-7.9,26.726-7.9l.053-4.222a3.648,3.648,0,0,0-2.675-3.589c-6.629-1.825-25.11-5.616-52.062-.818A3.778,3.778,0,0,0,208.935,118" fill="#694456"/>
        <path id="Trazado_150722" data-name="Trazado 150722" d="M263.779,105.923l-.153,12.084s-2.661,3.363-18.044,4.652c-22.4,1.852-33.063-6.828-33.063-6.828l1.6-25.784Z" fill="#b36152"/>
        <path id="Trazado_150723" data-name="Trazado 150723" d="M274.365,85.891a30.651,30.651,0,0,1-29.2,31.5c-.464.02-.927.04-1.37.04A29.749,29.749,0,0,1,214.034,88.59l-.561-17.662-.289-9.043a30.636,30.636,0,0,1,29.179-31.5A29.712,29.712,0,0,1,273.5,59.166Z" fill="#b36152"/>
        <path id="Trazado_150724" data-name="Trazado 150724" d="M241.312,72.875c-.034,1.547-.209,3.866-2.343,3.729-1.639-.1-2.014-1.794-2.349-3.1a1.011,1.011,0,0,0-1.949.535c.608,2.383,1.849,4.814,4.729,4.582,3.072-.248,3.869-3.155,3.926-5.741a1.008,1.008,0,0,0-2.014,0" fill="#2f2031"/>
        <path id="Trazado_150725" data-name="Trazado 150725" d="M263.81,72.875c-.034,1.547-.209,3.866-2.343,3.729-1.639-.1-2.015-1.794-2.349-3.1a1.011,1.011,0,0,0-1.949.535c.609,2.383,1.849,4.814,4.729,4.582,3.072-.248,3.869-3.155,3.926-5.741a1.008,1.008,0,0,0-2.014,0" fill="#2f2031"/>
        <path id="Trazado_150726" data-name="Trazado 150726" d="M263.728,109.977l-.034,2.659a31.447,31.447,0,0,1-18.518,7.089c-.543.02-.987.04-1.41.04a30.833,30.833,0,0,1-10.709-1.933,1.012,1.012,0,0,1,.728-1.873,28.947,28.947,0,0,0,10.007,1.792c.383,0,.806-.02,1.209-.04a29.379,29.379,0,0,0,18.727-7.734" fill="#6e2f23"/>
        <path id="Trazado_150727" data-name="Trazado 150727" d="M245.247,100.961h12.238a1.008,1.008,0,0,0,.026-2.014H245.272a1.008,1.008,0,0,0-.025,2.014" fill="#6e2f23"/>
        <path id="Trazado_150728" data-name="Trazado 150728" d="M252.725,79.307c.611,1.313,1.227,2.623,1.8,3.95.489,1.121,1.561,2.7.958,3.864-.552,1.061-2.417,2.083-3.43,2.695-1.115.672-.126,2.414.994,1.739,1.45-.874,3.712-2.257,4.461-3.828.575-1.207-.006-2.536-.458-3.662-.784-1.957-1.688-3.865-2.578-5.773-.545-1.17-2.295-.148-1.752,1.015" fill="#6e2f23"/>
        <path id="Trazado_150729" data-name="Trazado 150729" d="M226.76,80.685a9.912,9.912,0,0,1-9.884,9.76,9.613,9.613,0,0,1-9.636-9.76,9.912,9.912,0,0,1,9.884-9.76,9.613,9.613,0,0,1,9.636,9.76" fill="#b36152"/>
        <path id="Trazado_150730" data-name="Trazado 150730" d="M270.9,47.888s-9.8,1.047-20.2,1.349c-10.375.3-23.519-1.852-25.566.766-2.047,2.638.828,7.753-2.036,14.419a10.7,10.7,0,0,1-9.629,6.506l-.288-9.043a30.636,30.636,0,0,1,29.179-31.5,29.722,29.722,0,0,1,28.537,17.5" fill="#4f292c"/>
        <path id="Trazado_150731" data-name="Trazado 150731" d="M230.984,240.639s-27.571-17.138-37.591-21.011-30.681-11.619-33.946-10.689-4.719,5.577-3.052,8.52,10.748,7.591,10.748,7.591-13.019.465-16.133,1.705-4.1,5.267-3.358,8.21c0,0-4.216,2.634-3.191,7.281s7.84,4.8,7.84,4.8H161.6s-10.281,4.492-10.778,6.971-.011,6.971,5.88,6.661,23.355-3.1,25.355-2.013,5.464,2.8,5.464,2.8Z" fill="#b36152"/>
        <path id="Trazado_150732" data-name="Trazado 150732" d="M287.513,225.1s15.119-1.136,24.615.38c0,0-.5,22.667-1.295,35.442,0,0-9.013-15.683-23.32-35.822" fill="#b36152"/>
        <path id="Trazado_150733" data-name="Trazado 150733" d="M242.1,67.05c-2.865-.644-5.194-.8-7.815.756a1.129,1.129,0,0,1-1.176-1.927c3.161-1.872,6.059-1.821,9.533-1.04a1.139,1.139,0,0,1-.542,2.211" fill="#4f292c"/>
        <path id="Trazado_150734" data-name="Trazado 150734" d="M265.648,67.05c-2.865-.644-5.194-.8-7.815.756a1.129,1.129,0,0,1-1.176-1.927c3.162-1.872,6.059-1.821,9.533-1.04a1.139,1.139,0,0,1-.542,2.211" fill="#4f292c"/>
        <path id="Trazado_150735" data-name="Trazado 150735" d="M269.077,118.51a21.14,21.14,0,0,1-1.459,3.887c-3.265,6.525-9.91,9.626-16.792,10.774-16.166,2.7-34.234-.262-44.448-12.647.807-.121,1.614-.222,2.421-.323,9.87,10.956,26.513,13.514,41.508,11.037,7.023-1.168,13.548-4.37,16.235-11.339.208-.523.376-1.047.543-1.571.664.061,1.328.1,1.992.182" fill="#2f2031"/>
        <path id="Trazado_150736" data-name="Trazado 150736" d="M178.637,240.232q-8.532,3.414-17.044,6.807h-5.337c7.287-2.92,14.6-5.84,21.862-8.76,1.214-.484,1.713,1.47.519,1.953" fill="#6e2f23"/>
        <path id="Trazado_150737" data-name="Trazado 150737" d="M178.866,230.1q-15.562,2.81-31.217,4.833a7.865,7.865,0,0,1-.236-1.973q15.522-1.994,30.934-4.793c1.272-.242,1.791,1.712.519,1.933" fill="#6e2f23"/>
        <path id="Trazado_150738" data-name="Trazado 150738" d="M163.509,223.033H182a1.008,1.008,0,0,1-.026,2.014H167.149Z" fill="#6e2f23"/>
        <path id="Trazado_150739" data-name="Trazado 150739" d="M291.669,270.636q-13.355-20.79-27.539-41.02a16.694,16.694,0,0,1-2.289.251q14.439,20.559,28.021,41.7c.582-.344,1.193-.641,1.807-.932" fill="#2f2031"/>
        <path id="Trazado_150740" data-name="Trazado 150740" d="M311.346,274.714a14.007,14.007,0,1,1,14.006-14.006,14.022,14.022,0,0,1-14.006,14.006m0-26.229a12.222,12.222,0,1,0,12.221,12.223,12.238,12.238,0,0,0-12.221-12.223" fill="#fff0f0"/>
        <path id="Trazado_150741" data-name="Trazado 150741" d="M311.976,264.59h-4.644a2.583,2.583,0,0,1-2.583-2.583v-2.6a2.582,2.582,0,0,1,2.583-2.583h4.644a2.582,2.582,0,0,1,2.583,2.583v2.6a2.582,2.582,0,0,1-2.583,2.583" fill="#fff0f0"/>
        <path id="Trazado_150742" data-name="Trazado 150742" d="M317.2,257.968,312.18,260.3a.526.526,0,0,0-.007.95l5.016,2.424a.526.526,0,0,0,.755-.473v-4.757a.526.526,0,0,0-.748-.477" fill="#fff0f0"/>
        <path id="Trazado_150743" data-name="Trazado 150743" d="M287.643,254.63a13.114,13.114,0,1,1-17.7-5.543,13.114,13.114,0,0,1,17.7,5.543" fill="#8b6d60"/>
        <path id="Trazado_150744" data-name="Trazado 150744" d="M285.3,258.354c-1.025-1.555-3.269-4.483-5.1-3.525-1.642.859-9.748,5.1-11.39,5.958-1.831.957-.706,4.471-.014,6.2.209.52.7.829,1.042.65l4.288-2.243c.308-.161.367-.656.132-1.105l-.323-.618c-.235-.449-.176-.943.132-1.1l4.6-2.4c.308-.161.748.072.983.522l.323.617c.235.449.675.683.983.522l4.287-2.243c.343-.179.37-.758.061-1.226" fill="#fff0f0"/>
        <path id="Trazado_150745" data-name="Trazado 150745" d="M253.814,260.708A13.114,13.114,0,1,1,240.7,247.594a13.114,13.114,0,0,1,13.114,13.114" fill="#8b6d60"/>
        <path id="Trazado_150746" data-name="Trazado 150746" d="M243.266,257.162A2.565,2.565,0,1,1,240.7,254.6a2.565,2.565,0,0,1,2.565,2.564" fill="#fff0f0"/>
        <path id="Trazado_150747" data-name="Trazado 150747" d="M246.41,266.818H235a1.259,1.259,0,0,1-1.21-1.556,7.083,7.083,0,0,1,13.853.125,1.228,1.228,0,0,1-1.229,1.431" fill="#fff0f0"/>
        <path id="Trazado_150748" data-name="Trazado 150748" d="M843.215,248.035H1006.38l-1.464,115.349a1,1,0,0,1-1,.989H842.752a1,1,0,0,1-1-1.014Z" fill="#8b6d60"/>
        <path id="Trazado_150749" data-name="Trazado 150749" d="M1004.93,309.327l-.037,2.933-.511.8-.031.05-.132.951-1.863,13.506H987.118l-1.01-13.506-.077-1-.317-4.185h18.771a.442.442,0,0,1,.445.451" fill="#a88779"/>
        <path id="Trazado_150750" data-name="Trazado 150750" d="M1004.383,313.061l-.031.05-.132.951H986.109l-.077-1Z" fill="#8b6d60"/>
        <path id="Trazado_150751" data-name="Trazado 150751" d="M993.846,308.877h-7.088s-4.258-1.3-5.179-7.629a.412.412,0,0,1,.366-.47,11.279,11.279,0,0,1,5.932,1.171,9.995,9.995,0,0,1,1.381.831,13.362,13.362,0,0,1,4.588,6.1" fill="#a88779"/>
        <path id="Trazado_150752" data-name="Trazado 150752" d="M989.2,280.448c-1.309,3.08-5.486,15.338,3.7,29.314a.5.5,0,0,0,.5.214l5.587-.979a.49.49,0,0,0,.411-.507c-.144-2.725-1.291-17.76-9.351-28.158a.5.5,0,0,0-.841.116" fill="#a88779"/>
        <path id="Trazado_150753" data-name="Trazado 150753" d="M1000.657,308.657a.246.246,0,0,1-.182.13l-4.872.541a.252.252,0,0,1-.258-.2c-1.3-7.618-.691-13.425.615-17.73.01-.01.01-.01,0-.01.168-.57.345-1.091.541-1.6a20.253,20.253,0,0,1,5.463-8.349.314.314,0,0,1,.508.17,48.539,48.539,0,0,1,1.329,8.9c.033.521.057,1.021.061,1.522.227,9.691-2.754,15.768-3.205,16.629" fill="#a88779"/>
        <path id="Trazado_150754" data-name="Trazado 150754" d="M1005.86,289.155l-.179,14.076-2.772,4.646-.593,1h-3.955c-.006-.331-.011-.671,0-1,.229-9.391,7.5-18.722,7.5-18.722" fill="#a88779"/>
        <path id="Trazado_150755" data-name="Trazado 150755" d="M1002.909,307.876l-.593,1H985.837a.5.5,0,0,1,.012-1Z" fill="#8b6d60"/>
        <path id="Trazado_150756" data-name="Trazado 150756" d="M1005.308,332.534H842.142l.064-4.968h163.165Z" fill="#a88779"/>
        <path id="Trazado_150757" data-name="Trazado 150757" d="M884.665,313.283a14.7,14.7,0,0,1-3.62,9.16c-.315.351-.63.691-.964,1a14.849,14.849,0,0,1-4.9,3.124,14.293,14.293,0,0,1-4.187.961c-.361.03-.722.04-1.092.04a13.722,13.722,0,0,1-5.2-1,13.449,13.449,0,0,1-4.686-3.113l-.01-.011a11.49,11.49,0,0,1-.888-1,13.84,13.84,0,0,1-3.028-9.16,14.861,14.861,0,0,1,14.748-14.276,13.739,13.739,0,0,1,13.825,14.276" fill="#a88779"/>
        <path id="Trazado_150758" data-name="Trazado 150758" d="M871.978,291.307a.811.811,0,0,0-.8-.012.727.727,0,0,0-.379.631l-.373,11.4a.686.686,0,0,0,.327.628.777.777,0,0,0,.406.111.8.8,0,0,0,.389-.1.726.726,0,0,0,.38-.631l.372-11.4a.687.687,0,0,0-.326-.629" fill="#a88779"/>
        <path id="Trazado_150759" data-name="Trazado 150759" d="M871.141,323.454l-.11,3.114-.032.961v.04H859.2s.016-.441.033-1c.029-.751.052-1.732.068-2.173a1,1,0,0,1,.722-.941Z" fill="#a88779"/>
        <path id="Trazado_150760" data-name="Trazado 150760" d="M883.175,323.444H860.009a11.83,11.83,0,0,1-.889-1h24.068a.5.5,0,0,1-.013,1" fill="#8b6d60"/>
        <path id="Trazado_150761" data-name="Trazado 150761" d="M883.122,327.569H859.2s.015-.441.032-1h23.908a.5.5,0,0,1-.013,1" fill="#8b6d60"/>
        <path id="Trazado_150762" data-name="Trazado 150762" d="M851.007,293.288h41.6l-6.881-37.912H861.962Z" fill="#a88779"/>
        <path id="Trazado_150763" data-name="Trazado 150763" d="M862.027,267.442q-.123,9.7-.246,19.407a.5.5,0,0,0,1,0q.123-9.7.246-19.407a.5.5,0,0,0-1,0" fill="#8b6d60"/>
        <path id="Trazado_150764" data-name="Trazado 150764" d="M871.751,267.442q-.123,9.7-.246,19.407a.5.5,0,0,0,1,0q.123-9.7.246-19.407a.5.5,0,0,0-1,0" fill="#8b6d60"/>
        <path id="Trazado_150765" data-name="Trazado 150765" d="M881.209,266.941q-.123,9.7-.246,19.407a.5.5,0,0,0,1,0q.123-9.7.246-19.407a.5.5,0,0,0-1,0" fill="#8b6d60"/>
        <path id="Trazado_150766" data-name="Trazado 150766" d="M994.884,364.371H857.907s5.791-35.781,22.188-49.126c13.4-10.923,26.163-14.417,43.4-16.679,3.851-.511,7.921-.952,12.271-1.4a111.77,111.77,0,0,1,16.576-.481c17.139.791,31.814,5.657,38.919,13.015,9.328,9.651,3.621,54.673,3.621,54.673" fill="#ffb357"/>
        <path id="Trazado_150767" data-name="Trazado 150767" d="M918.111,320.571c-1-1.332-2.019-2.663-3.033-4-2.672-.9-5.343-1.812-8.015-2.713a.424.424,0,0,1-.294-.48.509.509,0,0,1,.084-.281q4.77-6.742,9.562-13.475c.451-.08.913-.16,1.374-.23q-4.878,6.862-9.745,13.745,3.663,1.232,7.326,2.483a.429.429,0,0,1,.379.181q1.564,2.072,3.151,4.144c.384.5-.4,1.132-.789.621" fill="#d45a3b"/>
        <path id="Trazado_150768" data-name="Trazado 150768" d="M960.244,317.888a.439.439,0,0,1-.3.5.429.429,0,0,1-.28.05c-2.8-.341-5.588-.691-8.387-1.032l-4.563,2.283c-.575.28-.924-.641-.359-.921q2.358-1.187,4.714-2.353a.393.393,0,0,1,.421.02c2.558.311,5.107.621,7.667.941q-1.523-10.226-3.055-20.453l1.031.09q1.548,10.437,3.109,20.874" fill="#d45a3b"/>
        <path id="Trazado_150769" data-name="Trazado 150769" d="M952.343,296.683l-14.955,67.688H907.4c-.16,0,10.964-45.062,16.093-65.806,3.851-.51,7.921-.951,12.272-1.4a111.89,111.89,0,0,1,16.575-.48" fill="#fff0f0"/>
        <path id="Trazado_150770" data-name="Trazado 150770" d="M950.506,305l-.318,1.422a19.162,19.162,0,0,1-12.949,3.494c-6.158-.721-11.336-5.356-11.777-11.6l.983-.12c.444,6.768,6.767,11.063,13.328,10.823A19.365,19.365,0,0,0,950.506,305" fill="#c29e8c"/>
        <path id="Trazado_150771" data-name="Trazado 150771" d="M951.515,286.54l-.138,10.9s-2.848,5.794-9.223,6.61a20.056,20.056,0,0,1-14.9-4.048l.033-2.6Z" fill="#ffb08c"/>
        <path id="Trazado_150772" data-name="Trazado 150772" d="M935.636,253.344h0a15.751,15.751,0,0,1,15.791,15.994l-.222,17.483a16.242,16.242,0,0,1-16.2,15.995,15.751,15.751,0,0,1-15.791-15.995l.221-17.483a16.243,16.243,0,0,1,16.2-15.994" fill="#ffb08c"/>
        <path id="Trazado_150773" data-name="Trazado 150773" d="M936.2,279.434h3.337a.5.5,0,0,0,.013-1h-3.337a.5.5,0,0,0-.013,1" fill="#2f2031"/>
        <path id="Trazado_150774" data-name="Trazado 150774" d="M936.475,279.363l3.031-1.435c.585-.276.089-1.139-.494-.864l-3.031,1.436c-.585.275-.089,1.139.494.863" fill="#2f2031"/>
        <path id="Trazado_150775" data-name="Trazado 150775" d="M929.373,279.134c-.4,1.116-.8,2.237-1.168,3.364a9.686,9.686,0,0,0-.7,2.47c-.056,1.515,1.661,2.129,2.825,2.652.58.26,1.1-.6.516-.865-.481-.215-1.627-.569-1.919-1.027a2.743,2.743,0,0,1,.054-2.4c.425-1.318.879-2.627,1.351-3.929.221-.609-.743-.871-.962-.266" fill="#c45d4d"/>
        <path id="Trazado_150776" data-name="Trazado 150776" d="M922.39,261.753s7.114,6.8,14.591,7.116,11.933-2.172,11.933-2.172-3.25,11.021,2.375,13.6,8.413-14.319,7.008-17.7a5.368,5.368,0,0,0-4.541-3.459s-1.591-7.723-8.547-11.1H926.538s-4.049,2.815-1.85,7c0,0-7.947-3.037-7.465,5.068a14.756,14.756,0,0,0,2.4,7.481Z" fill="#3e2a43"/>
        <path id="Trazado_150777" data-name="Trazado 150777" d="M955.42,283.229a5.631,5.631,0,0,1-5.615,5.545,5.461,5.461,0,0,1-5.475-5.545,5.631,5.631,0,0,1,5.616-5.545,5.461,5.461,0,0,1,5.474,5.545" fill="#ffb08c"/>
        <path id="Trazado_150778" data-name="Trazado 150778" d="M963.636,342.466q-1.941,10.947-3.9,21.9h-1q1.989-11.082,3.956-22.165c.108-.631,1.066-.361.948.26" fill="#d45a3b"/>
        <path id="Trazado_150779" data-name="Trazado 150779" d="M894.705,342.586q-2.361,10.887-4.722,21.785h-1.011q2.393-11.023,4.775-22.055c.138-.621,1.1-.361.958.27" fill="#d45a3b"/>
        <path id="Trazado_150780" data-name="Trazado 150780" d="M925.92,277.872a5.3,5.3,0,0,1-.052,2.124,1.3,1.3,0,0,1-2.495-.162,5.445,5.445,0,0,1-.005-2.045,1.292,1.292,0,0,1,2.552.083" fill="#2f2031"/>
        <path id="Trazado_150781" data-name="Trazado 150781" d="M926.727,292.725a9.333,9.333,0,0,0,7.185-.333.459.459,0,0,0-.4-.827,8.369,8.369,0,0,1-6.469.292.463.463,0,0,0-.319.868" fill="#c45d4d"/>
        <path id="Trazado_150782" data-name="Trazado 150782" d="M935.685,275.077a5.228,5.228,0,0,1,4.1-1.074c.772.148,1.036-1.059.262-1.206a6.434,6.434,0,0,0-5.023,1.249.612.612,0,0,0,.66,1.031" fill="#3e2a43"/>
        <path id="Trazado_150783" data-name="Trazado 150783" d="M922.663,274.391a5.227,5.227,0,0,1,4.175.735c.64.456,1.383-.531.741-.988a6.438,6.438,0,0,0-5.085-.96.613.613,0,0,0,.169,1.213" fill="#3e2a43"/>
        <path id="Trazado_150784" data-name="Trazado 150784" d="M946.5,298.111a15.648,15.648,0,0,1-11.113,4.65h-.661a14.8,14.8,0,0,1-3.8-.481,20.241,20.241,0,0,0,4.447,1.482,16.646,16.646,0,0,0,11.7-4.835c.563-.606.02-1.416-.575-.816" fill="#c45d4d"/>
        <path id="Trazado_150785" data-name="Trazado 150785" d="M990.919,308.377a32.433,32.433,0,0,1-3.042-6.427,9.9,9.9,0,0,1,1.381.831,31.156,31.156,0,0,0,2.528,5.085c.334.551-.533,1.052-.867.511" fill="#8b6d60"/>
        <path id="Trazado_150786" data-name="Trazado 150786" d="M999.119,308.377c-.028.641-1.029.641-1,0a52.544,52.544,0,0,0-.251-7.859,49.432,49.432,0,0,0-1.906-9.12c.01-.01.01-.01,0-.01.167-.571.344-1.092.541-1.6a49.638,49.638,0,0,1,2.13,8.85c.092.6.175,1.211.237,1.832v.01a50.568,50.568,0,0,1,.25,7.9" fill="#8b6d60"/>
        <path id="Trazado_150787" data-name="Trazado 150787" d="M1003.862,292.028a39.107,39.107,0,0,0-4.994,8.45c0,.01-.01.02-.01.03a.542.542,0,0,1-.992.01.476.476,0,0,1,.034-.281c.237-.54.474-1.081.731-1.6a40.177,40.177,0,0,1,5.169-8.129c.034.521.057,1.021.062,1.522" fill="#8b6d60"/>
        <path id="Trazado_150788" data-name="Trazado 150788" d="M948.5,314.1l-1.678,7.589H917.8c.623-2.573,1.256-5.126,1.858-7.589Z" fill="#e3cfcf"/>
        <path id="Trazado_150789" data-name="Trazado 150789" d="M944.663,331.463l-1.678,7.589H913.511c.612-2.463,1.235-5.006,1.868-7.589Z" fill="#e3cfcf"/>
        <path id="Trazado_150790" data-name="Trazado 150790" d="M940.935,348.323l-1.678,7.589H909.4c.528-2.213,1.152-4.776,1.838-7.589Z" fill="#e3cfcf"/>
        <path id="Trazado_150791" data-name="Trazado 150791" d="M966.936,340.382a45.043,45.043,0,0,0-5.343,8.156c-.293.575.564,1.083.858.505a43.887,43.887,0,0,1,5.184-7.953c.407-.5-.288-1.21-.7-.708" fill="#d45a3b"/>
        <path id="Trazado_150792" data-name="Trazado 150792" d="M1006.381,248.035H843.217l.153-11.9a5.005,5.005,0,0,1,5.005-4.942h153.149a5.006,5.006,0,0,1,5.005,5.069Z" fill="#fff0f0"/>
        <path id="Trazado_150793" data-name="Trazado 150793" d="M879.359,239.611a3.66,3.66,0,1,1-3.66-3.661,3.66,3.66,0,0,1,3.66,3.661" fill="#ffb357"/>
        <path id="Trazado_150794" data-name="Trazado 150794" d="M868.347,239.611a3.66,3.66,0,1,1-3.66-3.661,3.66,3.66,0,0,1,3.66,3.661" fill="#ffb357"/>
        <path id="Trazado_150795" data-name="Trazado 150795" d="M857.334,239.611a3.66,3.66,0,1,1-3.66-3.661,3.66,3.66,0,0,1,3.66,3.661" fill="#ffb357"/>
        <path id="Trazado_150796" data-name="Trazado 150796" d="M943.271,358.329a7.855,7.855,0,1,1,7.856-7.855,7.865,7.865,0,0,1-7.856,7.855m0-14.71a6.855,6.855,0,1,0,6.855,6.855,6.863,6.863,0,0,0-6.855-6.855" fill="#fff0f0"/>
        <path id="Trazado_150797" data-name="Trazado 150797" d="M942.894,352.652h-1.147a2.177,2.177,0,0,1-2.177-2.177h0a2.177,2.177,0,0,1,2.177-2.177h1.147a2.178,2.178,0,1,1,0,4.355" fill="#fff0f0"/>
        <path id="Trazado_150798" data-name="Trazado 150798" d="M946.551,348.937l-2.813,1.308a.3.3,0,0,0,0,.533l2.813,1.36a.294.294,0,0,0,.423-.265V349.2a.3.3,0,0,0-.419-.267" fill="#fff0f0"/>
        <path id="Trazado_150799" data-name="Trazado 150799" d="M929.976,347.065a7.356,7.356,0,1,1-9.927-3.109,7.355,7.355,0,0,1,9.927,3.109" fill="#f78b6a"/>
        <path id="Trazado_150800" data-name="Trazado 150800" d="M928.662,349.154c-.575-.872-1.833-2.514-2.86-1.977l-6.389,3.341c-1.027.537-.4,2.508-.008,3.478.117.291.393.464.585.364l2.4-1.258c.173-.09.206-.368.075-.62l-.182-.346c-.131-.252-.1-.529.075-.62l2.577-1.348c.173-.09.42.041.551.293l.182.346c.131.252.378.383.551.293l2.4-1.258c.192-.1.207-.426.034-.688" fill="#fff0f0"/>
        <path id="Trazado_150801" data-name="Trazado 150801" d="M903.646,358.329a7.855,7.855,0,1,1,7.856-7.855,7.864,7.864,0,0,1-7.856,7.855m0-14.71a6.855,6.855,0,1,0,6.855,6.855,6.863,6.863,0,0,0-6.855-6.855" fill="#fff0f0"/>
        <path id="Trazado_150802" data-name="Trazado 150802" d="M905.086,348.485a1.438,1.438,0,1,1-1.438-1.438,1.438,1.438,0,0,1,1.438,1.438" fill="#fff0f0"/>
        <path id="Trazado_150803" data-name="Trazado 150803" d="M906.849,353.9h-6.4a.706.706,0,0,1-.679-.872,3.973,3.973,0,0,1,7.77.069.689.689,0,0,1-.69.8" fill="#fff0f0"/>
        <path id="Trazado_150804" data-name="Trazado 150804" d="M370.477,339.563l-2.456,193.561a1.466,1.466,0,0,1-1.466,1.448H85.173a1.466,1.466,0,0,1-1.466-1.485l2.455-193.524Z" fill="#8b6d60"/>
        <path id="Trazado_150805" data-name="Trazado 150805" d="M369.544,413.176H85.235l.056-4.4H369.6Z" fill="#a88779"/>
        <path id="Trazado_150806" data-name="Trazado 150806" d="M299.638,480.836H84.375l.056-4.4H299.694Z" fill="#a88779"/>
        <path id="Trazado_150807" data-name="Trazado 150807" d="M139.731,328.786h5.163l-1.019,80.225h-5.162Z" fill="#a88779"/>
        <path id="Trazado_150808" data-name="Trazado 150808" d="M282.365,328.786h5.163l-1.019,80.225h-5.162Z" fill="#a88779"/>
        <path id="Trazado_150809" data-name="Trazado 150809" d="M370.057,372.329l-.444,34.98H287.259L301.7,372.138H315.69l4.612-8.609h15.576L334.6,366.36h13.2l-.827,2.757H365.36l-1.272,3.212Z" fill="#a88779"/>
        <path id="Trazado_150810" data-name="Trazado 150810" d="M315.675,372.139q-7.5,17.578-15.04,35.171h-1.584q7.527-17.6,15.055-35.171Z" fill="#8b6d60"/>
        <path id="Trazado_150811" data-name="Trazado 150811" d="M336.209,366.36q-8.775,20.483-17.519,40.95h-1.584q8.775-20.482,17.519-40.95Z" fill="#8b6d60"/>
        <path id="Trazado_150812" data-name="Trazado 150812" d="M348.582,369.117q-8.163,19.1-16.34,38.192h-1.569q8.163-19.095,16.339-38.192Z" fill="#8b6d60"/>
        <path id="Trazado_150813" data-name="Trazado 150813" d="M365.672,372.329q-7.482,17.49-14.979,34.98h-1.569l14.964-34.98Z" fill="#8b6d60"/>
        <path id="Trazado_150814" data-name="Trazado 150814" d="M90.123,407.31l26.208-38.171-11.794-7.07L85.546,388.646l-.237,18.664Z" fill="#a88779"/>
        <path id="Trazado_150815" data-name="Trazado 150815" d="M141.911,360.039l-2.7,9.3-1.534,5.28-9.494,32.692H103.368l18.561-52.61,11.111,1.658-.551,1.818h.03l1.433.294,3.921.777,1.463.279Z" fill="#a88779"/>
        <path id="Trazado_150816" data-name="Trazado 150816" d="M139.336,359.525l-.125,9.812-1.533,5.28.195-15.371Z" fill="#8b6d60"/>
        <path id="Trazado_150817" data-name="Trazado 150817" d="M133.952,358.469q-7.35,24.42-14.73,48.84H117.7q7.4-24.573,14.821-49.133Z" fill="#8b6d60"/>
        <path id="Trazado_150818" data-name="Trazado 150818" d="M204.833,407.31H155.376l-9.689-25.887-1.419-3.784-.794-2.126.825-.264,1.473-.484,6.7-2.171,1.413-.455h.015l-2.632-6.409,10.977-2.86,1.015,2.156,1.4-.47,9.883-3.27,3.482,7.627h.029l1.427-.382,10.213-2.684Z" fill="#a88779"/>
        <path id="Trazado_150819" data-name="Trazado 150819" d="M145.772,374.764l-.085,6.659-1.418-3.784.03-2.391Z" fill="#8b6d60"/>
        <path id="Trazado_150820" data-name="Trazado 150820" d="M169.016,407.31h-1.6q-7.457-17.358-14.944-34.716l1.413-.455q7.566,17.578,15.13,35.171" fill="#8b6d60"/>
        <path id="Trazado_150821" data-name="Trazado 150821" d="M183.067,407.31h-1.613q-9.082-21.143-18.193-42.284l1.4-.47q9.189,21.385,18.407,42.754" fill="#8b6d60"/>
        <path id="Trazado_150822" data-name="Trazado 150822" d="M196.179,407.31h-1.613q-8.248-19.206-16.512-38.4l1.428-.382q8.334,19.383,16.7,38.779" fill="#8b6d60"/>
        <path id="Trazado_150823" data-name="Trazado 150823" d="M280.4,354.847l-.669,52.7h-45.57l3.688-45.584h14.168l.111-2.933h13.406l-.049,3.843h8.7l.527-8.023Z" fill="#a88779"/>
        <path id="Trazado_150824" data-name="Trazado 150824" d="M266.953,362.869q-1.164,22.352-2.342,44.675h-1.466q1.185-22.33,2.341-44.675Z" fill="#8b6d60"/>
        <path id="Trazado_150825" data-name="Trazado 150825" d="M251.975,361.96q-1.193,22.814-2.4,45.584h-1.467q1.191-22.791,2.4-45.584Z" fill="#8b6d60"/>
        <path id="Trazado_150826" data-name="Trazado 150826" d="M274.169,362.869q-1.164,22.352-2.342,44.675H270.36q1.187-22.33,2.342-44.675Z" fill="#8b6d60"/>
        <path id="Trazado_150827" data-name="Trazado 150827" d="M338.027,517.765a5.977,5.977,0,0,1-1.316.821,5.352,5.352,0,0,1-1.913.5s-14.529-7.392-21.972-23.027c-7.428-15.635-2.7-60.163-.729-61.527s28.013,33.543,30.888,43.927c2.552,9.2,2.436,33.382-4.958,39.307" fill="#a88779"/>
        <path id="Trazado_150828" data-name="Trazado 150828" d="M369.218,438.447l-.848,66.792s-17.342,30.536-21.942,24.288a3.3,3.3,0,0,1-.459-.821s-.155-.455-.379-1.32a81.5,81.5,0,0,1-2.32-14.813c-.1-1.555-.179-3.2-.216-4.928a97.019,97.019,0,0,1,1.455-18.73c.333-1.936.739-3.9,1.219-5.91a96.738,96.738,0,0,1,3.672-11.969c9.212-24.317,19.818-32.589,19.818-32.589" fill="#a88779"/>
        <path id="Trazado_150829" data-name="Trazado 150829" d="M340.393,534.572s-16.972-19.405-19.971-20.157-1.869,16.85.647,20.158Z" fill="#a88779"/>
        <path id="Trazado_150830" data-name="Trazado 150830" d="M133.852,474.967h-49.4L85,431.641h4.81l.994,4.914.317,1.554H114.7l-1.267-6.468h11.278Z" fill="#a88779"/>
        <path id="Trazado_150831" data-name="Trazado 150831" d="M122.6,474.967h-1.5q-3.969-18.414-7.936-36.858h1.5q3.967,18.415,7.936,36.858" fill="#8b6d60"/>
        <path id="Trazado_150832" data-name="Trazado 150832" d="M110.913,474.967h-1.5q-3.969-18.414-7.936-36.858h1.51q3.969,18.415,7.922,36.858" fill="#8b6d60"/>
        <path id="Trazado_150833" data-name="Trazado 150833" d="M89.815,431.642l.994,4.913c-.346-1.642-.707-3.27-1.053-4.913Z" fill="#8b6d60"/>
        <path id="Trazado_150834" data-name="Trazado 150834" d="M100.573,474.967H99.062q-3.946-18.414-7.921-36.858h1.5q3.967,18.415,7.936,36.858" fill="#8b6d60"/>
        <path id="Trazado_150835" data-name="Trazado 150835" d="M281.351,534.573h-121.4s-38.86-33.574-38.834-33.7c1.153-5.926,9.028-48.786,13.343-59.241,3.689-8.85,9.162-17.336,16.9-23.2,7.989-6.057,18.711-7.221,28.293-8.5a266.36,266.36,0,0,1,31.511-2.042,301.361,301.361,0,0,1,35.966,1.375c12.43,1.316,27.084,3.655,36.641,12.283,7.177,6.48,10.036,16.365,12.582,25.724,4.439,16.318,8.934,32.621,13.325,48.952l-37.447-.161Z" fill="#fff0f0"/>
        <path id="Trazado_150836" data-name="Trazado 150836" d="M181.926,534.573h-1.468q-3.391-61.908-6.787-123.831c.485-.074.97-.147,1.455-.206q3.391,62.019,6.8,124.037" fill="#e3cfcf"/>
        <path id="Trazado_150837" data-name="Trazado 150837" d="M195.38,427.037a34.577,34.577,0,0,1-1.736-5.063q3.08,56.3,6.161,112.6h1.467q-2.94-53.769-5.892-107.536" fill="#e3cfcf"/>
        <path id="Trazado_150838" data-name="Trazado 150838" d="M137.835,478.141l.566-44.564c-.511.91-1.021,1.833-1.5,2.772l-.533,41.986a5.009,5.009,0,0,1,1.469-.194" fill="#e3cfcf"/>
        <path id="Trazado_150839" data-name="Trazado 150839" d="M157.135,478.232l.807-63.56c-.5.205-.988.426-1.475.675l-.8,62.974c.491-.017.979-.052,1.468-.089" fill="#e3cfcf"/>
        <path id="Trazado_150840" data-name="Trazado 150840" d="M227.731,426.821a12.552,12.552,0,0,0-1.444.374q2.937,53.686,5.887,107.378h1.466q-2.967-53.871-5.909-107.752" fill="#e3cfcf"/>
        <path id="Trazado_150841" data-name="Trazado 150841" d="M252.986,534.573h-1.467q-3.448-62.789-6.883-125.562c.483.044.981.088,1.465.147q3.45,62.7,6.885,125.415" fill="#e3cfcf"/>
        <path id="Trazado_150842" data-name="Trazado 150842" d="M266.979,475.672c.038.122.073.243.111.364l.8-62.962c-.482-.161-.978-.308-1.461-.44l-.731,57.618c.9,1.563.748,3.7,1.282,5.42" fill="#e3cfcf"/>
        <path id="Trazado_150843" data-name="Trazado 150843" d="M286.342,479.981l.7-54.881a19.38,19.38,0,0,0-1.445-1.716l-.722,56.883c.489-.105.979-.212,1.47-.286" fill="#e3cfcf"/>
        <path id="Trazado_150844" data-name="Trazado 150844" d="M138.681,483.107a102.783,102.783,0,0,0-15.6,7.465q.189-.924.377-1.892a104.353,104.353,0,0,1,14.843-7c.884-.337,1.248,1.086.378,1.423" fill="#c29e8c"/>
        <path id="Trazado_150845" data-name="Trazado 150845" d="M167.434,479.191H125.341c.094-.484.188-.983.3-1.467h41.815a.734.734,0,0,1-.019,1.467" fill="#c29e8c"/>
        <path id="Trazado_150846" data-name="Trazado 150846" d="M168.308,460.135q-3.585,8.809-7.169,17.62c-.357.878,1.056,1.259,1.41.39q3.584-8.811,7.168-17.62c.358-.878-1.055-1.259-1.409-.39" fill="#c29e8c"/>
        <path id="Trazado_150847" data-name="Trazado 150847" d="M261.129,453.751l13,57.323c.208.917,1.628.529,1.419-.39l-13-57.323c-.208-.918-1.627-.529-1.419.39" fill="#c29e8c"/>
        <path id="Trazado_150848" data-name="Trazado 150848" d="M234.381,387.181l-4.451.8a1.445,1.445,0,0,1-1.689-1.182L225.2,368.744a1.489,1.489,0,0,1,1.2-1.7l4.451-.8a2.928,2.928,0,0,1,3.422,2.394l2.54,15.1a3.014,3.014,0,0,1-2.438,3.453" fill="#fff0f0"/>
        <path id="Trazado_150849" data-name="Trazado 150849" d="M231.809,373.059l-47.469,7.69-1.546-10.33a15.211,15.211,0,0,1,12.612-17.2l17.818-2.886a14.772,14.772,0,0,1,17.039,12.393Z" fill="#fff0f0"/>
        <path id="Trazado_150850" data-name="Trazado 150850" d="M203.975,352.239h0a19.309,19.309,0,0,1,22.562,15.787l2.795,16.61A19.873,19.873,0,0,1,213.257,407.4a19.31,19.31,0,0,1-22.563-15.787L187.9,375a19.873,19.873,0,0,1,16.076-22.763" fill="#ffb08c"/>
        <path id="Trazado_150851" data-name="Trazado 150851" d="M193.023,399.638l.481,8.921s4.889,6.5,15.044,6.423Z" fill="#ffb08c"/>
        <path id="Trazado_150852" data-name="Trazado 150852" d="M212.592,411.108c-.194.279-.388.557-.6.836-2.569,3.667-5.182,7.275-7.94,10.8-1.193,1.511-4.515,6.732-6.509,6.732-2.244,0-3.46-4.767-4.027-6.278-1.73-4.678-2.945-9.533-4.366-14.3.456-.044.911-.088,1.38-.117,1.693,6.453,5.152,19.4,7.388,18.832.824-.22,2.171-2.3,2.707-2.948,1.459-1.716,2.831-3.491,4.174-5.28,2.237-2.963,4.4-5.969,6.523-9.005a.436.436,0,0,1,.164-.162.728.728,0,0,1,.133-.088.809.809,0,0,1,.864.118.965.965,0,0,1,.115.132.59.59,0,0,1-.009.733" fill="#c29e8c"/>
        <path id="Trazado_150853" data-name="Trazado 150853" d="M234.159,408.263c-1.087,4.723-2.1,9.49-3.348,14.183-.493,1.833-1.232,5.749-3.868,5.456-1.772-.206-5.3-4.356-6.816-6.087-2.8-3.212-5.432-6.571-8.132-9.871-.188-.234-.376-.454-.564-.689a.782.782,0,0,1,.058-1.041.637.637,0,0,1,.133-.088.578.578,0,0,1,.864.1v.014a.965.965,0,0,1,.115.132c4.088,4.987,8.892,11.294,12.981,14.975.116.1,1.276,1.144,1.629,1.1,1.087-.132,1.584-2.3,1.829-3.11.488-1.51.8-3.065,1.173-4.605.866-3.5,1.643-7.025,2.466-10.545.483.014.982.029,1.48.073" fill="#c29e8c"/>
        <path id="Trazado_150854" data-name="Trazado 150854" d="M210.655,411.555q2.289,59.478,4.577,118.956c.036.939,1.5.945,1.466,0q-2.287-59.478-4.576-118.956c-.036-.939-1.5-.945-1.467,0" fill="#c29e8c"/>
        <path id="Trazado_150855" data-name="Trazado 150855" d="M189.642,385.357s2.535-1.022,3.58-5.2c.853-3.412.55-14.817.124-15.181,0,0,7.517,3.459,15.429,2.331s4.984-5.2,4.984-5.2a16.477,16.477,0,0,0,11.2.866c6.41-1.693,1.164-9.064-4.069-11.621s-22.07-4.977-30.9,6.994c-7.216,9.778-.343,27.012-.343,27.012" fill="#de8647"/>
        <path id="Trazado_150856" data-name="Trazado 150856" d="M190.12,388.2s3.122-.745,5.13,1.06,2.634,5.754,5.97,5.133,8.1-2.764,13.023-3.779,10.5-.677,11.586-1.749,1.688-6.149,3.09-6.685a52.685,52.685,0,0,1,2.456,18.588c-.525,10.323-4.141,12.805-10.725,14.328-5.9,1.364-14.014,2.144-18.494-1.128-3.843-2.807-11.037-11.936-12.036-25.768" fill="#de8647"/>
        <path id="Trazado_150857" data-name="Trazado 150857" d="M142.884,493.354l-21.757,7.521s-5.026,28.583.926,33.7h37.908s22.71-23.316,37.734-45.578c0,0,5.263,1.426,9.408-.452a15.549,15.549,0,0,0,8.892-13.237c.454-6.093-2.32-18.653-7.39-22.189-2.592-1.807-12.027-.526-12.027-.526s2.054-7.748-2.124-10.456-5.814,1.8-5.9,2.557-.025,7.9-4.824,12.636a231.953,231.953,0,0,0-40.847,36.028" fill="#ffb08c"/>
        <path id="Trazado_150858" data-name="Trazado 150858" d="M192.152,534.572s5.393-10.079,8.122-11.733,40.731-12.11,72.116-19.631l-1.714-7.15,39,.155s5.08,14.591,4.225,22.714-6.667,15.645-6.667,15.645Z" fill="#ffb08c"/>
        <path id="Trazado_150859" data-name="Trazado 150859" d="M190.42,394.059l-4.451.8a2.929,2.929,0,0,1-3.422-2.4l-2.541-15.1a3.015,3.015,0,0,1,2.439-3.453l4.451-.8a1.445,1.445,0,0,1,1.689,1.182l3.039,18.059a1.488,1.488,0,0,1-1.2,1.7" fill="#fff0f0"/>
        <path id="Trazado_150860" data-name="Trazado 150860" d="M204.675,481.3c-1.809,2.67-3.6,5.324-5.411,7.993a15.745,15.745,0,0,1-1.551-.308c1.913-2.8,3.812-5.617,5.71-8.418.538-.792,1.79-.044,1.252.733" fill="#c45d4d"/>
        <path id="Trazado_150861" data-name="Trazado 150861" d="M142.8,493.389c-2.691,2.9-5.368,5.794-8.06,8.7-.639.7-1.667-.337-1.013-1.041,2.052-2.215,4.1-4.444,6.156-6.659Z" fill="#c45d4d"/>
        <path id="Trazado_150862" data-name="Trazado 150862" d="M290.878,499.329c-6.19,1.115-12.352,2.435-18.486,3.872l-.349-1.423c6.12-1.422,12.267-2.742,18.456-3.857.926-.161,1.3,1.247.379,1.408" fill="#c45d4d"/>
        <path id="Trazado_150863" data-name="Trazado 150863" d="M274.6,489.7a76.823,76.823,0,0,1,18.057-3.774c.936-.069.962-1.536.018-1.466a78.353,78.353,0,0,0-18.447,3.826c-.9.29-.533,1.707.372,1.414" fill="#c29e8c"/>
        <path id="Trazado_150864" data-name="Trazado 150864" d="M308.3,491.115c-4.277-.44-8.555-.763-12.835-1a.734.734,0,0,1,.018-1.467c4.134.22,8.28.543,12.411.953.125.514.266,1.012.406,1.511" fill="#c29e8c"/>
        <path id="Trazado_150865" data-name="Trazado 150865" d="M209.529,397.492l10.575-2.014a.3.3,0,0,1,.349.393,6.408,6.408,0,0,1-4.985,4.271,6.225,6.225,0,0,1-6.129-2.155.308.308,0,0,1,.19-.495" fill="#fff0f0"/>
        <path id="Trazado_150866" data-name="Trazado 150866" d="M219.457,427.757a1.5,1.5,0,0,1-1.5,1.478,1.456,1.456,0,0,1-1.459-1.478,1.5,1.5,0,0,1,1.5-1.478,1.456,1.456,0,0,1,1.459,1.478" fill="#c29e8c"/>
        <path id="Trazado_150867" data-name="Trazado 150867" d="M221.883,454.077a1.5,1.5,0,0,1-1.5,1.478,1.456,1.456,0,0,1-1.459-1.478,1.5,1.5,0,0,1,1.5-1.477,1.455,1.455,0,0,1,1.459,1.477" fill="#c29e8c"/>
        <path id="Trazado_150868" data-name="Trazado 150868" d="M222.728,479.59a1.5,1.5,0,0,1-1.5,1.478,1.456,1.456,0,0,1-1.459-1.478,1.5,1.5,0,0,1,1.5-1.477,1.455,1.455,0,0,1,1.459,1.477" fill="#c29e8c"/>
        <path id="Trazado_150869" data-name="Trazado 150869" d="M223.556,507.931a1.5,1.5,0,0,1-1.5,1.477,1.455,1.455,0,0,1-1.459-1.477,1.5,1.5,0,0,1,1.5-1.478,1.456,1.456,0,0,1,1.459,1.478" fill="#c29e8c"/>
        <path id="Trazado_150870" data-name="Trazado 150870" d="M304.3,476.375q-17.607,4.026-35.229,8.023c-.927.22-1.29-1.2-.378-1.408q17.629-4,35.229-8.023l.378,1.408" fill="#c29e8c"/>
        <path id="Trazado_150871" data-name="Trazado 150871" d="M196.876,451.016a10.884,10.884,0,0,1-.3,1.525,41.045,41.045,0,0,0-13.042,4.914.934.934,0,0,0-.163.1c-.059.031-.1.075-.163.1l2.665-3.08a39.95,39.95,0,0,1,11-3.564" fill="#c45d4d"/>
        <path id="Trazado_150872" data-name="Trazado 150872" d="M224.855,515.423l8.289,19.149h8.875l-9.281-21.282Z" fill="#b36152"/>
        <path id="Trazado_150873" data-name="Trazado 150873" d="M237.941,518.607c.826,2.643-1.365,5.712-4.894,6.855s-7.059-.072-7.886-2.715,1.365-5.712,4.894-6.855,7.06.072,7.886,2.715" fill="#fff0f0"/>
        <path id="Trazado_150874" data-name="Trazado 150874" d="M204.61,375.321a8.359,8.359,0,0,0-5.393.656c-.876.482-1.781-.78-.9-1.266a10.051,10.051,0,0,1,6.58-.928c.989.156.7,1.7-.289,1.538" fill="#de8647"/>
        <path id="Trazado_150875" data-name="Trazado 150875" d="M220.3,373.373c-1.624-.36-3.767-.135-4.87,1.27-.626.8-1.817-.2-1.192-.993,1.444-1.838,4.191-2.294,6.35-1.815.975.216.694,1.756-.288,1.538" fill="#de8647"/>
        <path id="Trazado_150876" data-name="Trazado 150876" d="M201.669,379.8a6.358,6.358,0,0,0,.611,2.474,1.568,1.568,0,0,0,2.882-.911,6.5,6.5,0,0,0-.525-2.4,1.562,1.562,0,0,0-2.968.836" fill="#2f2031"/>
        <path id="Trazado_150877" data-name="Trazado 150877" d="M219.995,376.6a6.341,6.341,0,0,1,.451,2.51,1.564,1.564,0,0,1-2.988.411,6.506,6.506,0,0,1-.5-2.4,1.56,1.56,0,0,1,3.036-.517" fill="#2f2031"/>
        <path id="Trazado_150878" data-name="Trazado 150878" d="M213.739,381.215c.632.822,1.238,1.661,1.8,2.533A9.791,9.791,0,0,1,217,386.309c.341,1.427-2.012,2.777-2.907,3.606-.741.687-1.63-.588-.9-1.266a18.258,18.258,0,0,0,2.516-2.4c-.045.258-.091.517-.137.775-.451-1.719-2.048-3.51-3.11-4.891-.61-.794.67-1.7,1.278-.913" fill="#c45d4d"/>
        <path id="Trazado_150879" data-name="Trazado 150879" d="M340.151,534.573h-2.245a292.768,292.768,0,0,0-10.113-38.588c-.453-1.35,1.681-1.922,2.133-.587a292.545,292.545,0,0,1,10.225,39.175" fill="#a88779"/>
        <path id="Trazado_150880" data-name="Trazado 150880" d="M357.691,505.635a145.043,145.043,0,0,0-10.414,28.937h-2.229A149.178,149.178,0,0,1,355.8,504.52c.632-1.276,2.51-.161,1.892,1.115" fill="#a88779"/>
        <path id="Trazado_150881" data-name="Trazado 150881" d="M368.81,470.552l-.049,3.887c-8.311,15.752-17.107,38.544-22.333,55.088a3.317,3.317,0,0,1-.459-.821s-.156-.455-.379-1.32a419.788,419.788,0,0,1,23.22-56.834" fill="#8b6d60"/>
        <path id="Trazado_150882" data-name="Trazado 150882" d="M343.27,512.573c-.1-1.555-.18-3.2-.216-4.928a80.076,80.076,0,0,0,1.455-18.73c.333-1.935.739-3.9,1.219-5.91.548,9.958.538,20.02-2.458,29.568" fill="#8b6d60"/>
        <path id="Trazado_150883" data-name="Trazado 150883" d="M338.027,517.765a5.977,5.977,0,0,1-1.316.821,222.1,222.1,0,0,0-14.208-44.22c-.37-.851.9-1.6,1.286-.733a222.79,222.79,0,0,1,14.238,44.132" fill="#8b6d60"/>
        <path id="Trazado_150884" data-name="Trazado 150884" d="M370.477,339.563H86.162l.223-17.441a7.335,7.335,0,0,1,7.333-7.24H363.361a7.333,7.333,0,0,1,7.333,7.426Z" fill="#fff0f0"/>
        <path id="Trazado_150885" data-name="Trazado 150885" d="M139.11,327.222a5.363,5.363,0,1,1-5.362-5.362,5.362,5.362,0,0,1,5.362,5.362" fill="#ffb357"/>
        <path id="Trazado_150886" data-name="Trazado 150886" d="M122.977,327.222a5.362,5.362,0,1,1-5.362-5.362,5.362,5.362,0,0,1,5.362,5.362" fill="#ffb357"/>
        <path id="Trazado_150887" data-name="Trazado 150887" d="M106.843,327.222a5.363,5.363,0,1,1-5.362-5.362,5.362,5.362,0,0,1,5.362,5.362" fill="#ffb357"/>
        <path id="Trazado_150888" data-name="Trazado 150888" d="M236.243,525.071a11.509,11.509,0,1,1,11.509-11.51,11.523,11.523,0,0,1-11.509,11.51m0-21.552a10.042,10.042,0,1,0,10.042,10.042,10.054,10.054,0,0,0-10.042-10.042" fill="#fff"/>
        <path id="Trazado_150889" data-name="Trazado 150889" d="M236.3,516.751H233.4a2.583,2.583,0,0,1-2.583-2.583v-1.215a2.583,2.583,0,0,1,2.583-2.582H236.3a2.582,2.582,0,0,1,2.583,2.583v1.214a2.583,2.583,0,0,1-2.583,2.583" fill="#fff"/>
        <path id="Trazado_150890" data-name="Trazado 150890" d="M241.049,511.31l-4.122,1.917a.432.432,0,0,0-.005.78L241.043,516a.432.432,0,0,0,.62-.389V511.7a.432.432,0,0,0-.614-.392" fill="#fff"/>
        <path id="Trazado_150891" data-name="Trazado 150891" d="M216.767,508.026a10.776,10.776,0,1,1-14.543-4.554,10.777,10.777,0,0,1,14.543,4.554" fill="#f78b6a"/>
        <path id="Trazado_150892" data-name="Trazado 150892" d="M214.842,511.087c-.842-1.277-2.686-3.684-4.19-2.9l-9.36,4.9c-1.505.786-.58,3.674-.011,5.094.171.427.575.68.856.533l3.523-1.842c.253-.133.3-.539.109-.908l-.266-.508c-.193-.369-.144-.775.109-.908l3.776-1.974c.253-.133.615.059.808.428l.265.508c.193.369.555.56.808.428l3.523-1.843c.281-.147.3-.623.05-1.007" fill="#fff0f0"/>
        <path id="Trazado_150893" data-name="Trazado 150893" d="M178.193,524.529A11.509,11.509,0,1,1,189.7,513.02a11.521,11.521,0,0,1-11.51,11.509m0-21.552a10.043,10.043,0,1,0,10.043,10.043,10.054,10.054,0,0,0-10.043-10.043" fill="#fff"/>
        <path id="Trazado_150894" data-name="Trazado 150894" d="M180.3,510.107A2.106,2.106,0,1,1,178.2,508a2.107,2.107,0,0,1,2.107,2.107" fill="#fff"/>
        <path id="Trazado_150895" data-name="Trazado 150895" d="M182.885,518.041h-9.378a1.033,1.033,0,0,1-.994-1.278,5.82,5.82,0,0,1,11.383.1,1.009,1.009,0,0,1-1.011,1.176" fill="#fff"/>
        <path id="Trazado_150896" data-name="Trazado 150896" d="M92.682,375.325C90.055,390.216,81.753,401.8,71.327,404.94a.889.889,0,0,0,0,1.689c10.425,3.133,18.728,14.694,21.354,29.576a.886.886,0,0,0,1.743,0c2.627-14.882,10.929-26.443,21.355-29.576a.889.889,0,0,0,0-1.689c-10.425-3.139-18.728-14.724-21.355-29.615a.886.886,0,0,0-1.743,0m0,0C90.055,390.216,81.753,401.8,71.327,404.94a.889.889,0,0,0,0,1.689c10.425,3.133,18.728,14.694,21.354,29.576a.886.886,0,0,0,1.743,0c2.627-14.882,10.929-26.443,21.355-29.576a.889.889,0,0,0,0-1.689c-10.425-3.139-18.728-14.724-21.355-29.615a.886.886,0,0,0-1.743,0m0,0C90.055,390.216,81.753,401.8,71.327,404.94a.889.889,0,0,0,0,1.689c10.425,3.133,18.728,14.694,21.354,29.576a.886.886,0,0,0,1.743,0c2.627-14.882,10.929-26.443,21.355-29.576a.889.889,0,0,0,0-1.689c-10.425-3.139-18.728-14.724-21.355-29.615a.886.886,0,0,0-1.743,0m0,0C90.055,390.216,81.753,401.8,71.327,404.94a.889.889,0,0,0,0,1.689c10.425,3.133,18.728,14.694,21.354,29.576a.886.886,0,0,0,1.743,0c2.627-14.882,10.929-26.443,21.355-29.576a.889.889,0,0,0,0-1.689c-10.425-3.139-18.728-14.724-21.355-29.615a.886.886,0,0,0-1.743,0m0,0C90.055,390.216,81.753,401.8,71.327,404.94a.889.889,0,0,0,0,1.689c10.425,3.133,18.728,14.694,21.354,29.576a.886.886,0,0,0,1.743,0c2.627-14.882,10.929-26.443,21.355-29.576a.889.889,0,0,0,0-1.689c-10.425-3.139-18.728-14.724-21.355-29.615a.886.886,0,0,0-1.743,0m0,0C90.055,390.216,81.753,401.8,71.327,404.94a.889.889,0,0,0,0,1.689c10.425,3.133,18.728,14.694,21.354,29.576a.886.886,0,0,0,1.743,0c2.627-14.882,10.929-26.443,21.355-29.576a.889.889,0,0,0,0-1.689c-10.425-3.139-18.728-14.724-21.355-29.615a.886.886,0,0,0-1.743,0" fill="#ffb357"/>
        <path id="Trazado_150897" data-name="Trazado 150897" d="M997.182,327.571h88.79a17.5,17.5,0,0,0,17.674-18.857l-1.606-25.63A20.356,20.356,0,0,0,1082,264.228H993.211a17.5,17.5,0,0,0-17.675,18.856l1.607,25.63a20.358,20.358,0,0,0,20.039,18.857" fill="#cfad7a"/>
        <path id="Trazado_150898" data-name="Trazado 150898" d="M977.143,308.714l1.772,28.268a4,4,0,0,0,5.87,3.3l21.55-12.705Z" fill="#cfad7a"/>
        <path id="Trazado_150899" data-name="Trazado 150899" d="M1064.053,295.9a3.708,3.708,0,1,0,3.707-3.707,3.707,3.707,0,0,0-3.707,3.707" fill="#fff0f0"/>
        <path id="Trazado_150900" data-name="Trazado 150900" d="M1037.553,295.9a3.708,3.708,0,1,0,3.707-3.707,3.707,3.707,0,0,0-3.707,3.707" fill="#fff0f0"/>
        <path id="Trazado_150901" data-name="Trazado 150901" d="M1011.053,295.9a3.707,3.707,0,1,0,3.707-3.707,3.707,3.707,0,0,0-3.707,3.707" fill="#fff0f0"/>
        <path id="Trazado_150902" data-name="Trazado 150902" d="M813.133,211.769l-3.712,292.368a2.332,2.332,0,0,1-2.332,2.3H392.162a2.332,2.332,0,0,1-2.332-2.362l3.711-292.309Z" fill="#de8647"/>
        <path id="Trazado_150903" data-name="Trazado 150903" d="M813.133,211.769H393.539l.355-27.736a11.661,11.661,0,0,1,11.661-11.512H801.818a11.661,11.661,0,0,1,11.66,11.808Z" fill="#fff0f0"/>
        <path id="Trazado_150904" data-name="Trazado 150904" d="M480.57,192.145a8.527,8.527,0,1,1-8.528-8.528,8.528,8.528,0,0,1,8.528,8.528" fill="#ffb357"/>
        <path id="Trazado_150905" data-name="Trazado 150905" d="M454.914,192.145a8.527,8.527,0,1,1-8.528-8.528,8.528,8.528,0,0,1,8.528,8.528" fill="#ffb357"/>
        <path id="Trazado_150906" data-name="Trazado 150906" d="M429.258,192.145a8.527,8.527,0,1,1-8.528-8.528,8.528,8.528,0,0,1,8.528,8.528" fill="#ffb357"/>
        <path id="Trazado_150907" data-name="Trazado 150907" d="M445.793,450l-.717,56.443h-2.332L443.461,450a1.167,1.167,0,0,1,2.332,0" fill="#ffb357"/>
        <path id="Trazado_150908" data-name="Trazado 150908" d="M446.84,452.049,391.432,506.44H389.8l.021-1.657,55.385-54.39c1.582-1.54,3.217.116,1.635,1.656" fill="#ffb357"/>
        <path id="Trazado_150909" data-name="Trazado 150909" d="M449.743,340.935c8.351,2.94,19.418,8.245,28.776,17.568a1.479,1.479,0,0,1-.928,2.529c-5.767.424-18.387,1.184-27.713.521v.024l-.31,2.308-.77,5.551-.487,3.429a.575.575,0,0,1,.092.163c.8,1.551,7.1,13.867,7.391,26.208a1.468,1.468,0,0,1-1.909,1.412c-3.176-1-9.583-3.349-13.371-6.978l-.027.279-.291,2.683-4.449,41.8-.08.816-.183,1.516-.08.816H390.622l1.833-144.3s24.7-30.726,47.691-44.629a1.444,1.444,0,0,1,2.184,1.545c-1.877,7.987-7.428,29.225-16.639,44.927a62.484,62.484,0,0,1-4.661,7c-.023,0-.023,0-.023.046-.071.071-.119.164-.19.234,0,0,22.417-16.025,46.6-21.071a1.439,1.439,0,0,1,1.705,1.71c-.963,4.5-5.3,15.826-24.762,29.973a.94.94,0,0,0,.163-.024c.538-.046,2.219-.232,4.763-.349,9.471-.426,30.515.1,43.832,11.673a1.452,1.452,0,0,1-.4,2.4c-5.23,2.34-21.335,8.032-52.543,7.009a2.728,2.728,0,0,1-.442-.024c-.909-.047-1.819-.07-2.751-.117,0,0,.14.024.372.07h.023a75.976,75.976,0,0,1,12.367,3.289" fill="#ffb357"/>
        <path id="Trazado_150910" data-name="Trazado 150910" d="M421.031,306.113c-.023,0-.023,0-.024.047a166.64,166.64,0,0,0-25.032,28.058c-.856,1.213-2.87.047-1.991-1.19a170.652,170.652,0,0,1,31.707-33.912Z" fill="#de8647"/>
        <path id="Trazado_150911" data-name="Trazado 150911" d="M449.743,340.935a102.349,102.349,0,0,0-37.174,1.563c-1.451.326-2.052-1.913-.578-2.239a104.969,104.969,0,0,1,25.362-2.613h.023a75.976,75.976,0,0,1,12.367,3.289" fill="#de8647"/>
        <path id="Trazado_150912" data-name="Trazado 150912" d="M449.878,361.576a41.564,41.564,0,0,1-10.318-2.986c-1.345-.583-2.56,1.423-1.192,2.03a46.791,46.791,0,0,0,11.2,3.265Z" fill="#de8647"/>
        <path id="Trazado_150913" data-name="Trazado 150913" d="M449.282,316.632a421.458,421.458,0,0,1-41,23.79c-1.338.7-2.479-1.329-1.141-2.006q19.227-9.795,37.381-21.434c.537-.047,2.218-.233,4.762-.35" fill="#de8647"/>
        <path id="Trazado_150914" data-name="Trazado 150914" d="M440.487,393.949l-.291,2.683c-6.334-4.479-12.479-9.12-18.388-13.995-.923-.746-1.846-1.516-2.769-2.332q-9.624-8.082-18.395-17.05c-.737-.77-1.474-1.539-2.21-2.332-2.3-2.4-4.533-4.875-6.694-7.394l.045-3.521c14.156,16.723,30.533,31.043,48.7,43.941" fill="#de8647"/>
        <path id="Trazado_150915" data-name="Trazado 150915" d="M448.8,369.436l-.4,3.592a.572.572,0,0,0-.092-.163c-6.29-9.773-15.148-17.47-25.426-23.65-6.943-4.175-14.222-7.767-21.524-11.289-3.106-1.493-6.213-2.915-9.37-4.175l.031-2.449c2.6.956,5.152,2.076,7.7,3.265A241.642,241.642,0,0,1,425.884,348.3,77.883,77.883,0,0,1,448.8,369.436" fill="#de8647"/>
        <path id="Trazado_150916" data-name="Trazado 150916" d="M435.667,439.244l-.183,1.516-.08.816H390.623l.029-2.332Z" fill="#de8647"/>
        <path id="Trazado_150917" data-name="Trazado 150917" d="M400.76,363.255h-9.143l.03-2.332h9.143a1.166,1.166,0,0,1-.03,2.332" fill="#de8647"/>
        <path id="Trazado_150918" data-name="Trazado 150918" d="M421.879,382.637H391.371l.03-2.331h30.508a1.167,1.167,0,0,1-.03,2.331" fill="#de8647"/>
        <path id="Trazado_150919" data-name="Trazado 150919" d="M390.617,441.569h65.61a2.3,2.3,0,0,1,2.3,2.332l-.108,8.432a2.368,2.368,0,0,1-2.362,2.333H390.451Z" fill="#ffb357"/>
        <path id="Trazado_150920" data-name="Trazado 150920" d="M503.217,358.047H811.268l-.229,18.037H502.988a2.3,2.3,0,0,1-2.3-2.333l.17-13.372a2.368,2.368,0,0,1,2.362-2.332" fill="#ffb357"/>
        <path id="Trazado_150921" data-name="Trazado 150921" d="M811.276,358.054l-.059,4.641h-299.5l1.916-150.926h20.082l-1.857,146.285H742.378l1.857-146.285H755.71l-1.857,146.285Z" fill="#ffb357"/>
        <path id="Trazado_150922" data-name="Trazado 150922" d="M596.69,211.769c-2.161,14.041-4.672,28.012-7.181,41.982q-3.349,18.577-6.816,37.131c-1.573,8.28-1.736,13.668-10.627,17.7-4.644,2.1-8.925-.606-13.485-1.423-5.982-1.073-13.065,3.965-18.232,6.694-3.4,1.773-7.021,3.708-10.9,4.105a12.913,12.913,0,0,1-8.9-2.449c-5.319-3.522-9.759-4.711-16.2-2.985-8.541,2.285-15.906,7.37-25.022,5.224a1.151,1.151,0,0,1-.8-1.423c3.348-21.13,5.693-42.379,9.04-63.51.252-1.469,2.482-.839,2.254.63-3.272,20.712-5.612,41.539-8.861,62.274,10.822,1.889,19.964-7.23,30.8-6.507,3.634.233,6.413,1.772,9.326,3.825,6.289,4.385,11.963,2.029,18.091-1.213,5.729-3.009,13.357-8.536,20.053-6.9,2.791.653,5.617,2.146,8.533,2.122,3.522,0,9.068-3.171,10.719-6.53.815-1.656.825-4.315,1.174-6.111q1.236-6.507,2.426-12.991c4.306-23.16,8.66-46.344,12.267-69.644Z" fill="#ffb357"/>
        <path id="Trazado_150923" data-name="Trazado 150923" d="M532.408,314.789l-.033,2.589a15.459,15.459,0,0,1-2.923.583,12.91,12.91,0,0,1-8.9-2.449,20.636,20.636,0,0,0-8.188-3.545l.034-2.682c3.331.349,5.948,1.819,8.7,3.755a12.337,12.337,0,0,0,11.313,1.749" fill="#de8647"/>
        <path id="Trazado_150924" data-name="Trazado 150924" d="M531.888,355.722l-.03,2.332H511.776l.03-2.332Z" fill="#de8647"/>
        <path id="Trazado_150925" data-name="Trazado 150925" d="M590.615,365.558c-9.632-11.307-14.01-27.031-9.758-41.624s22.986-21.29,30.136-28.227,15.453-20.334,21.938-31.816,18.369-24.241,31.282-23.842,24.364,21.655,29.971,32.2,12.59,25.852,12.591,35.181-4.71,31.816-4.71,31.816-91.887,49.279-111.45,26.314" fill="#4f292c"/>
        <path id="Trazado_150926" data-name="Trazado 150926" d="M700.618,268.341l-.376,2.986-3.126,24.536c-2.126,16.7-16.891,28.642-33.01,26.659-14.927-1.843-25.749-14.974-25.555-30.2a32.7,32.7,0,0,1,.249-3.639l2.051-16.163,1.45-11.335c2.126-16.723,16.891-28.665,33.01-26.683,16.1,1.983,27.433,17.144,25.307,33.843" fill="#ffb08c"/>
        <path id="Trazado_150927" data-name="Trazado 150927" d="M678.312,274.291a12.43,12.43,0,0,1,8.09-.438c1.4.484,2.449-1.614,1.039-2.1a14.925,14.925,0,0,0-9.9.346,1.163,1.163,0,0,0,.768,2.195" fill="#4f292c"/>
        <path id="Trazado_150928" data-name="Trazado 150928" d="M650.79,272.415c2.38-.768,5.6-.739,7.385,1.194,1.016,1.1,2.684-.556,1.671-1.65-2.344-2.53-6.483-2.815-9.647-1.793-1.428.461-.849,2.714.591,2.249" fill="#4f292c"/>
        <path id="Trazado_150929" data-name="Trazado 150929" d="M701.2,268.072l-.382,2.985A21.062,21.062,0,0,0,688.948,258.7c-3.821-1.648-9.8-2.9-16.035-3.935a38.278,38.278,0,0,0-21.866,3.061c-7.316,3.246-8.833,10.52-10.082,12.368l.818-9.28c2.163-16.723,17.2-28.665,33.627-26.683,16.4,1.983,27.955,17.143,25.793,33.843" fill="#4f292c"/>
        <path id="Trazado_150930" data-name="Trazado 150930" d="M705.151,279.888a9.419,9.419,0,0,1-9.143,9.509,9.135,9.135,0,0,1-8.9-9.509,9.419,9.419,0,0,1,9.143-9.509,9.135,9.135,0,0,1,8.9,9.509" fill="#ffb08c"/>
        <path id="Trazado_150931" data-name="Trazado 150931" d="M649.987,280.606a9.419,9.419,0,0,1-9.143,9.509,9.135,9.135,0,0,1-8.9-9.509,9.419,9.419,0,0,1,9.143-9.509,9.135,9.135,0,0,1,8.9,9.509" fill="#ffb08c"/>
        <path id="Trazado_150932" data-name="Trazado 150932" d="M633.368,293.222,626.592,304.9a.562.562,0,0,0,.2.781,13.2,13.2,0,0,0,5.824,1.748,12.025,12.025,0,0,0,5.477-1.555.568.568,0,0,0,.259-.682l-3.947-11.873a.572.572,0,0,0-1.039-.1" fill="#ffb357"/>
        <path id="Trazado_150933" data-name="Trazado 150933" d="M701.85,292.505l6.479,11.677a.571.571,0,0,1-.221.781,13.488,13.488,0,0,1-5.869,1.748,11.779,11.779,0,0,1-5.437-1.555.556.556,0,0,1-.242-.682l4.248-11.873a.575.575,0,0,1,1.042-.1" fill="#ffb357"/>
        <path id="Trazado_150934" data-name="Trazado 150934" d="M688.108,232.793a14.818,14.818,0,0,1-14.778,14.592,14.37,14.37,0,0,1-14.406-14.592A14.817,14.817,0,0,1,673.7,218.2a14.371,14.371,0,0,1,14.407,14.592" fill="#4f292c"/>
        <path id="Trazado_150935" data-name="Trazado 150935" d="M764.321,344.028a28.724,28.724,0,0,0-18.864-21.561c-16.669-5.949-62.3-3.951-77.694-4.035s-44.631,1.375-68.126,14.831c-12.991,7.441-23.719,21.769-23.719,21.769s20.844,35.165,49.253,39.71,132.921-31.1,139.15-50.714" fill="#ffb08c"/>
        <path id="Trazado_150936" data-name="Trazado 150936" d="M765.929,452.165c-1.754,13.225-4.517,23.277-7.622,30.9-8.116,20.128-18.537,23.393-18.537,23.393H512.505c-10.645-26.8.568-44.734,4.768-54.064,4.177-9.329,38.341-108.714,95.938-125.462,2.364-.687,7.369,42.987,48.86,46.092a130.712,130.712,0,0,0,48.05-5.761c.023,0,.047-.023.07-.023,25.949-8.373,54.126-23.207,54.126-23.207s7.984,60.035,1.612,108.128" fill="#fff0f0"/>
        <path id="Trazado_150937" data-name="Trazado 150937" d="M589.908,416.985q-8.766,26.438-17.533,52.875a1.153,1.153,0,0,0,2.191.719q8.766-26.437,17.533-52.874a1.154,1.154,0,0,0-2.191-.72" fill="#c29e8c"/>
        <path id="Trazado_150938" data-name="Trazado 150938" d="M704.248,506.462H520.178l37.578-40.676,91.66,16.629s21.088-3.894,34.511-1.212a21.766,21.766,0,0,1,2.581.63,17.166,17.166,0,0,1,4.038,1.655c13.752,8.025,13.7,22.974,13.7,22.974" fill="#ffb08c"/>
        <path id="Trazado_150939" data-name="Trazado 150939" d="M758.307,483.069c-8.117,20.129-18.536,23.394-18.536,23.394H699.933a34.975,34.975,0,0,1-12.523-20.339c-1.974-9.842-17.344-77.854-25.34-113.1-2.848-12.665-4.768-21.108-4.768-21.108a11.361,11.361,0,0,1-8.435,4.735c-5.883.536-13.83-3.778-14.476-9.749-.648-5.995,2.44-13.582,6.908-15.477a6.862,6.862,0,0,1-1.514-6.388c.616-2.713,6.666-4.254,6.666-4.254s3.221-9.17,15.283-7.607c12.063,1.539,23.151,4.408,28.327,10.029,1.726,1.889,9.913,20.315,20.059,44.058,19.979,46.811,47.553,114.216,48.187,115.8" fill="#ffb08c"/>
        <path id="Trazado_150940" data-name="Trazado 150940" d="M683.571,279.324a9.614,9.614,0,0,1-.65,3.771,2.321,2.321,0,0,1-4.387-.944,9.883,9.883,0,0,1,.529-3.647,2.318,2.318,0,0,1,4.508.82" fill="#2f2031"/>
        <path id="Trazado_150941" data-name="Trazado 150941" d="M652.818,277.176a9.6,9.6,0,0,0-.408,3.8,2.328,2.328,0,0,0,4.493.186,9.851,9.851,0,0,0,.49-3.651,2.321,2.321,0,0,0-4.575-.336" fill="#2f2031"/>
        <path id="Trazado_150942" data-name="Trazado 150942" d="M637.227,336.091c3.116-4.69,8.956-6.41,14.3-6.376a1.167,1.167,0,0,0,.03-2.332c-6.218-.04-12.744,2.132-16.332,7.531-.838,1.261,1.166,2.431,2,1.177" fill="#c45d4d"/>
        <path id="Trazado_150943" data-name="Trazado 150943" d="M641.936,323.292c5.026-4.548,14.917-3.946,21.029-2.766,1.463.283,2.12-1.964.649-2.249-6.977-1.347-17.562-1.832-23.306,3.366-1.123,1.015.509,2.661,1.628,1.649" fill="#c45d4d"/>
        <path id="Trazado_150944" data-name="Trazado 150944" d="M662.351,373.028h-2.379c-2.156-10.215-4.3-25.12-15.717-27.848-1.441-.35-.806-2.589.658-2.239,12.929,3.1,15.015,18.822,17.438,30.087" fill="#c45d4d"/>
        <path id="Trazado_150945" data-name="Trazado 150945" d="M684.87,316.911a24.785,24.785,0,0,1-2.328,1.516c-10.534-4.362-24.739-9.749-32.952-2.192a22.071,22.071,0,0,1-1.8-1.516c9.374-9,25.618-2.5,37.08,2.192" fill="#c45d4d"/>
        <path id="Trazado_150946" data-name="Trazado 150946" d="M635.228,334.914c-4.445,6.451-4.536,15.789,1.838,20.968,5.594,4.546,13.649,1.25,18.055-3.613,1.011-1.117-.612-2.772-1.629-1.649-3.623,4-10.249,7.2-14.948,3.381-5.517-4.477-5.111-12.4-1.317-17.91.859-1.247-1.146-2.415-2-1.177" fill="#c45d4d"/>
        <path id="Trazado_150947" data-name="Trazado 150947" d="M640.308,321.643c-2.674,2.466-3.373,8.112-.509,10.61,1.119.976,2.8-.666,1.671-1.649-1.907-1.663-1.3-5.683.466-7.312,1.113-1.026-.518-2.672-1.628-1.649" fill="#c45d4d"/>
        <path id="Trazado_150948" data-name="Trazado 150948" d="M712.346,366.544c-.726.233-1.429.467-2.155.7-.024,0-.047.023-.071.023-3.421-7.976-6.959-15.883-10.544-23.766-3.971-8.723-7.1-21.388-16.826-24.957-1.393-.513-.758-2.752.635-2.239,9.334,3.429,11.654,11.662,15.535,20.128q6.878,14.974,13.426,30.111" fill="#c45d4d"/>
        <path id="Trazado_150949" data-name="Trazado 150949" d="M698.417,506.462h-4.338a18.132,18.132,0,0,1-3.738-5.038c-3.209-6.274-4.729-13.341-6.414-20.221a21.766,21.766,0,0,1,2.581.63,123.717,123.717,0,0,0,3.908,13.69c1.917,5.178,4.438,8.63,8,10.939" fill="#c45d4d"/>
        <path id="Trazado_150950" data-name="Trazado 150950" d="M674.569,498.261a54.08,54.08,0,0,1,15.449,1.925,1.171,1.171,0,0,0,.649-2.249,56.2,56.2,0,0,0-16.068-2.008c-1.5.028-1.534,2.361-.03,2.332" fill="#c45d4d"/>
        <path id="Trazado_150951" data-name="Trazado 150951" d="M674.939,488.791a24.392,24.392,0,0,1,11.42,1.374c1.4.525,2.038-1.728.649-2.249a25.961,25.961,0,0,0-12.039-1.457c-1.475.173-1.522,2.507-.03,2.332" fill="#c45d4d"/>
        <path id="Trazado_150952" data-name="Trazado 150952" d="M665.4,306.387a13.913,13.913,0,0,0,10.079-5.039c.953-1.157-.667-2.816-1.628-1.649a11.625,11.625,0,0,1-8.421,4.357c-1.494.084-1.533,2.416-.03,2.331" fill="#c45d4d"/>
        <path id="Trazado_150953" data-name="Trazado 150953" d="M664.5,283.152c-.855,1.314-1.669,2.651-2.415,4.03a15.09,15.09,0,0,0-1.9,4.02c-.358,2.175,3.288,3.848,4.708,4.955,1.175.916,2.364-1.109,1.2-2.014a26.384,26.384,0,0,1-4-3.221q.144.567.286,1.135c.49-2.625,2.68-5.52,4.116-7.728.825-1.269-1.177-2.44-2-1.177" fill="#c45d4d"/>
        <path id="Trazado_150954" data-name="Trazado 150954" d="M584.83,416.6a64.5,64.5,0,0,1,14.366-8.229,1.161,1.161,0,0,0-.917-2.132,66.956,66.956,0,0,0-14.9,8.556c-1.2.911.25,2.718,1.455,1.8" fill="#c29e8c"/>
        <path id="Trazado_150955" data-name="Trazado 150955" d="M646.045,492.356a18.3,18.3,0,1,1,18.3-18.3,18.322,18.322,0,0,1-18.3,18.3m0-34.273a15.97,15.97,0,1,0,15.971,15.969,15.986,15.986,0,0,0-15.971-15.969" fill="#fff"/>
        <path id="Trazado_150956" data-name="Trazado 150956" d="M646.868,479.126H640.8a3.375,3.375,0,0,1-3.375-3.376v-3.395a3.375,3.375,0,0,1,3.375-3.375h6.068a3.375,3.375,0,0,1,3.375,3.375v3.4a3.375,3.375,0,0,1-3.375,3.375" fill="#fff"/>
        <path id="Trazado_150957" data-name="Trazado 150957" d="M653.689,470.473l-6.554,3.048a.687.687,0,0,0-.01,1.242l6.555,3.168a.687.687,0,0,0,.986-.619V471.1a.687.687,0,0,0-.977-.623" fill="#fff"/>
        <path id="Trazado_150958" data-name="Trazado 150958" d="M615.074,466.111a17.136,17.136,0,1,1-23.127-7.242,17.136,17.136,0,0,1,23.127,7.242" fill="#f78b6a"/>
        <path id="Trazado_150959" data-name="Trazado 150959" d="M612.013,470.978c-1.339-2.031-4.271-5.858-6.664-4.606l-14.883,7.784c-2.393,1.252-.923,5.843-.018,8.1.272.68.914,1.083,1.361.849l5.6-2.93c.4-.211.48-.857.173-1.444l-.423-.807c-.306-.587-.229-1.233.174-1.444l6-3.141c.4-.21.978.1,1.285.682l.422.807c.307.587.882.892,1.284.682l5.6-2.931c.447-.234.482-.991.079-1.6" fill="#fff0f0"/>
        <path id="Trazado_150960" data-name="Trazado 150960" d="M553.734,492.356a18.3,18.3,0,1,1,18.3-18.3,18.324,18.324,0,0,1-18.3,18.3m0-34.273A15.97,15.97,0,1,0,569.7,474.052a15.989,15.989,0,0,0-15.969-15.969" fill="#fff"/>
        <path id="Trazado_150961" data-name="Trazado 150961" d="M557.087,469.42a3.35,3.35,0,1,1-3.35-3.35,3.35,3.35,0,0,1,3.35,3.35" fill="#fff"/>
        <path id="Trazado_150962" data-name="Trazado 150962" d="M561.2,482.037H546.282A1.644,1.644,0,0,1,544.7,480a9.255,9.255,0,0,1,18.1.163,1.6,1.6,0,0,1-1.607,1.87" fill="#fff"/>
      </g>
    </g>
  </g>
</svg>
