<svg xmlns="http://www.w3.org/2000/svg" xmlns:xlink="http://www.w3.org/1999/xlink" width="144" height="138" viewBox="0 0 144 138">
  <defs>
    <clipPath id="clip-path">
      <rect id="Rect치ngulo_41164" data-name="Rect치ngulo 41164" width="128.147" height="114.358" fill="none"/>
    </clipPath>
  </defs>
  <g id="Grupo_165444" data-name="Grupo 165444" transform="translate(-537 -1287.998)">
    <g id="Grupo_165391" data-name="Grupo 165391" transform="translate(0 -0.002)">
      <rect id="Rect치ngulo_40797" data-name="Rect치ngulo 40797" width="144" height="138" transform="translate(537 1288)" fill="#c4d1ff"/>
    </g>
    <g id="Grupo_165955" data-name="Grupo 165955" transform="translate(545 1299.998)">
      <g id="Grupo_165955-2" data-name="Grupo 165955" clip-path="url(#clip-path)">
        <path id="Trazado_153048" data-name="Trazado 153048" d="M47.7,100.122c-1.165.278-2.33.55-3.494.833a47.883,47.883,0,0,1-15.368,1.134A42.828,42.828,0,0,1,18.6,100.074a5.623,5.623,0,0,1-3.243-2.25c-.331-.5.106-.474.364-.489.709-.04,1.421-.027,2.132-.032a15.791,15.791,0,0,0,2.289-.136,55.452,55.452,0,0,0,13.978-2.8A54.332,54.332,0,0,0,65.56,66.949a53.051,53.051,0,0,0,5.615-24.012,51.445,51.445,0,0,0-2-14.288c-.4-1.376-.781-2.753-1.262-4.1A62.629,62.629,0,0,0,64.8,17.62c-.133-.267-.437-.546-.044-.849A47.061,47.061,0,0,1,75.53,29.439c.685,1.145,1.292,2.337,1.935,3.508l2.462,6.321a10.016,10.016,0,0,0,.67,2.1,44.06,44.06,0,0,1,1.622,13.984,46.057,46.057,0,0,1-2.99,15.189A49.366,49.366,0,0,1,57.29,96.138c-.958.533-2.018.849-2.965,1.4L47.7,100.122" transform="translate(-4.604 -5.066)" fill="#f7a900"/>
        <path id="Trazado_153049" data-name="Trazado 153049" d="M52.126,25.778c-.088-2.291-.738-4.5-1.017-6.76-.477-3.869-2.411-7.244-3.638-10.857a5.9,5.9,0,0,1-.611-1.852c.462.205.544.669.7,1.069.958,2.431,1.9,4.87,2.852,7.3.409,1.042.479,1.06,1.5.685,1.342-.491,2.635-1.114,4.017-1.495a.78.78,0,0,1,.287.02,1.183,1.183,0,0,1,.512.722c1.387,3.543,2.881,7.049,4.109,10.647a46.661,46.661,0,0,1,2.184,10.568,48.7,48.7,0,0,1,.085,8.747,52.123,52.123,0,0,1-2.392,11.96A50.848,50.848,0,0,1,48.447,76.668a48.148,48.148,0,0,1-11.435,8.621c-1.6.865-3.226,1.662-4.876,2.422-.094.036-.188.068-.282.1-5.087,2.013-10.2,3.958-15.279,5.985a4.285,4.285,0,0,1-1.828.425,3.951,3.951,0,0,1-.542-2.289,2.554,2.554,0,0,1,1.661-2.457c3.035-1.341,5.988-2.869,8.974-4.323.121-.059.257-.1.269-.272,1.257-.847,2.661-1.429,3.957-2.213A47.222,47.222,0,0,0,42.38,70.554,49.921,49.921,0,0,0,47,63.16a55.223,55.223,0,0,0,3.282-7.815,55.883,55.883,0,0,0,2.438-10.43,56.657,56.657,0,0,0-.464-17.991,8.528,8.528,0,0,1-.135-1.146" transform="translate(-4.289 -1.906)" fill="#fed500"/>
        <path id="Trazado_153050" data-name="Trazado 153050" d="M33.763,85.607l.155-.061A8.75,8.75,0,0,0,37.25,84.2a49.882,49.882,0,0,0,8.695-5.627,53.4,53.4,0,0,0,7.528-7.485,47.559,47.559,0,0,0,5.255-7.764A51.87,51.87,0,0,0,63.2,52.25a51.282,51.282,0,0,0,1.568-18.536,49.272,49.272,0,0,0-2.034-9.989C61.584,20.076,60.06,16.56,58.7,12.987c-.158-.415-.488-.842-.114-1.316a28.9,28.9,0,0,1,3.73-1.565c1.027-.432,1.062-.467.656-1.514-.946-2.443-1.9-4.88-2.846-7.325-.154-.4-.4-.8-.207-1.266.318.112.3.434.393.671,1.026,2.6,2.069,5.2,3.036,7.825a4.145,4.145,0,0,0,1.62,2.177A14.859,14.859,0,0,1,66.227,11.7c-.037.7.459,1.209.739,1.764a53.1,53.1,0,0,1,3.311,8.053,56.753,56.753,0,0,1,2.062,9.029,53.184,53.184,0,0,1-.932,19.969,58.8,58.8,0,0,1-2.2,6.977,53.087,53.087,0,0,1-8.365,14.485A53.089,53.089,0,0,1,47.165,84.106a59.84,59.84,0,0,1-6.825,3.585A53.676,53.676,0,0,1,21.873,92.3a1.744,1.744,0,0,1-.247-.017,3.008,3.008,0,0,1-1.247-.387c-.358-.258-.382-.511,0-.764a4.32,4.32,0,0,1,.827-.368q5.184-2.023,10.372-4.041a11.838,11.838,0,0,0,2.184-1.119" transform="translate(-6.072)" fill="#fcbe00"/>
        <path id="Trazado_153051" data-name="Trazado 153051" d="M47.837,34.205a22.483,22.483,0,0,1,.954,5.4,54.3,54.3,0,0,1-1.6,20.872,21.974,21.974,0,0,1-1.082,3.431A48.64,48.64,0,0,1,30.288,77.074,53.146,53.146,0,0,1,15.6,82.207c-4.833.99-9.653,2.046-14.484,3.044a1.2,1.2,0,0,1-.806.043,2.605,2.605,0,0,1-.3-1.437c.132-2.059.5-2.741,2.588-3.314C6.548,79.457,10.5,78.337,14.379,77A47.141,47.141,0,0,0,36.718,60.555,55.436,55.436,0,0,0,47.691,34.671a3,3,0,0,1,.147-.466" transform="translate(0 -10.333)" fill="#fcbe00"/>
        <path id="Trazado_153052" data-name="Trazado 153052" d="M.445,98.149a59.385,59.385,0,0,1,5.994-1.391c3.28-.741,6.578-1.41,9.871-2.09a53.852,53.852,0,0,0,10.441-3.224,50.544,50.544,0,0,0,7.992-4.358A52.786,52.786,0,0,0,45.1,77.945c.36-.408.5-1.053,1.153-1.184a49.523,49.523,0,0,1-6.242,12.891,15.854,15.854,0,0,1-1.558,2.213,47.42,47.42,0,0,1-8.38,4.042A56.478,56.478,0,0,1,7.76,99.3c-2.013-.1-4-.375-5.994-.641A2.826,2.826,0,0,1,.506,98.3c-.021-.052-.041-.1-.061-.156" transform="translate(-0.134 -23.189)" fill="#f7a900"/>
        <path id="Trazado_153053" data-name="Trazado 153053" d="M.533,104.817c1.17.137,2.341.258,3.508.414a53.635,53.635,0,0,0,16.309-.433,49.454,49.454,0,0,0,7.548-1.905,40.659,40.659,0,0,0,3.874-1.381,51.721,51.721,0,0,0,6.017-3c.207-.129.419-.283.685-.137A47.655,47.655,0,0,1,32,105.516a45.294,45.294,0,0,1-7.856,5.672,10.692,10.692,0,0,1-3.162,1.491,44.423,44.423,0,0,1-10.718-2.112,35.81,35.81,0,0,1-7.221-3.035,5.113,5.113,0,0,1-2.51-2.715" transform="translate(-0.161 -29.701)" fill="#fe9000"/>
        <path id="Trazado_153054" data-name="Trazado 153054" d="M74.644,0c1.156,2.975,2.286,5.961,3.487,8.918.308.758.137,1.037-.6,1.292-1.455.5-2.876,1.105-4.312,1.667a.364.364,0,0,1-.465.177l0-.008a1.472,1.472,0,0,1-.645-.916q-1.531-3.9-3.042-7.812a1.4,1.4,0,0,1-.146-1.108L74.644,0" transform="translate(-20.801)" fill="#fe9000"/>
        <path id="Trazado_153055" data-name="Trazado 153055" d="M66.554,3.165,70.386,13c-1.588.62-3.19,1.21-4.759,1.876-.656.279-.892.1-1.127-.522-1.142-3.009-2.328-6-3.5-9,1.814-.824,3.688-1.5,5.553-2.193" transform="translate(-18.428 -0.956)" fill="#f7a900"/>
        <path id="Trazado_153056" data-name="Trazado 153056" d="M32.218,122.662a5.614,5.614,0,0,1-2.037,1.323q-5.386,2.105-10.776,4.2l-.881.343,1.556.814a29.33,29.33,0,0,1-4.407.184c-.191.007-.492-.122-.391.288-.214-.069-.263-.249-.3-.44l17.231-6.71" transform="translate(-4.527 -37.055)" fill="#fcc000"/>
        <path id="Trazado_153057" data-name="Trazado 153057" d="M64.01,17.194l.465-.177c1.15,2.952,2.36,5.883,3.438,8.861a52.431,52.431,0,0,1,3.259,19.205,52.057,52.057,0,0,1-2.6,14.951A54.985,54.985,0,0,1,65.7,66.85a49.048,49.048,0,0,1-8.8,12.542A49.206,49.206,0,0,1,46.26,87.878c-1.39.821-2.841,1.522-4.245,2.314a3.148,3.148,0,0,1-2.116.5A51.815,51.815,0,0,0,51.518,83.8,50.744,50.744,0,0,0,62.431,71.872,51.323,51.323,0,0,0,67.72,61.29a50.379,50.379,0,0,0,2.8-11.991,49.249,49.249,0,0,0-.566-14.577,48.626,48.626,0,0,0-2.78-9.446c-1.1-2.676-2.111-5.387-3.162-8.082" transform="translate(-12.053 -5.141)" fill="#fcc000"/>
        <path id="Trazado_153058" data-name="Trazado 153058" d="M137.027,134.277a30.6,30.6,0,0,1-6.009-1.629,21.374,21.374,0,0,1-8.4-6.444c-.219-.279-.488-.52-.733-.778a11.157,11.157,0,0,1-2.4-4.01,18.5,18.5,0,0,1-1.6-6.092,11.749,11.749,0,0,1-.038-4.358,21.187,21.187,0,0,1,2.249-7.8,20.686,20.686,0,0,1,9.268-8.882c.26-.121.51-.268.567-.276-.548.181-1.331.4-2.083.7-.8.322-1.6.64-2.371,1.036-.31.16-.6.436-1,.248-.3-2.112-1.584-3.743-2.681-5.458a47.017,47.017,0,0,0-3.634-4.7c-1.126-1.35-1.549-1.313-2.69,0a48.814,48.814,0,0,0-5.553,7.708,2.5,2.5,0,0,0,.171,3.294c1.3,1.559,1.211,1.635,2.782.29.11-.094.227-.178.338-.27,2.875-2.38,5.453-2.083,8.285,1.207a.807.807,0,0,1-.324.757c-.809.759-1.477,1.653-2.3,2.4a.613.613,0,0,1-.308,0,2.9,2.9,0,0,1-.746-.61c-.948-.894-1.212-.928-2.118.052a36.12,36.12,0,0,0-6.2,8.9,1.252,1.252,0,0,0,.142,1.489,19.444,19.444,0,0,1,1.373,1.933c.31.492.635.5,1.039.1a13.131,13.131,0,0,1,1.642-1.554c.393-.27.867-.662,1.245.064a28.491,28.491,0,0,1,.066,4.426,1.4,1.4,0,0,1-.066.338,48.541,48.541,0,0,1-3.9,5.01,2.593,2.593,0,0,1-2.069-1.627c.222-.7.648-.941,1.305-.534.453.281.743.106.992-.271a22.73,22.73,0,0,1,1.858-2.391,1.653,1.653,0,0,0,.266-1.431c-.057-.461.036-.93-.051-1.4-1.846,1.916-2.177,1.886-3.738-.311-.438-.617-.872-1.237-1.346-1.83a2.015,2.015,0,0,1-.2-2.322,43.3,43.3,0,0,1,6.383-9.36c1.3-1.5,1.942-1.654,3.849-.9.508.2.742-.061.967-.41.276-.428.089-.732-.266-1.014a3.4,3.4,0,0,0-3.859-.3,11.329,11.329,0,0,0-2.383,2.025c-1.176,1.139-1.814,1.089-2.8-.242-.6-.812-1.14-1.667-1.745-2.476a2.048,2.048,0,0,1-.2-2.249,36.935,36.935,0,0,1,7.158-10.106,2.433,2.433,0,0,1,3.628.241,43.679,43.679,0,0,1,6.255,8.663c.388.729.762.891,1.525.523a22.143,22.143,0,0,1,5.688-1.605,4.244,4.244,0,0,0-3.312.5c-1.253.789-2.018.532-2.742-.764-.617-1.1-1.3-2.164-2-3.217a1.905,1.905,0,0,1-.054-2.233,42.02,42.02,0,0,1,5.424-7,2.185,2.185,0,0,1,3.417.08,42.63,42.63,0,0,1,5.748,7.568c.676,1.167,1.477,2.312.331,3.649-.162.189-.119.4.135.526a1.208,1.208,0,0,0,1.668-.939c.368-2.282-.546-4.149-1.838-5.909-.277-.378-.57-.745-.818-1.145a2.053,2.053,0,0,1,0-2.343c.29-.458.625-.883.958-1.309.9-1.159.907-1.157.051-2.542a9.5,9.5,0,0,0-1.6,1.832c-.934,1.19-1.573,1.245-2.66.2a11.872,11.872,0,0,0-1.484-1.257,3.809,3.809,0,0,0-4.454-.175c-1.332.8-1.936.623-2.74-.7-.674-1.11-1.336-2.228-2.041-3.319a1.977,1.977,0,0,1-.029-2.332,49.3,49.3,0,0,1,3.307-4.682c.48-.571.972-.925,1.547-.106.1.466-.254.721-.487,1.025a46.588,46.588,0,0,0-2.894,4.165,1.262,1.262,0,0,0,.012,1.577c.647.909,1.166,1.9,1.75,2.852.216.352.452.571.865.293,2.711-1.824,4.971-.766,7.114,1.1.877.764.858.729,1.611-.181a7.782,7.782,0,0,1,2.545-2.51A11.745,11.745,0,0,1,141.17,78.8c-.067.944-.822,1.472-1.346,2.117a1.375,1.375,0,0,0-.061,1.982,25.886,25.886,0,0,1,2.407,3.952q0,2.276,0,4.552a1.242,1.242,0,0,1-1.317.906,23.467,23.467,0,0,0-3.449.2c-.346.054-.779.068-.985-.282s.068-.687.282-.973a7.77,7.77,0,0,1,.81-1.013,1.547,1.547,0,0,0,.211-2.205,48.8,48.8,0,0,0-5.388-7.3c-.784-.881-1.21-.905-2.055-.056a36.949,36.949,0,0,0-4.594,5.862,1.338,1.338,0,0,0,.04,1.691,16.724,16.724,0,0,1,1.466,2.4c.364.736.7.921,1.48.439,2.131-1.323,3.947-.884,5.985.656.786.595.7,1-.23,1.35a23.1,23.1,0,0,0-3.589,1.492c-6.342,3.663-9.515,9.171-9.785,16.467a21.425,21.425,0,0,0,14.713,20.64,19.1,19.1,0,0,0,10.661.432c.4-.1.88-.483,1.2.156a18.282,18.282,0,0,1-5.891,1.8c-.278.038-.578-.01-.812.2Z" transform="translate(-32.552 -19.919)" fill="#fe9724"/>
        <path id="Trazado_153059" data-name="Trazado 153059" d="M125.691,64.412c-.495-.447-.867-.458-1.288.167-1,1.486-2.065,2.932-3.125,4.378a2.005,2.005,0,0,0-.035,2.575c.749,1.1,1.424,2.246,2.116,3.381.514.844,1.161,1.114,1.943.489,2.071-1.652,4.587-.67,6.1.888.252.259.5.519.768.763a1,1,0,0,0,1.658-.137c.683-.872,1.357-1.75,2.049-2.644,1.119,2.108,1.644,1.7.05,3.475-.215.239-.4.508-.59.768a1.9,1.9,0,0,0-.008,2.727c.7.878,1.16,1.909,1.827,2.794,1.112,1.473.643,3.132.6,4.7-.025.9-1.064.676-1.665.654-1.182-.044-1.277-.235-.525-1.1a1.762,1.762,0,0,0,.187-2.26,37.076,37.076,0,0,0-5.317-7.43,7.38,7.38,0,0,0-1.387-1.486,1.837,1.837,0,0,0-2.515.218,45.586,45.586,0,0,0-5.549,7.133,1.448,1.448,0,0,0,.025,1.725,41.532,41.532,0,0,1,2.319,3.765c.459.849,1.235.968,2.206.241a4.7,4.7,0,0,1,3.307-.641,1.414,1.414,0,0,1,.928.523,40.705,40.705,0,0,0-5.081,1.191c-.267.1-.551.169-.819.273-1.769.683-1.83.718-2.672-.872a48.2,48.2,0,0,0-6.076-8.338,2.184,2.184,0,0,0-3.007-.107A38.141,38.141,0,0,0,104.9,92.374a1.762,1.762,0,0,0,.16,1.935q1,1.4,2.015,2.791c.642.881,1.118.913,1.926.147a15.958,15.958,0,0,1,2.4-2.168,3.927,3.927,0,0,1,4.689.314c.822.668.193,1.114-.146,1.6s-.672.634-1.209.121a1.887,1.887,0,0,0-2.78.225,50.88,50.88,0,0,0-6.153,8.282c-1.175,1.919-1.365,3.5.38,5.115a8.025,8.025,0,0,1,.958,1.422,1.171,1.171,0,0,0,1.991.055,3.708,3.708,0,0,1,1.121-1.144,19.074,19.074,0,0,1,.174,2.878c.018.553-.778,1.133-1.212,1.7-.328.427-.689.831-.986,1.278-.4.6-.69,1.225-1.488.353-.475-.521-.713.087-.962.408-.646.069-.869-.452-1.182-.847a.841.841,0,0,1-.038-.306c.7-.974.407-1.8-.255-2.7a50.878,50.878,0,0,0-3.9-4.973,5.125,5.125,0,0,0-1.909-1.332,8.93,8.93,0,0,1-1.13-3.62.754.754,0,0,1,.1-.3,4.037,4.037,0,0,1,4.181.382c.725.436,1.1.415,1.488-.386a16.863,16.863,0,0,1,1.525-2.478,1.187,1.187,0,0,0,.04-1.488,42.614,42.614,0,0,0-4.6-5.975c-.9-.965-1.018-.918-2.026-.085-.311.258-.626.962-1.17.229a20.567,20.567,0,0,1-.025-4.415,1.45,1.45,0,0,1,1.421-.968,4.9,4.9,0,0,1,3.423.688c.521.372.874.343,1.2-.267a21.346,21.346,0,0,1,1.667-2.654,1.321,1.321,0,0,0,.006-1.685,40.88,40.88,0,0,0-4.571-5.881c-.592-.623-1.133-.853-1.814-.142-.181.19-.433.422-.751.165a3.68,3.68,0,0,1,.352-2.191,12.132,12.132,0,0,1,1.1-2.915.577.577,0,0,1,.272-.166,4.457,4.457,0,0,1,2.635.821c.53.349.827.223,1.1-.31a20.673,20.673,0,0,1,1.688-2.763,1.32,1.32,0,0,0-.028-1.676,6.2,6.2,0,0,1-1.356-2.417,6.846,6.846,0,0,1,2.744-2.723.712.712,0,0,1,.308.031,2.673,2.673,0,0,1,.891.923c.834,1.183.834,1.182,1.909.133a11.239,11.239,0,0,1,2.343-1.723,4.2,4.2,0,0,1,4.506.191,10.85,10.85,0,0,1,2.4,2c.42.45.774.474,1.1-.093a2.187,2.187,0,0,1,.427-.622c1.7-1.38,1.172-2.817.191-4.33-.321-.495-.945-.962-.546-1.715a3.2,3.2,0,0,1,1.868.28,25.755,25.755,0,0,1,3.672,1.46,1.444,1.444,0,0,1,.877.736l1.537,1.057c-.233.94-1.044,1.306-1.757,1.769" transform="translate(-29.233 -17.836)" fill="#fe9724"/>
        <path id="Trazado_153060" data-name="Trazado 153060" d="M153.232,138.233c-.811-.319-1.536.188-2.263.334-9.949,2.009-20.084-4.7-23.291-13.814-2.3-6.53-1.762-12.778,2.037-18.546a17.429,17.429,0,0,1,9.556-7.191c.456-.142,1.23-.148,1.257-.6.029-.479-.688-.758-1.127-1.025a4.523,4.523,0,0,0-5.515.2c-.525.408-.727.241-.981-.2a19.278,19.278,0,0,0-1.594-2.683,1.912,1.912,0,0,1-.068-2.726,50.986,50.986,0,0,1,4.656-5.78c.727-.722,1.329-.721,2,.029a47.332,47.332,0,0,1,5.964,8.156,1.227,1.227,0,0,1-.268,1.711,24.863,24.863,0,0,0-1.72,2.108c1.9-.091,3.517-.144,5.132-.273.269-.021.511-.371.766-.569-.1.7.278.926.9,1.026a21.5,21.5,0,0,1,17.48,18.761,19.134,19.134,0,0,1-10.307,19.793c-.866.438-1.741.858-2.612,1.286" transform="translate(-38.156 -25.88)" fill="#fec126"/>
        <path id="Trazado_153061" data-name="Trazado 153061" d="M132.373,55.283a23.084,23.084,0,0,0-6.486-2.344c-.488.278-.955,0-1.432-.05a23.578,23.578,0,0,0-4.676-.309,3.565,3.565,0,0,1-1.27-.119c-.6-.349-.29-.787-.081-1.175a20.688,20.688,0,0,1,1.344-2.152,26.07,26.07,0,0,1,10.709-8.767c.482-.214.861-.659,1.44-.652.438.434.8-.039,1.142-.151a26.424,26.424,0,0,1,16.993.038c.362.121.715.272,1.289.493a45.975,45.975,0,0,0-18.972,15.188" transform="translate(-35.694 -11.533)" fill="#51b442"/>
        <path id="Trazado_153062" data-name="Trazado 153062" d="M107.189,49.232a14.709,14.709,0,0,0-1.736,3,6,6,0,0,1-2.576.627c-.528.113-1.067.164-1.594.281a23.559,23.559,0,0,0-5.366,1.818c-.406.187-.787.533-1.3.325A45.923,45.923,0,0,0,75.641,40.11,24.187,24.187,0,0,1,82.107,38.4a26.651,26.651,0,0,1,12.234,1.318c.217.074.485.422.72,0a26.492,26.492,0,0,1,7.512,4.441,12.647,12.647,0,0,1,2.413,2.28,25.271,25.271,0,0,1,2.2,2.8" transform="translate(-22.85 -11.534)" fill="#419335"/>
        <path id="Trazado_153063" data-name="Trazado 153063" d="M119.812,44.441c-1.022-.658-1.523-1.794-2.382-2.6a17.77,17.77,0,0,1,2.039-8.011A20.6,20.6,0,0,1,125,26.878c.543-.413,1.013-.909,1.558-1.317.447.486.716-.054.992-.216a21.2,21.2,0,0,1,18.181-1.767A37.319,37.319,0,0,0,131.7,34.924c-.777.867-1.917,1.1-2.887,1.623a26.434,26.434,0,0,0-9,7.894" transform="translate(-35.473 -6.743)" fill="#307825"/>
        <path id="Trazado_153064" data-name="Trazado 153064" d="M93.329,94.979l.006,4.986a.361.361,0,0,1,.07.286c-.791,1.373-1.965,2.457-2.83,3.78-.531.812-1.022,1.646-1.539,2.465a1.031,1.031,0,0,0,.1,1.368c.605.71,1.2,1.434,1.739,2.194.371.518.73.562,1.258.185.465-.332.914-.863,1.617-.535a23.234,23.234,0,0,0,1.1,3.685.263.263,0,0,1,.016.286,51.9,51.9,0,0,0-4.52,5.6c-.211.308-.4.715-.905.6a12.79,12.79,0,0,1-2.2-3.429c-.134-.53.207-.882.5-1.223a1.285,1.285,0,0,0,.021-1.825q-1.187-1.585-2.411-3.143a3.7,3.7,0,0,1-.643-.979,15.759,15.759,0,0,1-.433-4.982,2.274,2.274,0,0,0,1.593-1.27,11.846,11.846,0,0,1,1.4-2.05,1.282,1.282,0,0,0,.012-1.833c-.754-1.013-1.5-2.026-2.344-2.969a3,3,0,0,1-.663-.974q0-2.274,0-4.548c.84-1.341,1.607-2.73,2.544-4.007A1.248,1.248,0,0,0,86.8,84.9c-.393-.468-.729-.981-1.131-1.444-.248-.285-.6-.557-.354-1.022a12.734,12.734,0,0,1,1.516-3.911c.624-.105.888.4,1.189.762.528.632,1.072,1.252,1.579,1.9.7.9.756.907,1.544.114a7.974,7.974,0,0,1,2.474-1.683,2.187,2.187,0,0,1,1.654-.223,38.067,38.067,0,0,0-1.5,5.19c.1.227-.02.4-.137.572a47.027,47.027,0,0,0-4.907,6.818,1.443,1.443,0,0,0,.251,2.09,9.933,9.933,0,0,1,1.346,1.681c.375.513.724.613,1.226.135a2.947,2.947,0,0,1,1.643-.965l.141.061" transform="translate(-25.447 -23.717)" fill="#d8811f"/>
        <path id="Trazado_153065" data-name="Trazado 153065" d="M109.511,33.819a20.25,20.25,0,0,0-2.175,7.659c-.01.125-.128.241-.2.361a25.193,25.193,0,0,0-7.152-5.432,8.686,8.686,0,0,1-2.594-1.484A37.444,37.444,0,0,0,83.367,23.578a21.182,21.182,0,0,1,18.189,1.776c.288.168.7.879,1.011-.019a16.417,16.417,0,0,0,2.386,2.305,17.707,17.707,0,0,1,4.558,6.179" transform="translate(-25.184 -6.743)" fill="#1f5c16"/>
        <path id="Trazado_153066" data-name="Trazado 153066" d="M117.822,28.583c-.918-1-1.415-2.291-2.283-3.343a22.258,22.258,0,0,0-3.855-3.833,1.554,1.554,0,0,1-.807-1.308,23.223,23.223,0,0,1,2.584-8.625A32.378,32.378,0,0,1,117.7,4.987a31.261,31.261,0,0,1,5.539,9.465,19.348,19.348,0,0,1,1.334,5.872c-.221,1-1.177,1.312-1.833,1.867a20.414,20.414,0,0,0-4.92,6.391" transform="translate(-33.495 -1.507)" fill="#15470d"/>
        <path id="Trazado_153067" data-name="Trazado 153067" d="M136.491,65.97c.416-.758,1.247-1.1,1.757-1.769a23.341,23.341,0,0,1,8.814,10.016,30.045,30.045,0,0,0-2.727,3.177c-.4.652-.655.666-1.194.131a14.084,14.084,0,0,0-2.106-1.669,4.306,4.306,0,0,0-5.222.263c-.462.322-.627.417-.941-.147-.663-1.192-1.4-2.344-2.145-3.489a1,1,0,0,1,.027-1.251,47.312,47.312,0,0,1,3.737-5.263" transform="translate(-40.033 -19.395)" fill="#fec126"/>
        <path id="Trazado_153068" data-name="Trazado 153068" d="M96.4,75a7.577,7.577,0,0,0-4.46,2.616c-.334.386-.534.376-.911-.042a21.905,21.905,0,0,0-3.07-3.447,23.886,23.886,0,0,1,9.093-10.173,21.266,21.266,0,0,1,3.312,3.77,1.2,1.2,0,0,1,.257.8,1,1,0,0,1-.253.789,21.849,21.849,0,0,0-3.288,5.1,1.505,1.505,0,0,1-.464.576L96.4,75" transform="translate(-26.57 -19.32)" fill="#d8a420"/>
        <path id="Trazado_153069" data-name="Trazado 153069" d="M91.7,135.066c1.244-1.241,2.052-2.827,3.241-4.109a9.3,9.3,0,0,1,2.147-2.171c.4.109.535.465.673.788a22.633,22.633,0,0,0,4.943,7.378,1.747,1.747,0,0,1,.454.722c0,.071,0,.142,0,.214a33.528,33.528,0,0,1-2.589,4.468,23.894,23.894,0,0,1-8.871-7.289" transform="translate(-27.7 -38.905)" fill="#d8a420"/>
        <path id="Trazado_153070" data-name="Trazado 153070" d="M118.751,136.4a21.486,21.486,0,0,0,3.1,8.866c.219.362.575.658.6,1.126a25.3,25.3,0,0,1-12.811-.645,5.3,5.3,0,0,1,1.9-3.381,2.838,2.838,0,0,1,1.734.757,20.063,20.063,0,0,0,4.221,2c-.121-.944-.984-1.564-.7-2.494.265-.218.613-.172.911-.284a1.217,1.217,0,0,0,.843-1.514,1.3,1.3,0,0,0-1.646-.814c-.355.093-.637.532-1.078.242a4.485,4.485,0,0,1-.539-2.773c0-.074.006-.148.009-.222.22-.325.337-.706.588-1.019,1-1.248,2.024-1.2,2.861.159" transform="translate(-33.121 -40.886)" fill="#d8a420"/>
        <path id="Trazado_153071" data-name="Trazado 153071" d="M104.452,67.107a18.909,18.909,0,0,0-2.679-3.453c-.306-.332-.769-.56-.789-1.1l1.291-.885a22.591,22.591,0,0,1,6.5-2.351c.251.284.051.533-.075.775-.212.409-.456.8-.7,1.191a3.671,3.671,0,0,0-.734,3.2,18.513,18.513,0,0,0-2.6,2.617.12.12,0,0,1-.213,0" transform="translate(-30.506 -17.919)" fill="#d8811f"/>
        <path id="Trazado_153072" data-name="Trazado 153072" d="M84.3,102.425a22.375,22.375,0,0,1,3.6,4.378.765.765,0,0,1-.054,1.047,29.083,29.083,0,0,0-2.313,3.487c-.339.656-.834.068-1.237.184q0-4.548,0-9.1" transform="translate(-25.465 -30.942)" fill="#d8a420"/>
        <path id="Trazado_153073" data-name="Trazado 153073" d="M110.031,144.425a15.134,15.134,0,0,0-1.972,3.281,12.937,12.937,0,0,1-3.653-1.412A15.349,15.349,0,0,1,107,141.826l1.085.871a6.256,6.256,0,0,0,1.937,1.52.127.127,0,0,1,.061.135c-.014.048-.029.073-.046.073" transform="translate(-31.54 -42.844)" fill="#d8811f"/>
        <path id="Trazado_153074" data-name="Trazado 153074" d="M85.322,84.134c.457,1.023,1.383,1.7,1.937,2.663.2.35.463.646.195,1.069-.9,1.418-1.794,2.843-2.71,4.252-.081.125-.3.158-.459.234a22.658,22.658,0,0,1,1.037-8.218" transform="translate(-25.454 -25.416)" fill="#d8a521"/>
        <path id="Trazado_153075" data-name="Trazado 153075" d="M155.706,92.424c-.664-.381-.847-1.112-1.226-1.7-.41-.632-.778-1.291-1.194-1.918-.983-1.482-.985-1.473.153-2.838.436-.522.845-1.065,1.267-1.6a23.542,23.542,0,0,1,1,8.051" transform="translate(-46.089 -25.488)" fill="#fec127"/>
        <path id="Trazado_153076" data-name="Trazado 153076" d="M84.916,122.6a28.761,28.761,0,0,1,3.607,4.5.852.852,0,0,1-.066,1.164,17.437,17.437,0,0,0-1.01,1.51,20.534,20.534,0,0,1-2.531-7.172" transform="translate(-25.652 -37.035)" fill="#d8a421"/>
        <path id="Trazado_153077" data-name="Trazado 153077" d="M121.992,106.157a20.983,20.983,0,0,0-2.545-1.975c-1.789-1.045-3.368-.626-4.929.441a11.382,11.382,0,0,0-2.079,1.872c-.442.5-.732.444-1.051-.1a5.447,5.447,0,0,0-.954-1.427c-1.309-1.14-.908-2.242-.2-3.514a51.5,51.5,0,0,1,5.985-8.267c.759-.887,1.378-.921,2.152-.064a40.338,40.338,0,0,1,6.784,9.788.908.908,0,0,1-.141,1.064,4.986,4.986,0,0,1-3.025,2.188" transform="translate(-33.102 -27.942)" fill="#fec126"/>
        <path id="Trazado_153078" data-name="Trazado 153078" d="M115.226,125.87c-1.191.262-1.76,1.312-2.554,2.062-.54.51-.84.642-1.276-.11a17.418,17.418,0,0,0-1.685-2.353.935.935,0,0,1-.086-1.166,35.149,35.149,0,0,1,4.971-7.632c.508-.6,1.013-1.207,1.561-1.771,1.01-1.038,1.265-1.029,2.281,0,.251.253.471.537.706.807.064,1.157-.748,1.814-1.447,2.536-.736.189-1.505.336-1.692,1.262-.12.592.323,1.006.489,1.51a42.444,42.444,0,0,1-1,4.639.659.659,0,0,1-.267.22" transform="translate(-33.068 -34.476)" fill="#fec126"/>
        <path id="Trazado_153079" data-name="Trazado 153079" d="M112.46,143.392c0-.07-.007-.139-.015-.208a32.355,32.355,0,0,1,3.7-4.777l.662,2.823a3.576,3.576,0,0,1,.856,2.383,14.51,14.51,0,0,0,1.394,2.825c-2.61-.509-4.534-1.93-6.592-3.046" transform="translate(-33.969 -41.811)" fill="#fec126"/>
        <path id="Trazado_153080" data-name="Trazado 153080" d="M117.764,126.351l1.068-4.765a.394.394,0,0,1,.281-.082,1.336,1.336,0,0,0,1.854-.766c.43-.889-.265-1.283-.855-1.7a.212.212,0,0,1,.022-.271,10.345,10.345,0,0,0,1.518-2.382l.205,0a3.188,3.188,0,0,1,1.522,1.952,28.85,28.85,0,0,0-2.048,6.409c-.072.464-.1.921-.127,1.383-1.147.064-2.288.233-3.44.225" transform="translate(-35.575 -35.158)" fill="#d8a420"/>
        <path id="Trazado_153081" data-name="Trazado 153081" d="M125.15,115.05l-1.522-1.952c.642-1.2,1.794-1.959,2.608-3.009l3.026-2.187a23.635,23.635,0,0,1,6.543-2.39c-.057.555-.493.449-.745.563a20.157,20.157,0,0,0-9.324,8.211,8.179,8.179,0,0,1-.586.766" transform="translate(-37.347 -31.874)" fill="#d9821f"/>
        <path id="Trazado_153082" data-name="Trazado 153082" d="M117.751,130.46a4.464,4.464,0,0,1,3.44-.225,12.758,12.758,0,0,0,0,4.546c-1.528-1.216-1.654-1.193-2.968.458a3.064,3.064,0,0,1-.481.4q-.01-2.49-.022-4.98c.007-.068.017-.135.03-.2" transform="translate(-35.562 -39.267)" fill="#d8811f"/>
        <path id="Trazado_153083" data-name="Trazado 153083" d="M122.473,85.478a5.334,5.334,0,0,1-.315-.52,5.954,5.954,0,0,0-2.018-1.906c-1.988-1.514-4.287-1.267-6.257.533-.676.618-1.231,1.831-2.029,1.707-.625-.1-1.013-1.374-1.618-2.021a2.08,2.08,0,0,1-.265-2.777,38.724,38.724,0,0,1,6.3-8.81c.885-.921,1.226-.912,2.133.022a39.97,39.97,0,0,1,6.741,9.553A.936.936,0,0,1,125,82.487c-.672.789-1.244,1.665-1.852,2.508a.777.777,0,0,1-.671.484" transform="translate(-33.099 -21.448)" fill="#fec126"/>
        <path id="Trazado_153084" data-name="Trazado 153084" d="M122.2,58.909a3.259,3.259,0,0,1,1.3.259c.591,1.108,1.168,2.224,1.779,3.32a1.012,1.012,0,0,1-.1,1.415,14.587,14.587,0,0,0-1.645,2.247c-.4.63-.688.516-1.124.047a12.068,12.068,0,0,0-2.241-2,4.3,4.3,0,0,0-5.467.165,16.49,16.49,0,0,0-2.627,2.487l-1.794-2.512a.86.86,0,0,1,.47-.893,22.8,22.8,0,0,1,10.183-4.579,2.4,2.4,0,0,1,1.267.049" transform="translate(-33.31 -17.763)" fill="#fec126"/>
        <path id="Trazado_153085" data-name="Trazado 153085" d="M97.325,87.161l.223-.432c1.7-1.442,1.369-1.628,3.1.21a35.849,35.849,0,0,1,4.46,5.915.948.948,0,0,1-.086,1.177,28.508,28.508,0,0,0-2.143,3.483c-.4.815-.784.182-1.08-.014a4.507,4.507,0,0,0-4.689-.377H97.1a1.244,1.244,0,0,1-.325-.994c-.017-2.3-.065-4.6.026-6.9a4.107,4.107,0,0,1,.521-2.07" transform="translate(-29.227 -25.86)" fill="#fec126"/>
        <path id="Trazado_153086" data-name="Trazado 153086" d="M97.076,108.791c.006-.07.013-.141.022-.211a2.437,2.437,0,0,0,.345-.255c1.761-1.857,1.65-1.644,3.282.139a40.134,40.134,0,0,1,4.38,5.851.826.826,0,0,1,.057,1,33,33,0,0,0-2.244,3.678c-.14.276-.356.521-.673.237a5.343,5.343,0,0,0-4.717-1.122.917.917,0,0,1-.466-.689,24.968,24.968,0,0,1,.015-8.623" transform="translate(-29.209 -32.331)" fill="#fec126"/>
        <path id="Trazado_153087" data-name="Trazado 153087" d="M95.178,109.555q.006,3.016.013,6.032a16.089,16.089,0,0,0,.439,3.279c0,.073-.008.147-.011.22a3.71,3.71,0,0,0-1.689.9c-.423.361-.805.519-1.208-.148a8.178,8.178,0,0,0-1.652-2.11c-1.04-.861-.674-1.606-.128-2.487a40.937,40.937,0,0,1,4.237-5.691" transform="translate(-27.311 -33.096)" fill="#d8a420"/>
        <path id="Trazado_153088" data-name="Trazado 153088" d="M121.916,58.763a20.39,20.39,0,0,0-8.752,3.065A9.712,9.712,0,0,0,110,64.186h-.212c-1.109-1.336.061-2.327.539-3.407.271-.611.644-1.177.971-1.763a23.251,23.251,0,0,1,4.331-.7,41.352,41.352,0,0,1,5.475.248c.277.052.581-.022.814.2" transform="translate(-33.025 -17.616)" fill="#d8a420"/>
        <path id="Trazado_153089" data-name="Trazado 153089" d="M104.263,70.477c.071,0,.142,0,.213,0a13.607,13.607,0,0,0,1.58,2.549,1.119,1.119,0,0,1,.02,1.452c-.737,1.06-1.36,2.2-2.014,3.316-.272.465-.479.757-1.038.244a6.225,6.225,0,0,0-2.663-1.076,18.8,18.8,0,0,1,3.335-5.6c.228-.271.56-.469.569-.879" transform="translate(-30.318 -21.289)" fill="#fec126"/>
        <path id="Trazado_153090" data-name="Trazado 153090" d="M105.485,137.584a21.4,21.4,0,0,1-5.363-7.317c-.258-.512-.471-1.046-.7-1.57.006-.069.013-.137.02-.206,1.457,0,2.027,1.27,2.8,2.121a46.038,46.038,0,0,1,3.288,4.367c.678.958.854,1.746-.036,2.6" transform="translate(-30.033 -38.816)" fill="#fec126"/>
        <path id="Trazado_153091" data-name="Trazado 153091" d="M152.2,139.2c-.482,2-.75,4.182-3.336,4.446-2.845.291-3.61-1.976-4.6-4.056a6.969,6.969,0,0,1-1.716,1.649,3.381,3.381,0,0,1-3.466.426A3.571,3.571,0,0,1,137,138.6a8.157,8.157,0,0,1,0-1.836c.094-.8-.3-.814-.878-.653a4.9,4.9,0,0,1-3.669-.181c-2.083-1.073-2.412-3.861-.685-5.958.56-.68.9-.962-.328-1.157a4.809,4.809,0,0,1-2.691-1.5,3.284,3.284,0,0,1,.782-5.367c.6-.332,1.219-.613,1.928-.967a13.306,13.306,0,0,1-1.534-1.692c-.866-1.348-1.465-2.826-.427-4.335s2.681-1.651,4.274-1.308c1.172.252.955-.194.671-.864a5.256,5.256,0,0,1-.241-2.769c.286-2.242,2.772-3.262,4.954-2.08a4.848,4.848,0,0,0,.537.358c.581.216.835,1.124,1.427.957.271-.077.278-1.012.445-1.546.454-1.464,1.254-2.607,2.91-2.8,1.807-.211,2.88.863,3.712,2.268.31.523.541,1.094.834,1.7a3.512,3.512,0,0,0,1-.881c1.1-1.066,2.375-1.733,3.9-1.195a3.934,3.934,0,0,1,2.546,3.686,3.747,3.747,0,0,1-.062,1.394c-.248.839.028.856.719.64a4.6,4.6,0,0,1,3.765.171,3.711,3.711,0,0,1,1.072,5.43c-.3.476-.669.913-1.015,1.38a6.453,6.453,0,0,1,3.976,2.165,3.288,3.288,0,0,1-.757,4.726,7.2,7.2,0,0,1-1.6.885c-.8.276-.63.556-.156,1a4.816,4.816,0,0,1,1.875,3.725,2.919,2.919,0,0,1-2.869,3,5.732,5.732,0,0,1-1.829-.045c-1.167-.356-.907.214-.712.888a5.313,5.313,0,0,1,.378,2.423c-.546,3.039-3.15,3.425-5.354,2.229A14.021,14.021,0,0,1,152.2,139.2" transform="translate(-38.575 -31.683)" fill="#fedb14"/>
        <path id="Trazado_153092" data-name="Trazado 153092" d="M142.49,92.618a1.518,1.518,0,1,1-3.032-.04,1.624,1.624,0,0,1,1.651-1.6,1.665,1.665,0,0,1,1.381,1.637" transform="translate(-42.129 -27.484)" fill="#fe9824"/>
        <path id="Trazado_153093" data-name="Trazado 153093" d="M95.208,87.835c-.357,3.314-.177,6.641-.223,9.962a5.193,5.193,0,0,0-1.75,1.229c-.553.676-.942.405-1.35-.13a14.844,14.844,0,0,0-1.465-1.845,1.554,1.554,0,0,1-.353-2.24,54.135,54.135,0,0,1,4.64-6.576,3.044,3.044,0,0,1,.5-.4" transform="translate(-27.11 -26.534)" fill="#d8a420"/>
        <path id="Trazado_153094" data-name="Trazado 153094" d="M140.987,70.144c1.012,0,1.494.454,1.5,1.4.008,1.069-.56,1.665-1.559,1.632a1.6,1.6,0,0,1-1.473-1.66c.016-.94.5-1.378,1.53-1.375" transform="translate(-42.129 -21.19)" fill="#fe9824"/>
        <path id="Trazado_153095" data-name="Trazado 153095" d="M99.1,70.146a1.36,1.36,0,0,1,1.5,1.531,1.607,1.607,0,0,1-1.514,1.5c-.989.008-1.539-.6-1.517-1.664.02-.938.5-1.372,1.526-1.369" transform="translate(-29.475 -21.19)" fill="#d8811f"/>
        <path id="Trazado_153096" data-name="Trazado 153096" d="M100.6,134.755a1.517,1.517,0,1,1-1.556-1.6,1.667,1.667,0,0,1,1.556,1.6" transform="translate(-29.475 -40.225)" fill="#d8811f"/>
        <path id="Trazado_153097" data-name="Trazado 153097" d="M119.544,144.531a8.574,8.574,0,0,1-.856-2.383c.715-.636,1.487-1.04,2.356-.318a1.341,1.341,0,0,1,.558,1.595,1.712,1.712,0,0,1-2.058,1.106" transform="translate(-35.854 -42.729)" fill="#d8811f"/>
        <path id="Trazado_153098" data-name="Trazado 153098" d="M120.031,101.331a1.674,1.674,0,0,1-1.667-1.616,1.621,1.621,0,0,1,3.238-.094,1.68,1.68,0,0,1-1.571,1.71" transform="translate(-35.757 -29.64)" fill="#fe9824"/>
        <path id="Trazado_153099" data-name="Trazado 153099" d="M119.22,122.611l-.209,0a1.35,1.35,0,0,1-.512-1.779,1.662,1.662,0,0,1,1.812-1.038c0,.07,0,.14,0,.21a4.706,4.706,0,0,1-1.094,2.6" transform="translate(-35.754 -36.188)" fill="#fd9924"/>
        <path id="Trazado_153100" data-name="Trazado 153100" d="M119.6,122.7a10.291,10.291,0,0,1,1.094-2.6c.773-.051,1.1.482,1.24,1.085.17.718-.32,1.2-.833,1.607a.976.976,0,0,1-1.5-.089" transform="translate(-36.129 -36.28)" fill="#d8821f"/>
        <path id="Trazado_153101" data-name="Trazado 153101" d="M120.013,76.662a1.665,1.665,0,0,1,1.588,1.56,1.617,1.617,0,0,1-3.224-.049,1.659,1.659,0,0,1,1.637-1.511" transform="translate(-35.76 -23.159)" fill="#fe9824"/>
        <path id="Trazado_153102" data-name="Trazado 153102" d="M100.6,92.529A1.611,1.611,0,0,1,99.142,94.2a1.421,1.421,0,0,1-1.574-1.614A1.665,1.665,0,0,1,99,90.978a1.633,1.633,0,0,1,1.607,1.551" transform="translate(-29.474 -27.484)" fill="#fe9824"/>
        <path id="Trazado_153103" data-name="Trazado 153103" d="M100.6,113.663a1.667,1.667,0,0,1-1.626,1.626,1.622,1.622,0,0,1-1.408-1.6,1.521,1.521,0,1,1,3.035-.029" transform="translate(-29.474 -33.851)" fill="#fe9824"/>
        <path id="Trazado_153104" data-name="Trazado 153104" d="M164.873,124.634c-.787,1.848-2.432,2.233-4.161,2.3a30.231,30.231,0,0,1-3.54-.237c-.366-.029-.9-.349-1,.2-.1.518.521.461.859.587,1.743.648,3.589,1.081,5.048,2.333a3.665,3.665,0,0,1,1.528,2.838c-.644.359-1.094-.433-1.748-.287.229.64,1.05.591,1.3,1.158a2.44,2.44,0,0,1-2.532.741c-2.144-.339-3.745-1.729-5.472-2.875-.255-.169-.5-.708-.876-.283s.168.62.378.84a23.308,23.308,0,0,1,2.766,3.293,4.609,4.609,0,0,1,.74,4.468c-.773,0-.731-.992-1.418-1.149-.114.7.817,1.092.546,1.822-1.917.193-3.07-.986-4.072-2.344a23.958,23.958,0,0,1-2.086-3.76c-.126-.258-.144-.729-.59-.59-.495.154-.166.577-.1.823a16.032,16.032,0,0,1,.841,5.5c-.114,1.2-.368,2.357-1.725,2.815-.476-.4-.126-1.118-.586-1.57-.516.458.126,1.126-.32,1.56-1.4-.261-1.8-1.429-2.187-2.534-.613-1.774-.369-3.626-.324-5.455.008-.313.358-.782-.233-.863-.431-.059-.4.394-.493.7a36.343,36.343,0,0,1-1.1,3.49c-.667,1.615-1.631,2.984-3.619,3.106-.486-.643.48-1.126.178-1.783-.551.239-.487,1.034-1.087,1.2-1.087-.895-.967-2.1-.75-3.266a14.007,14.007,0,0,1,2.238-4.508c.2-.334.8-.723.37-1.092-.535-.454-.742.322-1.034.579-1.318,1.163-2.512,2.489-4.25,3.06a3.305,3.305,0,0,1-2.907-.22c.011-.721.884-.781,1.066-1.427-.669-.195-.984.758-1.642.522-.526-1.321.17-2.3.969-3.194,1.214-1.351,2.919-1.939,4.489-2.734.257-.13.746-.092.634-.564-.141-.6-.59-.223-.881-.169a19.486,19.486,0,0,1-4.686.633,3.958,3.958,0,0,1-3.526-1.923c.418-.51,1.189-.1,1.638-.623-.516-.413-1.225.01-1.7-.442.426-1.547,1.713-1.991,3.046-2.175a16.378,16.378,0,0,1,4.42.089c.393.052,1,.351,1.134-.144.169-.608-.539-.5-.9-.638a17.5,17.5,0,0,1-4.439-1.935c-1.091-.8-2.1-1.694-1.968-3.252.568-.244.97.389,1.553.282-.151-.621-.973-.573-1.133-1.15a2.178,2.178,0,0,1,2.315-.745,9.334,9.334,0,0,1,4.093,1.839c.6.4,1.168.842,1.755,1.258.194.138.4.389.648.113s.006-.456-.159-.64c-.7-.778-1.408-1.542-2.088-2.333a8.012,8.012,0,0,1-1.826-3.265,2.951,2.951,0,0,1,.3-2.485c.764.045.747,1,1.437,1.213.105-.711-.815-1.108-.54-1.829a4.411,4.411,0,0,1,3.646,1.967,23.439,23.439,0,0,1,2.388,4.21c.116.239.118.762.6.558.433-.184.147-.549.082-.845-.285-1.3-.6-2.586-.841-3.89-.364-1.968.3-3.685,1.636-4.411.5.443.132,1.2.624,1.688.482-.518-.151-1.207.288-1.7,1.38.331,2.466,1.946,2.565,3.945.061,1.255-.01,2.517.025,3.774.011.388-.283,1.027.252,1.121.586.1.462-.613.567-.968a29.48,29.48,0,0,1,1.134-3.474c.817-1.865,2.072-2.773,3.619-2.647.2.593-.418,1.049-.251,1.706.595-.233.507-1.11,1.159-1.231,1.031,1.149.827,2.489.473,3.778a15.125,15.125,0,0,1-2.24,4.167c-.174.265-.631.565-.223.916.429.371.623-.168.844-.378a26.254,26.254,0,0,1,2.834-2.5c1.7-1.207,3.284-1.355,4.568-.439-.121.563-.825.669-.988,1.244.652.256,1-.747,1.646-.372a3.88,3.88,0,0,1-1.757,3.708,19.415,19.415,0,0,1-3.871,2.126c-.276.128-.727.174-.574.618.163.476.539.147.827.1,1.9-.288,3.776-1.009,5.746-.483a3.156,3.156,0,0,1,2.448,1.727c-.384.445-1.033.151-1.508.551.475.529,1.279.013,1.7.56" transform="translate(-39.216 -32.348)" fill="#feebc1"/>
        <path id="Trazado_153105" data-name="Trazado 153105" d="M179.057,131.75c-.606-.032-1.216-.044-1.819-.11-.187-.02-.456-.092-.471-.361s.21-.337.406-.429a4.409,4.409,0,0,1,1.7-.211c1.085.2.918.606.188,1.111" transform="translate(-53.399 -39.465)" fill="#fe9c2a"/>
        <path id="Trazado_153106" data-name="Trazado 153106" d="M129.584,133.172a5.537,5.537,0,0,1,1.907.074c.191.068.463.137.417.4-.022.131-.225.26-.376.332a4.729,4.729,0,0,1-1.887.261c-.874-.306-.7-.672-.06-1.065" transform="translate(-38.984 -40.216)" fill="#fe9c2b"/>
        <path id="Trazado_153107" data-name="Trazado 153107" d="M152.44,106.774a3.846,3.846,0,0,1,.133,1.788c-.044.2-.093.454-.325.5-.267.052-.336-.22-.427-.4a4.163,4.163,0,0,1-.292-1.877c.042-.269-.039-.678.292-.72.425-.052.539.353.619.7" transform="translate(-45.775 -32.041)" fill="#fe9b29"/>
        <path id="Trazado_153108" data-name="Trazado 153108" d="M156.719,157.34a3.528,3.528,0,0,1-.111-1.784c.043-.165.117-.345.327-.371s.312.141.4.293a3.753,3.753,0,0,1,.295,1.871c-.024.306,0,.733-.371.75-.421.02-.438-.442-.535-.759" transform="translate(-47.287 -46.879)" fill="#fe9d2c"/>
        <path id="Trazado_153109" data-name="Trazado 153109" d="M165.167,109.878c-.3.523-.593,1.052-.912,1.563a.379.379,0,0,1-.449.209c-.208-.08-.175-.288-.178-.456a3.35,3.35,0,0,1,.63-1.792c.15-.234.324-.51.634-.41.456.147.2.581.275.886" transform="translate(-49.43 -32.919)" fill="#fe9b29"/>
        <path id="Trazado_153110" data-name="Trazado 153110" d="M174.8,118.994c-.433.237-.86.484-1.3.706-.248.124-.579.326-.781.048-.239-.329.071-.6.31-.8.352-.3.741-.549,1.114-.821.322-.091.71-.394.958-.054.231.317-.34.561-.3.926" transform="translate(-52.151 -35.62)" fill="#fe9a27"/>
        <path id="Trazado_153111" data-name="Trazado 153111" d="M140.366,110.486c.308.555.623,1.105.921,1.665.1.187.194.426.006.59-.25.215-.48.021-.637-.161-.411-.479-.794-.984-1.187-1.478-.164-.88.262-.9.9-.616" transform="translate(-42.121 -33.328)" fill="#fe9a27"/>
        <path id="Trazado_153112" data-name="Trazado 153112" d="M176.768,144.289a3.68,3.68,0,0,1-1.666-.923c-.124-.121-.285-.254-.214-.454.1-.271.347-.193.546-.183.667.035,1.144.571,1.781.689.083.283.549.436.313.816-.2.329-.5.121-.76.056" transform="translate(-52.827 -43.111)" fill="#fe9b27"/>
        <path id="Trazado_153113" data-name="Trazado 153113" d="M134.062,145.655a7.484,7.484,0,0,1,.971-.675c.352-.174.826-.642,1.125-.173.275.433-.308.731-.6,1.018a11.444,11.444,0,0,1-.917.734c-.8.083-1.242-.057-.576-.9" transform="translate(-40.401 -43.684)" fill="#fe9927"/>
        <path id="Trazado_153114" data-name="Trazado 153114" d="M168.724,153.782c-.255-.428-.543-.84-.755-1.289-.142-.3-.505-.714-.15-.962.417-.291.686.22.934.484a13.108,13.108,0,0,1,.844,1.1c.181.836-.145,1.014-.872.671" transform="translate(-50.651 -45.75)" fill="#fe9a27"/>
        <path id="Trazado_153115" data-name="Trazado 153115" d="M144.1,154.443c.217-.444.42-.9.657-1.328.136-.247.34-.528.658-.414.352.126.236.5.168.738-.151.539-.378,1.057-.574,1.584-.258.085-.425.491-.7.359-.383-.185-.14-.62-.209-.938" transform="translate(-43.526 -46.121)" fill="#fe9a26"/>
        <path id="Trazado_153116" data-name="Trazado 153116" d="M131.856,120.4a4.458,4.458,0,0,1,1.537.935c.12.13.265.271.173.464s-.3.163-.467.151a4.506,4.506,0,0,1-1.663-.682c-.239-.181-.64-.353-.506-.677.156-.375.608-.133.925-.191" transform="translate(-39.545 -36.363)" fill="#fe9a27"/>
        <path id="Trazado_153117" data-name="Trazado 153117" d="M157.049,131.224a3.547,3.547,0,0,1-3.442,3.584,4.091,4.091,0,0,1-3.878-3.909,3.576,3.576,0,0,1,3.447-3.589,4.084,4.084,0,0,1,3.873,3.915" transform="translate(-45.232 -38.459)" fill="#fec126"/>
        <path id="Trazado_153118" data-name="Trazado 153118" d="M86.141,116.39c.249.188.262.452.013.612a7.084,7.084,0,0,1-3.176,1.133,4.748,4.748,0,0,1-1.827,0c-.028.075.024.116.055.158a8.727,8.727,0,0,1,.8,1.428.439.439,0,0,0,.309.261,6.131,6.131,0,0,0,1.348.22,3.44,3.44,0,0,0,.634,0,.387.387,0,0,1,.261.047.312.312,0,0,1-.262.5,6.6,6.6,0,0,1-2.683-.263.231.231,0,0,0-.038,0c-.08,0-.084-.069-.1-.119a8.71,8.71,0,0,0-1.64-2.628,2.076,2.076,0,0,0-.288-.308,11.183,11.183,0,0,0-2.757-2.271,5.974,5.974,0,0,0-1.034-.475c-.089-.031-.193-.04-.237-.145a5.719,5.719,0,0,1-.46-2.8c.012-.166.045-.331.073-.5.041-.246.189-.322.429-.225a.46.46,0,0,1,.045.3,5.523,5.523,0,0,0,.256,2.316.549.549,0,0,0,.365.385,4.786,4.786,0,0,1,.817.383.343.343,0,0,0,.24.084,3.3,3.3,0,0,0-.022-.362,6.045,6.045,0,0,1,.017-1.305.21.21,0,0,1,.052-.141,6.692,6.692,0,0,1,.7-2.048,3.887,3.887,0,0,1,.66-.96h.232c.052.064.152.087.162.187a.383.383,0,0,1-.1.246,6.292,6.292,0,0,0-.928,2.575,6.01,6.01,0,0,0,.211,2.385.514.514,0,0,0,.182.266,12.039,12.039,0,0,1,1.039.92c.144.149.182.139.259-.061a6.561,6.561,0,0,0,.306-1.115c.02-.106.059-.181.179-.18l.5-.043a.342.342,0,0,1,.037.313,6.467,6.467,0,0,1-.472,1.566c-.082.191-.081.21.115.279a5.918,5.918,0,0,0,1.6.33,6.964,6.964,0,0,0,3.727-.782c.128-.066.238-.186.4-.163" transform="translate(-22.669 -33.13)" fill="#54cd3e"/>
        <path id="Trazado_153119" data-name="Trazado 153119" d="M71.915,116.558a8.29,8.29,0,0,1,2.4,1.314,12.953,12.953,0,0,1,1.538,1.4c.043.046.076.1.114.15a8.249,8.249,0,0,1,1.266,1.835,5.208,5.208,0,0,1,.6,2.392,4.327,4.327,0,0,1-1.029,2.708,8.427,8.427,0,0,1-1.66,1.522,16.944,16.944,0,0,1-2.071,1.272c-.248.13-.25.126-.419-.095a.913.913,0,0,0-1.464-.02,1.833,1.833,0,0,0-.422.979.255.255,0,0,1-.191.236,13.552,13.552,0,0,1-3.352.8,5.86,5.86,0,0,1-.692.048c-.239,0-.262-.028-.263-.269a.9.9,0,0,0-.74-.907.911.911,0,0,0-.93.378,1.254,1.254,0,0,0-.076.112c-.153.239-.185.246-.422.087a.169.169,0,0,0-.07-.03,3.261,3.261,0,0,1-.81-1.653,7.243,7.243,0,0,1,.017-2.587c.054-.356.135-.706.219-1.055.146-.058.3,0,.452-.05a1.561,1.561,0,0,0,1.057-.736.9.9,0,0,0-.66-1.284c-.056-.01-.117,0-.16-.054a16.348,16.348,0,0,1,3.067-5.108,4.58,4.58,0,0,1,2.908-1.557,4.328,4.328,0,0,1,1.529.119c.087.022.174.04.262.059" transform="translate(-19.066 -35.15)" fill="#fe4d4d"/>
        <path id="Trazado_153120" data-name="Trazado 153120" d="M64.432,131.788c.054-.071.093-.006.126.02.15.12.23.068.317-.089a.967.967,0,0,1,1.378-.408.859.859,0,0,1,.466.844c-.015.184.044.217.208.21a12.271,12.271,0,0,0,2.836-.457c.4-.111.785-.237,1.172-.373a.249.249,0,0,0,.191-.238,1.606,1.606,0,0,1,.73-1.229.941.941,0,0,1,1.3.357c.061.093.095.105.189.055A15.7,15.7,0,0,0,76.22,128.6a5.952,5.952,0,0,0,1.487-1.773,4.092,4.092,0,0,0,.359-2.91,7.457,7.457,0,0,0-1.464-2.852,1.187,1.187,0,0,1-.235-.322,6.963,6.963,0,0,1,.918,1.082,8.336,8.336,0,0,1,1.089,2.006,6.939,6.939,0,0,1,.24,1.263,4.318,4.318,0,0,1-1.206,3.228,10.539,10.539,0,0,1-2.426,1.922,18.785,18.785,0,0,1-4.873,2.132,10.392,10.392,0,0,1-2.905.417,5.557,5.557,0,0,1-1.313-.165c0-.084.071-.115.121-.163a.4.4,0,0,0,.011-.609.421.421,0,0,0-.611.078c-.1.124-.135.292-.273.389a2.333,2.333,0,0,1-.7-.533" transform="translate(-19.464 -36.475)" fill="#fe1010"/>
        <path id="Trazado_153121" data-name="Trazado 153121" d="M88.376,118.627a8.9,8.9,0,0,1-1.288.6,6.931,6.931,0,0,1-1.969.4,7.106,7.106,0,0,1-2.3-.27c-.442-.128-.444-.117-.278-.532a6.857,6.857,0,0,0,.424-1.494,1.483,1.483,0,0,0,0-.249,8.533,8.533,0,0,1,3.675.676,11.884,11.884,0,0,1,1.736.867" transform="translate(-24.904 -35.367)" fill="#c6f0a2"/>
        <path id="Trazado_153122" data-name="Trazado 153122" d="M81.5,114.971a.2.2,0,0,0-.124.167,6.268,6.268,0,0,1-.373,1.29c-.051.117-.094.131-.185.035a10.555,10.555,0,0,0-1.211-1.07.282.282,0,0,1-.1-.16,6.511,6.511,0,0,1-.255-1.355A5.971,5.971,0,0,1,80,110.511c.105-.2.233-.384.35-.575a9.628,9.628,0,0,1,1.038,3.125,6.8,6.8,0,0,1,.043,1.671c-.008.075-.086.2.069.239" transform="translate(-23.935 -33.211)" fill="#a3e769"/>
        <path id="Trazado_153123" data-name="Trazado 153123" d="M87.133,123.873a6.337,6.337,0,0,1-2.3-.224.417.417,0,0,1-.3-.26,8.166,8.166,0,0,0-.838-1.49c-.044-.061-.081-.126-.149-.232a6.827,6.827,0,0,0,2,.091c-.1.031-.125.061-.031.149a10.42,10.42,0,0,1,1.615,1.965" transform="translate(-25.24 -36.755)" fill="#a3e769"/>
        <path id="Trazado_153124" data-name="Trazado 153124" d="M77.538,113.26a9.9,9.9,0,0,0-.038,1.057,4.934,4.934,0,0,0,.069.745c.006.038.022.08-.008.11s-.073,0-.1-.016a8,8,0,0,0-1.235-.581.254.254,0,0,1-.14-.175,6.212,6.212,0,0,1-.322-1.34,8.352,8.352,0,0,1,.007-1.459,8.724,8.724,0,0,1,1.674,1.569.852.852,0,0,0,.1.09" transform="translate(-22.877 -33.714)" fill="#a3e769"/>
        <path id="Trazado_153125" data-name="Trazado 153125" d="M64.3,125.938a.918.918,0,0,1,.923.671,1,1,0,0,1-.458,1.143,2.236,2.236,0,0,1-.795.33,1.186,1.186,0,0,1-.36-.022l.124-.511a2.261,2.261,0,0,0,.65-.226.5.5,0,0,0,.29-.4.382.382,0,0,0-.368-.428c-.069-.007-.141.027-.206-.02a3.586,3.586,0,0,1,.2-.536" transform="translate(-19.216 -38.043)" fill="#fe1010"/>
        <path id="Trazado_153126" data-name="Trazado 153126" d="M64.154,126.7a.458.458,0,0,1,.411.817,1.063,1.063,0,0,1-.777.26,8.052,8.052,0,0,1,.366-1.077" transform="translate(-19.27 -38.265)" fill="#fdbf07"/>
        <path id="Trazado_153127" data-name="Trazado 153127" d="M65.442,137.065a3.285,3.285,0,0,1,.222-.4.461.461,0,0,1,.5-.207.418.418,0,0,1,.342.348.441.441,0,0,1-.207.479,1.2,1.2,0,0,0-.1.087,3.018,3.018,0,0,1-.753-.305" transform="translate(-19.769 -41.219)" fill="#fdbf07"/>
        <path id="Trazado_153128" data-name="Trazado 153128" d="M75.291,129.094a.936.936,0,0,1-.438.809,1.927,1.927,0,0,1-.957.363.706.706,0,0,1-.767-.8,1.714,1.714,0,0,1,.608-1.162.963.963,0,0,1,1.554.788" transform="translate(-22.089 -38.695)" fill="#fe1010"/>
        <path id="Trazado_153129" data-name="Trazado 153129" d="M71.738,125.054a1.6,1.6,0,0,1,.7-1.154.965.965,0,0,1,1.294.292.98.98,0,0,1-.221,1.34,1.82,1.82,0,0,1-1,.4c-.489.016-.77-.267-.766-.883" transform="translate(-21.671 -37.387)" fill="#fe1010"/>
        <path id="Trazado_153130" data-name="Trazado 153130" d="M76.318,131.649a1.63,1.63,0,0,1,.747-1.313.966.966,0,0,1,1.181,1.491,1.755,1.755,0,0,1-1.184.572.686.686,0,0,1-.744-.75" transform="translate(-23.054 -39.337)" fill="#fe1010"/>
        <path id="Trazado_153131" data-name="Trazado 153131" d="M69.466,134.245a1.534,1.534,0,0,1,.9-1.361.989.989,0,0,1,1.14.459.975.975,0,0,1-.273,1.256,2.343,2.343,0,0,1-.825.4.724.724,0,0,1-.944-.749" transform="translate(-20.983 -40.131)" fill="#fe1010"/>
        <path id="Trazado_153132" data-name="Trazado 153132" d="M77.264,126.665a.734.734,0,0,1-.731-.838,1.5,1.5,0,0,1,.928-1.3.968.968,0,0,1,1.034,1.516,1.792,1.792,0,0,1-1.231.625" transform="translate(-23.116 -37.604)" fill="#fe1010"/>
        <path id="Trazado_153133" data-name="Trazado 153133" d="M75.459,119.739a1.094,1.094,0,0,1-.752,1.045,1.672,1.672,0,0,1-.643.178.7.7,0,0,1-.763-.782,1.641,1.641,0,0,1,.653-1.216.9.9,0,0,1,1.033-.035.852.852,0,0,1,.472.811" transform="translate(-22.142 -35.883)" fill="#fe1010"/>
        <path id="Trazado_153134" data-name="Trazado 153134" d="M68.59,123.757a.813.813,0,0,1-.295.692,1.718,1.718,0,0,1-1.117.493.724.724,0,0,1-.746-.86,1.908,1.908,0,0,1,.5-1.019.979.979,0,0,1,1.082-.214.949.949,0,0,1,.571.908" transform="translate(-20.065 -37.088)" fill="#fe1010"/>
        <path id="Trazado_153135" data-name="Trazado 153135" d="M65.746,130.588a.971.971,0,0,1,.9.6.988.988,0,0,1-.228,1.05,1.809,1.809,0,0,1-1.037.506.73.73,0,0,1-.837-.909,1.924,1.924,0,0,1,.493-.963.881.881,0,0,1,.706-.286" transform="translate(-19.494 -39.449)" fill="#fe1010"/>
        <path id="Trazado_153136" data-name="Trazado 153136" d="M79.11,121.513a.973.973,0,0,1-.426.807,2.6,2.6,0,0,1-.777.368.729.729,0,0,1-.963-.782,1.6,1.6,0,0,1,.647-1.2.9.9,0,0,1,1.017-.044.953.953,0,0,1,.5.847" transform="translate(-23.242 -36.411)" fill="#fe1010"/>
        <path id="Trazado_153137" data-name="Trazado 153137" d="M68.727,129.327a1.764,1.764,0,0,1,.664-1.355.985.985,0,0,1,1.055-.008A1,1,0,0,1,70.88,129a1.039,1.039,0,0,1-.472.652,2,2,0,0,1-.945.342c-.359.024-.79-.336-.736-.664" transform="translate(-20.76 -38.612)" fill="#fe1010"/>
        <path id="Trazado_153138" data-name="Trazado 153138" d="M80.406,128.9c-.364.036-.763-.466-.53-1.137a2.41,2.41,0,0,1,.341-.643A.977.977,0,0,1,81.69,127a.96.96,0,0,1,0,1.377,1.791,1.791,0,0,1-1.286.519" transform="translate(-24.109 -38.281)" fill="#fe1010"/>
        <path id="Trazado_153139" data-name="Trazado 153139" d="M71.247,120.721a.786.786,0,0,1-.293.665,1.554,1.554,0,0,1-1.288.469.7.7,0,0,1-.577-.821,1.835,1.835,0,0,1,.5-1.022.946.946,0,0,1,1.035-.248.936.936,0,0,1,.626.956" transform="translate(-20.868 -36.16)" fill="#fe1010"/>
        <path id="Trazado_153140" data-name="Trazado 153140" d="M78.169,119.155a.353.353,0,0,1-.3.32.3.3,0,0,1-.317-.292.361.361,0,0,1,.324-.325.3.3,0,0,1,.293.3" transform="translate(-23.428 -35.906)" fill="#fe1111"/>
        <path id="Trazado_153141" data-name="Trazado 153141" d="M68.485,126.375a.334.334,0,0,1-.32.295.309.309,0,0,1-.292-.3.354.354,0,0,1,.327-.318.3.3,0,0,1,.285.322" transform="translate(-20.504 -38.079)" fill="#fe1111"/>
        <path id="Trazado_153142" data-name="Trazado 153142" d="M70.255,126.376a.308.308,0,1,1-.614.044.332.332,0,0,1,.3-.313.284.284,0,0,1,.309.269" transform="translate(-21.038 -38.096)" fill="#fe1010"/>
        <path id="Trazado_153143" data-name="Trazado 153143" d="M67.893,135.309a.3.3,0,0,1-.294-.3.373.373,0,0,1,.34-.31.293.293,0,0,1,.271.3.3.3,0,0,1-.317.31" transform="translate(-20.421 -40.693)" fill="#fe1010"/>
        <path id="Trazado_153144" data-name="Trazado 153144" d="M81.367,125.145a.3.3,0,0,1,.31-.311.284.284,0,0,1,.273.284.312.312,0,0,1-.3.327.292.292,0,0,1-.281-.3" transform="translate(-24.58 -37.711)" fill="#fe1010"/>
        <path id="Trazado_153145" data-name="Trazado 153145" d="M80.679,124.633a.313.313,0,0,1-.3.313.3.3,0,0,1-.285-.319.3.3,0,0,1,.313-.292.258.258,0,0,1,.269.3" transform="translate(-24.196 -37.56)" fill="#fe1010"/>
        <path id="Trazado_153146" data-name="Trazado 153146" d="M74.519,133.081a.3.3,0,0,1-.322.3.29.29,0,0,1-.289-.3.309.309,0,0,1,.323-.287.257.257,0,0,1,.288.28" transform="translate(-22.327 -40.118)" fill="#fe1010"/>
        <path id="Trazado_153147" data-name="Trazado 153147" d="M71.156,130.867a.285.285,0,0,1,.279.281.311.311,0,0,1-.3.33.29.29,0,0,1-.279-.285.3.3,0,0,1,.3-.326" transform="translate(-21.404 -39.534)" fill="#fe1010"/>
        <path id="Trazado_153148" data-name="Trazado 153148" d="M74.773,135.5a1.248,1.248,0,0,1,.367-.706.448.448,0,0,1,.612,0,.441.441,0,0,1,.029.623,1.185,1.185,0,0,1-.755.38c-.193.02-.257-.052-.253-.3" transform="translate(-22.588 -40.684)" fill="#fdbf07"/>
        <path id="Trazado_153149" data-name="Trazado 153149" d="M73.893,129.667a1.269,1.269,0,0,1,.377-.706.452.452,0,0,1,.583.692,1.452,1.452,0,0,1-.668.324c-.207.04-.3-.047-.292-.31" transform="translate(-22.322 -38.926)" fill="#fdbf07"/>
        <path id="Trazado_153150" data-name="Trazado 153150" d="M73.587,124.983a.359.359,0,0,1-.058.219,1.226,1.226,0,0,1-.861.448.189.189,0,0,1-.2-.17,1.193,1.193,0,0,1,.515-.932.447.447,0,0,1,.606.434" transform="translate(-21.889 -37.617)" fill="#fdbf07"/>
        <path id="Trazado_153151" data-name="Trazado 153151" d="M78.178,131.46a.322.322,0,0,1-.076.218,1.182,1.182,0,0,1-.814.417c-.169.013-.255-.081-.232-.25a1.284,1.284,0,0,1,.38-.758.409.409,0,0,1,.482-.072.448.448,0,0,1,.261.445" transform="translate(-23.277 -39.564)" fill="#fdbf07"/>
        <path id="Trazado_153152" data-name="Trazado 153152" d="M70.49,134.708c-.238,0-.327-.088-.295-.275a1.4,1.4,0,0,1,.341-.7.453.453,0,1,1,.613.664,1.327,1.327,0,0,1-.659.311" transform="translate(-21.203 -40.356)" fill="#fdbf07"/>
        <path id="Trazado_153153" data-name="Trazado 153153" d="M77.507,126.356c-.163,0-.246-.07-.232-.233a1.163,1.163,0,0,1,.394-.786.427.427,0,0,1,.605.034.437.437,0,0,1,.01.609,1.236,1.236,0,0,1-.776.375" transform="translate(-23.343 -37.83)" fill="#fdbf07"/>
        <path id="Trazado_153154" data-name="Trazado 153154" d="M74.06,120.364a1.283,1.283,0,0,1,.375-.708.451.451,0,0,1,.59.682,1.437,1.437,0,0,1-.665.329c-.209.043-.306-.041-.3-.3" transform="translate(-22.373 -36.112)" fill="#fdbf07"/>
        <path id="Trazado_153155" data-name="Trazado 153155" d="M67.423,124.641c-.168,0-.241-.079-.228-.239a1.209,1.209,0,0,1,.382-.778.448.448,0,0,1,.648.61,1.206,1.206,0,0,1-.8.407" transform="translate(-20.299 -37.312)" fill="#fdbf07"/>
        <path id="Trazado_153156" data-name="Trazado 153156" d="M65.591,132.442c-.251,0-.332-.083-.3-.272a1.36,1.36,0,0,1,.34-.7.452.452,0,1,1,.611.661,1.261,1.261,0,0,1-.652.311" transform="translate(-19.722 -39.671)" fill="#fdbf07"/>
        <path id="Trazado_153157" data-name="Trazado 153157" d="M77.993,122.413c-.266,0-.35-.092-.313-.29a1.434,1.434,0,0,1,.336-.683.451.451,0,0,1,.684.587,1.3,1.3,0,0,1-.708.385" transform="translate(-23.464 -36.64)" fill="#fdbf07"/>
        <path id="Trazado_153158" data-name="Trazado 153158" d="M70.6,129.051a.321.321,0,0,1-.081.225,1.236,1.236,0,0,1-.819.417.191.191,0,0,1-.223-.226,1.18,1.18,0,0,1,.435-.828.4.4,0,0,1,.452-.024.443.443,0,0,1,.236.435" transform="translate(-20.987 -38.836)" fill="#fdbf07"/>
        <path id="Trazado_153159" data-name="Trazado 153159" d="M81.21,127.484a.426.426,0,0,1,.428.26.4.4,0,0,1-.07.48,1.281,1.281,0,0,1-.739.38c-.184.031-.3-.077-.277-.246a1.379,1.379,0,0,1,.362-.75.347.347,0,0,1,.3-.124" transform="translate(-24.333 -38.511)" fill="#fdbf07"/>
        <path id="Trazado_153160" data-name="Trazado 153160" d="M70.515,120.458a.439.439,0,0,1,.416.258.406.406,0,0,1-.067.483,1.221,1.221,0,0,1-.757.38c-.193.021-.269-.052-.254-.241a1.183,1.183,0,0,1,.41-.8.341.341,0,0,1,.251-.081" transform="translate(-21.101 -36.389)" fill="#fdbf07"/>
        <path id="Trazado_153161" data-name="Trazado 153161" d="M81.266,121.555c.261-.172.515-.094.58.2a7.078,7.078,0,0,1-.013,3.371,4.768,4.768,0,0,1-.62,1.72c.06.052.117.016.168,0A8.793,8.793,0,0,1,83,126.572a.439.439,0,0,0,.351-.2,6.169,6.169,0,0,0,.665-1.194,3.44,3.44,0,0,0,.214-.6.382.382,0,0,1,.133-.23.312.312,0,0,1,.383.418,6.6,6.6,0,0,1-1.159,2.434.152.152,0,0,0-.016.034c-.027.075-.094.056-.147.057a8.707,8.707,0,0,0-3.029.65,2.041,2.041,0,0,0-.387.165,11.171,11.171,0,0,0-3.073,1.823,5.958,5.958,0,0,0-.8.811c-.059.073-.1.168-.218.174a5.72,5.72,0,0,1-2.789-.519c-.151-.067-.3-.153-.441-.235-.218-.123-.239-.288-.066-.48a.454.454,0,0,1,.3.059,5.517,5.517,0,0,0,2.265.545.55.55,0,0,0,.486-.211,4.764,4.764,0,0,1,.638-.64c.062-.05.139-.094.16-.2a2.947,2.947,0,0,0-.348-.1,6,6,0,0,1-1.222-.459.209.209,0,0,1-.115-.1,6.672,6.672,0,0,1-1.69-1.35,3.853,3.853,0,0,1-.678-.946c.026-.073.052-.145.078-.218.078-.027.133-.112.231-.089s.144.105.2.174a6.263,6.263,0,0,0,2.108,1.748,5.977,5.977,0,0,0,2.315.611.507.507,0,0,0,.311-.08,12.052,12.052,0,0,1,1.219-.666c.188-.085.191-.124.029-.264a6.557,6.557,0,0,0-.945-.667c-.093-.055-.149-.116-.109-.229l.13-.484c.119-.047.212.02.306.071a6.5,6.5,0,0,1,1.313.976c.151.142.17.147.3-.013a5.939,5.939,0,0,0,.854-1.394,6.976,6.976,0,0,0,.53-3.772c-.02-.142-.095-.286-.017-.433" transform="translate(-21.875 -36.693)" fill="#54cd3e"/>
        <path id="Trazado_153162" data-name="Trazado 153162" d="M77.044,133.514A8.258,8.258,0,0,1,79.1,131.7a12.8,12.8,0,0,1,1.834-.973,1.793,1.793,0,0,1,.18-.057,8.242,8.242,0,0,1,2.156-.568,5.208,5.208,0,0,1,2.454.247,4.326,4.326,0,0,1,2.2,1.888,8.4,8.4,0,0,1,.868,2.078,17.15,17.15,0,0,1,.493,2.381c.038.277.034.278-.232.362a.913.913,0,0,0-.515,1.371,1.836,1.836,0,0,0,.777.729.256.256,0,0,1,.157.26,13.565,13.565,0,0,1-.388,3.424,5.936,5.936,0,0,1-.19.667c-.085.223-.115.237-.342.156a.9.9,0,0,0-1.1.389.91.91,0,0,0,.04,1,1.246,1.246,0,0,0,.079.11c.174.225.169.258-.061.426a.165.165,0,0,0-.052.055,3.251,3.251,0,0,1-1.829.2,7.241,7.241,0,0,1-2.428-.894c-.316-.172-.618-.366-.918-.565,0-.157.1-.285.107-.442a1.565,1.565,0,0,0-.334-1.244.9.9,0,0,0-1.432.185c-.028.05-.043.109-.1.132a16.324,16.324,0,0,1-3.763-4.619,4.579,4.579,0,0,1-.477-3.264,4.317,4.317,0,0,1,.631-1.4c.05-.074.1-.151.144-.226" transform="translate(-23.003 -39.29)" fill="#fe4d4d"/>
        <path id="Trazado_153163" data-name="Trazado 153163" d="M89.594,145.551c-.049-.075.027-.089.062-.111.163-.1.142-.193.024-.328a.968.968,0,0,1,.084-1.435.858.858,0,0,1,.953-.151c.168.076.218.032.268-.125a12.257,12.257,0,0,0,.533-2.822c.029-.41.044-.819.047-1.229a.248.248,0,0,0-.159-.261,1.607,1.607,0,0,1-.908-1.1.941.941,0,0,1,.777-1.1c.107-.026.131-.054.117-.159a15.752,15.752,0,0,0-.794-3.345,5.955,5.955,0,0,0-1.162-2,4.091,4.091,0,0,0-2.615-1.325,7.452,7.452,0,0,0-3.18.408,1.187,1.187,0,0,1-.383.112,6.958,6.958,0,0,1,1.33-.5,8.285,8.285,0,0,1,2.256-.343,6.942,6.942,0,0,1,1.269.2,4.319,4.319,0,0,1,2.627,2.231,10.55,10.55,0,0,1,.983,2.935,18.776,18.776,0,0,1,.35,5.308,10.405,10.405,0,0,1-.595,2.874,5.573,5.573,0,0,1-.6,1.179c-.079-.029-.084-.106-.112-.17a.4.4,0,0,0-.569-.216.422.422,0,0,0-.134.6c.083.136.23.226.274.389a2.336,2.336,0,0,1-.741.482" transform="translate(-25.151 -39.192)" fill="#fe1010"/>
        <path id="Trazado_153164" data-name="Trazado 153164" d="M83.675,121.594a8.76,8.76,0,0,1,.13,1.417A6.942,6.942,0,0,1,83.511,125a7.114,7.114,0,0,1-1.036,2.072c-.271.373-.26.378-.594.081a6.949,6.949,0,0,0-1.261-.906,1.634,1.634,0,0,0-.234-.085,8.527,8.527,0,0,1,1.884-3.227,11.733,11.733,0,0,1,1.4-1.339" transform="translate(-24.284 -36.732)" fill="#c6f0a2"/>
        <path id="Trazado_153165" data-name="Trazado 153165" d="M77.981,128.514a.2.2,0,0,0,.114.172,6.278,6.278,0,0,1,1.087.789c.093.088.091.133-.03.186a10.53,10.53,0,0,0-1.417.775.279.279,0,0,1-.183.036,6.541,6.541,0,0,1-1.362-.22,5.967,5.967,0,0,1-2.914-1.842c-.15-.166-.281-.35-.422-.525a9.625,9.625,0,0,1,3.292.084,6.81,6.81,0,0,1,1.586.527c.068.033.158.148.248.016" transform="translate(-22.009 -38.603)" fill="#a3e769"/>
        <path id="Trazado_153166" data-name="Trazado 153166" d="M88.106,125.6a6.347,6.347,0,0,1-.99,2.084.417.417,0,0,1-.345.191,8.219,8.219,0,0,0-1.686.283c-.072.021-.146.034-.269.062a6.845,6.845,0,0,0,.765-1.849c0,.1.014.139.129.081a10.433,10.433,0,0,1,2.4-.852" transform="translate(-25.622 -37.943)" fill="#a3e769"/>
        <path id="Trazado_153167" data-name="Trazado 153167" d="M74.87,131.661a9.706,9.706,0,0,0,.982.394,4.959,4.959,0,0,0,.723.188c.038.008.084.006.1.044s-.023.07-.05.093a7.972,7.972,0,0,0-.965.965.254.254,0,0,1-.213.073,6.2,6.2,0,0,1-1.369-.153,8.29,8.29,0,0,1-1.37-.5,8.685,8.685,0,0,1,2.044-1.041.887.887,0,0,0,.117-.061" transform="translate(-21.965 -39.774)" fill="#a3e769"/>
        <path id="Trazado_153168" data-name="Trazado 153168" d="M82.4,148.353a.919.919,0,0,1,.945-.641,1,1,0,0,1,.92.819,2.227,2.227,0,0,1,.04.86,1.2,1.2,0,0,1-.142.331l-.439-.29a2.227,2.227,0,0,0,.008-.687.5.5,0,0,0-.278-.41.384.384,0,0,0-.528.2c-.029.063-.022.142-.088.187a3.508,3.508,0,0,1-.437-.37" transform="translate(-24.891 -44.622)" fill="#fe1010"/>
        <path id="Trazado_153169" data-name="Trazado 153169" d="M83.022,148.95a.458.458,0,0,1,.907-.11,1.063,1.063,0,0,1-.02.819,7.961,7.961,0,0,1-.888-.71" transform="translate(-25.08 -44.849)" fill="#fdbf07"/>
        <path id="Trazado_153170" data-name="Trazado 153170" d="M93.224,151.233a3.175,3.175,0,0,1-.3-.345.459.459,0,0,1-.025-.539.418.418,0,0,1,.443-.2.441.441,0,0,1,.38.358c.011.043.031.084.047.126a3.018,3.018,0,0,1-.542.6" transform="translate(-28.04 -45.356)" fill="#fdbf07"/>
        <path id="Trazado_153171" data-name="Trazado 153171" d="M89.147,138.877a.938.938,0,0,1,.612.687,1.934,1.934,0,0,1,.017,1.023.707.707,0,0,1-1.011.45,1.713,1.713,0,0,1-.886-.967.9.9,0,0,1,.255-1,.908.908,0,0,1,1.014-.195" transform="translate(-26.53 -41.931)" fill="#fe1010"/>
        <path id="Trazado_153172" data-name="Trazado 153172" d="M84.136,140.855a1.6,1.6,0,0,1-.849-1.046A.963.963,0,0,1,84,138.692a.98.98,0,0,1,1.185.663,1.827,1.827,0,0,1,.04,1.08c-.151.465-.512.634-1.091.421" transform="translate(-25.153 -41.888)" fill="#fe1010"/>
        <path id="Trazado_153173" data-name="Trazado 153173" d="M91.9,138.779a1.631,1.631,0,0,1-.981-1.149.967.967,0,0,1,1.8-.605,1.758,1.758,0,0,1,.136,1.309.686.686,0,0,1-.958.445" transform="translate(-27.461 -41.242)" fill="#fe1010"/>
        <path id="Trazado_153174" data-name="Trazado 153174" d="M92.011,146.111a1.533,1.533,0,0,1-.974-1.31.988.988,0,0,1,.818-.916.976.976,0,0,1,1.089.683,2.347,2.347,0,0,1,.091.911.723.723,0,0,1-1.024.633" transform="translate(-27.501 -43.464)" fill="#fe1010"/>
        <path id="Trazado_153175" data-name="Trazado 153175" d="M87.535,136.2a.734.734,0,0,1-1.037.4,1.5,1.5,0,0,1-.91-1.316.969.969,0,0,1,1.778-.458,1.8,1.8,0,0,1,.17,1.371" transform="translate(-25.855 -40.597)" fill="#fe1010"/>
        <path id="Trazado_153176" data-name="Trazado 153176" d="M80.406,135.54a1.093,1.093,0,0,1,.727,1.062,1.657,1.657,0,0,1-.051.665.7.7,0,0,1-1,.452,1.64,1.64,0,0,1-.922-1.027.9.9,0,0,1,.318-.983.851.851,0,0,1,.923-.169" transform="translate(-23.903 -40.924)" fill="#fe1010"/>
        <path id="Trazado_153177" data-name="Trazado 153177" d="M81.851,143.364a.813.813,0,0,1,.55.511,1.715,1.715,0,0,1,.085,1.219.723.723,0,0,1-1.062.409,1.92,1.92,0,0,1-.789-.819.979.979,0,0,1,.167-1.091.947.947,0,0,1,1.048-.229" transform="translate(-24.33 -43.286)" fill="#fe1010"/>
        <path id="Trazado_153178" data-name="Trazado 153178" d="M87.3,148.354a.97.97,0,0,1,.874-.645.987.987,0,0,1,.91.57,1.819,1.819,0,0,1,.124,1.148.731.731,0,0,1-1.14.478,1.927,1.927,0,0,1-.738-.791.88.88,0,0,1-.029-.761" transform="translate(-26.352 -44.621)" fill="#fe1010"/>
        <path id="Trazado_153179" data-name="Trazado 153179" d="M83.313,132.713a.975.975,0,0,1,.615.675,2.594,2.594,0,0,1,.082.856.728.728,0,0,1-1.063.641,1.6,1.6,0,0,1-.905-1.015.906.906,0,0,1,.3-.971.953.953,0,0,1,.967-.185" transform="translate(-24.773 -40.074)" fill="#fe1010"/>
        <path id="Trazado_153180" data-name="Trazado 153180" d="M87.132,145.131a1.765,1.765,0,0,1-1.049-1.084.988.988,0,0,1,.351-1,1.006,1.006,0,0,1,1.119-.059,1.04,1.04,0,0,1,.452.666,1.99,1.99,0,0,1,0,1c-.1.347-.583.63-.874.468" transform="translate(-25.995 -43.154)" fill="#fe1010"/>
        <path id="Trazado_153181" data-name="Trazado 153181" d="M90.7,134c-.09.355-.7.559-1.249.112a2.412,2.412,0,0,1-.489-.539.977.977,0,0,1,.391-1.425.96.96,0,0,1,1.3.466A1.792,1.792,0,0,1,90.7,134" transform="translate(-26.822 -39.889)" fill="#fe1010"/>
        <path id="Trazado_153182" data-name="Trazado 153182" d="M79.9,139.838a.788.788,0,0,1,.526.5,1.553,1.553,0,0,1,0,1.371.7.7,0,0,1-.968.265,1.836,1.836,0,0,1-.792-.814.96.96,0,0,1,1.23-1.322" transform="translate(-23.733 -42.22)" fill="#fe1010"/>
        <path id="Trazado_153183" data-name="Trazado 153183" d="M80.664,133.348a.354.354,0,0,1,.2.391.3.3,0,0,1-.382.2.361.361,0,0,1-.2-.415.3.3,0,0,1,.379-.175" transform="translate(-24.249 -40.279)" fill="#fe1111"/>
        <path id="Trazado_153184" data-name="Trazado 153184" d="M84.167,144.91a.333.333,0,0,1,.168.4.308.308,0,0,1-.379.174.355.355,0,0,1-.188-.416.3.3,0,0,1,.4-.158" transform="translate(-25.301 -43.768)" fill="#fe1111"/>
        <path id="Trazado_153185" data-name="Trazado 153185" d="M84.767,143.241a.308.308,0,1,1-.167.593.333.333,0,0,1-.191-.394.284.284,0,0,1,.358-.2" transform="translate(-25.495 -43.267)" fill="#fe1010"/>
        <path id="Trazado_153186" data-name="Trazado 153186" d="M92.37,148.5a.3.3,0,0,1-.378.176.371.371,0,0,1-.176-.424.293.293,0,0,1,.37-.155.3.3,0,0,1,.184.4" transform="translate(-27.732 -44.734)" fill="#fe1010"/>
        <path id="Trazado_153187" data-name="Trazado 153187" d="M87.38,132.387a.3.3,0,0,1-.187-.4.283.283,0,0,1,.359-.161.312.312,0,0,1,.205.4.292.292,0,0,1-.378.162" transform="translate(-26.333 -39.819)" fill="#fe1010"/>
        <path id="Trazado_153188" data-name="Trazado 153188" d="M86.665,132.857a.312.312,0,0,1,.193.386.293.293,0,0,1-.4.16.3.3,0,0,1-.168-.394.257.257,0,0,1,.371-.152" transform="translate(-26.062 -40.126)" fill="#fe1010"/>
        <path id="Trazado_153189" data-name="Trazado 153189" d="M92.52,141.507a.3.3,0,0,1,.176.405.29.29,0,0,1-.376.171.309.309,0,0,1-.161-.4.257.257,0,0,1,.361-.176" transform="translate(-27.834 -42.741)" fill="#fe1010"/>
        <path id="Trazado_153190" data-name="Trazado 153190" d="M89.294,143.934a.284.284,0,0,1,.359-.167.31.31,0,0,1,.207.4.289.289,0,0,1-.363.166.3.3,0,0,1-.2-.4" transform="translate(-26.969 -43.426)" fill="#fe1010"/>
        <path id="Trazado_153191" data-name="Trazado 153191" d="M94.932,141.905a1.243,1.243,0,0,1-.539-.585.447.447,0,0,1,.209-.575.44.44,0,0,1,.6.185,1.185,1.185,0,0,1,.1.839c-.047.188-.137.223-.367.136" transform="translate(-28.504 -42.503)" fill="#fdbf07"/>
        <path id="Trazado_153192" data-name="Trazado 153192" d="M89.142,140.752a1.271,1.271,0,0,1-.537-.594.457.457,0,0,1,.268-.581.452.452,0,0,1,.582.267,1.459,1.459,0,0,1,.077.738c-.032.208-.146.268-.39.17" transform="translate(-26.758 -42.157)" fill="#fdbf07"/>
        <path id="Trazado_153193" data-name="Trazado 153193" d="M84.636,139.446a.36.36,0,0,1,.186.129,1.225,1.225,0,0,1,.129.962.189.189,0,0,1-.228.133,1.194,1.194,0,0,1-.7-.8.446.446,0,0,1,.614-.422" transform="translate(-25.382 -42.116)" fill="#fdbf07"/>
        <path id="Trazado_153194" data-name="Trazado 153194" d="M92.288,137.329a.32.32,0,0,1,.179.146,1.18,1.18,0,0,1,.115.907.2.2,0,0,1-.313.134,1.283,1.283,0,0,1-.584-.614.408.408,0,0,1,.1-.478.447.447,0,0,1,.507-.095" transform="translate(-27.685 -41.474)" fill="#fdbf07"/>
        <path id="Trazado_153195" data-name="Trazado 153195" d="M92.733,145.661c-.078.225-.194.278-.359.184a1.39,1.39,0,0,1-.542-.558.453.453,0,1,1,.832-.351,1.321,1.321,0,0,1,.069.725" transform="translate(-27.726 -43.69)" fill="#fdbf07"/>
        <path id="Trazado_153196" data-name="Trazado 153196" d="M87.261,136.228c-.051.154-.149.208-.3.14a1.167,1.167,0,0,1-.606-.637.428.428,0,0,1,.237-.558.438.438,0,0,1,.577.2,1.238,1.238,0,0,1,.089.858" transform="translate(-26.078 -40.822)" fill="#fdbf07"/>
        <path id="Trazado_153197" data-name="Trazado 153197" d="M80.452,137.437a1.278,1.278,0,0,1-.539-.594.451.451,0,1,1,.842-.322,1.434,1.434,0,0,1,.084.737c-.031.211-.143.274-.387.179" transform="translate(-24.13 -41.154)" fill="#fdbf07"/>
        <path id="Trazado_153198" data-name="Trazado 153198" d="M82.22,145.131a.194.194,0,0,1-.3.133,1.2,1.2,0,0,1-.6-.623.448.448,0,0,1,.794-.4,1.2,1.2,0,0,1,.11.894" transform="translate(-24.554 -43.511)" fill="#fdbf07"/>
        <path id="Trazado_153199" data-name="Trazado 153199" d="M88.937,149.5c-.082.237-.191.284-.358.189a1.36,1.36,0,0,1-.542-.557.452.452,0,1,1,.829-.351,1.266,1.266,0,0,1,.07.719" transform="translate(-26.579 -44.851)" fill="#fdbf07"/>
        <path id="Trazado_153200" data-name="Trazado 153200" d="M83.717,134.428c-.087.251-.206.3-.379.2a1.434,1.434,0,0,1-.527-.548.45.45,0,0,1,.784-.444,1.3,1.3,0,0,1,.122.8" transform="translate(-24.999 -40.302)" fill="#fdbf07"/>
        <path id="Trazado_153201" data-name="Trazado 153201" d="M87.449,143.643a.322.322,0,0,1,.184.153,1.233,1.233,0,0,1,.114.911.19.19,0,0,1-.288.133,1.184,1.184,0,0,1-.631-.69.4.4,0,0,1,.131-.434.444.444,0,0,1,.489-.074" transform="translate(-26.224 -43.381)" fill="#fdbf07"/>
        <path id="Trazado_153202" data-name="Trazado 153202" d="M89.574,133.124a.426.426,0,0,1,.389-.314.4.4,0,0,1,.428.229,1.279,1.279,0,0,1,.107.824c-.034.184-.175.258-.326.177a1.389,1.389,0,0,1-.583-.595.351.351,0,0,1-.015-.322" transform="translate(-27.05 -40.12)" fill="#fdbf07"/>
        <path id="Trazado_153203" data-name="Trazado 153203" d="M79.333,140.8a.439.439,0,0,1,.384-.3.4.4,0,0,1,.431.228,1.216,1.216,0,0,1,.1.84c-.045.188-.14.235-.313.157a1.183,1.183,0,0,1-.611-.657.343.343,0,0,1,.009-.264" transform="translate(-23.956 -42.442)" fill="#fdbf07"/>
      </g>
    </g>
  </g>
</svg>
