<svg xmlns="http://www.w3.org/2000/svg" xmlns:xlink="http://www.w3.org/1999/xlink" width="144" height="138" viewBox="0 0 144 138">
  <defs>
    <clipPath id="clip-path">
      <rect id="Rect치ngulo_41168" data-name="Rect치ngulo 41168" width="105.803" height="105.821" fill="none"/>
    </clipPath>
  </defs>
  <g id="Grupo_165444" data-name="Grupo 165444" transform="translate(-537 -1287.998)">
    <g id="Grupo_165391" data-name="Grupo 165391" transform="translate(0 -0.002)">
      <rect id="Rect치ngulo_40797" data-name="Rect치ngulo 40797" width="144" height="138" transform="translate(537 1288)" fill="#c4d1ff"/>
    </g>
    <g id="Grupo_165966" data-name="Grupo 165966" transform="translate(556.001 1303.998)">
      <g id="Grupo_165966-2" data-name="Grupo 165966" clip-path="url(#clip-path)">
        <path id="Trazado_153248" data-name="Trazado 153248" d="M59.345,104.735c-.068.451-.473.7-.651,1.086H52.082a11.156,11.156,0,0,0,.492-4.653q0-27.353,0-54.7a8.976,8.976,0,0,0-.485-4.041l4.368-.07c2.756-.482,3.193-.125,3.193,2.639q0,28.919,0,57.836a3.281,3.281,0,0,1-.3,1.907" fill="#01bff9"/>
        <path id="Trazado_153249" data-name="Trazado 153249" d="M52.09,42.423a1.744,1.744,0,0,1,.828,1.647q-.016,30.049,0,60.1a1.879,1.879,0,0,1-.837,1.652H47.33a2.114,2.114,0,0,1-.847-1.093,2.454,2.454,0,0,1-.314-1.488q0-29.316,0-58.629a5.2,5.2,0,0,1,.069-1.028,1.63,1.63,0,0,1,1.926-1.421,9.875,9.875,0,0,1,1.219.193l2.706.069" fill="#01cffa"/>
        <path id="Trazado_153250" data-name="Trazado 153250" d="M105.8,88.878a33.954,33.954,0,0,1-6.4,2.262c-.493-.556-.333-1.24-.333-1.876q-.017-18.316-.008-36.633,0-10.834.005-21.67a2.449,2.449,0,0,1,.339-1.778c1.785-.564,3.574-1.116,5.352-1.7.43-.141.718.076,1.048.237Z" fill="#fcb341"/>
        <path id="Trazado_153251" data-name="Trazado 153251" d="M49.384,42.354a.889.889,0,0,1-.1.013c-2.85-.048-2.775.279-2.773,2.869q.015,29.127,0,58.254c0,.413-.019.825-.03,1.238Q23.773,97.056,1.057,89.4A1.327,1.327,0,0,1,0,87.913Q.028,58.321.016,28.73c0-1.247.285-1.455,1.5-1.083q17.546,5.358,35.089,10.725c3.778,1.154,7.561,2.295,11.338,3.451.488.15.96.353,1.439.531" fill="#fdc065"/>
        <path id="Trazado_153252" data-name="Trazado 153252" d="M99.4,29.183l0,61.958c-4.608,1.577-9.211,3.167-13.824,4.73q-13.111,4.444-26.231,8.864c-.011-.412-.031-.824-.031-1.236q0-29.352,0-58.7c0-2.32-.053-2.374-2.343-2.408-.171,0-.342-.022-.513-.034,3.362-1.051,6.72-2.117,10.088-3.15q8.988-2.759,17.984-5.486c.453.532.308,1.178.308,1.782q.014,18.888.007,37.776c0,.412-.016.826.02,1.238.021.235.01.532.268.624s.439-.15.584-.334c.6-.756,1.2-1.508,1.78-2.277a6.675,6.675,0,0,1,.8-.946,1.59,1.59,0,0,1,2.237-.13c.139.1.251.239.392.335.456.314.745,1.17,1.328.9.458-.209.206-1.008.206-1.544q.015-19.042.016-38.085c0-.633-.175-1.32.332-1.872l6.6-2" fill="#fdc065"/>
        <path id="Trazado_153253" data-name="Trazado 153253" d="M79.364,19.69c.009,6.925-4.63,12.257-10.349,13A12.234,12.234,0,0,1,55.281,23.1c-.162-.806-.451-1-1.191-.959-.892.056-1.79.034-2.685.006-.5-.016-.687.133-.8.661C49.269,28.79,44.925,32.6,38.848,32.8a12.177,12.177,0,1,1,11.68-14.681c.177.807.469.994,1.2.949a19.5,19.5,0,0,1,2.477,0c.673.044.9-.164,1.052-.863a12.134,12.134,0,0,1,18.393-7.879,11.594,11.594,0,0,1,5.715,9.365" fill="#678c97"/>
        <path id="Trazado_153254" data-name="Trazado 153254" d="M92.8,31.186q-.014,8.721-.027,17.442-.007,11.768,0,23.534a5.654,5.654,0,0,1-.013.824c-.088.6-.381.7-.82.276-.468-.456-.918-.931-1.386-1.388-.85-.828-1.5-.813-2.248.111-.8.986-1.545,2.015-2.324,3.017-.281.362-.491.99-1.059.774-.523-.2-.383-.821-.383-1.29q-.006-19.972,0-39.944c0-.276-.005-.551-.008-.826a1.221,1.221,0,0,1,.936-1.183c2.025-.609,4.037-1.26,6.049-1.911.617-.2,1.076-.119,1.289.564" fill="#fd646f"/>
        <path id="Trazado_153255" data-name="Trazado 153255" d="M38.511.021a15.471,15.471,0,0,1,9.048,3.067c.972.707,1.177,1.613.608,2.385-.553.75-1.468.787-2.461.1-4.757-3.293-9.486-3.267-14.257.079a1.609,1.609,0,0,1-2.305-.131A1.5,1.5,0,0,1,29.569,3.2,14.657,14.657,0,0,1,38.511.021" fill="#678d97"/>
        <path id="Trazado_153256" data-name="Trazado 153256" d="M66.793.01a15.947,15.947,0,0,1,9.158,2.956,2.439,2.439,0,0,1,.965,1.047,1.393,1.393,0,0,1-.492,1.741,1.54,1.54,0,0,1-2-.057,13.009,13.009,0,0,0-5.215-2.354A11.191,11.191,0,0,0,60.673,5.17c-.288.187-.551.414-.84.6a1.578,1.578,0,0,1-2.139-.241,1.5,1.5,0,0,1,.274-2.195A14.451,14.451,0,0,1,64.737.248,9.55,9.55,0,0,1,66.793.01" fill="#678d97"/>
        <path id="Trazado_153257" data-name="Trazado 153257" d="M11.2,53.065c0-1.893.027-3.787-.013-5.679-.017-.827.16-1.118,1.055-.841q9.546,2.958,19.114,5.844a1.576,1.576,0,0,1,1.326,1.762c-.054,3.683-.017,7.366-.023,11.05,0,1.272-.469,1.628-1.674,1.222-6.349-2.14-12.689-4.306-19.043-6.434a.982.982,0,0,1-.751-1.141c.025-1.927.009-3.855.009-5.783" fill="#f2eff2"/>
        <path id="Trazado_153258" data-name="Trazado 153258" d="M37.611,29.6c-4.546-.261-8.187-4.536-8.049-9.449.125-4.481,4.167-8.553,8.469-8.53a3.316,3.316,0,0,1,1.487.864A10.613,10.613,0,0,1,43.025,21.6a.651.651,0,0,1-.336.593c-.427-.006-.646-.355-.939-.58a2.933,2.933,0,0,0-3.458-.195A2.715,2.715,0,0,0,37.21,24.5a2.859,2.859,0,0,0,2.887,2.05c.272-.005.547-.094.8.074.066,1.13-.877,1.6-1.524,2.227-.46.447-.962,1.013-1.764.747" fill="#c7eefd"/>
        <path id="Trazado_153259" data-name="Trazado 153259" d="M66.316,29.6c-4.528-.192-8.313-4.426-8.229-9.2.082-4.626,4.059-8.755,8.461-8.784,2.26.894,3.447,2.784,4.325,4.868a10.841,10.841,0,0,1-3.1,12.534c-.411.352-.826.745-1.453.585" fill="#c7eefd"/>
        <path id="Trazado_153260" data-name="Trazado 153260" d="M66.316,29.6a9.1,9.1,0,0,0,4.174-4.627A10.626,10.626,0,0,0,68.14,12.9c-.493-.468-1.06-.859-1.592-1.285a9.019,9.019,0,0,1,9.679,7.9,9.146,9.146,0,0,1-6.984,9.937,4.864,4.864,0,0,1-2.927.15" fill="#98e5fb"/>
        <path id="Trazado_153261" data-name="Trazado 153261" d="M42.6,22.147a8.859,8.859,0,0,0-.5-5.5,11.109,11.109,0,0,0-4.068-5.032A9.047,9.047,0,0,1,40.542,29.5a4.725,4.725,0,0,1-2.932.1,6.6,6.6,0,0,0,3.313-2.9.42.42,0,0,1,.13-.271,3.448,3.448,0,0,0,1.471-4.1c-.017-.058.034-.127.075-.184" fill="#98e5fb"/>
        <path id="Trazado_153262" data-name="Trazado 153262" d="M42.6,22.147c.809,2.143.353,3.381-1.676,4.553a3.152,3.152,0,0,1-3.662-1.381,3.027,3.027,0,0,1,.676-3.984,3.112,3.112,0,0,1,4.052.119,8.782,8.782,0,0,1,.61.693" fill="#537983"/>
        <path id="Trazado_153263" data-name="Trazado 153263" d="M69.019,23.671a3.1,3.1,0,0,1-6.193.159,3.1,3.1,0,0,1,6.193-.159" fill="#537983"/>
      </g>
    </g>
  </g>
</svg>
