<svg xmlns="http://www.w3.org/2000/svg" xmlns:xlink="http://www.w3.org/1999/xlink" width="339.395" height="279.001" viewBox="0 0 339.395 279.001">
  <defs>
    <clipPath id="clip-path">
      <rect id="Rect치ngulo_41293" data-name="Rect치ngulo 41293" width="176.808" height="250.606" fill="none"/>
    </clipPath>
  </defs>
  <g id="Grupo_166050" data-name="Grupo 166050" transform="translate(-1029 -1057)">
    <g id="Grupo_166019" data-name="Grupo 166019" transform="translate(569 -544)">
      <g id="Grupo_166186" data-name="Grupo 166186">
        <rect id="Rect치ngulo_41001" data-name="Rect치ngulo 41001" width="339.395" height="161.069" rx="9" transform="translate(460 1718.933)" fill="#6b8dfc"/>
        <g id="Grupo_166185" data-name="Grupo 166185" transform="translate(556.562 1601)">
          <g id="Grupo_166185-2" data-name="Grupo 166185" clip-path="url(#clip-path)">
            <path id="Trazado_154020" data-name="Trazado 154020" d="M.773,132.135C-.014,114.961-.6,97.79,1.1,80.627,2.325,68.27,4.508,56.136,9.223,44.579,18.229,22.5,34.651,9.119,57.614,3.435A119.061,119.061,0,0,1,75.912.506c.452-.039,1.01.125,1.226-.506h2.937A5.009,5.009,0,0,0,83.5,0h.978a3.742,3.742,0,0,0,2.937,0h1.958a3.739,3.739,0,0,0,2.935,0h.98a5.005,5.005,0,0,0,3.425,0h2.448c3.239,1.057,6.653.906,9.97,1.427,12.018,1.891,23.45,5.349,33.7,12.127,12.508,8.267,20.635,19.888,25.8,33.751,4.149,11.139,6.121,22.755,7.2,34.535,1.532,16.755.991,33.525.182,50.293a121.723,121.723,0,0,1-2.158,15.367,125.7,125.7,0,0,1-14.866,35.948,141.588,141.588,0,0,1-26.262,31.638,140.7,140.7,0,0,1-13.6,10.643c-1.1.717-2.451,2.351-3.557,1.319-1-.931.683-2.234,1.3-3.267,2.449-4.118,4.916-8.222,6.977-12.556,4.089-7.148,7.154-14.762,10.155-22.4a79.92,79.92,0,0,0,4.582-14.118c3.218-8.769,4.9-17.891,6.382-27.075a141.207,141.207,0,0,0,1.369-30.228,125.21,125.21,0,0,0-10.587-44.228c-1.686-3.8-3.777-7.4-5.331-11.255-.268-.638-.733-1.191-.852-1.569.038.533.706,1.131.948,1.912a59.561,59.561,0,0,1,5.3,17.234c.035.242.086.482.118.725.744,5.533.218,6.117-5.107,5.13a192.327,192.327,0,0,0-30.864-3.007c-4.8-.108-9.607-.521-14.409-.367-13.926.444-27.866.788-41.57,3.752-2.673.578-3.3.117-3.237-2.624a50.91,50.91,0,0,1,4.489-18.585A123.523,123.523,0,0,0,34.7,91.245a131.856,131.856,0,0,0-4.371,30.67,166.573,166.573,0,0,0,6.279,48.331,45.729,45.729,0,0,0,1.576,4.363c1.512,7.39,4.544,14.264,7.407,21.176a113.176,113.176,0,0,0,7.344,15.431,120.77,120.77,0,0,0,6.651,11.93c.3.483.64.944.908,1.448.395.74.787,1.608.116,2.264-.808.789-1.481-.124-2.1-.531a144.627,144.627,0,0,1-14.432-11.222c-12.64-11.722-23.317-24.914-31.094-40.419A119.444,119.444,0,0,1,1.468,139.83c-.407-2.55-.148-5.159-.7-7.7" transform="translate(0)" fill="#684b37"/>
            <path id="Trazado_154021" data-name="Trazado 154021" d="M62.271,0a2.814,2.814,0,0,1-3.426,0Z" transform="translate(21.23)" fill="#968274"/>
            <path id="Trazado_154022" data-name="Trazado 154022" d="M71.981,0a2.814,2.814,0,0,1-3.426,0Z" transform="translate(24.733)" fill="#968274"/>
            <path id="Trazado_154023" data-name="Trazado 154023" d="M65.019,0a2.208,2.208,0,0,1-2.937,0Z" transform="translate(22.397)" fill="#775d4b"/>
            <path id="Trazado_154024" data-name="Trazado 154024" d="M68.616,0a2.21,2.21,0,0,1-2.938,0Z" transform="translate(23.695)" fill="#775d4b"/>
            <path id="Trazado_154025" data-name="Trazado 154025" d="M121.626,155.914c.161,1.449-.923,2.392-1.5,3.518-2.109,4.107-4.485,8.064-6.747,12.327,2.863-2.044,5.717-4.1,8.592-6.126,2.785-1.962,5.028-4.609,8-6.33a2.856,2.856,0,0,1,2.3.542c9,4.55,17.441,9.885,24.4,17.3,1.608,1.713,3.273,3.413,4.08,5.711,1.71,3.4,3.765,6.632,4.137,10.6.136,1.445-.259,1.721-1.479,1.607-.4-.037-.814-.005-1.222-.005H9.639c-3,0-3.045-.01-2.5-3.055.6-3.345,2.424-6.182,3.935-9.144,1.866-4.24,5.288-7.224,8.646-10.128a90.331,90.331,0,0,1,19.614-12.774c.789-.385,1.544-.97,2.523-.652,1.728.536,2.664,2.082,3.98,3.142,3.863,3.118,7.854,6.055,11.964,8.891.629-1.041-.188-1.666-.6-2.388q-3.288-5.715-6.586-11.425a2.144,2.144,0,0,1-.407-1.608c1.385-1.5,3.284-1.7,5.133-2.013,1.633.107,2.285,1.453,3.082,2.543q12.845,17.576,25.716,35.138c1.746,2.373,1.813,2.377,3.533.039q12.9-17.536,25.714-35.139c.8-1.089,1.438-2.441,3.07-2.577,1.868.3,3.778.494,5.172,2.008" transform="translate(2.479 55.523)" fill="#f4a760"/>
            <path id="Trazado_154026" data-name="Trazado 154026" d="M44.142,179.792a107.937,107.937,0,0,0-20.567,12.869,77.471,77.471,0,0,0-10.217,10.685c-1.97-9.476-3.409-19.045-4.91-28.6-2.474-15.754-4.633-31.555-6.073-47.437C1.464,117.263.318,107.221.578,97.1c1.012,2.66.953,5.514,1.4,8.268a115.474,115.474,0,0,0,8.582,28.292A137.133,137.133,0,0,0,30.4,165.3c3.471,4.208,7.443,7.943,11.274,11.811.853.863,1.645,1.788,2.466,2.685" transform="translate(0.195 35.032)" fill="#543c2a"/>
            <path id="Trazado_154027" data-name="Trazado 154027" d="M128.119,203.347c-8.088-10.69-18.973-17.727-30.783-23.554,2.893-2.969,5.831-5.895,8.668-8.916a133.771,133.771,0,0,0,20.7-28.718,120.924,120.924,0,0,0,10.923-27.773,98.788,98.788,0,0,0,2.768-15.737c.046-.566-.035-1.154.509-1.547.3,7.834-.57,15.612-1.2,23.394-1.713,21.259-4.712,42.359-8.129,63.4-1.056,6.5-2.3,12.967-3.455,19.448" transform="translate(35.116 35.032)" fill="#543c2a"/>
            <path id="Trazado_154028" data-name="Trazado 154028" d="M122.549,45.12a122.677,122.677,0,0,1,15.273,43.433c3.507,22.672,1.078,44.9-5.065,66.849a12.621,12.621,0,0,1-1.655,3.768c-.758,2.392-2.764,3.765-4.491,5.314-8.084,7.253-17.678,11.428-28.218,13.631A86.7,86.7,0,0,1,69.163,179.2c-1.644-.22-3.3-.819-4.982-.254A23.887,23.887,0,0,0,64.1,189.38c.171.946.586,1.841.117,2.8-1.623.727-1.723-.7-2.219-1.566a60.872,60.872,0,0,1-.133-9.5c.079-2.259-.619-3.311-2.905-3.895A56.568,56.568,0,0,1,32.033,162.16a6.251,6.251,0,0,1-1.991-2.99c-2.13-3.479-2.658-7.494-3.607-11.331a155.58,155.58,0,0,1-4.493-46.747A127.013,127.013,0,0,1,38.218,45.6a4.485,4.485,0,0,1,.559-.791c.088-.1.287-.1.769-.235C36.3,52.651,33.33,60.61,33.628,69.462c17.6-3.945,35.326-4.384,53.08-4.129,13.194.191,26.376.864,39.3,3.861,1.568.363,1.568-.192,1.553-1.354-.091-6.958-2.164-13.451-4.6-19.863-.287-.757-.566-1.516-.849-2.274-.238-.478-.02-.616.433-.582" transform="translate(7.823 16.082)" fill="#fccb9a"/>
            <path id="Trazado_154029" data-name="Trazado 154029" d="M27.826,128.789a56.469,56.469,0,0,0,30.223,17.672c1.734.393,2.346,1.083,2.259,2.894-.17,3.572-.075,7.156-.09,10.736a1.548,1.548,0,0,1-1.261,1.006c-3.718.614-7.269,2.017-11.052,2.311l-5.258,1.565c-2.311-2.409-3.347-5.556-4.654-8.486-2.743-6.156-5.22-12.435-7.688-18.709a32.813,32.813,0,0,1-2.478-8.989" transform="translate(10.039 46.463)" fill="#543c2a"/>
            <path id="Trazado_154030" data-name="Trazado 154030" d="M78.619,146.9a56.81,56.81,0,0,0,32.288-18.115c-.361,3.639-1.757,6.973-3.018,10.35a225.489,225.489,0,0,1-10.256,23.718c-.4.782-.611,1.717-1.544,2.116l-5.259-1.564c-3.787-.288-7.348-1.666-11.063-2.309a2.188,2.188,0,0,1-1.681-1.256c-.543-1.739-.283-3.524-.31-5.295.214-2.557-.807-5.25.844-7.646" transform="translate(28.016 46.463)" fill="#543c2a"/>
            <path id="Trazado_154031" data-name="Trazado 154031" d="M96.2,45.351l-.433.582-1.046-2c1.083.193,1.241.838,1.479,1.415" transform="translate(34.172 15.851)" fill="#fbca9a"/>
            <path id="Trazado_154032" data-name="Trazado 154032" d="M91.169,151.789c4.095,1.147,8.392,1.543,12.316,3.323-1.512.529-2.077,1.957-2.919,3.107C91.892,170.052,83.2,181.873,74.6,193.757c-1.256,1.735-1.872,1.738-3.126,0q-13.31-18.434-26.8-36.741c-.538-.733-.94-1.777-2.093-1.9,3.924-1.774,8.218-2.183,12.315-3.318.478.679.687,1.553,1.467,2.011,2.041,1.935,3.147,4.512,4.593,6.842,3.6,5.806,7.053,11.705,10.575,17.562a5.048,5.048,0,0,0,1.451,1.946c.856-.328,1.09-1.173,1.49-1.842,4.847-8.1,9.694-16.195,14.642-24.23.542-.878.913-1.943,2.057-2.294" transform="translate(15.362 54.761)" fill="#f08a45"/>
            <path id="Trazado_154033" data-name="Trazado 154033" d="M87.776,155.07c-5.97,9.882-11.939,19.764-18.139,30.024-1.972-3.288-3.776-6.322-5.609-9.34-3.462-5.706-6.947-11.4-10.4-17.1a11.325,11.325,0,0,1-.656-1.562c-1.2-3.924-.946-7.966-.936-11.986,0-.78-.271-1.652.483-2.286,1.478-.446,2.674.468,3.871.973a64.3,64.3,0,0,0,27.056,5.2c1.418-.038,2.949-.386,4.214.682l.118,5.4" transform="translate(18.755 51.48)" fill="#fccb9a"/>
            <path id="Trazado_154034" data-name="Trazado 154034" d="M45.582,111.269A10.222,10.222,0,0,1,35.225,121.62c-5.131-.038-10.323-5.07-10.146-10.222.208-6.143,4.756-10.458,10.381-10.349a10.18,10.18,0,0,1,10.121,10.219" transform="translate(9.046 36.455)" fill="#f8a98c"/>
            <path id="Trazado_154035" data-name="Trazado 154035" d="M111.01,111.318a10.022,10.022,0,0,1-10.391,10.24c-6.1-.357-10.013-4.5-10-10.222.014-5.678,3.927-10.271,10.13-10.272a9.89,9.89,0,0,1,10.26,10.255" transform="translate(32.693 36.461)" fill="#f8a98c"/>
            <path id="Trazado_154036" data-name="Trazado 154036" d="M34.327,91.121c.034-4.65,3.345-8.189,7.615-8.141,4.176.048,7.589,3.822,7.522,8.322-.067,4.545-3.522,8.2-7.7,8.154-4.229-.048-7.467-3.678-7.433-8.335" transform="translate(12.384 29.936)" fill="#3b2519"/>
            <path id="Trazado_154037" data-name="Trazado 154037" d="M87.4,85.543c2.681-2.86,6.4-3.394,9.4-1.346a8.859,8.859,0,0,1,2.757,10.679,7.4,7.4,0,0,1-8.807,4.329,8.365,8.365,0,0,1-5.522-8.785,7.25,7.25,0,0,1,1.37-3.848c.414-.127.64.122.848.414.6.995.942,2.388,2.579,1.889a1.227,1.227,0,0,0,.882-1.517c-.407-1.6-1.826-1.238-2.954-1.418a1.138,1.138,0,0,1-.548-.4" transform="translate(30.727 29.931)" fill="#3b2519"/>
            <path id="Trazado_154038" data-name="Trazado 154038" d="M87.517,149.887c-8.546.227-17-.188-25.231-2.886-3.4-1.114-6.574-2.734-9.91-3.973.6-.723,1.285-.352,2.01-.246,8.946,1.3,17.891,1.886,26.894.381a55.085,55.085,0,0,0,6.462-1.061l-.225,7.786" transform="translate(18.895 51.266)" fill="#fbbb85"/>
            <path id="Trazado_154039" data-name="Trazado 154039" d="M32.773,77.97c-.793-.059-1.717.146-2.162-.767a2.373,2.373,0,0,1,.508-2.505c1.911-2.66,4.8-3.6,7.809-4.048a23.178,23.178,0,0,1,11.792.872c2.679,1.014,4.4,3.017,4.338,5.04-.039,1.238-.48,2.259-1.915,1.7-6.435-2.517-12.889-2.353-19.4-.378a4.773,4.773,0,0,1-.974.088" transform="translate(10.976 25.356)" fill="#684b37"/>
            <path id="Trazado_154040" data-name="Trazado 154040" d="M103.353,77.991c-.769-.161-1.822-.308-2.833-.6a25.6,25.6,0,0,0-15.853.449c-.9.31-2.094,1.246-2.89.039a3.161,3.161,0,0,1,.358-3.666,8.452,8.452,0,0,1,5.541-3.278c4.873-.992,9.687-.974,14.34,1.075a7.578,7.578,0,0,1,3.371,2.735,2.318,2.318,0,0,1,.441,2.507c-.483.885-1.4.652-2.474.74" transform="translate(29.344 25.36)" fill="#684b37"/>
            <path id="Trazado_154041" data-name="Trazado 154041" d="M68.074,116.123a12.932,12.932,0,0,1-9.46-2.479,5.755,5.755,0,0,1-2.272-4.127c-.158-1.381.308-1.731,1.659-1.112,3.225,1.478,6.382,2.975,10.145,2.958,3.586-.015,6.577-1.489,9.712-2.761.551-.223,1.125-.951,1.734-.344.482.48.316,1.261.17,1.872-.753,3.153-3.236,4.516-5.977,5.488a13.029,13.029,0,0,1-5.71.5" transform="translate(20.316 38.971)" fill="#fbbb85"/>
            <path id="Trazado_154042" data-name="Trazado 154042" d="M51.254,121.378c6.2,1.636,12.289,3.428,18.78,3.43,6.417,0,12.408-1.9,18.958-3.922a7.836,7.836,0,0,1-4.863,4.261c-6.651,2.35-13.5,2.376-20.427,1.727a31.26,31.26,0,0,1-7.824-1.652,7.444,7.444,0,0,1-4.624-3.844" transform="translate(18.491 43.613)" fill="#f6945e"/>
            <path id="Trazado_154043" data-name="Trazado 154043" d="M65.924,130.951a17.328,17.328,0,0,1-1.806-.55c-.846-.358-2.3-.6-1.878-1.738.467-1.246,1.411.144,2.168.215a6.782,6.782,0,0,0,4.229-.486c.344-.2.788-.423,1.063.02a.912.912,0,0,1-.369,1.256,9.812,9.812,0,0,1-3.407,1.282" transform="translate(22.427 46.232)" fill="#fbbc86"/>
            <path id="Trazado_154044" data-name="Trazado 154044" d="M86.743,86.5c-.174-.2-.35-.408-.524-.614a1.363,1.363,0,0,1,.8-1.029l.706.079a1.2,1.2,0,0,1-.987,1.564" transform="translate(31.105 30.614)" fill="#533b2d"/>
            <path id="Trazado_154045" data-name="Trazado 154045" d="M40.249,87a2.158,2.158,0,0,1-2.41,2.109,2.2,2.2,0,0,1,.335-4.379A2.123,2.123,0,0,1,40.249,87" transform="translate(12.919 30.566)" fill="#f9f9f9"/>
            <path id="Trazado_154046" data-name="Trazado 154046" d="M86.6,86.551q.494-.782.987-1.564c1.334-.4,2.667-.559,3.326,1.007a1.984,1.984,0,0,1-1.233,2.956c-2.044.631-2.788-.652-3.079-2.4" transform="translate(31.244 30.564)" fill="#fbfbfb"/>
          </g>
        </g>
      </g>
    </g>
  </g>
</svg>
