<svg xmlns="http://www.w3.org/2000/svg" xmlns:xlink="http://www.w3.org/1999/xlink" width="144" height="138" viewBox="0 0 144 138">
  <defs>
    <clipPath id="clip-path">
      <rect id="Rect치ngulo_41167" data-name="Rect치ngulo 41167" width="124.827" height="124.84" fill="none"/>
    </clipPath>
  </defs>
  <g id="Grupo_166717" data-name="Grupo 166717" transform="translate(5571 6484)">
    <g id="Grupo_165444" data-name="Grupo 165444" transform="translate(-6108 -7771.998)">
      <g id="Grupo_165391" data-name="Grupo 165391" transform="translate(0 -0.002)">
        <rect id="Rect치ngulo_40797" data-name="Rect치ngulo 40797" width="144" height="138" transform="translate(537 1288)" fill="#c4d1ff"/>
      </g>
    </g>
    <g id="Grupo_165965" data-name="Grupo 165965" transform="translate(-5561 -6477)">
      <g id="Grupo_165964" data-name="Grupo 165964" clip-path="url(#clip-path)">
        <path id="Trazado_153226" data-name="Trazado 153226" d="M90.578,89.592c-.35.486-.19,1.043-.19,1.566-.01,10.711-.03,21.421.021,32.131.006,1.265-.375,1.552-1.585,1.552q-43.621-.048-87.242,0c-1.214,0-1.583-.293-1.581-1.553Q.051,62.451,0,1.617C0,.3.388,0,1.657,0Q45.209.054,88.764,0c1.283,0,1.649.324,1.646,1.628q-.066,25.679-.018,51.357c0,.553-.233,1.176.282,1.653-.221.817-.979.669-1.533.793-3.923.877-7.839,1.793-11.777,2.6a2.307,2.307,0,0,0-2.073,2.189c-.39,2.334-.894,4.65-1.37,6.97a3.7,3.7,0,0,1-.542,1.636,2.5,2.5,0,0,1-1.208.536,3.957,3.957,0,0,0-.292,7.562c.407.168.877.233,1.124.67.127.582-.28.918-.621,1.257-1.717,1.7-3.369,3.474-5.162,5.1-1.53,2.037-2.791,4.248-4.151,6.394-.693,1.094-1.383,2.189-2.153,3.232-1.662,1.756-3.453,3.383-5.01,5.246-1.138,1.363-2.379,1.368-3.739.2-.51-.437-.946-.955-1.461-1.389a1.679,1.679,0,0,0-2.421.015c-.509.44-.952.949-1.448,1.4a2.064,2.064,0,0,1-3.1.118.934.934,0,0,1-.2-.176C42.1,96.92,40.224,96.9,38.078,97.681c-.854.312-2.083.836-2.664.177-.635-.721.458-1.568.84-2.326,1.906-3.788,1.222-7.207-1.935-10.732a8.4,8.4,0,0,0-10.49-1.49,10.844,10.844,0,0,0-5.673,7.453c-.74,3.387.572,6.043,3.216,8.124a23.474,23.474,0,0,0,2.135,1.4c.976.609.982.907-.032,1.461a69.059,69.059,0,0,1-6.936,3.243c-.545.223-1.419.226-1.43,1.009a4.881,4.881,0,0,0,.857,2.647c.3.469.821.1,1.226-.049A51.7,51.7,0,0,0,28.6,102.931c1.5-1.016,3.042-.94,4.6-1a32.4,32.4,0,0,0,5.588-.691,2.571,2.571,0,0,1,2.262.478c2.412,1.827,4.955,2.479,7.684.628a1.441,1.441,0,0,1,1.756.044c3.081,2.134,6.677,1.063,8.837-1.859A41.6,41.6,0,0,1,63.531,96.2c3.139-2.25,6.545-4.089,9.722-6.28,2.479-2.306,4.782-4.789,7.229-7.127.374-.357.7-1.164,1.487-.562a34.209,34.209,0,0,1,.165,5.493,4.844,4.844,0,0,0,.694,2.691,3.925,3.925,0,0,0,6.581-.09c.3-.431.346-1.2,1.173-1.079a.2.2,0,0,1,0,.349" transform="translate(0 0)" fill="#f3f3e5"/>
        <path id="Trazado_153227" data-name="Trazado 153227" d="M91.987,93.074c-1.82-.439-3.316-1.246-3.911-3.209-.831-2.739,1.052-5.3,4.106-5.529a2.315,2.315,0,0,1,1.638-.4c1.595-.017,3.191.027,4.783-.065,3.967.238,7.938.063,11.908.1a2.525,2.525,0,0,0,1.8-1.031q5.254-5.256,10.518-10.5c.444-.439.783-1.145,1.617-.961,3.841,4.475,7.7,8.934,11.508,13.439a3.545,3.545,0,0,0,3.4,1.6c1.055-.143,2.15.041,3.217-.046,1.032-.085,1.273.3,1.266,1.289-.045,5.64-.022,11.279-.022,16.919,0,2.82-.047,5.641.024,8.459.027,1.1-.2,1.3-1.228.86-2.3-.986-4.669-1.8-6.951-2.824a11,11,0,0,0-5.319-1.031c-1.159.076-2.344-.113-3.486.043-1.845.252-2.938-.549-3.952-2.008a47.884,47.884,0,0,0-4.883-6.342c-.568-.171-.8-.693-1.117-1.11-1.462-1.92-2.978-3.807-4.318-5.81a3.135,3.135,0,0,0-3.483-1.6c-1.461.011-2.92.021-4.379.092-3.643-.117-7.286-.014-10.928-.052a3.022,3.022,0,0,1-1.811-.285" transform="translate(-19.017 -15.462)" fill="#fed681"/>
        <path id="Trazado_153228" data-name="Trazado 153228" d="M127.484,68.539c-3.9,3.862-7.834,7.695-11.686,11.607a3.864,3.864,0,0,1-3.143,1.285c-3.17-.094-6.345-.02-9.518-.043-.405,0-.9.243-1.216-.258.135-.561.6-.873.97-1.245q6.087-6.106,12.186-12.2a8.227,8.227,0,0,1,1.56-1.245l8.517-8.495c.53-.219.846.154,1.154.456q2.437,2.384,4.821,4.818c.309.315.645.643.461,1.164l-4.108,4.158" transform="translate(-22.056 -12.525)" fill="#195c84"/>
        <path id="Trazado_153229" data-name="Trazado 153229" d="M114.788,68.8c-4.842,4.962-9.72,9.887-14.717,14.692-1.453.577-2.967.151-4.449.26-.747.055-1.5.009-2.251.009.631-3.145,1.289-6.284,1.876-9.437A1.739,1.739,0,0,1,96.818,72.7c4.7-1,9.376-2.1,14.062-3.172l3.909-.723" transform="translate(-20.206 -14.889)" fill="#f8ba4b"/>
        <path id="Trazado_153230" data-name="Trazado 153230" d="M115.231,98.887a2.9,2.9,0,0,1,3.232,1.441c1.708,2.533,3.578,4.959,5.382,7.428a19.877,19.877,0,0,1-.1,2.66,4.339,4.339,0,0,1-3.735,3.492c-1.941.226-3.583-.824-4.589-2.934a1.245,1.245,0,0,0,.05-.233,2.206,2.206,0,0,1-.66-1.687c-.033-2.935-.025-5.87,0-8.8a1.837,1.837,0,0,1,.426-1.364" transform="translate(-24.84 -21.384)" fill="#f3a934"/>
        <path id="Trazado_153231" data-name="Trazado 153231" d="M138.008,62.631c-1.393-2.026-3.37-3.5-5.02-5.28-.411-.444-.761-1-1.417-1.158,1.98-2,3.981-3.98,5.926-6.012.557-.582.877-.48,1.381.042,1.648,1.7,3.317,3.388,5.031,5.026.617.59.541.95-.028,1.505-1.982,1.933-3.918,3.914-5.871,5.877" transform="translate(-28.473 -10.774)" fill="#50b3f7"/>
        <path id="Trazado_153232" data-name="Trazado 153232" d="M54.04,36.835a12.908,12.908,0,1,1,12.99-12.822A12.972,12.972,0,0,1,54.04,36.835" transform="translate(-8.92 -2.385)" fill="#f88b95"/>
        <path id="Trazado_153233" data-name="Trazado 153233" d="M67.874,118.881c-1.672,1.922-3.535,3.662-5.216,5.585a5.956,5.956,0,0,1-8.151.881,1.249,1.249,0,0,0-1.718,0c-2.439,1.683-5.342,1.406-7.77-.72a1.88,1.88,0,0,0-1.916-.487,28.754,28.754,0,0,1-7.989.782,2.646,2.646,0,0,0-1.6.566,63.553,63.553,0,0,1-12.48,6.194c-.871.322-1.28.308-1.6-.725-.89-2.906-.94-2.873,1.851-4.016a53.956,53.956,0,0,0,6.909-3.3c-7.573-3.8-7.52-9.433-4.964-13.743,2.937-4.953,8.854-6.86,13.377-4.337,5.154,2.876,6.251,8.381,2.894,14.811a17.82,17.82,0,0,0,4.428-.892,2.409,2.409,0,0,1,2.964.895,5.411,5.411,0,0,0,.54.6c1.555,1.573,2.464,1.549,3.879-.1.263-.306.486-.65.774-.928a2.076,2.076,0,0,1,3.005-.007,6.5,6.5,0,0,1,.445.5c2.1,2.415,2.844,2.348,4.923-.049,1.374-1.584,2.963-2.981,4.456-4.462a5.115,5.115,0,0,1,2.956,2.956" transform="translate(-4.089 -22.603)" fill="#2d75ba"/>
        <path id="Trazado_153234" data-name="Trazado 153234" d="M54.326,52.2c10.308,0,20.616.019,30.924-.027,1.089,0,1.321.317,1.3,1.338C86.5,56.5,86.539,56.5,83.57,56.5q-30.05,0-60.1.031c-1.258,0-1.544-.352-1.508-1.544.086-2.788.026-2.79,2.785-2.79H54.326" transform="translate(-4.752 -11.289)" fill="#394d5c"/>
        <path id="Trazado_153235" data-name="Trazado 153235" d="M30.438,63.181c6.005,0,12.011.017,18.016-.019.915-.005,1.332.093,1.309,1.2-.063,3.125,0,3.126-3.125,3.126-11.428,0-22.857-.019-34.285.029-1.146,0-1.4-.31-1.373-1.408.075-2.922.021-2.924,2.919-2.924H30.438" transform="translate(-2.376 -13.669)" fill="#394d5c"/>
        <path id="Trazado_153236" data-name="Trazado 153236" d="M57.714,78.465c-6.005,0-12.011-.025-18.016.024-.994.009-1.279-.225-1.262-1.245.054-3.081.005-3.082,3.03-3.082,11.473,0,22.946.014,34.419-.024,1.04,0,1.352.241,1.328,1.313-.067,3.014-.014,3.014-2.962,3.014H57.714" transform="translate(-8.318 -16.044)" fill="#394d5c"/>
        <path id="Trazado_153237" data-name="Trazado 153237" d="M80.91,67.48c-4.616,0-9.232-.03-13.848.024-.969.011-1.175-.283-1.166-1.2.031-3.126-.006-3.126,3.116-3.126,8.56,0,17.12.024,25.68-.03,1.146-.007,1.4.311,1.373,1.409-.075,2.922-.021,2.924-2.919,2.924H80.91" transform="translate(-14.26 -13.666)" fill="#394d5c"/>
        <path id="Trazado_153238" data-name="Trazado 153238" d="M26.053,89.448c-4.571,0-9.143-.026-13.714.02-.982.009-1.391-.148-1.363-1.28.076-3.042.015-3.043,3.071-3.043,8.56,0,17.121.019,25.681-.024,1.058-.005,1.466.161,1.431,1.35-.09,2.975-.023,2.977-3.005,2.977h-12.1" transform="translate(-2.375 -18.421)" fill="#394d5c"/>
        <path id="Trazado_153239" data-name="Trazado 153239" d="M91.437,98.994c3.612-.292,7.232-.071,10.847-.113.668-.008,1.407-.284,2.021.253a20.622,20.622,0,0,1-4.105,4.17l-8.392,8.276c-.518.151-.842-.183-1.155-.491q-2.417-2.378-4.794-4.8c-.31-.314-.636-.641-.482-1.157l6.06-6.143" transform="translate(-18.468 -21.382)" fill="#195c85"/>
        <path id="Trazado_153240" data-name="Trazado 153240" d="M104.3,103.312a35.282,35.282,0,0,1,4.105-4.171c1.492-.558,3.036-.157,4.554-.249,0,3.34.009,6.681-.025,10.021a16.178,16.178,0,0,0,.262,1.834c-.629-.081-.533.508-.7.809a4.3,4.3,0,0,1-8.149-1.941c-.034-2.1-.034-4.2-.049-6.3" transform="translate(-22.572 -21.389)" fill="#f8ba4b"/>
        <path id="Trazado_153241" data-name="Trazado 153241" d="M64.684,85.148c2.823,0,5.647.023,8.47-.015.8-.011,1.173.09,1.171,1.057-.007,3.261.038,3.261-3.255,3.261-4.975,0-9.95-.034-14.924.027-1.038.013-1.251-.294-1.235-1.272.048-3.058.005-3.058,3.05-3.058h6.722" transform="translate(-11.883 -18.423)" fill="#394d5c"/>
        <path id="Trazado_153242" data-name="Trazado 153242" d="M19.679,74.163c2.51,0,5.02.039,7.529-.021.856-.021,1.028.256,1.033,1.06.017,3.264.046,3.264-3.245,3.264-4.257,0-8.515-.021-12.773.018-.862.008-1.251-.1-1.241-1.124.03-3.2-.019-3.2,3.185-3.2h5.513" transform="translate(-2.377 -16.044)" fill="#394d5c"/>
        <path id="Trazado_153243" data-name="Trazado 153243" d="M83.709,106.887a48.094,48.094,0,0,0,6.433,6.442l-9.558,6.081a25.857,25.857,0,0,0-2.955-2.955l6.08-9.568" transform="translate(-16.799 -23.131)" fill="#50b3f7"/>
        <path id="Trazado_153244" data-name="Trazado 153244" d="M92.741,149.86c-2.109,0-2.109,0-2.108-2.631,0-1.674,0-1.674,2.663-1.672,1.641,0,1.641,0,1.639,2.7,0,1.606,0,1.606-2.195,1.606" transform="translate(-19.613 -31.499)" fill="#2d75ba"/>
        <path id="Trazado_153245" data-name="Trazado 153245" d="M103.711,149.86c-2.1,0-2.1,0-2.1-2.507,0-1.8,0-1.8,2.674-1.8,1.63,0,1.63,0,1.628,2.708,0,1.595,0,1.595-2.206,1.595" transform="translate(-21.99 -31.499)" fill="#2d75ba"/>
        <path id="Trazado_153246" data-name="Trazado 153246" d="M144.661,101.128c-1.772.5-2.971-.588-4.068-2.231-1.432-2.143-3.088-4.136-4.651-6.191-.5-.65-.783-1.1.186-1.769,2.886-1.986,2.12-2.357,4.34.623,1.09,1.464,2.217,2.9,3.268,4.392a2.105,2.105,0,0,0,2.224.866c1.291-.179,1.816.192,1.746,1.64-.13,2.665-.034,2.67-3.044,2.67" transform="translate(-29.32 -19.344)" fill="#f8ba4b"/>
        <path id="Trazado_153247" data-name="Trazado 153247" d="M39.39,115.674c-.381,2.326-2.007,4.215-4.084,5.8a.724.724,0,0,1-.5.126,9.205,9.205,0,0,1-6.2-3.366,3.33,3.33,0,0,1-.523-2.939,7.024,7.024,0,0,1,5.444-5.344c2.6-.626,5.846,2.39,5.863,5.722" transform="translate(-6.049 -23.776)" fill="#f3f3e5"/>
      </g>
    </g>
  </g>
</svg>
