<svg xmlns="http://www.w3.org/2000/svg" width="85" height="101" viewBox="0 0 85 101">
  <g id="Grupo_166773" data-name="Grupo 166773" transform="translate(4605 6655)">
    <rect id="Rectángulo_41023" data-name="Rectángulo 41023" width="85" height="101" rx="10" transform="translate(-4605 -6655)" fill="#3c3fa7"/>
    <path id="Trazado_156218" data-name="Trazado 156218" d="M19.535,6.539l-.187,1a3.042,3.042,0,0,1,2.461-1.148,2.028,2.028,0,0,1,1.766.875,3.526,3.526,0,0,1,.414,2.359L23.1,15h-2.2L21.8,9.6a2.528,2.528,0,0,0,.016-.555.9.9,0,0,0-1-.82,1.9,1.9,0,0,0-1.555.8L18.207,15H16l1.469-8.453ZM29.66,6.391a3.39,3.39,0,0,1,1.926.574A3.234,3.234,0,0,1,32.773,8.5a4.762,4.762,0,0,1,.27,2.176,5.143,5.143,0,0,1-1.4,3.262,3.96,3.96,0,0,1-3.02,1.215,3.38,3.38,0,0,1-1.906-.566,3.222,3.222,0,0,1-1.187-1.527,4.657,4.657,0,0,1-.273-2.156,5.3,5.3,0,0,1,1.422-3.328A3.878,3.878,0,0,1,29.66,6.391Zm-2.227,5.315a1.95,1.95,0,0,0,.352,1.182,1.168,1.168,0,0,0,.945.449,1.712,1.712,0,0,0,1.594-.932,4.647,4.647,0,0,0,.539-2.531,2.122,2.122,0,0,0-.363-1.2,1.149,1.149,0,0,0-.949-.464,1.715,1.715,0,0,0-1.574.924A4.6,4.6,0,0,0,27.434,11.706ZM38.145,4.469l-.367,2.078h1.406L38.895,8.2H37.488l-.719,4.234a1.077,1.077,0,0,0,.063.609q.109.211.531.227.125.008.672-.039l-.156,1.727a3.706,3.706,0,0,1-1.266.18A1.985,1.985,0,0,1,35,14.461a2.456,2.456,0,0,1-.437-1.8L35.285,8.2h-1.2l.289-1.656h1.2l.359-2.078ZM19.188,30.539l-.2,1.07a3.333,3.333,0,0,1,2.594-1.219,2.1,2.1,0,0,1,1.766.828,3.217,3.217,0,0,1,.422,2.242L22.844,39H21.43l.93-5.557a2.962,2.962,0,0,0,.008-.71,1.168,1.168,0,0,0-1.289-1.116,2.661,2.661,0,0,0-2.234,1.358L17.8,39H16.383l1.469-8.453Zm10.531-.148a3.047,3.047,0,0,1,1.82.578A3.285,3.285,0,0,1,32.66,32.52a4.8,4.8,0,0,1,.246,2.16l-.016.172a5.685,5.685,0,0,1-.734,2.23,4.309,4.309,0,0,1-1.516,1.551,3.7,3.7,0,0,1-2.039.523,3.052,3.052,0,0,1-1.816-.578,3.21,3.21,0,0,1-1.113-1.531,4.931,4.931,0,0,1-.25-2.133,5.76,5.76,0,0,1,.711-2.359,4.409,4.409,0,0,1,1.527-1.621A3.652,3.652,0,0,1,29.719,30.391Zm-2.875,4.531a4.8,4.8,0,0,0,0,1.023,2.507,2.507,0,0,0,.551,1.469,1.653,1.653,0,0,0,1.262.57,2.253,2.253,0,0,0,1.3-.348,2.919,2.919,0,0,0,1-1.121,4.721,4.721,0,0,0,.523-1.664,7.494,7.494,0,0,0,.023-1.211,2.6,2.6,0,0,0-.57-1.492,1.69,1.69,0,0,0-1.266-.578,2.3,2.3,0,0,0-1.859.859,4.245,4.245,0,0,0-.945,2.313ZM37.688,28.5l-.359,2.047h1.539l-.2,1.117H37.141l-.883,5.258a1.833,1.833,0,0,0-.008.375.6.6,0,0,0,.664.609,4.05,4.05,0,0,0,.688-.078l-.109,1.18a3.847,3.847,0,0,1-1.031.141,1.476,1.476,0,0,1-1.266-.621,2.4,2.4,0,0,1-.328-1.629l.859-5.234H34.234l.2-1.117h1.492l.359-2.047Z" transform="translate(-4590 -6626)" fill="#fff"/>
    <path id="Trazado_156219" data-name="Trazado 156219" d="M0,0H60.807" transform="translate(-4592.307 -6604.5)" fill="none" stroke="#fff" stroke-width="1"/>
  </g>
</svg>
