<svg xmlns="http://www.w3.org/2000/svg" width="505" height="223" viewBox="0 0 505 223">
  <g id="Grupo_165968" data-name="Grupo 165968" transform="translate(-915 -5964)">
    <rect id="Rectángulo_41024" data-name="Rectángulo 41024" width="505" height="223" rx="7" transform="translate(915 5964)" fill="#ffdfe0"/>
    <g id="Grupo_165967" data-name="Grupo 165967" transform="translate(6535 11694.752)">
      <path id="Trazado_153264" data-name="Trazado 153264" d="M249.5,152.857s1.518,9.32-.934,11.773c-4.679,4.682-19.05,6.86-11.469,26.885h66.122s3.272-7.972-4.114-12.607c0,0-2.571-1.8-.994-7.2s-2.353-9.249-7.175-15.022l-9.484-15.414Z" transform="translate(-5698.65 -5825.256)" fill="#f46eab"/>
      <path id="Trazado_153265" data-name="Trazado 153265" d="M257.405,145.206c0,11.906,10.113,21.557,22.588,21.557s22.588-9.651,22.588-21.557-10.113-21.557-22.588-21.557-22.588,9.651-22.588,21.557" transform="translate(-5706.655 -5818.982)" fill="#f46eab"/>
      <path id="Trazado_153266" data-name="Trazado 153266" d="M315.137,168.153a5.845,5.845,0,1,0,3.9-7.289,5.845,5.845,0,0,0-3.9,7.289" transform="translate(-5727.122 -5832.143)" fill="#f29b5f"/>
      <path id="Trazado_153267" data-name="Trazado 153267" d="M293.99,183.427l-.563,25.917-18.774-1.05,3.831-38.144Z" transform="translate(-5712.796 -5835.54)" fill="#ffaf78"/>
      <path id="Trazado_153268" data-name="Trazado 153268" d="M299.5,197.333s-8.374-.863-8.735-10.4l8.886,4.7Z" transform="translate(-5718.534 -5841.517)" fill="#2f1a2a"/>
      <path id="Trazado_153269" data-name="Trazado 153269" d="M305.123,134.636a8.537,8.537,0,0,1,2.791,4.882c1.119,5.592,3.314,15.444,1.335,21.38-2.574,7.719-8.842,13.193-18.972,11.267,0,0-12.139-1.225-14.636-16.6-3.978-24.5,16.857-31.6,29.482-20.928" transform="translate(-5712.971 -5821.179)" fill="#ffaf78"/>
      <path id="Trazado_153270" data-name="Trazado 153270" d="M322.691,162.388a1.337,1.337,0,1,0,.954-1.634,1.338,1.338,0,0,0-.954,1.634" transform="translate(-5729.886 -5832.178)" fill="#2f1a2a"/>
      <path id="Trazado_153271" data-name="Trazado 153271" d="M305.138,162.74a1.337,1.337,0,1,0,.954-1.634,1.338,1.338,0,0,0-.954,1.634" transform="translate(-5723.636 -5832.304)" fill="#2f1a2a"/>
      <path id="Trazado_153272" data-name="Trazado 153272" d="M318.169,168.3l.933,2.541a.611.611,0,0,1-.438.721l-1.442.267" transform="translate(-5727.955 -5834.882)" fill="none" stroke="#2f1a2a" stroke-linecap="round" stroke-linejoin="round" stroke-width="0.893"/>
      <path id="Trazado_153273" data-name="Trazado 153273" d="M301,146.922s4.147-.734,4.368,1.173c0,0,.117,1.294-3.508,1.855s-5.075.468-5.522-.719,2.7-2.133,4.663-2.308" transform="translate(-5720.502 -5827.219)" fill="#2f1a2a"/>
      <path id="Trazado_153274" data-name="Trazado 153274" d="M324.79,147.009s-3.612-.788-4.131,1.037c0,0-.326,1.248,2.849,1.85,2.312.438,3.174.04,3.409-.8.279-.992-.761-1.907-2.127-2.091" transform="translate(-5729.175 -5827.239)" fill="#2f1a2a"/>
      <path id="Trazado_153275" data-name="Trazado 153275" d="M316.124,176.981l-10.258.117a4.7,4.7,0,0,0,4.962,4.432,5.253,5.253,0,0,0,5.3-4.549" transform="translate(-5723.911 -5837.972)" fill="#221914"/>
      <path id="Trazado_153276" data-name="Trazado 153276" d="M305.1,185.636a3.614,3.614,0,1,0,1.777-4.792,3.614,3.614,0,0,0-1.777,4.792" transform="translate(-5723.521 -5839.23)" fill="#e275c2"/>
      <path id="Trazado_153277" data-name="Trazado 153277" d="M316.434,177.792l-11.644-.017v-1.968l11.644-.427Z" transform="translate(-5723.528 -5837.401)" fill="#fff"/>
      <path id="Trazado_153278" data-name="Trazado 153278" d="M305.867,177.1a4.7,4.7,0,0,0,4.961,4.433,5.253,5.253,0,0,0,5.3-4.55Z" transform="translate(-5723.911 -5837.972)" fill="none"/>
      <path id="Trazado_153279" data-name="Trazado 153279" d="M306.88,158.709a7.1,7.1,0,1,1-7.014-7.335,7.178,7.178,0,0,1,7.014,7.335" transform="translate(-5719.217 -5828.854)" fill="#fff"/>
      <rect id="Rectángulo_41170" data-name="Rectángulo 41170" width="14.197" height="14.508" transform="translate(-5426.534 -5677.48)" fill="none"/>
      <path id="Trazado_153280" data-name="Trazado 153280" d="M332.645,159.075c-.044,3.847-2.8,6.934-6.163,6.9s-6.047-3.189-6-7.036,2.8-6.934,6.163-6.9,6.047,3.189,6,7.036" transform="translate(-5729.114 -5829.091)" fill="#fff"/>
      <rect id="Rectángulo_41171" data-name="Rectángulo 41171" width="12.167" height="13.932" transform="translate(-5408.635 -5677.052)" fill="none"/>
      <path id="Trazado_153281" data-name="Trazado 153281" d="M306.88,158.709a7.1,7.1,0,1,1-7.014-7.335A7.178,7.178,0,0,1,306.88,158.709Z" transform="translate(-5719.217 -5828.854)" fill="none" stroke="#fff" stroke-linecap="round" stroke-linejoin="round" stroke-width="1.261"/>
      <path id="Trazado_153282" data-name="Trazado 153282" d="M332.645,159.075c-.044,3.847-2.8,6.934-6.163,6.9s-6.047-3.189-6-7.036,2.8-6.934,6.163-6.9S332.69,155.229,332.645,159.075Z" transform="translate(-5729.114 -5829.091)" fill="none" stroke="#fff" stroke-linecap="round" stroke-linejoin="round" stroke-width="1.261"/>
      <path id="Trazado_153283" data-name="Trazado 153283" d="M314.73,162.322a2.549,2.549,0,0,1,3.7-.011" transform="translate(-5727.067 -5832.467)" fill="none" stroke="#fff" stroke-linecap="round" stroke-linejoin="round" stroke-width="1.261"/>
      <line id="Línea_477" data-name="Línea 477" x1="6.344" y2="2.413" transform="translate(-5432.877 -5670.308)" fill="none" stroke="#fff" stroke-linecap="round" stroke-linejoin="round" stroke-width="1.261"/>
      <path id="Trazado_153284" data-name="Trazado 153284" d="M276.526,151.654c.965.4,18.654-10.241,9.679-21.826,0,0-13.455,3.158-12.68,21.817Z" transform="translate(-5712.383 -5821.182)" fill="#f46eab"/>
      <path id="Trazado_153285" data-name="Trazado 153285" d="M291.571,131.886s11.906-2.9,18.836,3.031c0,0-3.357-10.72-19.732-11.268l-6.162,13.709Z" transform="translate(-5716.307 -5818.982)" fill="#f46eab"/>
      <path id="Trazado_153286" data-name="Trazado 153286" d="M251.608,118.631a9.074,9.074,0,1,0,9.074-9.074,9.074,9.074,0,0,0-9.074,9.074" transform="translate(-5704.591 -5813.964)" fill="#f46eab"/>
      <path id="Trazado_153287" data-name="Trazado 153287" d="M280.993,154.263l-1.157,12.232-4.218-11.2Z" transform="translate(-5713.141 -5829.882)" fill="#f46eab"/>
      <path id="Trazado_153288" data-name="Trazado 153288" d="M262.236,170.1a7.093,7.093,0,1,0,4.731-8.846,7.093,7.093,0,0,0-4.731,8.846" transform="translate(-5708.266 -5832.262)" fill="#ffaf78"/>
      <path id="Trazado_153289" data-name="Trazado 153289" d="M267.979,168.649a5.2,5.2,0,0,1,6.584,4.229" transform="translate(-5710.42 -5834.942)" fill="none" stroke="#2f1a2a" stroke-linecap="round" stroke-linejoin="round" stroke-width="0.893"/>
      <path id="Trazado_153290" data-name="Trazado 153290" d="M323.306,236.087s10.135,6.008,10.135,21.619v44.747a11.329,11.329,0,0,1-22.658.077l-.4-58.955Z" transform="translate(-5725.519 -5859.018)" fill="#a8527e"/>
      <path id="Trazado_153291" data-name="Trazado 153291" d="M360.881,294.1l4.862,6.3-37.285,33.172a9.17,9.17,0,1,1-9.432-15.64Z" transform="translate(-5726.757 -5879.673)" fill="#ffaf78"/>
      <path id="Trazado_153292" data-name="Trazado 153292" d="M386.883,286.594l2.655-4.609a17.71,17.71,0,0,1,5.639-5.972l4.087-2.678a1.877,1.877,0,0,1,2.748.816,2.4,2.4,0,0,1-.484,2.646L397.9,280.5l19.524-5.593a1.453,1.453,0,0,1,1.862,1.138l.1.579a1.454,1.454,0,0,1-.9,1.6l-11.458,3.675,13.745-2.4a1.453,1.453,0,0,1,1.782,1.25l.048.43a1.453,1.453,0,0,1-1.1,1.577l-14.228,2.921,11.8-.239a1.453,1.453,0,0,1,1.5,1.7l-.032.184a1.454,1.454,0,0,1-1.245,1.192L407,290.109l7.539,0a1.454,1.454,0,0,1,.134,2.9l-27.458,2.542Z" transform="translate(-5752.759 -5872.171)" fill="#ffaf78"/>
      <path id="Trazado_153293" data-name="Trazado 153293" d="M245.651,225.048s-18.515,4.024-25.606,21.267-2.167,76.5-2.167,76.5,35.218,16.566,65.958-2.1l5.939-89.117s-6.874-4.94-12.479-8.115Z" transform="translate(-5691.988 -5854.531)" fill="#a8527e"/>
      <path id="Trazado_153294" data-name="Trazado 153294" d="M276.12,217.361s-5.187,1.159-14.19,5.506a184.326,184.326,0,0,1,24.1,23.038s8.276-8.5,7.545-24.6l-10.511-3.943Z" transform="translate(-5708.266 -5852.35)" fill="#ffaf78"/>
      <line id="Línea_478" data-name="Línea 478" x1="2.554" y2="38.327" transform="translate(-5406.161 -5602.017)" fill="none" stroke="#873964" stroke-linecap="round" stroke-linejoin="round" stroke-width="1.7"/>
      <path id="Trazado_153297" data-name="Trazado 153297" d="M137.6,321.421s23.5,4.735,42.714-4.64l6.4-80.647-22.854-23.254-22.613-4.8-12.454,45.341Z" transform="translate(-5660.859 -5849.043)" fill="#fafbfd"/>
      <path id="Trazado_153298" data-name="Trazado 153298" d="M131.083,208.075s3.271,80.513,2.413,120.37l-17.4-2.066a17.96,17.96,0,0,1-15.836-18.357l1.8-61.993,1.974-26.8a6.093,6.093,0,0,1,3.8-5.211,91.28,91.28,0,0,1,23.253-5.944" transform="translate(-5650.696 -5849.043)" fill="#fca428"/>
      <path id="Trazado_153299" data-name="Trazado 153299" d="M35.781,345.452l-6.225,10.92a73,73,0,0,0-23.5,6.085,1.523,1.523,0,0,0,1.09,2.833l8.4-2.538A133.041,133.041,0,0,0,.958,369.808a1.9,1.9,0,0,0,1.633,3.425l13.575-5.272-12.677,7a2.1,2.1,0,0,0,1.93,3.734l12.275-5.925-9.567,6.723a2.432,2.432,0,0,0,2.744,4.017c3.765-2.485,13.25-8.292,19.408-8.128a29.446,29.446,0,0,1-4.061,4.835,2.744,2.744,0,0,0,3.44,4.256l7.231-5A7.117,7.117,0,0,0,39.7,375.51l2.4-8.734,10.484-9.918Z" transform="translate(-5615 -5897.96)" fill="#fc9753"/>
      <path id="Trazado_153300" data-name="Trazado 153300" d="M88.388,216.739s-3.357-.192-14.352,13.9c-11.318,14.51-30.986,79.282-30.986,79.282l19.757,15,33.541-73.009Z" transform="translate(-5630.329 -5852.128)" fill="#fca428"/>
      <line id="Línea_479" data-name="Línea 479" y1="25.429" x2="11.683" transform="translate(-5549.342 -5592.203)" fill="none" stroke="#d3750d" stroke-linecap="round" stroke-linejoin="round" stroke-width="1.748"/>
      <path id="Trazado_153301" data-name="Trazado 153301" d="M209.775,218.531s17.322,5.4,23.841,69.3l-14.071,9.97Z" transform="translate(-5689.695 -5852.767)" fill="#fca428"/>
      <path id="Trazado_153302" data-name="Trazado 153302" d="M299.456,275.578s-6.322-4.869-.441-13.017l8.82-12.718a2.287,2.287,0,0,1,3.99,2.155l-2.72,7.528L325.834,248.2a2.478,2.478,0,0,1,3.022,3.928l-10.773,8.36.21.66,12.365-7.045a2.388,2.388,0,0,1,2,4.338l-11.941,7.649.174.839,11.651-4.988c2.885-1.384,3.784-.031,4.068,1.037.265,1-1.9,2.354-2.883,2.679l-12.052,6.093.131.779,11.177-4.29a1.721,1.721,0,0,1,.54,3.4l-12.752,5.432s-11.645,7.949-16.926,3.464Z" transform="translate(-5720.58 -5863.158)" fill="#fc9753"/>
      <path id="Trazado_153303" data-name="Trazado 153303" d="M315.62,266.058s3.681,6.572-.813,12.421" transform="translate(-5727.094 -5869.69)" fill="none" stroke="#e07832" stroke-linecap="round" stroke-linejoin="round" stroke-width="1.6"/>
      <path id="Trazado_153304" data-name="Trazado 153304" d="M273.307,288.21l19.192-8.094,8.3,11.636-21.515,11.579Z" transform="translate(-5712.317 -5874.695)" fill="#fc9753"/>
      <path id="Trazado_153305" data-name="Trazado 153305" d="M210.16,300.048l48.517-19.618,9.709,21.025-42.345,27.972a14.744,14.744,0,0,1-19.67-4.163c-5.093-7.256-4.04-21.057,3.789-25.216" transform="translate(-5687.372 -5874.807)" fill="#fca428"/>
      <line id="Línea_480" data-name="Línea 480" x1="5.891" y2="2.382" transform="translate(-5464.553 -5582.26)" fill="none" stroke="#d3750d" stroke-linecap="round" stroke-linejoin="round" stroke-width="1.748"/>
      <path id="Trazado_153306" data-name="Trazado 153306" d="M183.251,213.685s5.609,6.578,7.9,34.974,3.063,76.945,3.063,76.945a20.761,20.761,0,0,0,16.6-20.971c-.639-21.026-2.153-55.29-5.461-69.781l-3.082-15.73c-.17-.744-.894-2.981-.894-2.981s-2.484-2.263-17.913-5.8Z" transform="translate(-5680.251 -5849.849)" fill="#fca428"/>
      <path id="Trazado_153307" data-name="Trazado 153307" d="M223.418,321.291s.149-40.321-4.676-69.641" transform="translate(-5692.888 -5864.56)" fill="none" stroke="#d3750d" stroke-linecap="round" stroke-linejoin="round" stroke-width="1.748"/>
      <path id="Trazado_153308" data-name="Trazado 153308" d="M144.517,164.872s-5.528,8.935,2.589,8.667a8.943,8.943,0,0,0,2.624-8.031Z" transform="translate(-5665.804 -5833.66)" fill="#793625"/>
      <path id="Trazado_153309" data-name="Trazado 153309" d="M199.018,117.232a14.249,14.249,0,0,0-1.687-5.322c-11.688-21.6-37.1-4.361-37.1-4.361l4.451,15.137c10.6-6.41,23.2-9.027,34.34-5.454" transform="translate(-5672.053 -5810.928)" fill="#793625"/>
      <path id="Trazado_153310" data-name="Trazado 153310" d="M167.139,130.166l4.967,19.639s31.079-8.925,29.373-25.093c-11.138-3.573-22.165-5.092-34.34,5.454" transform="translate(-5674.514 -5818.408)" fill="#6b2a1d"/>
      <path id="Trazado_153311" data-name="Trazado 153311" d="M190.007,157.163a6.372,6.372,0,1,0,4.558-7.773,6.372,6.372,0,0,0-4.558,7.773" transform="translate(-5682.583 -5828.073)" fill="#e8803a"/>
      <path id="Trazado_153312" data-name="Trazado 153312" d="M169.712,173.445l1.175,18.931a8.782,8.782,0,0,1-15.146,5.48l-7.608-8.048,2.263-33.033Z" transform="translate(-5667.746 -5830.777)" fill="#fc9753"/>
      <path id="Trazado_153313" data-name="Trazado 153313" d="M175.186,189.969s-12.387-.531-13.311-13.021l12.73,3.681Z" transform="translate(-5672.639 -5837.96)" fill="#2f1a2a"/>
      <path id="Trazado_153314" data-name="Trazado 153314" d="M182.162,115.427s4.061,25.841.885,33.979-10.231,13.119-21.153,10.7c0,0-12.74-.989-15.049-19.487-3.477-27.848,22.74-40.339,35.316-25.2" transform="translate(-5667.176 -5813.739)" fill="#fc9753"/>
      <path id="Trazado_153315" data-name="Trazado 153315" d="M198.552,151.142a1.458,1.458,0,1,0,1.108-1.739,1.457,1.457,0,0,0-1.108,1.739" transform="translate(-5685.687 -5828.14)" fill="#171717"/>
      <path id="Trazado_153316" data-name="Trazado 153316" d="M179.416,150.775a1.458,1.458,0,1,0,1.108-1.739,1.458,1.458,0,0,0-1.108,1.739" transform="translate(-5678.873 -5828.009)" fill="#171717"/>
      <path id="Trazado_153317" data-name="Trazado 153317" d="M193.9,153.776l1.4,4.983-2.359,1.175" transform="translate(-5683.701 -5829.709)" fill="none" stroke="#2f1a2a" stroke-linecap="round" stroke-linejoin="round" stroke-width="0.983"/>
      <path id="Trazado_153318" data-name="Trazado 153318" d="M175.124,135.465s4.53-1.1,4.853,1.354c0,0,.184,1.663-3.779,2.519s-5.562.788-6.1-.727,2.881-2.848,5.03-3.146" transform="translate(-5675.545 -5823.102)" fill="#221914"/>
      <path id="Trazado_153319" data-name="Trazado 153319" d="M201.667,134.958s-4.218-1.044-4.673,1.355c0,0-.278,1.642,3.422,2.441,2.694.581,3.655.06,3.86-1.041.243-1.3-1.024-2.511-2.61-2.756" transform="translate(-5685.143 -5822.928)" fill="#221914"/>
      <path id="Trazado_153320" data-name="Trazado 153320" d="M182.058,166.655l8.453.622s-.084,3.3-4.393,3.012-4.06-3.634-4.06-3.634" transform="translate(-5679.825 -5834.295)" fill="#fff"/>
      <path id="Trazado_153321" data-name="Trazado 153321" d="M148.961,138.915l1.243-9.406s7.451-2.37,9.231-16.448c0,0-3.127-6.477-12.678-3.514s-17.842,9.87-7.37,27.21Z" transform="translate(-5662.899 -5813.684)" fill="#793625"/>
      <path id="Trazado_153322" data-name="Trazado 153322" d="M133.568,156.288a7.732,7.732,0,1,0,5.531-9.434,7.733,7.733,0,0,0-5.531,9.434" transform="translate(-5662.47 -5827.155)" fill="#fc9753"/>
      <path id="Trazado_153323" data-name="Trazado 153323" d="M140.051,154.823s5.728-1.405,6.99,4.888" transform="translate(-5664.869 -5830.034)" fill="none" stroke="#2f1a2a" stroke-linecap="round" stroke-linejoin="round" stroke-width="0.983"/>
      <path id="Trazado_153324" data-name="Trazado 153324" d="M169.153,112.322a29.392,29.392,0,0,1,18.812,4.446l-1.977-8.359L173.617,106.7l-11.8,4.444,2.912.276Z" transform="translate(-5672.617 -5812.946)" fill="#793625"/>
      <path id="Trazado_153325" data-name="Trazado 153325" d="M201.809,120.774s14.246.035,14.3,10.415a.179.179,0,0,0,.355.032c.668-3.856-.049-14.409-15.773-13.178Z" transform="translate(-5686.462 -5816.95)" fill="#793625"/>
      <path id="Trazado_153328" data-name="Trazado 153328" d="M498.505,141.393s2.718,16.9,8.807,26.395a3.935,3.935,0,0,1-1.229,5.349c-6.875,4.443-26.219,12.868-50.926,3.221a3.945,3.945,0,0,1-2.437-4.129c.506-4.569,4.472-13.541,10.3-21.588Z" transform="translate(-5776.193 -5825.3)" fill="#f76b2c"/>
      <path id="Trazado_153329" data-name="Trazado 153329" d="M464.45,161.665a5.711,5.711,0,1,1-3.81-7.122,5.712,5.712,0,0,1,3.81,7.122" transform="translate(-5776.398 -5829.894)" fill="#f4ab7a"/>
      <path id="Trazado_153330" data-name="Trazado 153330" d="M480.984,176.589l.551,23.125,18.016-2.1-3.415-34Z" transform="translate(-5786.266 -5833.213)" fill="#ffb98a"/>
      <path id="Trazado_153331" data-name="Trazado 153331" d="M481.236,191.709s8.193-.413,8.546-9.729l-8.683,4.594Z" transform="translate(-5786.307 -5839.752)" fill="#2f1a2a"/>
      <path id="Trazado_153332" data-name="Trazado 153332" d="M461.7,128.916a8.341,8.341,0,0,0-2.728,4.77c-1.093,5.464-3.238,16.829-1.3,22.629,2.514,7.543,8.64,12.313,18.538,10.43,0,0,11.472-.522,14.3-17.38,4.015-23.916-16.47-30.876-28.807-20.45" transform="translate(-5777.685 -5819.184)" fill="#ffb98a"/>
      <path id="Trazado_153333" data-name="Trazado 153333" d="M461.942,157.782a1.307,1.307,0,1,1-.932-1.6,1.307,1.307,0,0,1,.932,1.6" transform="translate(-5778.57 -5830.552)" fill="#2f1a2a"/>
      <path id="Trazado_153334" data-name="Trazado 153334" d="M479.093,158.126a1.307,1.307,0,1,1-.932-1.6,1.307,1.307,0,0,1,.932,1.6" transform="translate(-5784.677 -5830.674)" fill="#2f1a2a"/>
      <path id="Trazado_153335" data-name="Trazado 153335" d="M466.088,163.21l-1.292,3.111,2.094.564" transform="translate(-5780.501 -5833.068)" fill="none" stroke="#2f1a2a" stroke-linecap="round" stroke-linejoin="round" stroke-width="0.873"/>
      <path id="Trazado_153336" data-name="Trazado 153336" d="M478.214,146.612s-4.052-.717-4.267,1.146c0,0-.115,1.264,3.428,1.813s4.959.458,5.4-.7-2.64-2.084-4.556-2.256" transform="translate(-5783.76 -5827.11)" fill="#f76b2c"/>
      <path id="Trazado_153337" data-name="Trazado 153337" d="M457.927,146.7s3.53-.77,4.036,1.014c0,0,.319,1.22-2.784,1.807-2.259.428-3.1.039-3.331-.778-.272-.968.744-1.863,2.079-2.043" transform="translate(-5777.3 -5827.129)" fill="#f76b2c"/>
      <path id="Trazado_153338" data-name="Trazado 153338" d="M466.581,172.639l7.277.12s.017,2.931-3.692,2.894-3.585-3.014-3.585-3.014" transform="translate(-5781.137 -5836.426)" fill="#fff"/>
      <path id="Trazado_153339" data-name="Trazado 153339" d="M487.4,145.356s-5.99-5.3-4.8-15.611a99.862,99.862,0,0,1-22.249.908s2.694-15.94,25.658-12.117c23.862,3.972,15.06,31.567,6.193,39.648Z" transform="translate(-5778.919 -5816.951)" fill="#f76b2c"/>
      <path id="Trazado_153340" data-name="Trazado 153340" d="M512.777,162.774a6.931,6.931,0,1,1-4.623-8.643,6.931,6.931,0,0,1,4.623,8.643" transform="translate(-5792.756 -5829.729)" fill="#ffb98a"/>
      <path id="Trazado_153341" data-name="Trazado 153341" d="M511.277,161.358a5.078,5.078,0,0,0-6.433,4.133" transform="translate(-5794.762 -5832.348)" fill="none" stroke="#2f1a2a" stroke-linecap="round" stroke-linejoin="round" stroke-width="0.873"/>
      <path id="Trazado_153342" data-name="Trazado 153342" d="M474.274,118.041c.032-.03-19.958.341-22.459,16.222l31.632.709,1.894-10.573Z" transform="translate(-5775.879 -5816.984)" fill="#f76b2c"/>
      <path id="Trazado_153343" data-name="Trazado 153343" d="M441.221,280.027l2.2,29.923L431.074,347.6h13.7l21.365-20.638-2.295-45.014Z" transform="translate(-5768.494 -5874.664)" fill="#ffb98a"/>
      <path id="Trazado_153344" data-name="Trazado 153344" d="M448.71,224.182s-15.617,11.282-11.019,47.473h25.556Z" transform="translate(-5770.549 -5854.779)" fill="#fff"/>
      <path id="Trazado_153345" data-name="Trazado 153345" d="M460.412,325.752l-8.6,37.819c32.084,9.064,61.911,0,61.911,0s-1.671-14.524-12.822-38.077Z" transform="translate(-5775.88 -5890.854)" fill="#2f1a2a"/>
      <path id="Trazado_153346" data-name="Trazado 153346" d="M498.389,213.584,467,214.109a42.826,42.826,0,0,0-11.728,6.3l.984,26.47,5.387,39.026,40.492-.258L510.1,225Z" transform="translate(-5777.11 -5851.005)" fill="#fff"/>
      <path id="Trazado_153347" data-name="Trazado 153347" d="M487.736,206.49a65.485,65.485,0,0,1,17.116,4.568s-2.62,10.186-17.68,10.231a19.5,19.5,0,0,1-7.382-1.319c-3.13-1.266-6.79-3.751-6.328-8.387Z" transform="translate(-5783.574 -5848.479)" fill="#ffb98a"/>
      <line id="Línea_481" data-name="Línea 481" x1="2.92" y1="21.36" transform="translate(-5321.486 -5605.128)" fill="none" stroke="#dbdbdb" stroke-linecap="round" stroke-linejoin="round" stroke-width="1.748"/>
      <path id="Trazado_153348" data-name="Trazado 153348" d="M545.955,307.31c.071-.8-1.432-37.571-1.432-37.571H527.157l-.271,27.4Z" transform="translate(-5802.61 -5871)" fill="#ffb98a"/>
      <path id="Trazado_153349" data-name="Trazado 153349" d="M522.232,213.584s21.557,5.981,24.182,19.374,8.969,35.742,8.969,35.742l-33.151.1,2.493-44.98Z" transform="translate(-5800.953 -5851.005)" fill="#fff"/>
      <line id="Línea_482" data-name="Línea 482" x1="2.804" y1="19.89" transform="translate(-5280.323 -5599.768)" fill="none" stroke="#dbdbdb" stroke-linecap="round" stroke-linejoin="round" stroke-width="1.748"/>
      <path id="Trazado_153350" data-name="Trazado 153350" d="M482.719,269.781l-4.131,8.016,35.218,35.359a9.17,9.17,0,1,0,10.358-15.043l-4.94-3.377-8.675-5.93Z" transform="translate(-5785.413 -5871.016)" fill="#ffb98a"/>
      <path id="Trazado_153351" data-name="Trazado 153351" d="M473.446,259.083l-.018-5.318a17.711,17.711,0,0,0-1.932-7.983l-2.219-4.354a1.877,1.877,0,0,0-2.791-.655,2.4,2.4,0,0,0-.893,2.537l1.312,5.018L454.21,234.556a1.922,1.922,0,0,0-2.567.146,1.746,1.746,0,0,0-.169,2.03l6.811,8.285-9.317-8.215a1.739,1.739,0,0,0-2.405.273,1.869,1.869,0,0,0,.179,2.212l10.77,9.481-10.124-6.062a1.454,1.454,0,0,0-2.143.735l-.063.176a1.452,1.452,0,0,0,.49,1.652l9.874,7.473L449,249a1.454,1.454,0,0,0-1.556,2.452L468.71,266.7Z" transform="translate(-5773.487 -5858.322)" fill="#ffb98a"/>
      <line id="Línea_483" data-name="Línea 483" x2="10.034" y2="6.859" transform="translate(-5274.211 -5581.764)" fill="none" stroke="#f2a36d" stroke-linecap="round" stroke-linejoin="round" stroke-width="1.6"/>
      <path id="Trazado_153356" data-name="Trazado 153356" d="M619.978,150.627a6.56,6.56,0,1,1-4.953-7.843,6.559,6.559,0,0,1,4.953,7.843" transform="translate(-5831.143 -5825.737)" fill="#8c4d41"/>
      <path id="Trazado_153357" data-name="Trazado 153357" d="M637.557,167.622l.59,25.792,23.49-1.682-4.772-41.916Z" transform="translate(-5842.017 -5828.299)" fill="#9b5e4e"/>
      <path id="Trazado_153358" data-name="Trazado 153358" d="M637.8,185.222s12.768-1.06,13.385-16.328l-13.625,6.255Z" transform="translate(-5842.017 -5835.092)" fill="#221914"/>
      <path id="Trazado_153359" data-name="Trazado 153359" d="M623.621,108.259a17.073,17.073,0,0,0-10.511,14.208c-.756,7.255-1.428,18.5.827,24.008,3.487,8.515,10.89,13.508,22.086,10.472,0,0,13.108-1.6,15-21.36,2.242-23.385-14.173-32.55-27.406-27.326" transform="translate(-5833.057 -5812.995)" fill="#9b5e4e"/>
      <path id="Trazado_153360" data-name="Trazado 153360" d="M617.852,145.621a1.5,1.5,0,1,1-1.2-1.751,1.5,1.5,0,0,1,1.2,1.751" transform="translate(-5833.941 -5826.173)" fill="#221914"/>
      <path id="Trazado_153361" data-name="Trazado 153361" d="M637.528,144.6a1.5,1.5,0,1,1-1.2-1.751,1.5,1.5,0,0,1,1.2,1.751" transform="translate(-5840.947 -5825.808)" fill="#221914"/>
      <path id="Trazado_153362" data-name="Trazado 153362" d="M623.216,148.164l-1.064,4.325a.832.832,0,0,0,.65,1.015l1.586.307" transform="translate(-5836.523 -5827.711)" fill="none" stroke="#2f1a2a" stroke-linecap="round" stroke-linejoin="round" stroke-width="1.012"/>
      <path id="Trazado_153363" data-name="Trazado 153363" d="M638.545,130.345s-4.7-.975-4.948,1.557c0,0-.133,1.718,3.974,2.464s5.749.622,6.256-.955-3.061-2.833-5.282-3.066" transform="translate(-5840.607 -5821.3)" fill="#221914"/>
      <path id="Trazado_153364" data-name="Trazado 153364" d="M612.731,130.642s4.3-1.218,4.853,1.236c0,0,.343,1.68-3.438,2.627-2.752.69-3.759.185-4.007-.939-.295-1.334.968-2.619,2.592-2.924" transform="translate(-5832.239 -5821.364)" fill="#221914"/>
      <path id="Trazado_153365" data-name="Trazado 153365" d="M622.639,161.626l9.141.346a4.313,4.313,0,0,1-4.692,3.956,4.247,4.247,0,0,1-4.449-4.3" transform="translate(-5836.705 -5832.504)" fill="#221914"/>
      <path id="Trazado_153366" data-name="Trazado 153366" d="M633.63,169.5a3.418,3.418,0,1,1-1.68-4.533,3.418,3.418,0,0,1,1.68,4.533" transform="translate(-5838.295 -5833.584)" fill="#e275c2"/>
      <path id="Trazado_153367" data-name="Trazado 153367" d="M627.088,165.929a4.313,4.313,0,0,0,4.692-3.956l-9.141-.346a4.247,4.247,0,0,0,4.449,4.3" transform="translate(-5836.705 -5832.504)" fill="none"/>
      <path id="Trazado_153368" data-name="Trazado 153368" d="M646.949,133.253s-5.305-9.99-3.382-20.855c0,0-16.2,2.717-25.564-.266,0,0,2.2-13.36,23.986-11.633,29.833,2.366,21.114,34.157,6.888,39.6Z" transform="translate(-5835.055 -5810.684)" fill="#221914"/>
      <path id="Trazado_153369" data-name="Trazado 153369" d="M676.946,151.13a7.96,7.96,0,1,1-6.011-9.518,7.96,7.96,0,0,1,6.011,9.518" transform="translate(-5850.443 -5825.308)" fill="#9b5e4e"/>
      <path id="Trazado_153370" data-name="Trazado 153370" d="M675,149.722s-5.942-1.251-7.027,5.266" transform="translate(-5852.848 -5828.231)" fill="none" stroke="#2f1a2a" stroke-linecap="round" stroke-linejoin="round" stroke-width="1.012"/>
      <path id="Trazado_153371" data-name="Trazado 153371" d="M578.157,280.027v38.235l-17.933,31.417,17.623-2.08,21.365-20.638-2.295-45.014Z" transform="translate(-5814.481 -5874.664)" fill="#9b5e4e"/>
      <path id="Trazado_153372" data-name="Trazado 153372" d="M598.093,221.747s-13.909,8.119-16.139,28.194v28.547l22.7-.777Z" transform="translate(-5822.218 -5853.912)" fill="#f46eab"/>
      <path id="Trazado_153373" data-name="Trazado 153373" d="M623.2,211.63s-11.393,2.174-17.115,6.515l-1.692,102.525c36.593,22.071,78.431.644,78.431.644L671.473,218.674s-1.482-5.786-17.383-7.024Z" transform="translate(-5830.208 -5850.31)" fill="#f46eab"/>
      <path id="Trazado_153374" data-name="Trazado 153374" d="M664.455,210.946s-13.124-2.9-30.892-.02c0,0-1.688,10.562,12.582,11.007,15.454.482,18.31-10.987,18.31-10.987" transform="translate(-5840.573 -5849.605)" fill="#9b5e4e"/>
      <line id="Línea_484" data-name="Línea 484" x1="0.135" y1="35.961" transform="translate(-5225.172 -5611.386)" fill="none" stroke="#e03f90" stroke-linecap="round" stroke-linejoin="round" stroke-width="1.7"/>
      <path id="Trazado_153375" data-name="Trazado 153375" d="M634.181,292.846a15.572,15.572,0,0,0-11.584-9.2l-6.364-6.25a2.776,2.776,0,0,0-4.2,3.6l3.134,4.353-1.719-.74a13.2,13.2,0,0,1-6.393-5.853l-4.016-7.443a2.637,2.637,0,0,0-4.782,2.2l4.022,10.423a15.03,15.03,0,0,0,8.849,8.7l20.327,9.043Z" transform="translate(-5827.96 -5871.068)" fill="#9b5e4e"/>
      <path id="Trazado_153376" data-name="Trazado 153376" d="M652.638,305.518l56.527,21.629c4.889,2.114,7.256,10.435,5.072,15.293a9.548,9.548,0,0,1-14.052,4l-50.271-32.083Z" transform="translate(-5846.417 -5883.741)" fill="#9b5e4e"/>
      <path id="Trazado_153377" data-name="Trazado 153377" d="M732.534,327.741l-5.912-45.687-27.416-2.027,9.607,40.709Z" transform="translate(-5863.969 -5874.664)" fill="#9b5e4e"/>
      <path id="Trazado_153378" data-name="Trazado 153378" d="M694.22,214.719s34.261,5.645,38.3,61.266H690.391l-2.771-35.993Z" transform="translate(-5859.843 -5851.409)" fill="#f46eab"/>
      <path id="Trazado_153379" data-name="Trazado 153379" d="M699.134,293.983H691.2l-4.928-28.719" transform="translate(-5859.363 -5869.407)" fill="none" stroke="#e03f90" stroke-linecap="round" stroke-linejoin="round" stroke-width="1.7"/>
      <path id="Trazado_153380" data-name="Trazado 153380" d="M70.9,98.688H35.382a16.6,16.6,0,0,1-16.6-16.6V72.412a16.6,16.6,0,0,1,16.6-16.6H70.9a16.6,16.6,0,0,1,16.6,16.6v9.672a16.6,16.6,0,0,1-16.6,16.6" transform="translate(-5625.778 -5754.808)" fill="#fc83b9"/>
      <path id="Trazado_153381" data-name="Trazado 153381" d="M86.625,114.852l8.647,10.926a1.4,1.4,0,0,0,2.455-1.231l-3.035-11.425Z" transform="translate(-5649.845 -5775.233)" fill="#fc83b9"/>
      <path id="Trazado_156215" data-name="Trazado 156215" d="M5.187-7.1a3.074,3.074,0,0,0-2.223.832v-3.38H.936V0H2.964V-3.458c0-1.287.7-1.885,1.677-1.885.9,0,1.417.52,1.417,1.651V0H8.086V-4C8.086-6.136,6.838-7.1,5.187-7.1Zm7.683,0a5.376,5.376,0,0,0-3.016.845l.728,1.417a3.363,3.363,0,0,1,2.015-.65c1.092,0,1.612.507,1.612,1.378H12.6c-2.132,0-3,.858-3,2.093C9.594-.806,10.569.1,12.207.1a2.3,2.3,0,0,0,2.132-.975V0h1.9V-3.991C16.237-6.11,15-7.1,12.87-7.1Zm-.156,5.837c-.715,0-1.144-.338-1.144-.845,0-.468.3-.819,1.248-.819h1.391v.715A1.494,1.494,0,0,1,12.714-1.261ZM18.2,0h2.028V-9.646H18.2Zm4.03,0h2.028V-9.646H22.23Zm7.358.1a3.589,3.589,0,0,0,3.835-3.6,3.589,3.589,0,0,0-3.835-3.6A3.6,3.6,0,0,0,25.74-3.5,3.6,3.6,0,0,0,29.588.1Zm0-1.664A1.775,1.775,0,0,1,27.794-3.5a1.775,1.775,0,0,1,1.794-1.937A1.765,1.765,0,0,1,31.369-3.5,1.765,1.765,0,0,1,29.588-1.56Zm5.447-1.6h1.612l.4-5.941H34.632ZM35.841.1a1.2,1.2,0,0,0,1.248-1.183,1.167,1.167,0,0,0-1.248-1.157,1.167,1.167,0,0,0-1.248,1.157A1.2,1.2,0,0,0,35.841.1Z" transform="translate(-5592 -5673)" fill="#fafbfd"/>
      <path id="Trazado_153382" data-name="Trazado 153382" d="M219.668,39.987h32.4a14.314,14.314,0,0,0,14.314-14.313V14.314A14.314,14.314,0,0,0,252.068,0h-32.4a14.313,14.313,0,0,0-14.313,14.314v11.36a14.313,14.313,0,0,0,14.313,14.313" transform="translate(-5608.316 -5725.751)" fill="#fafbfd"/>
      <path id="Trazado_153383" data-name="Trazado 153383" d="M272.193,55.394l-8.647,10.927a1.4,1.4,0,0,1-2.455-1.231l3.035-11.425Z" transform="translate(-5649.983 -5744.86)" fill="#fafbfd"/>
      <path id="Trazado_156214" data-name="Trazado 156214" d="M4.316.1A3.245,3.245,0,0,0,7.449-1.664L5.876-2.522A1.721,1.721,0,0,1,4.3-1.56,1.79,1.79,0,0,1,2.47-3.5,1.79,1.79,0,0,1,4.3-5.434a1.744,1.744,0,0,1,1.573.962l1.573-.845A3.213,3.213,0,0,0,4.316-7.1a3.616,3.616,0,0,0-3.9,3.6A3.616,3.616,0,0,0,4.316.1ZM9.763-7.969a1.166,1.166,0,0,0,1.261-1.17,1.138,1.138,0,0,0-1.261-1.092A1.159,1.159,0,0,0,8.5-9.1,1.159,1.159,0,0,0,9.763-7.969ZM8.749,0h2.028V-6.994H8.749ZM15.6-7.1a5.376,5.376,0,0,0-3.016.845l.728,1.417a3.363,3.363,0,0,1,2.015-.65c1.092,0,1.612.507,1.612,1.378H15.327c-2.132,0-3,.858-3,2.093C12.324-.806,13.3.1,14.937.1a2.3,2.3,0,0,0,2.132-.975V0h1.9V-3.991C18.967-6.11,17.732-7.1,15.6-7.1Zm-.156,5.837c-.715,0-1.144-.338-1.144-.845,0-.468.3-.819,1.248-.819h1.391v.715A1.494,1.494,0,0,1,15.444-1.261ZM24.414.1a3.589,3.589,0,0,0,3.835-3.6,3.589,3.589,0,0,0-3.835-3.6,3.6,3.6,0,0,0-3.848,3.6A3.6,3.6,0,0,0,24.414.1Zm0-1.664A1.775,1.775,0,0,1,22.62-3.5a1.775,1.775,0,0,1,1.794-1.937A1.765,1.765,0,0,1,26.2-3.5,1.765,1.765,0,0,1,24.414-1.56Zm5.447-1.6h1.612l.4-5.941H29.458ZM30.667.1a1.2,1.2,0,0,0,1.248-1.183,1.167,1.167,0,0,0-1.248-1.157,1.167,1.167,0,0,0-1.248,1.157A1.2,1.2,0,0,0,30.667.1Z" transform="translate(-5392.004 -5703.251)" fill="#221914"/>
      <path id="Trazado_153384" data-name="Trazado 153384" d="M467.773,62.876H500.41a15.258,15.258,0,0,0,15.258-15.257V38.731A15.257,15.257,0,0,0,500.41,23.474H467.773a15.257,15.257,0,0,0-15.257,15.257v8.888a15.257,15.257,0,0,0,15.257,15.257" transform="translate(-5744.011 -5748.369)" fill="#fc83b9"/>
      <path id="Trazado_153385" data-name="Trazado 153385" d="M491.1,82.377l-7.946,10.04a1.289,1.289,0,0,1-2.256-1.131l2.789-10.5Z" transform="translate(-5755.579 -5771.77)" fill="#fc83b9"/>
      <path id="Trazado_156213" data-name="Trazado 156213" d="M4.389-6.006a2.6,2.6,0,0,0-1.881.7v-2.86H.792V0H2.508V-2.926c0-1.089.594-1.595,1.419-1.595.759,0,1.2.44,1.2,1.4V0H6.842V-3.388A2.32,2.32,0,0,0,4.389-6.006ZM14.432-2.937a2.93,2.93,0,0,0-3.08-3.069A3.013,3.013,0,0,0,8.195-2.959,3.072,3.072,0,0,0,11.572.088a3.1,3.1,0,0,0,2.442-.957l-.913-.99a2.006,2.006,0,0,1-1.485.572A1.578,1.578,0,0,1,9.922-2.475H14.4C14.41-2.618,14.432-2.805,14.432-2.937ZM11.363-4.708a1.406,1.406,0,0,1,1.452,1.232H9.9A1.4,1.4,0,0,1,11.363-4.708ZM15.686,0H17.4V-8.162H15.686Zm3.421,0h1.716V-8.162H19.107Zm6.226.088a3.037,3.037,0,0,0,3.245-3.047,3.037,3.037,0,0,0-3.245-3.047,3.047,3.047,0,0,0-3.256,3.047A3.047,3.047,0,0,0,25.333.088Zm0-1.408a1.5,1.5,0,0,1-1.518-1.639A1.5,1.5,0,0,1,25.333-4.6,1.494,1.494,0,0,1,26.84-2.959,1.494,1.494,0,0,1,25.333-1.32Zm4.62-1.353h1.364L31.658-7.7H29.612ZM30.635.088a1.011,1.011,0,0,0,1.056-1,.987.987,0,0,0-1.056-.979.987.987,0,0,0-1.056.979A1.011,1.011,0,0,0,30.635.088Z" transform="translate(-5280.422 -5704.169)" fill="#fafbfd"/>
      <path id="Trazado_153386" data-name="Trazado 153386" d="M655.385,32.727H681.02a12.673,12.673,0,0,0,12.673-12.672V12.672A12.673,12.673,0,0,0,681.02,0H655.385a12.672,12.672,0,0,0-12.672,12.672v7.383a12.672,12.672,0,0,0,12.672,12.672" transform="translate(-5812.794 -5682.216)" fill="#fafbfd"/>
      <path id="Trazado_153387" data-name="Trazado 153387" d="M674.467,58.634l-6.6,8.339a1.07,1.07,0,0,1-1.874-.939l2.316-8.72Z" transform="translate(-5824.613 -5711.362)" fill="#fafbfd"/>
      <path id="Trazado_156212" data-name="Trazado 156212" d="M3.591-4.914a2.128,2.128,0,0,0-1.539.576v-2.34H.648V0h1.4V-2.394c0-.891.486-1.305,1.161-1.305.621,0,.981.36.981,1.143V0H5.6V-2.772A1.9,1.9,0,0,0,3.591-4.914ZM9.369.072a2.485,2.485,0,0,0,2.655-2.493A2.485,2.485,0,0,0,9.369-4.914,2.493,2.493,0,0,0,6.7-2.421,2.493,2.493,0,0,0,9.369.072Zm0-1.152A1.229,1.229,0,0,1,8.127-2.421,1.229,1.229,0,0,1,9.369-3.762,1.222,1.222,0,0,1,10.6-2.421,1.222,1.222,0,0,1,9.369-1.08ZM13.05,0h1.4V-6.678h-1.4Zm4.743-4.914a3.722,3.722,0,0,0-2.088.585l.5.981a2.328,2.328,0,0,1,1.4-.45c.756,0,1.116.351,1.116.954H17.6c-1.476,0-2.079.594-2.079,1.449,0,.837.675,1.467,1.809,1.467A1.589,1.589,0,0,0,18.81-.6V0h1.314V-2.763C20.124-4.23,19.269-4.914,17.793-4.914ZM17.685-.873c-.5,0-.792-.234-.792-.585,0-.324.207-.567.864-.567h.963v.5A1.034,1.034,0,0,1,17.685-.873Zm3.9-1.314H22.7L22.977-6.3H21.3ZM22.14.072A.827.827,0,0,0,23-.747a.808.808,0,0,0-.864-.8.808.808,0,0,0-.864.8A.827.827,0,0,0,22.14.072Z" transform="translate(-5160.002 -5664.684)" fill="#221914"/>
    </g>
  </g>
</svg>
