<svg xmlns="http://www.w3.org/2000/svg" xmlns:xlink="http://www.w3.org/1999/xlink" width="144" height="138" viewBox="0 0 144 138">
  <defs>
    <clipPath id="clip-path">
      <rect id="Rect치ngulo_41175" data-name="Rect치ngulo 41175" width="95" height="121.942" fill="none"/>
    </clipPath>
  </defs>
  <g id="Grupo_165852" data-name="Grupo 165852" transform="translate(-537 -1288)">
    <g id="Grupo_165391" data-name="Grupo 165391">
      <rect id="Rect치ngulo_40797" data-name="Rect치ngulo 40797" width="144" height="138" transform="translate(537 1288)" fill="#c4d1ff"/>
    </g>
    <g id="Grupo_165972" data-name="Grupo 165972" transform="translate(563 1296.029)">
      <g id="Grupo_165972-2" data-name="Grupo 165972" clip-path="url(#clip-path)">
        <path id="Trazado_153415" data-name="Trazado 153415" d="M50.866,0c1.475.229,2.952.452,4.425.687A45.733,45.733,0,0,1,76.444,9.951,47.732,47.732,0,0,1,92.586,32.226a45.306,45.306,0,0,1,2.262,11.158c.748,8.767-1.335,16.918-4.993,24.784A122.834,122.834,0,0,1,74.192,92.878c-5.033,6.311-10.38,12.345-15.975,18.162q-4.921,5.116-9.792,10.278c-.691.736-1.036.915-1.861.023-3.888-4.2-7.914-8.282-11.839-12.453-5.48-5.824-10.747-11.829-15.635-18.169A122.3,122.3,0,0,1,6.11,70.271,57.562,57.562,0,0,1,.812,55.6,45.944,45.944,0,0,1,.165,43.091a45.2,45.2,0,0,1,8.4-22.721A48.29,48.29,0,0,1,23.727,6.431,45.233,45.233,0,0,1,43.395.188,2.253,2.253,0,0,0,43.94,0Z" transform="translate(0)" fill="#b2b2b2"/>
        <path id="Trazado_153416" data-name="Trazado 153416" d="M48.575,6.069C71.5,6,89.737,24.777,90.564,45.955c.991,25.384-18.428,44.216-40.87,44.586C24.369,90.959,6.9,72,6.127,49.424,5.285,24.9,25.607,5.949,48.575,6.069" transform="translate(-0.819 -0.814)" fill="#c6c6c6"/>
        <path id="Trazado_153417" data-name="Trazado 153417" d="M11.85,49.085a35.629,35.629,0,0,1,7.421-22.423A35.755,35.755,0,0,1,44.689,12.1c12.773-1.457,23.592,2.626,32.206,12.183A36.718,36.718,0,0,1,86.17,44.924a28,28,0,0,1,.2,4.161,2.724,2.724,0,0,1-2.047.423q-9.668.014-19.336.005-25.423,0-50.847-.007c-.778,0-1.609.173-2.286-.421" transform="translate(-1.589 -1.584)" fill="#3389f2"/>
        <path id="Trazado_153418" data-name="Trazado 153418" d="M11.849,54.861H86.364a35.112,35.112,0,0,1-7.786,22.872,36.393,36.393,0,0,1-24.461,14.1C41.2,93.554,30.226,89.379,21.394,79.816a35.865,35.865,0,0,1-9.336-20.083,31.86,31.86,0,0,1-.209-4.872" transform="translate(-1.588 -7.361)" fill="#fed944"/>
      </g>
    </g>
  </g>
</svg>
