<svg xmlns="http://www.w3.org/2000/svg" width="190" height="163" viewBox="0 0 190 163">
  <g id="Grupo_166713" data-name="Grupo 166713" transform="translate(-915 -726)">
    <rect id="Rectángulo_40991" data-name="Rectángulo 40991" width="190" height="163" rx="10" transform="translate(915 726)" fill="#6b8dfc"/>
    <path id="Trazado_156193" data-name="Trazado 156193" d="M25.133,5.625l1.4,8.227,4.242-8.227H33.82L31.844,17h-2.3l.563-3.242L31.219,8.7,26.859,17h-1.57L23.766,8.406l-.734,5.6L22.508,17H20.219L22.2,5.625ZM36.078,17H33.859l1.469-8.453h2.219ZM35.586,6.4a1.1,1.1,0,0,1,.344-.867,1.323,1.323,0,0,1,1.734-.039,1.1,1.1,0,0,1,.383.828,1.132,1.132,0,0,1-.324.844,1.215,1.215,0,0,1-.887.375,1.235,1.235,0,0,1-.863-.3A1.091,1.091,0,0,1,35.586,6.4Zm2.781,6.367a5.849,5.849,0,0,1,1.277-3.184,3.242,3.242,0,0,1,2.629-1.2,2.37,2.37,0,0,1,2.016.977l.289-.82,2.023.008-1.383,8.164a3.983,3.983,0,0,1-1.437,2.672,4.471,4.471,0,0,1-3,.953,4.168,4.168,0,0,1-1.672-.379,3.575,3.575,0,0,1-1.312-1l1.094-1.344a2.349,2.349,0,0,0,1.844.961,2.166,2.166,0,0,0,1.469-.449,2.4,2.4,0,0,0,.828-1.355l.125-.508a2.749,2.749,0,0,1-2.07.891,2.428,2.428,0,0,1-1.961-.918,3.947,3.947,0,0,1-.8-2.348A7.89,7.89,0,0,1,38.367,12.766Zm2.164.927a2.02,2.02,0,0,0,.309,1.178,1.08,1.08,0,0,0,.895.466,1.972,1.972,0,0,0,1.594-.767l.656-3.583a1.3,1.3,0,0,0-1.242-.767,1.728,1.728,0,0,0-1.43.681,3.561,3.561,0,0,0-.734,1.87A8.214,8.214,0,0,0,40.531,13.693Zm9.711-4.208a2.946,2.946,0,0,1,2.289-1.094,2.143,2.143,0,0,1,1.848.9,3.548,3.548,0,0,1,.441,2.379L53.93,17h-2.2l.9-5.358a2.6,2.6,0,0,0,.016-.563.885.885,0,0,0-.984-.868,1.9,1.9,0,0,0-1.562.766L49.031,17h-2.2L48.906,5h2.211Zm9.875-3.016L59.75,8.547h1.406L60.867,10.2H59.461l-.719,4.234a1.077,1.077,0,0,0,.063.609q.109.211.531.227.125.008.672-.039l-.156,1.727a3.706,3.706,0,0,1-1.266.18,1.985,1.985,0,0,1-1.617-.68,2.456,2.456,0,0,1-.437-1.8l.727-4.461h-1.2l.289-1.656h1.2l.359-2.078Z" transform="translate(970 798)" fill="#12263f"/>
  </g>
</svg>
