<svg xmlns="http://www.w3.org/2000/svg" xmlns:xlink="http://www.w3.org/1999/xlink" width="144" height="138" viewBox="0 0 144 138">
  <defs>
    <clipPath id="clip-path">
      <rect id="Rect치ngulo_41172" data-name="Rect치ngulo 41172" width="75.999" height="125.125" fill="none"/>
    </clipPath>
  </defs>
  <g id="Grupo_165845" data-name="Grupo 165845" transform="translate(-537 -1287.998)">
    <g id="Grupo_165970" data-name="Grupo 165970">
      <g id="Grupo_165391" data-name="Grupo 165391" transform="translate(0 -0.002)">
        <rect id="Rect치ngulo_40797" data-name="Rect치ngulo 40797" width="144" height="138" transform="translate(537 1288)" fill="#c4d1ff"/>
      </g>
      <g id="Grupo_165969" data-name="Grupo 165969" transform="translate(571 1293.998)">
        <g id="Grupo_165969-2" data-name="Grupo 165969" clip-path="url(#clip-path)">
          <path id="Trazado_153388" data-name="Trazado 153388" d="M3.246,165c-1.592-1.264-1.819-1.891-1.263-3.483a11.656,11.656,0,0,1,2.555-.087q32.229-.008,64.459,0a14.429,14.429,0,0,1,2.073.059A2.31,2.31,0,0,1,72.892,165Z" transform="translate(-0.422 -39.879)" fill="#43567b"/>
          <path id="Trazado_153389" data-name="Trazado 153389" d="M72.982,164.52c0-.407.017-.815,0-1.221a1.879,1.879,0,0,0-1.906-1.952c-.364-.023-.732-.005-1.1-.005q-33.148,0-66.3-.011c-.538,0-1.152.236-1.606-.294a1.668,1.668,0,0,1,1.456-1.184.676.676,0,0,1,.229-.081c3.129.115,6.234-.333,9.366-.323,17.948.053,35.9.009,53.846.048,2.178,0,4.358.275,6.541.36a2.112,2.112,0,0,1,1.789,2.025c.188,1.263-.65,2-1.585,2.638Z" transform="translate(-0.512 -39.395)" fill="#384868"/>
          <path id="Trazado_153390" data-name="Trazado 153390" d="M73,143.422q-18.2.009-36.4.017-16.793,0-33.587-.021c1.272-.476,2.618-.022,4.084-.3-2.942-1.166-4.168-3.24-4.362-6.231-.642-9.9-1.422-19.8-2.148-29.695-.163-2.231-.232-4.474-.513-6.69A6.143,6.143,0,0,1,3.8,93.561a2.36,2.36,0,0,1,1.8-.608c10.135-.011,20.27-.055,30.4.017,1.9-.041,3.805-.046,5.708,0,9.535-.072,19.07-.026,28.605-.024.162,0,.324.014.486.026a2.128,2.128,0,0,1,1.43.588c2.935,1.406,3.99,3.692,3.731,6.94-.994,12.446-1.833,24.9-2.772,37.353-.2,2.6-1.722,4.278-4.271,5.243,1.467.315,2.814-.17,4.082.324" transform="translate(0 -22.96)" fill="#43567c"/>
          <path id="Trazado_153391" data-name="Trazado 153391" d="M35.786,47.8c-1.1-1.654-2.716-2.89-3.681-4.676a24.991,24.991,0,0,1-2.345-6.379c-.107-.462-.149-.888-.771-.888a2.553,2.553,0,0,1-2.3-1.732,7.167,7.167,0,0,1-.227-6.352c.164-.366.264-.76.392-1.142.644.093.5.663.583,1.046.353,1.589.654,3.19,1.084,4.762a2.309,2.309,0,0,0,.61,1.289,2.17,2.17,0,0,0,.248-1.6,44.013,44.013,0,0,1,2.253-14.653c.615-2,.717-2.077,2.744-1.773a20.108,20.108,0,0,0,11.018-1.2,13.473,13.473,0,0,0,3.539-2.14A2.736,2.736,0,0,1,52,11.933a6.449,6.449,0,0,1,3.749,3.631A13.739,13.739,0,0,1,56.5,18.01,37.716,37.716,0,0,0,58.036,23.4a21.037,21.037,0,0,1,1.028,9.146c-.036.426-.265.87.136,1.327.425-.3.41-.773.478-1.187.243-1.486.407-2.982.51-4.484.035-.517-.04-1.087.557-1.381,2.269,2.164,1.848,7.181-.784,8.8a1.6,1.6,0,0,0-.772,1.114c-.916,3.7-2.217,7.207-5.13,9.869a1.314,1.314,0,0,0-.431.968A20.961,20.961,0,0,1,49.4,50.812a10.522,10.522,0,0,1-12.182-1.556c-.5-.453-1.138-.791-1.429-1.456" transform="translate(-6.381 -2.879)" fill="#efc090"/>
          <path id="Trazado_153392" data-name="Trazado 153392" d="M60.882,23.947c-.246,2.053-.456,4.112-.761,6.157-.085.567.09,1.6-.8,1.52-1.03-.1-.571-1.078-.515-1.7a20.675,20.675,0,0,0-1.25-10.056,25.205,25.205,0,0,1-1.3-4.939c-.569-2.9-1.985-5.036-5.011-5.818a1.588,1.588,0,0,0-1.565.322c-4.639,3.808-9.994,4.628-15.729,3.61-.965-.171-1.352-.017-1.641.929-1.655,5.4-2.806,10.856-2.41,16.55.025.357.242.9-.372.988-.541.082-.784-.3-.9-.789q-.811-3.489-1.635-6.972a52.329,52.329,0,0,1-.611-8.507,12.927,12.927,0,0,1,5.666-10.8C36.492,1.2,41.414-.759,46.986.278c2.6.484,5.152,1.381,7.745,2.036,2.892.731,4.362,3.243,5.219,6,1.166,3.747,1.163,7.617,1.071,11.487-.033,1.383-.092,2.765-.139,4.147" transform="translate(-6.516 0)" fill="#384868"/>
          <path id="Trazado_153393" data-name="Trazado 153393" d="M37.211,87.4q-10,.023-20,.044-4.452.008-8.9,0a12.712,12.712,0,0,0-3.266.236,13.6,13.6,0,0,1,7.095-11.635A161.03,161.03,0,0,1,27.031,69.1a2.024,2.024,0,0,1,.758,1.2c.968,2.66,2.162,5.231,3.127,7.893.56,1.547.858,1.6,2.284.688.5-.318.961-.828,1.626-.322a34.328,34.328,0,0,1,2.537,3.068,1.74,1.74,0,0,1,.434.984,9.309,9.309,0,0,1-.586,4.78" transform="translate(-1.246 -17.073)" fill="#dae1ea"/>
          <path id="Trazado_153394" data-name="Trazado 153394" d="M85.64,87.6a13.751,13.751,0,0,0-3.389-.233q-13.6-.019-27.2-.041a1.93,1.93,0,0,1-.518-1.329,5.737,5.737,0,0,0-.047-1.092c-.782-2.637.736-4.495,2.122-6.4.52-.448.978-.149,1.435.126.347.208.668.459,1.018.661.909.526,1.3.421,1.623-.6.571-1.814,1.129-3.633,1.715-5.441a27.19,27.19,0,0,1,1.492-4.46C68.191,71,72.61,72.968,77,75c4.9,2.266,8.644,7.516,8.641,12.6" transform="translate(-13.411 -16.993)" fill="#dae1ea"/>
          <path id="Trazado_153395" data-name="Trazado 153395" d="M38.835,59.562c.975.314,1.508,1.2,2.287,1.777,4.815,3.552,10.206,2.619,14.325-1.293.331-.314.511-1.025,1.231-.7q.3,1.606.6,3.213a1.126,1.126,0,0,1-.306,1.221c-3,2.948-5.841,6.048-8.982,8.849a.585.585,0,0,1-.343-.023c-2.67-2.967-5.809-5.453-8.54-8.357-.355-.379-.834-.669-.941-1.239a20.694,20.694,0,0,1,.672-3.445" transform="translate(-9.429 -14.642)" fill="#e1b38a"/>
          <path id="Trazado_153396" data-name="Trazado 153396" d="M37.2,64.236l9.225,8.882a.828.828,0,0,1,.309.637c-.069.455-.438.654-.766.876-1.4.942-2.806,1.867-4.2,2.817-.839-.145-1.2.643-1.809.943-.811.4-1.446.472-1.838-.548-1.277-3.319-2.579-6.629-3.871-9.942L37.2,64.236" transform="translate(-8.462 -15.871)" fill="#d0cbeb"/>
          <path id="Trazado_153397" data-name="Trazado 153397" d="M51.138,73.594l8.493-8.556c.4-.4.885-.741.849-1.4.566,1.505,1.852,2.519,2.64,3.872-.061,1.729-.878,3.262-1.294,4.9-.456,1.8-1.08,3.553-1.669,5.315-.388,1.16-.848,1.283-1.908.676-.695-.4-1.2-1.169-2.14-1.1-1.608-1.3-3.52-2.195-4.971-3.707" transform="translate(-12.635 -15.723)" fill="#d0cbeb"/>
          <path id="Trazado_153398" data-name="Trazado 153398" d="M49.432,76.861c1.644.887,3.088,2.075,4.645,3.094a.674.674,0,0,1,.326.613c-.657,1.059-1.291,2.133-1.982,3.17a2.3,2.3,0,0,0-.252,1.623c.13,1.319.27,2.637.406,3.957l-5.68,0c.1-1,.162-2.013.318-3.009a3.539,3.539,0,0,0-.991-3.3,29.5,29.5,0,0,1-1.988-2.436c.027-.549.513-.687.861-.927,1.358-.934,2.733-1.845,4.1-2.766a.432.432,0,0,0,.236-.014" transform="translate(-10.929 -18.99)" fill="#ee5361"/>
        </g>
      </g>
    </g>
  </g>
</svg>
