<svg xmlns="http://www.w3.org/2000/svg" width="142" height="119" viewBox="0 0 142 119">
  <g id="Grupo_166712" data-name="Grupo 166712" transform="translate(-856 -7012)">
    <rect id="Rectángulo_41556" data-name="Rectángulo 41556" width="142" height="119" rx="10" transform="translate(856 7012)" fill="#6b8dff"/>
    <path id="Trazado_156229" data-name="Trazado 156229" d="M21.715,3.625l1.4,8.227,4.242-8.227H30.4L28.426,15h-2.3l.563-3.242L27.8,6.7,23.441,15h-1.57L20.348,6.406l-.734,5.6L19.09,15H16.8L18.777,3.625ZM35.168,6.391a3.39,3.39,0,0,1,1.926.574A3.234,3.234,0,0,1,38.281,8.5a4.762,4.762,0,0,1,.27,2.176,5.143,5.143,0,0,1-1.4,3.262,3.96,3.96,0,0,1-3.02,1.215,3.38,3.38,0,0,1-1.906-.566,3.222,3.222,0,0,1-1.187-1.527,4.657,4.657,0,0,1-.273-2.156,5.3,5.3,0,0,1,1.422-3.328A3.878,3.878,0,0,1,35.168,6.391Zm-2.227,5.315a1.95,1.95,0,0,0,.352,1.182,1.168,1.168,0,0,0,.945.449,1.712,1.712,0,0,0,1.594-.932,4.647,4.647,0,0,0,.539-2.531,2.122,2.122,0,0,0-.363-1.2,1.149,1.149,0,0,0-.949-.464,1.715,1.715,0,0,0-1.574.924A4.6,4.6,0,0,0,32.941,11.706ZM43.379,6.383a2.4,2.4,0,0,1,1.906.945L46.113,3h2.211L46.246,15H44.277l.125-.906a2.736,2.736,0,0,1-2.2,1.07,2.433,2.433,0,0,1-1.383-.414,2.607,2.607,0,0,1-.918-1.168,4.7,4.7,0,0,1-.355-1.7,6.4,6.4,0,0,1,.023-.953l.047-.352A6.767,6.767,0,0,1,40.336,8.3a3.766,3.766,0,0,1,1.313-1.461A3.094,3.094,0,0,1,43.379,6.383Zm-1.6,4.547a6.327,6.327,0,0,0-.039,1q.078,1.375,1.109,1.4a1.885,1.885,0,0,0,1.617-.875l.6-3.359a1.248,1.248,0,0,0-1.219-.875,1.606,1.606,0,0,0-1.34.621A4.176,4.176,0,0,0,41.777,10.93ZM52.895,15a2.281,2.281,0,0,1-.086-.766,2.863,2.863,0,0,1-2.156.922,2.594,2.594,0,0,1-1.84-.723,2.186,2.186,0,0,1-.684-1.746,2.527,2.527,0,0,1,1.16-2.121,5.266,5.266,0,0,1,2.965-.738l1.031.016.109-.508a1.764,1.764,0,0,0,.023-.492.846.846,0,0,0-.277-.574.955.955,0,0,0-.629-.215,1.345,1.345,0,0,0-.875.254,1.231,1.231,0,0,0-.461.777l-2.211.008a2.457,2.457,0,0,1,1.113-1.965,4.312,4.312,0,0,1,2.613-.738,3.117,3.117,0,0,1,2.25.855,2.5,2.5,0,0,1,.68,2.121l-.648,4.047-.039.5a2.412,2.412,0,0,0,.133.938L55.059,15Zm-1.7-1.555a2.017,2.017,0,0,0,1.664-.828l.273-1.461-.766-.008a2.139,2.139,0,0,0-1.758.742,1.292,1.292,0,0,0-.242.633.75.75,0,0,0,.176.668A.891.891,0,0,0,51.2,13.445ZM58.73,15H56.512L58.6,3h2.211ZM68.1,12.211,70.5,6.547h2.375L68.793,15H66.684L65.238,6.547h2.234Zm8.281,2.945a3.677,3.677,0,0,1-1.965-.543,3.292,3.292,0,0,1-1.277-1.469,4.093,4.093,0,0,1-.328-2.059l.023-.312a5.465,5.465,0,0,1,.719-2.266A4.341,4.341,0,0,1,75.1,6.918a3.827,3.827,0,0,1,2.094-.527,2.924,2.924,0,0,1,2.473,1.2,4.117,4.117,0,0,1,.637,2.962l-.125.962H75a1.814,1.814,0,0,0,.4,1.313,1.521,1.521,0,0,0,1.172.508,2.7,2.7,0,0,0,2.109-.937l1.008,1.25a3.135,3.135,0,0,1-1.375,1.121A4.5,4.5,0,0,1,76.379,15.156Zm.7-6.945A1.565,1.565,0,0,0,76,8.594a3.363,3.363,0,0,0-.848,1.383h3.031l.047-.2a2.071,2.071,0,0,0,.008-.594,1.134,1.134,0,0,0-.383-.707A1.2,1.2,0,0,0,77.082,8.211Zm9.539.453a4.548,4.548,0,0,0-.742-.078,2.136,2.136,0,0,0-1.867.883L83.035,15h-2.2L82.3,6.547l2.07-.008-.2,1.031a2.325,2.325,0,0,1,1.969-1.2,3.214,3.214,0,0,1,.766.109ZM94.7,10.8A6.061,6.061,0,0,1,93.48,14a3.033,3.033,0,0,1-2.547,1.164A2.357,2.357,0,0,1,88.9,14.086l-.32.914H86.574L88.652,3h2.211l-.852,4.32a2.634,2.634,0,0,1,2.063-.93A2.385,2.385,0,0,1,94,7.27a3.89,3.89,0,0,1,.746,2.387A9.133,9.133,0,0,1,94.7,10.8Zm-2.187-.165A6.554,6.554,0,0,0,92.559,9.6q-.086-1.364-1.125-1.387a1.833,1.833,0,0,0-1.617.885l-.609,3.37a1.258,1.258,0,0,0,1.266.878q1.625.047,1.992-2.367Zm-76.7,26.375,3.25-9.383H20.7L16.484,39H15.156L10.945,27.625h1.633Zm9.352,2.148a3.693,3.693,0,0,1-2.8-1.129,4.19,4.19,0,0,1-1.078-3.02v-.266a5.073,5.073,0,0,1,.48-2.246,3.748,3.748,0,0,1,1.344-1.547,3.378,3.378,0,0,1,1.871-.559,3.166,3.166,0,0,1,2.563,1.086,4.7,4.7,0,0,1,.914,3.109v.6H22.734a3,3,0,0,0,.73,2.02,2.3,2.3,0,0,0,1.777.77,2.517,2.517,0,0,0,1.3-.312,3.259,3.259,0,0,0,.93-.828l.883.688A3.55,3.55,0,0,1,25.164,39.156Zm-.18-7.578a1.928,1.928,0,0,0-1.469.637A3.1,3.1,0,0,0,22.781,34h4.234v-.109a2.753,2.753,0,0,0-.594-1.707A1.815,1.815,0,0,0,24.984,31.578Zm9.234.266a4.331,4.331,0,0,0-.711-.055A1.9,1.9,0,0,0,31.578,33v6H30.133V30.547h1.406l.023.977a2.251,2.251,0,0,1,2.016-1.133,1.477,1.477,0,0,1,.641.109ZM42.7,34.867a5.026,5.026,0,0,1-.891,3.113,2.846,2.846,0,0,1-2.391,1.176,2.947,2.947,0,0,1-2.477-1.133l-.07.977H35.547V27h1.445v4.477a2.93,2.93,0,0,1,2.414-1.086,2.863,2.863,0,0,1,2.418,1.164,5.177,5.177,0,0,1,.879,3.188ZM41.258,34.7a3.906,3.906,0,0,0-.57-2.281,1.888,1.888,0,0,0-1.641-.8,2.122,2.122,0,0,0-2.055,1.328V36.6a2.181,2.181,0,0,0,2.07,1.328,1.878,1.878,0,0,0,1.617-.8A4.153,4.153,0,0,0,41.258,34.7Zm2.883-.008a4.993,4.993,0,0,1,.488-2.234,3.643,3.643,0,0,1,1.359-1.531,3.7,3.7,0,0,1,1.988-.539,3.565,3.565,0,0,1,2.793,1.2,4.6,4.6,0,0,1,1.066,3.18v.1a5.036,5.036,0,0,1-.473,2.215,3.589,3.589,0,0,1-1.352,1.527,3.743,3.743,0,0,1-2.02.547,3.556,3.556,0,0,1-2.785-1.2A4.575,4.575,0,0,1,44.141,34.8Zm1.453.172a3.616,3.616,0,0,0,.652,2.258,2.211,2.211,0,0,0,3.5-.012,3.955,3.955,0,0,0,.648-2.418,3.61,3.61,0,0,0-.66-2.254,2.1,2.1,0,0,0-1.754-.863,2.075,2.075,0,0,0-1.727.852A3.925,3.925,0,0,0,45.594,34.867Zm13.375-4.32.039.938a3.122,3.122,0,0,1,2.508-1.094A2.417,2.417,0,0,1,63.93,31.75a3.2,3.2,0,0,1,1.1-.984,3.242,3.242,0,0,1,1.6-.375q2.781,0,2.828,2.945V39H68.008V33.422a1.941,1.941,0,0,0-.414-1.355,1.823,1.823,0,0,0-1.391-.449,1.916,1.916,0,0,0-1.336.48,1.949,1.949,0,0,0-.617,1.293V39H62.8V33.461a1.613,1.613,0,0,0-1.8-1.844,1.934,1.934,0,0,0-1.945,1.211V39H57.6V30.547ZM71.25,34.7a4.993,4.993,0,0,1,.488-2.234A3.643,3.643,0,0,1,73.1,30.93a3.7,3.7,0,0,1,1.988-.539,3.565,3.565,0,0,1,2.793,1.2,4.6,4.6,0,0,1,1.066,3.18v.1a5.036,5.036,0,0,1-.473,2.215,3.589,3.589,0,0,1-1.352,1.527,3.743,3.743,0,0,1-2.02.547,3.556,3.556,0,0,1-2.785-1.2A4.575,4.575,0,0,1,71.25,34.8Zm1.453.172a3.616,3.616,0,0,0,.652,2.258,2.211,2.211,0,0,0,3.5-.012A3.955,3.955,0,0,0,77.5,34.7a3.61,3.61,0,0,0-.66-2.254,2.1,2.1,0,0,0-1.754-.863,2.075,2.075,0,0,0-1.727.852A3.925,3.925,0,0,0,72.7,34.867Zm7.7-.164a4.952,4.952,0,0,1,.922-3.129,3.137,3.137,0,0,1,4.766-.168V27h1.445V39H86.211l-.07-.906a2.943,2.943,0,0,1-2.414,1.063,2.887,2.887,0,0,1-2.395-1.2,5.008,5.008,0,0,1-.926-3.141Zm1.445.164a3.749,3.749,0,0,0,.594,2.25,1.92,1.92,0,0,0,1.641.813A2.108,2.108,0,0,0,86.094,36.7V32.813a2.125,2.125,0,0,0-1.992-1.2,1.929,1.929,0,0,0-1.656.82A4.128,4.128,0,0,0,81.852,34.867ZM95,39a3.036,3.036,0,0,1-.2-.891,3.225,3.225,0,0,1-2.406,1.047,2.984,2.984,0,0,1-2.051-.707,2.288,2.288,0,0,1-.8-1.793,2.39,2.39,0,0,1,1-2.051,4.733,4.733,0,0,1,2.824-.73h1.406v-.664A1.623,1.623,0,0,0,94.32,32a1.821,1.821,0,0,0-1.336-.449,2.108,2.108,0,0,0-1.3.391,1.151,1.151,0,0,0-.523.945H89.711a2,2,0,0,1,.449-1.223,3.066,3.066,0,0,1,1.219-.934,4.1,4.1,0,0,1,1.691-.344,3.342,3.342,0,0,1,2.289.73,2.635,2.635,0,0,1,.859,2.012v3.891a4.757,4.757,0,0,0,.3,1.852V39Zm-2.4-1.1a2.54,2.54,0,0,0,1.289-.352,2.127,2.127,0,0,0,.883-.914V34.9H93.641q-2.656,0-2.656,1.555a1.316,1.316,0,0,0,.453,1.063A1.742,1.742,0,0,0,92.6,37.9Zm7.453,1.1H98.609V27h1.445ZM38.008,60.711q.117-.875-.961-1.234l-1.469-.43q-1.859-.641-1.8-2.125A2.341,2.341,0,0,1,34.8,55.09a3.631,3.631,0,0,1,2.27-.7,3.027,3.027,0,0,1,2.082.746,2.363,2.363,0,0,1,.77,1.9l-1.406-.008a1.319,1.319,0,0,0-.4-1.031,1.576,1.576,0,0,0-1.1-.414,2.059,2.059,0,0,0-1.266.359,1.316,1.316,0,0,0-.57.922q-.1.734.9,1.07l.711.2a4.577,4.577,0,0,1,2.063.977,1.865,1.865,0,0,1,.563,1.492,2.37,2.37,0,0,1-.516,1.375,2.948,2.948,0,0,1-1.25.895,4.18,4.18,0,0,1-1.664.285,3.3,3.3,0,0,1-2.219-.785,2.427,2.427,0,0,1-.844-1.98l1.414.008a1.5,1.5,0,0,0,.453,1.141,1.732,1.732,0,0,0,1.242.43,2.436,2.436,0,0,0,1.336-.324A1.247,1.247,0,0,0,38.008,60.711Zm5.484-5.133a3.275,3.275,0,0,1,2.555-1.18,2.058,2.058,0,0,1,1.762.816,3.217,3.217,0,0,1,.426,2.246L47.313,63H45.9l.93-5.562a2.968,2.968,0,0,0,.008-.711,1.168,1.168,0,0,0-1.289-1.117,2.6,2.6,0,0,0-2.234,1.359L42.266,63H40.852l2.086-12h1.414Zm10.68-1.187a3.047,3.047,0,0,1,1.82.578,3.285,3.285,0,0,1,1.121,1.551,4.8,4.8,0,0,1,.246,2.16l-.016.172a5.685,5.685,0,0,1-.734,2.23,4.309,4.309,0,0,1-1.516,1.551,3.7,3.7,0,0,1-2.039.523,3.052,3.052,0,0,1-1.816-.578,3.21,3.21,0,0,1-1.113-1.531,4.931,4.931,0,0,1-.25-2.133,5.76,5.76,0,0,1,.711-2.359,4.409,4.409,0,0,1,1.527-1.621A3.652,3.652,0,0,1,54.172,54.391ZM51.3,58.922a4.8,4.8,0,0,0,0,1.023,2.507,2.507,0,0,0,.551,1.469,1.653,1.653,0,0,0,1.262.57,2.253,2.253,0,0,0,1.3-.348,2.919,2.919,0,0,0,1-1.121,4.721,4.721,0,0,0,.523-1.664,7.494,7.494,0,0,0,.023-1.211,2.6,2.6,0,0,0-.57-1.492,1.69,1.69,0,0,0-1.266-.578,2.3,2.3,0,0,0-1.859.859,4.245,4.245,0,0,0-.945,2.313Zm12.477,3.242a3.265,3.265,0,0,1-2.523.992,2.107,2.107,0,0,1-1.793-.867,3.317,3.317,0,0,1-.434-2.281l.906-5.461h1.414l-.914,5.484a3.642,3.642,0,0,0-.016.672,1.4,1.4,0,0,0,.336.883,1.146,1.146,0,0,0,.828.344A2.537,2.537,0,0,0,63.922,60.7l1.063-6.156H66.4L64.93,63H63.594Zm4.8.836H67.164l2.078-12h1.414Zm2.719-4.242A6.578,6.578,0,0,1,72,56.43a4.03,4.03,0,0,1,1.367-1.555,3.127,3.127,0,0,1,1.789-.492,2.64,2.64,0,0,1,2.172,1.031L78.141,51h1.414L77.477,63H76.188l.148-.906a3.116,3.116,0,0,1-2.469,1.063A2.335,2.335,0,0,1,72,62.238a4,4,0,0,1-.75-2.379A7.6,7.6,0,0,1,71.289,58.758Zm1.359.808a2.929,2.929,0,0,0,.4,1.732,1.437,1.437,0,0,0,1.234.632,2.554,2.554,0,0,0,2.18-1.233l.672-3.9a1.754,1.754,0,0,0-1.7-1.186,2.143,2.143,0,0,0-1.473.5,3.256,3.256,0,0,0-.969,1.475A6.082,6.082,0,0,0,72.648,59.565ZM38.008,84.711q.117-.875-.961-1.234l-1.469-.43q-1.859-.641-1.8-2.125A2.341,2.341,0,0,1,34.8,79.09a3.631,3.631,0,0,1,2.27-.7,3.027,3.027,0,0,1,2.082.746,2.363,2.363,0,0,1,.77,1.9l-1.406-.008a1.319,1.319,0,0,0-.4-1.031,1.576,1.576,0,0,0-1.1-.414,2.059,2.059,0,0,0-1.266.359,1.316,1.316,0,0,0-.57.922q-.1.734.9,1.07l.711.2a4.578,4.578,0,0,1,2.063.977,1.865,1.865,0,0,1,.563,1.492,2.37,2.37,0,0,1-.516,1.375,2.948,2.948,0,0,1-1.25.895,4.18,4.18,0,0,1-1.664.285,3.3,3.3,0,0,1-2.219-.785,2.427,2.427,0,0,1-.844-1.98l1.414.008a1.5,1.5,0,0,0,.453,1.141,1.732,1.732,0,0,0,1.242.43,2.436,2.436,0,0,0,1.336-.324A1.247,1.247,0,0,0,38.008,84.711Zm5.484-5.133a3.275,3.275,0,0,1,2.555-1.18,2.058,2.058,0,0,1,1.762.816,3.217,3.217,0,0,1,.426,2.246L47.313,87H45.9l.93-5.562a2.968,2.968,0,0,0,.008-.711,1.168,1.168,0,0,0-1.289-1.117,2.6,2.6,0,0,0-2.234,1.359L42.266,87H40.852l2.086-12h1.414Zm10.68-1.187a3.047,3.047,0,0,1,1.82.578,3.285,3.285,0,0,1,1.121,1.551,4.8,4.8,0,0,1,.246,2.16l-.016.172a5.685,5.685,0,0,1-.734,2.23,4.309,4.309,0,0,1-1.516,1.551,3.7,3.7,0,0,1-2.039.523,3.052,3.052,0,0,1-1.816-.578,3.21,3.21,0,0,1-1.113-1.531,4.931,4.931,0,0,1-.25-2.133,5.76,5.76,0,0,1,.711-2.359,4.409,4.409,0,0,1,1.527-1.621A3.652,3.652,0,0,1,54.172,78.391ZM51.3,82.922a4.8,4.8,0,0,0,0,1.023,2.507,2.507,0,0,0,.551,1.469,1.653,1.653,0,0,0,1.262.57,2.253,2.253,0,0,0,1.3-.348,2.919,2.919,0,0,0,1-1.121,4.721,4.721,0,0,0,.523-1.664,7.494,7.494,0,0,0,.023-1.211,2.6,2.6,0,0,0-.57-1.492,1.69,1.69,0,0,0-1.266-.578,2.3,2.3,0,0,0-1.859.859,4.245,4.245,0,0,0-.945,2.313Zm12.477,3.242a3.265,3.265,0,0,1-2.523.992,2.107,2.107,0,0,1-1.793-.867,3.317,3.317,0,0,1-.434-2.281l.906-5.461h1.414l-.914,5.484a3.642,3.642,0,0,0-.016.672,1.4,1.4,0,0,0,.336.883,1.146,1.146,0,0,0,.828.344A2.536,2.536,0,0,0,63.922,84.7l1.063-6.156H66.4L64.93,87H63.594Zm4.8.836H67.164l2.078-12h1.414Zm2.719-4.242A6.578,6.578,0,0,1,72,80.43a4.03,4.03,0,0,1,1.367-1.555,3.127,3.127,0,0,1,1.789-.492,2.641,2.641,0,0,1,2.172,1.031L78.141,75h1.414L77.477,87H76.188l.148-.906a3.116,3.116,0,0,1-2.469,1.063A2.335,2.335,0,0,1,72,86.238a4,4,0,0,1-.75-2.379A7.6,7.6,0,0,1,71.289,82.758Zm1.359.808a2.929,2.929,0,0,0,.4,1.732,1.437,1.437,0,0,0,1.234.632,2.554,2.554,0,0,0,2.18-1.233l.672-3.9a1.754,1.754,0,0,0-1.7-1.186,2.143,2.143,0,0,0-1.473.5,3.256,3.256,0,0,0-.969,1.475A6.082,6.082,0,0,0,72.648,83.565Z" transform="translate(871 7029)" fill="#12263f"/>
  </g>
</svg>
