<svg xmlns="http://www.w3.org/2000/svg" width="190" height="163" viewBox="0 0 190 163">
  <g id="Grupo_166714" data-name="Grupo 166714" transform="translate(-1125 -726)">
    <rect id="Rectángulo_40992" data-name="Rectángulo 40992" width="190" height="163" rx="10" transform="translate(1125 726)" fill="#6b8dfc"/>
    <path id="Trazado_156194" data-name="Trazado 156194" d="M39.219,13.7l2.742-8.07H44.3L40.07,17h-2.3l-.6-7.578L34.188,17h-2.3L31.211,5.625h2.234l.227,8.031,3.063-8.031H38.68ZM45.883,17H43.664l1.469-8.453h2.219ZM45.391,6.4a1.1,1.1,0,0,1,.344-.867,1.323,1.323,0,0,1,1.734-.039,1.1,1.1,0,0,1,.383.828,1.132,1.132,0,0,1-.324.844,1.215,1.215,0,0,1-.887.375,1.235,1.235,0,0,1-.863-.3A1.091,1.091,0,0,1,45.391,6.4ZM50.078,17H47.859L49.945,5h2.211Zm4.2,0H52.055L54.141,5h2.211Z" transform="translate(1177 798)" fill="#12263f"/>
  </g>
</svg>
