<svg xmlns="http://www.w3.org/2000/svg" xmlns:xlink="http://www.w3.org/1999/xlink" width="144" height="138" viewBox="0 0 144 138">
  <defs>
    <clipPath id="clip-path">
      <rect id="Rectángulo_41174" data-name="Rectángulo 41174" width="102.316" height="121.468" fill="none"/>
    </clipPath>
  </defs>
  <g id="Grupo_165849" data-name="Grupo 165849" transform="translate(-537 -1288)">
    <g id="Grupo_165391" data-name="Grupo 165391">
      <rect id="Rectángulo_40797" data-name="Rectángulo 40797" width="144" height="138" transform="translate(537 1288)" fill="#c4d1ff"/>
    </g>
    <g id="Grupo_165971" data-name="Grupo 165971" transform="translate(561 1296.266)">
      <g id="Grupo_165971-2" data-name="Grupo 165971" clip-path="url(#clip-path)">
        <path id="Trazado_153399" data-name="Trazado 153399" d="M35.419,12.111a10.705,10.705,0,0,1,1.488,10.57,29.139,29.139,0,0,0-1.952,5.9c-.117.812-.14,1.638-.221,2.652a10.477,10.477,0,0,1-1.042-6.628,27.386,27.386,0,0,1,1.442-5.31,12.364,12.364,0,0,0,.286-7.186" transform="translate(-3.113 -1.123)" fill="#fabc2c"/>
        <path id="Trazado_153400" data-name="Trazado 153400" d="M36.992,48.81a6.733,6.733,0,0,0-.342-4.615c-1.77-4.166-.77-7.792,2.139-11.1-1.506,2.862-.205,5.627.192,8.426a9.2,9.2,0,0,1-.8,5.947,2.862,2.862,0,0,1-1.191,1.344" transform="translate(-3.317 -3.069)" fill="#fabd2d"/>
        <path id="Trazado_153401" data-name="Trazado 153401" d="M26.493,23.338c2.791,2.128,3.537,4.427,2.529,7.709-.562,1.83-1.282,3.624-.6,5.885a6.658,6.658,0,0,1-1.9-5.84,11.361,11.361,0,0,1,.332-1.521c.592-2.11.939-4.206-.362-6.234" transform="translate(-2.452 -2.164)" fill="#fabc2c"/>
        <path id="Trazado_153402" data-name="Trazado 153402" d="M43.729,23.842c1.7,2.147,1.844,3.922.6,6.042-.444.756-.952,1.472-1.4,2.226a4.408,4.408,0,0,0-.658,2.643,4.7,4.7,0,0,1-.425-4.233,13.13,13.13,0,0,1,1.3-2.551,4.99,4.99,0,0,0,.587-4.126" transform="translate(-3.852 -2.211)" fill="#fabd2d"/>
        <path id="Trazado_153403" data-name="Trazado 153403" d="M21.221,100.044a4.117,4.117,0,0,0-.384-3.741,34.474,34.474,0,0,0-3.111-4.081c-1.59-2-3.185-4.071-3.476-6.649-.663-5.9.481-11.363,4.664-16.192a36.542,36.542,0,0,0,.318,4.867,6.936,6.936,0,0,0,.553,1.69,2.354,2.354,0,0,0,3.028,1.371A2.393,2.393,0,0,0,24,74.1a29.882,29.882,0,0,1-1.64-4.855,20.008,20.008,0,0,1,2.53-14.093c2.736-4.789,2.49-9.576.639-14.5-.1-.277-.237-.544-.367-.811a2.284,2.284,0,0,1-.275-.71,16.531,16.531,0,0,1,2.859,4.456c1.83,3.84,1.772,7.831,1.018,11.906a59.893,59.893,0,0,0-1.295,8.712,9.333,9.333,0,0,0,.214,2.885,3.749,3.749,0,0,0,7.264.265,7.2,7.2,0,0,0-.367-5.635c-.739-1.624-1.618-3.182-2.248-4.858a12.758,12.758,0,0,1-.419-8.321c1.007-3.384,1.975-6.786,3.145-10.115,1.633-4.644.842-9.008-1.157-13.3-.157-.338-.332-.667-.512-.992-.157-.283-.332-.555-.578-.963,1.948,1.445,4.446,5.356,5.439,8.493a23.681,23.681,0,0,1,.09,12.9c-.293,1.229-.588,2.459-.854,3.694a6.073,6.073,0,0,0,.6,4.011,3.4,3.4,0,0,0,3.669,1.749c1.316-.188,2.011-.876,2.316-2.479a17.638,17.638,0,0,0-.489-8.941c-3.152-9.5-1.819-18.332,3.777-26.575A24.3,24.3,0,0,1,49.768,12.8c.243.445-.109.67-.244.93a42.33,42.33,0,0,0-4.277,12.743,13.352,13.352,0,0,0,1.127,7.5A53.964,53.964,0,0,1,48.78,40.81a17.185,17.185,0,0,1-.146,9.573c-.808,2.745-1.835,5.426-2.449,8.231-.6,2.734-.381,5.279,1.729,7.352a5.321,5.321,0,0,0,8.069-.475A8.85,8.85,0,0,0,57.8,57.515c-1.163-4.583-2.984-8.954-4.475-13.432A28.38,28.38,0,0,1,51.416,33.5,22.144,22.144,0,0,1,55.483,22.1c-.262,1.621-.562,3.238-.777,4.866a28.614,28.614,0,0,0-.124,8.675,6.247,6.247,0,0,0,1.169,2.745,2.456,2.456,0,0,0,3.877.341,4.746,4.746,0,0,0,1.441-3.289c.3-3.483-.539-6.811-1.464-10.109-.864-3.077-1.938-6.095-2.781-9.177-1.36-4.975.338-9.27,3.272-13.238-.227.662-.461,1.322-.679,1.987a13.614,13.614,0,0,0,.2,9.714c1.629,3.952,3.271,7.9,4.85,11.871.576,1.447,1.013,2.951,1.474,4.442,1.239,4.008-.036,7.54-2.108,10.915q-.7,1.142-1.379,2.3a7.093,7.093,0,0,0-.58,6.2,32.8,32.8,0,0,1,2.167,10.669,13.739,13.739,0,0,1-1.1,5.765,7.46,7.46,0,0,0-.3.84c-.7,2.237.044,3.833,2.008,4.295A3.268,3.268,0,0,0,68.987,69a8.944,8.944,0,0,0-.6-3.938A67.012,67.012,0,0,1,65.63,54.042a11.129,11.129,0,0,1,2.032-8.866A13.353,13.353,0,0,0,70.785,38.6c.093-.766.057-1.525.113-2.293,1.548,3.219,2.193,6.489.632,9.927a21.321,21.321,0,0,0-.144,17.342,6.154,6.154,0,0,0,1.194,2,1.939,1.939,0,0,0,2.015.661,1.875,1.875,0,0,0,1.226-1.6,4.9,4.9,0,0,0-.68-3.427,19.47,19.47,0,0,1-2.152-5.6,9.739,9.739,0,0,1,3.279-9.217,14.961,14.961,0,0,0-.218,8.1,29.42,29.42,0,0,0,2.455,5.366c1.287,2.492,2.493,5,2.429,7.909a.541.541,0,0,1-.543.318c-3.972.22-6.417,2.673-8.366,5.786-1.663,2.657-2.906,5.541-4.3,8.34a43.946,43.946,0,0,1-5.876,9.206,8.616,8.616,0,0,1-2.079,1.846c-.187.112-.4.22-.6,0a4.251,4.251,0,0,1-.19-1.979,14.687,14.687,0,0,0-2.693-8.487,3.662,3.662,0,0,0-1.2-1.25,2.015,2.015,0,0,0-.19,1.472,7.967,7.967,0,0,1-1.7,5.314,3.863,3.863,0,0,1-.491.607c-.391.355-.846.779-1.369.565-.58-.237-.3-.842-.233-1.292a20.651,20.651,0,0,0-4.192-16.179c-1.318-1.749-2.877-3.317-4.231-5.049a15.032,15.032,0,0,1-1.432-2.131,6.89,6.89,0,0,1-.8-5.506,6.089,6.089,0,0,0-1.9,4.168,18.8,18.8,0,0,0,1.076,6.8c.36,1.175.8,2.33,1.11,3.515a11.787,11.787,0,0,1-.373,8.193A5.687,5.687,0,0,1,39.242,83.7c-1.275,1.288-2.481,1.1-3.265-.518a6.785,6.785,0,0,1-.414-5.105,1.928,1.928,0,0,0,.2-.867,6.319,6.319,0,0,0-3.327,3.118,8.526,8.526,0,0,0-.716,5.118,25.489,25.489,0,0,1,.563,4.2c-.014.7-.118,1.4-.912,1.61-.873.229-1.3-.4-1.6-1.07A18.492,18.492,0,0,0,28.5,87.709a5.416,5.416,0,0,0-3.8-2.49c-.19.382.142.56.256.794a7.287,7.287,0,0,1,.856,3.431,51.112,51.112,0,0,1-.2,5.575,6.851,6.851,0,0,0,1.56,5.427c.281.349.748.663.541,1.244a1.638,1.638,0,0,1-1.193.041,43.788,43.788,0,0,1-4.333-1.021c-.391-.1-.8-.22-.964-.666" transform="translate(-1.305 -0.271)" fill="#fba028"/>
        <path id="Trazado_153404" data-name="Trazado 153404" d="M59.8,100.02c3.155-2.462,5.22-5.773,7.1-9.212,1.856-3.393,3.282-7.012,5.311-10.316,1.759-2.863,3.916-5.269,7.458-5.887.583-.1,1.18-.128,1.77-.189a12.739,12.739,0,0,1,10.589,5c2.117,2.692,2.091,5.642,1.388,8.7-1.271,5.526-4.321,10.091-8.075,14.2-7.893,8.649-17.556,14.164-29.191,15.926-10.446,1.583-20.188-.687-29.324-5.833a53.933,53.933,0,0,1-6.417-4.251c-.413-.318-1.09-.573-.768-1.295.344-.774.974-.455,1.542-.295.177.049.36.073.541.109a31.664,31.664,0,0,0,6.52,1.534c.338-.265.714-.142,1.072-.083a35.116,35.116,0,0,0,5.991.419,39.91,39.91,0,0,0,8.722-1.02,38.89,38.89,0,0,0,14.426-6.77,2.521,2.521,0,0,1,1.344-.735" transform="translate(-1.814 -6.901)" fill="#eb0b19"/>
        <path id="Trazado_153405" data-name="Trazado 153405" d="M92.72,72.836a3.617,3.617,0,0,1,2.786-.334,4.22,4.22,0,0,0,3.755-.98,12.33,12.33,0,0,1,9.417-3,2.889,2.889,0,0,1,1.546.577c.2.166.393.386.241.672-.119.224-.366.234-.592.2a3.59,3.59,0,0,1-.541-.132,7.252,7.252,0,0,0-8.911,4.813,3.443,3.443,0,0,0,.162,2.287c.176.444.409,1.022-.126,1.309-.588.315-.713-.379-.925-.7A9.742,9.742,0,0,0,93.5,73.267a4.241,4.241,0,0,1-.631-.214c-.053-.022-.077-.11-.147-.217" transform="translate(-8.599 -6.347)" fill="#42771b"/>
        <path id="Trazado_153406" data-name="Trazado 153406" d="M41.2,0a11.21,11.21,0,0,1,2.3,10.864,43.62,43.62,0,0,0-1.53,5.578,9.3,9.3,0,0,0,.09,3.481,3.107,3.107,0,0,1-.957-1.536c-1.218-3.1-.891-6.2-.027-9.306.839-3.01,1.388-6.024.121-9.082" transform="translate(-3.738)" fill="#fbbd2d"/>
        <path id="Trazado_153407" data-name="Trazado 153407" d="M74.952,6.248c-1.052,3.095.479,5.855,1.054,8.725a8.649,8.649,0,0,1-1.56,7.567c.64-3.266-1.37-5.645-1.812-8.423-.477-3,.7-5.478,2.318-7.87" transform="translate(-6.726 -0.579)" fill="#fabd2d"/>
        <path id="Trazado_153408" data-name="Trazado 153408" d="M30.486,39.941A7.73,7.73,0,0,1,29.425,32.7c.162-.57.359-1.13.551-1.692a7.462,7.462,0,0,0-.138-5.628c2.26,2.207,3.242,4.737,2.1,7.827-.41,1.113-.835,2.221-1.231,3.339a8.719,8.719,0,0,0-.22,3.4" transform="translate(-2.688 -2.354)" fill="#fabc2c"/>
        <path id="Trazado_153409" data-name="Trazado 153409" d="M60.293,99.071a37.114,37.114,0,0,1-16.6,7.992,38.743,38.743,0,0,1-14.958.2A8.645,8.645,0,0,1,26.4,99.51a14.7,14.7,0,0,0-.271-6.636,5.98,5.98,0,0,0-1.3-2.184,5.179,5.179,0,0,1,4.818,2.341A20.916,20.916,0,0,1,31.1,95.911c.209.488.5.987,1.149.841.682-.154.738-.718.746-1.317a26.034,26.034,0,0,0-.588-4.281c-.56-3.7.964-7.526,5.033-8.864a9.4,9.4,0,0,0-.9,3.655,7.222,7.222,0,0,0,.9,3.181,1.3,1.3,0,0,0,2.274.364A6.931,6.931,0,0,0,41.9,84.747a13.835,13.835,0,0,0-.759-6.136,30.763,30.763,0,0,1-1.788-6.523c-.372-2.8-.241-5.523,2.121-7.587.132-.115.282-.21.422-.313.09.1.183.175.171.2-1.4,3.154,0,5.663,1.822,8.1,1.909,2.55,4.4,4.65,5.918,7.493,2.179,4.078,3.39,8.369,2.685,13.056a12.115,12.115,0,0,1-.374,2.125A2.965,2.965,0,0,0,53.8,94.111a8.854,8.854,0,0,0,1.79-6.5c-.024-.332-.232-.839.215-.989.32-.106.551.323.771.56a14.364,14.364,0,0,1,3.681,8.869c.085,1,.028,2.01.036,3.015" transform="translate(-2.303 -5.953)" fill="#fcd430"/>
        <path id="Trazado_153410" data-name="Trazado 153410" d="M27.168,110.391a42.363,42.363,0,0,0,13.653,1.864c9.009-.354,16.42-4.177,22.895-10.246A35,35,0,0,0,71.84,89.728c.688-1.624.733-1.6,2.526-1.446a10.7,10.7,0,0,1,2.494.568c.53.179.709.383.4.954-6.53,12.249-15.9,20.931-29.983,23.44-6.874,1.226-13.562.022-20.021-2.528-.1-.041-.213-.068-.319-.1-.049-.2-.005-.309.228-.224" transform="translate(-2.497 -8.181)" fill="#fcfcfc"/>
        <path id="Trazado_153411" data-name="Trazado 153411" d="M78.829,84.333a13.375,13.375,0,0,1,6.424-7.018,7.653,7.653,0,0,1,1.03-.406c.418-.132.971-.39,1.238.034.321.511-.356.71-.621.994a12.311,12.311,0,0,0-2.876,5.813c-.215.934-.52,1.244-1.533.894a10.5,10.5,0,0,0-3.663-.312" transform="translate(-7.31 -7.114)" fill="#fbfbfa"/>
        <path id="Trazado_153412" data-name="Trazado 153412" d="M26.982,112.6c-.076.074-.152.149-.228.224a5.821,5.821,0,0,1-1.841-.833,4.8,4.8,0,0,1,2.069.609" transform="translate(-2.31 -10.385)" fill="#f29d9c"/>
        <path id="Trazado_153413" data-name="Trazado 153413" d="M24.374,54.033l-.205.209a5.4,5.4,0,0,1-2-.986,6.812,6.812,0,0,1,2.2.778" transform="translate(-2.056 -4.939)" fill="#f4807e"/>
        <path id="Trazado_153414" data-name="Trazado 153414" d="M51.158,123.426a51.158,51.158,0,1,1,51.158-51.158,51.216,51.216,0,0,1-51.158,51.158m0-97.174A46.016,46.016,0,1,0,97.174,72.268,46.069,46.069,0,0,0,51.158,26.251" transform="translate(0 -1.958)" fill="#fb0d1b"/>
        <rect id="Rectángulo_41173" data-name="Rectángulo 41173" width="96.711" height="5.142" transform="translate(20.438 107.684) rotate(-48.555)" fill="#fb0d1b"/>
      </g>
    </g>
  </g>
</svg>
