<svg xmlns="http://www.w3.org/2000/svg" xmlns:xlink="http://www.w3.org/1999/xlink" width="85" height="85" viewBox="0 0 85 85">
  <defs>
    <clipPath id="clip-path">
      <rect id="Rectángulo_41176" data-name="Rectángulo 41176" width="54.5" height="54.547" fill="none"/>
    </clipPath>
  </defs>
  <g id="Grupo_165975" data-name="Grupo 165975" transform="translate(-285 -8226)">
    <circle id="Elipse_4860" data-name="Elipse 4860" cx="42.5" cy="42.5" r="42.5" transform="translate(285 8226)" fill="#ff9fa3"/>
    <g id="Grupo_165974" data-name="Grupo 165974" transform="translate(300 8241)">
      <g id="Grupo_165973" data-name="Grupo 165973" transform="translate(0 0)" clip-path="url(#clip-path)">
        <path id="Trazado_153419" data-name="Trazado 153419" d="M8.6,46.02c-.6.35-.862.325-1.3-.154A26.654,26.654,0,0,1,.18,30.463,27,27,0,0,1,15.335,2.769,27.23,27.23,0,0,1,53.759,20.953a25,25,0,0,1,.643,4.091c.006.084-.014.181.1.218v4.153a27.185,27.185,0,0,1-.482,3.722,27.039,27.039,0,0,1-5.727,11.676,27.652,27.652,0,0,1-7.074,6.052A26.775,26.775,0,0,1,31.1,54.408c-.609.084-1.229.033-1.838.139H25.214a11.432,11.432,0,0,0-2.067-.311A27.349,27.349,0,0,1,9.925,48.342c-.44-.358-.477-.664-.188-1.209a.753.753,0,0,1,1.174-.2c.526.36,1.011.777,1.534,1.146a25.359,25.359,0,0,0,11.791,4.534A24.968,24.968,0,0,0,39.068,49.9a25.281,25.281,0,0,0,9.8-9.076,18.939,18.939,0,0,0,1.583-2.947,23.752,23.752,0,0,0,2.18-8.079,25.054,25.054,0,0,0-3.688-15.928A25.362,25.362,0,0,0,38.1,4.184a24.992,24.992,0,0,0-8.907-2.327A24.991,24.991,0,0,0,15.507,4.623a25.329,25.329,0,0,0-10.371,9.9,24.831,24.831,0,0,0-3.174,9.2,25.588,25.588,0,0,0,.784,10.74,27.956,27.956,0,0,0,1.265,3.386A23.56,23.56,0,0,0,7.2,43.1c.449.57.93,1.113,1.417,1.651.437.483.421.882-.013,1.271" transform="translate(0 0)"/>
        <path id="Trazado_153420" data-name="Trazado 153420" d="M53.009,61.673a20.248,20.248,0,0,1-2.762,4.7,25.022,25.022,0,0,1-15.566,9.8A25.262,25.262,0,0,1,13.8,71.163q-.212-.161-.42-.327a.813.813,0,0,0-1.187.038l-1.137-1.114a.944.944,0,0,0-.194-1.32,25.114,25.114,0,0,1-4.336-6.375c-.06-.125-.1-.261-.15-.391.259-.037.327.175.418.336A26.475,26.475,0,0,0,20.158,73.595a26.239,26.239,0,0,0,6.91,1.659,26.291,26.291,0,0,0,18.41-5.149,26.931,26.931,0,0,0,7.062-8c.109-.186.158-.456.469-.431" transform="translate(-2.454 -23.739)" fill="#e5485d"/>
        <path id="Trazado_153421" data-name="Trazado 153421" d="M51.533,38.908a5.012,5.012,0,0,0-.8,1.232A25.236,25.236,0,0,1,45.9,45.958,25.754,25.754,0,0,1,35.16,51.811a29.625,29.625,0,0,1-4.99.854,25.594,25.594,0,0,1-7.83-.577A26.291,26.291,0,0,1,7.8,43.066a26.625,26.625,0,0,1-2.713-3.978.888.888,0,0,0-.187-.181,23.2,23.2,0,0,1-2.112-7.2A24.6,24.6,0,0,1,3.938,19.963,24.927,24.927,0,0,1,20.256,3.9,24.592,24.592,0,0,1,42.189,6.766a24.813,24.813,0,0,1,11.275,17,25.055,25.055,0,0,1-1.781,14.866c-.042.1-.1.186-.149.279" transform="translate(-0.978 -0.974)" fill="#fe5876"/>
        <path id="Trazado_153422" data-name="Trazado 153422" d="M46.5,15.406c.312.424.784.715,1.016,1.207a2.51,2.51,0,0,0,.707,1.8,20.793,20.793,0,0,1,3.947,10.241A21.042,21.042,0,0,1,50.388,39.74a1.784,1.784,0,0,1-.229.418c-.552.605-.929,1.335-1.417,1.986a22.007,22.007,0,0,1-14.46,8.805,23.558,23.558,0,0,1-2.639.256c-.207.011-.528.121-.58-.268a1.864,1.864,0,0,0,.513-1.508c-.02-.389,0-.78,0-1.169a2.03,2.03,0,0,0-.054-.528c-.094-.346-.244-.643-.666-.636-.392.007-.539.286-.629.614a2.187,2.187,0,0,0-.061.579c0,.425.009.851,0,1.276a1.749,1.749,0,0,0,.494,1.356c.009.391-.306.29-.494.284a22.27,22.27,0,0,1-2.645-.246,22.192,22.192,0,0,1-15.059-9.57,8.245,8.245,0,0,0-.863-1.211A16.541,16.541,0,0,1,10.025,35.9a19.976,19.976,0,0,1-.594-5.214,21.664,21.664,0,0,1,1.857-8.4A21.44,21.44,0,0,1,28.182,9.707,21.16,21.16,0,0,1,40.8,11.97,19.688,19.688,0,0,1,45,14.863a1.625,1.625,0,0,0,1.509.543" transform="translate(-3.629 -3.667)" fill="#e3edf8"/>
        <path id="Trazado_153423" data-name="Trazado 153423" d="M45.573,14.5a.926.926,0,0,1-1.284-.151A20.563,20.563,0,0,0,33.054,9.005a20.749,20.749,0,0,0-16.835,4.807A20.617,20.617,0,0,0,8.9,26.858a20.373,20.373,0,0,0,1.863,12.349,26.446,26.446,0,0,0,4.483,6.04A21.133,21.133,0,0,0,27.158,51a21.119,21.119,0,0,0,20.727-9.8c.413-.661.828-1.32,1.218-1.995a19.472,19.472,0,0,0,1.934-6.528,20.965,20.965,0,0,0-2.425-12.837,19.584,19.584,0,0,0-1.935-2.92.916.916,0,0,1-.089-1.212c.6-.384.913-.338,1.355.231a22.2,22.2,0,0,1,4.8,12.451A22.78,22.78,0,0,1,38.907,51.1a21.453,21.453,0,0,1-11.7,1.642c-8.96-1.27-15.224-6.149-18.613-14.5a22.632,22.632,0,0,1,5.354-24.553A22.106,22.106,0,0,1,26.691,7.407a22.515,22.515,0,0,1,18.637,5.719c.563.5.6.737.246,1.376" transform="translate(-2.697 -2.763)"/>
        <path id="Trazado_153424" data-name="Trazado 153424" d="M27.587,32.222A.82.82,0,0,1,26.4,32.11c-1.468-1.313-2.947-2.612-4.407-3.933a2.4,2.4,0,1,1,3.2-3.572q4.536,4.027,9.06,8.069a1.494,1.494,0,0,0,1.925-.046c1.457-1.478,2.9-2.971,4.375-4.431a2.382,2.382,0,0,1,4.013,1.081,2.344,2.344,0,0,1-.652,2.343c-1.573,1.589-3.126,3.2-4.717,4.767-.477.471-.341,1.127-.634,1.646-.079.14.169.244.285.341q3.971,3.338,7.945,6.671a5.484,5.484,0,0,1,.439.387A.792.792,0,0,1,46.2,46.628c-.173-.123-.33-.269-.493-.405q-3.932-3.3-7.859-6.609a.519.519,0,0,0-.72-.074,3.5,3.5,0,0,1-5.179-2.193,1.226,1.226,0,0,0-.4-.661c-.816-.71-1.621-1.434-2.428-2.155-.537-.481-.579-.7-.271-1.337a.765.765,0,0,1,1.143-.17c.539.348.939.862,1.457,1.234.219.154.348.573.643.445s.462-.512.662-.8c.068-.1-.007-.2-.079-.286-.115-.133-.249-.25-.375-.374q-2.249-1.986-4.484-3.989c-1.132-1.019-2.294-2.005-3.4-3.05a3.3,3.3,0,0,0-.445-.378.674.674,0,0,0-.921.044.665.665,0,0,0,.043.959c.374.375.777.724,1.18,1.07,1.1.948,2.169,1.932,3.263,2.886.618.539.614,1.038.053,1.435" transform="translate(-8.125 -9.208)"/>
        <path id="Trazado_153425" data-name="Trazado 153425" d="M51.456,59.253a19.64,19.64,0,0,1-4.36,6.1,21.1,21.1,0,0,1-12.6,5.914,21.384,21.384,0,0,1-21.339-11.86.689.689,0,0,1-.035-.153A16.451,16.451,0,0,1,14.5,61.18a22.511,22.511,0,0,0,4.393,4.481,21.727,21.727,0,0,0,8.762,4.061,26.088,26.088,0,0,0,3.918.5c.169.01.358.057.5-.092a.277.277,0,0,1,.427,0,1.236,1.236,0,0,0,.875.085,24.272,24.272,0,0,0,6.045-1.173,22.3,22.3,0,0,0,7.245-4.179,24.561,24.561,0,0,0,4.518-5.294c.076-.117.123-.259.272-.312" transform="translate(-5.05 -22.809)" fill="#d4dff1"/>
        <path id="Trazado_153426" data-name="Trazado 153426" d="M32.41,35.392c-.426-.367-.862-.721-1.274-1.1a.906.906,0,0,0-1.278-.086c-.443-.3-.729-.8-1.263-.972.419-.554.409-.841-.122-1.317-1.383-1.242-2.777-2.47-4.171-3.7-.3-.261-.614-.512-.574-.957a.8.8,0,0,1,1.359-.493c.749.621,1.463,1.284,2.19,1.932q2.953,2.631,5.9,5.265a2.98,2.98,0,0,1,.213.235,1.832,1.832,0,0,1-.983,1.2" transform="translate(-9.132 -10.216)" fill="#405b6c"/>
        <path id="Trazado_153427" data-name="Trazado 153427" d="M43.993,74.388h-.427a.852.852,0,0,1-.586-.891c-.008-.763-.014-1.527,0-2.289.012-.56.311-.876.784-.883.5-.008.8.317.812.91.015.745,0,1.491.006,2.236a.942.942,0,0,1-.591.918" transform="translate(-16.541 -27.071)" fill="#020202"/>
        <path id="Trazado_153428" data-name="Trazado 153428" d="M44.574,13.864c0,.406.021.814-.006,1.218a.791.791,0,0,1-1.581-.009q-.039-1.244,0-2.489a.738.738,0,0,1,.768-.778.777.777,0,0,1,.819.787,1.013,1.013,0,0,1,0,.106q0,.583,0,1.166h-.006" transform="translate(-16.541 -4.544)" fill="#020202"/>
        <path id="Trazado_153429" data-name="Trazado 153429" d="M13.806,43.055c.389,0,.778-.02,1.165,0a.775.775,0,0,1,.812.795.766.766,0,0,1-.809.8q-1.218.039-2.437,0a.768.768,0,0,1-.812-.793.792.792,0,0,1,.809-.8,1.013,1.013,0,0,1,.106,0h1.166v0" transform="translate(-4.513 -16.571)" fill="#020202"/>
        <path id="Trazado_153430" data-name="Trazado 153430" d="M72.271,43.055c.406,0,.814-.02,1.218,0a.776.776,0,0,1,.814.793.768.768,0,0,1-.808.8c-.811.026-1.625.026-2.436,0a.766.766,0,0,1-.814-.792.774.774,0,0,1,.807-.8c.4-.026.812-.006,1.218-.006" transform="translate(-27.041 -16.571)" fill="#020202"/>
        <path id="Trazado_153431" data-name="Trazado 153431" d="M48.775,36.219c1.178-1.2,2.354-2.4,3.538-3.594a.824.824,0,0,1,1.145-.066.809.809,0,0,1,0,1.148c-1.229,1.249-2.476,2.479-3.716,3.716a2.435,2.435,0,0,1-.972-1.2" transform="translate(-18.776 -12.456)" fill="#405b6b"/>
        <path id="Trazado_153432" data-name="Trazado 153432" d="M41.19,43.266a1.907,1.907,0,1,1,3.805,0,2.582,2.582,0,0,1-3.805,0" transform="translate(-15.855 -15.873)" fill="#fe5875"/>
        <path id="Trazado_153433" data-name="Trazado 153433" d="M41.191,44.536a4.909,4.909,0,0,0,1.414.655,2.724,2.724,0,0,0,2.115-.5A2.5,2.5,0,0,1,45,44.537a1.9,1.9,0,0,1-3.805,0" transform="translate(-15.856 -17.144)" fill="#e5485d"/>
        <path id="Trazado_153434" data-name="Trazado 153434" d="M37.846,40.183l.983-1.2c.12.1.234.211.362.3.31.221.3.434,0,.656a1.114,1.114,0,0,0-.179.193c-.55.694-.55.7-1.169.045" transform="translate(-14.569 -15.008)" fill="#2d4355"/>
        <path id="Trazado_153435" data-name="Trazado 153435" d="M48.443,38.636a11.2,11.2,0,0,1,.971,1.2c-.52.612-.52.612-1.033.058l-.036-.038c-.592-.627-.592-.627.1-1.224" transform="translate(-18.444 -14.873)" fill="#2d4355"/>
      </g>
    </g>
  </g>
</svg>
