<svg xmlns="http://www.w3.org/2000/svg" width="190" height="163" viewBox="0 0 190 163">
  <g id="Grupo_166715" data-name="Grupo 166715" transform="translate(-390 -911)">
    <rect id="Rectángulo_40993" data-name="Rectángulo 40993" width="190" height="163" rx="10" transform="translate(390 911)" fill="#6b8dfc"/>
    <path id="Trazado_156195" data-name="Trazado 156195" d="M27.816,13.7l2.742-8.07h2.336L28.668,17h-2.3l-.6-7.578L22.785,17h-2.3L19.809,5.625h2.234l.227,8.031,3.063-8.031h1.945Zm8.93-5.3a3.39,3.39,0,0,1,1.926.574A3.234,3.234,0,0,1,39.859,10.5a4.762,4.762,0,0,1,.27,2.176,5.143,5.143,0,0,1-1.4,3.262,3.96,3.96,0,0,1-3.02,1.215A3.38,3.38,0,0,1,33.8,16.59a3.222,3.222,0,0,1-1.187-1.527,4.657,4.657,0,0,1-.273-2.156,5.3,5.3,0,0,1,1.422-3.328A3.878,3.878,0,0,1,36.746,8.391ZM34.52,13.706a1.95,1.95,0,0,0,.352,1.182,1.168,1.168,0,0,0,.945.449A1.712,1.712,0,0,0,37.41,14.4a4.647,4.647,0,0,0,.539-2.531,2.122,2.122,0,0,0-.363-1.2,1.149,1.149,0,0,0-.949-.464,1.715,1.715,0,0,0-1.574.924A4.6,4.6,0,0,0,34.52,13.706ZM46,16.125a2.919,2.919,0,0,1-2.328,1.031,2.172,2.172,0,0,1-1.844-.875,3.2,3.2,0,0,1-.484-2.266l.914-5.469h2.2l-.93,5.5a2.175,2.175,0,0,0-.008.485.8.8,0,0,0,.867.806,2.014,2.014,0,0,0,1.7-.79l1.055-6h2.219L47.887,17H45.832ZM51.855,17H49.637L51.723,5h2.211Zm6.063-8.617a2.4,2.4,0,0,1,1.906.945L60.652,5h2.211L60.785,17H58.816l.125-.906a2.736,2.736,0,0,1-2.2,1.07,2.433,2.433,0,0,1-1.383-.414,2.607,2.607,0,0,1-.918-1.168,4.7,4.7,0,0,1-.355-1.7,6.4,6.4,0,0,1,.023-.953l.047-.352a6.767,6.767,0,0,1,.723-2.281,3.766,3.766,0,0,1,1.313-1.461A3.094,3.094,0,0,1,57.918,8.383Zm-1.6,4.547a6.327,6.327,0,0,0-.039,1q.078,1.375,1.109,1.4A1.885,1.885,0,0,0,59,14.453l.6-3.359a1.248,1.248,0,0,0-1.219-.875,1.606,1.606,0,0,0-1.34.621A4.176,4.176,0,0,0,56.316,12.93Z" transform="translate(445 983)" fill="#12263f"/>
  </g>
</svg>
