<svg xmlns="http://www.w3.org/2000/svg" xmlns:xlink="http://www.w3.org/1999/xlink" width="85" height="85" viewBox="0 0 85 85">
  <defs>
    <clipPath id="clip-path">
      <rect id="Rectángulo_41182" data-name="Rectángulo 41182" width="58" height="58" transform="translate(-0.338 -0.339)" fill="none"/>
    </clipPath>
  </defs>
  <g id="Grupo_165989" data-name="Grupo 165989" transform="translate(-338 -10152)">
    <circle id="Elipse_4864" data-name="Elipse 4864" cx="42.5" cy="42.5" r="42.5" transform="translate(338 10152)" fill="#ff9fa3"/>
    <g id="Grupo_165988" data-name="Grupo 165988" transform="translate(352.338 10166.339)">
      <g id="Grupo_165987" data-name="Grupo 165987" clip-path="url(#clip-path)">
        <path id="Trazado_153577" data-name="Trazado 153577" d="M57.323,18.63c-.189.082-.156.28-.207.426a4.054,4.054,0,0,1-3.822,2.827c-1.993.028-3.987.022-5.98,0-.388,0-.529.1-.629.484a6.036,6.036,0,0,1-6.48,4.414,1.14,1.14,0,0,1-1-1.724,11.064,11.064,0,0,0,.82-2.77c.04-.273.045-.4-.3-.4-2.459.012-4.918.006-7.378.006h-.615a16.038,16.038,0,0,1,.9,3.235,12.534,12.534,0,0,1-1.326,7.839,3.017,3.017,0,0,0-.362,1.591,10.952,10.952,0,0,1-2.045,6.987,10.325,10.325,0,0,1-2.794,2.7.6.6,0,0,0-.3.739,2.561,2.561,0,0,0,2.072,2.084c1.386.274,2.811.347,4.174.729a10.519,10.519,0,0,1,7.758,7.84,1.218,1.218,0,0,1-.731,1.688H.847c-.718-.245-.905-.548-.832-1.343a7.5,7.5,0,0,1,1.141-3.241,10.989,10.989,0,0,1,8.37-5.421c.813-.1,1.627-.217,2.43-.382a2.412,2.412,0,0,0,1.988-1.746.756.756,0,0,0-.334-.953,10.948,10.948,0,0,1-4.562-7.164,11.4,11.4,0,0,1-.19-2.727,2.517,2.517,0,0,0-.317-1.339,12.86,12.86,0,0,1,2.064-14.884,12.6,12.6,0,0,1,6.518-3.7c.79-.181.791-.189.791-1,0-2.982-.02-5.965.008-8.947a4.307,4.307,0,0,1,2.619-4.2,3.448,3.448,0,0,1,1.47-.269q5.284,0,10.568,0c.909,0,1.258.331,1.352,1.264A1.33,1.33,0,0,1,32.384,2.47q-4.918.015-9.838,0a1.857,1.857,0,0,0-1.7.771,2.11,2.11,0,0,0-.367,1.212c-.006,4.342-.015,8.683.006,13.024a1.782,1.782,0,0,0,2.019,1.986q8.916,0,17.831,0a5.329,5.329,0,0,1,1,.047,1.291,1.291,0,0,1,1.165,1.344,9.573,9.573,0,0,1-.253,2.606.985.985,0,0,0-.034.64,3.431,3.431,0,0,0,2.107-2.248,5.249,5.249,0,0,0,.19-.986,1.426,1.426,0,0,1,1.52-1.393c.819-.034,1.639-.009,2.459-.011,1.472,0,2.944,0,4.416,0a1.754,1.754,0,0,0,2-1.986c.015-2.907,0-5.814,0-8.72,0-1.416.008-2.832,0-4.249a1.8,1.8,0,0,0-2.036-2.031c-3.112-.012-6.223,0-9.335,0-.243,0-.485.007-.726-.012a1.247,1.247,0,0,1-1.3-1.357c.132-.8.426-1.086,1.21-1.088C46.347,0,49.973-.015,53.6.021a3.718,3.718,0,0,1,3.664,3.19.43.43,0,0,0,.062.209Z" transform="translate(0 0)"/>
        <path id="Trazado_153578" data-name="Trazado 153578" d="M55.226,2.087c.92-.028,1.842.055,2.76-.044A1.147,1.147,0,0,0,59.325,3.2q5,0,10.007,0a1.907,1.907,0,0,1,2.117,2.1q0,6.6,0,13.193a1.879,1.879,0,0,1-2.039,2.059c-2.311.009-4.621,0-6.932,0-1.022,0-1.369.326-1.443,1.341a3.738,3.738,0,0,1-2.777,3.4c.128-.7.28-1.384.373-2.078a10.855,10.855,0,0,0,.084-1.56,1.063,1.063,0,0,0-.988-1.09,4.066,4.066,0,0,0-.558-.015H39c-1.634,0-2.309-.674-2.309-2.3q0-6.4,0-12.8a1.962,1.962,0,0,1,2.256-2.249h9.726c.978,0,1.257-.206,1.519-1.118a26.146,26.146,0,0,0,2.764-.06c.173.064.162.236.21.369a.953.953,0,0,0,1.776.085c.079-.142.094-.329.283-.393" transform="translate(-16.362 -0.904)" fill="#fecc69"/>
        <path id="Trazado_153579" data-name="Trazado 153579" d="M37.756,53.968a13.8,13.8,0,0,1-.467,4.694,8.731,8.731,0,0,1-16.871-1.448,10.77,10.77,0,0,1-.115-1.558c-.016-1.378.068-2.762-.03-4.134a2.907,2.907,0,0,1,.951-2.365,11.128,11.128,0,0,1,4.3-2.816.634.634,0,0,1,.7.107A19.822,19.822,0,0,0,37.4,50.887c.3.024.368.122.364.4-.014.894,0,1.788,0,2.682" transform="translate(-9.036 -20.639)" fill="#fecfc6"/>
        <path id="Trazado_153580" data-name="Trazado 153580" d="M39.555,94.585H5.583c-.728,0-.739-.006-.394-.672a8.483,8.483,0,0,1,6.6-4.687,26.986,26.986,0,0,0,3.621-.64c.207-.062.311.043.438.153a9.681,9.681,0,0,0,12.733,0c.123-.108.231-.217.439-.157,1.364.39,2.786.459,4.17.742a8.495,8.495,0,0,1,6.369,5.255" transform="translate(-2.216 -39.496)" fill="#6d91ab"/>
        <path id="Trazado_153581" data-name="Trazado 153581" d="M17.108,41.582a9.68,9.68,0,0,1,.344-3.964,10.449,10.449,0,0,1,7.626-7.36c.485-.134.647-.054.624.488A4.167,4.167,0,0,0,30,35.362c2.085-.006,4.171.015,6.257-.016a.779.779,0,0,1,.834.535,10.53,10.53,0,0,1,.986,5.808c-1.2-.3-2.416-.18-3.6-.393a17.668,17.668,0,0,1-8.581-4.019,1.813,1.813,0,0,0-1.928-.416,13.114,13.114,0,0,0-6.43,4.328c-.111.136-.17.332-.424.394" transform="translate(-7.6 -13.468)" fill="#c58965"/>
        <path id="Trazado_153582" data-name="Trazado 153582" d="M32.336,86.086a7.48,7.48,0,0,1-4.343-1.432c-.243-.174-.316-.294-.1-.557a3.744,3.744,0,0,0,.755-1.538c.074-.315.2-.326.467-.243a10.612,10.612,0,0,0,6.523,0c.34-.107.418.013.486.283a3.851,3.851,0,0,0,.767,1.531c.213.255.114.355-.1.51a7.5,7.5,0,0,1-4.455,1.448" transform="translate(-12.382 -36.689)" fill="#fecfc6"/>
        <path id="Trazado_153583" data-name="Trazado 153583" d="M68.319,1.236a1.258,1.258,0,0,1-.8,1.053c-.73.249-1.363-.226-1.472-1.114C66.2.5,66.543.157,67.094.12c.593-.039.914.253,1.224,1.115" transform="translate(-29.455 -0.052)" fill="#010101"/>
        <path id="Trazado_153584" data-name="Trazado 153584" d="M48.3,15.354c0,1.416,0,2.831,0,4.246,0,.814-.44,1.319-1.117,1.315s-1.109-.518-1.116-1.331c-.008-.931-.027-1.863.009-2.794.017-.434-.129-.54-.536-.516a15.962,15.962,0,0,1-1.731,0c-.358-.017-.441.117-.434.45.019.968.013,1.936,0,2.9-.007.782-.431,1.272-1.091,1.285a1.138,1.138,0,0,1-1.139-1.249q-.016-4.359,0-8.716A1.094,1.094,0,0,1,41.934,9.8a1.071,1.071,0,0,1,1.239.412,1.253,1.253,0,0,1,.2.8c0,.856.014,1.714-.007,2.57-.008.346.063.5.455.482.613-.035,1.229-.027,1.843,0,.327.013.4-.109.4-.414q-.026-1.368,0-2.738a1.121,1.121,0,0,1,2.025-.7,1.321,1.321,0,0,1,.207.849q0,2.152,0,4.3" transform="translate(-18.345 -4.343)"/>
        <path id="Trazado_153585" data-name="Trazado 153585" d="M82.83,15.294c0-1.415,0-2.829,0-4.243,0-.91.383-1.3,1.278-1.312.689-.009,1.378-.016,2.066.009a3.642,3.642,0,0,1,3.61,3.581,3.7,3.7,0,0,1-3.523,3.692c-.385.028-.921-.173-1.113.1s-.075.781-.082,1.186c-.008.484.016.968-.008,1.452a1.132,1.132,0,0,1-1.117,1.157A1.114,1.114,0,0,1,82.833,19.7c-.011-1.47,0-2.94,0-4.411" transform="translate(-36.936 -4.339)"/>
        <path id="Trazado_153586" data-name="Trazado 153586" d="M57.085,15.352c0-1.4,0-2.792,0-4.189,0-.951.417-1.357,1.365-1.36,1.024,0,2.048,0,3.072,0a1.124,1.124,0,1,1,0,2.234c-.6.007-1.192.015-1.787,0-.3-.009-.442.053-.422.392.034.574-.185,1.315.1,1.68.3.391,1.079.086,1.647.132.13.011.261,0,.391.011a1.107,1.107,0,0,1,.025,2.212,15.921,15.921,0,0,1-1.674.009c-.339-.012-.525.05-.486.452.054.552-.223,1.269.1,1.62s1.054.077,1.6.115a3.675,3.675,0,0,1,1,.074,1.081,1.081,0,0,1,.756,1.162,1.028,1.028,0,0,1-.967.981c-1.228.029-2.457.033-3.685,0-.655-.017-1.026-.509-1.031-1.279-.009-1.415,0-2.83,0-4.245" transform="translate(-25.456 -4.371)"/>
        <path id="Trazado_153587" data-name="Trazado 153587" d="M71.334,15.294q0-2.067,0-4.133c0-.931.387-1.409,1.127-1.4.721.007,1.108.5,1.108,1.437,0,2.308.014,4.617-.011,6.925-.006.475.134.618.593.572a5.676,5.676,0,0,1,1.114.016,1.087,1.087,0,0,1,1,1.079,1.057,1.057,0,0,1-.978,1.1c-1,.044-2.01.046-3.011-.007-.609-.032-.938-.494-.942-1.173-.009-1.471,0-2.941,0-4.413" transform="translate(-31.81 -4.352)"/>
        <path id="Trazado_153588" data-name="Trazado 153588" d="M39.808,60.843c.02-.919.68-1.437,1.393-1.222a6.855,6.855,0,0,1,1.372.6,1.1,1.1,0,0,1-.906,1.981,9.227,9.227,0,0,1-1.322-.582.94.94,0,0,1-.537-.78" transform="translate(-17.752 -26.566)" fill="#010000"/>
        <path id="Trazado_153589" data-name="Trazado 153589" d="M27.6,62.275a1.111,1.111,0,0,1-1.078-.773,1.02,1.02,0,0,1,.436-1.27,7,7,0,0,1,1.369-.613,1.1,1.1,0,0,1,.847,2.015,5.474,5.474,0,0,1-1.574.642" transform="translate(-11.798 -26.56)" fill="#010000"/>
        <path id="Trazado_153590" data-name="Trazado 153590" d="M86.834,15.09a.8.8,0,0,1,0-.222c.113-.375-.287-.952.214-1.121a1.734,1.734,0,0,1,2.149.843,1.351,1.351,0,0,1-.46,1.634,2.59,2.59,0,0,1-1.715.309c-.229,0-.186-.189-.188-.328-.006-.371,0-.742,0-1.114" transform="translate(-38.704 -6.086)" fill="#fecc68"/>
      </g>
    </g>
  </g>
</svg>
