<svg xmlns="http://www.w3.org/2000/svg" xmlns:xlink="http://www.w3.org/1999/xlink" width="160.348" height="162.245" viewBox="0 0 160.348 162.245">
  <defs>
    <clipPath id="clip-path">
      <rect id="Rect치ngulo_37356" data-name="Rect치ngulo 37356" width="151.236" height="135.47" fill="none"/>
    </clipPath>
  </defs>
  <g id="Grupo_165877" data-name="Grupo 165877" transform="translate(-205 -404)">
    <rect id="Rect치ngulo_37357" data-name="Rect치ngulo 37357" width="160.348" height="162.245" transform="translate(205 404)" fill="none"/>
    <g id="Grupo_157490" data-name="Grupo 157490" transform="translate(210 417)">
      <g id="Grupo_157489" data-name="Grupo 157489" transform="translate(0 0)" clip-path="url(#clip-path)">
        <path id="Trazado_128532" data-name="Trazado 128532" d="M46.628,2.965C47.216.691,48.043.014,50.341.014Q94.632.007,138.924.019a11.838,11.838,0,0,1,12.29,12.28q.045,19.068,0,38.135c-.018,7.168-5.127,12.22-12.311,12.262-3.347.019-6.694.04-10.039-.019-1.015-.019-1.123.245-.828,1.152a37.842,37.842,0,0,1,1.721,15.289,38.9,38.9,0,0,1-6.02,17.518c-.182.289-.356.583-.534.874-.57,1.926-2.155,3.122-3.341,4.595a16.65,16.65,0,0,1-2.612,2.6c-.93.736-.764,1.252-.013,1.995,3.847,3.8,7.658,7.645,11.483,11.474,3.2,3.2,6.384,6.415,9.6,9.6,1.41,1.4,3,1.728,4.412,1.009,2.51-1.275,2.955-4.045.912-6.16-2.666-2.76-5.413-5.439-8.121-8.156a6.159,6.159,0,0,1-1.636-2.247,2.582,2.582,0,0,1,.92-3.086c2.134-1.291,3.07-1.2,4.812.529,2.829,2.813,5.688,5.6,8.449,8.474,5.086,5.3,3.811,13.251-2.646,16.315a9.475,9.475,0,0,1-10.276-1.125,17.194,17.194,0,0,1-1.863-1.678q-10.814-10.81-21.6-21.65a1.542,1.542,0,0,0-2.21-.344A38.4,38.4,0,0,1,55,64.048,2.576,2.576,0,0,0,55.25,62.7h-1.6c-13.484,0-26.971-.1-40.453.045C7.08,62.81,1.969,59.614.389,53.791c-.06-.221-.075-.5-.389-.554V9.474C.838,8.061,1.154,6.4,2.156,5.059A11.981,11.981,0,0,1,12.143.018C15.83-.015,19.517,0,23.2.014,25.49.02,26.328.7,26.915,2.965A2.6,2.6,0,0,1,25.3,5.876a5.534,5.534,0,0,1-2.592.458c-3.348,0-6.695-.013-10.042.005-4.137.023-6.332,2.178-6.339,6.282Q6.3,31.4,6.324,50.176c.006,3.935,2.213,6.181,6.127,6.188,14.57.026,29.141,0,43.711.033a2.951,2.951,0,0,0,2.755-1.564A37.533,37.533,0,0,1,73.409,41.473c.937-.486,1.182-1.01.659-1.985-1.165-2.169-2.16-4.429-3.362-6.58-.247-.44-.366-1.2-.982-1.146-.487.041-.587.736-.771,1.177-1.007,2.414-2.282,4.7-3.4,7.058a3.518,3.518,0,0,1-3.126,2.34,3.412,3.412,0,0,1-3.162-2.076c-2.706-4.864-5.24-9.822-7.691-14.819a3.262,3.262,0,0,1,1.242-4.6c1.635-.94,3.344-.481,4.541,1.4,1.614,2.537,2.644,5.4,4.227,7.956.177.286.255.648.692.872a5.3,5.3,0,0,0,1.175-2.093c.9-2.14,2.012-4.17,3.021-6.254a3.578,3.578,0,0,1,3.142-2.343,3.512,3.512,0,0,1,3.249,2.151c1.444,2.527,2.643,5.177,4,7.745.169.319.24.853.744.774.371-.058.409-.518.542-.824,1.116-2.58,2.493-5.032,3.681-7.578A3.427,3.427,0,0,1,84.885,20.4a3.266,3.266,0,0,1,2.949,1.661,3.413,3.413,0,0,1-.039,3.52c-1.239,2.629-2.409,5.291-3.762,7.865-.731,1.392-1.249,2.878-2.13,4.579,2.235-.389,4.176-.825,6.153-1a40.432,40.432,0,0,1,6.63-.043c.42.03.937.332,1.228-.122.273-.427-.124-.843-.32-1.221-1.586-3.061-3.241-6.086-4.732-9.2a12.075,12.075,0,0,1-.672-1.48,3.269,3.269,0,0,1,5.936-2.735c1.449,2.463,2.712,5.027,3.987,7.586.23.462.332,1.035,1,1.373,1.263-2.678,2.666-5.264,3.881-7.944a6.445,6.445,0,0,1,.864-1.539,3.275,3.275,0,0,1,5.7.678c1.534,2.917,3.185,5.771,4.694,9.117,1.19-2.28,2.227-4.3,3.161-6.381.384-.854.735-1.723,1.2-2.536,1.152-2.011,2.795-2.687,4.522-1.883,1.833.853,2.444,2.59,1.5,4.757-.978,2.259-2.074,4.467-3.137,6.688-1.106,2.31-2.273,4.591-3.309,6.935a8.2,8.2,0,0,1-1.213,2.022,3.167,3.167,0,0,1-4.914.18,7.794,7.794,0,0,1-1.409-2.243c-1.208-2.575-2.733-4.976-4-7.735-1.384,2.382-2.336,4.7-3.4,6.96-.435.927.184,1.215.862,1.511a44.852,44.852,0,0,1,6.171,3.16A37.006,37.006,0,0,1,124.035,54.6a3.435,3.435,0,0,0,3.372,1.81c3.64-.1,7.285-.028,10.927-.033,4.441-.006,6.563-2.09,6.566-6.492q.015-18.554,0-37.11c0-4.3-2.15-6.43-6.483-6.431q-32.342-.011-64.683,0-11.444,0-22.89,0a4.362,4.362,0,0,1-3.829-1.495c-.423-.554-.839-1.134-.388-1.88" transform="translate(0 0)"/>
        <path id="Trazado_128533" data-name="Trazado 128533" d="M45.431,2.36c.606,2.365,1.4,2.959,4.007,2.959h87.557c4.907,0,7.123,2.207,7.123,7.1q0,18.478,0,36.956c0,4.492-2.321,6.8-6.822,6.807-4.086,0-8.171-.026-12.256.021a1.882,1.882,0,0,1-1.9-.987,37.594,37.594,0,0,0-18.967-15.908c-.951-.369-1.127-.695-.625-1.657,1.317-2.524,2.49-5.123,3.724-7.7.539.149.59.646.776,1q2.226,4.243,4.408,8.509a3,3,0,0,0,5.612-.052c2.338-4.873,4.688-9.74,7-14.625.893-1.892.42-3.545-1.132-4.329-1.6-.809-3.235-.136-4.191,1.808-1.513,3.075-2.977,6.174-4.59,9.532-1.556-3-2.992-5.759-4.418-8.523-.769-1.489-1.4-3.174-3.48-3.143s-2.651,1.727-3.373,3.247c-1.3,2.73-2.628,5.443-4.064,8.409-1.749-3.37-3.356-6.5-5-9.613-.84-1.6-2.075-2.277-3.412-1.971-2.1.482-2.927,2.5-1.829,4.667,1.82,3.6,3.693,7.164,5.543,10.744.2.383.4.768.738,1.436a38.782,38.782,0,0,0-15.657,1.01c-.242-.484.1-.789.246-1.1,1.88-3.948,3.785-7.884,5.669-11.829a4.1,4.1,0,0,0,.611-2.388,2.84,2.84,0,0,0-2.342-2.53,2.671,2.671,0,0,0-3.1,1.462c-1.065,1.991-2.007,4.049-2.994,6.081-.621,1.277-1.228,2.561-1.934,4.035-1.67-3.2-3.274-6.217-4.812-9.264-.659-1.305-1.443-2.4-3.047-2.4-1.687,0-2.454,1.177-3.092,2.54-1.395,2.976-2.843,5.926-4.383,9.127-1.714-3.311-3.309-6.419-4.931-9.514-.985-1.879-2.322-2.517-3.913-1.927a2.773,2.773,0,0,0-1.75,3.549,12.211,12.211,0,0,0,.83,1.879c2.294,4.456,4.615,8.9,6.9,13.362.647,1.266,1.482,2.245,3.007,2.228s2.333-1.021,2.939-2.31c1.44-3.062,2.93-6.1,4.5-9.351,1.808,3.485,3.511,6.776,5.222,10.063.465.892-.421.852-.782,1.036a38.934,38.934,0,0,0-12.326,9.93A28.879,28.879,0,0,0,57.586,55.2a1.721,1.721,0,0,1-1.74,1c-14.962-.031-29.924-.013-44.887-.03a5.882,5.882,0,0,1-6.24-6.19q-.034-19.217,0-38.434A5.9,5.9,0,0,1,10.93,5.327c3.691-.028,7.382,0,11.074-.01,2.288-.006,3.134-.693,3.714-2.957h7.307c.45.278.523.81.807,1.2A2.47,2.47,0,0,0,38.252,3.4c.226-.368.307-.839.758-1.044h6.422" transform="translate(1.197 0.604)" fill="#fec56c"/>
        <path id="Trazado_128534" data-name="Trazado 128534" d="M111.3,89.247c-1.143,2.142-1.009,3.036.761,4.815,2.809,2.824,5.665,5.6,8.431,8.469a4.088,4.088,0,0,1-1.842,6.983,4.232,4.232,0,0,1-4.235-1.446Q105.877,99.5,97.321,90.943c-1.494-1.5-2.967-3.015-4.491-4.478-.542-.52-.637-.848,0-1.369a42.233,42.233,0,0,0,6.861-7.467q2.337,2.265,4.674,4.533c.194.467-.114.84-.243,1.241a2.541,2.541,0,0,0,.626,2.682,2.387,2.387,0,0,0,2.553.561c.405-.117.788-.417,1.243-.167l2.752,2.767" transform="translate(23.508 19.884)" fill="#fe5d5d"/>
        <path id="Trazado_128535" data-name="Trazado 128535" d="M106.28,85.7c-2.1,1.12-3.677.858-4.6-.751a3.135,3.135,0,0,1,.418-3.566c2.291-1.325,4.357-.716,4.941,1.438a3.481,3.481,0,0,1-.763,2.879" transform="translate(25.773 20.666)" fill="#020101"/>
        <path id="Trazado_128536" data-name="Trazado 128536" d="M33.265,2.959C32.742,4.937,31.69,5.946,30.2,5.9c-1.466-.046-2.43-1.017-2.918-2.941C27.774,1.038,28.736.07,30.2.024c1.49-.046,2.543.961,3.066,2.934" transform="translate(6.942 0.006)" fill="#010101"/>
        <path id="Trazado_128537" data-name="Trazado 128537" d="M47.091,66.883A32.488,32.488,0,1,1,79.557,99.43,32.621,32.621,0,0,1,47.091,66.883" transform="translate(11.982 8.806)" fill="#fefefe"/>
        <path id="Trazado_128538" data-name="Trazado 128538" d="M36.3,27.974c1.426-2.977,2.843-5.948,4.274-8.91a7.191,7.191,0,0,1,.82-1.393,2.675,2.675,0,0,1,3.275-.942,2.81,2.81,0,0,1,1.87,3.008,5.368,5.368,0,0,1-.607,1.806q-3.323,6.909-6.617,13.831c-.628,1.328-1.445,2.392-3.051,2.38-1.529-.01-2.34-1.028-2.977-2.285-1.549-3.052-3.137-6.086-4.842-9.382-1.454,3.012-2.786,5.776-4.122,8.539-.257.53-.488,1.078-.794,1.578-1.248,2.046-3.928,2.176-5.059.083-2.781-5.143-5.438-10.354-8.056-15.582a2.834,2.834,0,0,1,1.315-3.892,2.92,2.92,0,0,1,3.984,1.456c1.455,2.677,2.81,5.408,4.211,8.113.27.519.558,1.029.951,1.75l4-8.282c.193-.4.4-.79.575-1.2a3.064,3.064,0,0,1,2.889-2.151,3.215,3.215,0,0,1,2.919,2.132c1.382,2.716,2.8,5.413,4.21,8.113.223.427.329.937.834,1.223" transform="translate(2.568 4.226)"/>
        <path id="Trazado_128539" data-name="Trazado 128539" d="M52.27,65.437A25.99,25.99,0,1,1,78.121,91.6,26.1,26.1,0,0,1,52.27,65.437" transform="translate(13.3 10.132)"/>
        <path id="Trazado_128540" data-name="Trazado 128540" d="M77.026,84.478A20.106,20.106,0,1,1,97.144,64.408,20.168,20.168,0,0,1,77.026,84.478" transform="translate(14.498 11.338)" fill="#72d7fe"/>
        <path id="Trazado_128541" data-name="Trazado 128541" d="M73.912,49.693A13.415,13.415,0,0,1,86.857,62.665a2.944,2.944,0,1,1-5.865.5c-.8-5.153-2.42-6.776-7.6-7.6a3.008,3.008,0,0,1-2.733-3.114,3.039,3.039,0,0,1,3.253-2.755" transform="translate(17.977 12.728)"/>
      </g>
    </g>
  </g>
</svg>
