<svg xmlns="http://www.w3.org/2000/svg" width="190" height="163" viewBox="0 0 190 163">
  <g id="Grupo_166716" data-name="Grupo 166716" transform="translate(-600 -911)">
    <rect id="Rectángulo_40994" data-name="Rectángulo 40994" width="190" height="163" rx="10" transform="translate(600 911)" fill="#6b8dfc"/>
    <path id="Trazado_156196" data-name="Trazado 156196" d="M6.672,5.625l1.4,8.227,4.242-8.227h3.047L13.383,17h-2.3l.563-3.242L12.758,8.7,8.4,17H6.828L5.3,8.406l-.734,5.6L4.047,17H1.758L3.734,5.625Zm13.852,10.5A2.919,2.919,0,0,1,18.2,17.156a2.172,2.172,0,0,1-1.844-.875,3.2,3.2,0,0,1-.484-2.266l.914-5.469h2.2l-.93,5.5a2.175,2.175,0,0,0-.008.485.8.8,0,0,0,.867.806,2.014,2.014,0,0,0,1.7-.79l1.055-6h2.219L22.414,17H20.359Zm8.43-1.508q.125-.625-.867-.906l-.711-.18q-2.523-.7-2.453-2.453A2.428,2.428,0,0,1,25.98,9.129a3.942,3.942,0,0,1,2.457-.738,3.536,3.536,0,0,1,2.313.758,2.5,2.5,0,0,1,.9,1.977l-2.187-.008a.963.963,0,0,0-1.078-1.1,1.552,1.552,0,0,0-.895.258,1.061,1.061,0,0,0-.465.7q-.117.625.945.883l.313.07a6.285,6.285,0,0,1,1.648.59,2.488,2.488,0,0,1,.879.824,2.04,2.04,0,0,1,.285,1.18,2.251,2.251,0,0,1-.52,1.406,3.18,3.18,0,0,1-1.359.93,4.736,4.736,0,0,1-1.816.3,3.568,3.568,0,0,1-2.344-.809A2.607,2.607,0,0,1,24.1,14.3l2.078.016a1.142,1.142,0,0,0,1.3,1.227,1.845,1.845,0,0,0,1-.25A.987.987,0,0,0,28.953,14.617Zm7.625-8.148-.367,2.078h1.406L37.328,10.2H35.922L35.2,14.438a1.077,1.077,0,0,0,.063.609q.109.211.531.227.125.008.672-.039l-.156,1.727a3.706,3.706,0,0,1-1.266.18,1.985,1.985,0,0,1-1.617-.68,2.456,2.456,0,0,1-.437-1.8l.727-4.461h-1.2l.289-1.656h1.2l.359-2.078Z" transform="translate(676 983)" fill="#12263f"/>
  </g>
</svg>
