<svg xmlns="http://www.w3.org/2000/svg" xmlns:xlink="http://www.w3.org/1999/xlink" width="144" height="138" viewBox="0 0 144 138">
  <defs>
    <clipPath id="clip-path">
      <rect id="Rect치ngulo_41181" data-name="Rect치ngulo 41181" width="113.245" height="117.341" fill="none"/>
    </clipPath>
  </defs>
  <g id="Grupo_165863" data-name="Grupo 165863" transform="translate(-537 -1287.998)">
    <g id="Grupo_165391" data-name="Grupo 165391" transform="translate(0 -0.002)">
      <rect id="Rect치ngulo_40797" data-name="Rect치ngulo 40797" width="144" height="138" transform="translate(537 1288)" fill="#c4d1ff"/>
    </g>
    <g id="Grupo_165986" data-name="Grupo 165986" transform="translate(552.001 1297.998)">
      <g id="Grupo_165986-2" data-name="Grupo 165986" clip-path="url(#clip-path)">
        <path id="Trazado_153538" data-name="Trazado 153538" d="M85.966,144.352c-5.379.014-10.757.04-16.136.038q-14.183-.005-28.366-.038a2.609,2.609,0,0,1-.381-1.93c-.012-5.644,0-11.289-.008-16.934a5.16,5.16,0,0,0-.162-1.754,1.528,1.528,0,0,0-2.927,0,5.255,5.255,0,0,0-.162,1.754c0,5.644,0,11.289-.008,16.934a2.605,2.605,0,0,1-.381,1.93c-3.742.014-7.485.012-11.226.055-.721.009-.929-.226-.927-.935.027-7.864-.3-15.744.108-23.587a25.609,25.609,0,0,1,20.5-23.494,4.74,4.74,0,0,1,1.862-.242c.382.283.371.733.468,1.131a15.678,15.678,0,0,0,8.5,10.789,2.98,2.98,0,0,1,1.051.673,1.249,1.249,0,0,1,.154.367A28.2,28.2,0,0,0,59.41,118.4C63.093,128.187,70.065,134,80.4,135.677c3.6.586,3.177.572,3.192-2.812.011-2.566,0-5.133,0-7.7a7.4,7.4,0,0,1,.139-1.756,4.406,4.406,0,0,1,4.66-3.587,4.361,4.361,0,0,1,3.957,4.461,13.3,13.3,0,0,0,1.139,6.381,9.75,9.75,0,0,0,6.709,5.082c.643.154,1.36.083,1.9.576.011,2.392,0,4.784.05,7.175.016.74-.261.915-.95.908-3.735-.04-7.47-.04-11.2-.053a2.605,2.605,0,0,1-.381-1.93c-.012-5.644,0-11.289-.008-16.934a5.142,5.142,0,0,0-.162-1.754,1.528,1.528,0,0,0-2.927,0,5.255,5.255,0,0,0-.162,1.754c0,5.644,0,11.289-.008,16.934a2.605,2.605,0,0,1-.381,1.93" transform="translate(-7.092 -27.068)" fill="#769eb5"/>
        <path id="Trazado_153539" data-name="Trazado 153539" d="M114.819,136.334a10.161,10.161,0,0,1-10.076-10.414c0-1.42.2-2.886-.764-4.124a3.968,3.968,0,0,0-4.483-1.452,4.186,4.186,0,0,0-2.833,4.058c-.024,3.537-.048,7.076.017,10.613.02,1.078-.328,1.4-1.361,1.311a26.78,26.78,0,0,1-15.9-6.48,26.308,26.308,0,0,1-8.4-14,22.535,22.535,0,0,1-.615-6.866c.5-.349.971-.071,1.443.058a15.758,15.758,0,0,0,19.95-11.507,2.619,2.619,0,0,1,.577-1.371,24.513,24.513,0,0,1,13.38,5.931,25.611,25.611,0,0,1,8.735,15.348,16.95,16.95,0,0,1,.34,2.87c.026,5.343,0,10.687-.006,16.03" transform="translate(-19.812 -27.079)" fill="#a1bccc"/>
        <path id="Trazado_153540" data-name="Trazado 153540" d="M86.669,76.115C86.052,82.6,80.047,88.8,73.631,89.762a19.85,19.85,0,0,1-8.932-.827c-.017-.067-.032-.134-.043-.2a2.027,2.027,0,0,1-.343-1.438c-.006-3.325-.017-6.649,0-9.973.01-1.55.171-1.69,1.717-1.859a19.666,19.666,0,0,0,10.692-4.116,20.453,20.453,0,0,1-14.858-1.189,3,3,0,0,1-1.211-.88,24.533,24.533,0,0,1-6.34-5.827,19.917,19.917,0,0,1-3.808-12c.014-.964,0-1.93,0-2.894a2.367,2.367,0,0,1-.394-1.664c0-2.792-.023-5.585.007-8.376a13.646,13.646,0,0,1,1.938-7.943,12.657,12.657,0,0,1,6.792-5.335c.631-.209,1.289-.469,1.9.085a3.711,3.711,0,0,1,.229,1.955,9.273,9.273,0,0,0,.49,3.669c-.137.489-.57.571-.97.686-.323.093-.656.148-.979.242-2.69.777-2.945,1.2-2.364,3.94-.181.359-.546.35-.865.42a1.575,1.575,0,0,0-1.33,1.34,1.765,1.765,0,0,0,.861,1.705c.38.3.984.333,1.129.925-.038.966-.081,1.935-.03,2.9.039.726-.318,1.6.431,2.121,1.02.7,1.961,1.639,3.361,1.55a3.294,3.294,0,0,0,1.991-.685,5.4,5.4,0,0,1,.5-.384,2.372,2.372,0,0,1,3.284.373,2.3,2.3,0,0,1-.279,3.2,7.95,7.95,0,0,1-6.837,2.167c-.444-.08-1.005-.449-1.316-.136-.4.4.076.936.223,1.389a17.594,17.594,0,0,0,3.166,5.412,10.884,10.884,0,0,1,1.641,2.219c-.387,2.83.851,3.7,3.345,2.46.149-.074-.039.039.124-.009a29.3,29.3,0,0,1,3.269,1.328,20.044,20.044,0,0,0,16.4-1.08c.675-.333.678-.327,1.2-.078a18.008,18.008,0,0,1-5.8,5.657,1.41,1.41,0,0,0-.787,1.4c.046,1.594.057,3.192,0,4.785-.032.845.272,1.07,1.081,1.058a17.347,17.347,0,0,1,4.76.259" transform="translate(-14.111 -7.039)" fill="#f5b88c"/>
        <path id="Trazado_153541" data-name="Trazado 153541" d="M65.41,62.747c-1.084-1.484-2.362-2.814-3.346-4.383a18.113,18.113,0,0,1-2.035-4.58c-.069-.236-.267-.485-.093-.71.251-.323.557-.037.8.048,2.714.972,5.1.187,7.327-1.367a2.172,2.172,0,0,0,.659-3.263c-.8-.951-2.053-.92-3.214.081a3.647,3.647,0,0,1-4.284.313,6.356,6.356,0,0,0-1.8-1.129.478.478,0,0,1-.3-.346c.086-1.65-.379-3.329.237-4.953.564-.4,1.157-.111,1.706-.009,3.69.685,6.519-1.066,9.191-3.223a1.387,1.387,0,0,0,.238-2.037,1.623,1.623,0,0,0-2.149-.47c-.963.425-1.773,1.125-2.7,1.63a5.87,5.87,0,0,1-4.738.615c-.518-.161-1.074-.267-1.327-.846a2.363,2.363,0,0,1,.671-3.68,20.749,20.749,0,0,1,3.707-1.091c.811-.2,1.657-.011,2.468-.226a16.316,16.316,0,0,1,5.046,1.492,6.5,6.5,0,0,0,2.084.858c.779.4,1.869.336,2.2,1.434-.42,1.518.315,2.423,1.542,3.2a14.391,14.391,0,0,0,5.223,2.375A9.7,9.7,0,0,0,87.68,41.8a1.968,1.968,0,0,0,1.267-1.313A1.6,1.6,0,0,0,87,38.584c-.829.118-1.6.516-2.444.581a4.656,4.656,0,0,1-4.308-1.48c.129-.639.68-.537,1.1-.592a12.66,12.66,0,0,0,7.062-3.047c.771-.694,1.306-.455,1.858.29a18.142,18.142,0,0,1,3.5,8.268c.172,2.69.061,5.379.068,8.068a1.667,1.667,0,0,1-.382,1.172,20.965,20.965,0,0,1-3.535,13.4c-1.242.51-2.47,1.06-3.729,1.522-5.995,2.2-11.737,1.43-17.279-1.53.072-.862.584-1.027,1.309-.8a6.083,6.083,0,0,1,1.363.647,2.859,2.859,0,0,0,3.312-.017c1.162-.756,2.218-.988,3.354.18a1.536,1.536,0,0,0,2.262-.134,1.642,1.642,0,0,0,.014-2.293A15.678,15.678,0,0,0,78.49,60.76a1.74,1.74,0,0,0-2.223-.193,4.764,4.764,0,0,1-6.008.033c-.906-.644-1.808-.284-2.626.435-.7.614-1.131,1.6-2.222,1.713" transform="translate(-16.61 -9.328)" fill="#f8ccad"/>
        <path id="Trazado_153542" data-name="Trazado 153542" d="M57.727,18.541c-3.81.43-6.459,2.586-8.429,5.715a12.135,12.135,0,0,0-1.709,7.111c-.347.123-.44-.166-.527-.371a5.012,5.012,0,0,0-2.979-2.853.767.767,0,0,1-.519-.5,28.244,28.244,0,0,1-3.422-7.793c-1.7-8.029,3.784-17.064,11.475-18.778.9-.24,1.017.458,1.071,1.01a11.334,11.334,0,0,0,4.6,7.954,1.865,1.865,0,0,1,.726,1.006,63.64,63.64,0,0,1,.08,6.475,1.286,1.286,0,0,1-.371,1.024" transform="translate(-11.217 -0.288)" fill="#656b76"/>
        <path id="Trazado_153543" data-name="Trazado 153543" d="M131.583,95.77c.116,1.007-.5,2.5.241,3.344.677.77,2.118.871,3.224,1.261.4.14.808.239,1.194.4a1.981,1.981,0,0,1,1.259,2.647c-.375,1.246-.767,2.492-1.234,3.706a1.411,1.411,0,0,0,.4,1.859c.8.672,1.5,1.474,2.247,2.216a2.094,2.094,0,0,1,.478,2.64c-.641,1.278-1.256,2.57-1.935,3.828a1.967,1.967,0,0,1-2.761.95,2.016,2.016,0,0,1-.86-2.7c.369-.961,1.443-1.848,1.1-2.817-.3-.862-1.284-1.528-2.057-2.172a2.841,2.841,0,0,1-.876-3.8c.357-.754.51-1.6.824-2.379.256-.635.054-.886-.562-1.061-1.05-.3-2.078-.674-3.115-1.016a2.14,2.14,0,0,1-1.619-2.269c.021-1.263,0-2.526,0-3.789,0-2.01,0-2.01-2.073-2.011-.59,0-1.18-.008-1.769,0a2.092,2.092,0,0,1-2.185-1.557c-.312-.914-.65-1.824-.9-2.757-.214-.813-.59-.884-1.246-.475a6.2,6.2,0,0,1-1.251.6,1.892,1.892,0,0,1-2.461-.948,1.833,1.833,0,0,1,.625-2.551,46.591,46.591,0,0,1,4.625-2.3,1.9,1.9,0,0,1,2.495,1.329,24.939,24.939,0,0,1,1.064,3.23c.25,1.085.743,1.547,1.9,1.416a21.725,21.725,0,0,1,2.9-.019,2.069,2.069,0,0,1,2.314,2.351c.016.884,0,1.768,0,2.849" transform="translate(-32.496 -23.79)" fill="#656b76"/>
        <path id="Trazado_153544" data-name="Trazado 153544" d="M20.667,98.026c-.076,4.4.21,4.029-3.987,5.427-1.644.547-1.647.555-1.1,2.163,1.376,4.08,1.6,3.422-1.552,6.465-.858.828-1.15,1.5-.427,2.522a6.238,6.238,0,0,1,.768,1.585,1.86,1.86,0,0,1-.974,2.445,1.781,1.781,0,0,1-2.54-.647,48.937,48.937,0,0,1-2.27-4.5,1.874,1.874,0,0,1,.54-2.185c.766-.782,1.512-1.588,2.33-2.312a1.348,1.348,0,0,0,.438-1.742c-.442-1.088-.775-2.221-1.141-3.339-.6-1.835-.193-2.657,1.612-3.272,1.113-.379,2.215-.8,3.345-1.119a.992.992,0,0,0,.839-1.161c-.042-1.809-.029-3.62-.009-5.43a2.065,2.065,0,0,1,2.315-2.346c.463-.011.927,0,1.389,0,2.93,0,2.93,0,3.866-2.835,1.228-3.719,1.672-3.907,5.164-2.168.752.375,1.512.738,2.244,1.152a2.011,2.011,0,1,1-1.761,3.613c-1.963-.808-1.962-.807-2.668,1.3-.187.557-.366,1.119-.584,1.664a1.969,1.969,0,0,1-1.836,1.312c-.251.015-.506-.006-.757.011-1.078.075-2.559-.481-3.124.234-.528.667-.113,2.082-.113,3.168" transform="translate(-2.37 -23.801)" fill="#656b76"/>
        <path id="Trazado_153545" data-name="Trazado 153545" d="M62.336,10.4a11.121,11.121,0,0,1-5.3-8.5c-.047-.522-.159-1.008-.8-1.113A8.333,8.333,0,0,1,59.65.11c4.32-.024,8.653-.329,12.96.2a17.114,17.114,0,0,1,6.68,2c-.705,3.644-.24,7.329-.374,10.993a4.915,4.915,0,0,1-.139,1.37,1.643,1.643,0,0,1-1.76.885,6.177,6.177,0,0,1-2.534-.481A2.3,2.3,0,0,1,74.12,13.4c-.019-1.555,0-3.109-.014-4.664a2.288,2.288,0,0,0-.491-1.649A1.577,1.577,0,0,0,70.875,8c-.147,1.171-.037,2.351-.071,3.525a4.015,4.015,0,0,1-.226,1.856.865.865,0,0,1-1.028.22c-1.121-.4-2.383-.471-3.289-1.381a9.018,9.018,0,0,1-.215-2.976,6.09,6.09,0,0,0-.122-1.494,1.533,1.533,0,0,0-1.682-1.2,1.591,1.591,0,0,0-1.491,1.448c-.173.8.21,1.691-.415,2.408" transform="translate(-15.837 0)" fill="#7b818d"/>
        <path id="Trazado_153546" data-name="Trazado 153546" d="M81.489,19.693c.777.088,1.552.2,2.331.256a1.818,1.818,0,0,0,1.712-.5c.318-.064.441.185.58.381a1.64,1.64,0,0,0,1.855.731A1.675,1.675,0,0,0,89.22,19.14a2.229,2.229,0,0,1,.272-.832,7.29,7.29,0,0,1,9.876,1.09,7.905,7.905,0,0,0,6.465,3.288c.393,0,.99-.091.976.634L103.963,33.1a.871.871,0,0,1-.236.28,5.536,5.536,0,0,0-3.509,3.1c-.085.213-.217.739-.662.273a40.9,40.9,0,0,1-.249-4.386,15.309,15.309,0,0,0-2.928-7.792c-.541-.8-.924-.935-1.773-.312a13.176,13.176,0,0,1-11.779,2.324c-.644-.177-1.329-.312-1.613-1.055a28.594,28.594,0,0,1-.1-4.953,1.1,1.1,0,0,1,.374-.887" transform="translate(-22.827 -4.744)" fill="#656b76"/>
        <path id="Trazado_153547" data-name="Trazado 153547" d="M109.979,20.167c-.29-.428-.74-.327-1.145-.323a7.621,7.621,0,0,1-6.419-3.266,7.155,7.155,0,0,0-8.545-1.847c-.379.178-.752.366-1.129.55a1.608,1.608,0,0,1-.4-1.284q-.042-3.536,0-7.072a1.548,1.548,0,0,1,.42-1.276c.812.524,1.632,1.036,2.435,1.574a4.387,4.387,0,0,0,4.56.42c3.24-1.588,7.229-.571,9.305,3.282a11.566,11.566,0,0,1,.922,9.243" transform="translate(-25.998 -1.591)" fill="#7b828d"/>
        <path id="Trazado_153548" data-name="Trazado 153548" d="M62.486,86.639a36.013,36.013,0,0,0,5.157,1.992,20.65,20.65,0,0,0,12.033-.707c-.575,1.019-.893,1.33-3.209,2.669a19.976,19.976,0,0,1-8.857,2.575c-.889.056-1.139.312-1.131,1.176.034,3.917.009,7.833.005,11.751C61.523,104.5,57,98.73,56.6,93.48a13.548,13.548,0,0,1,4.639-.25c1.041.024,1.267-.333,1.234-1.289-.06-1.765,0-3.534.014-5.3" transform="translate(-15.939 -24.399)" fill="#f2a168"/>
        <path id="Trazado_153549" data-name="Trazado 153549" d="M11.26,20.076c0-4.921.007-9.842-.006-14.763a2.163,2.163,0,0,1,1.149-2.2A1.979,1.979,0,0,1,15.285,4.87c.065,1.005.019,2.018.019,3.027q0,13.122,0,26.244c0,.379.019.759-.011,1.135a2.014,2.014,0,0,1-2.042,1.977,1.984,1.984,0,0,1-1.976-2.037c-.046-1.639-.014-3.28-.015-4.92q0-5.111,0-10.22" transform="translate(-3.168 -0.815)" fill="#545a63"/>
        <path id="Trazado_153550" data-name="Trazado 153550" d="M144.79,20.143c0,4.921.012,9.842-.006,14.763-.007,1.869-1.557,2.918-3.01,2.075a2.03,2.03,0,0,1-1.027-1.894q0-15.014.01-30.029A2,2,0,0,1,142.74,2.9a2.016,2.016,0,0,1,2.042,2.229c.019,5,.008,10.01.008,15.015" transform="translate(-39.637 -0.816)" fill="#545a63"/>
        <path id="Trazado_153551" data-name="Trazado 153551" d="M143.57,151.455c-.777-.659-1.435-1.176-2.043-1.746a2.052,2.052,0,0,1-.311-2.937c.754-1.112,1.482-2.243,2.248-3.348.311-.448.3-.713-.247-.935a9.422,9.422,0,0,1-1.455-.746,1.955,1.955,0,0,1-.795-2.616,1.891,1.891,0,0,1,2.545-.962c1.455.649,2.891,1.355,4.282,2.132a1.925,1.925,0,0,1,.635,2.931c-.8,1.283-1.621,2.557-2.523,3.769-.5.668-.382,1.072.187,1.578a27.181,27.181,0,0,1,2.053,2.047,1.991,1.991,0,0,1-.53,3.355c-1.288.7-2.608,1.355-3.944,1.965a1.94,1.94,0,0,1-2.687-.86,1.992,1.992,0,0,1,.957-2.759c.43-.247.875-.468,1.628-.868" transform="translate(-39.635 -38.859)" fill="#656b76"/>
        <path id="Trazado_153552" data-name="Trazado 153552" d="M11.013,151.518c.733.4,1.269.639,1.755.957a1.936,1.936,0,0,1,.682,2.653,1.833,1.833,0,0,1-2.473.892c-1.461-.643-2.9-1.348-4.292-2.132a1.95,1.95,0,0,1-.406-3.214c.707-.779,1.46-1.519,2.233-2.233a.822.822,0,0,0,.135-1.284c-.876-1.235-1.708-2.5-2.524-3.779a2.023,2.023,0,0,1,.843-3.247c1.226-.649,2.468-1.272,3.726-1.859a1.978,1.978,0,0,1,2.8.854,2.006,2.006,0,0,1-1,2.753c-1.807,1.051-1.807,1.051-.638,2.807.443.665.9,1.325,1.327,2a2.114,2.114,0,0,1-.338,3.142c-.529.539-1.108,1.03-1.826,1.693" transform="translate(-1.582 -38.867)" fill="#656b76"/>
        <path id="Trazado_153553" data-name="Trazado 153553" d="M42.235,154.559q0-9.894-.005-19.789c0-1.59.756-2.447,2.083-2.41,1.264.035,1.957.873,1.957,2.41q0,9.894-.005,19.789H42.235" transform="translate(-11.892 -37.275)" fill="#608da8"/>
        <path id="Trazado_153554" data-name="Trazado 153554" d="M109.791,154.559q0-9.894-.005-19.789c0-1.59.756-2.447,2.083-2.41,1.264.035,1.957.873,1.957,2.41q0,9.894-.005,19.789h-4.029" transform="translate(-30.918 -37.275)" fill="#608da8"/>
        <path id="Trazado_153555" data-name="Trazado 153555" d="M152.005,24.132c0-2.479-.006-4.958,0-7.437.005-1.61.724-2.517,1.987-2.539s2.05.9,2.052,2.474q.013,7.626,0,15.252c0,1.571-.787,2.5-2.051,2.477s-1.983-.936-1.988-2.539c-.008-2.562,0-5.126,0-7.689" transform="translate(-42.807 -3.987)" fill="#545a63"/>
        <path id="Trazado_153556" data-name="Trazado 153556" d="M26.566,24.268c0,2.564.01,5.126,0,7.69-.008,1.49-.774,2.388-2,2.4S22.53,33.474,22.526,32q-.016-7.752,0-15.5c0-1.46.828-2.364,2.059-2.337a2.043,2.043,0,0,1,1.974,2.3c.019,2.6.006,5.21.006,7.815" transform="translate(-6.341 -3.987)" fill="#545a63"/>
        <path id="Trazado_153557" data-name="Trazado 153557" d="M129.486,23.252c0-2.226-.009-4.453,0-6.679.008-1.5.756-2.393,1.98-2.417,1.265-.025,2.055.9,2.057,2.468q.013,6.616,0,13.232c0,1.575-.781,2.5-2.045,2.481s-1.988-.932-1.993-2.532c-.008-2.185,0-4.368,0-6.553" transform="translate(-36.465 -3.987)" fill="#545a63"/>
        <path id="Trazado_153558" data-name="Trazado 153558" d="M0,23.117c0-2.185-.01-4.368,0-6.553C.016,15.069.772,14.175,2,14.157s2.041.881,2.045,2.352q.02,6.741,0,13.484c0,1.463-.825,2.368-2.053,2.345S.016,31.426.007,29.922c-.013-2.269,0-4.537,0-6.805" transform="translate(0 -3.987)" fill="#545a63"/>
        <path id="Trazado_153559" data-name="Trazado 153559" d="M106.954,43.254c.767-1.84,1.907-3.271,4-3.655.419.4.345.922.351,1.415.018,1.34.034,2.681,0,4.02a5.975,5.975,0,0,0,2.116,4.9c.358.314.881.553.8,1.179a8.953,8.953,0,0,1-7.307,2.559q-.006-4.8-.012-9.6a.657.657,0,0,1,.047-.812" transform="translate(-30.074 -11.152)" fill="#f2a168"/>
        <path id="Trazado_153560" data-name="Trazado 153560" d="M43.748,38.076A5.752,5.752,0,0,1,47.774,41.8q.012,5.221.026,10.442a9.063,9.063,0,0,1-7.3-2.574c-.083-.572.375-.815.712-1.1a6.076,6.076,0,0,0,2.207-5.135c-.05-1.3-.015-2.608-.006-3.912a2.166,2.166,0,0,1,.312-1.449Z" transform="translate(-11.401 -10.721)" fill="#f2a168"/>
        <path id="Trazado_153561" data-name="Trazado 153561" d="M91.328,4.9q-.008,4.817-.016,9.633a2.079,2.079,0,0,1-1.542,2.484,2.036,2.036,0,0,1-2.5-1.468c-.005-3.444.014-6.889-.032-10.332a3.629,3.629,0,0,1,.78-2.066c2.147-.436,2.8-.093,3.307,1.749" transform="translate(-24.569 -0.839)" fill="#545a63"/>
        <path id="Trazado_153562" data-name="Trazado 153562" d="M115.853,51.073c-1.4-1.2-2.809-2.4-3.162-4.352a24.1,24.1,0,0,1-.1-3.763c-.027-1.131-.009-2.264-.01-3.4l.252-.093c4.388.047,6.572,2.821,5.566,7.1a8.827,8.827,0,0,1-2.55,4.506" transform="translate(-31.701 -11.115)" fill="#f5b88d"/>
        <path id="Trazado_153563" data-name="Trazado 153563" d="M42.625,38.061c.012,2.174.094,4.35.016,6.52a5.932,5.932,0,0,1-2.6,4.506c-.228.177-.522.27-.636.571a9.073,9.073,0,0,1-2.8-6.4c-.078-2.544,1.825-5.522,6.023-5.2" transform="translate(-10.307 -10.712)" fill="#f5b88d"/>
        <path id="Trazado_153564" data-name="Trazado 153564" d="M67.827,73.239c.7-.667,1.419-1.315,2.1-2.005a2.037,2.037,0,0,1,2.837-.454,4.524,4.524,0,0,0,5.828-.027,1.948,1.948,0,0,1,2.644.347c.632.619,1.278,1.226,1.871,1.881a2.037,2.037,0,0,1,.021,2.941,1.922,1.922,0,0,1-2.828-.055,1.492,1.492,0,0,0-2.345-.282c-1.729,1.346-3.372.867-4.994-.2-.664-.438-1.237-.5-1.629.341-.917.726-1.9,1.148-2.965.353-1.018-.758-.9-1.787-.536-2.838" transform="translate(-19.027 -19.82)" fill="#f05574"/>
        <path id="Trazado_153565" data-name="Trazado 153565" d="M64.725,12.8c.006-.8-.025-1.593.027-2.386a2.01,2.01,0,0,1,4.015.017c.056,1.38.02,2.764.024,4.145a5.033,5.033,0,0,1,.384,2.83c.022.967.024,1.935,0,2.9-.037,1.38.033,2.761-.026,4.141-.037.874-.206,1.682-1.207,1.975a2.7,2.7,0,0,1-2.366,0,2.915,2.915,0,0,1-.848-2.386c.05-1.126.011-2.254.01-3.382q-.006-3.926-.011-7.851" transform="translate(-18.227 -2.399)" fill="#545a63"/>
        <path id="Trazado_153566" data-name="Trazado 153566" d="M58.823,39.284a6.214,6.214,0,0,0,6.967-.707c.438-.325.9-.623,1.363-.908a2.073,2.073,0,0,1,2.913.412,1.99,1.99,0,0,1-.584,2.866c-3.229,2.506-6.718,3.969-10.882,2.678-.185-.093-.365-.194-.554-.277-1.313-.577-1.95-1.45-1.7-2.457a2.076,2.076,0,0,1,2.481-1.608" transform="translate(-15.853 -10.494)" fill="#656b76"/>
        <path id="Trazado_153567" data-name="Trazado 153567" d="M99.175,39.322l-.047.812A19.82,19.82,0,0,0,95.7,32.416c-.542-.736-.779-.815-1.476-.176a12.321,12.321,0,0,1-7.393,3.083c-.29.027-.593-.032-.839.184-.3.264-.585.063-.777-.1a3.46,3.46,0,0,0-4-.562c-.374-.924-1.454-.691-2.049-1.253a3.84,3.84,0,0,0,1.438-3.765,1.674,1.674,0,0,1,.355-1.53A12.858,12.858,0,0,0,94.5,25.917c.613-.524.788-.233,1.124.223,2.385,3.249,3.844,6.784,3.527,10.909-.057.753.014,1.515.026,2.273" transform="translate(-22.296 -7.22)" fill="#f5b88c"/>
        <path id="Trazado_153568" data-name="Trazado 153568" d="M79.911,23.471c-.007.924-.052,1.849-.013,2.771a2.236,2.236,0,0,1-1.78,2.524,2.71,2.71,0,0,1-1.938-.823,1.71,1.71,0,0,1-.717-1.647c-.014-1.554-.038-3.108.011-4.662-.063-1.46-.024-2.921-.022-4.381a2.013,2.013,0,0,1,.385-1.416c0-1.678-.005-3.356.012-5.034.015-1.47.8-2.32,2.081-2.284,1.217.034,1.944.864,1.956,2.284.019,2.181.014,4.362.02,6.543q0,3.062.005,6.124" transform="translate(-21.245 -2.399)" fill="#545a63"/>
        <path id="Trazado_153569" data-name="Trazado 153569" d="M81.924,38.111c1.23-1.07,1.976-1.127,3.316-.261.485.313.975.619,1.462.928a5.769,5.769,0,0,0,5.927.783c1.494-.587,2.571-.2,3.036,1.023.418,1.1-.17,2.17-1.55,2.726a9.69,9.69,0,0,1-9.14-.795c-.679-.417-1.328-.882-1.986-1.33-1.371-.935-1.561-1.487-1.066-3.073" transform="translate(-23.001 -10.49)" fill="#656b76"/>
        <path id="Trazado_153570" data-name="Trazado 153570" d="M90.518,59.355a9.132,9.132,0,0,1-5.358-2.2,2.058,2.058,0,0,1-.228-2.934A2.088,2.088,0,0,1,87.777,54c2.263,1.614,3.312,1.617,5.445.013a2.091,2.091,0,0,1,2.848.185,2.058,2.058,0,0,1-.2,2.935,9.124,9.124,0,0,1-5.352,2.22" transform="translate(-23.775 -15.079)" fill="#f5b88d"/>
        <path id="Trazado_153571" data-name="Trazado 153571" d="M76.908,53.561a2.052,2.052,0,0,1,2.239,2.651,4.892,4.892,0,0,1-.546,1.131c-.706,1.1-1.039,2.027.213,3.111a1.773,1.773,0,0,1-.14,2.611,1.98,1.98,0,0,1-2.738.146A24.145,24.145,0,0,1,73.624,60.9a1.844,1.844,0,0,1-.264-2.121c.677-1.4,1.378-2.782,2.078-4.167a1.814,1.814,0,0,1,1.471-1.048" transform="translate(-20.598 -15.083)" fill="#f5b88d"/>
        <path id="Trazado_153572" data-name="Trazado 153572" d="M74.057,26.4c.011,1.463.039,2.926.024,4.389a4.2,4.2,0,0,0,.343,1.827,38.781,38.781,0,0,0-5.22-1.522,2.877,2.877,0,0,0,.856-2.274c-.041-1.215.013-2.434.027-3.652a4.926,4.926,0,0,1,3.97,1.231" transform="translate(-19.489 -7.069)" fill="#f5b88c"/>
        <path id="Trazado_153573" data-name="Trazado 153573" d="M64.014,47.931a2.016,2.016,0,1,1-2.074,1.922,2.007,2.007,0,0,1,2.074-1.922" transform="translate(-17.443 -13.498)" fill="#666c76"/>
        <path id="Trazado_153574" data-name="Trazado 153574" d="M92.12,51.959a2.015,2.015,0,1,1,2-2,2.008,2.008,0,0,1-2,2" transform="translate(-25.371 -13.498)" fill="#666c76"/>
        <path id="Trazado_153575" data-name="Trazado 153575" d="M57.516,12.621c0,.713.043,1.43-.01,2.139a1.932,1.932,0,0,1-2,1.843A1.9,1.9,0,0,1,53.5,14.767c-.061-1.466-.061-2.938,0-4.4a1.9,1.9,0,0,1,2-1.843,1.929,1.929,0,0,1,2.011,1.837c.055.751.011,1.51.011,2.265" transform="translate(-15.052 -2.399)" fill="#545a63"/>
        <path id="Trazado_153576" data-name="Trazado 153576" d="M74.39,24.1a30,30,0,0,0-3.97-1.231q-.018-2.96-.034-5.922a21.18,21.18,0,0,0,4.028,1.261Q74.4,21.157,74.39,24.1" transform="translate(-19.822 -4.774)" fill="#656b76"/>
      </g>
    </g>
  </g>
</svg>
