<svg xmlns="http://www.w3.org/2000/svg" width="190" height="163" viewBox="0 0 190 163">
  <g id="Grupo_166717" data-name="Grupo 166717" transform="translate(-810 -911)">
    <rect id="Rectángulo_40995" data-name="Rectángulo 40995" width="190" height="163" rx="10" transform="translate(810 911)" fill="#6b8dfc"/>
    <path id="Trazado_156197" data-name="Trazado 156197" d="M21.336,13.961q.164-.93-.914-1.422l-1.508-.6q-2.625-1.172-2.492-3.227a2.964,2.964,0,0,1,.625-1.687,3.758,3.758,0,0,1,1.6-1.152,5.67,5.67,0,0,1,2.227-.4,3.857,3.857,0,0,1,2.664.98,3.267,3.267,0,0,1,1,2.543H22.258a1.628,1.628,0,0,0-.34-1.2,1.531,1.531,0,0,0-1.176-.445,2.37,2.37,0,0,0-1.359.355,1.458,1.458,0,0,0-.687,1.02q-.148.852,1.141,1.352l1.031.391.594.273q2.3,1.141,2.156,3.2a3.09,3.09,0,0,1-.645,1.738A3.633,3.633,0,0,1,21.41,16.8a5.565,5.565,0,0,1-2.176.367,4.873,4.873,0,0,1-2.156-.508,3.349,3.349,0,0,1-1.437-1.367,3.54,3.54,0,0,1-.43-1.875l2.289.008q-.109,1.852,1.82,1.883a2.392,2.392,0,0,0,1.375-.367A1.43,1.43,0,0,0,21.336,13.961Zm6.578-4.477A2.946,2.946,0,0,1,30.2,8.391a2.143,2.143,0,0,1,1.848.9,3.548,3.548,0,0,1,.441,2.379L31.6,17H29.4l.9-5.358a2.6,2.6,0,0,0,.016-.563.885.885,0,0,0-.984-.868,1.9,1.9,0,0,0-1.562.766L26.7,17H24.5L26.578,5h2.211ZM38.211,17a2.281,2.281,0,0,1-.086-.766,2.863,2.863,0,0,1-2.156.922,2.594,2.594,0,0,1-1.84-.723,2.186,2.186,0,0,1-.684-1.746,2.527,2.527,0,0,1,1.16-2.121,5.266,5.266,0,0,1,2.965-.738l1.031.016.109-.508a1.764,1.764,0,0,0,.023-.492.846.846,0,0,0-.277-.574.955.955,0,0,0-.629-.215,1.345,1.345,0,0,0-.875.254,1.231,1.231,0,0,0-.461.777l-2.211.008a2.457,2.457,0,0,1,1.113-1.965,4.312,4.312,0,0,1,2.613-.738,3.117,3.117,0,0,1,2.25.855,2.5,2.5,0,0,1,.68,2.121l-.648,4.047-.039.5a2.412,2.412,0,0,0,.133.938L40.375,17Zm-1.7-1.555a2.017,2.017,0,0,0,1.664-.828l.273-1.461-.766-.008a2.139,2.139,0,0,0-1.758.742,1.292,1.292,0,0,0-.242.633.75.75,0,0,0,.176.668A.891.891,0,0,0,36.516,15.445ZM44.047,17H41.828L43.914,5h2.211Zm4.2,0H46.023L48.109,5H50.32Z" transform="translate(873 983)" fill="#12263f"/>
  </g>
</svg>
