<svg xmlns="http://www.w3.org/2000/svg" xmlns:xlink="http://www.w3.org/1999/xlink" width="202.131" height="399.277" viewBox="0 0 202.131 399.277">
  <defs>
    <clipPath id="clip-path">
      <rect id="Rect치ngulo_40959" data-name="Rect치ngulo 40959" width="190.801" height="399.277" fill="none"/>
    </clipPath>
    <clipPath id="clip-path-2">
      <rect id="Rect치ngulo_38703" data-name="Rect치ngulo 38703" width="2.055" height="0.962" fill="none"/>
    </clipPath>
  </defs>
  <g id="Grupo_161797" data-name="Grupo 161797" transform="translate(22.284 9.52)">
    <g id="Grupo_157493" data-name="Grupo 157493" transform="translate(0 0)">
      <path id="Trazado_114544" data-name="Trazado 114544" d="M140.706,397.4c-24.96-11.323-50.845-26.6-60.9-52.153-11.156-28.357.521-60.114.241-90.6-.223-24.147-8.027-47.467-14.167-70.817s-10.65-48.16-4.315-71.458c4.241-15.6,13.249-29.708,24.879-40.905,20.479-19.718,49.985-30.388,78.02-25.878s53.5,25.057,61.7,52.314c11.612,38.617-11.071,79.839-6.25,119.882,1.886,15.668,7.923,30.485,12.017,45.725a187.793,187.793,0,0,1,6.415,49.748c-.153,25.7-6.65,53.128-25.775,70.245C193.282,400.771,164.574,408.226,140.706,397.4Z" transform="translate(-58.504 -44.565)" fill="#ffdfe0"/>
      <g id="Grupo_165659" data-name="Grupo 165659" transform="translate(-22.284 -9.52)">
        <g id="Grupo_165659-2" data-name="Grupo 165659" clip-path="url(#clip-path)">
          <path id="Trazado_150964" data-name="Trazado 150964" d="M187.309,260.24H162.646V210.005h24.663A2.992,2.992,0,0,1,190.3,213v44.25a2.992,2.992,0,0,1-2.992,2.992" transform="translate(-39.253 -50.683)" fill="#ffcfa6"/>
          <path id="Trazado_150965" data-name="Trazado 150965" d="M211.158,506.728a3.21,3.21,0,0,1-.252.583,3.708,3.708,0,0,1-.358.53c-.08.08-.146.159-.225.239a3.358,3.358,0,0,1-2.386.994H160.315c-.2,0-.4-.013-.583-.027a3.827,3.827,0,0,1-.571-.08,3.43,3.43,0,0,1-.557-.119c-.185-.053-.358-.106-.53-.172a3.7,3.7,0,0,1-.53-.212,4.623,4.623,0,0,1-.451-.225,6.416,6.416,0,0,1-1.671-1.312,3.513,3.513,0,0,1-.278-.318,6.555,6.555,0,0,1-.769-1.193,2.941,2.941,0,0,1-.212-.464.5.5,0,0,1-.053-.12,5.662,5.662,0,0,1-.318-1.047l-1.936-15.419-3.739-29.8,30.453-3.619s1.724,29.378,1.8,29.591c0,.013.093.053.239.159h.013c.676.424,2.572,1.591,5.131,3.182.265.146.53.318.809.49.106.066.225.133.332.2,1.1.677,2.306,1.419,3.553,2.188.371.238.743.464,1.127.7,1.75,1.087,3.58,2.227,5.4,3.381a.013.013,0,0,1,.013.013c.477.292.915.6,1.392.888.411.252.8.5,1.18.756,6.072,3.871,11.3,7.4,11.574,8.22.013.027.013.066.027.093s0,.014.014.027a3.183,3.183,0,0,1-.014,1.9" transform="translate(-35.747 -109.797)" fill="#f9b3a2"/>
          <path id="Trazado_150966" data-name="Trazado 150966" d="M212.347,516.192a3.208,3.208,0,0,1-.252.583,3.337,3.337,0,0,1-.358.53c-.08.08-.146.159-.225.239a3.357,3.357,0,0,1-2.386.994H161.5c-.2,0-.4-.013-.583-.027a3.822,3.822,0,0,1-.57-.08,3.426,3.426,0,0,1-.557-.119c-.185-.053-.358-.106-.53-.172a3.707,3.707,0,0,1-.53-.212,4.616,4.616,0,0,1-.451-.225,6.415,6.415,0,0,1-1.671-1.312,3.509,3.509,0,0,1-.278-.318,6.555,6.555,0,0,1-.768-1.193,2.941,2.941,0,0,1-.212-.464.5.5,0,0,1-.053-.12,5.663,5.663,0,0,1-.318-1.047l-1.936-15.419h21.942c.662-.477,1.325-.928,2.015-1.366a14.291,14.291,0,0,1,4.8-2.306h.013c.676.424,2.572,1.591,5.131,3.182.265.146.53.318.809.49.106.066.225.133.332.2,1.1.677,2.306,1.419,3.553,2.188.371.238.743.464,1.127.7,1.75,1.087,3.58,2.227,5.4,3.381a.013.013,0,0,1,.013.013c.477.292.915.6,1.392.888.411.252.8.5,1.18.756,6.072,3.871,11.3,7.4,11.574,8.22.013.027.013.066.027.093s0,.014.014.027a3.085,3.085,0,0,1-.014,1.9" transform="translate(-36.936 -119.261)" fill="#2f3f4f"/>
          <path id="Trazado_150967" data-name="Trazado 150967" d="M80.777,458.563l-3.725,29.8-1.936,15.418c-.053.2-.106.385-.159.571-.053.159-.106.318-.173.477s-.132.318-.2.463-.132.252-.2.372a6.52,6.52,0,0,1-.637.941,3.314,3.314,0,0,1-.278.319,6.418,6.418,0,0,1-1.671,1.312,4.8,4.8,0,0,1-.451.225,3.668,3.668,0,0,1-.53.212c-.172.066-.344.119-.53.172a3.5,3.5,0,0,1-.557.119,4.013,4.013,0,0,1-.57.08c-.186.013-.385.027-.583.027H32.1a3.355,3.355,0,0,1-2.387-.995c-.08-.08-.146-.159-.225-.238a3.715,3.715,0,0,1-.358-.531,3.287,3.287,0,0,1-.252-.583,3.189,3.189,0,0,1-.013-1.9c.013-.014.013-.014.013-.027s.014-.067.04-.093c.133-.41,4.839-5.356,9.585-10.221.319-.332.637-.663.968-.981.9-.942,1.8-1.856,2.652-2.731.332-.344.663-.662.968-.981,2.784-2.824,4.945-4.959,5.183-5.1h.014a1.875,1.875,0,0,0,.238-.159c.08-.212,1.817-29.591,1.817-29.591Z" transform="translate(-6.932 -109.797)" fill="#f9b3a2"/>
          <path id="Trazado_150968" data-name="Trazado 150968" d="M77.049,497.83l-1.935,15.419c-.053.2-.106.384-.159.57-.053.159-.106.318-.172.477s-.133.318-.2.463-.133.253-.2.372a6.591,6.591,0,0,1-.637.942,3.526,3.526,0,0,1-.278.318A6.415,6.415,0,0,1,71.8,517.7a4.7,4.7,0,0,1-.451.225,3.736,3.736,0,0,1-.53.212c-.173.066-.345.119-.53.172a3.433,3.433,0,0,1-.557.119,3.938,3.938,0,0,1-.571.08c-.185.013-.384.026-.583.026H32.093a3.354,3.354,0,0,1-2.386-.995c-.08-.08-.146-.158-.225-.238a3.758,3.758,0,0,1-.358-.53,3.21,3.21,0,0,1-.252-.583,3.084,3.084,0,0,1-.014-1.9c.014-.014.014-.014.014-.027s.013-.066.039-.093c.133-.411,4.839-5.356,9.586-10.222.318-.332.636-.662.967-.981.9-.942,1.8-1.856,2.652-2.73.332-.345.663-.663.968-.982,2.784-2.824,4.945-4.958,5.184-5.1h.013a14.314,14.314,0,0,1,4.8,2.307c.69.438,1.353.888,2.029,1.366Z" transform="translate(-6.93 -119.261)" fill="#2f3f4f"/>
          <path id="Trazado_150969" data-name="Trazado 150969" d="M18.2,99.115l9.57-5.858,11.543,2.929L50.8,117.909l-16.59,8.121Z" transform="translate(-4.393 -22.507)" fill="#f9b3a2"/>
          <path id="Trazado_150970" data-name="Trazado 150970" d="M159.517,36.858a71.38,71.38,0,0,1-6.835-7.987c-3.2-4.419-4.53-12.594-3.094-13.147s11.269-3.315,14.584.884,7.291,11.49,7.734,13.7-12.389,6.551-12.389,6.551" transform="translate(-35.963 -3.456)" fill="#2f3f4f"/>
          <path id="Trazado_150971" data-name="Trazado 150971" d="M126.558,5.319s-6.119-.837-10.759,5.461c-3.459,4.695-2.513,10.054-3.507,12.042s-4.116,3.386-6.021,7.841a11.723,11.723,0,0,0-.662,4.01c-.058,1.179.24,3.108-.422,4.129a6.48,6.48,0,0,1-.858.962c-1.421,1.444-3.178,4.42-2.643,6.59h44.523a13.4,13.4,0,0,0-.828-5.835c-1.16-2.81-1.372-3.915-1.077-7.7.373-4.778-2.836-11.1-2.836-11.1Z" transform="translate(-24.517 -1.275)" fill="#a66353"/>
          <path id="Trazado_150972" data-name="Trazado 150972" d="M211.413,73.454l14.594,2.616A11.89,11.89,0,0,1,235.615,89.7c-1.1,6.862-4.129,14.569-12.01,16.752-15.081,4.176-25.882,1.809-25.882,1.809Z" transform="translate(-47.719 -17.728)" fill="#f9b3a2"/>
          <path id="Trazado_150973" data-name="Trazado 150973" d="M145.878,24.16a13.291,13.291,0,0,1-14.317,9.313A13.07,13.07,0,0,1,129.3,33a13.328,13.328,0,0,1-4.552-2.435c-.168-.135-.324-.266-.476-.41a5.887,5.887,0,0,1-.433-.412c-2.572-2.648-4.848-8.432-3.361-13.314a13.279,13.279,0,0,1,25.194-.637l0,.013a13.22,13.22,0,0,1,.777,4.971.357.357,0,0,1,0,.1,13.471,13.471,0,0,1-.569,3.29" transform="translate(-28.963 -1.691)" fill="#f9b3a2"/>
          <path id="Trazado_150974" data-name="Trazado 150974" d="M147.376,23.1s.69,9.743-.579,15.3c-1.572,6.879-8.748,6.937-14.659,3.129s-7.927-10.637-7.927-10.637,11.578-5.361,13.057-5.346S147.376,23.1,147.376,23.1" transform="translate(-29.977 -5.575)" fill="#f9b3a2"/>
          <path id="Trazado_150975" data-name="Trazado 150975" d="M120.005,57.908l9.835,1.988,8.476-2.278-.442-7.185-.256-4.046v-.012l-.267-4.418-5.244-1.581-8.068-7.51Z" transform="translate(-28.962 -7.932)" fill="#f9b3a2"/>
          <path id="Trazado_150976" data-name="Trazado 150976" d="M134,47.439c.162.268,2.837,4.522,5.267,5.755a11.87,11.87,0,0,0,1.988.756l-.256-4.046v-.012s-2.93-.8-4.383-1.313A22.209,22.209,0,0,1,134,47.439" transform="translate(-32.339 -11.449)" fill="#2f3f4f"/>
          <path id="Trazado_150977" data-name="Trazado 150977" d="M150.054,38.914l-8.429-.176s.728,1.631,3.794,2.094a4.823,4.823,0,0,0,4.635-1.918" transform="translate(-34.18 -9.349)" fill="#fff"/>
          <path id="Trazado_150978" data-name="Trazado 150978" d="M142.861,11.617a11.364,11.364,0,0,1-4.947,4.743c-1.787.757-6.44,1.226-8.114,2.223a7.937,7.937,0,0,0-2.974,4.514,11.174,11.174,0,0,0-.533,2.957c-.017,1.053-1.646,2.107-1.646,2.107l-1.954,4.277s-4.355-6.381-4.355-13.264A12.325,12.325,0,0,1,129.433,6.966a16.773,16.773,0,0,1,9.155,1.3,16.175,16.175,0,0,1,4.273,3.346" transform="translate(-28.56 -1.649)" fill="#a66353"/>
          <path id="Trazado_150979" data-name="Trazado 150979" d="M123.137,28.256a4.518,4.518,0,1,0,4.514-4.7,4.609,4.609,0,0,0-4.514,4.7" transform="translate(-29.718 -5.685)" fill="#f9b3a2"/>
          <path id="Trazado_150980" data-name="Trazado 150980" d="M158.329,67.626l-7.656,58.817L83.336,159.325s-7.713-89.944-2.6-91.7a62.467,62.467,0,0,1,13.977-2.743c1.782-.181,3.648-.306,5.555-.4,6.236-.348,13.085-.32,20.269-.153,7.838.167,17.137.96,24.543,1.754,2.019.195,3.9.4,5.555.612,4.649.53,7.7.933,7.7.933" transform="translate(-19.062 -15.496)" fill="#2f3f4f"/>
          <path id="Trazado_150981" data-name="Trazado 150981" d="M69.1,68.714a216.7,216.7,0,0,0-21.4,9.919c-13.05,6.787-16.879,8.7-16.879,8.7l21.625,36.858,30.928-8.668S79.717,88.2,79.195,85.593,69.1,68.714,69.1,68.714" transform="translate(-7.438 -16.584)" fill="#2f3f4f"/>
          <path id="Trazado_150982" data-name="Trazado 150982" d="M76.541,120.246a.665.665,0,0,1-.65-.535L67.5,77.13a.663.663,0,1,1,1.3-.256l8.4,42.58a.664.664,0,0,1-.522.779.686.686,0,0,1-.129.012" transform="translate(-16.286 -18.424)" fill="#0f0a1c"/>
          <path id="Trazado_150983" data-name="Trazado 150983" d="M179.391,68.714l24.42,3.6-7.192,46.636H166.223Z" transform="translate(-40.117 -16.584)" fill="#2f3f4f"/>
          <path id="Trazado_150984" data-name="Trazado 150984" d="M173.213,122.855a.676.676,0,0,1-.154-.018.663.663,0,0,1-.492-.8l9.392-39.554a.662.662,0,1,1,1.289.307l-9.391,39.555a.663.663,0,0,1-.644.509" transform="translate(-41.643 -19.784)" fill="#0f0a1c"/>
          <path id="Trazado_150985" data-name="Trazado 150985" d="M202.186,74.643,162.859,37.584l17.4-20.25S220.015,48.8,224.692,55.153c5.3,7.193,7.367,17.112,3.19,26.276s-11.865,11.218-11.865,11.218Z" transform="translate(-39.305 -4.183)" fill="#f9b3a2"/>
          <path id="Trazado_150986" data-name="Trazado 150986" d="M155.742,33.4c-.475,0-1.171-2.513-1.257-2.79a14.385,14.385,0,0,1-.708-3.864,14.033,14.033,0,0,0-.984-5.443,14.825,14.825,0,0,0-2.5-3.842,23.623,23.623,0,0,0-6.255-4.8c-.907-.505-1.855-.941-2.748-1.471-2.1-1.248-6.82-4.092-7.609-5.764S133.329.112,138.411,0s25.247,4.428,36.127,13.149,21.325,18.391,21.325,18.391L155.742,33.4" transform="translate(-32.187 0)" fill="#f9b3a2"/>
          <path id="Trazado_150987" data-name="Trazado 150987" d="M152.468,20.847a.663.663,0,0,1-.388-.125l-4.631-3.351a.663.663,0,1,1,.777-1.075l4.631,3.351a.663.663,0,0,1-.389,1.2" transform="translate(-35.519 -3.902)" fill="#2f3f4f"/>
          <path id="Trazado_150988" data-name="Trazado 150988" d="M137.229,9.419a.66.66,0,0,1-.663-.647c0-.121-.01-2.966,3.651-4.044,4.374-1.291,14.96,2.582,15.409,2.748a.663.663,0,0,1-.459,1.244C155.061,8.68,144.546,4.831,140.592,6c-2.661.785-2.7,2.677-2.7,2.757a.666.666,0,0,1-.659.664Z" transform="translate(-32.959 -1.077)" fill="#2f3f4f"/>
          <path id="Trazado_150989" data-name="Trazado 150989" d="M82.885,154.676l10.933-44.868h59.891l1.567,53.916-72.39-1.566Z" transform="translate(-20.004 -26.501)" fill="#44a38c"/>
          <path id="Trazado_150990" data-name="Trazado 150990" d="M175.664,398.6H133.553l-18.1-130.511,5.179-89.889.083-1.392.292-4.984.083-1.392,1.086-18.932,39.911-18.1s1.072,15.814,2.464,36.655c.028.46.07.919.1,1.392.111,1.643.222,3.3.334,4.984.027.46.055.919.1,1.392,1.35,20.227,4.18,43.657,5.293,61.727,2.437,40.023,5.287,159.049,5.287,159.049" transform="translate(-27.864 -32.194)" fill="#44a38c"/>
          <path id="Trazado_150991" data-name="Trazado 150991" d="M74.692,168.037S64.6,209.278,61.467,240.253s-12.529,164.27-12.529,164.27h40.2s19.315-107.193,25.232-139.56,8-67.866,8-76.219-2.519-23.575-2.519-23.575Z" transform="translate(-11.811 -39.862)" fill="#44a38c"/>
          <path id="Trazado_150992" data-name="Trazado 150992" d="M164.833,191.508l-44.451.376-5.958.055-.014-1.392,6.056-.056,44.27-.376c.027.46.055.919.1,1.392" transform="translate(-27.612 -45.883)" fill="#2f3f4f"/>
          <path id="Trazado_150993" data-name="Trazado 150993" d="M163.267,183.1l-43.643.376-9.9.083-.014-1.391,10-.083,43.461-.376c.028.46.07.919.1,1.392" transform="translate(-26.478 -43.854)" fill="#2f3f4f"/>
          <path id="Trazado_150994" data-name="Trazado 150994" d="M67.969,156.329,51.013,176.958s-3.341-2.532-8.22-6.284c-1.9-1.458-4.044-3.116-6.311-4.879-12.1-9.413-27.828-21.928-30.718-25.68C.316,133.049-1.965,123.172,2,113.918a26.708,26.708,0,0,1,11.813-12.939L27.838,120.15l27.5,24.791,5.913,5.33Z" transform="translate(0 -24.37)" fill="#f9b3a2"/>
          <path id="Trazado_150995" data-name="Trazado 150995" d="M101.422,183.625a11.1,11.1,0,0,1-.863,4.692,8.886,8.886,0,0,1-.6,1.281,10.163,10.163,0,0,1-3.646,4.107,8.935,8.935,0,0,1-1.338.752,17.377,17.377,0,0,1-3.843,1.392c-6.083,1.476-12.264-3.313-16.441-2.186s-6.876,1.322-9.34-.557-5.972-13.629-5.972-13.629l17.832-11.582s11.318,2.45,15.4,5.151c2.617,1.727,5.958,3.717,7.573,6.348a8.016,8.016,0,0,1,.974,2.381,7.517,7.517,0,0,1,.266,1.851" transform="translate(-14.331 -40.52)" fill="#f9b3a2"/>
          <path id="Trazado_150996" data-name="Trazado 150996" d="M109.462,186.252c-.683-.473-1.476-1-2.353-1.587-4.942-3.257-13.713-4.482-13.809-4.5a.71.71,0,0,1-.6-.779.686.686,0,0,1,.794-.6c.363.055,9.174,1.281,14.38,4.719.473.306.905.6,1.322.891a7.518,7.518,0,0,1,.266,1.851" transform="translate(-22.371 -43.147)" fill="#2f3f4f"/>
          <path id="Trazado_150997" data-name="Trazado 150997" d="M107.809,192.757a8.882,8.882,0,0,1-.6,1.281,25.911,25.911,0,0,0-6.056-3.257,54.977,54.977,0,0,0-11.165-3.105.7.7,0,0,1-.557-.807.675.675,0,0,1,.808-.557,56.335,56.335,0,0,1,11.443,3.174,27.342,27.342,0,0,1,6.125,3.271" transform="translate(-21.581 -44.961)" fill="#2f3f4f"/>
          <path id="Trazado_150998" data-name="Trazado 150998" d="M103.229,200.239a8.89,8.89,0,0,1-1.337.752,25.417,25.417,0,0,0-13.2-4.622.7.7,0,1,1,.083-1.392,26.669,26.669,0,0,1,14.45,5.262" transform="translate(-21.248 -47.056)" fill="#2f3f4f"/>
          <path id="Trazado_150999" data-name="Trazado 150999" d="M123.71,317.127a.6.6,0,0,1-.082-.005.662.662,0,0,1-.577-.739q2.282-18.4,4.478-36.806l.684-5.687c1.974-16.375,4.015-33.307,4.627-50q.14-3.849.262-7.7c.1-3.075.2-6.15.32-9.223l.6-15.806a.679.679,0,0,1,.688-.637.662.662,0,0,1,.637.687l-.6,15.808c-.117,3.071-.218,6.144-.319,9.215q-.127,3.852-.263,7.706c-.614,16.745-2.658,33.706-4.635,50.108l-.683,5.685q-2.2,18.41-4.48,36.812a.662.662,0,0,1-.657.581" transform="translate(-29.696 -45.981)" fill="#2f3f4f"/>
          <path id="Trazado_151000" data-name="Trazado 151000" d="M135.509,242.612l-.464-1.242c.064-.024,6.478-2.515,7.452-9.331,1.026-7.178.923-40.1.922-40.428l1.326-.005c0,1.358.1,33.348-.935,40.619-1.088,7.613-8.007,10.278-8.3,10.388" transform="translate(-32.592 -46.242)" fill="#2f3f4f"/>
          <path id="Trazado_151001" data-name="Trazado 151001" d="M106.311,103.978l-5.555.139L99.712,64.971c1.782-.181,3.648-.306,5.555-.4Z" transform="translate(-24.065 -15.583)" fill="#44a38c"/>
          <path id="Trazado_151002" data-name="Trazado 151002" d="M171.39,67.289l-.822,44.145L165,111.323l.835-44.645c2.019.195,3.9.4,5.555.611" transform="translate(-39.821 -16.092)" fill="#44a38c"/>
          <path id="Trazado_151003" data-name="Trazado 151003" d="M106.184,114.119a2.436,2.436,0,1,0-2.436,2.436,2.436,2.436,0,0,0,2.436-2.436" transform="translate(-24.451 -26.954)" fill="#fff"/>
          <path id="Trazado_151004" data-name="Trazado 151004" d="M170.873,114.119a2.436,2.436,0,1,0-2.436,2.436,2.436,2.436,0,0,0,2.436-2.436" transform="translate(-40.063 -26.954)" fill="#fff"/>
          <path id="Trazado_151005" data-name="Trazado 151005" d="M197.331,499.041l-4.8,5.833a.658.658,0,0,1-.517.238.6.6,0,0,1-.411-.146.644.644,0,0,1-.093-.928l4.68-5.688c.266.146.53.319.809.491.106.066.225.133.332.2" transform="translate(-46.182 -120.273)" fill="#fff"/>
          <path id="Trazado_151006" data-name="Trazado 151006" d="M203.5,502.847l-4.812,5.846a.653.653,0,0,1-.941.093.653.653,0,0,1-.08-.928l4.707-5.714c.371.238.742.464,1.127.7" transform="translate(-47.666 -121.188)" fill="#fff"/>
          <path id="Trazado_151007" data-name="Trazado 151007" d="M57.091,507.117a.648.648,0,0,1-.583.344.587.587,0,0,1-.318-.093l-9.811-5.5c.332-.344.663-.663.968-.981l9.492,5.33a.67.67,0,0,1,.252.9" transform="translate(-11.193 -120.885)" fill="#fff"/>
          <path id="Trazado_151008" data-name="Trazado 151008" d="M52,511.837a.655.655,0,0,1-.57.332.756.756,0,0,1-.332-.08l-9.492-5.33c.318-.332.636-.663.967-.981l9.174,5.157a.655.655,0,0,1,.252.9" transform="translate(-10.042 -122.065)" fill="#fff"/>
          <path id="Trazado_151009" data-name="Trazado 151009" d="M170.521,180.688a1.323,1.323,0,0,1-.854-.312c-.307-.259-30.849-26.165-45.53-52.827-19.284-35.025-23.929-63.274-23.974-63.555a1.326,1.326,0,0,1,2.619-.417c.044.278,4.632,28.1,23.677,62.693,14.441,26.226,44.614,51.823,44.917,52.078a1.326,1.326,0,0,1-.855,2.34" transform="translate(-24.169 -15.074)" fill="#ffcfa6"/>
          <path id="Trazado_151010" data-name="Trazado 151010" d="M72.853,164.256,54.4,184.659c-1.9-1.458-4.044-3.116-6.311-4.879L66.94,158.926Z" transform="translate(-11.606 -38.355)" fill="#a66353"/>
          <path id="Trazado_151011" data-name="Trazado 151011" d="M70.253,171.856a5.717,5.717,0,1,0-5.717,5.717,5.717,5.717,0,0,0,5.717-5.717" transform="translate(-14.195 -40.096)" fill="#fff"/>
          <path id="Trazado_151096" data-name="Trazado 151096" d="M108.588,77.527a1.493,1.493,0,0,0,.389-.086c.062-.019.116-.047.175-.07a1.8,1.8,0,0,0,.165-.083,2.464,2.464,0,0,0,.58-.447l.121-.126-.049-.115c-.479-1.13-.971-2.255-1.52-3.358.337,1.185.731,2.348,1.138,3.506l.072-.24a2.46,2.46,0,0,0-.61.405,1.761,1.761,0,0,0-.132.13c-.041.048-.085.091-.123.143a1.494,1.494,0,0,0-.206.34" transform="translate(3.072 -51.832)" fill="#af593c"/>
          <g id="Grupo_165664" data-name="Grupo 165664" transform="translate(110.716 24.743)" opacity="0.5">
            <g id="Grupo_161778" data-name="Grupo 161778" transform="translate(0 0)">
              <g id="Grupo_161777" data-name="Grupo 161777" clip-path="url(#clip-path-2)">
                <path id="Trazado_142708" data-name="Trazado 142708" d="M111.966,88.532l-2.055.811,1,.151Z" transform="translate(-109.911 -88.532)" fill="#af593c"/>
              </g>
            </g>
          </g>
          <path id="Trazado_151097" data-name="Trazado 151097" d="M98.115,71.813l-.06.237c-.022.073-.045.16-.081.258a3.314,3.314,0,0,1-.129.319,2.684,2.684,0,0,1-.194.343,1.962,1.962,0,0,1-.27.323,1.252,1.252,0,0,1-.346.24.8.8,0,0,1-.193.068c-.034,0-.066.015-.1.017l-.05,0h-.033l-.131-.007c-.042,0-.06-.013-.091-.017a.815.815,0,0,1-.189-.067,1.278,1.278,0,0,1-.346-.24,1.987,1.987,0,0,1-.27-.323,3.162,3.162,0,0,1-.194-.343,3.369,3.369,0,0,1-.129-.318c-.036-.1-.058-.186-.081-.26l-.06-.235-.011.063a1.823,1.823,0,0,0-.027.181,1.983,1.983,0,0,0-.007.285,1.9,1.9,0,0,0,.046.373,1.87,1.87,0,0,0,.14.431,1.721,1.721,0,0,0,.275.442,1.446,1.446,0,0,0,.45.37,1.261,1.261,0,0,0,.3.114c.054.012.12.028.165.032l.13.011h.037l.02,0,.04,0,.08-.007a1.53,1.53,0,0,0,.157-.032,1.277,1.277,0,0,0,.291-.113,1.46,1.46,0,0,0,.449-.37,1.728,1.728,0,0,0,.275-.442,1.883,1.883,0,0,0,.14-.431,1.921,1.921,0,0,0,.046-.373,2.011,2.011,0,0,0-.007-.287c-.005-.078-.021-.138-.027-.179l-.011-.063" transform="translate(17.832 -50.713)" fill="#1b262c"/>
          <path id="Trazado_151098" data-name="Trazado 151098" d="M136.635,74.619l-.059.237c-.022.073-.045.16-.081.258a3.24,3.24,0,0,1-.129.318,2.668,2.668,0,0,1-.194.343,1.962,1.962,0,0,1-.27.324,1.253,1.253,0,0,1-.346.24.8.8,0,0,1-.193.068c-.034,0-.066.015-.1.017l-.05,0h-.033l-.131-.007c-.042,0-.06-.013-.091-.017a.814.814,0,0,1-.189-.067,1.278,1.278,0,0,1-.346-.24,1.979,1.979,0,0,1-.27-.323,1.7,1.7,0,0,1-.1-.173,1.755,1.755,0,0,1-.089-.17,3.343,3.343,0,0,1-.129-.318c-.036-.1-.058-.186-.081-.26l-.06-.235-.011.063a1.823,1.823,0,0,0-.027.181,1.985,1.985,0,0,0-.007.285,1.9,1.9,0,0,0,.046.373,1.864,1.864,0,0,0,.14.431,1.721,1.721,0,0,0,.275.442,1.449,1.449,0,0,0,.45.37,1.256,1.256,0,0,0,.3.114,1.656,1.656,0,0,0,.165.032l.13.011h.038l.02,0,.04,0,.08-.007a1.475,1.475,0,0,0,.156-.032,1.277,1.277,0,0,0,.291-.113,1.459,1.459,0,0,0,.449-.37,1.74,1.74,0,0,0,.275-.442,1.893,1.893,0,0,0,.14-.431,1.92,1.92,0,0,0,.046-.373,2.012,2.012,0,0,0-.007-.287c-.005-.078-.021-.138-.027-.179l-.011-.063" transform="translate(-29.084 -52.907)" fill="#1b262c"/>
        </g>
      </g>
    </g>
  </g>
</svg>
