<svg xmlns="http://www.w3.org/2000/svg" xmlns:xlink="http://www.w3.org/1999/xlink" width="145" height="145" viewBox="0 0 145 145">
  <defs>
    <clipPath id="clip-path">
      <rect id="Rectángulo_41280" data-name="Rectángulo 41280" width="101.634" height="96.007" fill="none"/>
    </clipPath>
  </defs>
  <g id="Grupo_166149" data-name="Grupo 166149" transform="translate(-570 -1000)">
    <circle id="Elipse_4876" data-name="Elipse 4876" cx="72.5" cy="72.5" r="72.5" transform="translate(570 1000)" fill="#fff"/>
    <g id="Grupo_166148" data-name="Grupo 166148" transform="translate(592 1024)">
      <g id="Grupo_166147" data-name="Grupo 166147" clip-path="url(#clip-path)">
        <path id="Trazado_153837" data-name="Trazado 153837" d="M50.824,139.756c-.21-.152-.331-.412-.662-.408q-2.083.022-4.166,0c-.329,0-.455.253-.664.406a26.009,26.009,0,0,1-1.085-4.322c-1.057-4.332-2.049-8.68-4.154-12.666a5.524,5.524,0,0,0-.876-1.37c-.2-.2-.45-.361-.724-.174-.23.156-.179.419-.113.655a1.534,1.534,0,0,0,.167.372c2.595,4.378,3.651,9.279,4.8,14.146a12.611,12.611,0,0,1,.5,2.6.477.477,0,0,1-.167.358l-13.665,0a1.271,1.271,0,0,1-.477-.975,26.89,26.89,0,0,1,.814-13.4,11.806,11.806,0,0,1,1.8-3.3,4.118,4.118,0,0,1,2.765-1.575,3.127,3.127,0,0,0,.8-.149.455.455,0,0,0,.33-.462.475.475,0,0,0-.395-.412,2.371,2.371,0,0,0-1.014-.022,5.359,5.359,0,0,0-3.663,2.375,16.953,16.953,0,0,0-2.726,7.93,28.694,28.694,0,0,0,.193,8.94c.062.356.216.74-.132,1.051H19.2c-.338-.226-.3-.587-.318-.92a51.306,51.306,0,0,1,3.651-22.472c.669-1.64,1.453-3.225,2.237-4.811a1.472,1.472,0,0,1,1.788-.927,25.157,25.157,0,0,1,8.527,3.281,55.11,55.11,0,0,1,9.045,6.792,9.906,9.906,0,0,1,2.584,3.607A56.424,56.424,0,0,1,50.8,136.385c.132.772.132,1.558.27,2.33a1.026,1.026,0,0,1-.248,1.041" transform="translate(-7.536 -44.18)" fill="#c9e6ee"/>
        <path id="Trazado_153838" data-name="Trazado 153838" d="M43.288,109.391c-.211-6.263-2.638-11.871-5.17-17.447a1.622,1.622,0,0,0-.347-.5c-4.229-4.033-8.743-7.669-14.182-9.978a19.5,19.5,0,0,0-4.89-1.38c-.518-.074-.788-.007-1.042.483a49.574,49.574,0,0,0-6.035,22.3c-.03,2.039.025,4.078.041,6.118-.138.473-.415.82-.944.728-.564-.1-.7-.542-.732-1.069a52.341,52.341,0,0,1,7.509-31,18.969,18.969,0,0,1,2.976-3.745c.488-.473.524-.705.018-1.257a8.489,8.489,0,0,0-7.342-2.965C5.823,70.159-.1,63.9,0,56.126.052,52.194,2.1,49.1,4.913,46.5a17.122,17.122,0,0,1,5.208-3.344,69.32,69.32,0,0,0,9.974-5.52,18.479,18.479,0,0,1,10.687-3.156,12.277,12.277,0,0,1,6.978,2.25,8.421,8.421,0,0,1,3.374,9.08,3.223,3.223,0,0,0,.15,2.045,14.431,14.431,0,0,1,1.03,4.549c.008.23.288.561-.223.6a4.064,4.064,0,0,0-1.65-2.01,2.45,2.45,0,0,1-.506-1.413,2.647,2.647,0,0,1-.954,1.4,4.274,4.274,0,0,0-1.6,2.258A13.1,13.1,0,0,1,32.709,57.8c-.5.312-1.059.075-1.586-.072a2.627,2.627,0,0,0-3.439,2.893,2.7,2.7,0,0,0,1.926,2.057,1.655,1.655,0,0,0,.3.068c.687.1,1.295.312,1.3,1.151,0,.643-.525,1.008-1.5,1a.96.96,0,0,0-1.051.588,38.172,38.172,0,0,1-4.044,6.357c-.746,1.035-.742,1.118.4,1.744a28.191,28.191,0,0,1,2.677,1.682c.554.392.991.434,1.31-.241,1.247-2.638,3.4-3.514,6.191-3.276a19.544,19.544,0,0,0,3.562,0,2.8,2.8,0,0,0,2.433-1.6c.271-.551.213-.985-.434-1.214a3.527,3.527,0,0,1-.826-.4c-.528-.362-.982-.807-.813-1.507.187-.775.859-.618,1.426-.619.246.075.39.322.609.341-.065-.078-.228-.111-.343-.213-.229-.22-.516-.141-.779-.134a.812.812,0,0,1-.939-.731,1.059,1.059,0,0,1,.582-1.1.682.682,0,0,1,.488-.121c2.038.535,2.369-1.38,3.334-2.35.371-.372.219-.9-.135-1.3-.246-.279-.548-.522-.556-.94.1-.567.2-1.133.317-1.767.148.108.258.174.35.259,2.892,2.665,2.926,3.171.442,6.219a2.328,2.328,0,0,0-.582,1.691,13.411,13.411,0,0,1,.109,1.822c-.261,4.154-1.663,5.513-5.853,5.646-1.326.042-2.655-.057-3.981-.029-1.342.028-3.481,2.16-3.552,3.458-.014.253.158.356.3.491,5,4.695,8.038,10.634,10.7,16.813.066.153.156.3.235.443a5.967,5.967,0,0,1,1.2,2.43,43.063,43.063,0,0,1,1.99,6.39,2.208,2.208,0,0,1,.044,1c.081,1.341.392,2.662.358,4.014a.984.984,0,0,1-.527,1.008.842.842,0,0,1-1.055-.359" transform="translate(0 -13.815)"/>
        <path id="Trazado_153839" data-name="Trazado 153839" d="M106.575,109.585c-.223.467-.44.993-1.1.821s-.553-.707-.562-1.241a7.651,7.651,0,0,0-1.525-5.06c-3.189-3.806-3.162-7.8-.783-12,1.8-3.18,4.044-6.046,6.116-9.035.851-1.228,1.628-2.511,2.392-3.8a6.276,6.276,0,0,0-.614-6.615,2.12,2.12,0,0,0-1.77-.6c-1.018,0-2.036.151-3.056.166-2.891.042-4.579-1.4-5.024-4.273a8.546,8.546,0,0,1-.18-2.025,2.689,2.689,0,0,0-1.348-2.657c-.2-.132-.391-.273-.583-.413-1.669-1.217-1.831-2.843-.364-4.329a4.741,4.741,0,0,0,1.47-4.905,1.037,1.037,0,0,0-.491-.719,6.268,6.268,0,0,1-3.385-7.3,6.151,6.151,0,0,1,1.612-3.128,20,20,0,0,1,13.73-6.356A24.645,24.645,0,0,1,122.16,37.5c4.845,1.954,7.893,5.64,9.976,10.264a18.959,18.959,0,0,0,2.484,4.546,14.618,14.618,0,0,0,2.263,2.2c3.555,2.761,4.095,6.956,1.3,10.5a21.477,21.477,0,0,1-10.676,7,16.609,16.609,0,0,1-5.114.863c-.7,0-.821.228-.509.848a19.408,19.408,0,0,0,1.411,2.587,28.727,28.727,0,0,1,4.949,15.316,62.228,62.228,0,0,1-1.846,17.8c-.106.457-.281.879-.8.941-.534.063-.79-.3-.914-.773a1.591,1.591,0,0,1-.02-1.287,57.192,57.192,0,0,0,1.648-16.7,26.769,26.769,0,0,0-3.867-13.07c-.67-1.057-.764-1.089-1.884-.6a28.653,28.653,0,0,1-7.27,2.339,1.2,1.2,0,0,0-.891.615c-2.153,3.637-4.906,6.866-7.129,10.455a15.84,15.84,0,0,0-2.361,5.169,6.643,6.643,0,0,0,.76,4.531,11.315,11.315,0,0,0,1.274,1.97,9.717,9.717,0,0,1,1.894,5.51,1.215,1.215,0,0,1-.265,1.053" transform="translate(-38.33 -14.445)"/>
        <path id="Trazado_153840" data-name="Trazado 153840" d="M111.209,137.178a10.6,10.6,0,0,0-2.217-6.922c-2.544-3.119-2.236-6.416-.331-9.774,1.886-3.325,4.285-6.293,6.411-9.45.721-1.071,1.185-2.466,2.159-3.174.926-.672,2.379-.588,3.575-.929a27.849,27.849,0,0,0,4.832-1.907c.7-.35.981-.152,1.362.428a26.509,26.509,0,0,1,4.039,11.743,56.078,56.078,0,0,1-1.48,18.906c-.083.364-.159.729-.238,1.093l-3.955-.011c-.436-.764.041-1.454.229-2.139.867-3.15,1.767-6.288,2.363-9.507a30.568,30.568,0,0,0,.544-6.9c-.035-.791-.077-1.585-.876-2.052a1.792,1.792,0,0,1-.769-1.248c.129-1.028-.043-1.319-1.009-1.473a4.671,4.671,0,0,0-4.328,1.233,12.3,12.3,0,0,0-2.661,4.066,67.18,67.18,0,0,0-3.1,11.181c-.416,1.891-.76,3.8-1.154,5.693-.088.422-.089.9-.546,1.149l-2.85-.008" transform="translate(-42.965 -42.038)" fill="#1b88e4"/>
        <path id="Trazado_153841" data-name="Trazado 153841" d="M58.6,72.427c1.634,1.47,1.668,1.878.005,3.492a.564.564,0,0,0-.129.157c-.486,1.067-1.173,1.641-2.438,1.179-.5-.181-.855.191-.941.688-.094.539.265.807.729.94.254.073.547-.091.788.108q-.066.254-.246.061c-.524-.044-1.072-.083-1.264.556-.166.552.244.895.615,1.183a2.143,2.143,0,0,0,.984.5c.958.1.858.619.649,1.281a2.9,2.9,0,0,1-2.778,2.018,17,17,0,0,1-3.87.007,5.213,5.213,0,0,0-5.786,3.344c-.375.818-.7.742-1.316.284a24.985,24.985,0,0,0-3.736-2.286c-.467-.235-.574-.407-.235-.89,1.734-2.471,3.667-4.822,4.818-7.66.127-.313.332-.347.652-.271a3.522,3.522,0,0,0,1.108.084.7.7,0,0,0,.631-.694.737.737,0,0,0-.479-.816,3.615,3.615,0,0,0-.7-.109A2.841,2.841,0,0,1,43.31,73.58a2.672,2.672,0,0,1,.734-2.9,2.569,2.569,0,0,1,3-.617,1.834,1.834,0,0,0,2.126-.364,31.967,31.967,0,0,0,4.015-3.9,12.229,12.229,0,0,0,.594,6.989c.507,1.162,1.115,2.247,2.561,2.293,1.064.033,1.849-.967,2.258-2.657" transform="translate(-15.811 -26.383)" fill="#fe967b"/>
        <path id="Trazado_153842" data-name="Trazado 153842" d="M132.584,122.084l.6.963a5.313,5.313,0,0,0-.11,2.512,34.647,34.647,0,0,1-1.181,9.587c-.593,2.656-1.428,5.25-2.123,7.881a1.2,1.2,0,0,1-.5.852h-7.862c-.34-.223-.212-.555-.153-.832,1.086-5.053,1.931-10.164,3.572-15.084a17.543,17.543,0,0,1,2.028-4.221c1.465-2.193,3.391-2.744,5.73-1.658" transform="translate(-48.586 -48.732)" fill="#fe967b"/>
        <path id="Trazado_153843" data-name="Trazado 153843" d="M76.354,0c1.849.07,4-.177,6.112.377a10.989,10.989,0,0,1,8.171,9.941c.2,3.216-.22,6.249-2.326,8.843-2.057,2.532-4.71,4.187-7.982,4.077s-6.154.439-8.6,2.7a2.754,2.754,0,0,1-.9.47c-.764.289-1.309-.049-1.3-.854a6.008,6.008,0,0,1,.263-1.8c.182-.537.037-.694-.445-.849-5.163-1.671-7.951-5.571-8.027-10.98-.07-4.922,1.9-8.6,6.327-10.857A10.518,10.518,0,0,1,72.389.006c1.226-.012,2.451,0,3.965,0" transform="translate(-24.587 0)"/>
        <path id="Trazado_153844" data-name="Trazado 153844" d="M69.229,124.652a1.334,1.334,0,0,1,.663-1.555c.869-.6,1.713-1.23,2.57-1.845.138-.1.285-.246.436-.257,1.952-.141,1.744-1.523,1.7-2.861-.058-1.871-.068-3.744-.076-5.616-.008-1.583.416-2.384,1.369-2.687,1.083-.344,2.113.162,2.961,1.458.093.141.178.288.311.506.334-.5.625-.982.964-1.428a3.7,3.7,0,0,1,5.226-.984,8.192,8.192,0,0,1,2.516,10.974,11.835,11.835,0,0,1-3.591,3.431c-1.259.809-2.523,1.61-3.782,2.417-.29.186-.546.323-.146.727.363.366.165.811-.137,1.192a35.124,35.124,0,0,1-5.3,5.37c-.416.338-.815.487-1.279.113-.752-.6-.395-1.1.14-1.583a41.483,41.483,0,0,0,3.65-3.535c.451-.519.59-.812-.07-1.256a17.092,17.092,0,0,1-3.673-3.5.814.814,0,0,0-1.3-.159c-.56.386-1.044.872-1.628,1.223-.542.326-1.07.446-1.529-.143" transform="translate(-27.735 -43.587)"/>
        <path id="Trazado_153845" data-name="Trazado 153845" d="M69.12,134.182a1.4,1.4,0,0,0,1.743-.278c.648-.546,1.331-1.346,2.061-1.418.815-.081,1.117,1.1,1.71,1.671a18.284,18.284,0,0,0,3.01,2.582c.67.409.576.68.107,1.195a35.141,35.141,0,0,1-3.891,3.741c-.542.436-.736.859-.333,1.464-.558.148-.891.648-1.389.891a78.96,78.96,0,0,0-3.236-9.823l.217-.025" transform="translate(-27.626 -53.118)" fill="#77c4ee"/>
        <path id="Trazado_153846" data-name="Trazado 153846" d="M131.58,121.132a1.392,1.392,0,0,1-.987-.079,3.358,3.358,0,0,0-3.786.994,13.408,13.408,0,0,0-2.609,4.786,101.014,101.014,0,0,0-3.252,13.307c-.193.926-.362,1.858-.543,2.787-.155.438-.394.814-.917.787-.465-.024-.687-.371-.809-.786.976-4.34,1.7-8.735,2.867-13.034a24.975,24.975,0,0,1,3.276-7.976c1.659-2.379,3.972-3.279,6.242-2.446,1.015.372,1.12.71.518,1.66" transform="translate(-47.583 -47.779)"/>
        <path id="Trazado_153847" data-name="Trazado 153847" d="M34.285,145.072a30.377,30.377,0,0,1,.235-13.132,12.884,12.884,0,0,1,2.942-5.847,5.076,5.076,0,0,1,4.02-1.641c.57.018,1.043.21,1.014.872-.026.594-.457.788-1,.758a4.021,4.021,0,0,0-3.721,2.245,16.452,16.452,0,0,0-2.222,6.917,29.252,29.252,0,0,0,.432,9.827c-.61,1.037-1.072,1.037-1.7,0" transform="translate(-13.505 -49.897)"/>
        <path id="Trazado_153848" data-name="Trazado 153848" d="M134.682,144.885c1.09-4.377,2.517-8.672,3.19-13.152a20.159,20.159,0,0,0,.165-6.488,1.051,1.051,0,0,1,.56-1.193.978.978,0,0,1,1.072.972,24.5,24.5,0,0,1-.34,8c-.679,4.024-2,7.891-2.928,11.854-.129.463-.394.808-.908.79-.47-.016-.672-.389-.812-.788" transform="translate(-54 -49.738)"/>
        <path id="Trazado_153849" data-name="Trazado 153849" d="M56.466,146.407a70.744,70.744,0,0,0-4.182-14.745,20.651,20.651,0,0,0-1.231-2.223c-.316-.525-.651-1.075.026-1.5s1.036.125,1.368.628a28.492,28.492,0,0,1,3.176,7.356c1.023,3.273,1.694,6.637,2.463,9.975a4.732,4.732,0,0,1,.033.91c-.845.656-1.074.6-1.652-.4" transform="translate(-20.322 -51.236)"/>
        <path id="Trazado_153850" data-name="Trazado 153850" d="M64.795,67.394a4.738,4.738,0,0,1,.413-2.151c.252-.63.628-.668,1-.095a2.507,2.507,0,0,1,.6,1.248,19.7,19.7,0,0,0,.572,3.884c-.095.557-.168,1.119-.291,1.671-.086.389-.2.881-.633.942-.528.074-.687-.473-.858-.843a16,16,0,0,1-.561-1.6,1.885,1.885,0,0,0,.9-2.228c-.129-.687-.723-.61-1.146-.825" transform="translate(-25.975 -25.958)" fill="#fd977b"/>
        <path id="Trazado_153851" data-name="Trazado 153851" d="M64.765,69.108c1.051-.255,1.425.019,1.467,1.073.065,1.661-.069,1.879-1.221,1.98a7.546,7.546,0,0,1-.246-3.053" transform="translate(-25.945 -27.673)" fill="#362e45"/>
        <path id="Trazado_153852" data-name="Trazado 153852" d="M68.621,71.386A4.927,4.927,0,0,1,68.05,67.5a8.975,8.975,0,0,1,.571,3.884" transform="translate(-27.212 -27.064)" fill="#4f4255"/>
        <path id="Trazado_153853" data-name="Trazado 153853" d="M65.07,60.846l.952-1.771a3.921,3.921,0,0,1,.507,1.783l-1.459-.011" transform="translate(-26.089 -23.686)" fill="#f3947b"/>
        <path id="Trazado_153854" data-name="Trazado 153854" d="M70.262,65.007c.307-.113.107-.415.223-.6a1.251,1.251,0,0,1,.12,1.061.479.479,0,0,1-.343-.462" transform="translate(-28.171 -25.824)" fill="#c4c2c9"/>
        <path id="Trazado_153855" data-name="Trazado 153855" d="M15.293,69.213A11.387,11.387,0,0,1,2.925,59.465c-.9-5.294,1.787-8.941,5.751-11.916A26.167,26.167,0,0,1,13.9,44.82a71.663,71.663,0,0,0,7.836-4.539c3.024-1.833,6.208-3.236,9.849-3.129a10.428,10.428,0,0,1,7.174,2.687,6.556,6.556,0,0,1,2.015,5.7c-.356,3.19-2.025,5.683-3.954,8.091A24.16,24.16,0,0,1,33.957,56.5a1.562,1.562,0,0,1-1.484.406c-3.785-.768-6.532,2.257-5.341,5.914a.944.944,0,0,1-.152,1.072c-2.679,3.292-5.941,5.421-10.36,5.322-.442-.01-.885,0-1.327,0" transform="translate(-1.103 -14.894)" fill="#3c3854"/>
        <path id="Trazado_153856" data-name="Trazado 153856" d="M47.946,113.68c-4.872-3.925-9.89-7.384-16.3-8.522a21.265,21.265,0,0,1,3.2-3.946c.228-.225.444-.046.648.054a28.37,28.37,0,0,1,12.483,12.079c.026.047-.01.128-.031.334" transform="translate(-12.689 -40.537)" fill="#77c4ee"/>
        <path id="Trazado_153857" data-name="Trazado 153857" d="M40.125,84.289A31.106,31.106,0,0,1,36.9,89.656c-.448.634-.961,1.225-1.369,1.882-.281.453-.465.354-.76.055a12.735,12.735,0,0,0-1.877-1.7c-.233-.158-.694-.527-.059-.716,2.807-.834,4.885-2.693,6.854-4.725.041-.042.121-.047.435-.159" transform="translate(-13.036 -33.795)" fill="#322f4c"/>
        <path id="Trazado_153858" data-name="Trazado 153858" d="M67.7,87.878l.246-.061c.134.017.269.037.4.051.231.023.512-.016.489.346-.007.123-.04.312-.119.349a.509.509,0,0,1-.554-.155,5.892,5.892,0,0,1-.467-.53" transform="translate(-27.145 -35.21)" fill="#fdfdfd"/>
        <path id="Trazado_153859" data-name="Trazado 153859" d="M114.322,38.833c4.278-.1,8.031.655,11.393,2.968a17.048,17.048,0,0,1,5.251,6.235,41,41,0,0,1,1.946,4.259,10.132,10.132,0,0,0,4.051,4.6,5.676,5.676,0,0,1,.734,8.625A21.059,21.059,0,0,1,124.714,72.3a25.685,25.685,0,0,1-8.5-.222c-4.1-.8-5.46-2.942-4.6-7.029.667-3.182.39-6.225-1.723-8.85a9.384,9.384,0,0,0-5.6-3.06c-1.022-.223-2.054-.407-3.089-.558a3.01,3.01,0,0,1-2.332-1.915c-1.255-2.642-.424-5.3,2.231-7.409a19.109,19.109,0,0,1,8.752-4.094,19.973,19.973,0,0,1,4.471-.328" transform="translate(-39.41 -15.56)" fill="#3c3854"/>
        <path id="Trazado_153860" data-name="Trazado 153860" d="M112.655,82.316a10.282,10.282,0,0,0-4.175-.134c-3.156.3-4.116-1.154-4.213-4.537-.008-.294.079-.427.407-.41a6.534,6.534,0,0,0,.911-.078c.57-.054.9-.37.819-.936a.766.766,0,0,0-.977-.67c-.961.234-1.479-.219-2.029-.934a10.237,10.237,0,0,0-1.764-1.531c-.676-.548-.828-1.065-.139-1.765,1.6-1.628,2.574-3.5,2-5.882-.131-.544.24-.431.539-.386,4.988.757,7.758,3.457,7.272,8.817-.065.709-.187,1.413-.286,2.118-.425,3.007-.2,3.893,1.637,6.33" transform="translate(-40.514 -26.065)" fill="#fe967b"/>
        <path id="Trazado_153861" data-name="Trazado 153861" d="M124.014,101.938c-.088-3.916-.368-4.976-1.9-6.954a17.337,17.337,0,0,0,7.833,1.662c.627.016.669.467.836.848.814,1.849.82,1.873-1.02,2.628a23.649,23.649,0,0,1-5.752,1.816" transform="translate(-48.961 -38.083)" fill="#fe967a"/>
        <path id="Trazado_153862" data-name="Trazado 153862" d="M48.778,75.159a2.09,2.09,0,0,1,1.868,1.375.788.788,0,0,1-.372,1.049.71.71,0,0,1-.986-.241,1.606,1.606,0,0,0-.858-.661c-.488-.149-.538-.577-.42-1a.7.7,0,0,1,.768-.519" transform="translate(-19.228 -30.134)" fill="#352d44"/>
        <path id="Trazado_153863" data-name="Trazado 153863" d="M72.595,25.213c-.146-.5.111-.694.188-.939.327-1.051.135-1.4-.952-1.635-4.9-1.074-7.7-4.639-7.778-9.693-.064-3.938,1.365-7,4.8-9.049a7.562,7.562,0,0,1,3.667-1.142,62.369,62.369,0,0,1,9.89.126,9.218,9.218,0,0,1,7.677,8.472c.179,3.046-.152,5.917-2.337,8.283A8.947,8.947,0,0,1,81.2,22.719c-1.259.031-2.521.064-3.778.005a3.4,3.4,0,0,0-2.444.792c-.729.594-1.532,1.1-2.385,1.7" transform="translate(-25.681 -1.05)" fill="#42a3f5"/>
        <path id="Trazado_153864" data-name="Trazado 153864" d="M91.382,117.783a5.527,5.527,0,0,1-1.635,3.72,11.163,11.163,0,0,1-2.762,2.24,31.85,31.85,0,0,0-4.075,2.7.672.672,0,0,1-1.037.013,22.923,22.923,0,0,1-2.609-2.575c-.368-.433-.357-.7.032-1.094a3.467,3.467,0,0,0,.908-2.8c-.1-2.206-.083-4.417-.1-6.627,0-.319-.087-.745.374-.831.394-.074.6.264.792.541a1.5,1.5,0,0,1,.317.632c.171,1.774,1.351,2.833,2.626,3.859.418.337.791.585,1.248.2a.791.791,0,0,0,.009-1.251c-.158-.179-.278-.424-.474-.528-1.179-.628-.834-1.4-.353-2.32,1.444-2.749,3.449-2.914,5.239-.356a7.478,7.478,0,0,1,1.5,4.486" transform="translate(-31.672 -44.697)" fill="#fe967b"/>
        <path id="Trazado_153865" data-name="Trazado 153865" d="M107.807,68.987c.028.73-.192,1.356-1.023,1.334-.767-.021-.95-.643-.954-1.32,0-.71.158-1.383.99-1.386s1.025.646.987,1.372" transform="translate(-42.432 -27.11)" fill="#3a3046"/>
        <path id="Trazado_153866" data-name="Trazado 153866" d="M77.231,20.536a1.573,1.573,0,1,1,1.563-1.526,1.524,1.524,0,0,1-1.563,1.526" transform="translate(-30.349 -6.973)" fill="#fdfdfe"/>
        <path id="Trazado_153867" data-name="Trazado 153867" d="M85.186,20.443c.031-.634.341-1.029.994-1.036a.963.963,0,0,1,1.074,1.069,1.035,1.035,0,0,1-2.069-.033" transform="translate(-34.155 -7.781)" fill="#fbfdfe"/>
        <path id="Trazado_153868" data-name="Trazado 153868" d="M94.459,19.083c-.1.443-.342.746-.831.7a.673.673,0,0,1-.655-.752.687.687,0,0,1,.812-.694c.46.028.613.346.673.745" transform="translate(-37.276 -7.351)" fill="#f5fafe"/>
      </g>
    </g>
  </g>
</svg>
