<svg xmlns="http://www.w3.org/2000/svg" xmlns:xlink="http://www.w3.org/1999/xlink" width="505" height="467.682" viewBox="0 0 505 467.682">
  <defs>
    <clipPath id="clip-path">
      <rect id="Rect치ngulo_40892" data-name="Rect치ngulo 40892" width="469.68" height="365.925" fill="none"/>
    </clipPath>
  </defs>
  <g id="Grupo_85023" data-name="Grupo 85023" transform="translate(-286.962 -3200.927)">
    <path id="Trazado_150104" data-name="Trazado 150104" d="M0,0H505V247.178H0Z" transform="translate(286.962 3421.431)" fill="#6b8dff"/>
    <g id="Grupo_165526" data-name="Grupo 165526" transform="translate(303.005 3250)">
      <path id="Trazado_150103" data-name="Trazado 150103" d="M413.515,474.655C531.646,361.226,456.845-15.7,300.172,68.15S162.838,276.157,80.463,277.981-36.03,412.2,50.885,473.481Z" transform="translate(-1.785 -105.165)" fill="#ffbfc1"/>
      <g id="Grupo_165525" data-name="Grupo 165525" transform="translate(0 3.566)">
        <g id="Grupo_165524" data-name="Grupo 165524" clip-path="url(#clip-path)">
          <path id="Trazado_149963" data-name="Trazado 149963" d="M20.56,386.51q40.459-.062,80.919-.091,45.767-.035,91.536-.046,47.725-.011,95.448,0,46.356.01,92.712.041,41.276.029,82.553.085l8.976.013a.415.415,0,0,0,0-.83q-40.421-.062-80.84-.09-45.749-.035-91.5-.046-47.722-.011-95.446,0-46.374.01-92.747.042-41.312.029-82.626.085l-8.988.013a.415.415,0,0,0,0,.83" transform="translate(-3.425 -65.499)" fill="#2b244a"/>
          <path id="Trazado_149964" data-name="Trazado 149964" d="M91.058,17.959A100.5,100.5,0,0,0,66.692,4.888C58.207,1.709,49.283-.4,40.172.062c-8.036.4-16.036,2.8-22.4,7.83A44.315,44.315,0,0,0,4.874,25.4C-.1,37.069-.315,50.012.181,62.5a294.292,294.292,0,0,0,3.9,35.878c4.642,28.336,11.925,56.231,20.144,83.719,8.533,28.534,18.242,56.718,28.78,84.572,8.658,22.884,17.838,45.6,27.942,67.887q1.433,3.163,2.9,6.311c.225.484.941.062.716-.419-9.726-20.895-18.5-42.239-26.824-63.727-10.41-26.871-20.032-54.059-28.645-81.561-8.573-27.374-16.247-55.112-21.742-83.282A371.224,371.224,0,0,1,1.8,74.414,172.439,172.439,0,0,1,1.383,42.7C2.843,27.242,10.7,10.66,25.6,4.159c17.62-7.685,38.158-1.1,54.107,7.586a94.768,94.768,0,0,1,10.929,6.93c.431.318.845-.4.419-.716" transform="translate(0 0)" fill="#2b244a"/>
          <path id="Trazado_149965" data-name="Trazado 149965" d="M101.3,30.754A48.146,48.146,0,0,0,53.96,79.694s-.892,15.3,2.852,16.853c39.513,16.421,86.907.821,91.106-1.578,2.91-1.662,3.169-6.447,3.042-8.685-.2-3.552-.087-5.693-.424-8.583-.352-3.015-.792-6.022-1.439-8.988a47.76,47.76,0,0,0-7.958-18A48.044,48.044,0,0,0,101.3,30.754" transform="translate(-9.152 -5.224)" fill="#ffeae0"/>
          <path id="Trazado_149966" data-name="Trazado 149966" d="M54.352,90.662a200.928,200.928,0,0,0,37.171,4.884,200.21,200.21,0,0,0,37.532-2.125,206.883,206.883,0,0,0,21.535-4.36.416.416,0,0,0-.234-.8A202.69,202.69,0,0,1,112.607,94.4a200.576,200.576,0,0,1-37.331-.946,199.806,199.806,0,0,1-20.717-3.59c-.522-.12-.73.685-.208.8" transform="translate(-9.182 -14.992)" fill="#d9a389"/>
          <path id="Trazado_149967" data-name="Trazado 149967" d="M56.7,72.673a194.409,194.409,0,0,0,35.556,4.64A192.83,192.83,0,0,0,128.222,75.3a188.635,188.635,0,0,0,19.7-4.053c.516-.135.283-.932-.234-.8a188.874,188.874,0,0,1-35.366,5.744,193.464,193.464,0,0,1-35.681-.926,192.955,192.955,0,0,1-19.735-3.4c-.521-.117-.729.686-.208.8" transform="translate(-9.581 -11.966)" fill="#d9a389"/>
          <path id="Trazado_149968" data-name="Trazado 149968" d="M64.484,56.277a194.921,194.921,0,0,0,30.313,3.3,192.827,192.827,0,0,0,30.6-1.512q8.552-1.111,16.98-2.99c.521-.116.286-.913-.234-.8A189.79,189.79,0,0,1,111.9,58.5a193.87,193.87,0,0,1-30.213-.592q-8.546-.835-16.992-2.436c-.523-.1-.733.7-.208.8" transform="translate(-10.903 -9.219)" fill="#d9a389"/>
          <path id="Trazado_149969" data-name="Trazado 149969" d="M80.6,40.755a194.17,194.17,0,0,0,39.8.525q2.737-.247,5.466-.572,1.415-.169,2.827-.359a23.457,23.457,0,0,1,2.629-.372.415.415,0,0,0-.013-.829,19.352,19.352,0,0,0-2.226.316q-1.311.179-2.625.34-2.426.3-4.857.532-4.963.481-9.948.7a193.7,193.7,0,0,1-19.93-.139q-5.582-.326-11.139-.974c-.529-.061-.51.77.014.83" transform="translate(-13.625 -6.651)" fill="#d9a389"/>
          <path id="Trazado_149970" data-name="Trazado 149970" d="M76.51,410.374H119.5a2,2,0,0,1,2,2v3.1h-47v-3.1a2,2,0,0,1,2-2" transform="translate(-12.658 -69.719)" fill="#2b244a"/>
          <path id="Trazado_149971" data-name="Trazado 149971" d="M109.324,29.854a.415.415,0,0,1-.415-.415V22.121a.415.415,0,1,1,.83,0v7.318a.415.415,0,0,1-.415.415" transform="translate(-18.503 -3.688)" fill="#2b244a"/>
          <path id="Trazado_149972" data-name="Trazado 149972" d="M482.874,288.427a7.657,7.657,0,0,1,4.334,3.335,7,7,0,0,1,.623,2.453l.446,3.194q.463,3.327.927,6.653l3.7,26.531,3.748,26.889q1.872,13.425,3.742,26.849,1.841,13.206,3.682,26.412.232,1.655.461,3.31c.073.527.873.3.8-.221q-1.87-13.417-3.74-26.832l-3.79-27.192-3.783-27.139q-1.885-13.519-3.77-27.039-.472-3.391-.945-6.78-.232-1.659-.462-3.317a24.807,24.807,0,0,0-.463-3.056c-.618-2.273-2.717-3.813-4.8-4.666-.159-.066-.32-.13-.485-.183-.51-.164-.728.637-.221.8" transform="translate(-81.987 -48.861)" fill="#dec6bd"/>
          <path id="Trazado_149973" data-name="Trazado 149973" d="M420.781,287.613c-2.9.033-4.8,2.083-5.4,4.818-.457,2.078-.621,4.258-.915,6.366l-.9,6.488-3.663,26.28q-1.844,13.227-3.687,26.453-1.841,13.208-3.682,26.416-1.824,13.085-3.648,26.17-.225,1.614-.45,3.228c-.073.523.726.749.8.221l3.574-25.64,3.611-25.906,3.621-25.974q1.8-12.921,3.6-25.843.9-6.436,1.794-12.872l.451-3.232a15.926,15.926,0,0,1,.521-2.766,4.732,4.732,0,0,1,2.557-3.037,4.858,4.858,0,0,1,1.82-.34.415.415,0,0,0,0-.83" transform="translate(-67.689 -48.863)" fill="#dec6bd"/>
          <path id="Trazado_149974" data-name="Trazado 149974" d="M511.122,216.922c-1.189,14.97-6.442,24.424-9,28.234h-6.608a89.409,89.409,0,0,1,14.119-28.81.834.834,0,0,1,1.492.575" transform="translate(-84.183 -36.7)" fill="#ccb16c"/>
          <path id="Trazado_149975" data-name="Trazado 149975" d="M499.731,203.35c1.2,6.754,3.618,25.149-2.366,39.536h-5.9s-2.313-18.006,6.679-39.7a.833.833,0,0,1,1.59.164" transform="translate(-83.45 -34.432)" fill="#ccb16c"/>
          <path id="Trazado_149976" data-name="Trazado 149976" d="M482.276,212.4c2.4,3.853,7.654,14.286,7.956,32.068h-5.511s-6.516-15.13-3.975-31.749a.834.834,0,0,1,1.531-.319" transform="translate(-81.574 -36.019)" fill="#ccb16c"/>
          <path id="Trazado_149977" data-name="Trazado 149977" d="M471.173,224.673a47.811,47.811,0,0,1,13.821,21.915h-6.762a34.085,34.085,0,0,1-8.444-21.244.836.836,0,0,1,1.385-.671" transform="translate(-79.813 -38.135)" fill="#ccb16c"/>
          <path id="Trazado_149978" data-name="Trazado 149978" d="M499.512,248.9a84.327,84.327,0,0,0,3.152-16.87c.045-.533-.786-.53-.83,0a83.287,83.287,0,0,1-3.123,16.65.416.416,0,0,0,.8.22" transform="translate(-84.723 -39.351)" fill="#2b244a"/>
          <path id="Trazado_149979" data-name="Trazado 149979" d="M493.024,249.277a76.523,76.523,0,0,1-1.383-10.937c-.022-.532-.852-.535-.83,0a78,78,0,0,0,1.413,11.158c.1.524.9.3.8-.221" transform="translate(-83.384 -40.424)" fill="#2b244a"/>
          <path id="Trazado_149980" data-name="Trazado 149980" d="M481.205,236.976a61.52,61.52,0,0,1,3.248,6.225,45.442,45.442,0,0,1,2.5,6.5.415.415,0,0,0,.8-.221,46.508,46.508,0,0,0-2.517-6.547,61.737,61.737,0,0,0-3.318-6.376.415.415,0,0,0-.716.419" transform="translate(-81.742 -40.155)" fill="#2b244a"/>
          <path id="Trazado_149981" data-name="Trazado 149981" d="M500.886,251.116H474.9a.673.673,0,0,0-.674.667c-.015,2.328.033,10.255,1.3,15.855A46.225,46.225,0,0,0,479.84,278.8h16.108a46.224,46.224,0,0,0,4.314-11.159c1.264-5.6,1.312-13.527,1.3-15.855a.673.673,0,0,0-.673-.667" transform="translate(-80.567 -42.662)" fill="#ffeae0"/>
          <path id="Trazado_149982" data-name="Trazado 149982" d="M456.019,229H402.934a1.525,1.525,0,0,0-1.414.954l-18.2,45.083h56.373L457.432,231.1a1.524,1.524,0,0,0-1.414-2.1" transform="translate(-65.123 -38.906)" fill="#2b244a"/>
          <path id="Trazado_149983" data-name="Trazado 149983" d="M384.744,280.8H350.013a2.025,2.025,0,0,0-2.025,2.025v1.014h36.756Z" transform="translate(-59.12 -47.706)" fill="#2b244a"/>
          <path id="Trazado_149984" data-name="Trazado 149984" d="M387.771,273.634q3.447-8.554,6.894-17.109,3.636-9.021,7.271-18.043l1.853-4.6c.59-1.465.98-3.362,2.519-4.1.481-.232.061-.948-.419-.716-1.376.663-1.824,1.927-2.358,3.254q-.832,2.064-1.664,4.13-1.81,4.494-3.622,8.988L390.8,263.916q-1.913,4.749-3.826,9.5c-.2.5.6.711.8.221" transform="translate(-65.737 -38.908)" fill="#8c75b5"/>
          <path id="Trazado_149985" data-name="Trazado 149985" d="M384.989,281.473a2.279,2.279,0,0,1,.392.091c.031.01.064.022.1.033s.091.039.026.009c.061.028.122.057.182.09a2.691,2.691,0,0,1,.343.22c-.075-.056.007.008.023.021l.077.066c.055.05.107.1.158.154s.092.1.135.153l.031.039c-.027-.035-.031-.041-.014-.017s.04.054.059.082a2.632,2.632,0,0,1,.2.345c.006.012.049.11.027.056s.017.046.021.057c.022.06.042.122.058.185s.031.124.042.187l.007.047c-.007-.053-.009-.064-.006-.032s.007.074.008.11a.415.415,0,0,0,.83,0,3,3,0,0,0-2.472-2.7.426.426,0,0,0-.511.29.419.419,0,0,0,.29.51" transform="translate(-65.355 -47.683)" fill="#8c75b5"/>
          <path id="Trazado_149986" data-name="Trazado 149986" d="M429.9,260.739a3.62,3.62,0,0,1-3.069-1.434,4.078,4.078,0,0,1-.33-3.738,7.628,7.628,0,0,1,6.627-4.9A3.62,3.62,0,0,1,436.2,252.1a4.076,4.076,0,0,1,.33,3.738,7.628,7.628,0,0,1-6.627,4.9m3.228-9.241a6.741,6.741,0,0,0-5.843,4.342,3.224,3.224,0,0,0,.223,2.983,2.819,2.819,0,0,0,2.392,1.085,6.741,6.741,0,0,0,5.843-4.342,3.224,3.224,0,0,0-.223-2.983,2.816,2.816,0,0,0-2.392-1.085" transform="translate(-72.409 -42.586)" fill="#8c75b5"/>
          <path id="Trazado_149987" data-name="Trazado 149987" d="M169.637,272.93s-2.384,10.557,6.3,10.557h65.3c6.726,0,7.535,9.237,3.576,20.731s-11.11,33.758-11.11,33.758h4.6s10.229-29.948,11.877-33.374,9.2-26.308-3.916-30.395-76.626-1.277-76.626-1.277" transform="translate(-28.769 -46.208)" fill="#b06641"/>
          <rect id="Rect치ngulo_40891" data-name="Rect치ngulo 40891" width="105.664" height="14.866" transform="translate(109.946 287.256)" fill="#b06641"/>
          <path id="Trazado_149988" data-name="Trazado 149988" d="M140.355,331.43l-19.239,90.8h3.96l26.734-90.8Z" transform="translate(-20.577 -56.307)" fill="#b06641"/>
          <path id="Trazado_149989" data-name="Trazado 149989" d="M174.509,331.43l-19.239,90.8h3.96l26.734-90.8Z" transform="translate(-26.379 -56.307)" fill="#b06641"/>
          <path id="Trazado_149990" data-name="Trazado 149990" d="M245.606,331.43l19.239,90.8h-3.96l-26.734-90.8Z" transform="translate(-39.78 -56.307)" fill="#b06641"/>
          <path id="Trazado_149991" data-name="Trazado 149991" d="M211.452,331.43l19.239,90.8h-3.96L200,331.43Z" transform="translate(-33.978 -56.307)" fill="#b06641"/>
          <path id="Trazado_149992" data-name="Trazado 149992" d="M112.88,301.706S93.04,258.125,87.591,228.5s13.282-38.312,41.888-39.5,52.489,5.065,57.469,16.687,6.386,81.223,6.386,81.223-73.9,20.254-80.455,14.8" transform="translate(-14.721 -32.083)" fill="#ffc37a"/>
          <path id="Trazado_149993" data-name="Trazado 149993" d="M109.861,203.717c4,11.294,7.792,22.671,10.9,34.246a216.882,216.882,0,0,1,6.678,35.191,152.933,152.933,0,0,1,.667,19.962c-.017.534.813.534.83,0a167.054,167.054,0,0,0-2.873-35.6,285.227,285.227,0,0,0-8.9-34.762c-2.043-6.462-4.239-12.873-6.5-19.262-.176-.5-.979-.285-.8.221" transform="translate(-18.66 -34.524)" fill="#2b244a"/>
          <path id="Trazado_149994" data-name="Trazado 149994" d="M121.165,315.985c-5.521,2.527-4.058,21.853,4.371,25.939,6.57,3.185,30.473,2.2,54.077,1.986,30.553-.277,47.569-.754,56.026-.936,11.308-.244,15.79-28.522-4.985-32.779s-83.351-6.173-109.489,5.789" transform="translate(-20.028 -52.143)" fill="#ffc37a"/>
          <path id="Trazado_149995" data-name="Trazado 149995" d="M118.876,321.138a13.884,13.884,0,0,1,5.011-6.815,19.756,19.756,0,0,1,8.065-3.784,73.339,73.339,0,0,1,11.166-1.484c4.572-.351,9.154-.6,13.734-.814q9.118-.427,18.245-.651,10.441-.265,20.886-.29,1.344,0,2.688,0a.415.415,0,0,0,0-.83q-10.726-.015-21.45.239-9.469.219-18.934.637c-4.813.216-9.626.468-14.431.823a89.619,89.619,0,0,0-10.927,1.31,21.349,21.349,0,0,0-8.4,3.319,17.6,17.6,0,0,0-5.692,6.154,11.451,11.451,0,0,0-.756,1.967.415.415,0,0,0,.8.221" transform="translate(-20.057 -52.066)" fill="#2b244a"/>
          <path id="Trazado_149996" data-name="Trazado 149996" d="M180.4,363.969h-8.237a.415.415,0,0,0,0,.83H180.4a.415.415,0,0,0,0-.83" transform="translate(-29.181 -61.835)" fill="#2b244a"/>
          <path id="Trazado_149997" data-name="Trazado 149997" d="M145.994,363.969h-8.237a.415.415,0,0,0,0,.83h8.237a.415.415,0,0,0,0-.83" transform="translate(-23.335 -61.835)" fill="#2b244a"/>
          <path id="Trazado_149998" data-name="Trazado 149998" d="M252.742,363.969H244.5a.415.415,0,0,0,0,.83h8.237a.415.415,0,0,0,0-.83" transform="translate(-41.471 -61.835)" fill="#2b244a"/>
          <path id="Trazado_149999" data-name="Trazado 149999" d="M218.362,363.969h-8.237a.415.415,0,0,0,0,.83h8.237a.415.415,0,0,0,0-.83" transform="translate(-35.63 -61.835)" fill="#2b244a"/>
          <path id="Trazado_150000" data-name="Trazado 150000" d="M199.5,351.93v9.511a.415.415,0,0,0,.83,0V351.93a.415.415,0,0,0-.83,0" transform="translate(-33.893 -59.722)" fill="#2b244a"/>
          <path id="Trazado_150001" data-name="Trazado 150001" d="M272.269,228.685s9.311,18.9,22.1,23.269c13.062,4.456,24.822-5.92,20.118-30.961-4.7-25.006-8.074-41.016-10.918-46.9-2.988-6.179-8.269-11.281-23.769-10.148s2.381,9.038,2.381,9.038l5.6,4.013,2.629,32.512-8.2-10.408Z" transform="translate(-46.256 -27.826)" fill="#e0785e"/>
          <path id="Trazado_150002" data-name="Trazado 150002" d="M293.488,218.784q.027,5.489.056,10.977a.415.415,0,0,0,.83,0q-.029-5.489-.056-10.977a.415.415,0,0,0-.83,0" transform="translate(-49.861 -37.101)" fill="#2b244a"/>
          <path id="Trazado_150003" data-name="Trazado 150003" d="M288.869,168.351q4.1.938,8.163,2.034a.415.415,0,0,0,.221-.8q-4.062-1.1-8.163-2.034c-.521-.12-.742.681-.221.8" transform="translate(-49.026 -28.463)" fill="#2b244a"/>
          <path id="Trazado_150004" data-name="Trazado 150004" d="M287.184,208.891,266.067,225.84l-7.61-35.972,12.159-13.835a29.112,29.112,0,0,1,5.317,4.761c3.9,4.675,11.25,28.1,11.25,28.1" transform="translate(-43.909 -29.906)" fill="#ffeae0"/>
          <path id="Trazado_150005" data-name="Trazado 150005" d="M279.528,215.333l8.625-7.268c.408-.344-.181-.929-.588-.587l-8.624,7.268c-.409.344.181.929.587.587" transform="translate(-47.366 -35.231)" fill="#2b244a"/>
          <path id="Trazado_150006" data-name="Trazado 150006" d="M366.9,417.132s1.117,9,2.195,18.734h49.223s.359-4.854-5.689-7.932c-3.156-1.607-14.036-6.146-17.495-8.106-1.371-.776-3.364-1.38-4.273-3.171,0,0-8.673,3.347-23.962.475" transform="translate(-62.333 -70.786)" fill="#2b244a"/>
          <path id="Trazado_150007" data-name="Trazado 150007" d="M367.436,422.01a24.846,24.846,0,0,1,9.4.824c5.308,1.453,8.954-1.642,11.047-5.078a5.671,5.671,0,0,1,2.743-2.628l-3.054-7.471-22.078,5.32Z" transform="translate(-62.094 -69.257)" fill="#ffeae0"/>
          <path id="Trazado_150008" data-name="Trazado 150008" d="M368.164,435.7h48.879a.415.415,0,0,0,0-.83H368.164a.415.415,0,0,0,0,.83" transform="translate(-62.48 -73.88)" fill="#8c75b5"/>
          <path id="Trazado_150009" data-name="Trazado 150009" d="M370.321,367.322c-4.932-8.968-9.716-18.017-14.526-27.05s-9.642-18.041-14.68-26.942c-5.049-8.921-10.3-17.731-15.919-26.307q-2.092-3.194-4.253-6.34A57.688,57.688,0,0,0,316.7,275c-5.583-6.3-13.7-7.484-21.631-7.484,0,0-30.443-.076-31.707-.074-1.067,2.955,3.5,18.891,2.3,23.93-.8,3.393-1.586,6.838-2.3,10.317H268.2c2.876,0,5.8-.283,8.619.285a23.062,23.062,0,0,1,11.583,6.166c5.788,5.73,9.291,13.248,12.915,20.421q5.795,11.47,11.7,22.887,5.879,11.371,11.862,22.688c3.924,7.422,6.5,12.716,10.5,20.1,3.7-.24,39.882-8.988,44.146-10.464-3.632-6.126-5.763-10.215-9.2-16.454" transform="translate(-44.715 -45.436)" fill="#2b244a"/>
          <path id="Trazado_150010" data-name="Trazado 150010" d="M360.453,405.243l22.823-5.809,7.691-1.958a.415.415,0,0,0-.221-.8l-22.823,5.809-7.691,1.958a.415.415,0,0,0,.221.8" transform="translate(-61.15 -67.389)" fill="#8c75b5"/>
          <path id="Trazado_150011" data-name="Trazado 150011" d="M321.509,417.132s1.117,9,2.2,18.734h49.223s.359-4.854-5.689-7.932c-3.156-1.607-14.036-6.146-17.5-8.106-1.371-.776-3.363-1.38-4.272-3.171,0,0-8.673,3.347-23.963.475" transform="translate(-54.621 -70.786)" fill="#2b244a"/>
          <path id="Trazado_150012" data-name="Trazado 150012" d="M322.272,423.922a30.973,30.973,0,0,1,11.479.418c5.308,1.453,6.646-3.149,8.739-6.584a5.677,5.677,0,0,1,2.743-2.628l-3.054-7.471-22.078,5.32Z" transform="translate(-54.382 -69.257)" fill="#ffeae0"/>
          <path id="Trazado_150013" data-name="Trazado 150013" d="M324.377,435.7h47.829a.415.415,0,0,0,0-.83H324.377a.415.415,0,0,0,0,.83" transform="translate(-55.041 -73.88)" fill="#8c75b5"/>
          <path id="Trazado_150014" data-name="Trazado 150014" d="M283.368,391.672c3.7-.24,39.881-8.988,44.145-10.464q-5.448-9.189-10.575-18.564c-4.932-8.968-9.715-18.017-14.526-27.05s-9.643-18.041-14.68-26.942c-5.048-8.921-10.3-17.732-15.918-26.307q-2.092-3.194-4.254-6.34a57.692,57.692,0,0,0-4.245-5.681c-5.583-6.3-13.7-7.483-21.63-7.483H222.254a39.542,39.542,0,0,0-4.473,0c.315-1.255.565-2.251.88-3.507l-37.6-19.425c-6.164,8.636-10.317,14.948-14.331,23.641-3.406,7.376-6.68,15.475-4.779,23.72a17.192,17.192,0,0,0,5.161,9.066,4.754,4.754,0,0,0,1.459.678h46.25c2.875,0,5.8-.283,8.619.285a23.048,23.048,0,0,1,11.583,6.166c5.787,5.729,9.291,13.249,12.916,20.421q5.795,11.472,11.7,22.888,5.877,11.371,11.861,22.687,5.887,11.134,11.876,22.213" transform="translate(-27.418 -40.758)" fill="#2b244a"/>
          <path id="Trazado_150015" data-name="Trazado 150015" d="M303.51,410.433l34.546-8.793,9.293-2.366a.415.415,0,0,0-.221-.8l-34.544,8.793-9.3,2.366a.415.415,0,0,0,.222.8" transform="translate(-51.476 -67.695)" fill="#8c75b5"/>
          <path id="Trazado_150016" data-name="Trazado 150016" d="M271.772,269.385c7.681,1.153,12.188,8.613,15.973,14.624q7.521,11.947,14.8,24.044,7.406,12.295,14.578,24.73,7.147,12.389,14.061,24.911,6.832,12.374,13.426,24.878.821,1.558,1.637,3.117c.248.473.966.054.717-.419q-6.623-12.64-13.5-25.147-6.963-12.676-14.167-25.216-7.181-12.5-14.6-24.869-7.388-12.317-15.017-24.489a90.246,90.246,0,0,0-6.716-9.879,20.267,20.267,0,0,0-8.383-6.43,13.366,13.366,0,0,0-2.6-.654c-.523-.079-.748.721-.221.8" transform="translate(-46.121 -45.629)" fill="#8c75b5"/>
          <path id="Trazado_150017" data-name="Trazado 150017" d="M200.636,267.358h24.627a.415.415,0,0,0,0-.83H200.636a.415.415,0,0,0,0,.83" transform="translate(-34.018 -45.281)" fill="#8c75b5"/>
          <path id="Trazado_150018" data-name="Trazado 150018" d="M172.489,226.406s7.354,4.781,16.833,9.642c7.853,4.026,30.345,13.67,30.345,13.67h11.879s16.362-35.407,20.956-61.981c4.621-26.73-13.766-27.578-27.993-22.855-7.648,2.539-33.2,24.63-52.02,61.524" transform="translate(-29.304 -27.636)" fill="#ffeae0"/>
          <path id="Trazado_150019" data-name="Trazado 150019" d="M249.3,162.951a14.816,14.816,0,0,0,3.841,8.88c.354.4.939-.188.587-.587a13.886,13.886,0,0,1-3.6-8.293c-.036-.53-.866-.534-.83,0" transform="translate(-42.353 -27.616)" fill="#2b244a"/>
          <path id="Trazado_150020" data-name="Trazado 150020" d="M261.214,153.325l-7.382,7.953a26.589,26.589,0,0,0,2.011,5.709,30.011,30.011,0,0,0,3.743,5.116l11.966-12.451Z" transform="translate(-43.124 -26.049)" fill="#e0785e"/>
          <path id="Trazado_150021" data-name="Trazado 150021" d="M221.057,240.377l5.911-4.159c.433-.3.019-1.025-.419-.716l-5.911,4.159c-.433.3-.019,1.024.419.716" transform="translate(-37.453 -39.997)" fill="#2b244a"/>
          <path id="Trazado_150022" data-name="Trazado 150022" d="M219.3,229.756l17.5-11.991,5.037-3.452c.437-.3.023-1.019-.419-.716l-17.5,11.991-5.037,3.452c-.437.3-.023,1.019.419.716" transform="translate(-37.155 -36.276)" fill="#2b244a"/>
          <path id="Trazado_150023" data-name="Trazado 150023" d="M226.623,223.675s8.69,27.661,22.486,29.637c11.852,1.7,18.792-1.669,20.637-21.407s-1.342-55.534-1.342-55.534a23.07,23.07,0,0,1,5.285-1.951c2.213-.369,4.932,4,9.2,2.813,2.236-.623-2.132-7.846-5.257-11.253-3.264-3.558-6.8-4.911-16.672-3.159s-11.72,7.722-12.544,12.174c-.922,4.981-6.686,38.37-6.686,38.37Z" transform="translate(-38.501 -27.532)" fill="#e0785e"/>
          <path id="Trazado_150024" data-name="Trazado 150024" d="M256.208,168.654a16.764,16.764,0,0,1,3.987-3.277,17.033,17.033,0,0,1,4.678-2.029.415.415,0,0,0-.221-.8,17.8,17.8,0,0,0-4.877,2.112,17.51,17.51,0,0,0-4.155,3.408c-.349.4.236.991.587.587" transform="translate(-43.41 -27.613)" fill="#2b244a"/>
          <path id="Trazado_150025" data-name="Trazado 150025" d="M242.95,234.733q.908-5.44,1.816-10.88c.087-.523-.712-.748-.8-.221q-.908,5.44-1.816,10.88c-.087.523.712.747.8.221" transform="translate(-41.138 -37.942)" fill="#2b244a"/>
          <path id="Trazado_150026" data-name="Trazado 150026" d="M211.957,198.363q2.332,13.877,5.317,27.635.839,3.877,1.728,7.745c.12.52.92.3.8-.221q-3.15-13.716-5.677-27.563-.711-3.9-1.368-7.817c-.088-.525-.888-.3-.8.221" transform="translate(-36.008 -33.612)" fill="#2b244a"/>
          <path id="Trazado_150027" data-name="Trazado 150027" d="M278.708,226.59c.008,3.338,0,6.677-.129,10.013a69.54,69.54,0,0,1-.96,10.125c-.1.523.7.746.8.221a70.461,70.461,0,0,0,.984-10.174c.134-3.393.144-6.789.135-10.185a.415.415,0,0,0-.83,0" transform="translate(-47.164 -38.427)" fill="#2b244a"/>
          <path id="Trazado_150028" data-name="Trazado 150028" d="M284.772,164.629a7.7,7.7,0,0,1,1.81,1.713c.8.921,1.542,1.891,2.26,2.877q1.027,1.412,1.981,2.878a13.717,13.717,0,0,1,1.147,1.938s0-.007.023.061c.066.188.117.383.164.576a3.02,3.02,0,0,1,.073,1.4,1.9,1.9,0,0,1-2.184,1.225c-.523-.085-.748.714-.221.8a2.662,2.662,0,0,0,3.284-2.644,5.666,5.666,0,0,0-.935-2.767,52.882,52.882,0,0,0-4.517-6.359,9.941,9.941,0,0,0-2.466-2.42.415.415,0,0,0-.419.716" transform="translate(-48.346 -27.837)" fill="#2b244a"/>
          <path id="Trazado_150029" data-name="Trazado 150029" d="M349.6,412.937c3.446-1.068,6.887-2.151,10.333-3.219.509-.158.292-.96-.221-.8-3.446,1.068-6.887,2.151-10.333,3.219-.509.158-.291.959.221.8" transform="translate(-59.307 -69.468)" fill="#8c75b5"/>
          <path id="Trazado_150030" data-name="Trazado 150030" d="M252.557,134.925c.616-8.944,8.079-11.153,16.326-9.514s10.449,5.035,11.9,12.084,2.556,15.421,2.467,17.709c-.11,2.841-2.551,7.337-8.866,5.647a31.7,31.7,0,0,1-13.97-8.118c-2.216-2.15-8.477-8.864-7.861-17.808" transform="translate(-42.9 -21.222)" fill="#e0785e"/>
          <path id="Trazado_150031" data-name="Trazado 150031" d="M277,128.011c-3.579-2.946-12.369-5.284-19.234-3.025a11.567,11.567,0,0,0-6.984,6.051c-2.03,3.785-5.925,12.7-3.435,16.88,1.758,2.954,5.528,3.522,8.252,3.51.389.362.5.3.5.3a7.267,7.267,0,0,0,1.619-.421c.2-.022.378-.045.522-.065.127-.018.2-.112.24-.261,2.16-1.048,5-3.527,4.958-9.321a5.378,5.378,0,0,0,5.31-3.12c1.382-3.618,2.468-6,4.84-6.354a4.465,4.465,0,0,1,4.029.951,9.854,9.854,0,0,1,1.893,3.041s2.2-4.285-2.511-8.165" transform="translate(-41.886 -21.08)" fill="#2b244a"/>
          <path id="Trazado_150032" data-name="Trazado 150032" d="M265.595,144.674a25.545,25.545,0,0,0,5.883-10.977.415.415,0,0,0-.8-.221,24.671,24.671,0,0,1-5.67,10.61c-.359.394.227.983.587.587" transform="translate(-45.003 -22.626)" fill="#8c75b5"/>
          <path id="Trazado_150033" data-name="Trazado 150033" d="M263.535,140.577a23.981,23.981,0,0,0,2.341-4.628.418.418,0,0,0-.29-.511.425.425,0,0,0-.511.29,23.02,23.02,0,0,1-2.257,4.429c-.293.449.425.865.716.419" transform="translate(-44.639 -23.007)" fill="#8c75b5"/>
          <path id="Trazado_150034" data-name="Trazado 150034" d="M259.51,140.579a8.222,8.222,0,0,0,1.123-2.191.417.417,0,0,0-.29-.51.425.425,0,0,0-.511.29c-.032.093-.065.186-.1.278-.017.047-.036.092-.054.138-.006.015-.065.155-.029.071q-.113.263-.245.517a7.905,7.905,0,0,1-.612.989.416.416,0,0,0,.149.568.426.426,0,0,0,.568-.149" transform="translate(-43.957 -23.422)" fill="#8c75b5"/>
          <path id="Trazado_150035" data-name="Trazado 150035" d="M257.326,153.4l-.7,5.042s5.28,1.715,6.939-4.217-6.243-.825-6.243-.825" transform="translate(-43.599 -25.714)" fill="#2b244a"/>
          <path id="Trazado_150036" data-name="Trazado 150036" d="M271.2,149.787a4.722,4.722,0,1,1-4.518-4.917,4.721,4.721,0,0,1,4.518,4.917" transform="translate(-44.47 -24.611)" fill="#e0785e"/>
          <path id="Trazado_150037" data-name="Trazado 150037" d="M286.623,145.1a3.783,3.783,0,0,1-.41-.114c-1.423-.46-2.521.452-2.917-.849-.282-.95.259-1.706,2.03-1.64a4.536,4.536,0,0,1,1.3.227l.007,0a1.6,1.6,0,0,1-.011,2.373" transform="translate(-48.117 -24.209)" fill="#2b244a"/>
          <path id="Trazado_150038" data-name="Trazado 150038" d="M278.252,144.575c.085,1.356-1.258.885-2.439,1.811-1.085.85-1.957,1.07-2.232.379-.332-.834.455-2.3,2.2-3.023,1.634-.677,2.409-.155,2.471.833" transform="translate(-46.466 -24.368)" fill="#2b244a"/>
          <path id="Trazado_150039" data-name="Trazado 150039" d="M265.9,152.062c-1.366-1-1.295-3.608.544-4.032.521-.12.3-.921-.22-.8a2.852,2.852,0,0,0-2.081,2.425,3.316,3.316,0,0,0,1.337,3.124.417.417,0,0,0,.568-.149.424.424,0,0,0-.149-.568" transform="translate(-44.871 -25.011)" fill="#2b244a"/>
          <path id="Trazado_150040" data-name="Trazado 150040" d="M282.932,152.958a2.5,2.5,0,0,0,1.836-.662,1,1,0,0,0,.328-.928,2.1,2.1,0,0,0-.53-.859c-.326-.4-.672-.78-.985-1.188a9.758,9.758,0,0,1-.833-1.331c-.252-.472-.969-.053-.717.418a12.489,12.489,0,0,0,1.517,2.17c.161.191.322.383.48.576.1.12.337.326.22.49a1.309,1.309,0,0,1-.532.36,1.755,1.755,0,0,1-.784.123c-.534-.028-.532.8,0,.83" transform="translate(-47.906 -25.107)" fill="#2b244a"/>
          <path id="Trazado_150041" data-name="Trazado 150041" d="M280.488,157.085c1.786,2.06,4.574,1.858,5.7-.763a.255.255,0,0,0-.27-.35l-5.269.7a.255.255,0,0,0-.164.416" transform="translate(-47.642 -26.498)" fill="#2b244a"/>
          <path id="Trazado_150042" data-name="Trazado 150042" d="M278.409,148.565a1,1,0,0,0-.9-.317.942.942,0,0,0-.666.814,3.261,3.261,0,0,0,.073,1.162,2.082,2.082,0,0,0,.621,1.2.873.873,0,0,0,1.4-.606,2.888,2.888,0,0,0-.529-2.251" transform="translate(-47.029 -25.183)" fill="#2b244a"/>
          <path id="Trazado_150043" data-name="Trazado 150043" d="M286.82,147.12a1,1,0,0,0-.9-.317.942.942,0,0,0-.666.814,3.262,3.262,0,0,0,.073,1.162,2.082,2.082,0,0,0,.621,1.2.873.873,0,0,0,1.4-.606,2.887,2.887,0,0,0-.529-2.251" transform="translate(-48.458 -24.938)" fill="#2b244a"/>
          <path id="Trazado_150044" data-name="Trazado 150044" d="M275.887,140.466c1.137.565,5.984-4.437,5.813-8.166s-4.553-1.12-4.553-1.12a9.289,9.289,0,0,1,.184,4.227c-.465,2.159-2.8,4.385-1.444,5.059" transform="translate(-46.8 -22.136)" fill="#2b244a"/>
          <path id="Trazado_150045" data-name="Trazado 150045" d="M265.557,162.327a32.111,32.111,0,0,0,9,4.677,11.2,11.2,0,0,0,7.733.149,4.941,4.941,0,0,0,3.023-3.508c.119-.52-.682-.742-.8-.221a4.131,4.131,0,0,1-2.671,3.013,8.653,8.653,0,0,1-3.515.532,20.922,20.922,0,0,1-7.69-2.494,33.978,33.978,0,0,1-4.664-2.865c-.433-.315-.847.4-.419.716" transform="translate(-45.085 -27.443)" fill="#2b244a"/>
          <path id="Trazado_150046" data-name="Trazado 150046" d="M267.366,155.9a.983.983,0,1,1-1.024-.939.983.983,0,0,1,1.024.939" transform="translate(-45.089 -26.327)" fill="#ffeae0"/>
          <path id="Trazado_150047" data-name="Trazado 150047" d="M367.974,426.217c2.645,1.139,5.249,2.365,7.846,3.607a7.936,7.936,0,0,1,3.258,2.661A10.108,10.108,0,0,1,380.561,437c.057.526.888.531.83,0a11.422,11.422,0,0,0-1.423-4.662,8.323,8.323,0,0,0-3.14-2.933c-1.308-.72-2.706-1.31-4.058-1.942q-2.173-1.016-4.376-1.962c-.486-.208-.909.506-.419.717" transform="translate(-62.479 -72.282)" fill="#8c75b5"/>
          <path id="Trazado_150048" data-name="Trazado 150048" d="M104.676,274.622s-2.384,10.557,6.3,10.557h65.3c6.726,0,7.535,9.237,3.576,20.731s-11.11,33.758-11.11,33.758h4.6s10.229-29.948,11.877-33.375,9.2-26.308-3.916-30.4-76.626-1.277-76.626-1.277" transform="translate(-17.733 -46.496)" fill="#b06641"/>
          <path id="Trazado_150049" data-name="Trazado 150049" d="M327.167,253.388H343.3s.516,9.742-.491,16.156c-1.05,6.685-2.985,9.053-4.559,9.958a7.042,7.042,0,0,1-6.035,0c-1.574-.9-3.509-3.273-4.558-9.958-1.007-6.414-.492-16.156-.492-16.156" transform="translate(-55.56 -43.048)" fill="#d9a389"/>
          <path id="Trazado_150050" data-name="Trazado 150050" d="M344.915,271.859a9.426,9.426,0,0,0,7.291-5.1,8.963,8.963,0,0,0,.784-4.817,6.285,6.285,0,0,0-2.072-3.778,7.628,7.628,0,0,0-4.74-1.952c-.534-.026-.533.8,0,.83a6.356,6.356,0,0,1,5.95,4.738,7.9,7.9,0,0,1-3.081,7.552,9.534,9.534,0,0,1-4.352,1.725c-.526.076-.3.876.221.8" transform="translate(-58.509 -43.528)" fill="#d9a389"/>
          <path id="Trazado_150051" data-name="Trazado 150051" d="M396.994,288.427a7.66,7.66,0,0,1,4.334,3.335,7.01,7.01,0,0,1,.623,2.453q.223,1.6.445,3.194.464,3.327.927,6.653,1.849,13.266,3.7,26.531l3.748,26.889q1.872,13.425,3.742,26.849,1.84,13.206,3.682,26.412.23,1.655.462,3.31c.073.527.873.3.8-.221L415.715,387q-1.9-13.6-3.789-27.192-1.893-13.569-3.784-27.139-1.884-13.519-3.769-27.039-.473-3.391-.945-6.78-.23-1.659-.462-3.317a24.643,24.643,0,0,0-.462-3.056c-.618-2.273-2.717-3.813-4.8-4.666-.159-.066-.32-.13-.485-.183-.51-.164-.728.637-.221.8" transform="translate(-67.397 -48.861)" fill="#dec6bd"/>
          <path id="Trazado_150052" data-name="Trazado 150052" d="M334.9,287.613c-2.9.033-4.8,2.083-5.4,4.818-.457,2.078-.621,4.258-.915,6.366l-.9,6.488-3.663,26.28q-1.844,13.227-3.687,26.453-1.842,13.208-3.682,26.416Q314.823,397.519,313,410.6q-.225,1.614-.45,3.228c-.073.523.726.749.8.221l3.574-25.64q1.805-12.953,3.612-25.906,1.809-12.987,3.62-25.974,1.8-12.921,3.6-25.843.9-6.436,1.794-12.872l.451-3.232a15.932,15.932,0,0,1,.521-2.766,4.732,4.732,0,0,1,2.557-3.037,4.861,4.861,0,0,1,1.82-.34.415.415,0,0,0,0-.83" transform="translate(-53.099 -48.863)" fill="#dec6bd"/>
          <path id="Trazado_150053" data-name="Trazado 150053" d="M474.384,288.591H316.664a2.064,2.064,0,0,1,0-4.127H474.384a2.064,2.064,0,1,1,0,4.127" transform="translate(-53.448 -48.328)" fill="#b06641"/>
          <path id="Trazado_150054" data-name="Trazado 150054" d="M411.489,284.975a3.53,3.53,0,0,1-.061,3.068.425.425,0,0,0,.149.568.419.419,0,0,0,.568-.149,4.418,4.418,0,0,0,.06-3.906.418.418,0,0,0-.568-.149.425.425,0,0,0-.149.568" transform="translate(-69.889 -48.309)" fill="#2b244a"/>
          <path id="Trazado_150055" data-name="Trazado 150055" d="M459.262,179.962h-2.279s-6.063,13.2-7.681,13.2c-1.2,0-.3-13.2-.3-13.2h-92.23a1.617,1.617,0,0,1-1.606-1.8l7.54-64.367a1.617,1.617,0,0,1,1.605-1.429H466.8a1.617,1.617,0,0,1,1.605,1.8l-7.539,64.367a1.617,1.617,0,0,1-1.605,1.429" transform="translate(-60.338 -19.089)" fill="#8498d9"/>
          <path id="Trazado_150056" data-name="Trazado 150056" d="M450.1,184.122H374.839a134.573,134.573,0,0,1,3.362-22.131c1.312-4.931,2.964-9.754,5.852-13.705a24.148,24.148,0,0,1,11.431-8.16,57.111,57.111,0,0,1,15.224-2.88,98.863,98.863,0,0,1,15.548-.158c6.342.548,12.7,2.274,17.092,7.737a18.252,18.252,0,0,1,2.964,5.338,39.291,39.291,0,0,1,1.735,7.338c.556,3.528,1.826,20.147,2.059,26.622" transform="translate(-63.682 -23.249)" fill="#ffeae0"/>
          <path id="Trazado_150057" data-name="Trazado 150057" d="M415.433,139.012q.7,11.853,1.4,23.7.19,3.211.379,6.423c.032.53.862.535.83,0q-.7-11.853-1.4-23.705-.191-3.211-.379-6.423c-.032-.531-.862-.535-.83,0" transform="translate(-70.578 -23.549)" fill="#2b244a"/>
          <path id="Trazado_150058" data-name="Trazado 150058" d="M345.879,141.432a9.078,9.078,0,0,0-2.456-2.365,16.727,16.727,0,0,0-6.648-1.841c-5.641-.585-19.53-1.165-22.977-.46a2.27,2.27,0,0,0-1.851,1.986,1.863,1.863,0,0,0-1.058,2.2c.139.471,1.058,1.2,1.058,1.2a3.126,3.126,0,0,0-.445,1.7,2.384,2.384,0,0,0,.97,1.556c3.8,1.7,16.207,3.468,20.074,4.7a8.866,8.866,0,0,1,3.426,1.88c.876.823,3.187,3.13,3.615,2.737,3.176-2.916,8.228-7.124,9.295-8.908a42.728,42.728,0,0,0-3-4.388" transform="translate(-52.803 -23.18)" fill="#ffa58f"/>
          <path id="Trazado_150059" data-name="Trazado 150059" d="M347.238,138.918s-3.925-4.2-12.926-6.831c-6.461-1.886-7.3-.587-6.919.765.4,1.407,5.255,4.057,5.255,4.057Z" transform="translate(-55.608 -22.28)" fill="#ffa58f"/>
          <path id="Trazado_150060" data-name="Trazado 150060" d="M336.243,142.213a5.807,5.807,0,0,1,.721-4.292c.28-.457-.437-.874-.716-.418a6.663,6.663,0,0,0-.805,4.932c.117.52.918.3.8-.221" transform="translate(-56.961 -23.327)" fill="#2b244a"/>
          <path id="Trazado_150061" data-name="Trazado 150061" d="M331.437,137.182a10.824,10.824,0,0,0,1.967.789,16.346,16.346,0,0,0,1.947.529.426.426,0,0,0,.51-.291.417.417,0,0,0-.29-.51,16.259,16.259,0,0,1-1.9-.512,9.7,9.7,0,0,1-1.82-.722c-.467-.261-.886.455-.419.716" transform="translate(-56.274 -23.175)" fill="#2b244a"/>
          <path id="Trazado_150062" data-name="Trazado 150062" d="M312.525,139.714q6.281.625,12.575.986c.534.031.532-.8,0-.83q-6.3-.361-12.575-.986c-.531-.053-.527.778,0,.83" transform="translate(-53.028 -23.595)" fill="#2b244a"/>
          <path id="Trazado_150063" data-name="Trazado 150063" d="M312.237,143.551q6.4.636,12.814,1.005c.534.031.532-.8,0-.83q-6.42-.369-12.814-1.005c-.531-.053-.527.778,0,.83" transform="translate(-52.979 -24.247)" fill="#2b244a"/>
          <path id="Trazado_150064" data-name="Trazado 150064" d="M484.66,118.921a2.49,2.49,0,1,1-2.49-2.49,2.49,2.49,0,0,1,2.49,2.49" transform="translate(-81.493 -19.781)" fill="#fff"/>
          <path id="Trazado_150065" data-name="Trazado 150065" d="M474.66,118.921a2.49,2.49,0,1,1-2.49-2.49,2.49,2.49,0,0,1,2.49,2.49" transform="translate(-79.794 -19.781)" fill="#fff"/>
          <path id="Trazado_150066" data-name="Trazado 150066" d="M421.147,178.705c-2.781-2.756-7.712-6.3-12.452-6.06-3.993.208-11.5,4.7-13.091,8.185a1.834,1.834,0,0,0,.075,2.017,2.331,2.331,0,0,0,1.835.946.81.81,0,0,0,.2-.017c-.216.191-.44.374-.648.581a2.472,2.472,0,0,0-.714,1.1,2,2,0,0,0,.963,2.117,4.146,4.146,0,0,0,2.532.448,3.207,3.207,0,0,0,.042,1.61,6.3,6.3,0,0,0,.31.573h17.868c1.129-1.22,1.727-3.345,2.176-4.906a39.074,39.074,0,0,0,.9-6.591" transform="translate(-67.165 -29.329)" fill="#ffa58f"/>
          <path id="Trazado_150067" data-name="Trazado 150067" d="M421.354,119.779,422.6,134s-4.917,4.3-12.935,1.113l.218-8.478Z" transform="translate(-69.598 -20.349)" fill="#ffa58f"/>
          <path id="Trazado_150068" data-name="Trazado 150068" d="M406,109.476a5.118,5.118,0,1,1-5.119-5.118A5.118,5.118,0,0,1,406,109.476" transform="translate(-67.237 -17.729)" fill="#2b244a"/>
          <path id="Trazado_150069" data-name="Trazado 150069" d="M420.621,106.481c-1.277-7.341-6.986-8.717-13.662-6.654s-8.206,5.058-8.8,11.01a125.317,125.317,0,0,0-.519,14.849c.108,1.9,2.585,5.75,7.659,3.81a26.122,26.122,0,0,0,10.859-7.641c1.648-1.968,5.742-8.033,4.465-15.374" transform="translate(-67.547 -16.812)" fill="#ffa58f"/>
          <path id="Trazado_150070" data-name="Trazado 150070" d="M412.248,111.608a20.906,20.906,0,0,0,1.966,5.516c1.488,2.8,1.479,4.863,5.738,6.459V116.6s3.667-3.676,2.01-7.043c0,0,2.56-1.223,2.214-4.958-.212-2.289-1.628-3.05-2.527-3.736a2.368,2.368,0,0,1-.825-1.453c-.559-2.006-3.185-4.151-7.923-3.389s-5.129,2.334-6.226,2.594-2.4-.934-5.694-.035c-3.138.857-5.272,5.638-1.951,8.474,2.783,2.377,7.23.761,7.818,1.038s1.774,3.12,5.4,3.515" transform="translate(-67.507 -16.287)" fill="#2b244a"/>
          <path id="Trazado_150071" data-name="Trazado 150071" d="M398.388,116.3c.672.959,1.324-.08,2.616-.091,1.188-.011,1.893-.331,1.708-.944-.224-.74-1.542-1.306-3.106-.854-1.465.422-1.707,1.19-1.217,1.889" transform="translate(-67.643 -19.41)" fill="#2b244a"/>
          <path id="Trazado_150072" data-name="Trazado 150072" d="M401.186,118.492a.826.826,0,0,0-.658-.438.781.781,0,0,0-.7.517,2.721,2.721,0,0,0-.179.949,1.721,1.721,0,0,0,.254,1.089.724.724,0,0,0,1.248-.2,2.392,2.392,0,0,0,.036-1.917" transform="translate(-67.896 -20.056)" fill="#2b244a"/>
          <path id="Trazado_150073" data-name="Trazado 150073" d="M411.347,118.709a3.861,3.861,0,1,0,3.793-3.929,3.861,3.861,0,0,0-3.793,3.929" transform="translate(-69.884 -19.5)" fill="#ffa58f"/>
          <path id="Trazado_150074" data-name="Trazado 150074" d="M397.567,118.052s-2.751,4.373-2.543,5.266,2.836,1.307,2.836,1.307Z" transform="translate(-67.109 -20.056)" fill="#ffa58f"/>
          <path id="Trazado_150075" data-name="Trazado 150075" d="M416.394,117.265a1.608,1.608,0,0,1,1.029,1.038,2.844,2.844,0,0,1-.15,1.934.418.418,0,0,0,.29.511.425.425,0,0,0,.51-.29,3.474,3.474,0,0,0,.115-2.471,2.448,2.448,0,0,0-1.574-1.522.415.415,0,0,0-.221.8" transform="translate(-70.692 -19.783)" fill="#2b244a"/>
          <path id="Trazado_150076" data-name="Trazado 150076" d="M337.758,153.911s10.084,21.991,16.391,31.907l24.405-.041L354.3,146.839Z" transform="translate(-57.382 -24.947)" fill="#ffeae0"/>
          <path id="Trazado_150077" data-name="Trazado 150077" d="M410.4,134.765a21.726,21.726,0,0,0,3.517-2.595.415.415,0,1,0-.588-.587,20.635,20.635,0,0,1-3.349,2.465.415.415,0,0,0,.419.716" transform="translate(-69.618 -22.335)" fill="#2b244a"/>
          <path id="Trazado_150078" data-name="Trazado 150078" d="M391.146,175.194c-.842,5.064-1.3,10.185-2.2,15.239-.093.522.706.746.8.221.9-5.055,1.356-10.175,2.2-15.239.087-.523-.713-.747-.8-.221" transform="translate(-66.077 -29.713)" fill="#2b244a"/>
          <path id="Trazado_150079" data-name="Trazado 150079" d="M436.137,170.556v13.02a.415.415,0,0,0,.83,0v-13.02a.415.415,0,0,0-.83,0" transform="translate(-74.096 -28.908)" fill="#2b244a"/>
          <path id="Trazado_150080" data-name="Trazado 150080" d="M398.189,185.276a25.1,25.1,0,0,1,9.916-5.753c.51-.155.292-.956-.221-.8a26.019,26.019,0,0,0-10.282,5.967c-.389.368.2.954.587.587" transform="translate(-67.527 -30.36)" fill="#2b244a"/>
          <path id="Trazado_150081" data-name="Trazado 150081" d="M401.251,189.957a38.04,38.04,0,0,1,9.922-6.042c.486-.2.273-1.005-.221-.8a39.322,39.322,0,0,0-10.288,6.257c-.409.344.181.929.587.587" transform="translate(-68.046 -31.104)" fill="#2b244a"/>
          <path id="Trazado_150082" data-name="Trazado 150082" d="M426.133,180.223a147.955,147.955,0,0,1,16.159,11.32c.412.332,1-.252.587-.587a149.439,149.439,0,0,0-16.327-11.45.415.415,0,0,0-.419.716" transform="translate(-72.362 -30.486)" fill="#2b244a"/>
          <path id="Trazado_150083" data-name="Trazado 150083" d="M405.09,139.161a12.969,12.969,0,0,0,8.014,3.787,13.835,13.835,0,0,0,8.614-2.1,15.254,15.254,0,0,0,3.864-3.452c.329-.414-.255-1.005-.587-.587-3.619,4.552-9.791,6.681-15.306,4.459a11.7,11.7,0,0,1-4.012-2.695c-.373-.383-.96.2-.587.587" transform="translate(-68.801 -23.218)" fill="#2b244a"/>
          <path id="Trazado_150084" data-name="Trazado 150084" d="M397.6,126.861c-.008.9-.008,1.685,0,2.316a6.954,6.954,0,0,0,3.594-2.5c-.241,0-1.876.091-3.594.183" transform="translate(-67.547 -21.521)" fill="#fff"/>
          <path id="Trazado_150085" data-name="Trazado 150085" d="M343.059,163.539l16.4-7.575c.485-.223.063-.939-.419-.716l-16.4,7.575c-.484.223-.063.939.419.716" transform="translate(-58.175 -26.368)" fill="#2b244a"/>
          <path id="Trazado_150086" data-name="Trazado 150086" d="M372.842,119.111H344.847a4.841,4.841,0,0,1-4.827-4.826v-2.713a4.842,4.842,0,0,1,4.827-4.827h27.995a4.841,4.841,0,0,1,4.826,4.827v2.713a4.84,4.84,0,0,1-4.826,4.826" transform="translate(-57.766 -18.135)" fill="#ffeae0"/>
          <path id="Trazado_150087" data-name="Trazado 150087" d="M383.808,115.828v6.548a.83.83,0,0,1-1.126.775l-6.522-2.5Z" transform="translate(-63.906 -19.678)" fill="#ffeae0"/>
          <path id="Trazado_150088" data-name="Trazado 150088" d="M353.57,113.271a.767.767,0,0,0,0,1.532.767.767,0,0,0,0-1.532" transform="translate(-59.943 -19.244)" fill="#2b244a"/>
          <path id="Trazado_150089" data-name="Trazado 150089" d="M362.544,113.271a.767.767,0,0,0,0,1.532.767.767,0,0,0,0-1.532" transform="translate(-61.467 -19.244)" fill="#2b244a"/>
          <path id="Trazado_150090" data-name="Trazado 150090" d="M371.519,113.271a.767.767,0,0,0,0,1.532.767.767,0,0,0,0-1.532" transform="translate(-62.992 -19.244)" fill="#2b244a"/>
          <path id="Trazado_150091" data-name="Trazado 150091" d="M254.013,66.576a28.708,28.708,0,1,1,28.708-28.708,28.74,28.74,0,0,1-28.708,28.708m0-56.586a27.878,27.878,0,1,0,27.878,27.878A27.909,27.909,0,0,0,254.013,9.99" transform="translate(-38.277 -1.556)" fill="#2b244a"/>
          <path id="Trazado_150092" data-name="Trazado 150092" d="M279.239,38.764a24.33,24.33,0,1,1-24.33-24.33,24.33,24.33,0,0,1,24.33,24.33" transform="translate(-39.173 -2.452)" fill="#ffeae0"/>
          <path id="Trazado_150093" data-name="Trazado 150093" d="M259.153,14.333v2.824a.412.412,0,0,0,.823,0V14.333a.412.412,0,0,0-.823,0" transform="translate(-44.028 -2.365)" fill="#2b244a"/>
          <path id="Trazado_150094" data-name="Trazado 150094" d="M260.227,27.879V44.057a.412.412,0,0,0,.823,0V27.879a.412.412,0,0,0-.823,0" transform="translate(-44.21 -4.669)" fill="#2b244a"/>
          <path id="Trazado_150095" data-name="Trazado 150095" d="M269.529,37.78,261.7,44.348l-1.371,1.15c-.407.341.179.921.583.583l7.826-6.569,1.371-1.149c.406-.341-.179-.921-.583-.583" transform="translate(-44.205 -6.401)" fill="#2b244a"/>
          <path id="Trazado_150096" data-name="Trazado 150096" d="M260.454,72.392V69.569a.412.412,0,1,0-.823,0v2.823a.412.412,0,1,0,.823,0" transform="translate(-44.109 -11.749)" fill="#2b244a"/>
          <path id="Trazado_150097" data-name="Trazado 150097" d="M230.486,44.3h2.823a.411.411,0,1,0,0-.823h-2.823a.411.411,0,1,0,0,.823" transform="translate(-39.087 -7.387)" fill="#2b244a"/>
          <path id="Trazado_150098" data-name="Trazado 150098" d="M288.545,43h-2.824a.412.412,0,0,0,0,.823h2.824a.412.412,0,0,0,0-.823" transform="translate(-48.471 -7.305)" fill="#2b244a"/>
          <path id="Trazado_150099" data-name="Trazado 150099" d="M238.613,23.381l2,2a.412.412,0,1,0,.583-.583l-2-2a.412.412,0,1,0-.583.583" transform="translate(-40.518 -3.853)" fill="#2b244a"/>
          <path id="Trazado_150100" data-name="Trazado 150100" d="M280.587,63.514l-2-2a.412.412,0,0,0-.583.582l2,2a.412.412,0,0,0,.583-.583" transform="translate(-47.211 -10.431)" fill="#2b244a"/>
          <path id="Trazado_150101" data-name="Trazado 150101" d="M239.534,64.435l2-2a.412.412,0,0,0-.582-.583l-2,2a.412.412,0,0,0,.583.583" transform="translate(-40.575 -10.489)" fill="#2b244a"/>
          <path id="Trazado_150102" data-name="Trazado 150102" d="M279.666,22.46l-2,2a.412.412,0,0,0,.582.583l2-2a.412.412,0,1,0-.583-.582" transform="translate(-47.153 -3.796)" fill="#2b244a"/>
        </g>
      </g>
    </g>
  </g>
</svg>
