<svg xmlns="http://www.w3.org/2000/svg" xmlns:xlink="http://www.w3.org/1999/xlink" width="144" height="138" viewBox="0 0 144 138">
  <defs>
    <clipPath id="clip-path">
      <rect id="Rect치ngulo_41186" data-name="Rect치ngulo 41186" width="90" height="89.975" fill="none"/>
    </clipPath>
  </defs>
  <g id="Grupo_165881" data-name="Grupo 165881" transform="translate(-807.999 -10680.182)">
    <g id="Grupo_165871" data-name="Grupo 165871" transform="translate(270.999 9392.182)">
      <rect id="Rect치ngulo_40797" data-name="Rect치ngulo 40797" width="144" height="138" transform="translate(537 1288)" fill="#c4d1ff"/>
    </g>
    <g id="Grupo_165997" data-name="Grupo 165997" transform="translate(834.999 10704.182)">
      <g id="Grupo_165997-2" data-name="Grupo 165997" clip-path="url(#clip-path)">
        <path id="Trazado_153648" data-name="Trazado 153648" d="M57.726,88.358a37.464,37.464,0,0,1-6.274,1.22,50.839,50.839,0,0,1-9.851.268,43.325,43.325,0,0,1-18.23-5.437C11.868,77.909,4.285,68.268,1.3,55.38-2.138,40.507,1.264,27.1,11.188,15.5A43.1,43.1,0,0,1,36.667.837a43.467,43.467,0,0,1,34.162,7.4C80.972,15.389,87.352,25.153,89.29,37.43c2.128,13.484-.417,26.013-9.082,36.925a33.31,33.31,0,0,1-5.831,5.793,21.6,21.6,0,0,1-5,2.438,20.774,20.774,0,0,1-13.654-.39,11.839,11.839,0,0,0-1.373-.45c-.754-.494-1.571-.881-2.339-1.355a20.486,20.486,0,0,1-9.1-11.371c-.119-.365-.425-.791.081-1.133a4.389,4.389,0,0,1,1.7.065,20.363,20.363,0,0,0,5.463-.515c.435-.049.549.292.7.584a13.109,13.109,0,0,0,12.445,7.555A11.432,11.432,0,0,0,71.145,72.3c6.516-6,9.962-13.524,11.026-22.241a37.024,37.024,0,0,0-5.529-25.133A36.81,36.81,0,0,0,55.54,9.036,35.485,35.485,0,0,0,43.184,7.554a37.015,37.015,0,0,0-21.72,8.329A36.466,36.466,0,0,0,7.894,40.092a36.188,36.188,0,0,0,7.621,27.985A36.662,36.662,0,0,0,40.034,82.148c1.885.269,3.787.276,5.678.443,1.445.922,2.768,2.025,4.294,2.832a24.294,24.294,0,0,0,7.246,2.708.672.672,0,0,1,.475.228" transform="translate(0 0)" fill="#7f7f7f"/>
        <path id="Trazado_153649" data-name="Trazado 153649" d="M86.443,138.01a1.206,1.206,0,0,1,.943.1,20.414,20.414,0,0,0,18.691-1.442c.164-.1.3-.351.533-.118a42.735,42.735,0,0,1-15.687,8.008c-.314.09-.642.136-.963.2a13.432,13.432,0,0,1-4.846-1.3,25.3,25.3,0,0,1-7.134-4.312,2.849,2.849,0,0,1,1.8-.434,38.081,38.081,0,0,0,5.443-.744c.4-.08.821-.245,1.22.033" transform="translate(-32.233 -56.406)" fill="#666"/>
        <path id="Trazado_153650" data-name="Trazado 153650" d="M79,105.645a18.376,18.376,0,0,0,1,5.385c-.161.361-.48.366-.82.429a20.675,20.675,0,0,1-6.621.161,16.043,16.043,0,0,1-.716-5.975c.312-.294.68-.181,1.027-.12a14.531,14.531,0,0,0,5.107,0c.346-.061.715-.174,1.027.12" transform="translate(-29.676 -43.589)" fill="#666"/>
        <path id="Trazado_153651" data-name="Trazado 153651" d="M70.809,87.425a17.956,17.956,0,0,1-7.161,0,16.447,16.447,0,0,1-7.2-4.133A14.984,14.984,0,0,1,52,72.643c-.036-3.408.006-6.818-.02-10.227,0-.579.136-.781.743-.76,1.2.04,2.412,0,3.618-.013A1.173,1.173,0,0,1,57.1,61.4q2.152-.041,4.306,0a1.171,1.171,0,0,1,.752.248H72.3a1.171,1.171,0,0,1,.752-.248q2.153-.041,4.306,0a1.173,1.173,0,0,1,.753.248c1.236.009,2.473.045,3.709.015.526-.012.653.164.65.668-.022,3.65.06,7.3-.036,10.95A15.228,15.228,0,0,1,71.312,87.24c-.171.049-.335.123-.5.185" transform="translate(-21.488 -25.37)" fill="#f3a906"/>
        <path id="Trazado_153652" data-name="Trazado 153652" d="M65.228,50.608H59.417q0-6.345,0-12.691a2.918,2.918,0,1,1,5.8,0q.006,6.345,0,12.691" transform="translate(-24.561 -14.334)" fill="#988575"/>
        <path id="Trazado_153653" data-name="Trazado 153653" d="M92.432,50.608H86.621q0-6.345,0-12.691a2.918,2.918,0,1,1,5.8,0q.006,6.345,0,12.691" transform="translate(-35.806 -14.334)" fill="#988575"/>
        <path id="Trazado_153654" data-name="Trazado 153654" d="M72.432,74.233c2.357,0,4.713.018,7.069-.012.616-.008.871.15.828.805-.124,1.881.228,3.781-.469,5.638a8.034,8.034,0,0,1-14.962.251c-.86-2.047-.429-4.166-.522-6.255-.027-.6.488-.418.806-.42,2.417-.013,4.833-.007,7.25-.007" transform="translate(-26.599 -30.678)" fill="#f7cb6a"/>
      </g>
    </g>
  </g>
</svg>
